G04 Layer: TopLayer*
G04 EasyEDA v6.5.46, 2025-08-02 21:40:15*
G04 8832990329004e7ebfdb3d49b5405116,ba325f3f76be48ccbdad7cc867071ff5,10*
G04 Gerber Generator version 0.2*
G04 Scale: 100 percent, Rotated: No, Reflected: No *
G04 Dimensions in millimeters *
G04 leading zeros omitted , absolute positions ,4 integer and 5 decimal *
%FSLAX45Y45*%
%MOMM*%

%AMMACRO1*21,1,$1,$2,0,0,$3*%
%ADD10C,0.2540*%
%ADD11C,0.3810*%
%ADD12C,1.0000*%
%ADD13C,6.1020*%
%ADD14R,0.8000X0.5500*%
%ADD15R,1.3000X0.3000*%
%ADD16MACRO1,1.524X1.524X90.0000*%
%ADD17C,1.5240*%
%ADD18C,2.0000*%
%ADD19C,1.6000*%
%ADD20C,1.8000*%
%ADD21R,1.8000X1.8000*%
%ADD22R,1.7000X1.7000*%
%ADD23C,1.7000*%
%ADD24C,1.4000*%
%ADD25C,3.0000*%
%ADD26C,0.8000*%
%ADD27C,0.6100*%
%ADD28C,0.6200*%
%ADD29C,0.0143*%

%LPD*%
G36*
X2220061Y-3155035D02*
G01*
X2216200Y-3154273D01*
X2212898Y-3152089D01*
X2210714Y-3148787D01*
X2209901Y-3144875D01*
X2210714Y-3141014D01*
X2212898Y-3137712D01*
X2751988Y-2598623D01*
X2755087Y-2596489D01*
X2758795Y-2595626D01*
X2762504Y-2596184D01*
X2769006Y-2598470D01*
X2782366Y-2601163D01*
X2795981Y-2602077D01*
X2809595Y-2601163D01*
X2822956Y-2598470D01*
X2835859Y-2594000D01*
X2848000Y-2587853D01*
X2859278Y-2580132D01*
X2869387Y-2570988D01*
X2878175Y-2560574D01*
X2885541Y-2549042D01*
X2891282Y-2536698D01*
X2895295Y-2523642D01*
X2897581Y-2510231D01*
X2898038Y-2496566D01*
X2896666Y-2483002D01*
X2893517Y-2469743D01*
X2888589Y-2457043D01*
X2882036Y-2445054D01*
X2873959Y-2434082D01*
X2864459Y-2424277D01*
X2853791Y-2415844D01*
X2842056Y-2408885D01*
X2829458Y-2403551D01*
X2816352Y-2399944D01*
X2802788Y-2398115D01*
X2789174Y-2398115D01*
X2775661Y-2399944D01*
X2762504Y-2403551D01*
X2749956Y-2408885D01*
X2738221Y-2415844D01*
X2727502Y-2424277D01*
X2718054Y-2434082D01*
X2709926Y-2445054D01*
X2703372Y-2457043D01*
X2698496Y-2469743D01*
X2695346Y-2483002D01*
X2693974Y-2496566D01*
X2694432Y-2510231D01*
X2696667Y-2523642D01*
X2699867Y-2533853D01*
X2700274Y-2537510D01*
X2699410Y-2541066D01*
X2697327Y-2544064D01*
X2183841Y-3057550D01*
X2180590Y-3059734D01*
X2176678Y-3060496D01*
X2172766Y-3059734D01*
X2169515Y-3057550D01*
X2167280Y-3054248D01*
X2166518Y-3050336D01*
X2166518Y-2680309D01*
X2167280Y-2676398D01*
X2169515Y-2673096D01*
X2243988Y-2598623D01*
X2247087Y-2596489D01*
X2250795Y-2595626D01*
X2254504Y-2596184D01*
X2261006Y-2598470D01*
X2274366Y-2601163D01*
X2287981Y-2602077D01*
X2301595Y-2601163D01*
X2314956Y-2598470D01*
X2327859Y-2594000D01*
X2340000Y-2587853D01*
X2351278Y-2580132D01*
X2361387Y-2570988D01*
X2370175Y-2560574D01*
X2377541Y-2549042D01*
X2383282Y-2536698D01*
X2387295Y-2523642D01*
X2389581Y-2510231D01*
X2390038Y-2496566D01*
X2388666Y-2483002D01*
X2385517Y-2469743D01*
X2380589Y-2457043D01*
X2374036Y-2445054D01*
X2365959Y-2434082D01*
X2356459Y-2424277D01*
X2345791Y-2415844D01*
X2334056Y-2408885D01*
X2321458Y-2403551D01*
X2308352Y-2399944D01*
X2294788Y-2398115D01*
X2281174Y-2398115D01*
X2267661Y-2399944D01*
X2253691Y-2403805D01*
X2250135Y-2404160D01*
X2246731Y-2403246D01*
X2243785Y-2401214D01*
X2160930Y-2318308D01*
X2158746Y-2315006D01*
X2157984Y-2311146D01*
X2157984Y189839D01*
X2158746Y193751D01*
X2160930Y197002D01*
X2164232Y199237D01*
X2168144Y199999D01*
X2994863Y199999D01*
X2998774Y199237D01*
X3002076Y197002D01*
X3004261Y193751D01*
X3005023Y189839D01*
X3005023Y-2387752D01*
X3004261Y-2391613D01*
X3002076Y-2394915D01*
X2998774Y-2397099D01*
X2994863Y-2397912D01*
X2974340Y-2397912D01*
X2968040Y-2398623D01*
X2962605Y-2400503D01*
X2957677Y-2403602D01*
X2953613Y-2407666D01*
X2950514Y-2412593D01*
X2948584Y-2418029D01*
X2947873Y-2424379D01*
X2947873Y-2534310D01*
X2947111Y-2538222D01*
X2944926Y-2541524D01*
X2334361Y-3152089D01*
X2331059Y-3154273D01*
X2327148Y-3155035D01*
G37*

%LPC*%
G36*
X2586431Y-2591663D02*
G01*
X2594000Y-2587853D01*
X2605278Y-2580132D01*
X2615387Y-2570988D01*
X2624175Y-2560574D01*
X2631541Y-2549042D01*
X2633675Y-2544470D01*
X2586431Y-2544470D01*
G37*
G36*
X2497531Y-2591663D02*
G01*
X2497531Y-2544470D01*
X2450338Y-2544470D01*
X2452471Y-2549042D01*
X2459786Y-2560574D01*
X2468626Y-2570988D01*
X2478735Y-2580132D01*
X2489962Y-2587853D01*
G37*
G36*
X2450185Y-2455570D02*
G01*
X2497531Y-2455570D01*
X2497531Y-2408224D01*
X2495956Y-2408885D01*
X2484221Y-2415844D01*
X2473502Y-2424277D01*
X2464054Y-2434082D01*
X2455926Y-2445054D01*
G37*
G36*
X2586431Y-2455570D02*
G01*
X2633776Y-2455570D01*
X2628036Y-2445054D01*
X2619959Y-2434082D01*
X2610459Y-2424277D01*
X2599791Y-2415844D01*
X2588056Y-2408885D01*
X2586431Y-2408224D01*
G37*

%LPD*%
G36*
X5189829Y-3281019D02*
G01*
X5185918Y-3280257D01*
X5182666Y-3278073D01*
X4676648Y-2772054D01*
X4674311Y-2768447D01*
X4673701Y-2764180D01*
X4674920Y-2760014D01*
X4677765Y-2756763D01*
X4681677Y-2754934D01*
X4685995Y-2754934D01*
X4692751Y-2756408D01*
X4702403Y-2756814D01*
X4711954Y-2755595D01*
X4721199Y-2752750D01*
X4729784Y-2748432D01*
X4737557Y-2742692D01*
X4744262Y-2735732D01*
X4749647Y-2727706D01*
X4753610Y-2718917D01*
X4756048Y-2709621D01*
X4756759Y-2701188D01*
X4757674Y-2697784D01*
X4759706Y-2694889D01*
X4826914Y-2627630D01*
X4832045Y-2621432D01*
X4835601Y-2614726D01*
X4837785Y-2607513D01*
X4838598Y-2599486D01*
X4838598Y-2245715D01*
X4839309Y-2241905D01*
X4841443Y-2238654D01*
X4844237Y-2235708D01*
X4849622Y-2227732D01*
X4853635Y-2218944D01*
X4856022Y-2209596D01*
X4856886Y-2199995D01*
X4856022Y-2190394D01*
X4853635Y-2181047D01*
X4849622Y-2172258D01*
X4844237Y-2164283D01*
X4837582Y-2157323D01*
X4829810Y-2151583D01*
X4821174Y-2147214D01*
X4811979Y-2144420D01*
X4802428Y-2143150D01*
X4792776Y-2143607D01*
X4783328Y-2145639D01*
X4774387Y-2149195D01*
X4766157Y-2154275D01*
X4758944Y-2160625D01*
X4752848Y-2168144D01*
X4748174Y-2176576D01*
X4744974Y-2185670D01*
X4743348Y-2195169D01*
X4743348Y-2204821D01*
X4744974Y-2214321D01*
X4748174Y-2223414D01*
X4752848Y-2231847D01*
X4759147Y-2239568D01*
X4760823Y-2242566D01*
X4761382Y-2245969D01*
X4761382Y-2579776D01*
X4760620Y-2583688D01*
X4758385Y-2586990D01*
X4704994Y-2640380D01*
X4701895Y-2642514D01*
X4698238Y-2643327D01*
X4692751Y-2643581D01*
X4683353Y-2645613D01*
X4674362Y-2649220D01*
X4666183Y-2654249D01*
X4658918Y-2660650D01*
X4654245Y-2666492D01*
X4650841Y-2669184D01*
X4646625Y-2670251D01*
X4642408Y-2669438D01*
X4638852Y-2666949D01*
X4636668Y-2663240D01*
X4634738Y-2657348D01*
X4628540Y-2644140D01*
X4620768Y-2631897D01*
X4611471Y-2620670D01*
X4600854Y-2610713D01*
X4589068Y-2602128D01*
X4576318Y-2595118D01*
X4562805Y-2589784D01*
X4548682Y-2586177D01*
X4534255Y-2584348D01*
X4519726Y-2584348D01*
X4505299Y-2586177D01*
X4491177Y-2589784D01*
X4483201Y-2592933D01*
X4479340Y-2593644D01*
X4475530Y-2592882D01*
X4472279Y-2590698D01*
X4187139Y-2305558D01*
X4184802Y-2301951D01*
X4184192Y-2297684D01*
X4185361Y-2293569D01*
X4188155Y-2290267D01*
X4192066Y-2288438D01*
X4196384Y-2288438D01*
X4200296Y-2290165D01*
X4210913Y-2297836D01*
X4221632Y-2303729D01*
X4221632Y-2251354D01*
X4169308Y-2251354D01*
X4171442Y-2255824D01*
X4179214Y-2268118D01*
X4183329Y-2273046D01*
X4185310Y-2276957D01*
X4185513Y-2281326D01*
X4183786Y-2285390D01*
X4180535Y-2288336D01*
X4176369Y-2289657D01*
X4172000Y-2289098D01*
X4168292Y-2286711D01*
X4141673Y-2260041D01*
X4139437Y-2256739D01*
X4138676Y-2252878D01*
X4138676Y-1600454D01*
X4137863Y-1592427D01*
X4135678Y-1585214D01*
X4132122Y-1578508D01*
X4126992Y-1572310D01*
X4077665Y-1522984D01*
X4071467Y-1517853D01*
X4064762Y-1514297D01*
X4057548Y-1512112D01*
X4049522Y-1511300D01*
X3942791Y-1511300D01*
X3938524Y-1510385D01*
X3935069Y-1507744D01*
X3932986Y-1503883D01*
X3932732Y-1499565D01*
X3934714Y-1494942D01*
X3940810Y-1482547D01*
X3945280Y-1469390D01*
X3947972Y-1455826D01*
X3948887Y-1442008D01*
X3947972Y-1428191D01*
X3945280Y-1414576D01*
X3940810Y-1401470D01*
X3934714Y-1389075D01*
X3926992Y-1377543D01*
X3917848Y-1367129D01*
X3907434Y-1357985D01*
X3895953Y-1350314D01*
X3883507Y-1344168D01*
X3870401Y-1339748D01*
X3856837Y-1337005D01*
X3843020Y-1336090D01*
X3829151Y-1337005D01*
X3815587Y-1339748D01*
X3802481Y-1344168D01*
X3790035Y-1350314D01*
X3778554Y-1357985D01*
X3768140Y-1367129D01*
X3758996Y-1377543D01*
X3751275Y-1389075D01*
X3745179Y-1401470D01*
X3740708Y-1414576D01*
X3738016Y-1428191D01*
X3737101Y-1442008D01*
X3738016Y-1455826D01*
X3740708Y-1469390D01*
X3745179Y-1482547D01*
X3753662Y-1499971D01*
X3753510Y-1504137D01*
X3751732Y-1507896D01*
X3748582Y-1510639D01*
X3744620Y-1511858D01*
X3742537Y-1512112D01*
X3735324Y-1514297D01*
X3728618Y-1517853D01*
X3722420Y-1522984D01*
X3273044Y-1972360D01*
X3267913Y-1978558D01*
X3264357Y-1985264D01*
X3262172Y-1992477D01*
X3261360Y-2000504D01*
X3261360Y-2980080D01*
X3260547Y-2984042D01*
X3258261Y-2987395D01*
X3254806Y-2989580D01*
X3250793Y-2990240D01*
X3246831Y-2989275D01*
X3243580Y-2986836D01*
X3241090Y-2981858D01*
X3237026Y-2974594D01*
X3231438Y-2967888D01*
X3068726Y-2805125D01*
X3066694Y-2802229D01*
X3065780Y-2798775D01*
X3065018Y-2789428D01*
X3062478Y-2779115D01*
X3058312Y-2769362D01*
X3052673Y-2760421D01*
X3045612Y-2752496D01*
X3037433Y-2745790D01*
X3028238Y-2740456D01*
X3018332Y-2736697D01*
X3007918Y-2734614D01*
X2997352Y-2734157D01*
X2986836Y-2735427D01*
X2976626Y-2738424D01*
X2967075Y-2742946D01*
X2958338Y-2748991D01*
X2950667Y-2756306D01*
X2944317Y-2764790D01*
X2939389Y-2774188D01*
X2936036Y-2784246D01*
X2934309Y-2794711D01*
X2934309Y-2805277D01*
X2936036Y-2815742D01*
X2939389Y-2825800D01*
X2944317Y-2835198D01*
X2950667Y-2843682D01*
X2958338Y-2850997D01*
X2967075Y-2857042D01*
X2976626Y-2861564D01*
X2986836Y-2864561D01*
X2997606Y-2865780D01*
X3001721Y-2866491D01*
X3005175Y-2868777D01*
X3152038Y-3015640D01*
X3154273Y-3018942D01*
X3155035Y-3022803D01*
X3155035Y-3177184D01*
X3154273Y-3181045D01*
X3152038Y-3184347D01*
X3084322Y-3252063D01*
X3081070Y-3254248D01*
X3077159Y-3255010D01*
X2472740Y-3255010D01*
X2468880Y-3254248D01*
X2465578Y-3252063D01*
X2420670Y-3207308D01*
X2418435Y-3204006D01*
X2417673Y-3200146D01*
X2418435Y-3196234D01*
X2420620Y-3192932D01*
X3008477Y-2605074D01*
X3011779Y-2602890D01*
X3015691Y-2602128D01*
X3125622Y-2602128D01*
X3131921Y-2601366D01*
X3137408Y-2599486D01*
X3142284Y-2596388D01*
X3146399Y-2592324D01*
X3149498Y-2587396D01*
X3151378Y-2581960D01*
X3152089Y-2575610D01*
X3152089Y-2424379D01*
X3151378Y-2418029D01*
X3149498Y-2412593D01*
X3146399Y-2407666D01*
X3142284Y-2403602D01*
X3137408Y-2400503D01*
X3131921Y-2398623D01*
X3125622Y-2397912D01*
X3105099Y-2397912D01*
X3101238Y-2397099D01*
X3097936Y-2394915D01*
X3095701Y-2391613D01*
X3094939Y-2387752D01*
X3094939Y189839D01*
X3095701Y193751D01*
X3097936Y197002D01*
X3101238Y199237D01*
X3105099Y199999D01*
X4099001Y199999D01*
X4100017Y201015D01*
X4100017Y989837D01*
X4100779Y993749D01*
X4102963Y997000D01*
X4106265Y999236D01*
X4110177Y999998D01*
X4589830Y999998D01*
X4593742Y999236D01*
X4596993Y997000D01*
X4599228Y993749D01*
X4599990Y989837D01*
X4599990Y421081D01*
X4599381Y417576D01*
X4597603Y414477D01*
X4594860Y412242D01*
X4594860Y348843D01*
X4656886Y348843D01*
X4656886Y384403D01*
X4656429Y388721D01*
X4656836Y392938D01*
X4658918Y396595D01*
X4662373Y399135D01*
X4666488Y399999D01*
X4718862Y399999D01*
X4722723Y399237D01*
X4726025Y397052D01*
X4728210Y393801D01*
X4729022Y389940D01*
X4728311Y386080D01*
X4726127Y382727D01*
X4715560Y371856D01*
X4707077Y360476D01*
X4700066Y348132D01*
X4694732Y334924D01*
X4691126Y321208D01*
X4689348Y307086D01*
X4689348Y292912D01*
X4691126Y278790D01*
X4694732Y265074D01*
X4700066Y251866D01*
X4707077Y239521D01*
X4715560Y228142D01*
X4725416Y217932D01*
X4736541Y209042D01*
X4748682Y201676D01*
X4761687Y195935D01*
X4775301Y191871D01*
X4789322Y189636D01*
X4803546Y189179D01*
X4817668Y190550D01*
X4831537Y193700D01*
X4844897Y198628D01*
X4857496Y205181D01*
X4869129Y213309D01*
X4879644Y222859D01*
X4888839Y233679D01*
X4896612Y245567D01*
X4902758Y258368D01*
X4907229Y271881D01*
X4909972Y285800D01*
X4910886Y299974D01*
X4909972Y314198D01*
X4907229Y328117D01*
X4902758Y341630D01*
X4896612Y354431D01*
X4888839Y366318D01*
X4879644Y377139D01*
X4873955Y382320D01*
X4871567Y385572D01*
X4870602Y389534D01*
X4871313Y393496D01*
X4873498Y396900D01*
X4876800Y399186D01*
X4880762Y399999D01*
X4972862Y399999D01*
X4976723Y399237D01*
X4980025Y397052D01*
X4982210Y393801D01*
X4983022Y389940D01*
X4982311Y386080D01*
X4980127Y382727D01*
X4969560Y371856D01*
X4961077Y360476D01*
X4954066Y348132D01*
X4948732Y334924D01*
X4945126Y321208D01*
X4943348Y307086D01*
X4943348Y292912D01*
X4945126Y278790D01*
X4948732Y265074D01*
X4954066Y251866D01*
X4961077Y239521D01*
X4969560Y228142D01*
X4979416Y217932D01*
X4990541Y209042D01*
X5002682Y201676D01*
X5015687Y195935D01*
X5029301Y191871D01*
X5043322Y189636D01*
X5057546Y189179D01*
X5071668Y190550D01*
X5085537Y193700D01*
X5098897Y198628D01*
X5111496Y205181D01*
X5123129Y213309D01*
X5133644Y222859D01*
X5142839Y233679D01*
X5150612Y245567D01*
X5156758Y258368D01*
X5161229Y271881D01*
X5163972Y285800D01*
X5164886Y299974D01*
X5163972Y314198D01*
X5161229Y328117D01*
X5156758Y341630D01*
X5150612Y354431D01*
X5142839Y366318D01*
X5133644Y377139D01*
X5127955Y382320D01*
X5125567Y385572D01*
X5124602Y389534D01*
X5125313Y393496D01*
X5127498Y396900D01*
X5130800Y399186D01*
X5134762Y399999D01*
X5189829Y399999D01*
X5193741Y399237D01*
X5196992Y397002D01*
X5199227Y393750D01*
X5199989Y389839D01*
X5199989Y-2864561D01*
X5199278Y-2868269D01*
X5197246Y-2871520D01*
X5194147Y-2873756D01*
X5190439Y-2874670D01*
X5184800Y-2875026D01*
X5169865Y-2877769D01*
X5155336Y-2882290D01*
X5141468Y-2888538D01*
X5128463Y-2896412D01*
X5116525Y-2905760D01*
X5105755Y-2916529D01*
X5096408Y-2928467D01*
X5088534Y-2941472D01*
X5082286Y-2955340D01*
X5077764Y-2969869D01*
X5075021Y-2984804D01*
X5074107Y-2999994D01*
X5075021Y-3015183D01*
X5077764Y-3030118D01*
X5082286Y-3044647D01*
X5088534Y-3058515D01*
X5096408Y-3071520D01*
X5105755Y-3083458D01*
X5116525Y-3094228D01*
X5128463Y-3103575D01*
X5141468Y-3111449D01*
X5155336Y-3117697D01*
X5169865Y-3122218D01*
X5184800Y-3124962D01*
X5190439Y-3125317D01*
X5194147Y-3126232D01*
X5197246Y-3128467D01*
X5199278Y-3131718D01*
X5199989Y-3135426D01*
X5199989Y-3270859D01*
X5199227Y-3274771D01*
X5196992Y-3278073D01*
X5193741Y-3280257D01*
G37*

%LPC*%
G36*
X2956356Y-3212439D02*
G01*
X2958490Y-3211474D01*
X2971495Y-3203600D01*
X2983484Y-3194202D01*
X2994202Y-3183483D01*
X3003600Y-3171494D01*
X3011474Y-3158490D01*
X3012440Y-3156356D01*
X2956356Y-3156356D01*
G37*
G36*
X2843631Y-3212439D02*
G01*
X2843631Y-3156356D01*
X2787548Y-3156356D01*
X2788513Y-3158490D01*
X2796387Y-3171494D01*
X2805785Y-3183483D01*
X2816504Y-3194202D01*
X2828493Y-3203600D01*
X2841498Y-3211474D01*
G37*
G36*
X2787548Y-3043631D02*
G01*
X2843631Y-3043631D01*
X2843631Y-2987548D01*
X2841498Y-2988513D01*
X2828493Y-2996387D01*
X2816504Y-3005785D01*
X2805785Y-3016504D01*
X2796387Y-3028492D01*
X2788513Y-3041497D01*
G37*
G36*
X2956356Y-3043631D02*
G01*
X3012440Y-3043631D01*
X3011474Y-3041497D01*
X3003600Y-3028492D01*
X2994202Y-3016504D01*
X2983484Y-3005785D01*
X2971495Y-2996387D01*
X2958490Y-2988513D01*
X2956356Y-2987548D01*
G37*
G36*
X4965700Y-2815640D02*
G01*
X4980279Y-2815640D01*
X4994706Y-2813812D01*
X5008778Y-2810205D01*
X5022342Y-2804871D01*
X5035092Y-2797860D01*
X5046878Y-2789275D01*
X5057444Y-2779318D01*
X5066741Y-2768092D01*
X5074564Y-2755849D01*
X5080762Y-2742641D01*
X5085232Y-2728823D01*
X5087975Y-2714498D01*
X5088890Y-2700020D01*
X5087975Y-2685491D01*
X5085232Y-2671165D01*
X5080762Y-2657348D01*
X5074564Y-2644140D01*
X5066741Y-2631897D01*
X5057444Y-2620670D01*
X5046878Y-2610713D01*
X5035092Y-2602128D01*
X5023205Y-2595626D01*
X5020411Y-2593340D01*
X5018582Y-2590241D01*
X5017973Y-2586736D01*
X5017922Y-2144268D01*
X5016703Y-2135733D01*
X5014061Y-2127859D01*
X5010048Y-2120595D01*
X5004460Y-2113889D01*
X4638751Y-1748180D01*
X4636668Y-1745132D01*
X4635804Y-1741525D01*
X4636312Y-1737868D01*
X4639259Y-1728825D01*
X4641951Y-1714500D01*
X4642866Y-1700022D01*
X4641951Y-1685493D01*
X4639259Y-1671167D01*
X4634738Y-1657350D01*
X4628540Y-1644142D01*
X4620768Y-1631899D01*
X4611471Y-1620672D01*
X4600854Y-1610715D01*
X4589068Y-1602130D01*
X4576318Y-1595120D01*
X4562805Y-1589786D01*
X4548682Y-1586179D01*
X4534255Y-1584350D01*
X4519726Y-1584350D01*
X4505299Y-1586179D01*
X4491177Y-1589786D01*
X4477664Y-1595120D01*
X4464913Y-1602130D01*
X4453128Y-1610715D01*
X4442510Y-1620672D01*
X4433214Y-1631899D01*
X4425442Y-1644142D01*
X4419244Y-1657350D01*
X4414723Y-1671167D01*
X4412030Y-1685493D01*
X4411116Y-1700022D01*
X4412030Y-1714500D01*
X4414723Y-1728825D01*
X4419244Y-1742643D01*
X4425442Y-1755851D01*
X4433214Y-1768093D01*
X4442510Y-1779320D01*
X4453128Y-1789277D01*
X4464913Y-1797862D01*
X4477664Y-1804873D01*
X4491177Y-1810207D01*
X4505299Y-1813814D01*
X4519726Y-1815642D01*
X4534255Y-1815642D01*
X4548682Y-1813814D01*
X4568190Y-1808886D01*
X4572050Y-1809699D01*
X4575251Y-1811883D01*
X4925060Y-2161641D01*
X4927244Y-2164943D01*
X4928057Y-2168804D01*
X4928057Y-2586736D01*
X4927396Y-2590241D01*
X4925568Y-2593340D01*
X4922774Y-2595626D01*
X4910886Y-2602128D01*
X4899101Y-2610713D01*
X4888534Y-2620670D01*
X4879238Y-2631897D01*
X4871415Y-2644140D01*
X4865217Y-2657348D01*
X4860747Y-2671165D01*
X4858004Y-2685491D01*
X4857089Y-2700020D01*
X4858004Y-2714498D01*
X4860747Y-2728823D01*
X4865217Y-2742641D01*
X4871415Y-2755849D01*
X4879238Y-2768092D01*
X4888534Y-2779318D01*
X4899101Y-2789275D01*
X4910886Y-2797860D01*
X4923637Y-2804871D01*
X4937201Y-2810205D01*
X4951272Y-2813812D01*
G37*
G36*
X5175656Y-2803753D02*
G01*
X5175656Y-2751328D01*
X5123332Y-2751328D01*
X5125415Y-2755849D01*
X5133238Y-2768092D01*
X5142534Y-2779318D01*
X5153101Y-2789275D01*
X5164886Y-2797860D01*
G37*
G36*
X5123332Y-2648661D02*
G01*
X5175656Y-2648661D01*
X5175656Y-2596235D01*
X5164886Y-2602128D01*
X5153101Y-2610713D01*
X5142534Y-2620670D01*
X5133238Y-2631897D01*
X5125415Y-2644140D01*
G37*
G36*
X4519726Y-2315667D02*
G01*
X4534255Y-2315667D01*
X4548682Y-2313838D01*
X4562805Y-2310231D01*
X4576318Y-2304846D01*
X4589068Y-2297836D01*
X4600854Y-2289302D01*
X4611471Y-2279345D01*
X4620768Y-2268118D01*
X4628540Y-2255824D01*
X4634738Y-2242667D01*
X4639259Y-2228799D01*
X4641951Y-2214524D01*
X4642866Y-2199995D01*
X4641951Y-2185466D01*
X4639259Y-2171192D01*
X4634738Y-2157323D01*
X4628540Y-2144166D01*
X4620768Y-2131872D01*
X4611471Y-2120646D01*
X4600854Y-2110689D01*
X4589068Y-2102154D01*
X4576318Y-2095144D01*
X4562805Y-2089759D01*
X4548682Y-2086152D01*
X4534255Y-2084324D01*
X4519726Y-2084324D01*
X4505299Y-2086152D01*
X4491177Y-2089759D01*
X4477664Y-2095144D01*
X4464913Y-2102154D01*
X4453128Y-2110689D01*
X4442510Y-2120646D01*
X4433214Y-2131872D01*
X4425442Y-2144166D01*
X4419244Y-2157323D01*
X4414723Y-2171192D01*
X4412030Y-2185466D01*
X4411116Y-2199995D01*
X4412030Y-2214524D01*
X4414723Y-2228799D01*
X4419244Y-2242667D01*
X4425442Y-2255824D01*
X4433214Y-2268118D01*
X4442510Y-2279345D01*
X4453128Y-2289302D01*
X4464913Y-2297836D01*
X4477664Y-2304846D01*
X4491177Y-2310231D01*
X4505299Y-2313838D01*
G37*
G36*
X4324350Y-2303729D02*
G01*
X4335068Y-2297836D01*
X4346854Y-2289302D01*
X4357471Y-2279345D01*
X4366768Y-2268118D01*
X4374540Y-2255824D01*
X4376674Y-2251354D01*
X4324350Y-2251354D01*
G37*
G36*
X4324350Y-2148636D02*
G01*
X4376674Y-2148636D01*
X4374540Y-2144166D01*
X4366768Y-2131872D01*
X4357471Y-2120646D01*
X4346854Y-2110689D01*
X4335068Y-2102154D01*
X4324350Y-2096262D01*
G37*
G36*
X4169308Y-2148636D02*
G01*
X4221632Y-2148636D01*
X4221632Y-2096262D01*
X4210913Y-2102154D01*
X4199128Y-2110689D01*
X4188510Y-2120646D01*
X4179214Y-2131872D01*
X4171442Y-2144166D01*
G37*
G36*
X4324350Y-1803755D02*
G01*
X4335068Y-1797862D01*
X4346854Y-1789277D01*
X4357471Y-1779320D01*
X4366768Y-1768093D01*
X4374540Y-1755851D01*
X4376674Y-1751330D01*
X4324350Y-1751330D01*
G37*
G36*
X4221632Y-1803755D02*
G01*
X4221632Y-1751330D01*
X4169308Y-1751330D01*
X4171442Y-1755851D01*
X4179214Y-1768093D01*
X4188510Y-1779320D01*
X4199128Y-1789277D01*
X4210913Y-1797862D01*
G37*
G36*
X4324350Y-1648663D02*
G01*
X4376674Y-1648663D01*
X4374540Y-1644142D01*
X4366768Y-1631899D01*
X4357471Y-1620672D01*
X4346854Y-1610715D01*
X4335068Y-1602130D01*
X4324350Y-1596237D01*
G37*
G36*
X4169308Y-1648663D02*
G01*
X4221632Y-1648663D01*
X4221632Y-1596237D01*
X4210913Y-1602130D01*
X4199128Y-1610715D01*
X4188510Y-1620672D01*
X4179214Y-1631899D01*
X4171442Y-1644142D01*
G37*
G36*
X3843020Y-1293876D02*
G01*
X3856837Y-1292961D01*
X3870401Y-1290269D01*
X3883507Y-1285849D01*
X3895953Y-1279702D01*
X3907434Y-1271981D01*
X3917848Y-1262888D01*
X3926992Y-1252474D01*
X3934714Y-1240942D01*
X3940810Y-1228547D01*
X3945280Y-1215390D01*
X3947972Y-1201826D01*
X3948887Y-1188008D01*
X3947972Y-1174191D01*
X3945280Y-1160576D01*
X3940810Y-1147470D01*
X3934714Y-1135075D01*
X3926992Y-1123543D01*
X3917848Y-1113129D01*
X3907434Y-1103985D01*
X3895953Y-1096314D01*
X3883507Y-1090168D01*
X3870401Y-1085748D01*
X3856837Y-1083005D01*
X3843020Y-1082090D01*
X3829151Y-1083005D01*
X3815587Y-1085748D01*
X3802481Y-1090168D01*
X3790035Y-1096314D01*
X3778554Y-1103985D01*
X3768140Y-1113129D01*
X3758996Y-1123543D01*
X3751275Y-1135075D01*
X3745179Y-1147470D01*
X3740708Y-1160576D01*
X3738016Y-1174191D01*
X3737101Y-1188008D01*
X3738016Y-1201826D01*
X3740708Y-1215390D01*
X3745179Y-1228547D01*
X3751275Y-1240942D01*
X3758996Y-1252474D01*
X3768140Y-1262888D01*
X3778554Y-1271981D01*
X3790035Y-1279702D01*
X3802481Y-1285849D01*
X3815587Y-1290269D01*
X3829151Y-1292961D01*
G37*
G36*
X3796639Y-1028953D02*
G01*
X3796639Y-980338D01*
X3748024Y-980338D01*
X3751275Y-986942D01*
X3758996Y-998474D01*
X3768140Y-1008887D01*
X3778554Y-1017981D01*
X3790035Y-1025702D01*
G37*
G36*
X3889349Y-1028953D02*
G01*
X3895953Y-1025702D01*
X3907434Y-1017981D01*
X3917848Y-1008887D01*
X3926992Y-998474D01*
X3934714Y-986942D01*
X3937965Y-980338D01*
X3889349Y-980338D01*
G37*
G36*
X3748024Y-887628D02*
G01*
X3796639Y-887628D01*
X3796639Y-842365D01*
X3797401Y-838453D01*
X3799636Y-835152D01*
X3802938Y-832967D01*
X3806799Y-832205D01*
X3879189Y-832205D01*
X3883050Y-832967D01*
X3886352Y-835152D01*
X3888587Y-838453D01*
X3889349Y-842365D01*
X3889349Y-887628D01*
X3937965Y-887628D01*
X3934714Y-881075D01*
X3926992Y-869543D01*
X3917848Y-859129D01*
X3907434Y-849985D01*
X3904996Y-846734D01*
X3903979Y-842771D01*
X3904640Y-838758D01*
X3906774Y-835304D01*
X3910126Y-833018D01*
X3914140Y-832205D01*
X4361027Y-832205D01*
X4369054Y-831392D01*
X4376267Y-829208D01*
X4382922Y-825652D01*
X4389170Y-820521D01*
X4539742Y-669950D01*
X4543044Y-667766D01*
X4546904Y-666953D01*
X4550816Y-667766D01*
X4554118Y-669950D01*
X4556302Y-673252D01*
X4557064Y-677113D01*
X4557064Y-689406D01*
X4557776Y-695756D01*
X4559706Y-701192D01*
X4562805Y-706120D01*
X4566869Y-710184D01*
X4571796Y-713282D01*
X4577232Y-715213D01*
X4583582Y-715924D01*
X4762398Y-715924D01*
X4768748Y-715213D01*
X4774184Y-713282D01*
X4779111Y-710184D01*
X4783175Y-706120D01*
X4786274Y-701192D01*
X4788204Y-695756D01*
X4788916Y-689406D01*
X4788916Y-510590D01*
X4788204Y-504240D01*
X4786274Y-498805D01*
X4783175Y-493877D01*
X4779111Y-489813D01*
X4774184Y-486714D01*
X4768748Y-484784D01*
X4762398Y-484073D01*
X4583582Y-484073D01*
X4577232Y-484784D01*
X4571796Y-486714D01*
X4566869Y-489813D01*
X4562805Y-493877D01*
X4559706Y-498805D01*
X4557776Y-504240D01*
X4557064Y-510590D01*
X4557064Y-552043D01*
X4556404Y-555701D01*
X4554474Y-558850D01*
X4551476Y-561136D01*
X4540351Y-564388D01*
X4533646Y-567944D01*
X4527448Y-573074D01*
X4348480Y-751992D01*
X4345178Y-754176D01*
X4341317Y-754989D01*
X3938981Y-754989D01*
X3934714Y-754024D01*
X3931259Y-751382D01*
X3929227Y-747572D01*
X3928973Y-743204D01*
X3930548Y-739140D01*
X3934714Y-732942D01*
X3940810Y-720547D01*
X3945280Y-707390D01*
X3947972Y-693826D01*
X3948887Y-680008D01*
X3947972Y-666191D01*
X3945280Y-652576D01*
X3940810Y-639470D01*
X3934714Y-627075D01*
X3926992Y-615543D01*
X3917848Y-605129D01*
X3907434Y-595985D01*
X3895953Y-588314D01*
X3883507Y-582168D01*
X3870401Y-577748D01*
X3856837Y-575005D01*
X3843020Y-574090D01*
X3829151Y-575005D01*
X3815587Y-577748D01*
X3802481Y-582168D01*
X3790035Y-588314D01*
X3778554Y-595985D01*
X3768140Y-605129D01*
X3758996Y-615543D01*
X3751275Y-627075D01*
X3745179Y-639470D01*
X3740708Y-652576D01*
X3739642Y-658063D01*
X3738016Y-661873D01*
X3735019Y-664718D01*
X3731158Y-666140D01*
X3727043Y-665937D01*
X3719118Y-663803D01*
X3709314Y-662940D01*
X3699510Y-663803D01*
X3690010Y-666343D01*
X3681120Y-670509D01*
X3673094Y-676148D01*
X3666134Y-683056D01*
X3660495Y-691134D01*
X3656329Y-700024D01*
X3653790Y-709523D01*
X3652926Y-719328D01*
X3653790Y-729081D01*
X3656329Y-738581D01*
X3660495Y-747471D01*
X3666134Y-755548D01*
X3673094Y-762508D01*
X3681120Y-768146D01*
X3690010Y-772261D01*
X3699510Y-774801D01*
X3707587Y-775512D01*
X3710990Y-776427D01*
X3713886Y-778459D01*
X3755948Y-820521D01*
X3762146Y-825652D01*
X3768851Y-829208D01*
X3776370Y-831494D01*
X3779723Y-833221D01*
X3782212Y-836117D01*
X3783431Y-839724D01*
X3783279Y-843534D01*
X3781755Y-846988D01*
X3768140Y-859129D01*
X3758996Y-869543D01*
X3751275Y-881075D01*
G37*
G36*
X4978349Y-703732D02*
G01*
X4989068Y-697839D01*
X5000853Y-689305D01*
X5011470Y-679348D01*
X5020767Y-668121D01*
X5028539Y-655828D01*
X5030673Y-651357D01*
X4978349Y-651357D01*
G37*
G36*
X4875631Y-703732D02*
G01*
X4875631Y-651357D01*
X4823307Y-651357D01*
X4825441Y-655828D01*
X4833213Y-668121D01*
X4842510Y-679348D01*
X4853127Y-689305D01*
X4864912Y-697839D01*
G37*
G36*
X4978349Y-548640D02*
G01*
X5030673Y-548640D01*
X5028539Y-544169D01*
X5020767Y-531876D01*
X5011470Y-520649D01*
X5000853Y-510692D01*
X4989068Y-502158D01*
X4978349Y-496265D01*
G37*
G36*
X4823307Y-548640D02*
G01*
X4875631Y-548640D01*
X4875631Y-496265D01*
X4864912Y-502158D01*
X4853127Y-510692D01*
X4842510Y-520649D01*
X4833213Y-531876D01*
X4825441Y-544169D01*
G37*
G36*
X4461560Y189077D02*
G01*
X4497120Y189077D01*
X4497120Y251155D01*
X4435094Y251155D01*
X4435094Y215595D01*
X4435805Y209245D01*
X4437684Y203809D01*
X4440783Y198882D01*
X4444898Y194818D01*
X4449775Y191719D01*
X4455261Y189788D01*
G37*
G36*
X4594860Y189077D02*
G01*
X4630420Y189077D01*
X4636719Y189788D01*
X4642205Y191719D01*
X4647082Y194818D01*
X4651197Y198882D01*
X4654296Y203809D01*
X4656175Y209245D01*
X4656886Y215595D01*
X4656886Y251155D01*
X4594860Y251155D01*
G37*
G36*
X4435094Y348843D02*
G01*
X4497120Y348843D01*
X4497120Y410921D01*
X4461560Y410921D01*
X4455261Y410209D01*
X4449775Y408279D01*
X4444898Y405180D01*
X4440783Y401116D01*
X4437684Y396189D01*
X4435805Y390753D01*
X4435094Y384403D01*
G37*

%LPD*%
G36*
X1153261Y-3299764D02*
G01*
X1149248Y-3299307D01*
X1145794Y-3297326D01*
X1143304Y-3294176D01*
X1142288Y-3290315D01*
X1141984Y-3285490D01*
X1139240Y-3271164D01*
X1134770Y-3257346D01*
X1128572Y-3244138D01*
X1120749Y-3231896D01*
X1111453Y-3220669D01*
X1100886Y-3210712D01*
X1089101Y-3202127D01*
X1076350Y-3195116D01*
X1062786Y-3189782D01*
X1048715Y-3186176D01*
X1034287Y-3184347D01*
X1019708Y-3184347D01*
X1005281Y-3186176D01*
X991209Y-3189782D01*
X977646Y-3195116D01*
X964895Y-3202127D01*
X957884Y-3207258D01*
X953973Y-3208985D01*
X949655Y-3208934D01*
X945743Y-3207105D01*
X942949Y-3203854D01*
X941781Y-3199688D01*
X942390Y-3195472D01*
X944727Y-3191814D01*
X1188669Y-2947924D01*
X1191920Y-2945739D01*
X1195832Y-2944977D01*
X1645259Y-2944977D01*
X1649577Y-2945942D01*
X1653082Y-2948686D01*
X1655114Y-2952648D01*
X1655216Y-2957118D01*
X1653387Y-2961182D01*
X1650034Y-2964078D01*
X1644446Y-2967024D01*
X1638249Y-2972155D01*
X1554276Y-3056128D01*
X1550974Y-3058312D01*
X1547063Y-3059074D01*
X1500581Y-3059074D01*
X1494282Y-3059785D01*
X1488795Y-3061716D01*
X1483918Y-3064814D01*
X1479804Y-3068878D01*
X1476705Y-3073806D01*
X1474825Y-3079242D01*
X1474114Y-3085592D01*
X1474114Y-3114446D01*
X1474825Y-3120745D01*
X1475689Y-3124962D01*
X1474774Y-3129229D01*
X1474063Y-3135579D01*
X1474063Y-3164433D01*
X1474774Y-3170732D01*
X1475689Y-3174949D01*
X1474774Y-3179216D01*
X1474063Y-3186125D01*
X1482445Y-3186125D01*
X1485239Y-3186531D01*
X1488795Y-3188258D01*
X1494840Y-3190392D01*
X1498396Y-3192526D01*
X1500835Y-3195929D01*
X1501648Y-3199993D01*
X1500835Y-3204057D01*
X1498396Y-3207461D01*
X1494840Y-3209594D01*
X1491335Y-3210814D01*
X1487982Y-3211372D01*
X1250492Y-3211372D01*
X1242466Y-3212185D01*
X1235252Y-3214370D01*
X1228598Y-3217926D01*
X1222349Y-3223056D01*
X1173073Y-3272332D01*
X1167942Y-3278581D01*
X1164386Y-3285236D01*
X1162151Y-3292601D01*
X1160221Y-3296158D01*
X1157122Y-3298647D01*
G37*

%LPD*%
G36*
X2820314Y-3661410D02*
G01*
X2816402Y-3660648D01*
X2813100Y-3658412D01*
X2727655Y-3573018D01*
X2721457Y-3567887D01*
X2714752Y-3564331D01*
X2707538Y-3562146D01*
X2699512Y-3561334D01*
X2522321Y-3561334D01*
X2518054Y-3560419D01*
X2514600Y-3557778D01*
X2260904Y-3261715D01*
X2258974Y-3258413D01*
X2258466Y-3254603D01*
X2259380Y-3250895D01*
X2261616Y-3247745D01*
X2264867Y-3245713D01*
X2268626Y-3244951D01*
X2326843Y-3244951D01*
X2330704Y-3245713D01*
X2334006Y-3247948D01*
X2419451Y-3332987D01*
X2426360Y-3338169D01*
X2433777Y-3341878D01*
X2441752Y-3344164D01*
X2450439Y-3344926D01*
X3101695Y-3344926D01*
X3110280Y-3343706D01*
X3118154Y-3341065D01*
X3125368Y-3337051D01*
X3132124Y-3331464D01*
X3232962Y-3230524D01*
X3238195Y-3223615D01*
X3242106Y-3215741D01*
X3244951Y-3212287D01*
X3249015Y-3210356D01*
X3253536Y-3210407D01*
X3257550Y-3212338D01*
X3260344Y-3215894D01*
X3261360Y-3220262D01*
X3261360Y-3279749D01*
X3260598Y-3283661D01*
X3258362Y-3286963D01*
X2991967Y-3553358D01*
X2988665Y-3555593D01*
X2984804Y-3556355D01*
X2956356Y-3556355D01*
X2956356Y-3584803D01*
X2955594Y-3588664D01*
X2953359Y-3591966D01*
X2886913Y-3658412D01*
X2883611Y-3660648D01*
X2879699Y-3661410D01*
G37*

%LPC*%
G36*
X2843631Y-3612438D02*
G01*
X2843631Y-3556355D01*
X2787548Y-3556355D01*
X2788513Y-3558489D01*
X2796387Y-3571494D01*
X2805785Y-3583482D01*
X2816504Y-3594201D01*
X2828493Y-3603599D01*
X2841498Y-3611473D01*
G37*
G36*
X2956356Y-3443630D02*
G01*
X3012440Y-3443630D01*
X3011474Y-3441496D01*
X3003600Y-3428492D01*
X2994202Y-3416503D01*
X2983484Y-3405784D01*
X2971495Y-3396386D01*
X2958490Y-3388512D01*
X2956356Y-3387547D01*
G37*
G36*
X2787548Y-3443630D02*
G01*
X2843631Y-3443630D01*
X2843631Y-3387547D01*
X2841498Y-3388512D01*
X2828493Y-3396386D01*
X2816504Y-3405784D01*
X2805785Y-3416503D01*
X2796387Y-3428492D01*
X2788513Y-3441496D01*
G37*

%LPD*%
G36*
X810158Y-4731004D02*
G01*
X806246Y-4730242D01*
X802995Y-4728057D01*
X800760Y-4724755D01*
X799998Y-4720844D01*
X799998Y-4502150D01*
X800608Y-4499356D01*
X797864Y-4500016D01*
X502158Y-4500016D01*
X497738Y-4499000D01*
X494233Y-4496206D01*
X492251Y-4492142D01*
X492251Y-4487621D01*
X494131Y-4483557D01*
X503580Y-4471517D01*
X511454Y-4458512D01*
X517702Y-4444644D01*
X522224Y-4430115D01*
X524967Y-4415180D01*
X525881Y-4399991D01*
X524967Y-4384802D01*
X522224Y-4369866D01*
X517702Y-4355338D01*
X511454Y-4341469D01*
X503580Y-4328464D01*
X494233Y-4316526D01*
X483463Y-4305757D01*
X471525Y-4296410D01*
X458520Y-4288536D01*
X444652Y-4282287D01*
X430123Y-4277766D01*
X415188Y-4275023D01*
X399999Y-4274108D01*
X384810Y-4275023D01*
X369874Y-4277766D01*
X355346Y-4282287D01*
X341477Y-4288536D01*
X328472Y-4296410D01*
X316534Y-4305757D01*
X305765Y-4316526D01*
X296418Y-4328464D01*
X288544Y-4341469D01*
X282295Y-4355338D01*
X277774Y-4369866D01*
X275031Y-4384802D01*
X274116Y-4399991D01*
X275031Y-4415180D01*
X277774Y-4430115D01*
X282295Y-4444644D01*
X288544Y-4458512D01*
X296418Y-4471517D01*
X305866Y-4483557D01*
X307746Y-4487621D01*
X307746Y-4492142D01*
X305765Y-4496206D01*
X302260Y-4499000D01*
X297840Y-4500016D01*
X210159Y-4500016D01*
X206248Y-4499203D01*
X202996Y-4497019D01*
X200761Y-4493717D01*
X199999Y-4489856D01*
X199999Y389839D01*
X200761Y393750D01*
X202996Y397002D01*
X206248Y399237D01*
X210159Y399999D01*
X770382Y399999D01*
X773684Y399440D01*
X776630Y397814D01*
X778510Y396392D01*
X791514Y388518D01*
X805332Y382270D01*
X819861Y377748D01*
X834847Y375005D01*
X849985Y374091D01*
X865174Y375005D01*
X880110Y377748D01*
X894638Y382270D01*
X908507Y388518D01*
X921512Y396392D01*
X933500Y405790D01*
X944219Y416509D01*
X953617Y428498D01*
X961491Y441502D01*
X967689Y455371D01*
X972210Y469849D01*
X974953Y484835D01*
X975868Y499973D01*
X974953Y515162D01*
X972210Y530148D01*
X967689Y544626D01*
X961491Y558495D01*
X953617Y571500D01*
X944219Y583488D01*
X933500Y594207D01*
X921512Y603605D01*
X908507Y611479D01*
X894638Y617728D01*
X880110Y622249D01*
X865174Y624992D01*
X849985Y625906D01*
X834847Y624992D01*
X819861Y622249D01*
X813206Y620166D01*
X809447Y619709D01*
X805789Y620674D01*
X802741Y622909D01*
X800709Y626110D01*
X799998Y629869D01*
X799998Y770128D01*
X800709Y773887D01*
X802741Y777087D01*
X805789Y779322D01*
X809447Y780288D01*
X813206Y779830D01*
X819861Y777748D01*
X834847Y775004D01*
X849985Y774090D01*
X865174Y775004D01*
X880110Y777748D01*
X894791Y782370D01*
X898753Y783234D01*
X902766Y782523D01*
X906170Y780288D01*
X1051864Y634542D01*
X1054100Y631240D01*
X1054862Y627380D01*
X1054862Y-441401D01*
X1054100Y-445262D01*
X1051864Y-448564D01*
X1048613Y-450748D01*
X1044702Y-451561D01*
X980490Y-451561D01*
X974191Y-452272D01*
X968705Y-454151D01*
X963828Y-457250D01*
X957478Y-464007D01*
X954836Y-465632D01*
X951890Y-466394D01*
X944473Y-467156D01*
X937260Y-469341D01*
X930605Y-472897D01*
X924356Y-478028D01*
X863193Y-539191D01*
X859891Y-541375D01*
X855980Y-542188D01*
X852119Y-541375D01*
X848817Y-539191D01*
X846582Y-535889D01*
X845819Y-532028D01*
X845819Y-478028D01*
X845108Y-471678D01*
X843229Y-466242D01*
X840130Y-461314D01*
X836015Y-457250D01*
X831138Y-454151D01*
X825652Y-452272D01*
X819353Y-451561D01*
X740511Y-451561D01*
X734161Y-452272D01*
X728726Y-454151D01*
X723798Y-457250D01*
X719734Y-461314D01*
X716635Y-466242D01*
X714705Y-471678D01*
X713994Y-478028D01*
X713994Y-531876D01*
X714705Y-538175D01*
X716635Y-543661D01*
X719734Y-548538D01*
X723798Y-552653D01*
X728726Y-555752D01*
X734161Y-557631D01*
X740511Y-558342D01*
X819353Y-558342D01*
X825652Y-557631D01*
X831138Y-555752D01*
X836218Y-552551D01*
X840486Y-551027D01*
X844956Y-551535D01*
X848766Y-553872D01*
X851204Y-557682D01*
X851763Y-562152D01*
X851204Y-567639D01*
X851204Y-638403D01*
X850290Y-642569D01*
X847750Y-646023D01*
X843991Y-648106D01*
X839673Y-648462D01*
X835660Y-646988D01*
X831138Y-644144D01*
X825652Y-642264D01*
X819353Y-641553D01*
X740511Y-641553D01*
X734161Y-642264D01*
X728726Y-644144D01*
X723798Y-647242D01*
X719734Y-651357D01*
X716635Y-656234D01*
X714705Y-661720D01*
X713994Y-668020D01*
X713994Y-721868D01*
X714705Y-728218D01*
X716635Y-733653D01*
X719734Y-738581D01*
X723747Y-742594D01*
X730097Y-746455D01*
X732688Y-748741D01*
X734364Y-751738D01*
X734974Y-755142D01*
X735025Y-870508D01*
X736193Y-879043D01*
X738835Y-886917D01*
X742899Y-894181D01*
X747979Y-900277D01*
X749604Y-903020D01*
X750265Y-906119D01*
X750519Y-910082D01*
X752297Y-920851D01*
X755650Y-930910D01*
X760577Y-940308D01*
X766927Y-948791D01*
X774598Y-956157D01*
X783336Y-962152D01*
X787501Y-964133D01*
X790600Y-966419D01*
X792632Y-969721D01*
X793292Y-973531D01*
X792480Y-977290D01*
X790295Y-980490D01*
X399186Y-1371600D01*
X396189Y-1373682D01*
X392633Y-1374546D01*
X384810Y-1375003D01*
X369874Y-1377746D01*
X355346Y-1382268D01*
X341477Y-1388516D01*
X328472Y-1396390D01*
X316534Y-1405788D01*
X305765Y-1416507D01*
X296418Y-1428496D01*
X288544Y-1441500D01*
X282295Y-1455369D01*
X277774Y-1469847D01*
X275031Y-1484833D01*
X274116Y-1500022D01*
X275031Y-1515160D01*
X277774Y-1530146D01*
X282295Y-1544624D01*
X288544Y-1558493D01*
X296418Y-1571498D01*
X305765Y-1583486D01*
X316534Y-1594205D01*
X328472Y-1603603D01*
X341477Y-1611477D01*
X355346Y-1617726D01*
X369874Y-1622247D01*
X384810Y-1624990D01*
X399999Y-1625904D01*
X415188Y-1624990D01*
X430123Y-1622247D01*
X444652Y-1617726D01*
X458520Y-1611477D01*
X471525Y-1603603D01*
X483463Y-1594205D01*
X494233Y-1583486D01*
X503580Y-1571498D01*
X511454Y-1558493D01*
X517702Y-1544624D01*
X522224Y-1530146D01*
X524967Y-1515160D01*
X525881Y-1500022D01*
X524967Y-1484833D01*
X522224Y-1469847D01*
X517702Y-1455369D01*
X511454Y-1441500D01*
X503580Y-1428496D01*
X494233Y-1416507D01*
X486054Y-1408328D01*
X483819Y-1405026D01*
X483057Y-1401165D01*
X483819Y-1397254D01*
X486054Y-1393952D01*
X916736Y-963218D01*
X921867Y-957021D01*
X925423Y-950366D01*
X927608Y-943102D01*
X928420Y-935075D01*
X928420Y-587349D01*
X929182Y-583488D01*
X931418Y-580186D01*
X936650Y-574903D01*
X940308Y-572566D01*
X944524Y-571957D01*
X948690Y-573125D01*
X951941Y-575970D01*
X953769Y-579831D01*
X993597Y-579831D01*
X993597Y-568502D01*
X994359Y-564642D01*
X996543Y-561340D01*
X999845Y-559104D01*
X1003757Y-558342D01*
X1036116Y-558342D01*
X1039977Y-559104D01*
X1043279Y-561340D01*
X1045514Y-564642D01*
X1046276Y-568502D01*
X1046276Y-579983D01*
X1049629Y-581152D01*
X1052423Y-583387D01*
X1054252Y-586486D01*
X1054862Y-589991D01*
X1054862Y-609904D01*
X1054252Y-613410D01*
X1052423Y-616508D01*
X1049629Y-618744D01*
X1046276Y-619912D01*
X1046276Y-631393D01*
X1045514Y-635254D01*
X1043279Y-638556D01*
X1039977Y-640791D01*
X1036116Y-641553D01*
X1003757Y-641553D01*
X999845Y-640791D01*
X996543Y-638556D01*
X994359Y-635254D01*
X993597Y-631393D01*
X993597Y-620064D01*
X954024Y-620064D01*
X954024Y-626872D01*
X954735Y-633222D01*
X956614Y-638657D01*
X958748Y-642061D01*
X960119Y-645566D01*
X960119Y-649325D01*
X958748Y-652830D01*
X956614Y-656234D01*
X954735Y-661720D01*
X954024Y-668020D01*
X954024Y-721868D01*
X954735Y-728218D01*
X956614Y-733653D01*
X959713Y-738581D01*
X963828Y-742645D01*
X968705Y-745744D01*
X974191Y-747623D01*
X980490Y-748334D01*
X1059332Y-748334D01*
X1065682Y-747623D01*
X1071118Y-745744D01*
X1079246Y-740613D01*
X1083005Y-739902D01*
X1099566Y-739902D01*
X1103985Y-739698D01*
X1108100Y-739140D01*
X1112113Y-738174D01*
X1116076Y-736854D01*
X1119835Y-735177D01*
X1123492Y-733145D01*
X1126896Y-730808D01*
X1130096Y-728167D01*
X1133043Y-725220D01*
X1135684Y-722020D01*
X1138021Y-718616D01*
X1140053Y-714959D01*
X1141730Y-711200D01*
X1143050Y-707237D01*
X1144016Y-703224D01*
X1144574Y-699109D01*
X1144778Y-694690D01*
X1144727Y651916D01*
X1143558Y660450D01*
X1140917Y668324D01*
X1136853Y675589D01*
X1131265Y682294D01*
X969721Y843838D01*
X967486Y847242D01*
X966774Y851255D01*
X967689Y855370D01*
X972210Y869848D01*
X974953Y884834D01*
X975868Y899972D01*
X974953Y915162D01*
X972210Y930148D01*
X967689Y944626D01*
X961491Y958494D01*
X953617Y971499D01*
X944168Y983589D01*
X942238Y987653D01*
X942238Y992174D01*
X944219Y996187D01*
X947775Y998982D01*
X952144Y999998D01*
X1289862Y999998D01*
X1293723Y999236D01*
X1297025Y997000D01*
X1299210Y993749D01*
X1300022Y989837D01*
X1300022Y201015D01*
X1300988Y199999D01*
X1893163Y199999D01*
X1897024Y199237D01*
X1900326Y197002D01*
X1902510Y193751D01*
X1903323Y189839D01*
X1903323Y-2286457D01*
X1902612Y-2290114D01*
X1900682Y-2293264D01*
X1897735Y-2295499D01*
X1894179Y-2296566D01*
X1890522Y-2296261D01*
X1886813Y-2295296D01*
X1877060Y-2294432D01*
X1867255Y-2295296D01*
X1857756Y-2297836D01*
X1848866Y-2302002D01*
X1840788Y-2307640D01*
X1833829Y-2314549D01*
X1828241Y-2322626D01*
X1824075Y-2331516D01*
X1821535Y-2341016D01*
X1820672Y-2350820D01*
X1821535Y-2360574D01*
X1824075Y-2370074D01*
X1828241Y-2378964D01*
X1833829Y-2387041D01*
X1835454Y-2388616D01*
X1837639Y-2391918D01*
X1838452Y-2395829D01*
X1838452Y-3150616D01*
X1837639Y-3154527D01*
X1835454Y-3157829D01*
X1784857Y-3208375D01*
X1781556Y-3210610D01*
X1777695Y-3211372D01*
X1641957Y-3211372D01*
X1638604Y-3210814D01*
X1635150Y-3209594D01*
X1631594Y-3207461D01*
X1629156Y-3204057D01*
X1628343Y-3199993D01*
X1629156Y-3195929D01*
X1631594Y-3192526D01*
X1635150Y-3190392D01*
X1638706Y-3189173D01*
X1642059Y-3188614D01*
X1657400Y-3188614D01*
X1665427Y-3187801D01*
X1672640Y-3185617D01*
X1679346Y-3182061D01*
X1685543Y-3176930D01*
X1733905Y-3128568D01*
X1739036Y-3122371D01*
X1742592Y-3115716D01*
X1744776Y-3108452D01*
X1745437Y-3101898D01*
X1746351Y-3098596D01*
X1748332Y-3095752D01*
X1750161Y-3093923D01*
X1755749Y-3085896D01*
X1759915Y-3077006D01*
X1762455Y-3067507D01*
X1762810Y-3063290D01*
X1764030Y-3059379D01*
X1766671Y-3056229D01*
X1770329Y-3054400D01*
X1778914Y-3052064D01*
X1787804Y-3047949D01*
X1795881Y-3042310D01*
X1802841Y-3035350D01*
X1808429Y-3027273D01*
X1812594Y-3018383D01*
X1815134Y-3008884D01*
X1815998Y-2999130D01*
X1815134Y-2989326D01*
X1812594Y-2979826D01*
X1808429Y-2970936D01*
X1802841Y-2962859D01*
X1795881Y-2955950D01*
X1787804Y-2950311D01*
X1778914Y-2946146D01*
X1769414Y-2943606D01*
X1767332Y-2943402D01*
X1763674Y-2942386D01*
X1760626Y-2940050D01*
X1758696Y-2936798D01*
X1758086Y-2933039D01*
X1758899Y-2929331D01*
X1762506Y-2920847D01*
X1764995Y-2910586D01*
X1765858Y-2900019D01*
X1764995Y-2889402D01*
X1762506Y-2879140D01*
X1758340Y-2869387D01*
X1752650Y-2860395D01*
X1745640Y-2852470D01*
X1737410Y-2845765D01*
X1728216Y-2840482D01*
X1718310Y-2836722D01*
X1707946Y-2834589D01*
X1697329Y-2834182D01*
X1686814Y-2835452D01*
X1676654Y-2838399D01*
X1667052Y-2842920D01*
X1658315Y-2848965D01*
X1654962Y-2852216D01*
X1651711Y-2854299D01*
X1647952Y-2855061D01*
X1171295Y-2855061D01*
X1162710Y-2856280D01*
X1154836Y-2858922D01*
X1147622Y-2862935D01*
X1145946Y-2864307D01*
X1142542Y-2866186D01*
X1138631Y-2866644D01*
X1134872Y-2865577D01*
X1131824Y-2863189D01*
X1129842Y-2859836D01*
X1129334Y-2855976D01*
X1130655Y-2851353D01*
X1078331Y-2851353D01*
X1078331Y-2904185D01*
X1080414Y-2903575D01*
X1084478Y-2904032D01*
X1088085Y-2906064D01*
X1090523Y-2909366D01*
X1091488Y-2913380D01*
X1090777Y-2917444D01*
X1088542Y-2920898D01*
X835304Y-3174136D01*
X832002Y-3176320D01*
X828141Y-3177082D01*
X824230Y-3176320D01*
X820928Y-3174136D01*
X818743Y-3170834D01*
X817981Y-3166922D01*
X817981Y-2913278D01*
X818591Y-2909722D01*
X820419Y-2906623D01*
X823214Y-2904388D01*
X835101Y-2897835D01*
X846886Y-2889300D01*
X857453Y-2879344D01*
X866749Y-2868117D01*
X874572Y-2855823D01*
X880770Y-2842666D01*
X885240Y-2828798D01*
X887984Y-2814523D01*
X888898Y-2799994D01*
X887984Y-2785465D01*
X885240Y-2771190D01*
X880770Y-2757322D01*
X874572Y-2744165D01*
X866749Y-2731871D01*
X857453Y-2720644D01*
X846886Y-2710688D01*
X835101Y-2702153D01*
X823214Y-2695600D01*
X820419Y-2693365D01*
X818591Y-2690266D01*
X817981Y-2686710D01*
X817981Y-2413254D01*
X818591Y-2409748D01*
X820419Y-2406650D01*
X823214Y-2404364D01*
X835101Y-2397861D01*
X846886Y-2389276D01*
X857453Y-2379319D01*
X866749Y-2368092D01*
X874572Y-2355850D01*
X880770Y-2342642D01*
X885240Y-2328824D01*
X887984Y-2314498D01*
X888898Y-2300020D01*
X887984Y-2285492D01*
X885240Y-2271166D01*
X880770Y-2257348D01*
X874572Y-2244140D01*
X866749Y-2231898D01*
X857453Y-2220671D01*
X846886Y-2210714D01*
X835101Y-2202129D01*
X822350Y-2195118D01*
X808786Y-2189784D01*
X794715Y-2186178D01*
X780288Y-2184349D01*
X765708Y-2184349D01*
X751281Y-2186178D01*
X737209Y-2189784D01*
X723646Y-2195118D01*
X710895Y-2202129D01*
X699109Y-2210714D01*
X688543Y-2220671D01*
X679246Y-2231898D01*
X671423Y-2244140D01*
X665226Y-2257348D01*
X660755Y-2271166D01*
X658012Y-2285492D01*
X657098Y-2300020D01*
X658012Y-2314498D01*
X660755Y-2328824D01*
X665226Y-2342642D01*
X671423Y-2355850D01*
X679246Y-2368092D01*
X688543Y-2379319D01*
X699109Y-2389276D01*
X710895Y-2397861D01*
X722782Y-2404364D01*
X725576Y-2406650D01*
X727405Y-2409748D01*
X728065Y-2413254D01*
X728065Y-2686710D01*
X727405Y-2690266D01*
X725576Y-2693365D01*
X722782Y-2695600D01*
X710895Y-2702153D01*
X699109Y-2710688D01*
X688543Y-2720644D01*
X679246Y-2731871D01*
X671423Y-2744165D01*
X665226Y-2757322D01*
X660755Y-2771190D01*
X658012Y-2785465D01*
X657098Y-2799994D01*
X658012Y-2814523D01*
X660755Y-2828798D01*
X665226Y-2842666D01*
X671423Y-2855823D01*
X679246Y-2868117D01*
X688543Y-2879344D01*
X699109Y-2889300D01*
X710895Y-2897835D01*
X722782Y-2904388D01*
X725576Y-2906623D01*
X727405Y-2909722D01*
X728065Y-2913278D01*
X728065Y-3186734D01*
X727405Y-3190240D01*
X725576Y-3193338D01*
X722782Y-3195624D01*
X710895Y-3202127D01*
X699109Y-3210712D01*
X688543Y-3220669D01*
X679246Y-3231896D01*
X671423Y-3244138D01*
X665226Y-3257346D01*
X660755Y-3271164D01*
X658012Y-3285490D01*
X657098Y-3300018D01*
X658012Y-3314496D01*
X660755Y-3328822D01*
X665226Y-3342640D01*
X671423Y-3355848D01*
X679246Y-3368090D01*
X688543Y-3379317D01*
X699109Y-3389274D01*
X710895Y-3397859D01*
X716889Y-3401161D01*
X719785Y-3403498D01*
X721614Y-3406800D01*
X722172Y-3410508D01*
X721309Y-3414115D01*
X719175Y-3417214D01*
X456133Y-3680256D01*
X452729Y-3682492D01*
X448767Y-3683254D01*
X444652Y-3682288D01*
X430123Y-3677767D01*
X415188Y-3675024D01*
X399999Y-3674110D01*
X384810Y-3675024D01*
X369874Y-3677767D01*
X355346Y-3682288D01*
X341477Y-3688537D01*
X328472Y-3696411D01*
X316534Y-3705758D01*
X305765Y-3716528D01*
X296418Y-3728465D01*
X288544Y-3741470D01*
X282295Y-3755339D01*
X277774Y-3769868D01*
X275031Y-3784803D01*
X274116Y-3799992D01*
X275031Y-3815181D01*
X277774Y-3830116D01*
X282295Y-3844645D01*
X288544Y-3858514D01*
X296418Y-3871518D01*
X305765Y-3883456D01*
X316534Y-3894226D01*
X328472Y-3903573D01*
X341477Y-3911447D01*
X355346Y-3917696D01*
X369874Y-3922217D01*
X384810Y-3924960D01*
X399999Y-3925874D01*
X415188Y-3924960D01*
X430123Y-3922217D01*
X444652Y-3917696D01*
X458520Y-3911447D01*
X471525Y-3903573D01*
X483463Y-3894226D01*
X494233Y-3883456D01*
X503580Y-3871518D01*
X511454Y-3858514D01*
X517702Y-3844645D01*
X522224Y-3830116D01*
X524967Y-3815181D01*
X525881Y-3799992D01*
X524967Y-3784803D01*
X522224Y-3769868D01*
X517651Y-3755186D01*
X516737Y-3751224D01*
X517499Y-3747262D01*
X519734Y-3743858D01*
X805992Y-3457549D01*
X811174Y-3450640D01*
X814882Y-3443224D01*
X817168Y-3435248D01*
X817981Y-3426510D01*
X817981Y-3413251D01*
X818591Y-3409746D01*
X820419Y-3406648D01*
X823214Y-3404362D01*
X835101Y-3397859D01*
X846886Y-3389274D01*
X857453Y-3379317D01*
X866749Y-3368090D01*
X874572Y-3355848D01*
X880770Y-3342640D01*
X885240Y-3328822D01*
X887984Y-3314496D01*
X888898Y-3300018D01*
X887984Y-3285490D01*
X885240Y-3271164D01*
X882294Y-3262122D01*
X881837Y-3258464D01*
X882700Y-3254857D01*
X884783Y-3251809D01*
X917752Y-3218840D01*
X921258Y-3216503D01*
X925423Y-3215843D01*
X929487Y-3216910D01*
X932789Y-3219551D01*
X934719Y-3223310D01*
X934974Y-3227527D01*
X933500Y-3231438D01*
X925423Y-3244138D01*
X919226Y-3257346D01*
X914755Y-3271164D01*
X912012Y-3285490D01*
X911098Y-3300018D01*
X912012Y-3314496D01*
X914755Y-3328822D01*
X919226Y-3342640D01*
X925423Y-3355848D01*
X933246Y-3368090D01*
X942543Y-3379317D01*
X953109Y-3389274D01*
X964895Y-3397859D01*
X977646Y-3404870D01*
X981964Y-3406546D01*
X985316Y-3408730D01*
X987602Y-3412083D01*
X988415Y-3415995D01*
X988415Y-3652774D01*
X987602Y-3656685D01*
X985418Y-3659987D01*
X962355Y-3683050D01*
X958951Y-3685286D01*
X954938Y-3686048D01*
X950976Y-3685133D01*
X944626Y-3682288D01*
X930148Y-3677767D01*
X915162Y-3675024D01*
X900023Y-3674110D01*
X884834Y-3675024D01*
X869848Y-3677767D01*
X855370Y-3682288D01*
X841502Y-3688537D01*
X828497Y-3696411D01*
X816508Y-3705758D01*
X805789Y-3716528D01*
X796391Y-3728465D01*
X788517Y-3741470D01*
X782269Y-3755339D01*
X777748Y-3769868D01*
X775004Y-3784803D01*
X774090Y-3799992D01*
X775004Y-3815181D01*
X777748Y-3830116D01*
X782269Y-3844645D01*
X788517Y-3858514D01*
X796391Y-3871518D01*
X805789Y-3883456D01*
X816508Y-3894226D01*
X828497Y-3903573D01*
X841502Y-3911447D01*
X855370Y-3917696D01*
X869848Y-3922217D01*
X884834Y-3924960D01*
X900023Y-3925874D01*
X915162Y-3924960D01*
X930148Y-3922217D01*
X944626Y-3917696D01*
X958494Y-3911447D01*
X971499Y-3903573D01*
X983487Y-3894226D01*
X994206Y-3883456D01*
X1003604Y-3871518D01*
X1011478Y-3858514D01*
X1017727Y-3844645D01*
X1022248Y-3830116D01*
X1024991Y-3815181D01*
X1025906Y-3799992D01*
X1024991Y-3784803D01*
X1022248Y-3769868D01*
X1017727Y-3755339D01*
X1014831Y-3748989D01*
X1013968Y-3745026D01*
X1014679Y-3741064D01*
X1016914Y-3737660D01*
X1053947Y-3700627D01*
X1059078Y-3694429D01*
X1062634Y-3687775D01*
X1064818Y-3680510D01*
X1065631Y-3672484D01*
X1065631Y-3415995D01*
X1066393Y-3412083D01*
X1068679Y-3408730D01*
X1072032Y-3406546D01*
X1076350Y-3404870D01*
X1089101Y-3397859D01*
X1100886Y-3389274D01*
X1111453Y-3379317D01*
X1120749Y-3368090D01*
X1128572Y-3355848D01*
X1134770Y-3342640D01*
X1139240Y-3328822D01*
X1141272Y-3318306D01*
X1142898Y-3314395D01*
X1145997Y-3311499D01*
X1150061Y-3310128D01*
X1154277Y-3310534D01*
X1157986Y-3312617D01*
X1160475Y-3316071D01*
X1161389Y-3320186D01*
X1161389Y-3354019D01*
X1160830Y-3357422D01*
X1159154Y-3360420D01*
X1152855Y-3368141D01*
X1148181Y-3376574D01*
X1144981Y-3385667D01*
X1143355Y-3395167D01*
X1143355Y-3404819D01*
X1144981Y-3414318D01*
X1148181Y-3423412D01*
X1152855Y-3431844D01*
X1158951Y-3439363D01*
X1166164Y-3445713D01*
X1174394Y-3450793D01*
X1183335Y-3454349D01*
X1192784Y-3456381D01*
X1202436Y-3456838D01*
X1211986Y-3455568D01*
X1221181Y-3452774D01*
X1229817Y-3448405D01*
X1237589Y-3442665D01*
X1244244Y-3435705D01*
X1249629Y-3427729D01*
X1253642Y-3418941D01*
X1256030Y-3409594D01*
X1256893Y-3399993D01*
X1256030Y-3390392D01*
X1253642Y-3381044D01*
X1249629Y-3372256D01*
X1244244Y-3364280D01*
X1241450Y-3361334D01*
X1239316Y-3358083D01*
X1238605Y-3354273D01*
X1238605Y-3320186D01*
X1239367Y-3316325D01*
X1241602Y-3313023D01*
X1262989Y-3291586D01*
X1266291Y-3289350D01*
X1270203Y-3288588D01*
X1432255Y-3288588D01*
X1436166Y-3289350D01*
X1439468Y-3291586D01*
X1441653Y-3294887D01*
X1442415Y-3298748D01*
X1441653Y-3302660D01*
X1439468Y-3305962D01*
X1373073Y-3372358D01*
X1367942Y-3378555D01*
X1364386Y-3385261D01*
X1362202Y-3392474D01*
X1361389Y-3400501D01*
X1361389Y-3499510D01*
X1362202Y-3507536D01*
X1364386Y-3514750D01*
X1367942Y-3521405D01*
X1373073Y-3527653D01*
X1558391Y-3713022D01*
X1560626Y-3716324D01*
X1561388Y-3720185D01*
X1561388Y-4656886D01*
X1560626Y-4660798D01*
X1558340Y-4664100D01*
X1555038Y-4666284D01*
X1551076Y-4667046D01*
X1547164Y-4666183D01*
X1543913Y-4663897D01*
X1537563Y-4657293D01*
X1529791Y-4651552D01*
X1521206Y-4647234D01*
X1511960Y-4644390D01*
X1502410Y-4643170D01*
X1492758Y-4643577D01*
X1483360Y-4645609D01*
X1474368Y-4649216D01*
X1466189Y-4654245D01*
X1460957Y-4658868D01*
X1457858Y-4660747D01*
X1454251Y-4661408D01*
X900480Y-4661408D01*
X892454Y-4662170D01*
X885240Y-4664354D01*
X878586Y-4667910D01*
X872337Y-4673041D01*
X817321Y-4728057D01*
X814069Y-4730242D01*
G37*

%LPC*%
G36*
X1300022Y-4525873D02*
G01*
X1315161Y-4524959D01*
X1330147Y-4522216D01*
X1344625Y-4517694D01*
X1358493Y-4511446D01*
X1371498Y-4503572D01*
X1383487Y-4494225D01*
X1394206Y-4483455D01*
X1403604Y-4471517D01*
X1411478Y-4458512D01*
X1417726Y-4444644D01*
X1422247Y-4430115D01*
X1424990Y-4415180D01*
X1425905Y-4399991D01*
X1424990Y-4384802D01*
X1422247Y-4369866D01*
X1417726Y-4355338D01*
X1411478Y-4341469D01*
X1403604Y-4328464D01*
X1394206Y-4316526D01*
X1383487Y-4305757D01*
X1371498Y-4296410D01*
X1358493Y-4288536D01*
X1344625Y-4282287D01*
X1330147Y-4277766D01*
X1315161Y-4275023D01*
X1300022Y-4274108D01*
X1284833Y-4275023D01*
X1269847Y-4277766D01*
X1255369Y-4282287D01*
X1241501Y-4288536D01*
X1228496Y-4296410D01*
X1216507Y-4305757D01*
X1205788Y-4316526D01*
X1196390Y-4328464D01*
X1188516Y-4341469D01*
X1182268Y-4355338D01*
X1177747Y-4369866D01*
X1175004Y-4384802D01*
X1174089Y-4399991D01*
X1175004Y-4415180D01*
X1177747Y-4430115D01*
X1182268Y-4444644D01*
X1188516Y-4458512D01*
X1196390Y-4471517D01*
X1205788Y-4483455D01*
X1216507Y-4494225D01*
X1228496Y-4503572D01*
X1241501Y-4511446D01*
X1255369Y-4517694D01*
X1269847Y-4522216D01*
X1284833Y-4524959D01*
G37*
G36*
X900023Y-4525873D02*
G01*
X915162Y-4524959D01*
X930148Y-4522216D01*
X944626Y-4517694D01*
X958494Y-4511446D01*
X971499Y-4503572D01*
X983487Y-4494225D01*
X994206Y-4483455D01*
X1003604Y-4471517D01*
X1011478Y-4458512D01*
X1017727Y-4444644D01*
X1022248Y-4430115D01*
X1024991Y-4415180D01*
X1025906Y-4399991D01*
X1024991Y-4384802D01*
X1022248Y-4369866D01*
X1017727Y-4355338D01*
X1011478Y-4341469D01*
X1003604Y-4328464D01*
X994206Y-4316526D01*
X983487Y-4305757D01*
X971499Y-4296410D01*
X958494Y-4288536D01*
X944626Y-4282287D01*
X930148Y-4277766D01*
X915162Y-4275023D01*
X900023Y-4274108D01*
X884834Y-4275023D01*
X869848Y-4277766D01*
X855370Y-4282287D01*
X841502Y-4288536D01*
X828497Y-4296410D01*
X816508Y-4305757D01*
X805789Y-4316526D01*
X796391Y-4328464D01*
X788517Y-4341469D01*
X782269Y-4355338D01*
X777748Y-4369866D01*
X775004Y-4384802D01*
X774090Y-4399991D01*
X775004Y-4415180D01*
X777748Y-4430115D01*
X782269Y-4444644D01*
X788517Y-4458512D01*
X796391Y-4471517D01*
X805840Y-4483557D01*
X807770Y-4487621D01*
X807821Y-4492244D01*
X812342Y-4492244D01*
X816406Y-4494123D01*
X828497Y-4503572D01*
X841502Y-4511446D01*
X855370Y-4517694D01*
X869848Y-4522216D01*
X884834Y-4524959D01*
G37*
G36*
X1300022Y-3925874D02*
G01*
X1315161Y-3924960D01*
X1330147Y-3922217D01*
X1344625Y-3917696D01*
X1358493Y-3911447D01*
X1371498Y-3903573D01*
X1383487Y-3894226D01*
X1394206Y-3883456D01*
X1403604Y-3871518D01*
X1411478Y-3858514D01*
X1417726Y-3844645D01*
X1422247Y-3830116D01*
X1424990Y-3815181D01*
X1425905Y-3799992D01*
X1424990Y-3784803D01*
X1422247Y-3769868D01*
X1417726Y-3755339D01*
X1411478Y-3741470D01*
X1403604Y-3728465D01*
X1394206Y-3716528D01*
X1383487Y-3705758D01*
X1371498Y-3696411D01*
X1358493Y-3688537D01*
X1344625Y-3682288D01*
X1330147Y-3677767D01*
X1315161Y-3675024D01*
X1300022Y-3674110D01*
X1284833Y-3675024D01*
X1269847Y-3677767D01*
X1255369Y-3682288D01*
X1241501Y-3688537D01*
X1228496Y-3696411D01*
X1216507Y-3705758D01*
X1205788Y-3716528D01*
X1196390Y-3728465D01*
X1188516Y-3741470D01*
X1182268Y-3755339D01*
X1177747Y-3769868D01*
X1175004Y-3784803D01*
X1174089Y-3799992D01*
X1175004Y-3815181D01*
X1177747Y-3830116D01*
X1182268Y-3844645D01*
X1188516Y-3858514D01*
X1196390Y-3871518D01*
X1205788Y-3883456D01*
X1216507Y-3894226D01*
X1228496Y-3903573D01*
X1241501Y-3911447D01*
X1255369Y-3917696D01*
X1269847Y-3922217D01*
X1284833Y-3924960D01*
G37*
G36*
X399999Y-3425901D02*
G01*
X415188Y-3424986D01*
X430123Y-3422243D01*
X444652Y-3417722D01*
X458520Y-3411474D01*
X471525Y-3403600D01*
X483463Y-3394201D01*
X494233Y-3383483D01*
X503580Y-3371494D01*
X511454Y-3358489D01*
X517702Y-3344621D01*
X522224Y-3330143D01*
X524967Y-3315157D01*
X525881Y-3300018D01*
X524967Y-3284829D01*
X522224Y-3269843D01*
X517702Y-3255365D01*
X511454Y-3241497D01*
X503580Y-3228492D01*
X494233Y-3216503D01*
X483463Y-3205784D01*
X471525Y-3196386D01*
X458520Y-3188512D01*
X444652Y-3182264D01*
X430123Y-3177743D01*
X415188Y-3175000D01*
X399999Y-3174085D01*
X384810Y-3175000D01*
X369874Y-3177743D01*
X355346Y-3182264D01*
X341477Y-3188512D01*
X328472Y-3196386D01*
X316534Y-3205784D01*
X305765Y-3216503D01*
X296418Y-3228492D01*
X288544Y-3241497D01*
X282295Y-3255365D01*
X277774Y-3269843D01*
X275031Y-3284829D01*
X274116Y-3300018D01*
X275031Y-3315157D01*
X277774Y-3330143D01*
X282295Y-3344621D01*
X288544Y-3358489D01*
X296418Y-3371494D01*
X305765Y-3383483D01*
X316534Y-3394201D01*
X328472Y-3403600D01*
X341477Y-3411474D01*
X355346Y-3417722D01*
X369874Y-3422243D01*
X384810Y-3424986D01*
G37*
G36*
X975664Y-2903728D02*
G01*
X975664Y-2851353D01*
X923340Y-2851353D01*
X925423Y-2855823D01*
X933246Y-2868117D01*
X942543Y-2879344D01*
X953109Y-2889300D01*
X964895Y-2897835D01*
G37*
G36*
X456336Y-2812440D02*
G01*
X458520Y-2811475D01*
X471525Y-2803601D01*
X483463Y-2794203D01*
X494233Y-2783484D01*
X503580Y-2771495D01*
X511454Y-2758490D01*
X512419Y-2756357D01*
X456336Y-2756357D01*
G37*
G36*
X343662Y-2812440D02*
G01*
X343662Y-2756357D01*
X287578Y-2756357D01*
X288544Y-2758490D01*
X296418Y-2771495D01*
X305765Y-2783484D01*
X316534Y-2794203D01*
X328472Y-2803601D01*
X341477Y-2811475D01*
G37*
G36*
X1078331Y-2748635D02*
G01*
X1130655Y-2748635D01*
X1128572Y-2744165D01*
X1120749Y-2731871D01*
X1111453Y-2720644D01*
X1100886Y-2710688D01*
X1089101Y-2702153D01*
X1078331Y-2696260D01*
G37*
G36*
X923340Y-2748635D02*
G01*
X975664Y-2748635D01*
X975664Y-2696260D01*
X964895Y-2702153D01*
X953109Y-2710688D01*
X942543Y-2720644D01*
X933246Y-2731871D01*
X925423Y-2744165D01*
G37*
G36*
X287578Y-2643632D02*
G01*
X343662Y-2643632D01*
X343662Y-2587548D01*
X341477Y-2588514D01*
X328472Y-2596388D01*
X316534Y-2605786D01*
X305765Y-2616504D01*
X296418Y-2628493D01*
X288544Y-2641498D01*
G37*
G36*
X456336Y-2643632D02*
G01*
X512419Y-2643632D01*
X511454Y-2641498D01*
X503580Y-2628493D01*
X494233Y-2616504D01*
X483463Y-2605786D01*
X471525Y-2596388D01*
X458520Y-2588514D01*
X456336Y-2587548D01*
G37*
G36*
X1510639Y-2552954D02*
G01*
X1510639Y-2504338D01*
X1462024Y-2504338D01*
X1465275Y-2510942D01*
X1472996Y-2522474D01*
X1482140Y-2532888D01*
X1492554Y-2541981D01*
X1504035Y-2549702D01*
G37*
G36*
X1603349Y-2552954D02*
G01*
X1609953Y-2549702D01*
X1621434Y-2541981D01*
X1631848Y-2532888D01*
X1640992Y-2522474D01*
X1648714Y-2510942D01*
X1651965Y-2504338D01*
X1603349Y-2504338D01*
G37*
G36*
X399897Y-2525979D02*
G01*
X415086Y-2525064D01*
X430022Y-2522321D01*
X444550Y-2517800D01*
X458419Y-2511552D01*
X471424Y-2503728D01*
X483362Y-2494330D01*
X494131Y-2483612D01*
X503478Y-2471623D01*
X511352Y-2458618D01*
X517601Y-2444750D01*
X522122Y-2430221D01*
X524865Y-2415286D01*
X525780Y-2400096D01*
X524865Y-2384907D01*
X522122Y-2369972D01*
X517601Y-2355443D01*
X511352Y-2341626D01*
X503478Y-2328570D01*
X494131Y-2316632D01*
X483362Y-2305862D01*
X471424Y-2296515D01*
X458419Y-2288641D01*
X444550Y-2282393D01*
X430022Y-2277872D01*
X415086Y-2275128D01*
X399897Y-2274214D01*
X384708Y-2275128D01*
X369773Y-2277872D01*
X355244Y-2282393D01*
X341376Y-2288641D01*
X328371Y-2296515D01*
X316433Y-2305862D01*
X305663Y-2316632D01*
X296316Y-2328570D01*
X288442Y-2341626D01*
X282194Y-2355443D01*
X277672Y-2369972D01*
X274929Y-2384907D01*
X274015Y-2400096D01*
X274929Y-2415286D01*
X277672Y-2430221D01*
X282194Y-2444750D01*
X288442Y-2458618D01*
X296316Y-2471623D01*
X305663Y-2483612D01*
X316433Y-2494330D01*
X328371Y-2503728D01*
X341376Y-2511552D01*
X355244Y-2517800D01*
X369773Y-2522321D01*
X384708Y-2525064D01*
G37*
G36*
X1603349Y-2411628D02*
G01*
X1651965Y-2411628D01*
X1648714Y-2405075D01*
X1640992Y-2393543D01*
X1631848Y-2383129D01*
X1621434Y-2373985D01*
X1609953Y-2366314D01*
X1603349Y-2363063D01*
G37*
G36*
X1462024Y-2411628D02*
G01*
X1510639Y-2411628D01*
X1510639Y-2363063D01*
X1504035Y-2366314D01*
X1492554Y-2373985D01*
X1482140Y-2383129D01*
X1472996Y-2393543D01*
X1465275Y-2405075D01*
G37*
G36*
X1078331Y-2403754D02*
G01*
X1089101Y-2397861D01*
X1100886Y-2389276D01*
X1111453Y-2379319D01*
X1120749Y-2368092D01*
X1128572Y-2355850D01*
X1130655Y-2351328D01*
X1078331Y-2351328D01*
G37*
G36*
X975664Y-2403754D02*
G01*
X975664Y-2351328D01*
X923340Y-2351328D01*
X925423Y-2355850D01*
X933246Y-2368092D01*
X942543Y-2379319D01*
X953109Y-2389276D01*
X964895Y-2397861D01*
G37*
G36*
X1557020Y-2309876D02*
G01*
X1570837Y-2308961D01*
X1584401Y-2306269D01*
X1597507Y-2301849D01*
X1609953Y-2295702D01*
X1621434Y-2287981D01*
X1631848Y-2278888D01*
X1640992Y-2268474D01*
X1648714Y-2256942D01*
X1654810Y-2244547D01*
X1659280Y-2231390D01*
X1661972Y-2217826D01*
X1662887Y-2204008D01*
X1661972Y-2190191D01*
X1659280Y-2176576D01*
X1654810Y-2163470D01*
X1648714Y-2151075D01*
X1640992Y-2139543D01*
X1631848Y-2129129D01*
X1621434Y-2119985D01*
X1609953Y-2112314D01*
X1597507Y-2106168D01*
X1584401Y-2101748D01*
X1570837Y-2099005D01*
X1557020Y-2098090D01*
X1543151Y-2099005D01*
X1529588Y-2101748D01*
X1516481Y-2106168D01*
X1504035Y-2112314D01*
X1492554Y-2119985D01*
X1482140Y-2129129D01*
X1472996Y-2139543D01*
X1465275Y-2151075D01*
X1459179Y-2163470D01*
X1454708Y-2176576D01*
X1452016Y-2190191D01*
X1451102Y-2204008D01*
X1452016Y-2217826D01*
X1454708Y-2231390D01*
X1459179Y-2244547D01*
X1465275Y-2256942D01*
X1472996Y-2268474D01*
X1482140Y-2278888D01*
X1492554Y-2287981D01*
X1504035Y-2295702D01*
X1516481Y-2301849D01*
X1529588Y-2306269D01*
X1543151Y-2308961D01*
G37*
G36*
X923340Y-2248662D02*
G01*
X975664Y-2248662D01*
X975664Y-2196236D01*
X964895Y-2202129D01*
X953109Y-2210714D01*
X942543Y-2220671D01*
X933246Y-2231898D01*
X925423Y-2244140D01*
G37*
G36*
X1078331Y-2248662D02*
G01*
X1130655Y-2248662D01*
X1128572Y-2244140D01*
X1120749Y-2231898D01*
X1111453Y-2220671D01*
X1100886Y-2210714D01*
X1089101Y-2202129D01*
X1078331Y-2196236D01*
G37*
G36*
X1557020Y-2055875D02*
G01*
X1570837Y-2054961D01*
X1584401Y-2052269D01*
X1597507Y-2047849D01*
X1609953Y-2041702D01*
X1621434Y-2033981D01*
X1631848Y-2024888D01*
X1640992Y-2014474D01*
X1648714Y-2002942D01*
X1654810Y-1990547D01*
X1659280Y-1977389D01*
X1661972Y-1963826D01*
X1662887Y-1950008D01*
X1661972Y-1936191D01*
X1659280Y-1922576D01*
X1654810Y-1909470D01*
X1648714Y-1897075D01*
X1640992Y-1885543D01*
X1631848Y-1875129D01*
X1621434Y-1865985D01*
X1609953Y-1858314D01*
X1597507Y-1852168D01*
X1584401Y-1847748D01*
X1570837Y-1845005D01*
X1557020Y-1844090D01*
X1543151Y-1845005D01*
X1529588Y-1847748D01*
X1516481Y-1852168D01*
X1504035Y-1858314D01*
X1492554Y-1865985D01*
X1482140Y-1875129D01*
X1472996Y-1885543D01*
X1465275Y-1897075D01*
X1459179Y-1909470D01*
X1454708Y-1922576D01*
X1452016Y-1936191D01*
X1451102Y-1950008D01*
X1452016Y-1963826D01*
X1454708Y-1977389D01*
X1459179Y-1990547D01*
X1465275Y-2002942D01*
X1472996Y-2014474D01*
X1482140Y-2024888D01*
X1492554Y-2033981D01*
X1504035Y-2041702D01*
X1516481Y-2047849D01*
X1529588Y-2052269D01*
X1543151Y-2054961D01*
G37*
G36*
X399897Y-1925980D02*
G01*
X415086Y-1925066D01*
X430022Y-1922322D01*
X444550Y-1917801D01*
X458419Y-1911553D01*
X471424Y-1903730D01*
X483362Y-1894332D01*
X494131Y-1883613D01*
X503478Y-1871624D01*
X511352Y-1858619D01*
X517601Y-1844751D01*
X522122Y-1830222D01*
X524865Y-1815287D01*
X525780Y-1800098D01*
X524865Y-1784908D01*
X522122Y-1769973D01*
X517601Y-1755444D01*
X511352Y-1741627D01*
X503478Y-1728571D01*
X494131Y-1716633D01*
X483362Y-1705864D01*
X471424Y-1696516D01*
X458419Y-1688642D01*
X444550Y-1682394D01*
X430022Y-1677873D01*
X415086Y-1675130D01*
X399897Y-1674215D01*
X384708Y-1675130D01*
X369773Y-1677873D01*
X355244Y-1682394D01*
X341376Y-1688642D01*
X328371Y-1696516D01*
X316433Y-1705864D01*
X305663Y-1716633D01*
X296316Y-1728571D01*
X288442Y-1741627D01*
X282194Y-1755444D01*
X277672Y-1769973D01*
X274929Y-1784908D01*
X274015Y-1800098D01*
X274929Y-1815287D01*
X277672Y-1830222D01*
X282194Y-1844751D01*
X288442Y-1858619D01*
X296316Y-1871624D01*
X305663Y-1883613D01*
X316433Y-1894332D01*
X328371Y-1903730D01*
X341376Y-1911553D01*
X355244Y-1917801D01*
X369773Y-1922322D01*
X384708Y-1925066D01*
G37*
G36*
X765708Y-1915668D02*
G01*
X780288Y-1915668D01*
X794715Y-1913839D01*
X808786Y-1910232D01*
X822350Y-1904847D01*
X835101Y-1897837D01*
X846886Y-1889302D01*
X857453Y-1879346D01*
X866749Y-1868119D01*
X874572Y-1855825D01*
X880770Y-1842668D01*
X885240Y-1828800D01*
X887984Y-1814525D01*
X888898Y-1799996D01*
X887984Y-1785467D01*
X885240Y-1771192D01*
X880770Y-1757324D01*
X874572Y-1744167D01*
X866749Y-1731873D01*
X857453Y-1720646D01*
X846886Y-1710689D01*
X835101Y-1702155D01*
X822350Y-1695145D01*
X808786Y-1689760D01*
X794715Y-1686153D01*
X780288Y-1684324D01*
X765708Y-1684324D01*
X751281Y-1686153D01*
X737209Y-1689760D01*
X723646Y-1695145D01*
X710895Y-1702155D01*
X699109Y-1710689D01*
X688543Y-1720646D01*
X679246Y-1731873D01*
X671423Y-1744167D01*
X665226Y-1757324D01*
X660755Y-1771192D01*
X658012Y-1785467D01*
X657098Y-1799996D01*
X658012Y-1814525D01*
X660755Y-1828800D01*
X665226Y-1842668D01*
X671423Y-1855825D01*
X679246Y-1868119D01*
X688543Y-1879346D01*
X699109Y-1889302D01*
X710895Y-1897837D01*
X723646Y-1904847D01*
X737209Y-1910232D01*
X751281Y-1913839D01*
G37*
G36*
X1078331Y-1903730D02*
G01*
X1089101Y-1897837D01*
X1100886Y-1889302D01*
X1111453Y-1879346D01*
X1120749Y-1868119D01*
X1128572Y-1855825D01*
X1130655Y-1851355D01*
X1078331Y-1851355D01*
G37*
G36*
X975664Y-1903730D02*
G01*
X975664Y-1851355D01*
X923340Y-1851355D01*
X925423Y-1855825D01*
X933246Y-1868119D01*
X942543Y-1879346D01*
X953109Y-1889302D01*
X964895Y-1897837D01*
G37*
G36*
X1557020Y-1801875D02*
G01*
X1570837Y-1800961D01*
X1584401Y-1798269D01*
X1597507Y-1793849D01*
X1609953Y-1787702D01*
X1621434Y-1779981D01*
X1631848Y-1770888D01*
X1640992Y-1760474D01*
X1648714Y-1748942D01*
X1654810Y-1736547D01*
X1659280Y-1723389D01*
X1661972Y-1709826D01*
X1662887Y-1696008D01*
X1661972Y-1682191D01*
X1659280Y-1668576D01*
X1654810Y-1655470D01*
X1648714Y-1643075D01*
X1640992Y-1631543D01*
X1631848Y-1621129D01*
X1621434Y-1611985D01*
X1609953Y-1604314D01*
X1597507Y-1598168D01*
X1584401Y-1593748D01*
X1570837Y-1591005D01*
X1557020Y-1590090D01*
X1543151Y-1591005D01*
X1529588Y-1593748D01*
X1516481Y-1598168D01*
X1504035Y-1604314D01*
X1492554Y-1611985D01*
X1482140Y-1621129D01*
X1472996Y-1631543D01*
X1465275Y-1643075D01*
X1459179Y-1655470D01*
X1454708Y-1668576D01*
X1452016Y-1682191D01*
X1451102Y-1696008D01*
X1452016Y-1709826D01*
X1454708Y-1723389D01*
X1459179Y-1736547D01*
X1465275Y-1748942D01*
X1472996Y-1760474D01*
X1482140Y-1770888D01*
X1492554Y-1779981D01*
X1504035Y-1787702D01*
X1516481Y-1793849D01*
X1529588Y-1798269D01*
X1543151Y-1800961D01*
G37*
G36*
X923340Y-1748637D02*
G01*
X975664Y-1748637D01*
X975664Y-1696262D01*
X964895Y-1702155D01*
X953109Y-1710689D01*
X942543Y-1720646D01*
X933246Y-1731873D01*
X925423Y-1744167D01*
G37*
G36*
X1078331Y-1748637D02*
G01*
X1130655Y-1748637D01*
X1128572Y-1744167D01*
X1120749Y-1731873D01*
X1111453Y-1720646D01*
X1100886Y-1710689D01*
X1089101Y-1702155D01*
X1078331Y-1696262D01*
G37*
G36*
X1603349Y-1536954D02*
G01*
X1609953Y-1533702D01*
X1621434Y-1525981D01*
X1631848Y-1516888D01*
X1640992Y-1506474D01*
X1648714Y-1494942D01*
X1651965Y-1488338D01*
X1603349Y-1488338D01*
G37*
G36*
X1510639Y-1536954D02*
G01*
X1510639Y-1488338D01*
X1462024Y-1488338D01*
X1465275Y-1494942D01*
X1472996Y-1506474D01*
X1482140Y-1516888D01*
X1492554Y-1525981D01*
X1504035Y-1533702D01*
G37*
G36*
X765708Y-1415643D02*
G01*
X780288Y-1415643D01*
X794715Y-1413814D01*
X808786Y-1410208D01*
X822350Y-1404874D01*
X835101Y-1397863D01*
X846886Y-1389278D01*
X857453Y-1379321D01*
X866749Y-1368094D01*
X874572Y-1355852D01*
X880770Y-1342644D01*
X885240Y-1328826D01*
X887984Y-1314500D01*
X888898Y-1300022D01*
X887984Y-1285494D01*
X885240Y-1271168D01*
X880770Y-1257350D01*
X874572Y-1244142D01*
X866749Y-1231900D01*
X857453Y-1220673D01*
X846886Y-1210716D01*
X835101Y-1202131D01*
X822350Y-1195120D01*
X808786Y-1189786D01*
X794715Y-1186180D01*
X780288Y-1184351D01*
X765708Y-1184351D01*
X751281Y-1186180D01*
X737209Y-1189786D01*
X723646Y-1195120D01*
X710895Y-1202131D01*
X699109Y-1210716D01*
X688543Y-1220673D01*
X679246Y-1231900D01*
X671423Y-1244142D01*
X665226Y-1257350D01*
X660755Y-1271168D01*
X658012Y-1285494D01*
X657098Y-1300022D01*
X658012Y-1314500D01*
X660755Y-1328826D01*
X665226Y-1342644D01*
X671423Y-1355852D01*
X679246Y-1368094D01*
X688543Y-1379321D01*
X699109Y-1389278D01*
X710895Y-1397863D01*
X723646Y-1404874D01*
X737209Y-1410208D01*
X751281Y-1413814D01*
G37*
G36*
X975664Y-1403756D02*
G01*
X975664Y-1351330D01*
X923340Y-1351330D01*
X925423Y-1355852D01*
X933246Y-1368094D01*
X942543Y-1379321D01*
X953109Y-1389278D01*
X964895Y-1397863D01*
G37*
G36*
X1078331Y-1403756D02*
G01*
X1089101Y-1397863D01*
X1100886Y-1389278D01*
X1111453Y-1379321D01*
X1120749Y-1368094D01*
X1128572Y-1355852D01*
X1130655Y-1351330D01*
X1078331Y-1351330D01*
G37*
G36*
X1603349Y-1395628D02*
G01*
X1651965Y-1395628D01*
X1648714Y-1389075D01*
X1640992Y-1377543D01*
X1631848Y-1367129D01*
X1621434Y-1357985D01*
X1609953Y-1350314D01*
X1603349Y-1347063D01*
G37*
G36*
X1462024Y-1395628D02*
G01*
X1510639Y-1395628D01*
X1510639Y-1347063D01*
X1504035Y-1350314D01*
X1492554Y-1357985D01*
X1482140Y-1367129D01*
X1472996Y-1377543D01*
X1465275Y-1389075D01*
G37*
G36*
X1557020Y-1293876D02*
G01*
X1570837Y-1292961D01*
X1584401Y-1290269D01*
X1597507Y-1285849D01*
X1609953Y-1279702D01*
X1621434Y-1271981D01*
X1631848Y-1262888D01*
X1640992Y-1252474D01*
X1648714Y-1240942D01*
X1654810Y-1228547D01*
X1659280Y-1215390D01*
X1661972Y-1201826D01*
X1662887Y-1188008D01*
X1661972Y-1174191D01*
X1659280Y-1160576D01*
X1654810Y-1147470D01*
X1648714Y-1135075D01*
X1640992Y-1123543D01*
X1631848Y-1113129D01*
X1621434Y-1103985D01*
X1609953Y-1096314D01*
X1597507Y-1090168D01*
X1584401Y-1085748D01*
X1570837Y-1083005D01*
X1557020Y-1082090D01*
X1543151Y-1083005D01*
X1529588Y-1085748D01*
X1516481Y-1090168D01*
X1504035Y-1096314D01*
X1492554Y-1103985D01*
X1482140Y-1113129D01*
X1472996Y-1123543D01*
X1465275Y-1135075D01*
X1459179Y-1147470D01*
X1454708Y-1160576D01*
X1452016Y-1174191D01*
X1451102Y-1188008D01*
X1452016Y-1201826D01*
X1454708Y-1215390D01*
X1459179Y-1228547D01*
X1465275Y-1240942D01*
X1472996Y-1252474D01*
X1482140Y-1262888D01*
X1492554Y-1271981D01*
X1504035Y-1279702D01*
X1516481Y-1285849D01*
X1529588Y-1290269D01*
X1543151Y-1292961D01*
G37*
G36*
X923340Y-1248664D02*
G01*
X975664Y-1248664D01*
X975664Y-1196238D01*
X964895Y-1202131D01*
X953109Y-1210716D01*
X942543Y-1220673D01*
X933246Y-1231900D01*
X925423Y-1244142D01*
G37*
G36*
X1078331Y-1248664D02*
G01*
X1130655Y-1248664D01*
X1128572Y-1244142D01*
X1120749Y-1231900D01*
X1111453Y-1220673D01*
X1100886Y-1210716D01*
X1089101Y-1202131D01*
X1078331Y-1196238D01*
G37*
G36*
X1557020Y-1039876D02*
G01*
X1570837Y-1038961D01*
X1584401Y-1036269D01*
X1597507Y-1031849D01*
X1609953Y-1025702D01*
X1621434Y-1017981D01*
X1631848Y-1008887D01*
X1640992Y-998474D01*
X1648714Y-986942D01*
X1654810Y-974547D01*
X1659280Y-961390D01*
X1661972Y-947826D01*
X1662887Y-934008D01*
X1661972Y-920191D01*
X1659280Y-906576D01*
X1654810Y-893470D01*
X1648714Y-881075D01*
X1640992Y-869543D01*
X1631848Y-859129D01*
X1621434Y-849985D01*
X1609953Y-842314D01*
X1597507Y-836168D01*
X1584401Y-831748D01*
X1570837Y-829005D01*
X1557020Y-828090D01*
X1543151Y-829005D01*
X1529588Y-831748D01*
X1516481Y-836168D01*
X1504035Y-842314D01*
X1492554Y-849985D01*
X1482140Y-859129D01*
X1472996Y-869543D01*
X1465275Y-881075D01*
X1459179Y-893470D01*
X1454708Y-906576D01*
X1452016Y-920191D01*
X1451102Y-934008D01*
X1452016Y-947826D01*
X1454708Y-961390D01*
X1459179Y-974547D01*
X1465275Y-986942D01*
X1472996Y-998474D01*
X1482140Y-1008887D01*
X1492554Y-1017981D01*
X1504035Y-1025702D01*
X1516481Y-1031849D01*
X1529588Y-1036269D01*
X1543151Y-1038961D01*
G37*
G36*
X399999Y-1025906D02*
G01*
X415188Y-1024991D01*
X430123Y-1022248D01*
X444652Y-1017727D01*
X458520Y-1011478D01*
X471525Y-1003604D01*
X483463Y-994206D01*
X494233Y-983487D01*
X503580Y-971499D01*
X511454Y-958494D01*
X517702Y-944626D01*
X522224Y-930148D01*
X524967Y-915162D01*
X525881Y-900023D01*
X524967Y-884834D01*
X522224Y-869848D01*
X517702Y-855370D01*
X511454Y-841502D01*
X503580Y-828497D01*
X494233Y-816508D01*
X483463Y-805789D01*
X471525Y-796391D01*
X458520Y-788517D01*
X444652Y-782269D01*
X430123Y-777748D01*
X415188Y-775004D01*
X399999Y-774090D01*
X384810Y-775004D01*
X369874Y-777748D01*
X355346Y-782269D01*
X341477Y-788517D01*
X328472Y-796391D01*
X316534Y-805789D01*
X305765Y-816508D01*
X296418Y-828497D01*
X288544Y-841502D01*
X282295Y-855370D01*
X277774Y-869848D01*
X275031Y-884834D01*
X274116Y-900023D01*
X275031Y-915162D01*
X277774Y-930148D01*
X282295Y-944626D01*
X288544Y-958494D01*
X296418Y-971499D01*
X305765Y-983487D01*
X316534Y-994206D01*
X328472Y-1003604D01*
X341477Y-1011478D01*
X355346Y-1017727D01*
X369874Y-1022248D01*
X384810Y-1024991D01*
G37*
G36*
X1557020Y-785876D02*
G01*
X1570837Y-784961D01*
X1584401Y-782269D01*
X1597507Y-777849D01*
X1609953Y-771702D01*
X1621434Y-763981D01*
X1631848Y-754888D01*
X1640992Y-744474D01*
X1648714Y-732942D01*
X1654810Y-720547D01*
X1659280Y-707390D01*
X1661972Y-693826D01*
X1662887Y-680008D01*
X1661972Y-666191D01*
X1659280Y-652576D01*
X1654810Y-639470D01*
X1648714Y-627075D01*
X1640992Y-615543D01*
X1631848Y-605129D01*
X1621434Y-595985D01*
X1609953Y-588314D01*
X1597507Y-582168D01*
X1584401Y-577748D01*
X1570837Y-575005D01*
X1557020Y-574090D01*
X1543151Y-575005D01*
X1529588Y-577748D01*
X1516481Y-582168D01*
X1504035Y-588314D01*
X1492554Y-595985D01*
X1482140Y-605129D01*
X1472996Y-615543D01*
X1465275Y-627075D01*
X1459179Y-639470D01*
X1454708Y-652576D01*
X1452016Y-666191D01*
X1451102Y-680008D01*
X1452016Y-693826D01*
X1454708Y-707390D01*
X1459179Y-720547D01*
X1465275Y-732942D01*
X1472996Y-744474D01*
X1482140Y-754888D01*
X1492554Y-763981D01*
X1504035Y-771702D01*
X1516481Y-777849D01*
X1529588Y-782269D01*
X1543151Y-784961D01*
G37*
G36*
X906373Y-12446D02*
G01*
X908507Y-11480D01*
X921512Y-3606D01*
X933500Y5791D01*
X944219Y16510D01*
X953617Y28498D01*
X961491Y41503D01*
X962456Y43637D01*
X906373Y43637D01*
G37*
G36*
X793648Y-12446D02*
G01*
X793648Y43637D01*
X737565Y43637D01*
X738530Y41503D01*
X746404Y28498D01*
X755751Y16510D01*
X766521Y5791D01*
X778510Y-3606D01*
X791514Y-11480D01*
G37*
G36*
X906373Y156362D02*
G01*
X962456Y156362D01*
X961491Y158496D01*
X953617Y171500D01*
X944219Y183489D01*
X933500Y194208D01*
X921512Y203606D01*
X908507Y211480D01*
X906373Y212445D01*
G37*
G36*
X737565Y156362D02*
G01*
X793648Y156362D01*
X793648Y212445D01*
X791514Y211480D01*
X778510Y203606D01*
X766521Y194208D01*
X755751Y183489D01*
X746404Y171500D01*
X738530Y158496D01*
G37*

%LPD*%
G36*
X848766Y-5100015D02*
G01*
X844854Y-5099202D01*
X841603Y-5097018D01*
X839368Y-5093716D01*
X838606Y-5089855D01*
X838606Y-4994198D01*
X839216Y-4990795D01*
X840892Y-4987747D01*
X843483Y-4985512D01*
X855319Y-4978298D01*
X865428Y-4970068D01*
X874369Y-4960518D01*
X881938Y-4949799D01*
X887933Y-4938166D01*
X892302Y-4925872D01*
X894994Y-4913071D01*
X895858Y-4900015D01*
X894994Y-4886909D01*
X892302Y-4874107D01*
X887933Y-4861814D01*
X881938Y-4850180D01*
X874369Y-4839462D01*
X865428Y-4829911D01*
X855268Y-4821631D01*
X852424Y-4819904D01*
X849731Y-4817465D01*
X848004Y-4814265D01*
X847598Y-4810607D01*
X848461Y-4807051D01*
X850544Y-4804054D01*
X913028Y-4741570D01*
X916330Y-4739386D01*
X920191Y-4738624D01*
X1454251Y-4738624D01*
X1457858Y-4739233D01*
X1460957Y-4741113D01*
X1466189Y-4745736D01*
X1474368Y-4750765D01*
X1483360Y-4754372D01*
X1492758Y-4756404D01*
X1502410Y-4756810D01*
X1511960Y-4755591D01*
X1521206Y-4752746D01*
X1529791Y-4748428D01*
X1537563Y-4742688D01*
X1543913Y-4736084D01*
X1547164Y-4733798D01*
X1551076Y-4732934D01*
X1555038Y-4733696D01*
X1558340Y-4735880D01*
X1560626Y-4739182D01*
X1561388Y-4743094D01*
X1561388Y-4805781D01*
X1560779Y-4809185D01*
X1559102Y-4812233D01*
X1556512Y-4814468D01*
X1544726Y-4821682D01*
X1534566Y-4829911D01*
X1525625Y-4839462D01*
X1518056Y-4850180D01*
X1512062Y-4861814D01*
X1507693Y-4874107D01*
X1505000Y-4886909D01*
X1504137Y-4900015D01*
X1505000Y-4913071D01*
X1507693Y-4925872D01*
X1512062Y-4938166D01*
X1518056Y-4949799D01*
X1525625Y-4960518D01*
X1534566Y-4970068D01*
X1544726Y-4978349D01*
X1555902Y-4985105D01*
X1567891Y-4990338D01*
X1580489Y-4993894D01*
X1593443Y-4995672D01*
X1606550Y-4995672D01*
X1619504Y-4993894D01*
X1632102Y-4990338D01*
X1644091Y-4985105D01*
X1655267Y-4978349D01*
X1665427Y-4970068D01*
X1674368Y-4960518D01*
X1681937Y-4949799D01*
X1687931Y-4938166D01*
X1692300Y-4925872D01*
X1694992Y-4913071D01*
X1695856Y-4900015D01*
X1694992Y-4886909D01*
X1692300Y-4874107D01*
X1687931Y-4861814D01*
X1681937Y-4850180D01*
X1674368Y-4839462D01*
X1665427Y-4829911D01*
X1655318Y-4821682D01*
X1643481Y-4814468D01*
X1640890Y-4812233D01*
X1639214Y-4809185D01*
X1638604Y-4805781D01*
X1638604Y-3700475D01*
X1637792Y-3692448D01*
X1635607Y-3685235D01*
X1632051Y-3678580D01*
X1626920Y-3672332D01*
X1441602Y-3486962D01*
X1439367Y-3483660D01*
X1438605Y-3479800D01*
X1438605Y-3420211D01*
X1439367Y-3416300D01*
X1441602Y-3412998D01*
X1510690Y-3343910D01*
X1513992Y-3341674D01*
X1517904Y-3340912D01*
X1629460Y-3340912D01*
X1635760Y-3340201D01*
X1638706Y-3339185D01*
X1642059Y-3338626D01*
X1657400Y-3338626D01*
X1665427Y-3337814D01*
X1672640Y-3335629D01*
X1679346Y-3332073D01*
X1685188Y-3327247D01*
X1689963Y-3321405D01*
X1693519Y-3314750D01*
X1695704Y-3307537D01*
X1696923Y-3295548D01*
X1699006Y-3291941D01*
X1702460Y-3289452D01*
X1706575Y-3288588D01*
X1797405Y-3288588D01*
X1805432Y-3287826D01*
X1812645Y-3285591D01*
X1819300Y-3282035D01*
X1825548Y-3276955D01*
X1829460Y-3272993D01*
X1833168Y-3270656D01*
X1837537Y-3270046D01*
X1841703Y-3271418D01*
X1844954Y-3274364D01*
X1846630Y-3278428D01*
X1846478Y-3282797D01*
X1844497Y-3290214D01*
X1843633Y-3300018D01*
X1844497Y-3309772D01*
X1847037Y-3319272D01*
X1851202Y-3328162D01*
X1856790Y-3336239D01*
X1863750Y-3343198D01*
X1871827Y-3348786D01*
X1880717Y-3352952D01*
X1890217Y-3355492D01*
X1900021Y-3356356D01*
X1909775Y-3355492D01*
X1919274Y-3352952D01*
X1928164Y-3348786D01*
X1936242Y-3343198D01*
X1937816Y-3341573D01*
X1941118Y-3339388D01*
X1945030Y-3338626D01*
X1958035Y-3338626D01*
X1961388Y-3339185D01*
X1964283Y-3340201D01*
X1970582Y-3340912D01*
X2099462Y-3340912D01*
X2105761Y-3340201D01*
X2111248Y-3338271D01*
X2116124Y-3335172D01*
X2120239Y-3331108D01*
X2123287Y-3326180D01*
X2125218Y-3320745D01*
X2125929Y-3314395D01*
X2125929Y-3298748D01*
X2126691Y-3294887D01*
X2128875Y-3291586D01*
X2132177Y-3289350D01*
X2136089Y-3288588D01*
X2177542Y-3288588D01*
X2181809Y-3289554D01*
X2185263Y-3292144D01*
X2472486Y-3627170D01*
X2476093Y-3630371D01*
X2478328Y-3631996D01*
X2482494Y-3634384D01*
X2484983Y-3635552D01*
X2489555Y-3637127D01*
X2492248Y-3637787D01*
X2497023Y-3638448D01*
X2679801Y-3638550D01*
X2683713Y-3639312D01*
X2687015Y-3641547D01*
X2772460Y-3726942D01*
X2778658Y-3732072D01*
X2785364Y-3735628D01*
X2792577Y-3737813D01*
X2800604Y-3738626D01*
X2899410Y-3738626D01*
X2907436Y-3737813D01*
X2914650Y-3735628D01*
X2921355Y-3732072D01*
X2927553Y-3726942D01*
X3326892Y-3327603D01*
X3332022Y-3321405D01*
X3335578Y-3314700D01*
X3337763Y-3307486D01*
X3338576Y-3299460D01*
X3338576Y-2020214D01*
X3339337Y-2016302D01*
X3341573Y-2013000D01*
X3763060Y-1591513D01*
X3766362Y-1589278D01*
X3770274Y-1588516D01*
X3780180Y-1588516D01*
X3784396Y-1589430D01*
X3787800Y-1591970D01*
X3789883Y-1595729D01*
X3790238Y-1599996D01*
X3788816Y-1604060D01*
X3785819Y-1607108D01*
X3778554Y-1611985D01*
X3768140Y-1621129D01*
X3758996Y-1631543D01*
X3751275Y-1643075D01*
X3745179Y-1655470D01*
X3740708Y-1668576D01*
X3738016Y-1682191D01*
X3737101Y-1696008D01*
X3738016Y-1709826D01*
X3740708Y-1723389D01*
X3743807Y-1732534D01*
X3744366Y-1736242D01*
X3743502Y-1739900D01*
X3741369Y-1742998D01*
X3623056Y-1861312D01*
X3617925Y-1867560D01*
X3614369Y-1874215D01*
X3612184Y-1881428D01*
X3611372Y-1889455D01*
X3611372Y-3009138D01*
X3610610Y-3013049D01*
X3608425Y-3016351D01*
X3605123Y-3018536D01*
X3601262Y-3019298D01*
X3597351Y-3018536D01*
X3594049Y-3016351D01*
X3583482Y-3005785D01*
X3571494Y-2996387D01*
X3558489Y-2988513D01*
X3544620Y-2982264D01*
X3530142Y-2977743D01*
X3515156Y-2975000D01*
X3500018Y-2974086D01*
X3484829Y-2975000D01*
X3469843Y-2977743D01*
X3455365Y-2982264D01*
X3441496Y-2988513D01*
X3428492Y-2996387D01*
X3416503Y-3005785D01*
X3405784Y-3016504D01*
X3396386Y-3028492D01*
X3388512Y-3041497D01*
X3382264Y-3055366D01*
X3377742Y-3069844D01*
X3374999Y-3084830D01*
X3374085Y-3100019D01*
X3374999Y-3115157D01*
X3377742Y-3130143D01*
X3382264Y-3144621D01*
X3388512Y-3158490D01*
X3396386Y-3171494D01*
X3405784Y-3183483D01*
X3416503Y-3194202D01*
X3428492Y-3203600D01*
X3441496Y-3211474D01*
X3455365Y-3217722D01*
X3469843Y-3222244D01*
X3484829Y-3224987D01*
X3500018Y-3225901D01*
X3515156Y-3224987D01*
X3530142Y-3222244D01*
X3544620Y-3217722D01*
X3558489Y-3211474D01*
X3571494Y-3203600D01*
X3583482Y-3194202D01*
X3594049Y-3183636D01*
X3597351Y-3181451D01*
X3601262Y-3180689D01*
X3605123Y-3181451D01*
X3608425Y-3183636D01*
X3610610Y-3186938D01*
X3611372Y-3190849D01*
X3611372Y-3409137D01*
X3610610Y-3413048D01*
X3608425Y-3416350D01*
X3605123Y-3418535D01*
X3601262Y-3419297D01*
X3597351Y-3418535D01*
X3594049Y-3416350D01*
X3583482Y-3405784D01*
X3571494Y-3396386D01*
X3558489Y-3388512D01*
X3544620Y-3382264D01*
X3530142Y-3377742D01*
X3515156Y-3374999D01*
X3500018Y-3374085D01*
X3484829Y-3374999D01*
X3469843Y-3377742D01*
X3455365Y-3382264D01*
X3441496Y-3388512D01*
X3428492Y-3396386D01*
X3416503Y-3405784D01*
X3405784Y-3416503D01*
X3396386Y-3428492D01*
X3388512Y-3441496D01*
X3382264Y-3455365D01*
X3377742Y-3469843D01*
X3374999Y-3484829D01*
X3374085Y-3500018D01*
X3374999Y-3515156D01*
X3377742Y-3530142D01*
X3382264Y-3544620D01*
X3388512Y-3558489D01*
X3396386Y-3571494D01*
X3405784Y-3583482D01*
X3416503Y-3594201D01*
X3428492Y-3603599D01*
X3441496Y-3611473D01*
X3455365Y-3617722D01*
X3469843Y-3622243D01*
X3484829Y-3624986D01*
X3500018Y-3625900D01*
X3515156Y-3624986D01*
X3530142Y-3622243D01*
X3544620Y-3617722D01*
X3558489Y-3611473D01*
X3571494Y-3603599D01*
X3583482Y-3594201D01*
X3594049Y-3583635D01*
X3597351Y-3581450D01*
X3601262Y-3580688D01*
X3605123Y-3581450D01*
X3608425Y-3583635D01*
X3610610Y-3586937D01*
X3611372Y-3590848D01*
X3611372Y-3627374D01*
X3610610Y-3631234D01*
X3608425Y-3634536D01*
X3606800Y-3636162D01*
X3601212Y-3644188D01*
X3597046Y-3653129D01*
X3594506Y-3662578D01*
X3593642Y-3672382D01*
X3594506Y-3682187D01*
X3597046Y-3691686D01*
X3601212Y-3700576D01*
X3606800Y-3708603D01*
X3608425Y-3710228D01*
X3610610Y-3713530D01*
X3611372Y-3717391D01*
X3611372Y-3917391D01*
X3610406Y-3921760D01*
X3607714Y-3925265D01*
X3603751Y-3927246D01*
X3599332Y-3927398D01*
X3595268Y-3925620D01*
X3589070Y-3921150D01*
X3576320Y-3914140D01*
X3562807Y-3908755D01*
X3548684Y-3905148D01*
X3534257Y-3903319D01*
X3519728Y-3903319D01*
X3505301Y-3905148D01*
X3491179Y-3908755D01*
X3477666Y-3914140D01*
X3464915Y-3921150D01*
X3453129Y-3929684D01*
X3442512Y-3939641D01*
X3433216Y-3950868D01*
X3425444Y-3963162D01*
X3419246Y-3976319D01*
X3414725Y-3990187D01*
X3412032Y-4004462D01*
X3411118Y-4018991D01*
X3412032Y-4033520D01*
X3414725Y-4047794D01*
X3419246Y-4061663D01*
X3425444Y-4074820D01*
X3433216Y-4087114D01*
X3442512Y-4098340D01*
X3453129Y-4108297D01*
X3464915Y-4116832D01*
X3477666Y-4123842D01*
X3491179Y-4129227D01*
X3505301Y-4132834D01*
X3519728Y-4134662D01*
X3534257Y-4134662D01*
X3548684Y-4132834D01*
X3562807Y-4129227D01*
X3576320Y-4123842D01*
X3589070Y-4116832D01*
X3595268Y-4112361D01*
X3599332Y-4110583D01*
X3603751Y-4110736D01*
X3607714Y-4112717D01*
X3610406Y-4116222D01*
X3611372Y-4120591D01*
X3611372Y-4649520D01*
X3612184Y-4657547D01*
X3614369Y-4664760D01*
X3617925Y-4671415D01*
X3623056Y-4677664D01*
X3671570Y-4726127D01*
X3673805Y-4729581D01*
X3674516Y-4733645D01*
X3673246Y-4738319D01*
X3668725Y-4752187D01*
X3666032Y-4766462D01*
X3665118Y-4780991D01*
X3666032Y-4795520D01*
X3668725Y-4809794D01*
X3673246Y-4823663D01*
X3679444Y-4836820D01*
X3687216Y-4849114D01*
X3696512Y-4860340D01*
X3707129Y-4870297D01*
X3718915Y-4878832D01*
X3731666Y-4885842D01*
X3745179Y-4891227D01*
X3759301Y-4894834D01*
X3773728Y-4896662D01*
X3788257Y-4896662D01*
X3802684Y-4894834D01*
X3816807Y-4891227D01*
X3830320Y-4885842D01*
X3843070Y-4878832D01*
X3854856Y-4870297D01*
X3865473Y-4860340D01*
X3874770Y-4849114D01*
X3882542Y-4836820D01*
X3888740Y-4823663D01*
X3893261Y-4809794D01*
X3895953Y-4795520D01*
X3896868Y-4780991D01*
X3895953Y-4766462D01*
X3893261Y-4752187D01*
X3888740Y-4738319D01*
X3882542Y-4725162D01*
X3874770Y-4712868D01*
X3865473Y-4701641D01*
X3854856Y-4691684D01*
X3843070Y-4683150D01*
X3830320Y-4676140D01*
X3816807Y-4670755D01*
X3802684Y-4667148D01*
X3788257Y-4665319D01*
X3773728Y-4665319D01*
X3759301Y-4667148D01*
X3745179Y-4670755D01*
X3737203Y-4673955D01*
X3733342Y-4674666D01*
X3729532Y-4673854D01*
X3726281Y-4671669D01*
X3691585Y-4636973D01*
X3689400Y-4633671D01*
X3688587Y-4629810D01*
X3688587Y-4114393D01*
X3689350Y-4110532D01*
X3691534Y-4107281D01*
X3694734Y-4105046D01*
X3698544Y-4104233D01*
X3702405Y-4104894D01*
X3705707Y-4106976D01*
X3707129Y-4108297D01*
X3718915Y-4116832D01*
X3731666Y-4123842D01*
X3745179Y-4129227D01*
X3759301Y-4132834D01*
X3773728Y-4134662D01*
X3788257Y-4134662D01*
X3802684Y-4132834D01*
X3816807Y-4129227D01*
X3830320Y-4123842D01*
X3843070Y-4116832D01*
X3854856Y-4108297D01*
X3865473Y-4098340D01*
X3874770Y-4087114D01*
X3882542Y-4074820D01*
X3888740Y-4061663D01*
X3893261Y-4047794D01*
X3895953Y-4033520D01*
X3896868Y-4018991D01*
X3895953Y-4004462D01*
X3893261Y-3990187D01*
X3888740Y-3976319D01*
X3882542Y-3963162D01*
X3874770Y-3950868D01*
X3865473Y-3939641D01*
X3854856Y-3929684D01*
X3843070Y-3921150D01*
X3830320Y-3914140D01*
X3816807Y-3908755D01*
X3802684Y-3905148D01*
X3788257Y-3903319D01*
X3773728Y-3903319D01*
X3759301Y-3905148D01*
X3745179Y-3908755D01*
X3731666Y-3914140D01*
X3718915Y-3921150D01*
X3707129Y-3929684D01*
X3705707Y-3931005D01*
X3702405Y-3933088D01*
X3698544Y-3933748D01*
X3694734Y-3932936D01*
X3691534Y-3930700D01*
X3689350Y-3927449D01*
X3688587Y-3923588D01*
X3688587Y-3717391D01*
X3689400Y-3713530D01*
X3691585Y-3710228D01*
X3693210Y-3708603D01*
X3698798Y-3700576D01*
X3702964Y-3691686D01*
X3705504Y-3682187D01*
X3706368Y-3672382D01*
X3705504Y-3662578D01*
X3702964Y-3653129D01*
X3698798Y-3644188D01*
X3693210Y-3636162D01*
X3691585Y-3634536D01*
X3689400Y-3631234D01*
X3688587Y-3627374D01*
X3688587Y-3590848D01*
X3689400Y-3586987D01*
X3691585Y-3583686D01*
X3694887Y-3581450D01*
X3698798Y-3580688D01*
X3702659Y-3581450D01*
X3705961Y-3583686D01*
X3716528Y-3594201D01*
X3728465Y-3603599D01*
X3741470Y-3611473D01*
X3755339Y-3617722D01*
X3769868Y-3622243D01*
X3784803Y-3624986D01*
X3799992Y-3625900D01*
X3815181Y-3624986D01*
X3830116Y-3622243D01*
X3844645Y-3617722D01*
X3858514Y-3611473D01*
X3871518Y-3603599D01*
X3883456Y-3594201D01*
X3894226Y-3583482D01*
X3903573Y-3571494D01*
X3911447Y-3558489D01*
X3917696Y-3544620D01*
X3922217Y-3530142D01*
X3924960Y-3515156D01*
X3925874Y-3500018D01*
X3924960Y-3484829D01*
X3922217Y-3469843D01*
X3917696Y-3455365D01*
X3914851Y-3449015D01*
X3913936Y-3445052D01*
X3914698Y-3441039D01*
X3916934Y-3437636D01*
X3979367Y-3375202D01*
X3984498Y-3369005D01*
X3988054Y-3362350D01*
X3990238Y-3355086D01*
X3991051Y-3347059D01*
X3991051Y-2059889D01*
X3990238Y-2051862D01*
X3988054Y-2044649D01*
X3984498Y-2037994D01*
X3979367Y-2031746D01*
X3944620Y-1996998D01*
X3942486Y-1993900D01*
X3941622Y-1990242D01*
X3942181Y-1986534D01*
X3945280Y-1977389D01*
X3947972Y-1963826D01*
X3948887Y-1950008D01*
X3947972Y-1936191D01*
X3945280Y-1922576D01*
X3940810Y-1909470D01*
X3934714Y-1897075D01*
X3926992Y-1885543D01*
X3917848Y-1875129D01*
X3907434Y-1865985D01*
X3895953Y-1858314D01*
X3883507Y-1852168D01*
X3870401Y-1847748D01*
X3856837Y-1845005D01*
X3843020Y-1844090D01*
X3829151Y-1845005D01*
X3815587Y-1847748D01*
X3802481Y-1852168D01*
X3790035Y-1858314D01*
X3778554Y-1865985D01*
X3768140Y-1875129D01*
X3758996Y-1885543D01*
X3751275Y-1897075D01*
X3745179Y-1909470D01*
X3740708Y-1922576D01*
X3738016Y-1936191D01*
X3737101Y-1950008D01*
X3738016Y-1963826D01*
X3740708Y-1977389D01*
X3745179Y-1990547D01*
X3751275Y-2002942D01*
X3758996Y-2014474D01*
X3768140Y-2024888D01*
X3778554Y-2033981D01*
X3790035Y-2041702D01*
X3802481Y-2047849D01*
X3815587Y-2052269D01*
X3829151Y-2054961D01*
X3843020Y-2055875D01*
X3856837Y-2054961D01*
X3870401Y-2052269D01*
X3879545Y-2049170D01*
X3883253Y-2048662D01*
X3886911Y-2049475D01*
X3890010Y-2051608D01*
X3910837Y-2072436D01*
X3913022Y-2075738D01*
X3913835Y-2079599D01*
X3913835Y-2105253D01*
X3912870Y-2109470D01*
X3910228Y-2112975D01*
X3906418Y-2115007D01*
X3902049Y-2115261D01*
X3897985Y-2113686D01*
X3895953Y-2112314D01*
X3883507Y-2106168D01*
X3870401Y-2101748D01*
X3856837Y-2099005D01*
X3843020Y-2098090D01*
X3829151Y-2099005D01*
X3815587Y-2101748D01*
X3802481Y-2106168D01*
X3790035Y-2112314D01*
X3778554Y-2119985D01*
X3768140Y-2129129D01*
X3758996Y-2139543D01*
X3751275Y-2151075D01*
X3745179Y-2163470D01*
X3740708Y-2176576D01*
X3738016Y-2190191D01*
X3737101Y-2204008D01*
X3738016Y-2217826D01*
X3740708Y-2231390D01*
X3743807Y-2240534D01*
X3744366Y-2244242D01*
X3743502Y-2247900D01*
X3741369Y-2250998D01*
X3705961Y-2286406D01*
X3702659Y-2288641D01*
X3698798Y-2289403D01*
X3694887Y-2288641D01*
X3691585Y-2286406D01*
X3689400Y-2283104D01*
X3688587Y-2279243D01*
X3688587Y-1909165D01*
X3689400Y-1905304D01*
X3691585Y-1902002D01*
X3795979Y-1797608D01*
X3799078Y-1795475D01*
X3802735Y-1794662D01*
X3806444Y-1795170D01*
X3815587Y-1798269D01*
X3829151Y-1800961D01*
X3843020Y-1801875D01*
X3856837Y-1800961D01*
X3870401Y-1798269D01*
X3883507Y-1793849D01*
X3895953Y-1787702D01*
X3907434Y-1779981D01*
X3917848Y-1770888D01*
X3926992Y-1760474D01*
X3934714Y-1748942D01*
X3940810Y-1736547D01*
X3945280Y-1723389D01*
X3947972Y-1709826D01*
X3948887Y-1696008D01*
X3947972Y-1682191D01*
X3945280Y-1668576D01*
X3940810Y-1655470D01*
X3934714Y-1643075D01*
X3926992Y-1631543D01*
X3917848Y-1621129D01*
X3907434Y-1611985D01*
X3900170Y-1607108D01*
X3897172Y-1604060D01*
X3895750Y-1599996D01*
X3896106Y-1595729D01*
X3898188Y-1591970D01*
X3901592Y-1589430D01*
X3905808Y-1588516D01*
X4029811Y-1588516D01*
X4033723Y-1589278D01*
X4037025Y-1591513D01*
X4058462Y-1612950D01*
X4060698Y-1616252D01*
X4061460Y-1620164D01*
X4061460Y-2272588D01*
X4062272Y-2280615D01*
X4064457Y-2287828D01*
X4068013Y-2294483D01*
X4073144Y-2300732D01*
X4417568Y-2645156D01*
X4419803Y-2648610D01*
X4420514Y-2652674D01*
X4419244Y-2657348D01*
X4414723Y-2671165D01*
X4412030Y-2685491D01*
X4411116Y-2700020D01*
X4412030Y-2714498D01*
X4414723Y-2728823D01*
X4419244Y-2742641D01*
X4425442Y-2755849D01*
X4433214Y-2768092D01*
X4442510Y-2779318D01*
X4453128Y-2789275D01*
X4464913Y-2797860D01*
X4477664Y-2804871D01*
X4491177Y-2810205D01*
X4505299Y-2813812D01*
X4519726Y-2815640D01*
X4534255Y-2815640D01*
X4548682Y-2813812D01*
X4562805Y-2810205D01*
X4576318Y-2804871D01*
X4585055Y-2800045D01*
X4589221Y-2798826D01*
X4593539Y-2799435D01*
X4597146Y-2801772D01*
X5196992Y-3401618D01*
X5199227Y-3404920D01*
X5199989Y-3408781D01*
X5199989Y-3764534D01*
X5199278Y-3768293D01*
X5197246Y-3771493D01*
X5194147Y-3773728D01*
X5190439Y-3774694D01*
X5184800Y-3774998D01*
X5169865Y-3777742D01*
X5155336Y-3782263D01*
X5141468Y-3788511D01*
X5128463Y-3796385D01*
X5116525Y-3805783D01*
X5105755Y-3816502D01*
X5096408Y-3828491D01*
X5088534Y-3841496D01*
X5082286Y-3855364D01*
X5077764Y-3869842D01*
X5075021Y-3884828D01*
X5074107Y-3900017D01*
X5075021Y-3915156D01*
X5077764Y-3930142D01*
X5082286Y-3944620D01*
X5088534Y-3958488D01*
X5096408Y-3971493D01*
X5105755Y-3983482D01*
X5116525Y-3994200D01*
X5128463Y-4003598D01*
X5141468Y-4011472D01*
X5155336Y-4017721D01*
X5169865Y-4022242D01*
X5184800Y-4024985D01*
X5190439Y-4025290D01*
X5194147Y-4026255D01*
X5197246Y-4028490D01*
X5199278Y-4031691D01*
X5199989Y-4035450D01*
X5199989Y-4364532D01*
X5199278Y-4368292D01*
X5197246Y-4371492D01*
X5194147Y-4373727D01*
X5190439Y-4374692D01*
X5184800Y-4374997D01*
X5169865Y-4377740D01*
X5155336Y-4382262D01*
X5141468Y-4388510D01*
X5128463Y-4396384D01*
X5116525Y-4405782D01*
X5105755Y-4416501D01*
X5096408Y-4428490D01*
X5088534Y-4441494D01*
X5082286Y-4455363D01*
X5077764Y-4469841D01*
X5075021Y-4484827D01*
X5074666Y-4490466D01*
X5073751Y-4494123D01*
X5071516Y-4497222D01*
X5068265Y-4499254D01*
X5064556Y-4500016D01*
X4748784Y-4500016D01*
X4744872Y-4499203D01*
X4741570Y-4497019D01*
X4739386Y-4493717D01*
X4738624Y-4489856D01*
X4738624Y-3200501D01*
X4737811Y-3192475D01*
X4735626Y-3185261D01*
X4732070Y-3178556D01*
X4726940Y-3172358D01*
X4541570Y-2986989D01*
X4539386Y-2983687D01*
X4538624Y-2979775D01*
X4538624Y-2945688D01*
X4539335Y-2941878D01*
X4541418Y-2938678D01*
X4544263Y-2935732D01*
X4549648Y-2927705D01*
X4553610Y-2918917D01*
X4556048Y-2909620D01*
X4556861Y-2900019D01*
X4556048Y-2890367D01*
X4553610Y-2881071D01*
X4549648Y-2872282D01*
X4544263Y-2864256D01*
X4537557Y-2857296D01*
X4529785Y-2851556D01*
X4521200Y-2847238D01*
X4511954Y-2844393D01*
X4502404Y-2843174D01*
X4492752Y-2843580D01*
X4483354Y-2845612D01*
X4474362Y-2849219D01*
X4466183Y-2854248D01*
X4458919Y-2860649D01*
X4452874Y-2868168D01*
X4448149Y-2876550D01*
X4444949Y-2885643D01*
X4443323Y-2895193D01*
X4443323Y-2904794D01*
X4444949Y-2914345D01*
X4448149Y-2923438D01*
X4452874Y-2931820D01*
X4459122Y-2939592D01*
X4460798Y-2942590D01*
X4461408Y-2945993D01*
X4461408Y-2974086D01*
X4460595Y-2978048D01*
X4458309Y-2981401D01*
X4454956Y-2983585D01*
X4450994Y-2984246D01*
X4447032Y-2983382D01*
X4444644Y-2982264D01*
X4430115Y-2977743D01*
X4415180Y-2975000D01*
X4399991Y-2974086D01*
X4384802Y-2975000D01*
X4369866Y-2977743D01*
X4355338Y-2982264D01*
X4341469Y-2988513D01*
X4328464Y-2996387D01*
X4316526Y-3005785D01*
X4305757Y-3016504D01*
X4296410Y-3028492D01*
X4288536Y-3041497D01*
X4282287Y-3055366D01*
X4277766Y-3069844D01*
X4275023Y-3084830D01*
X4274108Y-3100019D01*
X4275023Y-3115157D01*
X4277766Y-3130143D01*
X4282287Y-3144621D01*
X4288536Y-3158490D01*
X4296410Y-3171494D01*
X4305757Y-3183483D01*
X4316526Y-3194202D01*
X4328464Y-3203600D01*
X4341469Y-3211474D01*
X4349038Y-3214878D01*
X4352188Y-3217113D01*
X4354322Y-3220313D01*
X4355033Y-3224123D01*
X4355033Y-3375863D01*
X4354322Y-3379673D01*
X4352188Y-3382873D01*
X4349038Y-3385108D01*
X4341469Y-3388512D01*
X4328464Y-3396386D01*
X4316526Y-3405784D01*
X4305757Y-3416503D01*
X4296410Y-3428492D01*
X4288536Y-3441496D01*
X4282287Y-3455365D01*
X4277766Y-3469843D01*
X4275023Y-3484829D01*
X4274108Y-3500018D01*
X4275023Y-3515156D01*
X4277766Y-3530142D01*
X4282287Y-3544620D01*
X4288536Y-3558489D01*
X4296410Y-3571494D01*
X4305757Y-3583482D01*
X4316526Y-3594201D01*
X4328464Y-3603599D01*
X4341469Y-3611473D01*
X4355338Y-3617722D01*
X4369866Y-3622243D01*
X4384802Y-3624986D01*
X4399991Y-3625900D01*
X4415180Y-3624986D01*
X4430115Y-3622243D01*
X4444644Y-3617722D01*
X4458512Y-3611473D01*
X4471517Y-3603599D01*
X4483455Y-3594201D01*
X4494225Y-3583482D01*
X4503572Y-3571494D01*
X4511446Y-3558489D01*
X4517694Y-3544620D01*
X4522216Y-3530142D01*
X4524959Y-3515156D01*
X4525873Y-3500018D01*
X4524959Y-3484829D01*
X4522216Y-3469843D01*
X4517694Y-3455365D01*
X4511446Y-3441496D01*
X4503572Y-3428492D01*
X4494225Y-3416503D01*
X4483455Y-3405784D01*
X4471517Y-3396386D01*
X4458512Y-3388512D01*
X4450943Y-3385108D01*
X4447794Y-3382873D01*
X4445660Y-3379673D01*
X4444949Y-3375863D01*
X4444949Y-3224123D01*
X4445660Y-3220313D01*
X4447794Y-3217113D01*
X4450943Y-3214878D01*
X4458512Y-3211474D01*
X4471517Y-3203600D01*
X4483455Y-3194202D01*
X4494225Y-3183483D01*
X4503572Y-3171494D01*
X4511446Y-3158490D01*
X4517694Y-3144621D01*
X4522216Y-3130143D01*
X4524959Y-3115157D01*
X4525619Y-3104134D01*
X4526584Y-3100374D01*
X4528870Y-3097276D01*
X4532172Y-3095244D01*
X4535982Y-3094583D01*
X4539742Y-3095396D01*
X4542942Y-3097580D01*
X4658410Y-3212998D01*
X4660595Y-3216300D01*
X4661408Y-3220212D01*
X4661408Y-4179773D01*
X4660493Y-4183938D01*
X4657953Y-4187342D01*
X4654296Y-4189476D01*
X4650028Y-4189882D01*
X4646015Y-4188510D01*
X4642916Y-4185615D01*
X4641240Y-4181703D01*
X4639259Y-4171187D01*
X4634738Y-4157319D01*
X4628540Y-4144162D01*
X4620768Y-4131868D01*
X4611471Y-4120642D01*
X4600854Y-4110685D01*
X4589068Y-4102150D01*
X4576318Y-4095140D01*
X4562805Y-4089755D01*
X4548682Y-4086148D01*
X4534255Y-4084320D01*
X4519726Y-4084320D01*
X4505299Y-4086148D01*
X4491177Y-4089755D01*
X4477664Y-4095140D01*
X4464913Y-4102150D01*
X4453128Y-4110685D01*
X4442510Y-4120642D01*
X4433214Y-4131868D01*
X4425442Y-4144162D01*
X4419244Y-4157319D01*
X4414723Y-4171187D01*
X4412030Y-4185462D01*
X4411116Y-4199991D01*
X4412030Y-4214520D01*
X4414723Y-4228795D01*
X4419244Y-4242663D01*
X4425442Y-4255820D01*
X4433214Y-4268114D01*
X4442510Y-4279341D01*
X4453128Y-4289298D01*
X4464913Y-4297832D01*
X4477664Y-4304842D01*
X4491177Y-4310227D01*
X4505299Y-4313834D01*
X4519726Y-4315663D01*
X4534255Y-4315663D01*
X4548682Y-4313834D01*
X4562805Y-4310227D01*
X4576318Y-4304842D01*
X4589068Y-4297832D01*
X4600854Y-4289298D01*
X4611471Y-4279341D01*
X4620768Y-4268114D01*
X4628540Y-4255820D01*
X4634738Y-4242663D01*
X4639259Y-4228795D01*
X4641240Y-4218279D01*
X4642916Y-4214368D01*
X4646015Y-4211472D01*
X4650028Y-4210100D01*
X4654296Y-4210507D01*
X4657953Y-4212640D01*
X4660493Y-4216044D01*
X4661408Y-4220210D01*
X4661408Y-4489856D01*
X4660595Y-4493717D01*
X4658410Y-4497019D01*
X4655108Y-4499203D01*
X4651248Y-4500016D01*
X4601006Y-4500016D01*
X4599990Y-4500981D01*
X4599990Y-4590948D01*
X4599127Y-4595063D01*
X4596688Y-4598466D01*
X4593082Y-4600600D01*
X4588916Y-4601057D01*
X4584954Y-4599838D01*
X4576318Y-4595114D01*
X4562805Y-4589780D01*
X4548682Y-4586173D01*
X4534255Y-4584344D01*
X4519726Y-4584344D01*
X4505299Y-4586173D01*
X4491177Y-4589780D01*
X4477664Y-4595114D01*
X4464913Y-4602124D01*
X4453128Y-4610709D01*
X4442510Y-4620666D01*
X4433214Y-4631893D01*
X4425442Y-4644136D01*
X4419244Y-4657344D01*
X4414723Y-4671161D01*
X4412030Y-4685487D01*
X4411116Y-4700016D01*
X4412030Y-4714494D01*
X4414723Y-4728819D01*
X4419244Y-4742637D01*
X4425442Y-4755845D01*
X4433214Y-4768088D01*
X4442510Y-4779314D01*
X4453128Y-4789271D01*
X4464913Y-4797856D01*
X4477664Y-4804867D01*
X4491177Y-4810201D01*
X4505299Y-4813808D01*
X4508042Y-4814163D01*
X4512259Y-4815687D01*
X4515408Y-4818938D01*
X4516882Y-4823155D01*
X4516323Y-4827625D01*
X4513935Y-4831435D01*
X4248353Y-5097018D01*
X4245051Y-5099202D01*
X4241190Y-5100015D01*
X2379116Y-5100015D01*
X2375204Y-5099202D01*
X2371953Y-5097018D01*
X2369718Y-5093716D01*
X2368956Y-5089855D01*
X2369718Y-5085943D01*
X2371953Y-5082641D01*
X3048609Y-4405884D01*
X3053842Y-4398975D01*
X3057499Y-4391558D01*
X3058414Y-4388408D01*
X3060395Y-4384700D01*
X3063697Y-4382058D01*
X3067710Y-4381042D01*
X3071876Y-4381703D01*
X3075381Y-4383989D01*
X3417570Y-4726127D01*
X3419805Y-4729581D01*
X3420516Y-4733645D01*
X3419246Y-4738319D01*
X3414725Y-4752187D01*
X3412032Y-4766462D01*
X3411118Y-4780991D01*
X3412032Y-4795520D01*
X3414725Y-4809794D01*
X3419246Y-4823663D01*
X3425444Y-4836820D01*
X3433216Y-4849114D01*
X3442512Y-4860340D01*
X3453129Y-4870297D01*
X3464915Y-4878832D01*
X3477666Y-4885842D01*
X3491179Y-4891227D01*
X3505301Y-4894834D01*
X3519728Y-4896662D01*
X3534257Y-4896662D01*
X3548684Y-4894834D01*
X3562807Y-4891227D01*
X3576320Y-4885842D01*
X3589070Y-4878832D01*
X3600856Y-4870297D01*
X3611473Y-4860340D01*
X3620770Y-4849114D01*
X3628542Y-4836820D01*
X3634740Y-4823663D01*
X3639261Y-4809794D01*
X3641953Y-4795520D01*
X3642868Y-4780991D01*
X3641953Y-4766462D01*
X3639261Y-4752187D01*
X3634740Y-4738319D01*
X3628542Y-4725162D01*
X3620770Y-4712868D01*
X3611473Y-4701641D01*
X3600856Y-4691684D01*
X3589070Y-4683150D01*
X3576320Y-4676140D01*
X3562807Y-4670755D01*
X3548684Y-4667148D01*
X3534257Y-4665319D01*
X3519728Y-4665319D01*
X3505301Y-4667148D01*
X3491179Y-4670755D01*
X3483203Y-4673955D01*
X3479342Y-4674666D01*
X3475532Y-4673854D01*
X3472281Y-4671669D01*
X3127654Y-4327042D01*
X3125419Y-4323740D01*
X3124657Y-4319828D01*
X3124657Y-4207814D01*
X3125419Y-4203903D01*
X3127654Y-4200601D01*
X3129229Y-4199026D01*
X3134868Y-4190949D01*
X3139033Y-4182059D01*
X3141573Y-4172559D01*
X3142437Y-4162806D01*
X3141573Y-4153001D01*
X3139033Y-4143501D01*
X3134868Y-4134612D01*
X3129229Y-4126534D01*
X3122269Y-4119626D01*
X3114243Y-4113987D01*
X3109061Y-4111548D01*
X3106013Y-4109415D01*
X3103981Y-4106316D01*
X3103168Y-4102709D01*
X3103727Y-4099102D01*
X3105505Y-4095851D01*
X3112770Y-4087114D01*
X3120542Y-4074820D01*
X3126740Y-4061663D01*
X3131261Y-4047794D01*
X3133953Y-4033520D01*
X3134868Y-4018991D01*
X3133953Y-4004462D01*
X3131261Y-3990187D01*
X3126740Y-3976319D01*
X3120542Y-3963162D01*
X3112770Y-3950868D01*
X3103473Y-3939641D01*
X3092856Y-3929684D01*
X3081070Y-3921150D01*
X3068320Y-3914140D01*
X3054807Y-3908755D01*
X3040684Y-3905148D01*
X3026257Y-3903319D01*
X3011728Y-3903319D01*
X2997301Y-3905148D01*
X2983179Y-3908755D01*
X2969666Y-3914140D01*
X2956915Y-3921150D01*
X2945130Y-3929684D01*
X2934512Y-3939641D01*
X2925216Y-3950868D01*
X2917444Y-3963162D01*
X2911246Y-3976319D01*
X2906725Y-3990187D01*
X2904032Y-4004462D01*
X2903118Y-4018991D01*
X2904032Y-4033520D01*
X2906725Y-4047794D01*
X2911246Y-4061663D01*
X2917444Y-4074820D01*
X2925216Y-4087114D01*
X2934512Y-4098340D01*
X2945130Y-4108297D01*
X2956915Y-4116832D01*
X2965399Y-4121505D01*
X2968193Y-4123791D01*
X2970022Y-4126890D01*
X2970682Y-4130446D01*
X2970682Y-4352544D01*
X2969920Y-4356404D01*
X2967685Y-4359706D01*
X2230424Y-5097018D01*
X2227122Y-5099202D01*
X2223211Y-5100015D01*
X2048764Y-5100015D01*
X2044852Y-5099202D01*
X2041601Y-5097018D01*
X2039366Y-5093716D01*
X2038604Y-5089855D01*
X2038604Y-4998669D01*
X2039569Y-4994351D01*
X2042312Y-4990846D01*
X2046224Y-4988814D01*
X2050643Y-4988712D01*
X2054758Y-4990439D01*
X2064918Y-4997856D01*
X2075637Y-5003749D01*
X2075637Y-4951323D01*
X2048764Y-4951323D01*
X2044852Y-4950561D01*
X2041601Y-4948377D01*
X2039366Y-4945075D01*
X2038604Y-4941163D01*
X2038604Y-4858816D01*
X2039366Y-4854905D01*
X2041601Y-4851603D01*
X2044852Y-4849418D01*
X2048764Y-4848656D01*
X2075637Y-4848656D01*
X2075637Y-4796231D01*
X2064918Y-4802124D01*
X2054758Y-4809540D01*
X2050643Y-4811268D01*
X2046224Y-4811166D01*
X2042312Y-4809134D01*
X2039569Y-4805629D01*
X2038604Y-4801311D01*
X2038604Y-3600450D01*
X2037791Y-3592423D01*
X2035606Y-3585210D01*
X2032050Y-3578504D01*
X2026920Y-3572306D01*
X1927555Y-3472942D01*
X1921357Y-3467811D01*
X1914652Y-3464255D01*
X1907438Y-3462070D01*
X1899412Y-3461258D01*
X1645716Y-3461258D01*
X1641703Y-3460445D01*
X1629816Y-3451555D01*
X1621180Y-3447237D01*
X1611985Y-3444392D01*
X1602435Y-3443173D01*
X1592783Y-3443579D01*
X1583334Y-3445611D01*
X1574393Y-3449218D01*
X1566164Y-3454247D01*
X1558950Y-3460648D01*
X1552854Y-3468166D01*
X1548180Y-3476548D01*
X1544980Y-3485642D01*
X1543354Y-3495192D01*
X1543354Y-3504793D01*
X1544980Y-3514344D01*
X1548180Y-3523437D01*
X1552854Y-3531819D01*
X1558950Y-3539337D01*
X1566164Y-3545738D01*
X1574393Y-3550767D01*
X1583334Y-3554374D01*
X1592783Y-3556406D01*
X1602435Y-3556812D01*
X1611985Y-3555593D01*
X1621180Y-3552748D01*
X1629816Y-3548430D01*
X1641957Y-3539286D01*
X1645920Y-3538474D01*
X1879701Y-3538474D01*
X1883613Y-3539236D01*
X1886915Y-3541471D01*
X1958390Y-3612946D01*
X1960625Y-3616248D01*
X1961388Y-3620160D01*
X1961388Y-4801311D01*
X1960422Y-4805629D01*
X1957679Y-4809134D01*
X1953768Y-4811166D01*
X1949348Y-4811268D01*
X1945233Y-4809540D01*
X1935073Y-4802124D01*
X1922322Y-4795113D01*
X1908810Y-4789779D01*
X1894687Y-4786172D01*
X1880260Y-4784344D01*
X1865731Y-4784344D01*
X1851304Y-4786172D01*
X1837182Y-4789779D01*
X1823669Y-4795113D01*
X1810918Y-4802124D01*
X1799132Y-4810709D01*
X1788515Y-4820666D01*
X1779219Y-4831892D01*
X1771446Y-4844135D01*
X1765249Y-4857343D01*
X1760728Y-4871161D01*
X1758035Y-4885486D01*
X1757121Y-4900015D01*
X1758035Y-4914493D01*
X1760728Y-4928819D01*
X1765249Y-4942636D01*
X1771446Y-4955844D01*
X1779219Y-4968087D01*
X1788515Y-4979314D01*
X1799132Y-4989271D01*
X1810918Y-4997856D01*
X1823669Y-5004866D01*
X1837182Y-5010200D01*
X1851304Y-5013807D01*
X1865731Y-5015636D01*
X1880260Y-5015636D01*
X1894687Y-5013807D01*
X1908810Y-5010200D01*
X1922322Y-5004866D01*
X1935073Y-4997856D01*
X1945233Y-4990439D01*
X1949348Y-4988712D01*
X1953768Y-4988814D01*
X1957679Y-4990846D01*
X1960422Y-4994351D01*
X1961388Y-4998669D01*
X1961388Y-5089855D01*
X1960625Y-5093716D01*
X1958390Y-5097018D01*
X1955139Y-5099202D01*
X1951228Y-5100015D01*
G37*

%LPC*%
G36*
X2178354Y-5003749D02*
G01*
X2189073Y-4997856D01*
X2200859Y-4989271D01*
X2211476Y-4979314D01*
X2220772Y-4968087D01*
X2228545Y-4955844D01*
X2230678Y-4951323D01*
X2178354Y-4951323D01*
G37*
G36*
X3070352Y-4896916D02*
G01*
X3108401Y-4896916D01*
X3114751Y-4896205D01*
X3120186Y-4894275D01*
X3125114Y-4891176D01*
X3129178Y-4887112D01*
X3132277Y-4882184D01*
X3134207Y-4876749D01*
X3134918Y-4870399D01*
X3134918Y-4832350D01*
X3070352Y-4832350D01*
G37*
G36*
X2929585Y-4896916D02*
G01*
X2967634Y-4896916D01*
X2967634Y-4832350D01*
X2903067Y-4832350D01*
X2903067Y-4870399D01*
X2903778Y-4876749D01*
X2905709Y-4882184D01*
X2908808Y-4887112D01*
X2912872Y-4891176D01*
X2917799Y-4894275D01*
X2923235Y-4896205D01*
G37*
G36*
X3265728Y-4896662D02*
G01*
X3280257Y-4896662D01*
X3294684Y-4894834D01*
X3308807Y-4891227D01*
X3322320Y-4885842D01*
X3335070Y-4878832D01*
X3346856Y-4870297D01*
X3357473Y-4860340D01*
X3366770Y-4849114D01*
X3374542Y-4836820D01*
X3380740Y-4823663D01*
X3385261Y-4809794D01*
X3387953Y-4795520D01*
X3388868Y-4780991D01*
X3387953Y-4766462D01*
X3385261Y-4752187D01*
X3380740Y-4738319D01*
X3374542Y-4725162D01*
X3366770Y-4712868D01*
X3357473Y-4701641D01*
X3346856Y-4691684D01*
X3335070Y-4683150D01*
X3322320Y-4676140D01*
X3308807Y-4670755D01*
X3294684Y-4667148D01*
X3280257Y-4665319D01*
X3265728Y-4665319D01*
X3251301Y-4667148D01*
X3237179Y-4670755D01*
X3223666Y-4676140D01*
X3210915Y-4683150D01*
X3199130Y-4691684D01*
X3188512Y-4701641D01*
X3179216Y-4712868D01*
X3171444Y-4725162D01*
X3165246Y-4738319D01*
X3160725Y-4752187D01*
X3158032Y-4766462D01*
X3157118Y-4780991D01*
X3158032Y-4795520D01*
X3160725Y-4809794D01*
X3165246Y-4823663D01*
X3171444Y-4836820D01*
X3179216Y-4849114D01*
X3188512Y-4860340D01*
X3199130Y-4870297D01*
X3210915Y-4878832D01*
X3223666Y-4885842D01*
X3237179Y-4891227D01*
X3251301Y-4894834D01*
G37*
G36*
X2178354Y-4848656D02*
G01*
X2230678Y-4848656D01*
X2228545Y-4844135D01*
X2220772Y-4831892D01*
X2211476Y-4820666D01*
X2200859Y-4810709D01*
X2189073Y-4802124D01*
X2178354Y-4796231D01*
G37*
G36*
X4324350Y-4803749D02*
G01*
X4335068Y-4797856D01*
X4346854Y-4789271D01*
X4357471Y-4779314D01*
X4366768Y-4768088D01*
X4374540Y-4755845D01*
X4376674Y-4751324D01*
X4324350Y-4751324D01*
G37*
G36*
X4221632Y-4803749D02*
G01*
X4221632Y-4751324D01*
X4169308Y-4751324D01*
X4171442Y-4755845D01*
X4179214Y-4768088D01*
X4188510Y-4779314D01*
X4199128Y-4789271D01*
X4210913Y-4797856D01*
G37*
G36*
X2903067Y-4729632D02*
G01*
X2967634Y-4729632D01*
X2967634Y-4665065D01*
X2929585Y-4665065D01*
X2923235Y-4665776D01*
X2917799Y-4667707D01*
X2912872Y-4670806D01*
X2908808Y-4674870D01*
X2905709Y-4679797D01*
X2903778Y-4685233D01*
X2903067Y-4691583D01*
G37*
G36*
X3070352Y-4729632D02*
G01*
X3134918Y-4729632D01*
X3134918Y-4691583D01*
X3134207Y-4685233D01*
X3132277Y-4679797D01*
X3129178Y-4674870D01*
X3125114Y-4670806D01*
X3120186Y-4667707D01*
X3114751Y-4665776D01*
X3108401Y-4665065D01*
X3070352Y-4665065D01*
G37*
G36*
X4169308Y-4648657D02*
G01*
X4221632Y-4648657D01*
X4221632Y-4596231D01*
X4210913Y-4602124D01*
X4199128Y-4610709D01*
X4188510Y-4620666D01*
X4179214Y-4631893D01*
X4171442Y-4644136D01*
G37*
G36*
X4324350Y-4648657D02*
G01*
X4376674Y-4648657D01*
X4374540Y-4644136D01*
X4366768Y-4631893D01*
X4357471Y-4620666D01*
X4346854Y-4610709D01*
X4335068Y-4602124D01*
X4324350Y-4596231D01*
G37*
G36*
X2599994Y-4525873D02*
G01*
X2615184Y-4524959D01*
X2630119Y-4522216D01*
X2644648Y-4517694D01*
X2658516Y-4511446D01*
X2671521Y-4503572D01*
X2683459Y-4494225D01*
X2694228Y-4483455D01*
X2703576Y-4471517D01*
X2711450Y-4458512D01*
X2717698Y-4444644D01*
X2722219Y-4430115D01*
X2724962Y-4415180D01*
X2725877Y-4399991D01*
X2724962Y-4384802D01*
X2722219Y-4369866D01*
X2717698Y-4355338D01*
X2711450Y-4341469D01*
X2703576Y-4328464D01*
X2694228Y-4316526D01*
X2683459Y-4305757D01*
X2671521Y-4296410D01*
X2658516Y-4288536D01*
X2644648Y-4282287D01*
X2630119Y-4277766D01*
X2615184Y-4275023D01*
X2599994Y-4274108D01*
X2584805Y-4275023D01*
X2569870Y-4277766D01*
X2555341Y-4282287D01*
X2541473Y-4288536D01*
X2528468Y-4296410D01*
X2516530Y-4305757D01*
X2505760Y-4316526D01*
X2496413Y-4328464D01*
X2488539Y-4341469D01*
X2482291Y-4355338D01*
X2477770Y-4369866D01*
X2475026Y-4384802D01*
X2474112Y-4399991D01*
X2475026Y-4415180D01*
X2477770Y-4430115D01*
X2482291Y-4444644D01*
X2488539Y-4458512D01*
X2496413Y-4471517D01*
X2505760Y-4483455D01*
X2516530Y-4494225D01*
X2528468Y-4503572D01*
X2541473Y-4511446D01*
X2555341Y-4517694D01*
X2569870Y-4522216D01*
X2584805Y-4524959D01*
G37*
G36*
X1799996Y-4525873D02*
G01*
X1815185Y-4524959D01*
X1830120Y-4522216D01*
X1844649Y-4517694D01*
X1858518Y-4511446D01*
X1871522Y-4503572D01*
X1883460Y-4494225D01*
X1894230Y-4483455D01*
X1903577Y-4471517D01*
X1911451Y-4458512D01*
X1917700Y-4444644D01*
X1922221Y-4430115D01*
X1924964Y-4415180D01*
X1925878Y-4399991D01*
X1924964Y-4384802D01*
X1922221Y-4369866D01*
X1917700Y-4355338D01*
X1911451Y-4341469D01*
X1903577Y-4328464D01*
X1894230Y-4316526D01*
X1883460Y-4305757D01*
X1871522Y-4296410D01*
X1858518Y-4288536D01*
X1844649Y-4282287D01*
X1830120Y-4277766D01*
X1815185Y-4275023D01*
X1799996Y-4274108D01*
X1784807Y-4275023D01*
X1769872Y-4277766D01*
X1755343Y-4282287D01*
X1741474Y-4288536D01*
X1728470Y-4296410D01*
X1716532Y-4305757D01*
X1705762Y-4316526D01*
X1696415Y-4328464D01*
X1688541Y-4341469D01*
X1682292Y-4355338D01*
X1677771Y-4369866D01*
X1675028Y-4384802D01*
X1674114Y-4399991D01*
X1675028Y-4415180D01*
X1677771Y-4430115D01*
X1682292Y-4444644D01*
X1688541Y-4458512D01*
X1696415Y-4471517D01*
X1705762Y-4483455D01*
X1716532Y-4494225D01*
X1728470Y-4503572D01*
X1741474Y-4511446D01*
X1755343Y-4517694D01*
X1769872Y-4522216D01*
X1784807Y-4524959D01*
G37*
G36*
X2256332Y-4512411D02*
G01*
X2258517Y-4511446D01*
X2271522Y-4503572D01*
X2283460Y-4494225D01*
X2294229Y-4483455D01*
X2303576Y-4471517D01*
X2311450Y-4458512D01*
X2312416Y-4456328D01*
X2256332Y-4456328D01*
G37*
G36*
X2143658Y-4512411D02*
G01*
X2143658Y-4456328D01*
X2087575Y-4456328D01*
X2088540Y-4458512D01*
X2096414Y-4471517D01*
X2105761Y-4483455D01*
X2116531Y-4494225D01*
X2128469Y-4503572D01*
X2141474Y-4511446D01*
G37*
G36*
X2087575Y-4343654D02*
G01*
X2143658Y-4343654D01*
X2143658Y-4287570D01*
X2141474Y-4288536D01*
X2128469Y-4296410D01*
X2116531Y-4305757D01*
X2105761Y-4316526D01*
X2096414Y-4328464D01*
X2088540Y-4341469D01*
G37*
G36*
X2256332Y-4343654D02*
G01*
X2312416Y-4343654D01*
X2311450Y-4341469D01*
X2303576Y-4328464D01*
X2294229Y-4316526D01*
X2283460Y-4305757D01*
X2271522Y-4296410D01*
X2258517Y-4288536D01*
X2256332Y-4287570D01*
G37*
G36*
X4324350Y-4303725D02*
G01*
X4335068Y-4297832D01*
X4346854Y-4289298D01*
X4357471Y-4279341D01*
X4366768Y-4268114D01*
X4374540Y-4255820D01*
X4376674Y-4251350D01*
X4324350Y-4251350D01*
G37*
G36*
X4221632Y-4303725D02*
G01*
X4221632Y-4251350D01*
X4169308Y-4251350D01*
X4171442Y-4255820D01*
X4179214Y-4268114D01*
X4188510Y-4279341D01*
X4199128Y-4289298D01*
X4210913Y-4297832D01*
G37*
G36*
X4169308Y-4148632D02*
G01*
X4221632Y-4148632D01*
X4221632Y-4096258D01*
X4210913Y-4102150D01*
X4199128Y-4110685D01*
X4188510Y-4120642D01*
X4179214Y-4131868D01*
X4171442Y-4144162D01*
G37*
G36*
X4324350Y-4148632D02*
G01*
X4376674Y-4148632D01*
X4374540Y-4144162D01*
X4366768Y-4131868D01*
X4357471Y-4120642D01*
X4346854Y-4110685D01*
X4335068Y-4102150D01*
X4324350Y-4096258D01*
G37*
G36*
X3265728Y-4134662D02*
G01*
X3280257Y-4134662D01*
X3294684Y-4132834D01*
X3308807Y-4129227D01*
X3322320Y-4123842D01*
X3335070Y-4116832D01*
X3346856Y-4108297D01*
X3357473Y-4098340D01*
X3366770Y-4087114D01*
X3374542Y-4074820D01*
X3380740Y-4061663D01*
X3385261Y-4047794D01*
X3387953Y-4033520D01*
X3388868Y-4018991D01*
X3387953Y-4004462D01*
X3385261Y-3990187D01*
X3380740Y-3976319D01*
X3374542Y-3963162D01*
X3366770Y-3950868D01*
X3357473Y-3939641D01*
X3346856Y-3929684D01*
X3335070Y-3921150D01*
X3322320Y-3914140D01*
X3308807Y-3908755D01*
X3294684Y-3905148D01*
X3280257Y-3903319D01*
X3265728Y-3903319D01*
X3251301Y-3905148D01*
X3237179Y-3908755D01*
X3223666Y-3914140D01*
X3210915Y-3921150D01*
X3199130Y-3929684D01*
X3188512Y-3939641D01*
X3179216Y-3950868D01*
X3171444Y-3963162D01*
X3165246Y-3976319D01*
X3160725Y-3990187D01*
X3158032Y-4004462D01*
X3157118Y-4018991D01*
X3158032Y-4033520D01*
X3160725Y-4047794D01*
X3165246Y-4061663D01*
X3171444Y-4074820D01*
X3179216Y-4087114D01*
X3188512Y-4098340D01*
X3199130Y-4108297D01*
X3210915Y-4116832D01*
X3223666Y-4123842D01*
X3237179Y-4129227D01*
X3251301Y-4132834D01*
G37*
G36*
X2199995Y-3925874D02*
G01*
X2215184Y-3924960D01*
X2230120Y-3922217D01*
X2244648Y-3917696D01*
X2258517Y-3911447D01*
X2271522Y-3903573D01*
X2283460Y-3894226D01*
X2294229Y-3883456D01*
X2303576Y-3871518D01*
X2311450Y-3858514D01*
X2317699Y-3844645D01*
X2322220Y-3830116D01*
X2324963Y-3815181D01*
X2325878Y-3799992D01*
X2324963Y-3784803D01*
X2322220Y-3769868D01*
X2317699Y-3755339D01*
X2311450Y-3741470D01*
X2303576Y-3728465D01*
X2294229Y-3716528D01*
X2283460Y-3705758D01*
X2271522Y-3696411D01*
X2258517Y-3688537D01*
X2244648Y-3682288D01*
X2230120Y-3677767D01*
X2215184Y-3675024D01*
X2199995Y-3674110D01*
X2184806Y-3675024D01*
X2169871Y-3677767D01*
X2155342Y-3682288D01*
X2141474Y-3688537D01*
X2128469Y-3696411D01*
X2116531Y-3705758D01*
X2105761Y-3716528D01*
X2096414Y-3728465D01*
X2088540Y-3741470D01*
X2082292Y-3755339D01*
X2077770Y-3769868D01*
X2075027Y-3784803D01*
X2074113Y-3799992D01*
X2075027Y-3815181D01*
X2077770Y-3830116D01*
X2082292Y-3844645D01*
X2088540Y-3858514D01*
X2096414Y-3871518D01*
X2105761Y-3883456D01*
X2116531Y-3894226D01*
X2128469Y-3903573D01*
X2141474Y-3911447D01*
X2155342Y-3917696D01*
X2169871Y-3922217D01*
X2184806Y-3924960D01*
G37*
G36*
X1799996Y-3925874D02*
G01*
X1815185Y-3924960D01*
X1830120Y-3922217D01*
X1844649Y-3917696D01*
X1858518Y-3911447D01*
X1871522Y-3903573D01*
X1883460Y-3894226D01*
X1894230Y-3883456D01*
X1903577Y-3871518D01*
X1911451Y-3858514D01*
X1917700Y-3844645D01*
X1922221Y-3830116D01*
X1924964Y-3815181D01*
X1925878Y-3799992D01*
X1924964Y-3784803D01*
X1922221Y-3769868D01*
X1917700Y-3755339D01*
X1911451Y-3741470D01*
X1903577Y-3728465D01*
X1894230Y-3716528D01*
X1883460Y-3705758D01*
X1871522Y-3696411D01*
X1858518Y-3688537D01*
X1844649Y-3682288D01*
X1830120Y-3677767D01*
X1815185Y-3675024D01*
X1799996Y-3674110D01*
X1784807Y-3675024D01*
X1769872Y-3677767D01*
X1755343Y-3682288D01*
X1741474Y-3688537D01*
X1728470Y-3696411D01*
X1716532Y-3705758D01*
X1705762Y-3716528D01*
X1696415Y-3728465D01*
X1688541Y-3741470D01*
X1682292Y-3755339D01*
X1677771Y-3769868D01*
X1675028Y-3784803D01*
X1674114Y-3799992D01*
X1675028Y-3815181D01*
X1677771Y-3830116D01*
X1682292Y-3844645D01*
X1688541Y-3858514D01*
X1696415Y-3871518D01*
X1705762Y-3883456D01*
X1716532Y-3894226D01*
X1728470Y-3903573D01*
X1741474Y-3911447D01*
X1755343Y-3917696D01*
X1769872Y-3922217D01*
X1784807Y-3924960D01*
G37*
G36*
X2656332Y-3912412D02*
G01*
X2658516Y-3911447D01*
X2671521Y-3903573D01*
X2683459Y-3894226D01*
X2694228Y-3883456D01*
X2703576Y-3871518D01*
X2711450Y-3858514D01*
X2712415Y-3856329D01*
X2656332Y-3856329D01*
G37*
G36*
X2543657Y-3912412D02*
G01*
X2543657Y-3856329D01*
X2487574Y-3856329D01*
X2488539Y-3858514D01*
X2496413Y-3871518D01*
X2505760Y-3883456D01*
X2516530Y-3894226D01*
X2528468Y-3903573D01*
X2541473Y-3911447D01*
G37*
G36*
X2656332Y-3743655D02*
G01*
X2712415Y-3743655D01*
X2711450Y-3741470D01*
X2703576Y-3728465D01*
X2694228Y-3716528D01*
X2683459Y-3705758D01*
X2671521Y-3696411D01*
X2658516Y-3688537D01*
X2656332Y-3687572D01*
G37*
G36*
X2487574Y-3743655D02*
G01*
X2543657Y-3743655D01*
X2543657Y-3687572D01*
X2541473Y-3688537D01*
X2528468Y-3696411D01*
X2516530Y-3705758D01*
X2505760Y-3716528D01*
X2496413Y-3728465D01*
X2488539Y-3741470D01*
G37*
G36*
X5143652Y-3712413D02*
G01*
X5143652Y-3656329D01*
X5087569Y-3656329D01*
X5088534Y-3658514D01*
X5096408Y-3671519D01*
X5105755Y-3683457D01*
X5116525Y-3694226D01*
X5128463Y-3703574D01*
X5141468Y-3711448D01*
G37*
G36*
X5087569Y-3543655D02*
G01*
X5143652Y-3543655D01*
X5143652Y-3487572D01*
X5141468Y-3488537D01*
X5128463Y-3496411D01*
X5116525Y-3505758D01*
X5105755Y-3516528D01*
X5096408Y-3528466D01*
X5088534Y-3541471D01*
G37*
G36*
X4221632Y-2803753D02*
G01*
X4221632Y-2751328D01*
X4169308Y-2751328D01*
X4171442Y-2755849D01*
X4179214Y-2768092D01*
X4188510Y-2779318D01*
X4199128Y-2789275D01*
X4210913Y-2797860D01*
G37*
G36*
X4324350Y-2803753D02*
G01*
X4335068Y-2797860D01*
X4346854Y-2789275D01*
X4357471Y-2779318D01*
X4366768Y-2768092D01*
X4374540Y-2755849D01*
X4376674Y-2751328D01*
X4324350Y-2751328D01*
G37*
G36*
X4324350Y-2648661D02*
G01*
X4376674Y-2648661D01*
X4374540Y-2644140D01*
X4366768Y-2631897D01*
X4357471Y-2620670D01*
X4346854Y-2610713D01*
X4335068Y-2602128D01*
X4324350Y-2596235D01*
G37*
G36*
X4169308Y-2648661D02*
G01*
X4221632Y-2648661D01*
X4221632Y-2596235D01*
X4210913Y-2602128D01*
X4199128Y-2610713D01*
X4188510Y-2620670D01*
X4179214Y-2631897D01*
X4171442Y-2644140D01*
G37*

%LPD*%
D10*
X1999995Y-5400039D02*
G01*
X1999995Y-3599942D01*
X1899920Y-3499865D01*
X1599945Y-3499865D01*
X2034997Y-3149983D02*
G01*
X1942084Y-3149983D01*
X1865350Y1050008D02*
G01*
X1941906Y973452D01*
X1941906Y-3149805D01*
X1942084Y-3149983D01*
X1877034Y-2350797D02*
G01*
X1877034Y-3170836D01*
X1797888Y-3249983D01*
D11*
X3049993Y-2500007D02*
G01*
X2349995Y-3200006D01*
X2034997Y-3200006D01*
D10*
X2034997Y-3249993D02*
G01*
X2199995Y-3249993D01*
X2499868Y-3599942D01*
X2700020Y-3599942D01*
X2800095Y-3700018D01*
X2899918Y-3700018D01*
X3299968Y-3299968D01*
X3299968Y-1999995D01*
X3750056Y-1549907D01*
X4050029Y-1549907D01*
X4100068Y-1599945D01*
D11*
X2999993Y-2799994D02*
G01*
X2999993Y-2799999D01*
X3199993Y-2999994D01*
X3199991Y-3199991D01*
X3099991Y-3299990D01*
X2449984Y-3299990D01*
X2349995Y-3200400D01*
X772998Y-3299993D02*
G01*
X1172997Y-2899994D01*
X1699996Y-2899994D01*
D12*
X2373337Y1049997D02*
G01*
X2373337Y99999D01*
X1099997Y-5599988D02*
G01*
X1099997Y-4999989D01*
X1099997Y-5599988D02*
G01*
X1199997Y-5599988D01*
X1399997Y-5799988D01*
X1399997Y-12599974D01*
D10*
X399999Y-5599988D02*
G01*
X699998Y-5599988D01*
X799998Y-5499988D01*
X799998Y-4900002D01*
X4499990Y-2899994D02*
G01*
X4499990Y-2999994D01*
X4699990Y-3199993D01*
X4699990Y-4699990D01*
X3799992Y-5599988D01*
X3399993Y-5599988D01*
X4799990Y-2199995D02*
G01*
X4799990Y-2599994D01*
X4699990Y-2699994D01*
X5199989Y-4499990D02*
G01*
X5199989Y-5399989D01*
X4999990Y-5599988D01*
X4100068Y-1599945D02*
G01*
X4100068Y-2273071D01*
X4526991Y-2699994D01*
X1199997Y-3399993D02*
G01*
X1199997Y-3299993D01*
X1249997Y-3249993D01*
X1564995Y-3249993D01*
X1564995Y-3249993D02*
G01*
X1797888Y-3249983D01*
X4526991Y-2699994D02*
G01*
X4549990Y-2699994D01*
X5349989Y-3499993D01*
X5349989Y-4349991D01*
X5199989Y-4499990D01*
D11*
X2627350Y1049020D02*
G01*
X3049993Y499998D01*
X3049993Y-2500007D01*
D10*
X799985Y-4899990D02*
G01*
X799985Y-4800003D01*
X899998Y-4699990D01*
X1499996Y-4699990D01*
X1599996Y-4899660D02*
G01*
X1599996Y-3699992D01*
X1399997Y-3499993D01*
X1399997Y-3399993D01*
X1499984Y-3300006D01*
X1564995Y-3300006D01*
X1942084Y-3299973D02*
G01*
X1942061Y-3299993D01*
X1899996Y-3299993D01*
X2035002Y-3299973D02*
G01*
X2034979Y-3299993D01*
X1899996Y-3299993D01*
X1657908Y-3149983D02*
G01*
X1706956Y-3100936D01*
X1706956Y-3057705D01*
X1564995Y-3149983D02*
G01*
X1657908Y-3149983D01*
X1564995Y-3099996D02*
G01*
X1665884Y-2999107D01*
X1759635Y-2999107D01*
X3526993Y-4780993D02*
G01*
X3086049Y-4340049D01*
X3086049Y-4162783D01*
X1564995Y-3249983D02*
G01*
X1657908Y-3249983D01*
X1564995Y-3299995D02*
G01*
X1657908Y-3299995D01*
X899998Y-3799994D02*
G01*
X1026998Y-3672994D01*
X1026998Y-3299995D01*
X3780993Y-4780993D02*
G01*
X3650005Y-4650005D01*
X3650005Y-3672385D01*
X3650005Y-3672385D02*
G01*
X3650005Y-1888975D01*
X3842994Y-1695985D01*
X4555083Y-600001D02*
G01*
X4361510Y-793574D01*
X3783584Y-793574D01*
X3709314Y-719305D01*
X4672990Y-600001D02*
G01*
X4555083Y-600001D01*
D11*
X850011Y899995D02*
G01*
X1099820Y650186D01*
X1099820Y-694946D01*
X1019911Y-694946D02*
G01*
X1099820Y-694946D01*
D10*
X1019911Y-504954D02*
G01*
X952017Y-504954D01*
X399999Y-1499999D02*
G01*
X399999Y-1425399D01*
X889812Y-935586D01*
X889812Y-567159D01*
X952017Y-504954D01*
X3799992Y-3499995D02*
G01*
X3952417Y-3347570D01*
X3952417Y-2059409D01*
X3842994Y-1949985D01*
X2796006Y-2499997D02*
G01*
X2146020Y-3149983D01*
X2034997Y-3149983D01*
X2034997Y-3099970D02*
G01*
X2127910Y-3099970D01*
X3799992Y-3099996D02*
G01*
X3723843Y-3023847D01*
X3723843Y-2323137D01*
X3842994Y-2203985D01*
X2127910Y-3099970D02*
G01*
X2127910Y-2660093D01*
X2288006Y-2499997D01*
X2288006Y-2499997D02*
G01*
X2119350Y-2331341D01*
X2119350Y1050008D01*
D11*
X4399991Y-3499995D02*
G01*
X4399991Y-3099996D01*
X4972989Y-2699997D02*
G01*
X4972989Y-2145997D01*
X4526991Y-1699999D01*
X772998Y-2799996D02*
G01*
X772998Y-2299997D01*
X816254Y-905106D02*
G01*
X779932Y-868784D01*
X779932Y-694946D01*
X3018993Y-4018993D02*
G01*
X3015640Y-4022346D01*
X3015640Y-4375355D01*
X2124252Y-5266743D01*
X2124252Y-11674223D01*
X2250008Y-11799978D01*
X772998Y-2799996D02*
G01*
X772998Y-3299995D01*
X772998Y-3299995D02*
G01*
X772998Y-3426995D01*
X399999Y-3799994D01*
D13*
X4999990Y-12299975D02*
G01*
X4999990Y-5599988D01*
X3399993Y-12299975D02*
G01*
X3399993Y-5599988D01*
D12*
X1399997Y-12404455D02*
G01*
X299999Y-12404455D01*
X99999Y-12203795D02*
G01*
X1199997Y-12203795D01*
X1399997Y-12005675D02*
G01*
X299999Y-12005675D01*
X99999Y-11803562D02*
G01*
X1199997Y-11803562D01*
X1400047Y-11602212D02*
G01*
X299973Y-11599926D01*
X99999Y-11402606D02*
G01*
X1199997Y-11402606D01*
X1399997Y-11201222D02*
G01*
X299999Y-11201222D01*
X99999Y-11003462D02*
G01*
X1199997Y-11003462D01*
X1399997Y-10802078D02*
G01*
X299999Y-10802078D01*
X99999Y-10604322D02*
G01*
X1199997Y-10604322D01*
X1399997Y-10402935D02*
G01*
X299999Y-10402935D01*
X99999Y-10200987D02*
G01*
X1199997Y-10200987D01*
X1400047Y-10001250D02*
G01*
X299973Y-9999979D01*
X99999Y-9801362D02*
G01*
X1199997Y-9801362D01*
X1399997Y-9601547D02*
G01*
X299999Y-9601547D01*
X99999Y-9400887D02*
G01*
X1199997Y-9400887D01*
X1399997Y-9197687D02*
G01*
X299999Y-9197687D01*
X99999Y-8999567D02*
G01*
X1199997Y-8999567D01*
X1399997Y-8801447D02*
G01*
X299999Y-8801447D01*
X99999Y-8600787D02*
G01*
X1199997Y-8600787D01*
X1399997Y-8402667D02*
G01*
X299999Y-8402667D01*
X99999Y-8199467D02*
G01*
X1199997Y-8199467D01*
X1400047Y-8001254D02*
G01*
X299973Y-7999984D01*
X99999Y-7802478D02*
G01*
X1199997Y-7802478D01*
X1400047Y-7599171D02*
G01*
X299973Y-7599934D01*
X99999Y-7401519D02*
G01*
X1199997Y-7401519D01*
X1400047Y-7201915D02*
G01*
X299973Y-7199884D01*
X99999Y-6998749D02*
G01*
X1199997Y-6998749D01*
X1399997Y-6803169D02*
G01*
X299999Y-6803169D01*
X99999Y-6602509D02*
G01*
X1199997Y-6602509D01*
X1400047Y-6399276D02*
G01*
X1010920Y-6399276D01*
X299973Y-6399276D01*
X400050Y-5599937D02*
G01*
X299973Y-5599937D01*
X100076Y-5800089D01*
X100076Y-6450584D01*
X100076Y-12599924D01*
X1199895Y-12599924D01*
D14*
G01*
X1019911Y-504952D03*
G01*
X1019911Y-599947D03*
G01*
X1019911Y-694944D03*
G01*
X779932Y-694944D03*
G01*
X779932Y-504952D03*
D15*
G01*
X1564995Y-3100006D03*
G01*
X1564995Y-3149993D03*
G01*
X1564995Y-3199980D03*
G01*
X1564995Y-3249993D03*
G01*
X1564995Y-3300006D03*
G01*
X2034997Y-3299980D03*
G01*
X2034997Y-3249993D03*
G01*
X2034997Y-3200006D03*
G01*
X2034997Y-3149993D03*
G01*
X2034997Y-3099981D03*
D16*
G01*
X3049993Y-2499995D03*
D17*
G01*
X2795993Y-2500007D03*
G01*
X2541993Y-2500007D03*
G01*
X2287993Y-2500007D03*
D18*
G01*
X849998Y899998D03*
G01*
X849998Y499998D03*
G01*
X849998Y99999D03*
D17*
G01*
X2627337Y1049997D03*
G01*
X2373337Y1049997D03*
G01*
X2119337Y1049997D03*
G01*
X1865337Y1049997D03*
G01*
X1618195Y1049997D03*
D19*
G01*
X1556994Y-2457996D03*
G01*
X1556994Y-2203996D03*
G01*
X1556994Y-1949996D03*
G01*
X1556994Y-1695996D03*
G01*
X1556994Y-1441996D03*
G01*
X1556994Y-1187996D03*
G01*
X1556994Y-933996D03*
G01*
X1556994Y-679996D03*
G01*
X3842994Y-679996D03*
G01*
X3842994Y-933996D03*
G01*
X3842994Y-1187996D03*
G01*
X3842994Y-1441996D03*
G01*
X3842994Y-1695996D03*
G01*
X3842994Y-1949996D03*
G01*
X3842994Y-2203996D03*
G01*
X3842994Y-2457996D03*
D20*
G01*
X1026998Y-1299997D03*
G01*
X772998Y-1299997D03*
G01*
X1026998Y-1799996D03*
G01*
X772998Y-1799996D03*
G01*
X772998Y-2299995D03*
G01*
X1026998Y-2299995D03*
G01*
X1026998Y-2799994D03*
G01*
X772998Y-2799994D03*
G01*
X4272991Y-2699994D03*
G01*
X4526991Y-2699994D03*
G01*
X772998Y-3299993D03*
G01*
X1026998Y-3299993D03*
G01*
X1872995Y-4899990D03*
G01*
X2126995Y-4899990D03*
G01*
X4272991Y-4699990D03*
G01*
X4526991Y-4699990D03*
G01*
X4272991Y-4199991D03*
G01*
X4526991Y-4199991D03*
G01*
X4272991Y-2199995D03*
G01*
X4526991Y-2199995D03*
G01*
X4272991Y-1699996D03*
G01*
X4526991Y-1699996D03*
G01*
X4972989Y-2699994D03*
G01*
X5226989Y-2699994D03*
D18*
G01*
X399999Y-1499996D03*
G01*
X399999Y-899998D03*
G01*
X5199989Y-4499990D03*
G01*
X5199989Y-3899992D03*
G01*
X399999Y-4399991D03*
G01*
X399999Y-3799992D03*
G01*
X899998Y-4399991D03*
G01*
X899998Y-3799992D03*
G01*
X1299997Y-4399991D03*
G01*
X1299997Y-3799992D03*
G01*
X1799996Y-4399991D03*
G01*
X1799996Y-3799992D03*
G01*
X2199995Y-4399991D03*
G01*
X2199995Y-3799992D03*
G01*
X2599994Y-4399991D03*
G01*
X2599994Y-3799992D03*
G01*
X5199989Y-2999994D03*
G01*
X5199989Y-3599992D03*
G01*
X2899994Y-3099993D03*
G01*
X3499993Y-3099993D03*
G01*
X2899994Y-3499993D03*
G01*
X3499993Y-3499993D03*
G01*
X3799992Y-3099993D03*
G01*
X4399991Y-3099993D03*
G01*
X3799992Y-3499993D03*
G01*
X4399991Y-3499993D03*
G01*
X399897Y-2400106D03*
G01*
X399897Y-1800108D03*
G01*
X399999Y-3299993D03*
G01*
X399999Y-2699994D03*
D20*
G01*
X4926990Y-599998D03*
D21*
G01*
X4672990Y-599998D03*
D22*
G01*
X4545990Y299999D03*
D23*
G01*
X4799990Y299999D03*
G01*
X5053990Y299999D03*
D17*
G01*
X2250008Y-11799989D03*
G01*
X2250008Y-10999990D03*
D24*
G01*
X1599984Y-4899990D03*
G01*
X799985Y-4899990D03*
D25*
G01*
X3399993Y-5599988D03*
G01*
X4999990Y-5599988D03*
G01*
X399999Y-5599988D03*
G01*
X1099997Y-5599988D03*
D21*
G01*
X3018993Y-4780991D03*
D20*
G01*
X3272993Y-4780991D03*
G01*
X3526993Y-4780991D03*
G01*
X3780993Y-4780991D03*
G01*
X3780993Y-4018991D03*
G01*
X3526993Y-4018991D03*
G01*
X3272993Y-4018991D03*
G01*
X3018993Y-4018991D03*
D26*
G01*
X816254Y-905106D03*
D27*
G01*
X3709314Y-719305D03*
G01*
X3650005Y-3672385D03*
G01*
X1999995Y-5399989D03*
G01*
X1877034Y-2350797D03*
G01*
X3086049Y-4162783D03*
G01*
X1759635Y-2999107D03*
G01*
X1706956Y-3057705D03*
G01*
X1899996Y-3299993D03*
D28*
G01*
X1499996Y-4699990D03*
G01*
X1599996Y-3499993D03*
G01*
X1199997Y-3399993D03*
D26*
G01*
X1699996Y-2899994D03*
G01*
X2999993Y-2799994D03*
D28*
G01*
X4799990Y-2199995D03*
G01*
X4699990Y-2699994D03*
G01*
X4499990Y-2899994D03*
M02*
