G04 Layer: BottomSilkscreenLayer*
G04 EasyEDA v6.5.46, 2025-08-02 21:40:15*
G04 8832990329004e7ebfdb3d49b5405116,ba325f3f76be48ccbdad7cc867071ff5,10*
G04 Gerber Generator version 0.2*
G04 Scale: 100 percent, Rotated: No, Reflected: No *
G04 Dimensions in millimeters *
G04 leading zeros omitted , absolute positions ,4 integer and 5 decimal *
%FSLAX45Y45*%
%MOMM*%

%ADD10C,0.2032*%
%ADD11C,0.1524*%
%ADD12C,0.2540*%

%LPD*%
G36*
X3459784Y39979D02*
G01*
X3453485Y38201D01*
X3445001Y33528D01*
X3435350Y23876D01*
X3433927Y20675D01*
X3433368Y18846D01*
X3433318Y17018D01*
X3431489Y17018D01*
X3428644Y22707D01*
X3423615Y28905D01*
X3418230Y33070D01*
X3414572Y35560D01*
X3409950Y38201D01*
X3401364Y39471D01*
X3392728Y37744D01*
X3386378Y34239D01*
X3380740Y27381D01*
X3377539Y20167D01*
X3376422Y12242D01*
X3377539Y2743D01*
X3380232Y-6197D01*
X3383787Y-13411D01*
X3391154Y-23266D01*
X3396234Y-29514D01*
X3400501Y-34188D01*
X3407511Y-40995D01*
X3415385Y-47548D01*
X3422802Y-52273D01*
X3426663Y-54254D01*
X3433419Y-57048D01*
X3438753Y-55321D01*
X3452672Y-44653D01*
X3458819Y-39166D01*
X3465677Y-32613D01*
X3474262Y-21691D01*
X3480104Y-11887D01*
X3483356Y-5842D01*
X3486454Y965D01*
X3488080Y8737D01*
X3487674Y20828D01*
X3484575Y28244D01*
X3478733Y34848D01*
X3475228Y37084D01*
X3472586Y38455D01*
X3468827Y39979D01*
G37*
G36*
X3502050Y-65125D02*
G01*
X3479037Y-65633D01*
X3460343Y-67818D01*
X3449472Y-69850D01*
X3437280Y-72847D01*
X3425342Y-76708D01*
X3411982Y-82194D01*
X3405632Y-85242D01*
X3398824Y-88849D01*
X3386988Y-96012D01*
X3381552Y-99568D01*
X3371189Y-107442D01*
X3365754Y-112115D01*
X3360674Y-116839D01*
X3354171Y-123444D01*
X3344214Y-134213D01*
X3333648Y-149250D01*
X3327603Y-158902D01*
X3319729Y-175107D01*
X3315766Y-185267D01*
X3312718Y-194462D01*
X3309924Y-205638D01*
X3308096Y-216154D01*
X3307537Y-223520D01*
X3307537Y-226364D01*
X3305251Y-224891D01*
X3289909Y-225094D01*
X3277666Y-227482D01*
X3267913Y-230886D01*
X3256686Y-237337D01*
X3247644Y-244957D01*
X3245510Y-247345D01*
X3243072Y-250698D01*
X3240786Y-254355D01*
X3238449Y-258775D01*
X3236671Y-262788D01*
X3234893Y-267716D01*
X3232810Y-274828D01*
X3232708Y-285140D01*
X3234537Y-299516D01*
X3237230Y-309118D01*
X3240481Y-319227D01*
X3243732Y-327507D01*
X3249320Y-337007D01*
X3253028Y-342849D01*
X3256483Y-347522D01*
X3262934Y-355244D01*
X3275634Y-369620D01*
X3285286Y-377799D01*
X3294126Y-384200D01*
X3304082Y-390194D01*
X3316376Y-396544D01*
X3328263Y-401472D01*
X3339998Y-405841D01*
X3363315Y-412292D01*
X3362147Y-414172D01*
X3345179Y-435813D01*
X3341268Y-441299D01*
X3333445Y-453694D01*
X3327298Y-464921D01*
X3324098Y-471627D01*
X3321253Y-478332D01*
X3318662Y-485140D01*
X3315360Y-496366D01*
X3313125Y-505561D01*
X3312515Y-518769D01*
X3314750Y-528523D01*
X3318154Y-534822D01*
X3323285Y-539597D01*
X3329279Y-542137D01*
X3341573Y-541528D01*
X3351276Y-538480D01*
X3363620Y-531825D01*
X3367735Y-527659D01*
X3368548Y-530250D01*
X3368954Y-571550D01*
X3368090Y-579983D01*
X3365754Y-594512D01*
X3362248Y-606348D01*
X3357727Y-616559D01*
X3351580Y-626668D01*
X3346399Y-632358D01*
X3346399Y-634898D01*
X3344672Y-635660D01*
X3335934Y-642467D01*
X3322065Y-650087D01*
X3318052Y-652018D01*
X3307638Y-653338D01*
X3302457Y-652221D01*
X3298444Y-649935D01*
X3296920Y-647446D01*
X3294583Y-642010D01*
X3291840Y-633222D01*
X3284677Y-602030D01*
X3281375Y-591972D01*
X3278784Y-586028D01*
X3275888Y-580745D01*
X3269284Y-570280D01*
X3265220Y-564540D01*
X3254705Y-555650D01*
X3246018Y-549656D01*
X3238093Y-544880D01*
X3221532Y-537616D01*
X3202686Y-530707D01*
X3195066Y-527608D01*
X3190341Y-525424D01*
X3185972Y-522985D01*
X3180842Y-519582D01*
X3168497Y-508254D01*
X3164840Y-505256D01*
X3161995Y-505256D01*
X3156458Y-510895D01*
X3153714Y-517194D01*
X3152292Y-524865D01*
X3151276Y-531723D01*
X3150006Y-542848D01*
X3150565Y-565251D01*
X3152190Y-575716D01*
X3153562Y-582930D01*
X3154984Y-589026D01*
X3157016Y-596138D01*
X3160623Y-607263D01*
X3165652Y-617423D01*
X3169259Y-623976D01*
X3172358Y-628853D01*
X3176473Y-634644D01*
X3183077Y-643178D01*
X3194354Y-654050D01*
X3204260Y-661466D01*
X3217367Y-668731D01*
X3229000Y-673506D01*
X3239312Y-676249D01*
X3251301Y-677621D01*
X3242360Y-688238D01*
X3235502Y-698957D01*
X3228898Y-713892D01*
X3225393Y-725982D01*
X3223717Y-739546D01*
X3223717Y-756208D01*
X3225292Y-768451D01*
X3228390Y-781659D01*
X3233623Y-795883D01*
X3241395Y-809752D01*
X3244088Y-813816D01*
X3250692Y-822299D01*
X3254502Y-826465D01*
X3257905Y-829767D01*
X3261969Y-833221D01*
X3267862Y-837590D01*
X3274822Y-839978D01*
X3279495Y-838200D01*
X3283559Y-834593D01*
X3284728Y-831850D01*
X3289808Y-814933D01*
X3294329Y-804976D01*
X3299714Y-796798D01*
X3316732Y-777341D01*
X3324555Y-764032D01*
X3328466Y-753516D01*
X3330600Y-743915D01*
X3331514Y-732282D01*
X3330092Y-718820D01*
X3328415Y-710590D01*
X3326079Y-702665D01*
X3324148Y-696976D01*
X3344316Y-704088D01*
X3352800Y-706729D01*
X3367379Y-710387D01*
X3380130Y-712673D01*
X3397250Y-715060D01*
X3437128Y-715060D01*
X3458464Y-712724D01*
X3476650Y-709930D01*
X3484118Y-708456D01*
X3494227Y-706018D01*
X3510889Y-701649D01*
X3530600Y-694740D01*
X3543909Y-689457D01*
X3560724Y-681990D01*
X3568141Y-678434D01*
X3577183Y-673658D01*
X3594150Y-663702D01*
X3607714Y-654710D01*
X3613810Y-650341D01*
X3623716Y-642772D01*
X3638397Y-630224D01*
X3649014Y-620471D01*
X3657346Y-611784D01*
X3671824Y-595731D01*
X3677564Y-588721D01*
X3687775Y-574954D01*
X3692601Y-568045D01*
X3697935Y-559765D01*
X3706520Y-545084D01*
X3714343Y-530148D01*
X3724605Y-507288D01*
X3733190Y-483158D01*
X3739134Y-460908D01*
X3742944Y-443941D01*
X3745484Y-430022D01*
X3747617Y-415645D01*
X3758133Y-402285D01*
X3764432Y-396494D01*
X3764483Y-394106D01*
X3767175Y-392582D01*
X3778707Y-382981D01*
X3782618Y-380085D01*
X3788867Y-376123D01*
X3796741Y-372110D01*
X3806444Y-368452D01*
X3812286Y-366471D01*
X3839870Y-359918D01*
X3844848Y-356819D01*
X3847236Y-354787D01*
X3849319Y-350012D01*
X3849979Y-343560D01*
X3848303Y-334162D01*
X3844899Y-324510D01*
X3842562Y-318617D01*
X3840530Y-314350D01*
X3834892Y-304393D01*
X3823665Y-288036D01*
X3803091Y-264972D01*
X3795420Y-258216D01*
X3788613Y-252729D01*
X3777538Y-244246D01*
X3766820Y-237591D01*
X3761384Y-234492D01*
X3754424Y-230936D01*
X3747160Y-226923D01*
X3729126Y-219557D01*
X3719779Y-215392D01*
X3718001Y-213817D01*
X3713581Y-208788D01*
X3710635Y-200812D01*
X3698290Y-180594D01*
X3689959Y-167894D01*
X3685895Y-162560D01*
X3677970Y-153162D01*
X3662019Y-134975D01*
X3647998Y-122529D01*
X3638499Y-114757D01*
X3629609Y-108204D01*
X3615232Y-98856D01*
X3605072Y-93014D01*
X3583482Y-82854D01*
X3571697Y-78587D01*
X3562807Y-75692D01*
X3554882Y-73406D01*
X3546703Y-71323D01*
X3540099Y-69900D01*
X3531209Y-68326D01*
X3516884Y-66192D01*
G37*
D10*
X3181819Y33180D02*
G01*
X3186363Y42270D01*
X3195454Y51361D01*
X3204547Y55907D01*
X3222729Y55907D01*
X3231819Y51361D01*
X3240910Y42270D01*
X3245454Y33180D01*
X3250001Y19545D01*
X3250001Y-3182D01*
X3245454Y-16819D01*
X3240910Y-25910D01*
X3231819Y-35001D01*
X3222729Y-39547D01*
X3204547Y-39547D01*
X3195454Y-35001D01*
X3186363Y-25910D01*
X3181819Y-16819D01*
X3181819Y-3182D01*
X3204547Y-3182D02*
G01*
X3181819Y-3182D01*
X3151819Y24089D02*
G01*
X3151819Y-39547D01*
X3151819Y-3182D02*
G01*
X3147273Y10452D01*
X3138182Y19545D01*
X3129092Y24089D01*
X3115454Y24089D01*
X3085454Y-3182D02*
G01*
X3030910Y-3182D01*
X3030910Y5908D01*
X3035454Y14998D01*
X3040001Y19545D01*
X3049092Y24089D01*
X3062729Y24089D01*
X3071820Y19545D01*
X3080910Y10452D01*
X3085454Y-3182D01*
X3085454Y-12273D01*
X3080910Y-25910D01*
X3071820Y-35001D01*
X3062729Y-39547D01*
X3049092Y-39547D01*
X3040001Y-35001D01*
X3030910Y-25910D01*
X3000910Y-3182D02*
G01*
X2946364Y-3182D01*
X2946364Y5908D01*
X2950911Y14998D01*
X2955455Y19545D01*
X2964548Y24089D01*
X2978183Y24089D01*
X2987273Y19545D01*
X2996364Y10452D01*
X3000910Y-3182D01*
X3000910Y-12273D01*
X2996364Y-25910D01*
X2987273Y-35001D01*
X2978183Y-39547D01*
X2964548Y-39547D01*
X2955455Y-35001D01*
X2946364Y-25910D01*
X2916364Y24089D02*
G01*
X2916364Y-39547D01*
X2916364Y5908D02*
G01*
X2902729Y19545D01*
X2893639Y24089D01*
X2880001Y24089D01*
X2870911Y19545D01*
X2866364Y5908D01*
X2866364Y-39547D01*
X2836364Y55907D02*
G01*
X2836364Y-39547D01*
X2836364Y55907D02*
G01*
X2777274Y55907D01*
X2836364Y10452D02*
G01*
X2800002Y10452D01*
X2836364Y-39547D02*
G01*
X2777274Y-39547D01*
X2742730Y24089D02*
G01*
X2715455Y-39547D01*
X2688183Y24089D02*
G01*
X2715455Y-39547D01*
X2724548Y-57729D01*
X2733639Y-66819D01*
X2742730Y-71363D01*
X2747274Y-71363D01*
X2658183Y-3182D02*
G01*
X2603639Y-3182D01*
X2603639Y5908D01*
X2608183Y14998D01*
X2612730Y19545D01*
X2621821Y24089D01*
X2635455Y24089D01*
X2644548Y19545D01*
X2653639Y10452D01*
X2658183Y-3182D01*
X2658183Y-12273D01*
X2653639Y-25910D01*
X2644548Y-35001D01*
X2635455Y-39547D01*
X2621821Y-39547D01*
X2612730Y-35001D01*
X2603639Y-25910D01*
X2440002Y42270D02*
G01*
X2449093Y51361D01*
X2462730Y55907D01*
X2480911Y55907D01*
X2494549Y51361D01*
X2503639Y42270D01*
X2503639Y33180D01*
X2499093Y24089D01*
X2494549Y19545D01*
X2485456Y14998D01*
X2458184Y5908D01*
X2449093Y1361D01*
X2444549Y-3182D01*
X2440002Y-12273D01*
X2440002Y-25910D01*
X2449093Y-35001D01*
X2462730Y-39547D01*
X2480911Y-39547D01*
X2494549Y-35001D01*
X2503639Y-25910D01*
X2410002Y-3182D02*
G01*
X2355456Y-3182D01*
X2355456Y5908D01*
X2360002Y14998D01*
X2364549Y19545D01*
X2373640Y24089D01*
X2387274Y24089D01*
X2396365Y19545D01*
X2405456Y10452D01*
X2410002Y-3182D01*
X2410002Y-12273D01*
X2405456Y-25910D01*
X2396365Y-35001D01*
X2387274Y-39547D01*
X2373640Y-39547D01*
X2364549Y-35001D01*
X2355456Y-25910D01*
X2325456Y24089D02*
G01*
X2325456Y-39547D01*
X2325456Y5908D02*
G01*
X2311821Y19545D01*
X2302730Y24089D01*
X2289093Y24089D01*
X2280003Y19545D01*
X2275456Y5908D01*
X2275456Y-39547D01*
X2195456Y10452D02*
G01*
X2200003Y19545D01*
X2213640Y24089D01*
X2227275Y24089D01*
X2240912Y19545D01*
X2245456Y10452D01*
X2240912Y1361D01*
X2231821Y-3182D01*
X2209093Y-7729D01*
X2200003Y-12273D01*
X2195456Y-21363D01*
X2195456Y-25910D01*
X2200003Y-35001D01*
X2213640Y-39547D01*
X2227275Y-39547D01*
X2240912Y-35001D01*
X2245456Y-25910D01*
X2142731Y24089D02*
G01*
X2151821Y19545D01*
X2160912Y10452D01*
X2165456Y-3182D01*
X2165456Y-12273D01*
X2160912Y-25910D01*
X2151821Y-35001D01*
X2142731Y-39547D01*
X2129094Y-39547D01*
X2120003Y-35001D01*
X2110912Y-25910D01*
X2106366Y-12273D01*
X2106366Y-3182D01*
X2110912Y10452D01*
X2120003Y19545D01*
X2129094Y24089D01*
X2142731Y24089D01*
X2076366Y24089D02*
G01*
X2076366Y-39547D01*
X2076366Y-3182D02*
G01*
X2071822Y10452D01*
X2062731Y19545D01*
X2053640Y24089D01*
X2040003Y24089D01*
X2010003Y55907D02*
G01*
X2010003Y-39547D01*
X2010003Y55907D02*
G01*
X1978185Y55907D01*
X1964550Y51361D01*
X1955457Y42270D01*
X1950913Y33180D01*
X1946366Y19545D01*
X1946366Y-3182D01*
X1950913Y-16819D01*
X1955457Y-25910D01*
X1964550Y-35001D01*
X1978185Y-39547D01*
X2010003Y-39547D01*
X1916366Y-3182D02*
G01*
X1861822Y-3182D01*
X1861822Y5908D01*
X1866366Y14998D01*
X1870913Y19545D01*
X1880003Y24089D01*
X1893641Y24089D01*
X1902731Y19545D01*
X1911822Y10452D01*
X1916366Y-3182D01*
X1916366Y-12273D01*
X1911822Y-25910D01*
X1902731Y-35001D01*
X1893641Y-39547D01*
X1880003Y-39547D01*
X1870913Y-35001D01*
X1861822Y-25910D01*
X1831822Y24089D02*
G01*
X1804550Y-39547D01*
X1777276Y24089D02*
G01*
X1804550Y-39547D01*
X1747276Y55907D02*
G01*
X1742732Y51361D01*
X1738185Y55907D01*
X1742732Y60452D01*
X1747276Y55907D01*
X1742732Y24089D02*
G01*
X1742732Y-39547D01*
X1653641Y10452D02*
G01*
X1662732Y19545D01*
X1671822Y24089D01*
X1685457Y24089D01*
X1694550Y19545D01*
X1703641Y10452D01*
X1708185Y-3182D01*
X1708185Y-12273D01*
X1703641Y-25910D01*
X1694550Y-35001D01*
X1685457Y-39547D01*
X1671822Y-39547D01*
X1662732Y-35001D01*
X1653641Y-25910D01*
X1623641Y-3182D02*
G01*
X1569095Y-3182D01*
X1569095Y5908D01*
X1573641Y14998D01*
X1578185Y19545D01*
X1587276Y24089D01*
X1600913Y24089D01*
X1610004Y19545D01*
X1619095Y10452D01*
X1623641Y-3182D01*
X1623641Y-12273D01*
X1619095Y-25910D01*
X1610004Y-35001D01*
X1600913Y-39547D01*
X1587276Y-39547D01*
X1578185Y-35001D01*
X1569095Y-25910D01*
X1750004Y-144091D02*
G01*
X1713641Y-239547D01*
X1677276Y-144091D02*
G01*
X1713641Y-239547D01*
X1638185Y-144091D02*
G01*
X1588185Y-144091D01*
X1615457Y-180454D01*
X1601823Y-180454D01*
X1592732Y-185000D01*
X1588185Y-189547D01*
X1583641Y-203182D01*
X1583641Y-212272D01*
X1588185Y-225910D01*
X1597276Y-235000D01*
X1610913Y-239547D01*
X1624550Y-239547D01*
X1638185Y-235000D01*
X1642732Y-230454D01*
X1647276Y-221363D01*
X1549095Y-216819D02*
G01*
X1553641Y-221363D01*
X1549095Y-225910D01*
X1544551Y-221363D01*
X1549095Y-216819D01*
X1487276Y-144091D02*
G01*
X1500913Y-148638D01*
X1510004Y-162272D01*
X1514551Y-185000D01*
X1514551Y-198638D01*
X1510004Y-221363D01*
X1500913Y-235000D01*
X1487276Y-239547D01*
X1478186Y-239547D01*
X1464551Y-235000D01*
X1455458Y-221363D01*
X1450914Y-198638D01*
X1450914Y-185000D01*
X1455458Y-162272D01*
X1464551Y-148638D01*
X1478186Y-144091D01*
X1487276Y-144091D01*
X1099088Y999997D02*
G01*
X1194544Y999997D01*
X1099088Y999997D02*
G01*
X1099088Y959088D01*
X1103635Y945451D01*
X1108179Y940907D01*
X1117269Y936360D01*
X1126360Y936360D01*
X1135451Y940907D01*
X1139997Y945451D01*
X1144544Y959088D01*
X1144544Y999997D02*
G01*
X1144544Y959088D01*
X1149088Y945451D01*
X1153634Y940907D01*
X1162725Y936360D01*
X1176360Y936360D01*
X1185451Y940907D01*
X1189997Y945451D01*
X1194544Y959088D01*
X1194544Y999997D01*
X1099088Y869998D02*
G01*
X1194544Y906360D01*
X1099088Y869998D02*
G01*
X1194544Y833635D01*
X1162725Y892726D02*
G01*
X1162725Y847270D01*
X1099088Y771817D02*
G01*
X1194544Y771817D01*
X1099088Y803635D02*
G01*
X1099088Y739998D01*
X1099088Y599998D02*
G01*
X1194544Y599998D01*
X1099088Y599998D02*
G01*
X1099088Y559089D01*
X1103635Y545452D01*
X1108179Y540908D01*
X1117269Y536361D01*
X1130907Y536361D01*
X1139997Y540908D01*
X1144544Y545452D01*
X1149088Y559089D01*
X1149088Y599998D01*
X1099088Y479089D02*
G01*
X1103635Y488180D01*
X1112725Y497271D01*
X1121816Y501817D01*
X1135451Y506361D01*
X1158179Y506361D01*
X1171816Y501817D01*
X1180906Y497271D01*
X1189997Y488180D01*
X1194544Y479089D01*
X1194544Y460908D01*
X1189997Y451817D01*
X1180906Y442727D01*
X1171816Y438180D01*
X1158179Y433636D01*
X1135451Y433636D01*
X1121816Y438180D01*
X1112725Y442727D01*
X1103635Y451817D01*
X1099088Y460908D01*
X1099088Y479089D01*
X1099088Y403636D02*
G01*
X1194544Y380908D01*
X1099088Y358180D02*
G01*
X1194544Y380908D01*
X1099088Y358180D02*
G01*
X1194544Y335452D01*
X1099088Y312727D02*
G01*
X1194544Y335452D01*
X1178179Y18181D02*
G01*
X1187269Y13637D01*
X1196360Y4546D01*
X1200906Y-4546D01*
X1200906Y-22727D01*
X1196360Y-31818D01*
X1187269Y-40909D01*
X1178179Y-45453D01*
X1164544Y-49999D01*
X1141816Y-49999D01*
X1128179Y-45453D01*
X1119088Y-40909D01*
X1109997Y-31818D01*
X1105451Y-22727D01*
X1105451Y-4546D01*
X1109997Y4546D01*
X1119088Y13637D01*
X1128179Y18181D01*
X1141816Y18181D01*
X1141816Y-4546D02*
G01*
X1141816Y18181D01*
X1200906Y48181D02*
G01*
X1105451Y48181D01*
X1200906Y48181D02*
G01*
X1105451Y111818D01*
X1200906Y111818D02*
G01*
X1105451Y111818D01*
X1200906Y141818D02*
G01*
X1105451Y141818D01*
X1200906Y141818D02*
G01*
X1200906Y173636D01*
X1196360Y187271D01*
X1187269Y196362D01*
X1178179Y200908D01*
X1164544Y205452D01*
X1141816Y205452D01*
X1128179Y200908D01*
X1119088Y196362D01*
X1109997Y187271D01*
X1105451Y173636D01*
X1105451Y141818D01*
D11*
X2877350Y1149819D02*
G01*
X2887764Y1160233D01*
X2903258Y1165313D01*
X2924086Y1165313D01*
X2939580Y1160233D01*
X2949994Y1149819D01*
X2949994Y1139405D01*
X2944914Y1128991D01*
X2939580Y1123657D01*
X2929166Y1118577D01*
X2897924Y1108163D01*
X2887764Y1103083D01*
X2882430Y1097749D01*
X2877350Y1087335D01*
X2877350Y1071841D01*
X2887764Y1061427D01*
X2903258Y1056347D01*
X2924086Y1056347D01*
X2939580Y1061427D01*
X2949994Y1071841D01*
X2843060Y1144485D02*
G01*
X2832646Y1149819D01*
X2816898Y1165313D01*
X2816898Y1056347D01*
X3372015Y989418D02*
G01*
X3377349Y999832D01*
X3387763Y1010246D01*
X3397923Y1015326D01*
X3418751Y1015326D01*
X3429165Y1010246D01*
X3439579Y999832D01*
X3444913Y989418D01*
X3449993Y973670D01*
X3449993Y947762D01*
X3444913Y932268D01*
X3439579Y921854D01*
X3429165Y911440D01*
X3418751Y906360D01*
X3397923Y906360D01*
X3387763Y911440D01*
X3377349Y921854D01*
X3372015Y932268D01*
X3372015Y947762D01*
X3397923Y947762D02*
G01*
X3372015Y947762D01*
X3337725Y1015326D02*
G01*
X3296323Y963510D01*
X3296323Y906360D01*
X3254667Y1015326D02*
G01*
X3296323Y963510D01*
X3220377Y953096D02*
G01*
X3126905Y953096D01*
X3082201Y1015326D02*
G01*
X3025051Y1015326D01*
X3056293Y973670D01*
X3040545Y973670D01*
X3030131Y968590D01*
X3025051Y963510D01*
X3019717Y947762D01*
X3019717Y937348D01*
X3025051Y921854D01*
X3035465Y911440D01*
X3050959Y906360D01*
X3066453Y906360D01*
X3082201Y911440D01*
X3087281Y916520D01*
X3092615Y926934D01*
X2954439Y1015326D02*
G01*
X2969933Y1010246D01*
X2980347Y994498D01*
X2985427Y968590D01*
X2985427Y953096D01*
X2980347Y926934D01*
X2969933Y911440D01*
X2954439Y906360D01*
X2944025Y906360D01*
X2928277Y911440D01*
X2917863Y926934D01*
X2912783Y953096D01*
X2912783Y968590D01*
X2917863Y994498D01*
X2928277Y1010246D01*
X2944025Y1015326D01*
X2954439Y1015326D01*
X2873413Y989418D02*
G01*
X2873413Y994498D01*
X2868079Y1004912D01*
X2862999Y1010246D01*
X2852585Y1015326D01*
X2831757Y1015326D01*
X2821343Y1010246D01*
X2816263Y1004912D01*
X2810929Y994498D01*
X2810929Y984084D01*
X2816263Y973670D01*
X2826423Y958176D01*
X2878493Y906360D01*
X2805849Y906360D01*
D10*
X1050008Y-12749034D02*
G01*
X1050008Y-12844538D01*
X1050008Y-12749034D02*
G01*
X1013686Y-12844538D01*
X977364Y-12749034D02*
G01*
X1013686Y-12844538D01*
X977364Y-12749034D02*
G01*
X977364Y-12844538D01*
X924532Y-12780784D02*
G01*
X933676Y-12785356D01*
X942820Y-12794500D01*
X947392Y-12808216D01*
X947392Y-12817360D01*
X942820Y-12830822D01*
X933676Y-12839966D01*
X924532Y-12844538D01*
X910816Y-12844538D01*
X901926Y-12839966D01*
X892782Y-12830822D01*
X888210Y-12817360D01*
X888210Y-12808216D01*
X892782Y-12794500D01*
X901926Y-12785356D01*
X910816Y-12780784D01*
X924532Y-12780784D01*
X858238Y-12749034D02*
G01*
X853666Y-12753606D01*
X849094Y-12749034D01*
X853666Y-12744462D01*
X858238Y-12749034D01*
X853666Y-12780784D02*
G01*
X853666Y-12844538D01*
X769084Y-12794500D02*
G01*
X773656Y-12785356D01*
X787372Y-12780784D01*
X800834Y-12780784D01*
X814550Y-12785356D01*
X819122Y-12794500D01*
X814550Y-12803644D01*
X805406Y-12808216D01*
X782800Y-12812788D01*
X773656Y-12817360D01*
X769084Y-12826250D01*
X769084Y-12830822D01*
X773656Y-12839966D01*
X787372Y-12844538D01*
X800834Y-12844538D01*
X814550Y-12839966D01*
X819122Y-12830822D01*
X725396Y-12749034D02*
G01*
X725396Y-12826250D01*
X720824Y-12839966D01*
X711934Y-12844538D01*
X702790Y-12844538D01*
X739112Y-12780784D02*
G01*
X707362Y-12780784D01*
X672818Y-12780784D02*
G01*
X672818Y-12826250D01*
X668246Y-12839966D01*
X659102Y-12844538D01*
X645386Y-12844538D01*
X636242Y-12839966D01*
X622780Y-12826250D01*
X622780Y-12780784D02*
G01*
X622780Y-12844538D01*
X592808Y-12780784D02*
G01*
X592808Y-12844538D01*
X592808Y-12808216D02*
G01*
X588236Y-12794500D01*
X579092Y-12785356D01*
X569948Y-12780784D01*
X556486Y-12780784D01*
X526260Y-12808216D02*
G01*
X471904Y-12808216D01*
X471904Y-12799072D01*
X476476Y-12789928D01*
X480794Y-12785356D01*
X489938Y-12780784D01*
X503654Y-12780784D01*
X512798Y-12785356D01*
X521942Y-12794500D01*
X526260Y-12808216D01*
X526260Y-12817360D01*
X521942Y-12830822D01*
X512798Y-12839966D01*
X503654Y-12844538D01*
X489938Y-12844538D01*
X480794Y-12839966D01*
X471904Y-12830822D01*
X5199989Y-12749187D02*
G01*
X5199989Y-12844437D01*
X5199989Y-12749187D02*
G01*
X5140807Y-12749187D01*
X5199989Y-12794399D02*
G01*
X5163667Y-12794399D01*
X5199989Y-12844437D02*
G01*
X5140807Y-12844437D01*
X5042763Y-12771793D02*
G01*
X5047335Y-12762649D01*
X5056479Y-12753505D01*
X5065369Y-12749187D01*
X5083657Y-12749187D01*
X5092801Y-12753505D01*
X5101691Y-12762649D01*
X5106263Y-12771793D01*
X5110835Y-12785509D01*
X5110835Y-12808115D01*
X5106263Y-12821831D01*
X5101691Y-12830975D01*
X5092801Y-12839865D01*
X5083657Y-12844437D01*
X5065369Y-12844437D01*
X5056479Y-12839865D01*
X5047335Y-12830975D01*
X5042763Y-12821831D01*
X5012791Y-12876441D02*
G01*
X4931003Y-12876441D01*
X4900777Y-12749187D02*
G01*
X4900777Y-12844437D01*
X4900777Y-12749187D02*
G01*
X4859883Y-12749187D01*
X4846421Y-12753505D01*
X4841849Y-12758077D01*
X4837277Y-12767221D01*
X4837277Y-12776365D01*
X4841849Y-12785509D01*
X4846421Y-12790081D01*
X4859883Y-12794399D01*
X4900777Y-12794399D02*
G01*
X4859883Y-12794399D01*
X4846421Y-12798971D01*
X4841849Y-12803543D01*
X4837277Y-12812687D01*
X4837277Y-12826403D01*
X4841849Y-12835547D01*
X4846421Y-12839865D01*
X4859883Y-12844437D01*
X4900777Y-12844437D01*
X3600018Y-12749060D02*
G01*
X3600018Y-12844564D01*
X3600018Y-12749060D02*
G01*
X3540836Y-12749060D01*
X3600018Y-12794526D02*
G01*
X3563696Y-12794526D01*
X3600018Y-12844564D02*
G01*
X3540836Y-12844564D01*
X3442792Y-12771666D02*
G01*
X3447364Y-12762776D01*
X3456254Y-12753632D01*
X3465398Y-12749060D01*
X3483686Y-12749060D01*
X3492830Y-12753632D01*
X3501720Y-12762776D01*
X3506292Y-12771666D01*
X3510864Y-12785382D01*
X3510864Y-12808242D01*
X3506292Y-12821704D01*
X3501720Y-12830848D01*
X3492830Y-12839992D01*
X3483686Y-12844564D01*
X3465398Y-12844564D01*
X3456254Y-12839992D01*
X3447364Y-12830848D01*
X3442792Y-12821704D01*
X3412820Y-12876314D02*
G01*
X3330778Y-12876314D01*
X3264484Y-12749060D02*
G01*
X3300806Y-12844564D01*
X3264484Y-12749060D02*
G01*
X3228162Y-12844564D01*
X3287344Y-12812814D02*
G01*
X3241878Y-12812814D01*
X2418245Y-12749085D02*
G01*
X2418245Y-12844589D01*
X2449995Y-12749085D02*
G01*
X2386241Y-12749085D01*
X2356269Y-12749085D02*
G01*
X2356269Y-12844589D01*
X2356269Y-12749085D02*
G01*
X2297341Y-12749085D01*
X2356269Y-12794551D02*
G01*
X2319947Y-12794551D01*
X2356269Y-12844589D02*
G01*
X2297341Y-12844589D01*
X2267369Y-12749085D02*
G01*
X2267369Y-12844589D01*
X2267369Y-12749085D02*
G01*
X2230793Y-12844589D01*
X2194471Y-12749085D02*
G01*
X2230793Y-12844589D01*
X2194471Y-12749085D02*
G01*
X2194471Y-12844589D01*
X2164499Y-12749085D02*
G01*
X2164499Y-12844589D01*
X2164499Y-12749085D02*
G01*
X2123605Y-12749085D01*
X2109889Y-12753657D01*
X2105571Y-12758229D01*
X2100999Y-12767373D01*
X2100999Y-12780835D01*
X2105571Y-12789979D01*
X2109889Y-12794551D01*
X2123605Y-12799123D01*
X2164499Y-12799123D01*
X3150001Y-143182D02*
G01*
X3150001Y-334091D01*
X3150001Y-143182D02*
G01*
X3022729Y-334091D01*
X3022729Y-143182D02*
G01*
X3022729Y-334091D01*
X2853639Y-206819D02*
G01*
X2853639Y-334091D01*
X2853639Y-234091D02*
G01*
X2871820Y-215910D01*
X2890001Y-206819D01*
X2917273Y-206819D01*
X2935455Y-215910D01*
X2953638Y-234091D01*
X2962729Y-261363D01*
X2962729Y-279547D01*
X2953638Y-306819D01*
X2935455Y-325000D01*
X2917273Y-334091D01*
X2890001Y-334091D01*
X2871820Y-325000D01*
X2853639Y-306819D01*
X2793639Y-206819D02*
G01*
X2793639Y-334091D01*
X2793639Y-243182D02*
G01*
X2766364Y-215910D01*
X2748183Y-206819D01*
X2720911Y-206819D01*
X2702730Y-215910D01*
X2693639Y-243182D01*
X2693639Y-334091D01*
X2524549Y-206819D02*
G01*
X2524549Y-352272D01*
X2533639Y-379547D01*
X2542730Y-388637D01*
X2560911Y-397728D01*
X2588183Y-397728D01*
X2606365Y-388637D01*
X2524549Y-234091D02*
G01*
X2542730Y-215910D01*
X2560911Y-206819D01*
X2588183Y-206819D01*
X2606365Y-215910D01*
X2624548Y-234091D01*
X2633639Y-261363D01*
X2633639Y-279547D01*
X2624548Y-306819D01*
X2606365Y-325000D01*
X2588183Y-334091D01*
X2560911Y-334091D01*
X2542730Y-325000D01*
X2524549Y-306819D01*
X2464549Y-206819D02*
G01*
X2464549Y-334091D01*
X2464549Y-243182D02*
G01*
X2437274Y-215910D01*
X2419093Y-206819D01*
X2391821Y-206819D01*
X2373640Y-215910D01*
X2364549Y-243182D01*
X2364549Y-334091D01*
X2364549Y-243182D02*
G01*
X2337274Y-215910D01*
X2319093Y-206819D01*
X2291821Y-206819D01*
X2273640Y-215910D01*
X2264549Y-243182D01*
X2264549Y-334091D01*
X2095456Y-206819D02*
G01*
X2095456Y-334091D01*
X2095456Y-234091D02*
G01*
X2113640Y-215910D01*
X2131822Y-206819D01*
X2159093Y-206819D01*
X2177275Y-215910D01*
X2195456Y-234091D01*
X2204549Y-261363D01*
X2204549Y-279547D01*
X2195456Y-306819D01*
X2177275Y-325000D01*
X2159093Y-334091D01*
X2131822Y-334091D01*
X2113640Y-325000D01*
X2095456Y-306819D01*
X2035456Y-206819D02*
G01*
X2035456Y-334091D01*
X2035456Y-243182D02*
G01*
X2008184Y-215910D01*
X1990003Y-206819D01*
X1962731Y-206819D01*
X1944550Y-215910D01*
X1935457Y-243182D01*
X1935457Y-334091D01*
X2950001Y-443181D02*
G01*
X2950001Y-634090D01*
X2950001Y-443181D02*
G01*
X2886364Y-443181D01*
X2859092Y-452272D01*
X2840911Y-470453D01*
X2831820Y-488637D01*
X2822729Y-515909D01*
X2822729Y-561362D01*
X2831820Y-588637D01*
X2840911Y-606818D01*
X2859092Y-625000D01*
X2886364Y-634090D01*
X2950001Y-634090D01*
X2717274Y-506818D02*
G01*
X2735455Y-515909D01*
X2753639Y-534090D01*
X2762730Y-561362D01*
X2762730Y-579546D01*
X2753639Y-606818D01*
X2735455Y-625000D01*
X2717274Y-634090D01*
X2690002Y-634090D01*
X2671820Y-625000D01*
X2653639Y-606818D01*
X2644548Y-579546D01*
X2644548Y-561362D01*
X2653639Y-534090D01*
X2671820Y-515909D01*
X2690002Y-506818D01*
X2717274Y-506818D01*
X2584549Y-443181D02*
G01*
X2584549Y-634090D01*
X2524549Y-506818D02*
G01*
X2524549Y-697727D01*
X2524549Y-534090D02*
G01*
X2506365Y-515909D01*
X2488184Y-506818D01*
X2460912Y-506818D01*
X2442730Y-515909D01*
X2424549Y-534090D01*
X2415456Y-561362D01*
X2415456Y-579546D01*
X2424549Y-606818D01*
X2442730Y-625000D01*
X2460912Y-634090D01*
X2488184Y-634090D01*
X2506365Y-625000D01*
X2524549Y-606818D01*
X2355456Y-443181D02*
G01*
X2355456Y-634090D01*
X2355456Y-543181D02*
G01*
X2328184Y-515909D01*
X2310002Y-506818D01*
X2282731Y-506818D01*
X2264549Y-515909D01*
X2255456Y-543181D01*
X2255456Y-634090D01*
X2195456Y-443181D02*
G01*
X2186365Y-452272D01*
X2177275Y-443181D01*
X2186365Y-434091D01*
X2195456Y-443181D01*
X2186365Y-506818D02*
G01*
X2186365Y-634090D01*
X2117275Y-506818D02*
G01*
X2117275Y-634090D01*
X2117275Y-543181D02*
G01*
X2090003Y-515909D01*
X2071822Y-506818D01*
X2044550Y-506818D01*
X2026366Y-515909D01*
X2017275Y-543181D01*
X2017275Y-634090D01*
X1857275Y-534090D02*
G01*
X1866366Y-515909D01*
X1893641Y-506818D01*
X1920913Y-506818D01*
X1948185Y-515909D01*
X1957275Y-534090D01*
X1948185Y-552272D01*
X1930003Y-561362D01*
X1884550Y-570453D01*
X1866366Y-579546D01*
X1857275Y-597728D01*
X1857275Y-606818D01*
X1866366Y-625000D01*
X1893641Y-634090D01*
X1920913Y-634090D01*
X1948185Y-625000D01*
X1957275Y-606818D01*
D11*
X1148168Y-2484729D02*
G01*
X1199984Y-2557373D01*
X1122006Y-2557373D01*
X1148168Y-2484729D02*
G01*
X1148168Y-2593695D01*
X1015072Y-2484729D02*
G01*
X1066888Y-2593695D01*
X1087716Y-2484729D02*
G01*
X1015072Y-2484729D01*
X980782Y-2521051D02*
G01*
X980782Y-2572867D01*
X975448Y-2588615D01*
X965288Y-2593695D01*
X949540Y-2593695D01*
X939126Y-2588615D01*
X923632Y-2572867D01*
X923632Y-2521051D02*
G01*
X923632Y-2593695D01*
X771994Y-2510637D02*
G01*
X777328Y-2500223D01*
X787742Y-2489809D01*
X798156Y-2484729D01*
X818730Y-2484729D01*
X829144Y-2489809D01*
X839558Y-2500223D01*
X844892Y-2510637D01*
X849972Y-2526131D01*
X849972Y-2552293D01*
X844892Y-2567787D01*
X839558Y-2578201D01*
X829144Y-2588615D01*
X818730Y-2593695D01*
X798156Y-2593695D01*
X787742Y-2588615D01*
X777328Y-2578201D01*
X771994Y-2567787D01*
X727290Y-2484729D02*
G01*
X670140Y-2484729D01*
X701382Y-2526131D01*
X685888Y-2526131D01*
X675474Y-2531465D01*
X670140Y-2536545D01*
X665060Y-2552293D01*
X665060Y-2562707D01*
X670140Y-2578201D01*
X680554Y-2588615D01*
X696302Y-2593695D01*
X711796Y-2593695D01*
X727290Y-2588615D01*
X732624Y-2583281D01*
X737704Y-2572867D01*
X2308339Y-2734678D02*
G01*
X2349995Y-2843644D01*
X2308339Y-2734678D02*
G01*
X2266937Y-2843644D01*
X2334501Y-2807322D02*
G01*
X2282431Y-2807322D01*
X2232647Y-2734678D02*
G01*
X2232647Y-2843644D01*
X2159749Y-2734678D02*
G01*
X2159749Y-2843644D01*
X2232647Y-2786494D02*
G01*
X2159749Y-2786494D01*
X2089137Y-2734678D02*
G01*
X2089137Y-2843644D01*
X2125459Y-2734678D02*
G01*
X2052815Y-2734678D01*
X2013445Y-2760586D02*
G01*
X2013445Y-2755506D01*
X2008111Y-2745092D01*
X2003031Y-2739758D01*
X1992617Y-2734678D01*
X1971789Y-2734678D01*
X1961375Y-2739758D01*
X1956295Y-2745092D01*
X1950961Y-2755506D01*
X1950961Y-2765920D01*
X1956295Y-2776334D01*
X1966455Y-2791828D01*
X2018525Y-2843644D01*
X1945881Y-2843644D01*
X1880349Y-2734678D02*
G01*
X1895843Y-2739758D01*
X1906257Y-2755506D01*
X1911591Y-2781414D01*
X1911591Y-2796908D01*
X1906257Y-2823070D01*
X1895843Y-2838564D01*
X1880349Y-2843644D01*
X1869935Y-2843644D01*
X1854441Y-2838564D01*
X1844027Y-2823070D01*
X1838693Y-2796908D01*
X1838693Y-2781414D01*
X1844027Y-2755506D01*
X1854441Y-2739758D01*
X1869935Y-2734678D01*
X1880349Y-2734678D01*
X3377349Y-2750172D02*
G01*
X3387763Y-2739758D01*
X3403257Y-2734678D01*
X3424085Y-2734678D01*
X3439579Y-2739758D01*
X3449993Y-2750172D01*
X3449993Y-2760586D01*
X3444913Y-2771000D01*
X3439579Y-2776334D01*
X3429165Y-2781414D01*
X3397923Y-2791828D01*
X3387763Y-2796908D01*
X3382429Y-2802242D01*
X3377349Y-2812656D01*
X3377349Y-2828150D01*
X3387763Y-2838564D01*
X3403257Y-2843644D01*
X3424085Y-2843644D01*
X3439579Y-2838564D01*
X3449993Y-2828150D01*
X3337725Y-2760586D02*
G01*
X3337725Y-2755506D01*
X3332645Y-2745092D01*
X3327311Y-2739758D01*
X3316897Y-2734678D01*
X3296323Y-2734678D01*
X3285909Y-2739758D01*
X3280575Y-2745092D01*
X3275495Y-2755506D01*
X3275495Y-2765920D01*
X3280575Y-2776334D01*
X3290989Y-2791828D01*
X3343059Y-2843644D01*
X3270161Y-2843644D01*
D10*
X3092665Y-2360295D02*
G01*
X2995637Y-2323464D01*
X3092665Y-2286380D02*
G01*
X2995637Y-2323464D01*
X3092665Y-2255901D02*
G01*
X2995637Y-2255901D01*
X3092665Y-2225420D02*
G01*
X2995637Y-2225420D01*
X3092665Y-2225420D02*
G01*
X2995637Y-2160904D01*
X3092665Y-2160904D02*
G01*
X2995637Y-2160904D01*
X2846539Y-2295525D02*
G01*
X2855683Y-2304922D01*
X2860509Y-2318638D01*
X2860509Y-2337180D01*
X2855683Y-2351151D01*
X2846539Y-2360295D01*
X2837395Y-2360295D01*
X2827997Y-2355722D01*
X2823425Y-2351151D01*
X2818853Y-2341753D01*
X2809709Y-2314067D01*
X2804883Y-2304922D01*
X2800311Y-2300351D01*
X2791167Y-2295525D01*
X2777197Y-2295525D01*
X2768053Y-2304922D01*
X2763481Y-2318638D01*
X2763481Y-2337180D01*
X2768053Y-2351151D01*
X2777197Y-2360295D01*
X2860509Y-2265045D02*
G01*
X2763481Y-2265045D01*
X2860509Y-2265045D02*
G01*
X2860509Y-2232787D01*
X2855683Y-2219070D01*
X2846539Y-2209672D01*
X2837395Y-2205101D01*
X2823425Y-2200529D01*
X2800311Y-2200529D01*
X2786595Y-2205101D01*
X2777197Y-2209672D01*
X2768053Y-2219070D01*
X2763481Y-2232787D01*
X2763481Y-2265045D01*
X2860509Y-2132964D02*
G01*
X2763481Y-2170048D01*
X2860509Y-2132964D02*
G01*
X2763481Y-2096135D01*
X2795739Y-2156079D02*
G01*
X2795739Y-2110104D01*
X2570695Y-2290953D02*
G01*
X2579839Y-2295525D01*
X2588983Y-2304922D01*
X2593809Y-2314067D01*
X2593809Y-2332609D01*
X2588983Y-2341753D01*
X2579839Y-2351151D01*
X2570695Y-2355722D01*
X2556725Y-2360295D01*
X2533611Y-2360295D01*
X2519895Y-2355722D01*
X2510497Y-2351151D01*
X2501353Y-2341753D01*
X2496781Y-2332609D01*
X2496781Y-2314067D01*
X2501353Y-2304922D01*
X2510497Y-2295525D01*
X2519895Y-2290953D01*
X2533611Y-2290953D01*
X2533611Y-2314067D02*
G01*
X2533611Y-2290953D01*
X2593809Y-2260472D02*
G01*
X2496781Y-2260472D01*
X2593809Y-2260472D02*
G01*
X2496781Y-2195956D01*
X2593809Y-2195956D02*
G01*
X2496781Y-2195956D01*
X2593809Y-2165477D02*
G01*
X2496781Y-2165477D01*
X2593809Y-2165477D02*
G01*
X2593809Y-2132964D01*
X2588983Y-2119248D01*
X2579839Y-2110104D01*
X2570695Y-2105279D01*
X2556725Y-2100706D01*
X2533611Y-2100706D01*
X2519895Y-2105279D01*
X2510497Y-2110104D01*
X2501353Y-2119248D01*
X2496781Y-2132964D01*
X2496781Y-2165477D01*
X2325839Y-2295525D02*
G01*
X2334983Y-2304922D01*
X2339809Y-2318638D01*
X2339809Y-2337180D01*
X2334983Y-2351151D01*
X2325839Y-2360295D01*
X2316695Y-2360295D01*
X2307297Y-2355722D01*
X2302725Y-2351151D01*
X2298153Y-2341753D01*
X2289009Y-2314067D01*
X2284183Y-2304922D01*
X2279611Y-2300351D01*
X2270467Y-2295525D01*
X2256497Y-2295525D01*
X2247353Y-2304922D01*
X2242781Y-2318638D01*
X2242781Y-2337180D01*
X2247353Y-2351151D01*
X2256497Y-2360295D01*
X2316695Y-2195956D02*
G01*
X2325839Y-2200529D01*
X2334983Y-2209672D01*
X2339809Y-2219070D01*
X2339809Y-2237359D01*
X2334983Y-2246756D01*
X2325839Y-2255901D01*
X2316695Y-2260472D01*
X2302725Y-2265045D01*
X2279611Y-2265045D01*
X2265895Y-2260472D01*
X2256497Y-2255901D01*
X2247353Y-2246756D01*
X2242781Y-2237359D01*
X2242781Y-2219070D01*
X2247353Y-2209672D01*
X2256497Y-2200529D01*
X2265895Y-2195956D01*
X2339809Y-2165477D02*
G01*
X2242781Y-2165477D01*
X2242781Y-2165477D02*
G01*
X2242781Y-2110104D01*
X2961096Y-1619125D02*
G01*
X2961096Y-1716153D01*
X2961096Y-1619125D02*
G01*
X2919440Y-1619125D01*
X2905724Y-1623697D01*
X2901152Y-1628269D01*
X2896326Y-1637667D01*
X2896326Y-1646811D01*
X2901152Y-1655955D01*
X2905724Y-1660527D01*
X2919440Y-1665353D01*
X2961096Y-1665353D02*
G01*
X2919440Y-1665353D01*
X2905724Y-1669925D01*
X2901152Y-1674497D01*
X2896326Y-1683641D01*
X2896326Y-1697611D01*
X2901152Y-1706755D01*
X2905724Y-1711327D01*
X2919440Y-1716153D01*
X2961096Y-1716153D01*
X2865846Y-1619125D02*
G01*
X2865846Y-1716153D01*
X2865846Y-1619125D02*
G01*
X2829016Y-1716153D01*
X2792186Y-1619125D02*
G01*
X2829016Y-1716153D01*
X2792186Y-1619125D02*
G01*
X2792186Y-1716153D01*
X2761706Y-1619125D02*
G01*
X2761706Y-1716153D01*
X2761706Y-1619125D02*
G01*
X2701508Y-1619125D01*
X2761706Y-1665353D02*
G01*
X2724622Y-1665353D01*
X2761706Y-1716153D02*
G01*
X2701508Y-1716153D01*
X2666456Y-1642239D02*
G01*
X2666456Y-1637667D01*
X2661884Y-1628269D01*
X2657312Y-1623697D01*
X2647914Y-1619125D01*
X2629626Y-1619125D01*
X2620228Y-1623697D01*
X2615656Y-1628269D01*
X2611084Y-1637667D01*
X2611084Y-1646811D01*
X2615656Y-1655955D01*
X2624800Y-1669925D01*
X2671028Y-1716153D01*
X2606512Y-1716153D01*
X2552918Y-1619125D02*
G01*
X2566634Y-1623697D01*
X2571206Y-1632841D01*
X2571206Y-1642239D01*
X2566634Y-1651383D01*
X2557490Y-1655955D01*
X2538948Y-1660527D01*
X2525232Y-1665353D01*
X2515834Y-1674497D01*
X2511262Y-1683641D01*
X2511262Y-1697611D01*
X2515834Y-1706755D01*
X2520406Y-1711327D01*
X2534376Y-1716153D01*
X2552918Y-1716153D01*
X2566634Y-1711327D01*
X2571206Y-1706755D01*
X2576032Y-1697611D01*
X2576032Y-1683641D01*
X2571206Y-1674497D01*
X2562062Y-1665353D01*
X2548346Y-1660527D01*
X2529804Y-1655955D01*
X2520406Y-1651383D01*
X2515834Y-1642239D01*
X2515834Y-1632841D01*
X2520406Y-1623697D01*
X2534376Y-1619125D01*
X2552918Y-1619125D01*
X2453096Y-1619125D02*
G01*
X2467066Y-1623697D01*
X2476210Y-1637667D01*
X2480782Y-1660527D01*
X2480782Y-1674497D01*
X2476210Y-1697611D01*
X2467066Y-1711327D01*
X2453096Y-1716153D01*
X2443952Y-1716153D01*
X2429982Y-1711327D01*
X2420838Y-1697611D01*
X2416266Y-1674497D01*
X2416266Y-1660527D01*
X2420838Y-1637667D01*
X2429982Y-1623697D01*
X2443952Y-1619125D01*
X2453096Y-1619125D01*
X2886163Y-1787779D02*
G01*
X2922993Y-1884806D01*
X2886163Y-1787779D02*
G01*
X2849079Y-1884806D01*
X2909023Y-1852548D02*
G01*
X2863049Y-1852548D01*
X2818599Y-1787779D02*
G01*
X2818599Y-1884806D01*
X2754083Y-1787779D02*
G01*
X2754083Y-1884806D01*
X2818599Y-1834006D02*
G01*
X2754083Y-1834006D01*
X2691091Y-1787779D02*
G01*
X2691091Y-1884806D01*
X2723603Y-1787779D02*
G01*
X2658833Y-1787779D01*
X2623781Y-1810893D02*
G01*
X2623781Y-1806320D01*
X2619209Y-1797177D01*
X2614383Y-1792604D01*
X2605239Y-1787779D01*
X2586697Y-1787779D01*
X2577553Y-1792604D01*
X2572981Y-1797177D01*
X2568409Y-1806320D01*
X2568409Y-1815464D01*
X2572981Y-1824862D01*
X2582125Y-1838579D01*
X2628353Y-1884806D01*
X2563583Y-1884806D01*
X2505417Y-1787779D02*
G01*
X2519387Y-1792604D01*
X2528531Y-1806320D01*
X2533103Y-1829435D01*
X2533103Y-1843404D01*
X2528531Y-1866264D01*
X2519387Y-1880235D01*
X2505417Y-1884806D01*
X2496273Y-1884806D01*
X2482303Y-1880235D01*
X2473159Y-1866264D01*
X2468587Y-1843404D01*
X2468587Y-1829435D01*
X2473159Y-1806320D01*
X2482303Y-1792604D01*
X2496273Y-1787779D01*
X2505417Y-1787779D01*
D11*
X537441Y195453D02*
G01*
X530169Y199090D01*
X522894Y206362D01*
X519259Y213636D01*
X519259Y228180D01*
X522894Y235452D01*
X530169Y242727D01*
X537441Y246362D01*
X548350Y249999D01*
X566531Y249999D01*
X577441Y246362D01*
X584713Y242727D01*
X591985Y235452D01*
X595622Y228180D01*
X595622Y213636D01*
X591985Y206362D01*
X584713Y199090D01*
X577441Y195453D01*
X519259Y149636D02*
G01*
X522894Y156908D01*
X530169Y164180D01*
X537441Y167817D01*
X548350Y171455D01*
X566531Y171455D01*
X577441Y167817D01*
X584713Y164180D01*
X591985Y156908D01*
X595622Y149636D01*
X595622Y135089D01*
X591985Y127817D01*
X584713Y120545D01*
X577441Y116908D01*
X566531Y113271D01*
X548350Y113271D01*
X537441Y116908D01*
X530169Y120545D01*
X522894Y127817D01*
X519259Y135089D01*
X519259Y149636D01*
X519259Y89273D02*
G01*
X595622Y89273D01*
X519259Y89273D02*
G01*
X595622Y38364D01*
X519259Y38364D02*
G01*
X595622Y38364D01*
X519259Y14363D02*
G01*
X595622Y14363D01*
X519259Y14363D02*
G01*
X595622Y-36545D01*
X519259Y-36545D02*
G01*
X595622Y-36545D01*
X533803Y-60545D02*
G01*
X530169Y-67818D01*
X519259Y-78727D01*
X595622Y-78727D01*
D10*
X2569679Y872197D02*
G01*
X2714967Y816825D01*
X2569679Y761453D02*
G01*
X2714967Y816825D01*
X2604223Y611847D02*
G01*
X2590507Y618705D01*
X2576537Y632421D01*
X2569679Y646391D01*
X2569679Y674077D01*
X2576537Y688047D01*
X2590507Y701763D01*
X2604223Y708621D01*
X2625051Y715733D01*
X2659595Y715733D01*
X2680423Y708621D01*
X2694393Y701763D01*
X2708109Y688047D01*
X2714967Y674077D01*
X2714967Y646391D01*
X2708109Y632421D01*
X2694393Y618705D01*
X2680423Y611847D01*
X2604223Y461987D02*
G01*
X2590507Y469099D01*
X2576537Y482815D01*
X2569679Y496785D01*
X2569679Y524471D01*
X2576537Y538187D01*
X2590507Y552157D01*
X2604223Y559015D01*
X2625051Y566127D01*
X2659595Y566127D01*
X2680423Y559015D01*
X2694393Y552157D01*
X2708109Y538187D01*
X2714967Y524471D01*
X2714967Y496785D01*
X2708109Y482815D01*
X2694393Y469099D01*
X2680423Y461987D01*
X2350223Y768311D02*
G01*
X2336507Y775169D01*
X2322537Y789139D01*
X2315679Y802855D01*
X2315679Y830541D01*
X2322537Y844511D01*
X2336507Y858227D01*
X2350223Y865339D01*
X2371051Y872197D01*
X2405595Y872197D01*
X2426423Y865339D01*
X2440393Y858227D01*
X2454109Y844511D01*
X2460967Y830541D01*
X2460967Y802855D01*
X2454109Y789139D01*
X2440393Y775169D01*
X2426423Y768311D01*
X2405595Y768311D01*
X2405595Y802855D02*
G01*
X2405595Y768311D01*
X2315679Y722591D02*
G01*
X2460967Y722591D01*
X2315679Y722591D02*
G01*
X2460967Y625563D01*
X2315679Y625563D02*
G01*
X2460967Y625563D01*
X2315679Y579843D02*
G01*
X2460967Y579843D01*
X2315679Y579843D02*
G01*
X2315679Y531329D01*
X2322537Y510501D01*
X2336507Y496785D01*
X2350223Y489927D01*
X2371051Y482815D01*
X2405595Y482815D01*
X2426423Y489927D01*
X2440393Y496785D01*
X2454109Y510501D01*
X2460967Y531329D01*
X2460967Y579843D01*
X2082507Y775169D02*
G01*
X2068537Y789139D01*
X2061679Y809967D01*
X2061679Y837653D01*
X2068537Y858227D01*
X2082507Y872197D01*
X2096223Y872197D01*
X2110193Y865339D01*
X2117051Y858227D01*
X2123909Y844511D01*
X2137879Y802855D01*
X2144737Y789139D01*
X2151595Y782027D01*
X2165565Y775169D01*
X2186393Y775169D01*
X2200109Y789139D01*
X2206967Y809967D01*
X2206967Y837653D01*
X2200109Y858227D01*
X2186393Y872197D01*
X2096223Y625563D02*
G01*
X2082507Y632421D01*
X2068537Y646391D01*
X2061679Y660107D01*
X2061679Y688047D01*
X2068537Y701763D01*
X2082507Y715733D01*
X2096223Y722591D01*
X2117051Y729449D01*
X2151595Y729449D01*
X2172423Y722591D01*
X2186393Y715733D01*
X2200109Y701763D01*
X2206967Y688047D01*
X2206967Y660107D01*
X2200109Y646391D01*
X2186393Y632421D01*
X2172423Y625563D01*
X2061679Y579843D02*
G01*
X2206967Y579843D01*
X2206967Y579843D02*
G01*
X2206967Y496785D01*
X1828507Y775169D02*
G01*
X1814537Y789139D01*
X1807679Y809967D01*
X1807679Y837653D01*
X1814537Y858227D01*
X1828507Y872197D01*
X1842223Y872197D01*
X1856193Y865339D01*
X1863051Y858227D01*
X1869909Y844511D01*
X1883879Y802855D01*
X1890737Y789139D01*
X1897595Y782027D01*
X1911565Y775169D01*
X1932393Y775169D01*
X1946109Y789139D01*
X1952967Y809967D01*
X1952967Y837653D01*
X1946109Y858227D01*
X1932393Y872197D01*
X1807679Y729449D02*
G01*
X1952967Y729449D01*
X1807679Y729449D02*
G01*
X1807679Y680935D01*
X1814537Y660107D01*
X1828507Y646391D01*
X1842223Y639533D01*
X1863051Y632421D01*
X1897595Y632421D01*
X1918423Y639533D01*
X1932393Y646391D01*
X1946109Y660107D01*
X1952967Y680935D01*
X1952967Y729449D01*
X1807679Y531329D02*
G01*
X1952967Y586701D01*
X1807679Y531329D02*
G01*
X1952967Y475957D01*
X1904707Y566127D02*
G01*
X1904707Y496785D01*
X1553679Y816825D02*
G01*
X1698967Y872197D01*
X1553679Y816825D02*
G01*
X1698967Y761453D01*
X1650707Y851369D02*
G01*
X1650707Y782027D01*
X1553679Y715733D02*
G01*
X1698967Y715733D01*
X1553679Y715733D02*
G01*
X1553679Y667219D01*
X1560537Y646391D01*
X1574507Y632421D01*
X1588223Y625563D01*
X1609051Y618705D01*
X1643595Y618705D01*
X1664423Y625563D01*
X1678393Y632421D01*
X1692109Y646391D01*
X1698967Y667219D01*
X1698967Y715733D01*
X1553679Y572985D02*
G01*
X1698967Y572985D01*
X1553679Y572985D02*
G01*
X1553679Y524471D01*
X1560537Y503643D01*
X1574507Y489927D01*
X1588223Y482815D01*
X1609051Y475957D01*
X1643595Y475957D01*
X1664423Y482815D01*
X1678393Y489927D01*
X1692109Y503643D01*
X1698967Y524471D01*
X1698967Y572985D01*
X1553679Y430237D02*
G01*
X1698967Y430237D01*
X1553679Y430237D02*
G01*
X1553679Y368007D01*
X1560537Y347179D01*
X1567395Y340067D01*
X1581365Y333209D01*
X1595081Y333209D01*
X1609051Y340067D01*
X1615909Y347179D01*
X1622767Y368007D01*
X1622767Y430237D01*
X1622767Y381723D02*
G01*
X1698967Y333209D01*
D12*
X3469093Y-2690495D02*
G01*
X3469093Y-1090498D01*
X1869097Y-1090498D01*
X1869097Y-2690495D01*
X3469093Y-2690495D01*
X669998Y-105001D02*
G01*
X669998Y1104996D01*
X669998Y1104996D02*
G01*
X1029997Y1104996D01*
X1029997Y-105001D01*
X669998Y-105001D01*
X1484337Y922997D02*
G01*
X1484337Y1176997D01*
X1712937Y1176997D01*
X2017737Y1176997D01*
X2757134Y1176997D01*
X2754337Y1176997D01*
X2754337Y922997D01*
X1484337Y922997D01*
G75*
G01*
X1970877Y-1610611D02*
G03*
X2224877Y-1864611I126617J-127384D01*
G75*
G01*
X2224110Y-1865379D02*
G03*
X1970110Y-1611379I-126616J127384D01*
G75*
G01*
X3113494Y-1598295D02*
G03*
X3367494Y-1852295I126617J-127383D01*
G75*
G01*
X3367494Y-1852295D02*
G03*
X3113494Y-1598295I-126617J127383D01*
X650001Y-1449997D02*
G01*
X1149997Y-1449997D01*
X1149997Y-2449995D01*
X650001Y-2449995D01*
X650001Y-1449997D01*
M02*
