G04 Layer: BottomLayer*
G04 EasyEDA v6.5.46, 2025-08-02 21:40:15*
G04 8832990329004e7ebfdb3d49b5405116,ba325f3f76be48ccbdad7cc867071ff5,10*
G04 Gerber Generator version 0.2*
G04 Scale: 100 percent, Rotated: No, Reflected: No *
G04 Dimensions in millimeters *
G04 leading zeros omitted , absolute positions ,4 integer and 5 decimal *
%FSLAX45Y45*%
%MOMM*%

%AMMACRO1*21,1,$1,$2,0,0,$3*%
%ADD10C,0.2540*%
%ADD11C,0.3810*%
%ADD12C,6.1020*%
%ADD13C,1.0000*%
%ADD14MACRO1,1.524X1.524X90.0000*%
%ADD15C,1.5240*%
%ADD16C,2.0000*%
%ADD17C,1.6000*%
%ADD18C,1.8000*%
%ADD19R,1.8000X1.8000*%
%ADD20R,1.7000X1.7000*%
%ADD21C,1.7000*%
%ADD22C,1.4000*%
%ADD23C,3.0000*%
%ADD24C,0.8000*%
%ADD25C,0.6100*%
%ADD26C,0.6200*%
%ADD27C,0.0129*%

%LPD*%
G36*
X3935933Y-758647D02*
G01*
X3931869Y-757529D01*
X3928567Y-754837D01*
X3926687Y-751078D01*
X3926484Y-746810D01*
X3928059Y-742848D01*
X3934714Y-732942D01*
X3940810Y-720547D01*
X3945280Y-707390D01*
X3947972Y-693826D01*
X3948887Y-680008D01*
X3947972Y-666191D01*
X3945280Y-652576D01*
X3940810Y-639470D01*
X3934714Y-627075D01*
X3926992Y-615543D01*
X3917848Y-605129D01*
X3907434Y-595985D01*
X3895953Y-588314D01*
X3883507Y-582168D01*
X3870401Y-577748D01*
X3856837Y-575005D01*
X3843020Y-574090D01*
X3829151Y-575005D01*
X3815587Y-577748D01*
X3813149Y-578561D01*
X3809441Y-579069D01*
X3805783Y-578205D01*
X3802684Y-576122D01*
X3752545Y-526034D01*
X3745636Y-520801D01*
X3738219Y-517143D01*
X3730244Y-514858D01*
X3721557Y-514045D01*
X795832Y-514045D01*
X791921Y-513283D01*
X788670Y-511048D01*
X742899Y-465328D01*
X740664Y-462026D01*
X739902Y-458114D01*
X739902Y7873D01*
X740664Y11734D01*
X742899Y15036D01*
X746150Y17221D01*
X750062Y18034D01*
X753973Y17221D01*
X757224Y15036D01*
X766521Y5791D01*
X778510Y-3606D01*
X791514Y-11480D01*
X793648Y-12446D01*
X793648Y43637D01*
X750062Y43637D01*
X746150Y44399D01*
X742899Y46634D01*
X740664Y49936D01*
X739902Y53797D01*
X739902Y146202D01*
X740664Y150063D01*
X742899Y153365D01*
X746150Y155600D01*
X750062Y156362D01*
X793648Y156362D01*
X793648Y212445D01*
X791514Y211480D01*
X778510Y203606D01*
X766521Y194208D01*
X757224Y184962D01*
X753973Y182778D01*
X750062Y181965D01*
X746150Y182778D01*
X742899Y184962D01*
X740664Y188264D01*
X739902Y192125D01*
X739902Y322122D01*
X740664Y325983D01*
X742899Y329285D01*
X793851Y380288D01*
X797255Y382524D01*
X801268Y383235D01*
X805332Y382270D01*
X819861Y377748D01*
X834847Y375005D01*
X849985Y374091D01*
X865174Y375005D01*
X880110Y377748D01*
X894638Y382270D01*
X908507Y388518D01*
X921512Y396392D01*
X933500Y405790D01*
X944219Y416509D01*
X953617Y428498D01*
X961491Y441502D01*
X967689Y455371D01*
X972210Y469849D01*
X974953Y484835D01*
X975868Y499973D01*
X974953Y515162D01*
X972210Y530148D01*
X967689Y544626D01*
X961491Y558495D01*
X953617Y571500D01*
X944219Y583488D01*
X933500Y594207D01*
X921512Y603605D01*
X908507Y611479D01*
X894638Y617728D01*
X880110Y622249D01*
X865174Y624992D01*
X849985Y625906D01*
X834847Y624992D01*
X819861Y622249D01*
X813206Y620166D01*
X809447Y619709D01*
X805789Y620674D01*
X802741Y622909D01*
X800709Y626110D01*
X799998Y629869D01*
X799998Y770128D01*
X800709Y773887D01*
X802741Y777087D01*
X805789Y779322D01*
X809447Y780288D01*
X813206Y779830D01*
X819861Y777748D01*
X834847Y775004D01*
X849985Y774090D01*
X865174Y775004D01*
X880110Y777748D01*
X894638Y782269D01*
X908507Y788517D01*
X921512Y796391D01*
X933500Y805789D01*
X944219Y816508D01*
X953617Y828497D01*
X961491Y841502D01*
X967689Y855370D01*
X972210Y869848D01*
X974953Y884834D01*
X975868Y899972D01*
X974953Y915162D01*
X972210Y930148D01*
X967689Y944626D01*
X961491Y958494D01*
X953617Y971499D01*
X944168Y983589D01*
X942238Y987653D01*
X942238Y992174D01*
X944219Y996187D01*
X947775Y998982D01*
X952144Y999998D01*
X1289862Y999998D01*
X1293723Y999236D01*
X1297025Y997000D01*
X1299210Y993749D01*
X1300022Y989837D01*
X1300022Y201015D01*
X1300988Y199999D01*
X4099001Y199999D01*
X4100017Y201015D01*
X4100017Y989837D01*
X4100779Y993749D01*
X4102963Y997000D01*
X4106265Y999236D01*
X4110177Y999998D01*
X4589830Y999998D01*
X4593742Y999236D01*
X4596993Y997000D01*
X4599228Y993749D01*
X4599990Y989837D01*
X4599990Y421081D01*
X4599381Y417576D01*
X4597603Y414477D01*
X4594860Y412242D01*
X4594860Y348843D01*
X4656886Y348843D01*
X4656886Y384403D01*
X4656429Y388721D01*
X4656836Y392938D01*
X4658918Y396595D01*
X4662373Y399135D01*
X4666488Y399999D01*
X4718862Y399999D01*
X4722723Y399237D01*
X4726025Y397052D01*
X4728210Y393801D01*
X4729022Y389940D01*
X4728311Y386080D01*
X4726127Y382727D01*
X4715560Y371856D01*
X4707077Y360476D01*
X4700066Y348132D01*
X4694732Y334924D01*
X4691126Y321208D01*
X4689348Y307086D01*
X4689348Y292912D01*
X4691126Y278790D01*
X4694732Y265074D01*
X4700066Y251866D01*
X4707077Y239521D01*
X4715560Y228142D01*
X4725416Y217932D01*
X4736541Y209042D01*
X4748682Y201676D01*
X4761687Y195935D01*
X4775301Y191871D01*
X4789322Y189636D01*
X4803546Y189179D01*
X4817668Y190550D01*
X4831537Y193700D01*
X4844897Y198628D01*
X4857496Y205181D01*
X4869129Y213309D01*
X4879644Y222859D01*
X4888839Y233679D01*
X4896612Y245567D01*
X4902758Y258368D01*
X4907229Y271881D01*
X4909972Y285800D01*
X4910886Y299974D01*
X4909972Y314198D01*
X4907229Y328117D01*
X4903114Y340614D01*
X4902606Y344271D01*
X4903470Y347929D01*
X4905552Y350977D01*
X4930444Y375818D01*
X4933746Y378053D01*
X4937607Y378815D01*
X4954473Y378815D01*
X4958842Y377850D01*
X4962347Y375107D01*
X4964328Y371094D01*
X4964430Y366623D01*
X4962601Y362559D01*
X4961077Y360476D01*
X4954066Y348132D01*
X4948732Y334924D01*
X4945126Y321208D01*
X4943348Y307086D01*
X4943348Y292912D01*
X4945126Y278790D01*
X4948732Y265074D01*
X4950764Y260096D01*
X4951476Y256235D01*
X4950714Y252374D01*
X4948529Y249123D01*
X3943705Y-755700D01*
X3940149Y-757986D01*
G37*

%LPC*%
G36*
X906373Y-12446D02*
G01*
X908507Y-11480D01*
X921512Y-3606D01*
X933500Y5791D01*
X944219Y16510D01*
X953617Y28498D01*
X961491Y41503D01*
X962456Y43637D01*
X906373Y43637D01*
G37*
G36*
X906373Y156362D02*
G01*
X962456Y156362D01*
X961491Y158496D01*
X953617Y171500D01*
X944219Y183489D01*
X933500Y194208D01*
X921512Y203606D01*
X908507Y211480D01*
X906373Y212445D01*
G37*
G36*
X4594860Y189077D02*
G01*
X4630420Y189077D01*
X4636719Y189788D01*
X4642205Y191719D01*
X4647082Y194818D01*
X4651197Y198882D01*
X4654296Y203809D01*
X4656175Y209245D01*
X4656886Y215595D01*
X4656886Y251155D01*
X4594860Y251155D01*
G37*
G36*
X4461560Y189077D02*
G01*
X4497120Y189077D01*
X4497120Y251155D01*
X4435094Y251155D01*
X4435094Y215595D01*
X4435805Y209245D01*
X4437684Y203809D01*
X4440783Y198882D01*
X4444898Y194818D01*
X4449775Y191719D01*
X4455261Y189788D01*
G37*
G36*
X4435094Y348843D02*
G01*
X4497120Y348843D01*
X4497120Y410921D01*
X4461560Y410921D01*
X4455261Y410209D01*
X4449775Y408279D01*
X4444898Y405180D01*
X4440783Y401116D01*
X4437684Y396189D01*
X4435805Y390753D01*
X4435094Y384403D01*
G37*

%LPD*%
G36*
X4734052Y-2204516D02*
G01*
X4729683Y-2203907D01*
X4725974Y-2201570D01*
X4697476Y-2173071D01*
X4691227Y-2167940D01*
X4684572Y-2164384D01*
X4677359Y-2162200D01*
X4669332Y-2161387D01*
X4643120Y-2161387D01*
X4639360Y-2160676D01*
X4636160Y-2158644D01*
X4633925Y-2155545D01*
X4628540Y-2144166D01*
X4620768Y-2131872D01*
X4611471Y-2120646D01*
X4600854Y-2110689D01*
X4589068Y-2102154D01*
X4576318Y-2095144D01*
X4562805Y-2089759D01*
X4548682Y-2086152D01*
X4534255Y-2084324D01*
X4519726Y-2084324D01*
X4509922Y-2085593D01*
X4506874Y-2085492D01*
X4503978Y-2084476D01*
X4501489Y-2082698D01*
X4224629Y-1805838D01*
X4222394Y-1802536D01*
X4221632Y-1798624D01*
X4221632Y-1751330D01*
X4198213Y-1751330D01*
X4194301Y-1750568D01*
X4191000Y-1748383D01*
X4188815Y-1745081D01*
X4188053Y-1741170D01*
X4188053Y-1658823D01*
X4188815Y-1654911D01*
X4191000Y-1651609D01*
X4194301Y-1649425D01*
X4198213Y-1648663D01*
X4221632Y-1648663D01*
X4221632Y-1596237D01*
X4210913Y-1602130D01*
X4204157Y-1607058D01*
X4200093Y-1608785D01*
X4195673Y-1608683D01*
X4191711Y-1606651D01*
X4189018Y-1603146D01*
X4188053Y-1598828D01*
X4188053Y-1582572D01*
X4187240Y-1574546D01*
X4185056Y-1567332D01*
X4181500Y-1560626D01*
X4176369Y-1554429D01*
X3925163Y-1303223D01*
X3918915Y-1298092D01*
X3912260Y-1294536D01*
X3906316Y-1292707D01*
X3902964Y-1290980D01*
X3900474Y-1288084D01*
X3899255Y-1284478D01*
X3899408Y-1280718D01*
X3900932Y-1277213D01*
X3903624Y-1274572D01*
X3907434Y-1271981D01*
X3917848Y-1262888D01*
X3926992Y-1252474D01*
X3934714Y-1240942D01*
X3938981Y-1232255D01*
X3941216Y-1229258D01*
X3944416Y-1227277D01*
X3948074Y-1226616D01*
X4567783Y-1226616D01*
X4571695Y-1227378D01*
X4574997Y-1229563D01*
X4758385Y-1413002D01*
X4760620Y-1416304D01*
X4761382Y-1420215D01*
X4761382Y-2154021D01*
X4760823Y-2157425D01*
X4759147Y-2160422D01*
X4752848Y-2168144D01*
X4748174Y-2176576D01*
X4744974Y-2185670D01*
X4743196Y-2196084D01*
X4741519Y-2200148D01*
X4738268Y-2203145D01*
G37*

%LPC*%
G36*
X4519726Y-1815642D02*
G01*
X4534255Y-1815642D01*
X4548682Y-1813814D01*
X4562805Y-1810207D01*
X4576318Y-1804873D01*
X4589068Y-1797862D01*
X4600854Y-1789277D01*
X4611471Y-1779320D01*
X4620768Y-1768093D01*
X4628540Y-1755851D01*
X4634738Y-1742643D01*
X4639259Y-1728825D01*
X4641951Y-1714500D01*
X4642866Y-1700022D01*
X4641951Y-1685493D01*
X4639259Y-1671167D01*
X4634738Y-1657350D01*
X4628540Y-1644142D01*
X4620768Y-1631899D01*
X4611471Y-1620672D01*
X4600854Y-1610715D01*
X4589068Y-1602130D01*
X4576318Y-1595120D01*
X4562805Y-1589786D01*
X4548682Y-1586179D01*
X4534255Y-1584350D01*
X4519726Y-1584350D01*
X4505299Y-1586179D01*
X4491177Y-1589786D01*
X4477664Y-1595120D01*
X4464913Y-1602130D01*
X4453128Y-1610715D01*
X4442510Y-1620672D01*
X4433214Y-1631899D01*
X4425442Y-1644142D01*
X4419244Y-1657350D01*
X4414723Y-1671167D01*
X4412030Y-1685493D01*
X4411116Y-1700022D01*
X4412030Y-1714500D01*
X4414723Y-1728825D01*
X4419244Y-1742643D01*
X4425442Y-1755851D01*
X4433214Y-1768093D01*
X4442510Y-1779320D01*
X4453128Y-1789277D01*
X4464913Y-1797862D01*
X4477664Y-1804873D01*
X4491177Y-1810207D01*
X4505299Y-1813814D01*
G37*
G36*
X4324350Y-1803755D02*
G01*
X4335068Y-1797862D01*
X4346854Y-1789277D01*
X4357471Y-1779320D01*
X4366768Y-1768093D01*
X4374540Y-1755851D01*
X4376674Y-1751330D01*
X4324350Y-1751330D01*
G37*
G36*
X4324350Y-1648663D02*
G01*
X4376674Y-1648663D01*
X4374540Y-1644142D01*
X4366768Y-1631899D01*
X4357471Y-1620672D01*
X4346854Y-1610715D01*
X4335068Y-1602130D01*
X4324350Y-1596237D01*
G37*

%LPD*%
G36*
X5148986Y-2884271D02*
G01*
X5145024Y-2883560D01*
X5141671Y-2881376D01*
X5139385Y-2878074D01*
X5138623Y-2874111D01*
X5138623Y-2798673D01*
X5139588Y-2794355D01*
X5142280Y-2790850D01*
X5146243Y-2788818D01*
X5150662Y-2788716D01*
X5154726Y-2790444D01*
X5164886Y-2797860D01*
X5175656Y-2803753D01*
X5175656Y-2751328D01*
X5148783Y-2751328D01*
X5144871Y-2750566D01*
X5141569Y-2748381D01*
X5139385Y-2745079D01*
X5138623Y-2741168D01*
X5138623Y-2658821D01*
X5139385Y-2654909D01*
X5141569Y-2651607D01*
X5144871Y-2649423D01*
X5148783Y-2648661D01*
X5175656Y-2648661D01*
X5175656Y-2596235D01*
X5164886Y-2602128D01*
X5153101Y-2610713D01*
X5149443Y-2614168D01*
X5146344Y-2616149D01*
X5142687Y-2616911D01*
X5139029Y-2616301D01*
X5135829Y-2614422D01*
X5133543Y-2611526D01*
X5132070Y-2608732D01*
X5126939Y-2602534D01*
X4798263Y-2273858D01*
X4795875Y-2270048D01*
X4795367Y-2265578D01*
X4796790Y-2261362D01*
X4799939Y-2258110D01*
X4804156Y-2256586D01*
X4811979Y-2255570D01*
X4821174Y-2252776D01*
X4829810Y-2248408D01*
X4837582Y-2242667D01*
X4844237Y-2235708D01*
X4849622Y-2227732D01*
X4853635Y-2218944D01*
X4856022Y-2209596D01*
X4856886Y-2199995D01*
X4856022Y-2190394D01*
X4853635Y-2181047D01*
X4849622Y-2172258D01*
X4844237Y-2164283D01*
X4841443Y-2161336D01*
X4839309Y-2158085D01*
X4838598Y-2154275D01*
X4838598Y-1400505D01*
X4837785Y-1392478D01*
X4835601Y-1385265D01*
X4832045Y-1378559D01*
X4826914Y-1372362D01*
X4615637Y-1161034D01*
X4609388Y-1155954D01*
X4602734Y-1152347D01*
X4595520Y-1150162D01*
X4587494Y-1149400D01*
X3948074Y-1149400D01*
X3944416Y-1148689D01*
X3941216Y-1146708D01*
X3938981Y-1143711D01*
X3934714Y-1135075D01*
X3926992Y-1123543D01*
X3917899Y-1113129D01*
X3906520Y-1103274D01*
X3903929Y-1099769D01*
X3903065Y-1095451D01*
X3904030Y-1091234D01*
X3906774Y-1087780D01*
X3909314Y-1085697D01*
X5182666Y187655D01*
X5185918Y189890D01*
X5189829Y190652D01*
X5193741Y189890D01*
X5196992Y187655D01*
X5199227Y184353D01*
X5199989Y180492D01*
X5199989Y-2864561D01*
X5199278Y-2868269D01*
X5197246Y-2871520D01*
X5194147Y-2873756D01*
X5190439Y-2874670D01*
X5184800Y-2875026D01*
X5169865Y-2877769D01*
X5155336Y-2882290D01*
X5152948Y-2883357D01*
G37*

%LPC*%
G36*
X4583582Y-715924D02*
G01*
X4762398Y-715924D01*
X4768748Y-715213D01*
X4774184Y-713282D01*
X4779111Y-710184D01*
X4783175Y-706120D01*
X4786274Y-701192D01*
X4788204Y-695756D01*
X4788916Y-689406D01*
X4788916Y-510590D01*
X4788204Y-504240D01*
X4786274Y-498805D01*
X4783175Y-493877D01*
X4779111Y-489813D01*
X4774184Y-486714D01*
X4768748Y-484784D01*
X4762398Y-484073D01*
X4583582Y-484073D01*
X4577232Y-484784D01*
X4571796Y-486714D01*
X4566869Y-489813D01*
X4562805Y-493877D01*
X4559706Y-498805D01*
X4557776Y-504240D01*
X4557064Y-510590D01*
X4557064Y-689406D01*
X4557776Y-695756D01*
X4559706Y-701192D01*
X4562805Y-706120D01*
X4566869Y-710184D01*
X4571796Y-713282D01*
X4577232Y-715213D01*
G37*
G36*
X4875631Y-703732D02*
G01*
X4875631Y-651357D01*
X4823307Y-651357D01*
X4825441Y-655828D01*
X4833213Y-668121D01*
X4842510Y-679348D01*
X4853127Y-689305D01*
X4864912Y-697839D01*
G37*
G36*
X4978349Y-703732D02*
G01*
X4989068Y-697839D01*
X5000853Y-689305D01*
X5011470Y-679348D01*
X5020767Y-668121D01*
X5028539Y-655828D01*
X5030673Y-651357D01*
X4978349Y-651357D01*
G37*
G36*
X4823307Y-548640D02*
G01*
X4875631Y-548640D01*
X4875631Y-496265D01*
X4864912Y-502158D01*
X4853127Y-510692D01*
X4842510Y-520649D01*
X4833213Y-531876D01*
X4825441Y-544169D01*
G37*
G36*
X4978349Y-548640D02*
G01*
X5030673Y-548640D01*
X5028539Y-544169D01*
X5020767Y-531876D01*
X5011470Y-520649D01*
X5000853Y-510692D01*
X4989068Y-502158D01*
X4978349Y-496265D01*
G37*

%LPD*%
G36*
X4264355Y-3099358D02*
G01*
X4260596Y-3098546D01*
X4257395Y-3096412D01*
X4030472Y-2869488D01*
X4028287Y-2866186D01*
X4027525Y-2862275D01*
X4027525Y-1588363D01*
X4026712Y-1580337D01*
X4024528Y-1573123D01*
X4020972Y-1566468D01*
X4015841Y-1560220D01*
X3944620Y-1488998D01*
X3942486Y-1485900D01*
X3941622Y-1482242D01*
X3942181Y-1478534D01*
X3945280Y-1469390D01*
X3947668Y-1457299D01*
X3949446Y-1453286D01*
X3952697Y-1450390D01*
X3956862Y-1449120D01*
X3961180Y-1449730D01*
X3964838Y-1452067D01*
X4107840Y-1595069D01*
X4110024Y-1598371D01*
X4110837Y-1602282D01*
X4110837Y-1784705D01*
X4111599Y-1792732D01*
X4113784Y-1799996D01*
X4117340Y-1806651D01*
X4122470Y-1812848D01*
X4430674Y-2121103D01*
X4432655Y-2123846D01*
X4433620Y-2127148D01*
X4433417Y-2130552D01*
X4432096Y-2133701D01*
X4425442Y-2144166D01*
X4419244Y-2157323D01*
X4414723Y-2171192D01*
X4412030Y-2185466D01*
X4411116Y-2199995D01*
X4412030Y-2214524D01*
X4414723Y-2228799D01*
X4419244Y-2242667D01*
X4425442Y-2255824D01*
X4433214Y-2268118D01*
X4442510Y-2279345D01*
X4453128Y-2289302D01*
X4464913Y-2297836D01*
X4477664Y-2304846D01*
X4491177Y-2310231D01*
X4505299Y-2313838D01*
X4519726Y-2315667D01*
X4534255Y-2315667D01*
X4548682Y-2313838D01*
X4562805Y-2310231D01*
X4576318Y-2304846D01*
X4589068Y-2297836D01*
X4600854Y-2289302D01*
X4611471Y-2279345D01*
X4620768Y-2268118D01*
X4628540Y-2255824D01*
X4633925Y-2244445D01*
X4636160Y-2241346D01*
X4639360Y-2239314D01*
X4643120Y-2238603D01*
X4649622Y-2238603D01*
X4653483Y-2239365D01*
X4656785Y-2241600D01*
X4982210Y-2566974D01*
X4984394Y-2570276D01*
X4985207Y-2574188D01*
X4984394Y-2578049D01*
X4982210Y-2581351D01*
X4978908Y-2583586D01*
X4975047Y-2584348D01*
X4965700Y-2584348D01*
X4951272Y-2586177D01*
X4937201Y-2589784D01*
X4923637Y-2595118D01*
X4910886Y-2602128D01*
X4899101Y-2610713D01*
X4888534Y-2620670D01*
X4879238Y-2631897D01*
X4871415Y-2644140D01*
X4865217Y-2657348D01*
X4860747Y-2671165D01*
X4858004Y-2685491D01*
X4857089Y-2700020D01*
X4858004Y-2714498D01*
X4860747Y-2728823D01*
X4863693Y-2737866D01*
X4864150Y-2741523D01*
X4863287Y-2745130D01*
X4861204Y-2748178D01*
X4557369Y-3052064D01*
X4554067Y-3054248D01*
X4550156Y-3055061D01*
X4524146Y-3055061D01*
X4520336Y-3054299D01*
X4517085Y-3052216D01*
X4514850Y-3049066D01*
X4511446Y-3041497D01*
X4503572Y-3028492D01*
X4494225Y-3016504D01*
X4483455Y-3005785D01*
X4471517Y-2996387D01*
X4458512Y-2988513D01*
X4444644Y-2982264D01*
X4430115Y-2977743D01*
X4415180Y-2975000D01*
X4399991Y-2974086D01*
X4384802Y-2975000D01*
X4369866Y-2977743D01*
X4355338Y-2982264D01*
X4341469Y-2988513D01*
X4328464Y-2996387D01*
X4316526Y-3005785D01*
X4305757Y-3016504D01*
X4296410Y-3028492D01*
X4288536Y-3041497D01*
X4282287Y-3055366D01*
X4277766Y-3069844D01*
X4275023Y-3084830D01*
X4274718Y-3089808D01*
X4273753Y-3093567D01*
X4271467Y-3096666D01*
X4268165Y-3098698D01*
G37*

%LPC*%
G36*
X4502404Y-2956814D02*
G01*
X4511954Y-2955594D01*
X4521200Y-2952750D01*
X4529785Y-2948432D01*
X4537557Y-2942691D01*
X4544263Y-2935732D01*
X4549648Y-2927705D01*
X4553610Y-2918917D01*
X4556048Y-2909620D01*
X4556760Y-2901188D01*
X4557674Y-2897784D01*
X4559706Y-2894888D01*
X4694783Y-2759760D01*
X4698288Y-2757525D01*
X4702403Y-2756814D01*
X4711954Y-2755595D01*
X4721199Y-2752750D01*
X4729784Y-2748432D01*
X4737557Y-2742692D01*
X4744262Y-2735732D01*
X4749647Y-2727706D01*
X4753610Y-2718917D01*
X4756048Y-2709621D01*
X4756861Y-2700020D01*
X4756048Y-2690368D01*
X4753610Y-2681071D01*
X4749647Y-2672283D01*
X4744262Y-2664256D01*
X4737557Y-2657297D01*
X4729784Y-2651556D01*
X4721199Y-2647238D01*
X4711954Y-2644394D01*
X4702403Y-2643174D01*
X4692751Y-2643581D01*
X4683353Y-2645613D01*
X4674362Y-2649220D01*
X4666183Y-2654249D01*
X4658918Y-2660650D01*
X4654245Y-2666492D01*
X4650841Y-2669184D01*
X4646625Y-2670251D01*
X4642408Y-2669438D01*
X4638852Y-2666949D01*
X4636668Y-2663240D01*
X4634738Y-2657348D01*
X4628540Y-2644140D01*
X4620768Y-2631897D01*
X4611471Y-2620670D01*
X4600854Y-2610713D01*
X4589068Y-2602128D01*
X4576318Y-2595118D01*
X4562805Y-2589784D01*
X4548682Y-2586177D01*
X4534255Y-2584348D01*
X4519726Y-2584348D01*
X4505299Y-2586177D01*
X4491177Y-2589784D01*
X4477664Y-2595118D01*
X4464913Y-2602128D01*
X4453128Y-2610713D01*
X4442510Y-2620670D01*
X4433214Y-2631897D01*
X4425442Y-2644140D01*
X4419244Y-2657348D01*
X4414723Y-2671165D01*
X4412030Y-2685491D01*
X4411116Y-2700020D01*
X4412030Y-2714498D01*
X4414723Y-2728823D01*
X4419244Y-2742641D01*
X4425442Y-2755849D01*
X4433214Y-2768092D01*
X4442510Y-2779318D01*
X4453128Y-2789275D01*
X4464913Y-2797860D01*
X4477664Y-2804871D01*
X4491177Y-2810205D01*
X4505299Y-2813812D01*
X4508042Y-2814167D01*
X4512259Y-2815691D01*
X4515408Y-2818942D01*
X4516882Y-2823159D01*
X4516323Y-2827629D01*
X4513935Y-2831439D01*
X4504994Y-2840380D01*
X4501896Y-2842514D01*
X4498238Y-2843326D01*
X4492752Y-2843580D01*
X4483354Y-2845612D01*
X4474362Y-2849219D01*
X4466183Y-2854248D01*
X4458919Y-2860649D01*
X4452874Y-2868168D01*
X4448149Y-2876550D01*
X4444949Y-2885643D01*
X4443323Y-2895193D01*
X4443323Y-2904794D01*
X4444949Y-2914345D01*
X4448149Y-2923438D01*
X4452874Y-2931820D01*
X4458919Y-2939338D01*
X4466183Y-2945739D01*
X4474362Y-2950768D01*
X4483354Y-2954375D01*
X4492752Y-2956407D01*
G37*
G36*
X4324350Y-2803753D02*
G01*
X4335068Y-2797860D01*
X4346854Y-2789275D01*
X4357471Y-2779318D01*
X4366768Y-2768092D01*
X4374540Y-2755849D01*
X4376674Y-2751328D01*
X4324350Y-2751328D01*
G37*
G36*
X4221632Y-2803753D02*
G01*
X4221632Y-2751328D01*
X4169308Y-2751328D01*
X4171442Y-2755849D01*
X4179214Y-2768092D01*
X4188510Y-2779318D01*
X4199128Y-2789275D01*
X4210913Y-2797860D01*
G37*
G36*
X4324350Y-2648661D02*
G01*
X4376674Y-2648661D01*
X4374540Y-2644140D01*
X4366768Y-2631897D01*
X4357471Y-2620670D01*
X4346854Y-2610713D01*
X4335068Y-2602128D01*
X4324350Y-2596235D01*
G37*
G36*
X4169308Y-2648661D02*
G01*
X4221632Y-2648661D01*
X4221632Y-2596235D01*
X4210913Y-2602128D01*
X4199128Y-2610713D01*
X4188510Y-2620670D01*
X4179214Y-2631897D01*
X4171442Y-2644140D01*
G37*
G36*
X4324350Y-2303729D02*
G01*
X4335068Y-2297836D01*
X4346854Y-2289302D01*
X4357471Y-2279345D01*
X4366768Y-2268118D01*
X4374540Y-2255824D01*
X4376674Y-2251354D01*
X4324350Y-2251354D01*
G37*
G36*
X4221632Y-2303729D02*
G01*
X4221632Y-2251354D01*
X4169308Y-2251354D01*
X4171442Y-2255824D01*
X4179214Y-2268118D01*
X4188510Y-2279345D01*
X4199128Y-2289302D01*
X4210913Y-2297836D01*
G37*
G36*
X4169308Y-2148636D02*
G01*
X4221632Y-2148636D01*
X4221632Y-2096262D01*
X4210913Y-2102154D01*
X4199128Y-2110689D01*
X4188510Y-2120646D01*
X4179214Y-2131872D01*
X4171442Y-2144166D01*
G37*
G36*
X4324350Y-2148636D02*
G01*
X4376674Y-2148636D01*
X4374540Y-2144166D01*
X4366768Y-2131872D01*
X4357471Y-2120646D01*
X4346854Y-2110689D01*
X4335068Y-2102154D01*
X4324350Y-2096262D01*
G37*

%LPD*%
G36*
X3695242Y-3731107D02*
G01*
X3691331Y-3730345D01*
X3688029Y-3728110D01*
X3685844Y-3724859D01*
X3685082Y-3720947D01*
X3685844Y-3717086D01*
X3688029Y-3713784D01*
X3693210Y-3708603D01*
X3698798Y-3700576D01*
X3702964Y-3691686D01*
X3705504Y-3682187D01*
X3706368Y-3672382D01*
X3705504Y-3662578D01*
X3702964Y-3653129D01*
X3698798Y-3644188D01*
X3693210Y-3636162D01*
X3686251Y-3629202D01*
X3678174Y-3623564D01*
X3669284Y-3619398D01*
X3659784Y-3616858D01*
X3650030Y-3615994D01*
X3640226Y-3616858D01*
X3632911Y-3618839D01*
X3630320Y-3619195D01*
X3581044Y-3619195D01*
X3576980Y-3618331D01*
X3573576Y-3615893D01*
X3571443Y-3612337D01*
X3570935Y-3608171D01*
X3572103Y-3604209D01*
X3574796Y-3601008D01*
X3583482Y-3594201D01*
X3594201Y-3583482D01*
X3603599Y-3571494D01*
X3611473Y-3558489D01*
X3617722Y-3544620D01*
X3622243Y-3530142D01*
X3624986Y-3515156D01*
X3625900Y-3500018D01*
X3624986Y-3484829D01*
X3622243Y-3469843D01*
X3617722Y-3455365D01*
X3611473Y-3441496D01*
X3603599Y-3428492D01*
X3594201Y-3416503D01*
X3583482Y-3405784D01*
X3571494Y-3396386D01*
X3558489Y-3388512D01*
X3544620Y-3382264D01*
X3530142Y-3377742D01*
X3515156Y-3374999D01*
X3500018Y-3374085D01*
X3484829Y-3374999D01*
X3469843Y-3377742D01*
X3455365Y-3382264D01*
X3441496Y-3388512D01*
X3428492Y-3396386D01*
X3416503Y-3405784D01*
X3405784Y-3416503D01*
X3396386Y-3428492D01*
X3388512Y-3441496D01*
X3382264Y-3455415D01*
X3380028Y-3458565D01*
X3376777Y-3460648D01*
X3373018Y-3461410D01*
X3109112Y-3461410D01*
X3105251Y-3460597D01*
X3101949Y-3458413D01*
X2846628Y-3203092D01*
X2844393Y-3199790D01*
X2843631Y-3195929D01*
X2843631Y-3156356D01*
X2804058Y-3156356D01*
X2800197Y-3155594D01*
X2796895Y-3153359D01*
X2674264Y-3030778D01*
X2668066Y-3025648D01*
X2661361Y-3022092D01*
X2657144Y-3020771D01*
X2653538Y-3018840D01*
X2650998Y-3015589D01*
X2649931Y-3011627D01*
X2650540Y-3007563D01*
X2652725Y-3004108D01*
X2656078Y-3001721D01*
X2660091Y-3000908D01*
X2797098Y-3000908D01*
X2801518Y-3001924D01*
X2805023Y-3004718D01*
X2807004Y-3008782D01*
X2807055Y-3013252D01*
X2805125Y-3017316D01*
X2796387Y-3028492D01*
X2788513Y-3041497D01*
X2787548Y-3043631D01*
X2843631Y-3043631D01*
X2843631Y-3011068D01*
X2844393Y-3007207D01*
X2846628Y-3003905D01*
X2849930Y-3001670D01*
X2853791Y-3000908D01*
X2946196Y-3000908D01*
X2950057Y-3001670D01*
X2953359Y-3003905D01*
X2955594Y-3007207D01*
X2956356Y-3011068D01*
X2956356Y-3043631D01*
X3012440Y-3043631D01*
X3011474Y-3041497D01*
X3003600Y-3028492D01*
X2994863Y-3017316D01*
X2992932Y-3013252D01*
X2992983Y-3008782D01*
X2994964Y-3004718D01*
X2998470Y-3001924D01*
X3002889Y-3000908D01*
X3342081Y-3000908D01*
X3345992Y-3001670D01*
X3349294Y-3003905D01*
X3383076Y-3037636D01*
X3385312Y-3041040D01*
X3386023Y-3045053D01*
X3385159Y-3049016D01*
X3382264Y-3055366D01*
X3377742Y-3069844D01*
X3374999Y-3084830D01*
X3374085Y-3100019D01*
X3374999Y-3115157D01*
X3377742Y-3130143D01*
X3382264Y-3144621D01*
X3388512Y-3158490D01*
X3396386Y-3171494D01*
X3405784Y-3183483D01*
X3416503Y-3194202D01*
X3428492Y-3203600D01*
X3441496Y-3211474D01*
X3455365Y-3217722D01*
X3469843Y-3222244D01*
X3484829Y-3224987D01*
X3500018Y-3225901D01*
X3515156Y-3224987D01*
X3530142Y-3222244D01*
X3544620Y-3217722D01*
X3558489Y-3211474D01*
X3571494Y-3203600D01*
X3583482Y-3194202D01*
X3594049Y-3183636D01*
X3597351Y-3181451D01*
X3601262Y-3180689D01*
X3605123Y-3181451D01*
X3608425Y-3183636D01*
X3610610Y-3186938D01*
X3611372Y-3190849D01*
X3611372Y-3349498D01*
X3612184Y-3357524D01*
X3614369Y-3364788D01*
X3617925Y-3371443D01*
X3623056Y-3377641D01*
X3683050Y-3437636D01*
X3685286Y-3441039D01*
X3686048Y-3445052D01*
X3685133Y-3449015D01*
X3682288Y-3455365D01*
X3677767Y-3469843D01*
X3675024Y-3484829D01*
X3674110Y-3500018D01*
X3675024Y-3515156D01*
X3677767Y-3530142D01*
X3682288Y-3544620D01*
X3688537Y-3558489D01*
X3696411Y-3571494D01*
X3705758Y-3583482D01*
X3716528Y-3594201D01*
X3728465Y-3603599D01*
X3741470Y-3611473D01*
X3755339Y-3617722D01*
X3769868Y-3622243D01*
X3784803Y-3624986D01*
X3799992Y-3625900D01*
X3808831Y-3625342D01*
X3812844Y-3625900D01*
X3816299Y-3628034D01*
X3818686Y-3631336D01*
X3819601Y-3635298D01*
X3818839Y-3639261D01*
X3816604Y-3642664D01*
X3731158Y-3728110D01*
X3727856Y-3730345D01*
X3723995Y-3731107D01*
G37*

%LPC*%
G36*
X2956356Y-3212439D02*
G01*
X2958490Y-3211474D01*
X2971495Y-3203600D01*
X2983484Y-3194202D01*
X2994202Y-3183483D01*
X3003600Y-3171494D01*
X3011474Y-3158490D01*
X3012440Y-3156356D01*
X2956356Y-3156356D01*
G37*

%LPD*%
G36*
X5026609Y-3861409D02*
G01*
X5022697Y-3860596D01*
X5019395Y-3858412D01*
X4403598Y-3242614D01*
X4401413Y-3239414D01*
X4400600Y-3235604D01*
X4401261Y-3231794D01*
X4403293Y-3228543D01*
X4406442Y-3226206D01*
X4410151Y-3225292D01*
X4415180Y-3224987D01*
X4430115Y-3222244D01*
X4444644Y-3217722D01*
X4458512Y-3211474D01*
X4471517Y-3203600D01*
X4483455Y-3194202D01*
X4494225Y-3183483D01*
X4503572Y-3171494D01*
X4511446Y-3158490D01*
X4514850Y-3150920D01*
X4517085Y-3147771D01*
X4520336Y-3145688D01*
X4524146Y-3144977D01*
X4574692Y-3144926D01*
X4583277Y-3143707D01*
X4591151Y-3141065D01*
X4598365Y-3137052D01*
X4605121Y-3131464D01*
X4924704Y-2811881D01*
X4927955Y-2809697D01*
X4931765Y-2808884D01*
X4951272Y-2813812D01*
X4965700Y-2815640D01*
X4980279Y-2815640D01*
X4994706Y-2813812D01*
X5008778Y-2810205D01*
X5022342Y-2804871D01*
X5035092Y-2797860D01*
X5045252Y-2790444D01*
X5049316Y-2788716D01*
X5053736Y-2788818D01*
X5057698Y-2790850D01*
X5060391Y-2794355D01*
X5061407Y-2798673D01*
X5061407Y-2899511D01*
X5062169Y-2907538D01*
X5064353Y-2914751D01*
X5067909Y-2921406D01*
X5073040Y-2927654D01*
X5083048Y-2937662D01*
X5085283Y-2941066D01*
X5086045Y-2945028D01*
X5085130Y-2948990D01*
X5082286Y-2955340D01*
X5077764Y-2969869D01*
X5075021Y-2984804D01*
X5074107Y-2999994D01*
X5075021Y-3015183D01*
X5077764Y-3030118D01*
X5082286Y-3044647D01*
X5088534Y-3058515D01*
X5096408Y-3071520D01*
X5105755Y-3083458D01*
X5116525Y-3094228D01*
X5128463Y-3103575D01*
X5141468Y-3111449D01*
X5155336Y-3117697D01*
X5169865Y-3122218D01*
X5184800Y-3124962D01*
X5190439Y-3125317D01*
X5194147Y-3126232D01*
X5197246Y-3128467D01*
X5199278Y-3131718D01*
X5199989Y-3135426D01*
X5199989Y-3764534D01*
X5199278Y-3768293D01*
X5197246Y-3771493D01*
X5194147Y-3773728D01*
X5190439Y-3774694D01*
X5184800Y-3774998D01*
X5169865Y-3777742D01*
X5155336Y-3782263D01*
X5141468Y-3788511D01*
X5128463Y-3796385D01*
X5116525Y-3805783D01*
X5105755Y-3816502D01*
X5096408Y-3828491D01*
X5088534Y-3841496D01*
X5082286Y-3855415D01*
X5080050Y-3858564D01*
X5076799Y-3860647D01*
X5072989Y-3861409D01*
G37*

%LPC*%
G36*
X5143652Y-3712413D02*
G01*
X5143652Y-3656329D01*
X5087569Y-3656329D01*
X5088534Y-3658514D01*
X5096408Y-3671519D01*
X5105755Y-3683457D01*
X5116525Y-3694226D01*
X5128463Y-3703574D01*
X5141468Y-3711448D01*
G37*
G36*
X5087569Y-3543655D02*
G01*
X5143652Y-3543655D01*
X5143652Y-3487572D01*
X5141468Y-3488537D01*
X5128463Y-3496411D01*
X5116525Y-3505758D01*
X5105755Y-3516528D01*
X5096408Y-3528466D01*
X5088534Y-3541471D01*
G37*

%LPD*%
G36*
X210159Y-4500016D02*
G01*
X206248Y-4499203D01*
X202996Y-4497019D01*
X200761Y-4493717D01*
X199999Y-4489856D01*
X199999Y389839D01*
X200761Y393750D01*
X202996Y397002D01*
X206248Y399237D01*
X210159Y399999D01*
X344881Y399999D01*
X348792Y399237D01*
X352044Y397002D01*
X354279Y393750D01*
X355041Y389839D01*
X355041Y-775868D01*
X354330Y-779678D01*
X352196Y-782878D01*
X349046Y-785114D01*
X341477Y-788517D01*
X328472Y-796391D01*
X316534Y-805789D01*
X305765Y-816508D01*
X296418Y-828497D01*
X288544Y-841502D01*
X282295Y-855370D01*
X277774Y-869848D01*
X275031Y-884834D01*
X274116Y-900023D01*
X275031Y-915162D01*
X277774Y-930148D01*
X282295Y-944626D01*
X288544Y-958494D01*
X296418Y-971499D01*
X305765Y-983487D01*
X316534Y-994206D01*
X328472Y-1003604D01*
X341477Y-1011478D01*
X355346Y-1017727D01*
X369874Y-1022248D01*
X384810Y-1024991D01*
X399999Y-1025906D01*
X415188Y-1024991D01*
X430123Y-1022248D01*
X444804Y-1017625D01*
X448767Y-1016762D01*
X452729Y-1017473D01*
X456133Y-1019708D01*
X503072Y-1066698D01*
X505307Y-1069949D01*
X506069Y-1073861D01*
X506069Y-1403807D01*
X505307Y-1407718D01*
X503072Y-1411020D01*
X499821Y-1413205D01*
X495909Y-1413967D01*
X491998Y-1413205D01*
X488746Y-1411020D01*
X483463Y-1405788D01*
X471525Y-1396390D01*
X458520Y-1388516D01*
X444652Y-1382268D01*
X430123Y-1377746D01*
X415188Y-1375003D01*
X399999Y-1374089D01*
X384810Y-1375003D01*
X369874Y-1377746D01*
X355346Y-1382268D01*
X341477Y-1388516D01*
X328472Y-1396390D01*
X316534Y-1405788D01*
X305765Y-1416507D01*
X296418Y-1428496D01*
X288544Y-1441500D01*
X282295Y-1455369D01*
X277774Y-1469847D01*
X275031Y-1484833D01*
X274116Y-1500022D01*
X275031Y-1515160D01*
X277774Y-1530146D01*
X282295Y-1544624D01*
X288544Y-1558493D01*
X296418Y-1571498D01*
X305765Y-1583486D01*
X316534Y-1594205D01*
X328472Y-1603603D01*
X341477Y-1611477D01*
X355346Y-1617726D01*
X369874Y-1622247D01*
X384810Y-1624990D01*
X399999Y-1625904D01*
X415188Y-1624990D01*
X430123Y-1622247D01*
X444652Y-1617726D01*
X458520Y-1611477D01*
X471525Y-1603603D01*
X483463Y-1594205D01*
X488746Y-1588973D01*
X491998Y-1586788D01*
X495909Y-1586026D01*
X499821Y-1586788D01*
X503072Y-1588973D01*
X505307Y-1592275D01*
X506069Y-1596186D01*
X506069Y-1704035D01*
X505307Y-1707946D01*
X503072Y-1711248D01*
X499821Y-1713433D01*
X495909Y-1714195D01*
X491998Y-1713433D01*
X488746Y-1711248D01*
X483362Y-1705864D01*
X471424Y-1696516D01*
X458419Y-1688642D01*
X444550Y-1682394D01*
X430022Y-1677873D01*
X415086Y-1675130D01*
X399897Y-1674215D01*
X384708Y-1675130D01*
X369773Y-1677873D01*
X355244Y-1682394D01*
X341376Y-1688642D01*
X328371Y-1696516D01*
X316433Y-1705864D01*
X305663Y-1716633D01*
X296316Y-1728571D01*
X288442Y-1741627D01*
X282194Y-1755444D01*
X277672Y-1769973D01*
X274929Y-1784908D01*
X274015Y-1800098D01*
X274929Y-1815287D01*
X277672Y-1830222D01*
X282194Y-1844751D01*
X288442Y-1858619D01*
X296316Y-1871624D01*
X305663Y-1883613D01*
X316433Y-1894332D01*
X328371Y-1903730D01*
X341376Y-1911553D01*
X355244Y-1917801D01*
X369773Y-1922322D01*
X384708Y-1925066D01*
X399897Y-1925980D01*
X415086Y-1925066D01*
X430022Y-1922322D01*
X444550Y-1917801D01*
X458419Y-1911553D01*
X471424Y-1903730D01*
X483362Y-1894332D01*
X494131Y-1883613D01*
X503478Y-1871624D01*
X511352Y-1858619D01*
X514756Y-1851050D01*
X516991Y-1847900D01*
X520242Y-1845818D01*
X524052Y-1845056D01*
X659892Y-1844954D01*
X663600Y-1845665D01*
X666851Y-1847697D01*
X669086Y-1850796D01*
X671423Y-1855825D01*
X679246Y-1868119D01*
X688543Y-1879346D01*
X699109Y-1889302D01*
X710895Y-1897837D01*
X723646Y-1904847D01*
X737209Y-1910232D01*
X751281Y-1913839D01*
X765708Y-1915668D01*
X780288Y-1915668D01*
X794715Y-1913839D01*
X808786Y-1910232D01*
X822350Y-1904847D01*
X835101Y-1897837D01*
X846886Y-1889302D01*
X857453Y-1879346D01*
X866749Y-1868119D01*
X874572Y-1855825D01*
X880770Y-1842668D01*
X885240Y-1828800D01*
X887984Y-1814525D01*
X888898Y-1799996D01*
X887984Y-1785467D01*
X885240Y-1771192D01*
X880770Y-1757324D01*
X874572Y-1744167D01*
X866749Y-1731873D01*
X857453Y-1720646D01*
X846886Y-1710689D01*
X835101Y-1702155D01*
X822350Y-1695145D01*
X808786Y-1689760D01*
X794715Y-1686153D01*
X780288Y-1684324D01*
X765708Y-1684324D01*
X751281Y-1686153D01*
X737209Y-1689760D01*
X723646Y-1695145D01*
X710895Y-1702155D01*
X699109Y-1710689D01*
X688543Y-1720646D01*
X679246Y-1731873D01*
X671423Y-1744167D01*
X669086Y-1749196D01*
X666851Y-1752295D01*
X663600Y-1754327D01*
X659892Y-1755038D01*
X606145Y-1755038D01*
X602234Y-1754276D01*
X598982Y-1752041D01*
X596747Y-1748789D01*
X595985Y-1744878D01*
X595934Y-1049324D01*
X594766Y-1040739D01*
X592124Y-1032865D01*
X588060Y-1025652D01*
X582472Y-1018895D01*
X519734Y-956157D01*
X517499Y-952753D01*
X516737Y-948740D01*
X517702Y-944626D01*
X522224Y-930148D01*
X524967Y-915162D01*
X525881Y-900023D01*
X524967Y-884834D01*
X522224Y-869848D01*
X517702Y-855370D01*
X511454Y-841502D01*
X503580Y-828497D01*
X494233Y-816508D01*
X483463Y-805789D01*
X471525Y-796391D01*
X458520Y-788517D01*
X450951Y-785114D01*
X447801Y-782878D01*
X445668Y-779678D01*
X444957Y-775868D01*
X444957Y389839D01*
X445719Y393750D01*
X447954Y397002D01*
X451205Y399237D01*
X455117Y399999D01*
X661924Y399999D01*
X665784Y399237D01*
X669086Y397052D01*
X671271Y393750D01*
X672084Y389890D01*
X671322Y385978D01*
X669137Y382676D01*
X661924Y375412D01*
X656742Y368554D01*
X653084Y361137D01*
X650798Y353161D01*
X649986Y344474D01*
X650036Y-482650D01*
X651205Y-491235D01*
X653846Y-499109D01*
X657910Y-506323D01*
X663498Y-513080D01*
X702360Y-551942D01*
X704392Y-554888D01*
X705307Y-558393D01*
X704900Y-562000D01*
X703275Y-565251D01*
X698144Y-572008D01*
X694486Y-579424D01*
X692200Y-587400D01*
X691388Y-596138D01*
X691388Y-1213561D01*
X690778Y-1217015D01*
X689051Y-1220063D01*
X679246Y-1231900D01*
X671423Y-1244142D01*
X665226Y-1257350D01*
X660755Y-1271168D01*
X658012Y-1285494D01*
X657098Y-1300022D01*
X658012Y-1314500D01*
X660755Y-1328826D01*
X665226Y-1342644D01*
X671423Y-1355852D01*
X679246Y-1368094D01*
X688543Y-1379321D01*
X699109Y-1389278D01*
X710895Y-1397863D01*
X723646Y-1404874D01*
X737209Y-1410208D01*
X751281Y-1413814D01*
X765708Y-1415643D01*
X780288Y-1415643D01*
X794715Y-1413814D01*
X808786Y-1410208D01*
X822350Y-1404874D01*
X835101Y-1397863D01*
X846886Y-1389278D01*
X857453Y-1379321D01*
X866749Y-1368094D01*
X874572Y-1355852D01*
X880770Y-1342644D01*
X885240Y-1328826D01*
X887984Y-1314500D01*
X888898Y-1300022D01*
X887984Y-1285494D01*
X885240Y-1271168D01*
X880770Y-1257350D01*
X874572Y-1244142D01*
X866749Y-1231900D01*
X857453Y-1220673D01*
X846886Y-1210716D01*
X835101Y-1202131D01*
X822350Y-1195120D01*
X808786Y-1189786D01*
X794715Y-1186180D01*
X790194Y-1185570D01*
X786688Y-1184503D01*
X783844Y-1182217D01*
X781964Y-1179118D01*
X781304Y-1175512D01*
X781304Y-976884D01*
X782015Y-973175D01*
X783945Y-970026D01*
X786942Y-967740D01*
X790549Y-966724D01*
X794308Y-967079D01*
X803097Y-969670D01*
X817981Y-971600D01*
X821436Y-973886D01*
X867765Y-1020114D01*
X874674Y-1025347D01*
X882091Y-1029004D01*
X890066Y-1031290D01*
X898753Y-1032103D01*
X1106830Y-1032103D01*
X1110742Y-1032865D01*
X1113993Y-1035100D01*
X1116228Y-1038402D01*
X1116990Y-1042263D01*
X1116990Y-1202486D01*
X1116025Y-1206804D01*
X1113282Y-1210310D01*
X1109370Y-1212342D01*
X1104950Y-1212443D01*
X1100836Y-1210716D01*
X1089101Y-1202131D01*
X1078331Y-1196238D01*
X1078331Y-1248664D01*
X1106830Y-1248664D01*
X1110742Y-1249426D01*
X1113993Y-1251610D01*
X1116228Y-1254912D01*
X1116990Y-1258824D01*
X1116990Y-1341170D01*
X1116228Y-1345082D01*
X1113993Y-1348384D01*
X1110742Y-1350568D01*
X1106830Y-1351330D01*
X1078331Y-1351330D01*
X1078331Y-1403756D01*
X1089101Y-1397863D01*
X1100836Y-1389278D01*
X1104950Y-1387551D01*
X1109370Y-1387652D01*
X1113282Y-1389684D01*
X1116025Y-1393190D01*
X1116990Y-1397508D01*
X1116990Y-1702460D01*
X1116025Y-1706778D01*
X1113282Y-1710283D01*
X1109370Y-1712315D01*
X1104950Y-1712468D01*
X1100836Y-1710689D01*
X1089101Y-1702155D01*
X1078331Y-1696262D01*
X1078331Y-1748637D01*
X1106830Y-1748637D01*
X1110742Y-1749399D01*
X1113993Y-1751634D01*
X1116228Y-1754936D01*
X1116990Y-1758797D01*
X1116990Y-1841195D01*
X1116228Y-1845056D01*
X1113993Y-1848357D01*
X1110742Y-1850593D01*
X1106830Y-1851355D01*
X1078331Y-1851355D01*
X1078331Y-1894890D01*
X1077569Y-1898751D01*
X1075385Y-1902053D01*
X1072083Y-1904288D01*
X1068171Y-1905050D01*
X985824Y-1905050D01*
X981913Y-1904288D01*
X978611Y-1902053D01*
X976426Y-1898751D01*
X975664Y-1894890D01*
X975664Y-1851355D01*
X923340Y-1851355D01*
X925423Y-1855825D01*
X933246Y-1868119D01*
X942543Y-1879346D01*
X951179Y-1887474D01*
X953516Y-1890725D01*
X954379Y-1894687D01*
X953668Y-1898599D01*
X951484Y-1902002D01*
X948182Y-1904238D01*
X944219Y-1905050D01*
X900277Y-1905050D01*
X894740Y-1905355D01*
X891844Y-1905812D01*
X886612Y-1907082D01*
X883869Y-1908048D01*
X878941Y-1910283D01*
X876452Y-1911705D01*
X872032Y-1914804D01*
X869797Y-1916684D01*
X866038Y-1920544D01*
X864209Y-1922830D01*
X861212Y-1927301D01*
X859790Y-1929841D01*
X857605Y-1934972D01*
X769670Y-2178253D01*
X767791Y-2181453D01*
X764895Y-2183739D01*
X761390Y-2184908D01*
X751281Y-2186178D01*
X737209Y-2189784D01*
X723646Y-2195118D01*
X710895Y-2202129D01*
X699109Y-2210714D01*
X688543Y-2220671D01*
X679246Y-2231898D01*
X671423Y-2244140D01*
X665226Y-2257348D01*
X660755Y-2271166D01*
X658012Y-2285492D01*
X657098Y-2300020D01*
X658012Y-2314498D01*
X660755Y-2328824D01*
X665226Y-2342642D01*
X671423Y-2355850D01*
X679246Y-2368092D01*
X688543Y-2379319D01*
X699109Y-2389276D01*
X710895Y-2397861D01*
X723646Y-2404872D01*
X737209Y-2410206D01*
X751281Y-2413812D01*
X765708Y-2415641D01*
X780288Y-2415641D01*
X794715Y-2413812D01*
X808786Y-2410206D01*
X822350Y-2404872D01*
X835101Y-2397861D01*
X846886Y-2389276D01*
X857453Y-2379319D01*
X866749Y-2368092D01*
X874572Y-2355850D01*
X880770Y-2342642D01*
X885240Y-2328824D01*
X887984Y-2314498D01*
X888898Y-2300020D01*
X887984Y-2285492D01*
X885240Y-2271166D01*
X880770Y-2257348D01*
X874572Y-2244140D01*
X866749Y-2231898D01*
X857453Y-2220671D01*
X854456Y-2216759D01*
X853541Y-2212949D01*
X854100Y-2209088D01*
X929132Y-2001672D01*
X931265Y-1998167D01*
X934669Y-1995779D01*
X938682Y-1994966D01*
X1149553Y-1994966D01*
X1158240Y-1994154D01*
X1166215Y-1991868D01*
X1173632Y-1988159D01*
X1180338Y-1983130D01*
X1184960Y-1978304D01*
X1196340Y-1964436D01*
X1201267Y-1957171D01*
X1204569Y-1949551D01*
X1206500Y-1941372D01*
X1206906Y-1935124D01*
X1206906Y-1042263D01*
X1207668Y-1038402D01*
X1209903Y-1035100D01*
X1213154Y-1032865D01*
X1217066Y-1032103D01*
X1251559Y-1032052D01*
X1260094Y-1030884D01*
X1267968Y-1028242D01*
X1275232Y-1024178D01*
X1281938Y-1018590D01*
X1516684Y-783894D01*
X1519783Y-781761D01*
X1523441Y-780897D01*
X1527149Y-781456D01*
X1529588Y-782269D01*
X1543151Y-784961D01*
X1557020Y-785876D01*
X1570837Y-784961D01*
X1584401Y-782269D01*
X1597507Y-777849D01*
X1609953Y-771702D01*
X1621434Y-763981D01*
X1631848Y-754888D01*
X1640992Y-744474D01*
X1648714Y-732942D01*
X1654810Y-720547D01*
X1659280Y-707390D01*
X1661972Y-693826D01*
X1662887Y-680008D01*
X1661972Y-666191D01*
X1659280Y-652576D01*
X1654810Y-639470D01*
X1648714Y-627075D01*
X1643837Y-619760D01*
X1642211Y-615696D01*
X1642516Y-611378D01*
X1644548Y-607517D01*
X1648002Y-604875D01*
X1652270Y-603961D01*
X3699205Y-603961D01*
X3703065Y-604723D01*
X3706368Y-606958D01*
X3739134Y-639673D01*
X3741216Y-642772D01*
X3742080Y-646430D01*
X3741572Y-650138D01*
X3740708Y-652576D01*
X3739642Y-658063D01*
X3738016Y-661873D01*
X3735019Y-664718D01*
X3731158Y-666140D01*
X3727043Y-665937D01*
X3719118Y-663803D01*
X3709314Y-662940D01*
X3699510Y-663803D01*
X3690010Y-666343D01*
X3681120Y-670509D01*
X3673094Y-676148D01*
X3671468Y-677722D01*
X3668166Y-679907D01*
X3664305Y-680720D01*
X2026157Y-680720D01*
X2018131Y-681482D01*
X2010918Y-683666D01*
X2004263Y-687222D01*
X1998014Y-692353D01*
X1604010Y-1086408D01*
X1600911Y-1088491D01*
X1597253Y-1089355D01*
X1593545Y-1088847D01*
X1584401Y-1085748D01*
X1570837Y-1083005D01*
X1557020Y-1082090D01*
X1543151Y-1083005D01*
X1529588Y-1085748D01*
X1516481Y-1090168D01*
X1504035Y-1096314D01*
X1492554Y-1103985D01*
X1482140Y-1113129D01*
X1472996Y-1123543D01*
X1465275Y-1135075D01*
X1459179Y-1147470D01*
X1454708Y-1160576D01*
X1452016Y-1174191D01*
X1451102Y-1188008D01*
X1452016Y-1201826D01*
X1454708Y-1215390D01*
X1459179Y-1228547D01*
X1465275Y-1240942D01*
X1472996Y-1252474D01*
X1482140Y-1262888D01*
X1492554Y-1271981D01*
X1504035Y-1279702D01*
X1516481Y-1285849D01*
X1529588Y-1290269D01*
X1543151Y-1292961D01*
X1557020Y-1293876D01*
X1570837Y-1292961D01*
X1584401Y-1290269D01*
X1597507Y-1285849D01*
X1609953Y-1279702D01*
X1621434Y-1271981D01*
X1631848Y-1262888D01*
X1640992Y-1252474D01*
X1648714Y-1240942D01*
X1654810Y-1228547D01*
X1659280Y-1215390D01*
X1661972Y-1201826D01*
X1662887Y-1188008D01*
X1661972Y-1174191D01*
X1659280Y-1160576D01*
X1656181Y-1151432D01*
X1655622Y-1147724D01*
X1656486Y-1144066D01*
X1658620Y-1140968D01*
X2038705Y-760882D01*
X2042007Y-758698D01*
X2045868Y-757936D01*
X2669946Y-757936D01*
X2673807Y-758698D01*
X2677109Y-760882D01*
X2679344Y-764184D01*
X2680106Y-768096D01*
X2679344Y-771956D01*
X2677109Y-775258D01*
X1604010Y-1848408D01*
X1600911Y-1850491D01*
X1597253Y-1851355D01*
X1593545Y-1850847D01*
X1584401Y-1847748D01*
X1570837Y-1845005D01*
X1557020Y-1844090D01*
X1543151Y-1845005D01*
X1529588Y-1847748D01*
X1516481Y-1852168D01*
X1504035Y-1858314D01*
X1492554Y-1865985D01*
X1482140Y-1875129D01*
X1472996Y-1885543D01*
X1465275Y-1897075D01*
X1459179Y-1909470D01*
X1454708Y-1922576D01*
X1452016Y-1936191D01*
X1451102Y-1950008D01*
X1452016Y-1963826D01*
X1454708Y-1977389D01*
X1459179Y-1990547D01*
X1465275Y-2002942D01*
X1472996Y-2014474D01*
X1482140Y-2024888D01*
X1492554Y-2033981D01*
X1504035Y-2041702D01*
X1516481Y-2047849D01*
X1529588Y-2052269D01*
X1543151Y-2054961D01*
X1557020Y-2055875D01*
X1570837Y-2054961D01*
X1584401Y-2052269D01*
X1597507Y-2047849D01*
X1609953Y-2041702D01*
X1621434Y-2033981D01*
X1631848Y-2024888D01*
X1640992Y-2014474D01*
X1648714Y-2002942D01*
X1654810Y-1990547D01*
X1659280Y-1977389D01*
X1661972Y-1963826D01*
X1662887Y-1950008D01*
X1661972Y-1936191D01*
X1659280Y-1922576D01*
X1656181Y-1913432D01*
X1655622Y-1909724D01*
X1656486Y-1906066D01*
X1658620Y-1902968D01*
X2718968Y-842619D01*
X2722270Y-840384D01*
X2726182Y-839622D01*
X3763365Y-839622D01*
X3767378Y-840435D01*
X3770731Y-842771D01*
X3772865Y-846226D01*
X3773525Y-850239D01*
X3772509Y-854202D01*
X3770071Y-857402D01*
X3768140Y-859129D01*
X3758996Y-869543D01*
X3751275Y-881075D01*
X3748024Y-887628D01*
X3796639Y-887628D01*
X3796639Y-849782D01*
X3797401Y-845921D01*
X3799636Y-842619D01*
X3802938Y-840384D01*
X3806799Y-839622D01*
X3879189Y-839622D01*
X3883050Y-840384D01*
X3886352Y-842619D01*
X3888587Y-845921D01*
X3889349Y-849782D01*
X3889349Y-887628D01*
X3937965Y-887628D01*
X3934714Y-881075D01*
X3926992Y-869543D01*
X3917848Y-859129D01*
X3915918Y-857402D01*
X3913479Y-854202D01*
X3912463Y-850239D01*
X3913124Y-846226D01*
X3915308Y-842771D01*
X3918610Y-840435D01*
X3922623Y-839622D01*
X3952494Y-839622D01*
X3960520Y-838860D01*
X3967734Y-836625D01*
X3974388Y-833069D01*
X3980637Y-827989D01*
X5003038Y194411D01*
X5006390Y196646D01*
X5010353Y197408D01*
X5029301Y191871D01*
X5043322Y189636D01*
X5050942Y189382D01*
X5054752Y188518D01*
X5057952Y186232D01*
X5060086Y182981D01*
X5060797Y179120D01*
X5059984Y175310D01*
X5057800Y172059D01*
X3908399Y-977392D01*
X3905097Y-979576D01*
X3901236Y-980338D01*
X3889349Y-980338D01*
X3889349Y-992225D01*
X3888587Y-996137D01*
X3886352Y-999388D01*
X3868623Y-1017117D01*
X3865321Y-1019352D01*
X3861460Y-1020114D01*
X3806799Y-1020114D01*
X3802938Y-1019352D01*
X3799636Y-1017117D01*
X3797401Y-1013866D01*
X3796639Y-1009954D01*
X3796639Y-980338D01*
X3748024Y-980338D01*
X3751275Y-986942D01*
X3758996Y-998474D01*
X3763213Y-1003249D01*
X3765143Y-1006602D01*
X3765702Y-1010412D01*
X3764787Y-1014171D01*
X3762603Y-1017320D01*
X3759352Y-1019403D01*
X3755542Y-1020114D01*
X2702763Y-1020114D01*
X2694736Y-1020927D01*
X2687523Y-1023112D01*
X2680817Y-1026668D01*
X2674620Y-1031798D01*
X1604010Y-2102408D01*
X1600911Y-2104491D01*
X1597253Y-2105355D01*
X1593545Y-2104847D01*
X1584401Y-2101748D01*
X1570837Y-2099005D01*
X1557020Y-2098090D01*
X1543151Y-2099005D01*
X1529588Y-2101748D01*
X1516481Y-2106168D01*
X1504035Y-2112314D01*
X1492554Y-2119985D01*
X1482140Y-2129129D01*
X1472996Y-2139543D01*
X1465275Y-2151075D01*
X1459179Y-2163470D01*
X1454708Y-2176576D01*
X1452016Y-2190191D01*
X1451102Y-2204008D01*
X1452016Y-2217826D01*
X1454708Y-2231390D01*
X1459179Y-2244547D01*
X1465275Y-2256942D01*
X1472996Y-2268474D01*
X1482140Y-2278888D01*
X1492554Y-2287981D01*
X1504035Y-2295702D01*
X1516481Y-2301849D01*
X1529588Y-2306269D01*
X1543151Y-2308961D01*
X1557020Y-2309876D01*
X1570837Y-2308961D01*
X1584401Y-2306269D01*
X1597507Y-2301849D01*
X1609953Y-2295702D01*
X1621434Y-2287981D01*
X1631848Y-2278888D01*
X1640992Y-2268474D01*
X1648714Y-2256942D01*
X1654810Y-2244547D01*
X1659280Y-2231390D01*
X1661972Y-2217826D01*
X1662887Y-2204008D01*
X1661972Y-2190191D01*
X1659280Y-2176576D01*
X1656181Y-2167432D01*
X1655622Y-2163724D01*
X1656486Y-2160066D01*
X1658620Y-2156968D01*
X2715260Y-1100328D01*
X2718562Y-1098092D01*
X2722473Y-1097330D01*
X3759555Y-1097330D01*
X3763314Y-1098042D01*
X3766565Y-1100175D01*
X3768801Y-1103325D01*
X3769715Y-1107033D01*
X3769156Y-1110843D01*
X3767175Y-1114196D01*
X3758996Y-1123543D01*
X3751275Y-1135075D01*
X3745179Y-1147470D01*
X3740708Y-1160576D01*
X3738016Y-1174191D01*
X3737101Y-1188008D01*
X3738016Y-1201826D01*
X3740708Y-1215390D01*
X3745179Y-1228547D01*
X3751275Y-1240942D01*
X3758996Y-1252474D01*
X3768140Y-1262888D01*
X3778554Y-1271981D01*
X3779926Y-1272946D01*
X3782923Y-1275994D01*
X3784346Y-1280058D01*
X3783990Y-1284325D01*
X3781907Y-1288084D01*
X3778453Y-1290624D01*
X3774287Y-1291539D01*
X2898190Y-1291539D01*
X2890164Y-1292352D01*
X2882950Y-1294536D01*
X2876245Y-1298092D01*
X2870047Y-1303223D01*
X1881581Y-2291638D01*
X1878685Y-2293670D01*
X1875282Y-2294585D01*
X1867255Y-2295296D01*
X1857756Y-2297836D01*
X1848866Y-2302002D01*
X1840788Y-2307640D01*
X1833829Y-2314549D01*
X1828241Y-2322626D01*
X1824075Y-2331516D01*
X1821535Y-2341016D01*
X1820672Y-2350820D01*
X1821535Y-2360574D01*
X1824075Y-2370074D01*
X1828241Y-2378964D01*
X1833829Y-2387041D01*
X1840788Y-2394000D01*
X1848866Y-2399639D01*
X1857756Y-2403754D01*
X1867255Y-2406294D01*
X1877060Y-2407158D01*
X1886813Y-2406294D01*
X1896313Y-2403754D01*
X1905203Y-2399639D01*
X1913280Y-2394000D01*
X1920239Y-2387041D01*
X1925828Y-2378964D01*
X1929993Y-2370074D01*
X1932533Y-2360574D01*
X1933244Y-2352548D01*
X1934159Y-2349144D01*
X1936191Y-2346248D01*
X2910687Y-1371752D01*
X2913989Y-1369517D01*
X2917901Y-1368755D01*
X3745839Y-1368755D01*
X3750106Y-1369669D01*
X3753561Y-1372311D01*
X3755644Y-1376172D01*
X3755898Y-1380490D01*
X3754323Y-1384554D01*
X3751275Y-1389075D01*
X3745179Y-1401470D01*
X3740708Y-1414576D01*
X3738016Y-1428191D01*
X3737101Y-1442008D01*
X3738016Y-1455826D01*
X3740708Y-1469390D01*
X3745179Y-1482547D01*
X3751275Y-1494942D01*
X3758996Y-1506474D01*
X3768140Y-1516888D01*
X3778554Y-1525981D01*
X3790035Y-1533702D01*
X3802481Y-1539849D01*
X3815587Y-1544269D01*
X3829151Y-1546961D01*
X3843020Y-1547876D01*
X3856837Y-1546961D01*
X3870401Y-1544269D01*
X3879545Y-1541170D01*
X3883253Y-1540662D01*
X3886911Y-1541475D01*
X3890010Y-1543608D01*
X3947312Y-1600911D01*
X3949496Y-1604213D01*
X3950309Y-1608074D01*
X3950309Y-1632915D01*
X3949395Y-1637080D01*
X3946804Y-1640535D01*
X3943096Y-1642618D01*
X3938778Y-1642973D01*
X3934764Y-1641500D01*
X3931665Y-1638554D01*
X3926992Y-1631543D01*
X3917848Y-1621129D01*
X3907434Y-1611985D01*
X3895953Y-1604314D01*
X3883507Y-1598168D01*
X3870401Y-1593748D01*
X3856837Y-1591005D01*
X3843020Y-1590090D01*
X3829151Y-1591005D01*
X3815587Y-1593748D01*
X3802481Y-1598168D01*
X3790035Y-1604314D01*
X3778554Y-1611985D01*
X3768140Y-1621129D01*
X3758996Y-1631543D01*
X3751275Y-1643075D01*
X3745179Y-1655470D01*
X3740708Y-1668576D01*
X3738016Y-1682191D01*
X3737101Y-1696008D01*
X3738016Y-1709826D01*
X3740708Y-1723389D01*
X3745179Y-1736547D01*
X3751275Y-1748942D01*
X3758996Y-1760474D01*
X3768140Y-1770888D01*
X3778554Y-1779981D01*
X3790035Y-1787702D01*
X3802481Y-1793849D01*
X3815587Y-1798269D01*
X3829151Y-1800961D01*
X3843020Y-1801875D01*
X3856837Y-1800961D01*
X3870401Y-1798269D01*
X3883507Y-1793849D01*
X3895953Y-1787702D01*
X3907434Y-1779981D01*
X3917848Y-1770888D01*
X3926992Y-1760474D01*
X3931665Y-1753463D01*
X3934764Y-1750466D01*
X3938778Y-1749043D01*
X3943096Y-1749399D01*
X3946804Y-1751482D01*
X3949395Y-1754936D01*
X3950309Y-1759102D01*
X3950309Y-1886915D01*
X3949395Y-1891080D01*
X3946804Y-1894535D01*
X3943096Y-1896618D01*
X3938778Y-1896973D01*
X3934764Y-1895500D01*
X3931665Y-1892554D01*
X3926992Y-1885543D01*
X3917848Y-1875129D01*
X3907434Y-1865985D01*
X3895953Y-1858314D01*
X3883507Y-1852168D01*
X3870401Y-1847748D01*
X3856837Y-1845005D01*
X3843020Y-1844090D01*
X3829151Y-1845005D01*
X3815587Y-1847748D01*
X3802481Y-1852168D01*
X3790035Y-1858314D01*
X3778554Y-1865985D01*
X3768140Y-1875129D01*
X3758996Y-1885543D01*
X3751275Y-1897075D01*
X3745179Y-1909470D01*
X3740708Y-1922576D01*
X3738016Y-1936191D01*
X3737101Y-1950008D01*
X3738016Y-1963826D01*
X3740708Y-1977389D01*
X3745179Y-1990547D01*
X3751275Y-2002942D01*
X3758996Y-2014474D01*
X3768140Y-2024888D01*
X3778554Y-2033981D01*
X3790035Y-2041702D01*
X3802481Y-2047849D01*
X3815587Y-2052269D01*
X3829151Y-2054961D01*
X3843020Y-2055875D01*
X3856837Y-2054961D01*
X3870401Y-2052269D01*
X3883507Y-2047849D01*
X3895953Y-2041702D01*
X3907434Y-2033981D01*
X3917848Y-2024888D01*
X3926992Y-2014474D01*
X3931665Y-2007463D01*
X3934764Y-2004466D01*
X3938778Y-2003043D01*
X3943096Y-2003399D01*
X3946804Y-2005482D01*
X3949395Y-2008936D01*
X3950309Y-2013102D01*
X3950309Y-2140915D01*
X3949395Y-2145080D01*
X3946804Y-2148535D01*
X3943096Y-2150618D01*
X3938778Y-2150973D01*
X3934764Y-2149500D01*
X3931665Y-2146554D01*
X3926992Y-2139543D01*
X3917848Y-2129129D01*
X3907434Y-2119985D01*
X3895953Y-2112314D01*
X3883507Y-2106168D01*
X3870401Y-2101748D01*
X3856837Y-2099005D01*
X3843020Y-2098090D01*
X3829151Y-2099005D01*
X3815587Y-2101748D01*
X3802481Y-2106168D01*
X3790035Y-2112314D01*
X3778554Y-2119985D01*
X3768140Y-2129129D01*
X3758996Y-2139543D01*
X3751275Y-2151075D01*
X3747008Y-2159711D01*
X3744772Y-2162708D01*
X3741572Y-2164689D01*
X3737914Y-2165400D01*
X2584500Y-2165400D01*
X2576474Y-2166162D01*
X2569260Y-2168347D01*
X2562606Y-2171903D01*
X2556357Y-2177034D01*
X2332177Y-2401214D01*
X2329281Y-2403246D01*
X2325827Y-2404160D01*
X2322322Y-2403805D01*
X2308301Y-2399944D01*
X2294788Y-2398115D01*
X2281174Y-2398115D01*
X2267661Y-2399944D01*
X2254504Y-2403551D01*
X2241956Y-2408885D01*
X2230221Y-2415844D01*
X2219502Y-2424277D01*
X2210054Y-2434082D01*
X2201926Y-2445054D01*
X2195372Y-2457043D01*
X2190496Y-2469743D01*
X2187346Y-2483002D01*
X2185974Y-2496566D01*
X2186432Y-2510231D01*
X2188667Y-2523642D01*
X2192731Y-2536698D01*
X2198471Y-2549042D01*
X2205786Y-2560574D01*
X2214626Y-2570988D01*
X2224735Y-2580132D01*
X2235962Y-2587853D01*
X2248154Y-2594000D01*
X2261006Y-2598470D01*
X2274366Y-2601163D01*
X2287981Y-2602077D01*
X2301595Y-2601163D01*
X2314956Y-2598470D01*
X2327859Y-2594000D01*
X2340000Y-2587853D01*
X2351278Y-2580132D01*
X2361387Y-2570988D01*
X2370175Y-2560574D01*
X2377541Y-2549042D01*
X2383282Y-2536698D01*
X2387295Y-2523642D01*
X2389581Y-2510231D01*
X2390038Y-2496566D01*
X2388666Y-2483002D01*
X2385517Y-2469743D01*
X2384348Y-2466797D01*
X2383688Y-2462987D01*
X2384501Y-2459177D01*
X2386634Y-2455976D01*
X2597048Y-2245563D01*
X2600350Y-2243378D01*
X2604211Y-2242616D01*
X3737914Y-2242616D01*
X3741572Y-2243277D01*
X3744772Y-2245258D01*
X3747008Y-2248255D01*
X3751275Y-2256942D01*
X3758996Y-2268474D01*
X3768140Y-2278888D01*
X3778554Y-2287981D01*
X3790035Y-2295702D01*
X3802481Y-2301849D01*
X3815587Y-2306269D01*
X3829151Y-2308961D01*
X3843020Y-2309876D01*
X3856837Y-2308961D01*
X3870401Y-2306269D01*
X3883507Y-2301849D01*
X3895953Y-2295702D01*
X3907434Y-2287981D01*
X3917848Y-2278888D01*
X3926992Y-2268474D01*
X3931665Y-2261463D01*
X3934764Y-2258466D01*
X3938778Y-2257044D01*
X3943096Y-2257399D01*
X3946804Y-2259482D01*
X3949395Y-2262936D01*
X3950309Y-2267102D01*
X3950309Y-2394915D01*
X3949395Y-2399080D01*
X3946804Y-2402535D01*
X3943096Y-2404618D01*
X3938778Y-2404973D01*
X3934764Y-2403500D01*
X3931665Y-2400554D01*
X3926992Y-2393543D01*
X3917848Y-2383129D01*
X3907434Y-2373985D01*
X3895953Y-2366314D01*
X3883507Y-2360168D01*
X3870401Y-2355748D01*
X3856837Y-2353005D01*
X3843020Y-2352090D01*
X3829151Y-2353005D01*
X3815587Y-2355748D01*
X3802481Y-2360168D01*
X3790035Y-2366314D01*
X3778554Y-2373985D01*
X3768140Y-2383129D01*
X3758996Y-2393543D01*
X3751275Y-2405075D01*
X3745179Y-2417470D01*
X3740708Y-2430576D01*
X3738016Y-2444191D01*
X3737101Y-2458008D01*
X3738016Y-2471826D01*
X3740708Y-2485390D01*
X3745179Y-2498547D01*
X3751275Y-2510942D01*
X3758996Y-2522474D01*
X3768140Y-2532888D01*
X3778554Y-2541981D01*
X3790035Y-2549702D01*
X3802481Y-2555849D01*
X3815587Y-2560269D01*
X3829151Y-2562961D01*
X3843020Y-2563876D01*
X3856837Y-2562961D01*
X3870401Y-2560269D01*
X3883507Y-2555849D01*
X3895953Y-2549702D01*
X3907434Y-2541981D01*
X3917848Y-2532888D01*
X3926992Y-2522474D01*
X3931665Y-2515463D01*
X3934764Y-2512466D01*
X3938778Y-2511044D01*
X3943096Y-2511399D01*
X3946804Y-2513482D01*
X3949395Y-2516936D01*
X3950309Y-2521102D01*
X3950309Y-2881985D01*
X3951071Y-2890012D01*
X3953256Y-2897276D01*
X3956812Y-2903931D01*
X3961942Y-2910128D01*
X4408627Y-3356813D01*
X4410862Y-3360216D01*
X4411573Y-3364229D01*
X4410710Y-3368192D01*
X4408322Y-3371494D01*
X4404868Y-3373577D01*
X4399991Y-3374085D01*
X4384802Y-3374999D01*
X4369866Y-3377742D01*
X4355338Y-3382264D01*
X4353763Y-3382975D01*
X4349800Y-3383889D01*
X4345787Y-3383178D01*
X4342434Y-3380892D01*
X3428441Y-2467000D01*
X3421532Y-2461818D01*
X3414115Y-2458110D01*
X3406140Y-2455824D01*
X3397453Y-2455062D01*
X3162249Y-2455062D01*
X3158388Y-2454249D01*
X3155086Y-2452065D01*
X3152851Y-2448763D01*
X3152089Y-2444902D01*
X3152089Y-2424379D01*
X3151378Y-2418029D01*
X3149498Y-2412593D01*
X3146399Y-2407666D01*
X3142284Y-2403602D01*
X3137408Y-2400503D01*
X3131921Y-2398623D01*
X3125622Y-2397912D01*
X2974340Y-2397912D01*
X2968040Y-2398623D01*
X2962605Y-2400503D01*
X2957677Y-2403602D01*
X2953613Y-2407666D01*
X2950514Y-2412593D01*
X2948584Y-2418029D01*
X2947873Y-2424379D01*
X2947873Y-2572664D01*
X2947111Y-2576525D01*
X2944926Y-2579827D01*
X2941624Y-2582011D01*
X2937611Y-2582824D01*
X2933750Y-2582011D01*
X2930448Y-2579827D01*
X2894634Y-2544064D01*
X2892552Y-2541016D01*
X2891688Y-2537460D01*
X2892145Y-2533853D01*
X2895295Y-2523642D01*
X2897581Y-2510231D01*
X2898038Y-2496566D01*
X2896666Y-2483002D01*
X2893517Y-2469743D01*
X2888589Y-2457043D01*
X2882036Y-2445054D01*
X2873959Y-2434082D01*
X2864459Y-2424277D01*
X2853791Y-2415844D01*
X2842056Y-2408885D01*
X2829458Y-2403551D01*
X2816352Y-2399944D01*
X2802788Y-2398115D01*
X2789174Y-2398115D01*
X2775661Y-2399944D01*
X2762504Y-2403551D01*
X2749956Y-2408885D01*
X2738221Y-2415844D01*
X2727502Y-2424277D01*
X2718054Y-2434082D01*
X2709926Y-2445054D01*
X2703372Y-2457043D01*
X2698496Y-2469743D01*
X2695346Y-2483002D01*
X2693974Y-2496566D01*
X2694432Y-2510231D01*
X2696667Y-2523642D01*
X2700731Y-2536698D01*
X2706471Y-2549042D01*
X2713786Y-2560574D01*
X2722626Y-2570988D01*
X2732735Y-2580132D01*
X2743962Y-2587853D01*
X2756154Y-2594000D01*
X2769006Y-2598470D01*
X2782366Y-2601163D01*
X2795981Y-2602077D01*
X2809595Y-2601163D01*
X2822956Y-2598470D01*
X2829509Y-2596184D01*
X2833217Y-2595626D01*
X2836875Y-2596489D01*
X2840024Y-2598623D01*
X2889758Y-2648356D01*
X2896006Y-2653487D01*
X2902661Y-2657043D01*
X2909874Y-2659227D01*
X2917901Y-2660040D01*
X3198368Y-2660040D01*
X3202228Y-2660802D01*
X3205530Y-2662986D01*
X3499764Y-2957169D01*
X3501898Y-2960370D01*
X3502710Y-2964180D01*
X3502050Y-2967990D01*
X3500018Y-2971241D01*
X3496919Y-2973578D01*
X3493160Y-2974492D01*
X3484829Y-2975000D01*
X3469843Y-2977743D01*
X3455365Y-2982264D01*
X3449015Y-2985160D01*
X3445052Y-2986024D01*
X3441039Y-2985312D01*
X3437636Y-2983077D01*
X3389934Y-2935376D01*
X3383737Y-2930245D01*
X3377031Y-2926689D01*
X3369818Y-2924505D01*
X3361791Y-2923692D01*
X2964383Y-2923692D01*
X2960522Y-2922930D01*
X2957220Y-2920695D01*
X2955036Y-2917444D01*
X2954223Y-2913532D01*
X2955036Y-2909671D01*
X2957220Y-2906369D01*
X2994964Y-2868625D01*
X2998063Y-2866491D01*
X3001721Y-2865628D01*
X3007918Y-2865374D01*
X3018332Y-2863291D01*
X3028238Y-2859532D01*
X3037433Y-2854198D01*
X3045612Y-2847492D01*
X3052673Y-2839567D01*
X3058312Y-2830626D01*
X3062478Y-2820873D01*
X3065018Y-2810560D01*
X3065881Y-2799994D01*
X3065018Y-2789428D01*
X3062478Y-2779115D01*
X3058312Y-2769362D01*
X3052673Y-2760421D01*
X3045612Y-2752496D01*
X3037433Y-2745790D01*
X3028238Y-2740456D01*
X3018332Y-2736697D01*
X3007918Y-2734614D01*
X2997352Y-2734157D01*
X2986836Y-2735427D01*
X2976626Y-2738424D01*
X2967075Y-2742946D01*
X2958338Y-2748991D01*
X2950667Y-2756306D01*
X2944317Y-2764790D01*
X2939389Y-2774188D01*
X2936036Y-2784246D01*
X2934309Y-2794711D01*
X2934309Y-2797860D01*
X2933547Y-2801772D01*
X2931363Y-2805074D01*
X2884322Y-2852064D01*
X2881020Y-2854299D01*
X2877159Y-2855061D01*
X1753057Y-2855671D01*
X1749602Y-2855112D01*
X1746554Y-2853334D01*
X1737410Y-2845765D01*
X1728216Y-2840482D01*
X1718310Y-2836722D01*
X1707946Y-2834589D01*
X1697329Y-2834182D01*
X1686814Y-2835452D01*
X1676654Y-2838399D01*
X1667052Y-2842920D01*
X1658315Y-2848965D01*
X1650695Y-2856331D01*
X1644345Y-2864764D01*
X1639417Y-2874162D01*
X1636014Y-2884220D01*
X1634337Y-2894685D01*
X1634337Y-2905302D01*
X1636014Y-2915767D01*
X1639417Y-2925826D01*
X1644345Y-2935224D01*
X1650695Y-2943656D01*
X1658315Y-2951022D01*
X1667052Y-2957068D01*
X1676654Y-2961589D01*
X1686814Y-2964535D01*
X1698447Y-2965907D01*
X1702511Y-2967329D01*
X1705660Y-2970326D01*
X1707286Y-2974340D01*
X1707032Y-2978658D01*
X1704136Y-2989326D01*
X1703781Y-2993491D01*
X1702562Y-2997454D01*
X1699920Y-3000603D01*
X1696262Y-3002432D01*
X1687677Y-3004718D01*
X1678787Y-3008884D01*
X1670710Y-3014522D01*
X1663750Y-3021482D01*
X1658162Y-3029508D01*
X1653997Y-3038449D01*
X1651457Y-3047898D01*
X1650593Y-3057702D01*
X1651457Y-3067507D01*
X1653997Y-3077006D01*
X1658162Y-3085896D01*
X1663750Y-3093923D01*
X1670710Y-3100882D01*
X1672488Y-3102102D01*
X1675384Y-3105251D01*
X1676755Y-3109264D01*
X1676349Y-3113481D01*
X1674215Y-3117189D01*
X1670812Y-3119729D01*
X1666646Y-3120593D01*
X589584Y-3120593D01*
X585673Y-3119831D01*
X582371Y-3117646D01*
X580186Y-3114344D01*
X579424Y-3110433D01*
X579424Y-2541473D01*
X578612Y-2533446D01*
X576427Y-2526233D01*
X572871Y-2519578D01*
X567740Y-2513330D01*
X516839Y-2462428D01*
X514604Y-2459024D01*
X513842Y-2455062D01*
X514756Y-2451100D01*
X517601Y-2444750D01*
X522122Y-2430221D01*
X524865Y-2415286D01*
X525780Y-2400096D01*
X524865Y-2384907D01*
X522122Y-2369972D01*
X517601Y-2355443D01*
X511352Y-2341626D01*
X503478Y-2328570D01*
X494131Y-2316632D01*
X483362Y-2305862D01*
X471424Y-2296515D01*
X458419Y-2288641D01*
X444550Y-2282393D01*
X430022Y-2277872D01*
X415086Y-2275128D01*
X399897Y-2274214D01*
X384708Y-2275128D01*
X369773Y-2277872D01*
X355244Y-2282393D01*
X341376Y-2288641D01*
X328371Y-2296515D01*
X316433Y-2305862D01*
X305663Y-2316632D01*
X296316Y-2328570D01*
X288442Y-2341626D01*
X282194Y-2355443D01*
X277672Y-2369972D01*
X274929Y-2384907D01*
X274015Y-2400096D01*
X274929Y-2415286D01*
X277672Y-2430221D01*
X282194Y-2444750D01*
X288442Y-2458618D01*
X296316Y-2471623D01*
X305663Y-2483612D01*
X316433Y-2494330D01*
X328371Y-2503728D01*
X341376Y-2511552D01*
X355244Y-2517800D01*
X369773Y-2522321D01*
X384708Y-2525064D01*
X399897Y-2525979D01*
X415086Y-2525064D01*
X430022Y-2522321D01*
X444550Y-2517800D01*
X450900Y-2514955D01*
X454863Y-2514041D01*
X458825Y-2514803D01*
X462229Y-2517038D01*
X499211Y-2554020D01*
X501396Y-2557322D01*
X502208Y-2561183D01*
X502208Y-2599944D01*
X501396Y-2603804D01*
X499211Y-2607106D01*
X495909Y-2609342D01*
X492048Y-2610104D01*
X488137Y-2609342D01*
X484835Y-2607106D01*
X483463Y-2605786D01*
X471525Y-2596388D01*
X458520Y-2588514D01*
X456336Y-2587548D01*
X456336Y-2643632D01*
X492048Y-2643632D01*
X495909Y-2644394D01*
X499211Y-2646629D01*
X501396Y-2649931D01*
X502208Y-2653792D01*
X502208Y-2746197D01*
X501396Y-2750058D01*
X499211Y-2753360D01*
X495909Y-2755595D01*
X492048Y-2756357D01*
X456336Y-2756357D01*
X456336Y-2812440D01*
X458520Y-2811475D01*
X471525Y-2803601D01*
X483463Y-2794203D01*
X484835Y-2792882D01*
X488137Y-2790647D01*
X492048Y-2789885D01*
X495909Y-2790647D01*
X499211Y-2792882D01*
X501396Y-2796184D01*
X502208Y-2800045D01*
X502208Y-3138982D01*
X501396Y-3142894D01*
X499211Y-3146196D01*
X462330Y-3183077D01*
X458927Y-3185312D01*
X454964Y-3186023D01*
X451002Y-3185160D01*
X444652Y-3182264D01*
X430123Y-3177743D01*
X415188Y-3175000D01*
X399999Y-3174085D01*
X384810Y-3175000D01*
X369874Y-3177743D01*
X355346Y-3182264D01*
X341477Y-3188512D01*
X328472Y-3196386D01*
X316534Y-3205784D01*
X305765Y-3216503D01*
X296418Y-3228492D01*
X288544Y-3241497D01*
X282295Y-3255365D01*
X277774Y-3269843D01*
X275031Y-3284829D01*
X274116Y-3300018D01*
X275031Y-3315157D01*
X277774Y-3330143D01*
X282295Y-3344621D01*
X288544Y-3358489D01*
X296418Y-3371494D01*
X305765Y-3383483D01*
X316534Y-3394201D01*
X328472Y-3403600D01*
X341477Y-3411474D01*
X355346Y-3417722D01*
X369874Y-3422243D01*
X384810Y-3424986D01*
X399999Y-3425901D01*
X415188Y-3424986D01*
X430123Y-3422243D01*
X444652Y-3417722D01*
X458520Y-3411474D01*
X471525Y-3403600D01*
X483463Y-3394201D01*
X494233Y-3383483D01*
X503580Y-3371494D01*
X511454Y-3358489D01*
X517702Y-3344621D01*
X522224Y-3330143D01*
X524967Y-3315157D01*
X525881Y-3300018D01*
X524967Y-3284829D01*
X522224Y-3269843D01*
X517702Y-3255365D01*
X514858Y-3249015D01*
X513943Y-3245053D01*
X514705Y-3241040D01*
X516940Y-3237636D01*
X553821Y-3200806D01*
X557123Y-3198571D01*
X560984Y-3197809D01*
X687171Y-3197809D01*
X691134Y-3198622D01*
X694436Y-3200857D01*
X696620Y-3204210D01*
X697331Y-3208172D01*
X696468Y-3212084D01*
X694131Y-3215386D01*
X688543Y-3220669D01*
X679246Y-3231896D01*
X671423Y-3244138D01*
X665226Y-3257346D01*
X660755Y-3271164D01*
X658012Y-3285490D01*
X657098Y-3300018D01*
X658012Y-3314496D01*
X660755Y-3328822D01*
X665226Y-3342640D01*
X671423Y-3355848D01*
X679246Y-3368090D01*
X688543Y-3379317D01*
X699109Y-3389274D01*
X710895Y-3397859D01*
X723646Y-3404870D01*
X737209Y-3410204D01*
X751281Y-3413810D01*
X765708Y-3415639D01*
X780288Y-3415639D01*
X794715Y-3413810D01*
X808786Y-3410204D01*
X822350Y-3404870D01*
X835101Y-3397859D01*
X846886Y-3389274D01*
X857453Y-3379317D01*
X866749Y-3368090D01*
X874572Y-3355848D01*
X880770Y-3342640D01*
X885240Y-3328822D01*
X887984Y-3314496D01*
X888898Y-3300018D01*
X887984Y-3285490D01*
X885240Y-3271164D01*
X880770Y-3257346D01*
X874572Y-3244138D01*
X866749Y-3231896D01*
X857453Y-3220669D01*
X851865Y-3215386D01*
X849528Y-3212084D01*
X848664Y-3208172D01*
X849376Y-3204210D01*
X851560Y-3200857D01*
X854862Y-3198622D01*
X858824Y-3197809D01*
X941171Y-3197809D01*
X945134Y-3198622D01*
X948436Y-3200857D01*
X950620Y-3204210D01*
X951331Y-3208172D01*
X950468Y-3212084D01*
X948131Y-3215386D01*
X942543Y-3220669D01*
X933246Y-3231896D01*
X925423Y-3244138D01*
X919226Y-3257346D01*
X914755Y-3271164D01*
X912012Y-3285490D01*
X911098Y-3300018D01*
X912012Y-3314496D01*
X914755Y-3328822D01*
X919226Y-3342640D01*
X925423Y-3355848D01*
X933246Y-3368090D01*
X942543Y-3379317D01*
X953109Y-3389274D01*
X964895Y-3397859D01*
X977646Y-3404870D01*
X991209Y-3410204D01*
X1005281Y-3413810D01*
X1019708Y-3415639D01*
X1034287Y-3415639D01*
X1048715Y-3413810D01*
X1062786Y-3410204D01*
X1076350Y-3404870D01*
X1089101Y-3397859D01*
X1100886Y-3389274D01*
X1111453Y-3379317D01*
X1120749Y-3368090D01*
X1128572Y-3355848D01*
X1134770Y-3342640D01*
X1139240Y-3328822D01*
X1141984Y-3314496D01*
X1142898Y-3300018D01*
X1141984Y-3285490D01*
X1139240Y-3271164D01*
X1134770Y-3257346D01*
X1128572Y-3244138D01*
X1120749Y-3231896D01*
X1111453Y-3220669D01*
X1105865Y-3215386D01*
X1103528Y-3212084D01*
X1102664Y-3208172D01*
X1103376Y-3204210D01*
X1105560Y-3200857D01*
X1108862Y-3198622D01*
X1112824Y-3197809D01*
X1702257Y-3197809D01*
X1706168Y-3198571D01*
X1709470Y-3200806D01*
X1835607Y-3326942D01*
X1841855Y-3332073D01*
X1848510Y-3335629D01*
X1856689Y-3338118D01*
X1860600Y-3340303D01*
X1863598Y-3343046D01*
X1871827Y-3348786D01*
X1880717Y-3352952D01*
X1890217Y-3355492D01*
X1900021Y-3356356D01*
X1909775Y-3355492D01*
X1919274Y-3352952D01*
X1928164Y-3348786D01*
X1936242Y-3343198D01*
X1943201Y-3336239D01*
X1948789Y-3328162D01*
X1952955Y-3319272D01*
X1955495Y-3309772D01*
X1956358Y-3300018D01*
X1955495Y-3290214D01*
X1952955Y-3280714D01*
X1948789Y-3271824D01*
X1943201Y-3263747D01*
X1936242Y-3256788D01*
X1928164Y-3251200D01*
X1919274Y-3247034D01*
X1909775Y-3244494D01*
X1900021Y-3243630D01*
X1890217Y-3244494D01*
X1880717Y-3247034D01*
X1876348Y-3249066D01*
X1872386Y-3249980D01*
X1868322Y-3249269D01*
X1864918Y-3247034D01*
X1750110Y-3132277D01*
X1743913Y-3127146D01*
X1736801Y-3123336D01*
X1733651Y-3120745D01*
X1731772Y-3117037D01*
X1731568Y-3112922D01*
X1732940Y-3109061D01*
X1735785Y-3106064D01*
X1743202Y-3100882D01*
X1744776Y-3099308D01*
X1748078Y-3097072D01*
X1751990Y-3096310D01*
X2626410Y-3096310D01*
X2630322Y-3097072D01*
X2633624Y-3099308D01*
X2953359Y-3419043D01*
X2955594Y-3422345D01*
X2956356Y-3426206D01*
X2956356Y-3443630D01*
X2973781Y-3443630D01*
X2977642Y-3444392D01*
X2980944Y-3446627D01*
X3061258Y-3526942D01*
X3067507Y-3532073D01*
X3074162Y-3535629D01*
X3081375Y-3537813D01*
X3089402Y-3538626D01*
X3373018Y-3538626D01*
X3376777Y-3539337D01*
X3380028Y-3541420D01*
X3382264Y-3544570D01*
X3388512Y-3558489D01*
X3396386Y-3571494D01*
X3405784Y-3583482D01*
X3416503Y-3594201D01*
X3425190Y-3601008D01*
X3427882Y-3604209D01*
X3429050Y-3608171D01*
X3428542Y-3612337D01*
X3426409Y-3615893D01*
X3423005Y-3618331D01*
X3418941Y-3619195D01*
X2981045Y-3619195D01*
X2976981Y-3618331D01*
X2973578Y-3615893D01*
X2971444Y-3612337D01*
X2970936Y-3608171D01*
X2972104Y-3604209D01*
X2974797Y-3601008D01*
X2983484Y-3594201D01*
X2994202Y-3583482D01*
X3003600Y-3571494D01*
X3011474Y-3558489D01*
X3012440Y-3556355D01*
X2956356Y-3556355D01*
X2956356Y-3609035D01*
X2955594Y-3612896D01*
X2953359Y-3616198D01*
X2950057Y-3618382D01*
X2946196Y-3619195D01*
X2853791Y-3619195D01*
X2849930Y-3618382D01*
X2846628Y-3616198D01*
X2844393Y-3612896D01*
X2843631Y-3609035D01*
X2843631Y-3556355D01*
X2787548Y-3556355D01*
X2788513Y-3558489D01*
X2796387Y-3571494D01*
X2805785Y-3583482D01*
X2816504Y-3594201D01*
X2825191Y-3601008D01*
X2827883Y-3604209D01*
X2829052Y-3608171D01*
X2828544Y-3612337D01*
X2826410Y-3615893D01*
X2823006Y-3618331D01*
X2818942Y-3619195D01*
X2342692Y-3619195D01*
X2334666Y-3619957D01*
X2327452Y-3622141D01*
X2320798Y-3625697D01*
X2314549Y-3630828D01*
X2262327Y-3683050D01*
X2258923Y-3685286D01*
X2254961Y-3686048D01*
X2250998Y-3685133D01*
X2244648Y-3682288D01*
X2230120Y-3677767D01*
X2215184Y-3675024D01*
X2199995Y-3674110D01*
X2184806Y-3675024D01*
X2169871Y-3677767D01*
X2155342Y-3682288D01*
X2141474Y-3688537D01*
X2128469Y-3696411D01*
X2116531Y-3705758D01*
X2105761Y-3716528D01*
X2096414Y-3728465D01*
X2088540Y-3741470D01*
X2082292Y-3755339D01*
X2077770Y-3769868D01*
X2075027Y-3784803D01*
X2074113Y-3799992D01*
X2075027Y-3815181D01*
X2077770Y-3830116D01*
X2082292Y-3844645D01*
X2088540Y-3858514D01*
X2096414Y-3871518D01*
X2105761Y-3883456D01*
X2116531Y-3894226D01*
X2128469Y-3903573D01*
X2141474Y-3911447D01*
X2155342Y-3917696D01*
X2169871Y-3922217D01*
X2184806Y-3924960D01*
X2199995Y-3925874D01*
X2215184Y-3924960D01*
X2230120Y-3922217D01*
X2244648Y-3917696D01*
X2258517Y-3911447D01*
X2271522Y-3903573D01*
X2283460Y-3894226D01*
X2294229Y-3883456D01*
X2303576Y-3871518D01*
X2311450Y-3858514D01*
X2317699Y-3844645D01*
X2322220Y-3830116D01*
X2324963Y-3815181D01*
X2325878Y-3799992D01*
X2324963Y-3784803D01*
X2322220Y-3769868D01*
X2317699Y-3755339D01*
X2314854Y-3748989D01*
X2313940Y-3745026D01*
X2314702Y-3741064D01*
X2316937Y-3737660D01*
X2355240Y-3699357D01*
X2358542Y-3697173D01*
X2362403Y-3696411D01*
X2501341Y-3696411D01*
X2505252Y-3697173D01*
X2508554Y-3699357D01*
X2510739Y-3702659D01*
X2511501Y-3706571D01*
X2510739Y-3710432D01*
X2508554Y-3713734D01*
X2505760Y-3716528D01*
X2496413Y-3728465D01*
X2488539Y-3741470D01*
X2487574Y-3743655D01*
X2543657Y-3743655D01*
X2543657Y-3706571D01*
X2544419Y-3702659D01*
X2546604Y-3699357D01*
X2549906Y-3697173D01*
X2553817Y-3696411D01*
X2646172Y-3696411D01*
X2650083Y-3697173D01*
X2653385Y-3699357D01*
X2655570Y-3702659D01*
X2656332Y-3706571D01*
X2656332Y-3743655D01*
X2712415Y-3743655D01*
X2711450Y-3741470D01*
X2703576Y-3728465D01*
X2694228Y-3716528D01*
X2691434Y-3713734D01*
X2689250Y-3710432D01*
X2688488Y-3706571D01*
X2689250Y-3702659D01*
X2691434Y-3699357D01*
X2694736Y-3697173D01*
X2698648Y-3696411D01*
X3592982Y-3696411D01*
X3596182Y-3696919D01*
X3599027Y-3698392D01*
X3601313Y-3700729D01*
X3606800Y-3708603D01*
X3611981Y-3713784D01*
X3614165Y-3717086D01*
X3614928Y-3720947D01*
X3614165Y-3724859D01*
X3611981Y-3728110D01*
X3608679Y-3730345D01*
X3604768Y-3731107D01*
X3260191Y-3731158D01*
X3251657Y-3732326D01*
X3243783Y-3734968D01*
X3236518Y-3739032D01*
X3229813Y-3744620D01*
X3067304Y-3907129D01*
X3064052Y-3909314D01*
X3060192Y-3910126D01*
X3040684Y-3905148D01*
X3026257Y-3903319D01*
X3011728Y-3903319D01*
X2997301Y-3905148D01*
X2983179Y-3908755D01*
X2969666Y-3914140D01*
X2956915Y-3921150D01*
X2945130Y-3929684D01*
X2934512Y-3939641D01*
X2925216Y-3950868D01*
X2917444Y-3963162D01*
X2911246Y-3976319D01*
X2906725Y-3990187D01*
X2904032Y-4004462D01*
X2903118Y-4018991D01*
X2904032Y-4033520D01*
X2906725Y-4047794D01*
X2911246Y-4061663D01*
X2917444Y-4074820D01*
X2925216Y-4087114D01*
X2934512Y-4098340D01*
X2943352Y-4106621D01*
X2945688Y-4109872D01*
X2946552Y-4113784D01*
X2945841Y-4117746D01*
X2943656Y-4121099D01*
X2940304Y-4123385D01*
X2936392Y-4124198D01*
X2182977Y-4124198D01*
X2179116Y-4123385D01*
X2175814Y-4121200D01*
X1916938Y-3862324D01*
X1914702Y-3858920D01*
X1913940Y-3854958D01*
X1914855Y-3850995D01*
X1917700Y-3844645D01*
X1922221Y-3830116D01*
X1924964Y-3815181D01*
X1925878Y-3799992D01*
X1924964Y-3784803D01*
X1922221Y-3769868D01*
X1917700Y-3755339D01*
X1911451Y-3741470D01*
X1903577Y-3728465D01*
X1894230Y-3716528D01*
X1883460Y-3705758D01*
X1871522Y-3696411D01*
X1858518Y-3688537D01*
X1844649Y-3682288D01*
X1830120Y-3677767D01*
X1815185Y-3675024D01*
X1799996Y-3674110D01*
X1784807Y-3675024D01*
X1769872Y-3677767D01*
X1755343Y-3682288D01*
X1741474Y-3688537D01*
X1728470Y-3696411D01*
X1716532Y-3705758D01*
X1705762Y-3716528D01*
X1696415Y-3728465D01*
X1688541Y-3741470D01*
X1682292Y-3755339D01*
X1677771Y-3769868D01*
X1675028Y-3784803D01*
X1674114Y-3799992D01*
X1675028Y-3815181D01*
X1677771Y-3830116D01*
X1682292Y-3844645D01*
X1688541Y-3858514D01*
X1696415Y-3871518D01*
X1705762Y-3883456D01*
X1716532Y-3894226D01*
X1728470Y-3903573D01*
X1741474Y-3911447D01*
X1755343Y-3917696D01*
X1769872Y-3922217D01*
X1784807Y-3924960D01*
X1799996Y-3925874D01*
X1815185Y-3924960D01*
X1830120Y-3922217D01*
X1844649Y-3917696D01*
X1850999Y-3914851D01*
X1854962Y-3913936D01*
X1858924Y-3914698D01*
X1862328Y-3916934D01*
X2110790Y-4165396D01*
X2113026Y-4168698D01*
X2113788Y-4172610D01*
X2113026Y-4176471D01*
X2110790Y-4179773D01*
X2107488Y-4181957D01*
X2103628Y-4182770D01*
X1479143Y-4182770D01*
X1471117Y-4183532D01*
X1463903Y-4185716D01*
X1457198Y-4189272D01*
X1451000Y-4194403D01*
X1362354Y-4283049D01*
X1358950Y-4285284D01*
X1354937Y-4286046D01*
X1350975Y-4285132D01*
X1344625Y-4282287D01*
X1330147Y-4277766D01*
X1315161Y-4275023D01*
X1300022Y-4274108D01*
X1284833Y-4275023D01*
X1269847Y-4277766D01*
X1255369Y-4282287D01*
X1241501Y-4288536D01*
X1228496Y-4296410D01*
X1216507Y-4305757D01*
X1205788Y-4316526D01*
X1196390Y-4328464D01*
X1188516Y-4341469D01*
X1182268Y-4355388D01*
X1180033Y-4358538D01*
X1176782Y-4360672D01*
X1173022Y-4361383D01*
X1026972Y-4361383D01*
X1023213Y-4360672D01*
X1019962Y-4358538D01*
X1017727Y-4355388D01*
X1011478Y-4341469D01*
X1003604Y-4328464D01*
X994206Y-4316526D01*
X983487Y-4305757D01*
X971499Y-4296410D01*
X958494Y-4288536D01*
X944626Y-4282287D01*
X930148Y-4277766D01*
X915162Y-4275023D01*
X900023Y-4274108D01*
X884834Y-4275023D01*
X869848Y-4277766D01*
X855370Y-4282287D01*
X841502Y-4288536D01*
X828497Y-4296410D01*
X816508Y-4305757D01*
X805789Y-4316526D01*
X796391Y-4328464D01*
X788517Y-4341469D01*
X782269Y-4355388D01*
X780034Y-4358538D01*
X776782Y-4360672D01*
X773023Y-4361383D01*
X526999Y-4361383D01*
X523189Y-4360672D01*
X519938Y-4358538D01*
X517702Y-4355388D01*
X511454Y-4341469D01*
X503580Y-4328464D01*
X494233Y-4316526D01*
X483463Y-4305757D01*
X471525Y-4296410D01*
X458520Y-4288536D01*
X444652Y-4282287D01*
X430123Y-4277766D01*
X420065Y-4275937D01*
X416001Y-4274210D01*
X413054Y-4270959D01*
X411784Y-4266793D01*
X412343Y-4262424D01*
X414680Y-4258716D01*
X790702Y-3882745D01*
X794004Y-3880510D01*
X797915Y-3879748D01*
X801827Y-3880510D01*
X805129Y-3882745D01*
X816508Y-3894226D01*
X828497Y-3903573D01*
X841502Y-3911447D01*
X855370Y-3917696D01*
X869848Y-3922217D01*
X884834Y-3924960D01*
X900023Y-3925874D01*
X915162Y-3924960D01*
X930148Y-3922217D01*
X944626Y-3917696D01*
X958494Y-3911447D01*
X971499Y-3903573D01*
X983487Y-3894226D01*
X994206Y-3883456D01*
X1003604Y-3871518D01*
X1011478Y-3858514D01*
X1017727Y-3844594D01*
X1019962Y-3841445D01*
X1023213Y-3839362D01*
X1026972Y-3838600D01*
X1173022Y-3838600D01*
X1176782Y-3839362D01*
X1180033Y-3841445D01*
X1182268Y-3844594D01*
X1188516Y-3858514D01*
X1196390Y-3871518D01*
X1205788Y-3883456D01*
X1216507Y-3894226D01*
X1228496Y-3903573D01*
X1241501Y-3911447D01*
X1255369Y-3917696D01*
X1269847Y-3922217D01*
X1284833Y-3924960D01*
X1300022Y-3925874D01*
X1315161Y-3924960D01*
X1330147Y-3922217D01*
X1344625Y-3917696D01*
X1358493Y-3911447D01*
X1371498Y-3903573D01*
X1383487Y-3894226D01*
X1394206Y-3883456D01*
X1403604Y-3871518D01*
X1411478Y-3858514D01*
X1417726Y-3844645D01*
X1422247Y-3830116D01*
X1424990Y-3815181D01*
X1425905Y-3799992D01*
X1424990Y-3784803D01*
X1422247Y-3769868D01*
X1417726Y-3755339D01*
X1411478Y-3741470D01*
X1403604Y-3728465D01*
X1394206Y-3716528D01*
X1383487Y-3705758D01*
X1371498Y-3696411D01*
X1358493Y-3688537D01*
X1344625Y-3682288D01*
X1330147Y-3677767D01*
X1315161Y-3675024D01*
X1300022Y-3674110D01*
X1284833Y-3675024D01*
X1269847Y-3677767D01*
X1255369Y-3682288D01*
X1241501Y-3688537D01*
X1228496Y-3696411D01*
X1216507Y-3705758D01*
X1205788Y-3716528D01*
X1196390Y-3728465D01*
X1188516Y-3741470D01*
X1182268Y-3755390D01*
X1180033Y-3758539D01*
X1176782Y-3760673D01*
X1173022Y-3761384D01*
X1026972Y-3761384D01*
X1023213Y-3760673D01*
X1019962Y-3758539D01*
X1017727Y-3755390D01*
X1011478Y-3741470D01*
X1003604Y-3728465D01*
X994206Y-3716528D01*
X983487Y-3705758D01*
X971499Y-3696411D01*
X958494Y-3688537D01*
X944626Y-3682288D01*
X930148Y-3677767D01*
X915162Y-3675024D01*
X900023Y-3674110D01*
X884834Y-3675024D01*
X869848Y-3677767D01*
X855370Y-3682288D01*
X841502Y-3688537D01*
X828497Y-3696411D01*
X816508Y-3705758D01*
X805789Y-3716528D01*
X796391Y-3728465D01*
X788517Y-3741470D01*
X782269Y-3755339D01*
X777748Y-3769868D01*
X774090Y-3789222D01*
X772007Y-3792220D01*
X244957Y-4319270D01*
X239826Y-4325518D01*
X236270Y-4332173D01*
X234086Y-4339386D01*
X233324Y-4347413D01*
X233324Y-4465523D01*
X234086Y-4473549D01*
X236270Y-4480763D01*
X238556Y-4485030D01*
X239725Y-4489043D01*
X239217Y-4493158D01*
X237083Y-4496714D01*
X233679Y-4499152D01*
X229616Y-4500016D01*
G37*

%LPC*%
G36*
X399999Y-3925874D02*
G01*
X415188Y-3924960D01*
X430123Y-3922217D01*
X444652Y-3917696D01*
X458520Y-3911447D01*
X471525Y-3903573D01*
X483463Y-3894226D01*
X494233Y-3883456D01*
X503580Y-3871518D01*
X511454Y-3858514D01*
X517702Y-3844645D01*
X522224Y-3830116D01*
X524967Y-3815181D01*
X525881Y-3799992D01*
X524967Y-3784803D01*
X522224Y-3769868D01*
X517702Y-3755339D01*
X511454Y-3741470D01*
X503580Y-3728465D01*
X494233Y-3716528D01*
X483463Y-3705758D01*
X471525Y-3696411D01*
X458520Y-3688537D01*
X444652Y-3682288D01*
X430123Y-3677767D01*
X415188Y-3675024D01*
X399999Y-3674110D01*
X384810Y-3675024D01*
X369874Y-3677767D01*
X355346Y-3682288D01*
X341477Y-3688537D01*
X328472Y-3696411D01*
X316534Y-3705758D01*
X305765Y-3716528D01*
X296418Y-3728465D01*
X288544Y-3741470D01*
X282295Y-3755339D01*
X277774Y-3769868D01*
X275031Y-3784803D01*
X274116Y-3799992D01*
X275031Y-3815181D01*
X277774Y-3830116D01*
X282295Y-3844645D01*
X288544Y-3858514D01*
X296418Y-3871518D01*
X305765Y-3883456D01*
X316534Y-3894226D01*
X328472Y-3903573D01*
X341477Y-3911447D01*
X355346Y-3917696D01*
X369874Y-3922217D01*
X384810Y-3924960D01*
G37*
G36*
X2656332Y-3912412D02*
G01*
X2658516Y-3911447D01*
X2671521Y-3903573D01*
X2683459Y-3894226D01*
X2694228Y-3883456D01*
X2703576Y-3871518D01*
X2711450Y-3858514D01*
X2712415Y-3856329D01*
X2656332Y-3856329D01*
G37*
G36*
X2543657Y-3912412D02*
G01*
X2543657Y-3856329D01*
X2487574Y-3856329D01*
X2488539Y-3858514D01*
X2496413Y-3871518D01*
X2505760Y-3883456D01*
X2516530Y-3894226D01*
X2528468Y-3903573D01*
X2541473Y-3911447D01*
G37*
G36*
X1602435Y-3556812D02*
G01*
X1611985Y-3555593D01*
X1621180Y-3552748D01*
X1629816Y-3548430D01*
X1637588Y-3542690D01*
X1644243Y-3535730D01*
X1649628Y-3527704D01*
X1653641Y-3518915D01*
X1656029Y-3509619D01*
X1656892Y-3500018D01*
X1656029Y-3490366D01*
X1653641Y-3481070D01*
X1649628Y-3472281D01*
X1644243Y-3464255D01*
X1637588Y-3457295D01*
X1629816Y-3451555D01*
X1621180Y-3447237D01*
X1611985Y-3444392D01*
X1602435Y-3443173D01*
X1592783Y-3443579D01*
X1583334Y-3445611D01*
X1574393Y-3449218D01*
X1566164Y-3454247D01*
X1560982Y-3458870D01*
X1557832Y-3460750D01*
X1554276Y-3461410D01*
X1320190Y-3461410D01*
X1316329Y-3460597D01*
X1313027Y-3458413D01*
X1259687Y-3405124D01*
X1257655Y-3402177D01*
X1256741Y-3398774D01*
X1256030Y-3390392D01*
X1253642Y-3381044D01*
X1249629Y-3372256D01*
X1244244Y-3364280D01*
X1237589Y-3357321D01*
X1229817Y-3351580D01*
X1221181Y-3347212D01*
X1211986Y-3344418D01*
X1202436Y-3343148D01*
X1192784Y-3343605D01*
X1183335Y-3345637D01*
X1174394Y-3349193D01*
X1166164Y-3354273D01*
X1158951Y-3360623D01*
X1152855Y-3368141D01*
X1148181Y-3376574D01*
X1144981Y-3385667D01*
X1143355Y-3395167D01*
X1143355Y-3404819D01*
X1144981Y-3414318D01*
X1148181Y-3423412D01*
X1152855Y-3431844D01*
X1158951Y-3439363D01*
X1166164Y-3445713D01*
X1174394Y-3450793D01*
X1183335Y-3454349D01*
X1192784Y-3456381D01*
X1198270Y-3456635D01*
X1201928Y-3457498D01*
X1205026Y-3459581D01*
X1272336Y-3526942D01*
X1278585Y-3532073D01*
X1285240Y-3535629D01*
X1292453Y-3537813D01*
X1300480Y-3538626D01*
X1554276Y-3538626D01*
X1557832Y-3539236D01*
X1560982Y-3541115D01*
X1566164Y-3545738D01*
X1574393Y-3550767D01*
X1583334Y-3554374D01*
X1592783Y-3556406D01*
G37*
G36*
X2787548Y-3443630D02*
G01*
X2843631Y-3443630D01*
X2843631Y-3387547D01*
X2841498Y-3388512D01*
X2828493Y-3396386D01*
X2816504Y-3405784D01*
X2805785Y-3416503D01*
X2796387Y-3428492D01*
X2788513Y-3441496D01*
G37*
G36*
X765708Y-2915666D02*
G01*
X780288Y-2915666D01*
X794715Y-2913837D01*
X808786Y-2910230D01*
X822350Y-2904845D01*
X835101Y-2897835D01*
X846886Y-2889300D01*
X857453Y-2879344D01*
X866749Y-2868117D01*
X874572Y-2855823D01*
X880770Y-2842666D01*
X885240Y-2828798D01*
X887984Y-2814523D01*
X888898Y-2799994D01*
X887984Y-2785465D01*
X885240Y-2771190D01*
X880770Y-2757322D01*
X874572Y-2744165D01*
X866749Y-2731871D01*
X857453Y-2720644D01*
X846886Y-2710688D01*
X835101Y-2702153D01*
X822350Y-2695143D01*
X808786Y-2689758D01*
X794715Y-2686151D01*
X780288Y-2684322D01*
X765708Y-2684322D01*
X751281Y-2686151D01*
X737209Y-2689758D01*
X723646Y-2695143D01*
X710895Y-2702153D01*
X699109Y-2710688D01*
X688543Y-2720644D01*
X679246Y-2731871D01*
X671423Y-2744165D01*
X665226Y-2757322D01*
X660755Y-2771190D01*
X658012Y-2785465D01*
X657098Y-2799994D01*
X658012Y-2814523D01*
X660755Y-2828798D01*
X665226Y-2842666D01*
X671423Y-2855823D01*
X679246Y-2868117D01*
X688543Y-2879344D01*
X699109Y-2889300D01*
X710895Y-2897835D01*
X723646Y-2904845D01*
X737209Y-2910230D01*
X751281Y-2913837D01*
G37*
G36*
X1078331Y-2903728D02*
G01*
X1089101Y-2897835D01*
X1100886Y-2889300D01*
X1111453Y-2879344D01*
X1120749Y-2868117D01*
X1128572Y-2855823D01*
X1130655Y-2851353D01*
X1078331Y-2851353D01*
G37*
G36*
X975664Y-2903728D02*
G01*
X975664Y-2851353D01*
X923340Y-2851353D01*
X925423Y-2855823D01*
X933246Y-2868117D01*
X942543Y-2879344D01*
X953109Y-2889300D01*
X964895Y-2897835D01*
G37*
G36*
X343662Y-2812440D02*
G01*
X343662Y-2756357D01*
X287578Y-2756357D01*
X288544Y-2758490D01*
X296418Y-2771495D01*
X305765Y-2783484D01*
X316534Y-2794203D01*
X328472Y-2803601D01*
X341477Y-2811475D01*
G37*
G36*
X1078331Y-2748635D02*
G01*
X1130655Y-2748635D01*
X1128572Y-2744165D01*
X1120749Y-2731871D01*
X1111453Y-2720644D01*
X1100886Y-2710688D01*
X1089101Y-2702153D01*
X1078331Y-2696260D01*
G37*
G36*
X923340Y-2748635D02*
G01*
X975664Y-2748635D01*
X975664Y-2696260D01*
X964895Y-2702153D01*
X953109Y-2710688D01*
X942543Y-2720644D01*
X933246Y-2731871D01*
X925423Y-2744165D01*
G37*
G36*
X287578Y-2643632D02*
G01*
X343662Y-2643632D01*
X343662Y-2587548D01*
X341477Y-2588514D01*
X328472Y-2596388D01*
X316534Y-2605786D01*
X305765Y-2616504D01*
X296418Y-2628493D01*
X288544Y-2641498D01*
G37*
G36*
X2586431Y-2591663D02*
G01*
X2594000Y-2587853D01*
X2605278Y-2580132D01*
X2615387Y-2570988D01*
X2624175Y-2560574D01*
X2631541Y-2549042D01*
X2633675Y-2544470D01*
X2586431Y-2544470D01*
G37*
G36*
X2497531Y-2591663D02*
G01*
X2497531Y-2544470D01*
X2450338Y-2544470D01*
X2452471Y-2549042D01*
X2459786Y-2560574D01*
X2468626Y-2570988D01*
X2478735Y-2580132D01*
X2489962Y-2587853D01*
G37*
G36*
X1603349Y-2552954D02*
G01*
X1609953Y-2549702D01*
X1621434Y-2541981D01*
X1631848Y-2532888D01*
X1640992Y-2522474D01*
X1648714Y-2510942D01*
X1651965Y-2504338D01*
X1603349Y-2504338D01*
G37*
G36*
X1510639Y-2552954D02*
G01*
X1510639Y-2504338D01*
X1462024Y-2504338D01*
X1465275Y-2510942D01*
X1472996Y-2522474D01*
X1482140Y-2532888D01*
X1492554Y-2541981D01*
X1504035Y-2549702D01*
G37*
G36*
X2586431Y-2455570D02*
G01*
X2633776Y-2455570D01*
X2628036Y-2445054D01*
X2619959Y-2434082D01*
X2610459Y-2424277D01*
X2599791Y-2415844D01*
X2588056Y-2408885D01*
X2586431Y-2408224D01*
G37*
G36*
X2450185Y-2455570D02*
G01*
X2497531Y-2455570D01*
X2497531Y-2408224D01*
X2495956Y-2408885D01*
X2484221Y-2415844D01*
X2473502Y-2424277D01*
X2464054Y-2434082D01*
X2455926Y-2445054D01*
G37*
G36*
X1462024Y-2411628D02*
G01*
X1510639Y-2411628D01*
X1510639Y-2363063D01*
X1504035Y-2366314D01*
X1492554Y-2373985D01*
X1482140Y-2383129D01*
X1472996Y-2393543D01*
X1465275Y-2405075D01*
G37*
G36*
X1603349Y-2411628D02*
G01*
X1651965Y-2411628D01*
X1648714Y-2405075D01*
X1640992Y-2393543D01*
X1631848Y-2383129D01*
X1621434Y-2373985D01*
X1609953Y-2366314D01*
X1603349Y-2363063D01*
G37*
G36*
X975664Y-2403754D02*
G01*
X975664Y-2351328D01*
X923340Y-2351328D01*
X925423Y-2355850D01*
X933246Y-2368092D01*
X942543Y-2379319D01*
X953109Y-2389276D01*
X964895Y-2397861D01*
G37*
G36*
X1078331Y-2403754D02*
G01*
X1089101Y-2397861D01*
X1100886Y-2389276D01*
X1111453Y-2379319D01*
X1120749Y-2368092D01*
X1128572Y-2355850D01*
X1130655Y-2351328D01*
X1078331Y-2351328D01*
G37*
G36*
X923340Y-2248662D02*
G01*
X975664Y-2248662D01*
X975664Y-2196236D01*
X964895Y-2202129D01*
X953109Y-2210714D01*
X942543Y-2220671D01*
X933246Y-2231898D01*
X925423Y-2244140D01*
G37*
G36*
X1078331Y-2248662D02*
G01*
X1130655Y-2248662D01*
X1128572Y-2244140D01*
X1120749Y-2231898D01*
X1111453Y-2220671D01*
X1100886Y-2210714D01*
X1089101Y-2202129D01*
X1078331Y-2196236D01*
G37*
G36*
X1557020Y-1801875D02*
G01*
X1570837Y-1800961D01*
X1584401Y-1798269D01*
X1597507Y-1793849D01*
X1609953Y-1787702D01*
X1621434Y-1779981D01*
X1631848Y-1770888D01*
X1640992Y-1760474D01*
X1648714Y-1748942D01*
X1654810Y-1736547D01*
X1659280Y-1723389D01*
X1661972Y-1709826D01*
X1662887Y-1696008D01*
X1661972Y-1682191D01*
X1659280Y-1668576D01*
X1654810Y-1655470D01*
X1648714Y-1643075D01*
X1640992Y-1631543D01*
X1631848Y-1621129D01*
X1621434Y-1611985D01*
X1609953Y-1604314D01*
X1597507Y-1598168D01*
X1584401Y-1593748D01*
X1570837Y-1591005D01*
X1557020Y-1590090D01*
X1543151Y-1591005D01*
X1529588Y-1593748D01*
X1516481Y-1598168D01*
X1504035Y-1604314D01*
X1492554Y-1611985D01*
X1482140Y-1621129D01*
X1472996Y-1631543D01*
X1465275Y-1643075D01*
X1459179Y-1655470D01*
X1454708Y-1668576D01*
X1452016Y-1682191D01*
X1451102Y-1696008D01*
X1452016Y-1709826D01*
X1454708Y-1723389D01*
X1459179Y-1736547D01*
X1465275Y-1748942D01*
X1472996Y-1760474D01*
X1482140Y-1770888D01*
X1492554Y-1779981D01*
X1504035Y-1787702D01*
X1516481Y-1793849D01*
X1529588Y-1798269D01*
X1543151Y-1800961D01*
G37*
G36*
X923340Y-1748637D02*
G01*
X975664Y-1748637D01*
X975664Y-1696262D01*
X964895Y-1702155D01*
X953109Y-1710689D01*
X942543Y-1720646D01*
X933246Y-1731873D01*
X925423Y-1744167D01*
G37*
G36*
X1510639Y-1536954D02*
G01*
X1510639Y-1488338D01*
X1462024Y-1488338D01*
X1465275Y-1494942D01*
X1472996Y-1506474D01*
X1482140Y-1516888D01*
X1492554Y-1525981D01*
X1504035Y-1533702D01*
G37*
G36*
X1603349Y-1536954D02*
G01*
X1609953Y-1533702D01*
X1621434Y-1525981D01*
X1631848Y-1516888D01*
X1640992Y-1506474D01*
X1648714Y-1494942D01*
X1651965Y-1488338D01*
X1603349Y-1488338D01*
G37*
G36*
X975664Y-1403756D02*
G01*
X975664Y-1351330D01*
X923340Y-1351330D01*
X925423Y-1355852D01*
X933246Y-1368094D01*
X942543Y-1379321D01*
X953109Y-1389278D01*
X964895Y-1397863D01*
G37*
G36*
X1603349Y-1395628D02*
G01*
X1651965Y-1395628D01*
X1648714Y-1389075D01*
X1640992Y-1377543D01*
X1631848Y-1367129D01*
X1621434Y-1357985D01*
X1609953Y-1350314D01*
X1603349Y-1347063D01*
G37*
G36*
X1462024Y-1395628D02*
G01*
X1510639Y-1395628D01*
X1510639Y-1347063D01*
X1504035Y-1350314D01*
X1492554Y-1357985D01*
X1482140Y-1367129D01*
X1472996Y-1377543D01*
X1465275Y-1389075D01*
G37*
G36*
X923340Y-1248664D02*
G01*
X975664Y-1248664D01*
X975664Y-1196238D01*
X964895Y-1202131D01*
X953109Y-1210716D01*
X942543Y-1220673D01*
X933246Y-1231900D01*
X925423Y-1244142D01*
G37*
G36*
X1557020Y-1039876D02*
G01*
X1570837Y-1038961D01*
X1584401Y-1036269D01*
X1597507Y-1031849D01*
X1609953Y-1025702D01*
X1621434Y-1017981D01*
X1631848Y-1008887D01*
X1640992Y-998474D01*
X1648714Y-986942D01*
X1654810Y-974547D01*
X1659280Y-961390D01*
X1661972Y-947826D01*
X1662887Y-934008D01*
X1661972Y-920191D01*
X1659280Y-906576D01*
X1654810Y-893470D01*
X1648714Y-881075D01*
X1640992Y-869543D01*
X1631848Y-859129D01*
X1621434Y-849985D01*
X1609953Y-842314D01*
X1597507Y-836168D01*
X1584401Y-831748D01*
X1570837Y-829005D01*
X1557020Y-828090D01*
X1543151Y-829005D01*
X1529588Y-831748D01*
X1516481Y-836168D01*
X1504035Y-842314D01*
X1492554Y-849985D01*
X1482140Y-859129D01*
X1472996Y-869543D01*
X1465275Y-881075D01*
X1459179Y-893470D01*
X1454708Y-906576D01*
X1452016Y-920191D01*
X1451102Y-934008D01*
X1452016Y-947826D01*
X1454708Y-961390D01*
X1459179Y-974547D01*
X1465275Y-986942D01*
X1472996Y-998474D01*
X1482140Y-1008887D01*
X1492554Y-1017981D01*
X1504035Y-1025702D01*
X1516481Y-1031849D01*
X1529588Y-1036269D01*
X1543151Y-1038961D01*
G37*

%LPD*%
G36*
X4439869Y-4619193D02*
G01*
X4436059Y-4618431D01*
X4432858Y-4616246D01*
X3890416Y-4073855D01*
X3888181Y-4070400D01*
X3887470Y-4066336D01*
X3888740Y-4061663D01*
X3893261Y-4047794D01*
X3895953Y-4033520D01*
X3896868Y-4018991D01*
X3895953Y-4004462D01*
X3893261Y-3990187D01*
X3888740Y-3976319D01*
X3882542Y-3963162D01*
X3874770Y-3950868D01*
X3868572Y-3943400D01*
X3866743Y-3940048D01*
X3866235Y-3936288D01*
X3867200Y-3932580D01*
X3869436Y-3929532D01*
X3872636Y-3927500D01*
X3876395Y-3926789D01*
X4194962Y-3926789D01*
X4198823Y-3927551D01*
X4202125Y-3929735D01*
X4417568Y-4145127D01*
X4419803Y-4148582D01*
X4420514Y-4152646D01*
X4419244Y-4157319D01*
X4414723Y-4171187D01*
X4412030Y-4185462D01*
X4411116Y-4199991D01*
X4412030Y-4214520D01*
X4414723Y-4228795D01*
X4419244Y-4242663D01*
X4425442Y-4255820D01*
X4433214Y-4268114D01*
X4442510Y-4279341D01*
X4453128Y-4289298D01*
X4464913Y-4297832D01*
X4477664Y-4304842D01*
X4491177Y-4310227D01*
X4505299Y-4313834D01*
X4519726Y-4315663D01*
X4534255Y-4315663D01*
X4548682Y-4313834D01*
X4562805Y-4310227D01*
X4576318Y-4304842D01*
X4589068Y-4297832D01*
X4600854Y-4289298D01*
X4611471Y-4279341D01*
X4620768Y-4268114D01*
X4628540Y-4255820D01*
X4634738Y-4242663D01*
X4639259Y-4228795D01*
X4641951Y-4214520D01*
X4642866Y-4199991D01*
X4641951Y-4185462D01*
X4639259Y-4171187D01*
X4634738Y-4157319D01*
X4628540Y-4144162D01*
X4620768Y-4131868D01*
X4611471Y-4120642D01*
X4600854Y-4110685D01*
X4589068Y-4102150D01*
X4576318Y-4095140D01*
X4562805Y-4089755D01*
X4548682Y-4086148D01*
X4534255Y-4084320D01*
X4519726Y-4084320D01*
X4505299Y-4086148D01*
X4491177Y-4089755D01*
X4483201Y-4092956D01*
X4479340Y-4093667D01*
X4475530Y-4092854D01*
X4472279Y-4090670D01*
X4242816Y-3861206D01*
X4236567Y-3856075D01*
X4229912Y-3852519D01*
X4222699Y-3850335D01*
X4214672Y-3849573D01*
X3478834Y-3849573D01*
X3470808Y-3850335D01*
X3463594Y-3852519D01*
X3456940Y-3856075D01*
X3450691Y-3861206D01*
X3372815Y-3939082D01*
X3369106Y-3941927D01*
X3365246Y-3942842D01*
X3361283Y-3942181D01*
X3357930Y-3940098D01*
X3346856Y-3929684D01*
X3335070Y-3921150D01*
X3322320Y-3914140D01*
X3308807Y-3908755D01*
X3294684Y-3905148D01*
X3280257Y-3903319D01*
X3265728Y-3903319D01*
X3251301Y-3905148D01*
X3237179Y-3908755D01*
X3223666Y-3914140D01*
X3210915Y-3921150D01*
X3203905Y-3926230D01*
X3199942Y-3927957D01*
X3195675Y-3927906D01*
X3191764Y-3926078D01*
X3188970Y-3922826D01*
X3187801Y-3918712D01*
X3188411Y-3914444D01*
X3190748Y-3910837D01*
X3277565Y-3824020D01*
X3280867Y-3821785D01*
X3284728Y-3821023D01*
X3748532Y-3820972D01*
X3757066Y-3819804D01*
X3764940Y-3817162D01*
X3772204Y-3813098D01*
X3778910Y-3807510D01*
X4203242Y-3383229D01*
X4206494Y-3381044D01*
X4210405Y-3380282D01*
X4214266Y-3381044D01*
X4217568Y-3383229D01*
X4279696Y-3445357D01*
X4281779Y-3448354D01*
X4282643Y-3451910D01*
X4282236Y-3455568D01*
X4277766Y-3469843D01*
X4275023Y-3484829D01*
X4274108Y-3500018D01*
X4275023Y-3515156D01*
X4277766Y-3530142D01*
X4282287Y-3544620D01*
X4288536Y-3558489D01*
X4296410Y-3571494D01*
X4305757Y-3583482D01*
X4316526Y-3594201D01*
X4328464Y-3603599D01*
X4341469Y-3611473D01*
X4355338Y-3617722D01*
X4369866Y-3622243D01*
X4384802Y-3624986D01*
X4399991Y-3625900D01*
X4415180Y-3624986D01*
X4430115Y-3622243D01*
X4444644Y-3617722D01*
X4458512Y-3611473D01*
X4471517Y-3603599D01*
X4483455Y-3594201D01*
X4494225Y-3583482D01*
X4503572Y-3571494D01*
X4511446Y-3558489D01*
X4517694Y-3544620D01*
X4522216Y-3530142D01*
X4524959Y-3515156D01*
X4525873Y-3500018D01*
X4526381Y-3495141D01*
X4528515Y-3491636D01*
X4531817Y-3489299D01*
X4535779Y-3488385D01*
X4539742Y-3489096D01*
X4543145Y-3491382D01*
X4978755Y-3926941D01*
X4984953Y-3932072D01*
X4991658Y-3935628D01*
X4998872Y-3937812D01*
X5006898Y-3938625D01*
X5072989Y-3938625D01*
X5076799Y-3939336D01*
X5080050Y-3941419D01*
X5082286Y-3944569D01*
X5088534Y-3958488D01*
X5096408Y-3971493D01*
X5105755Y-3983482D01*
X5116525Y-3994200D01*
X5128463Y-4003598D01*
X5141468Y-4011472D01*
X5155336Y-4017721D01*
X5169865Y-4022242D01*
X5184800Y-4024985D01*
X5190439Y-4025290D01*
X5194147Y-4026255D01*
X5197246Y-4028490D01*
X5199278Y-4031691D01*
X5199989Y-4035450D01*
X5199989Y-4364532D01*
X5199278Y-4368292D01*
X5197246Y-4371492D01*
X5194147Y-4373727D01*
X5190439Y-4374692D01*
X5184800Y-4374997D01*
X5169865Y-4377740D01*
X5155336Y-4382262D01*
X5141468Y-4388510D01*
X5128463Y-4396384D01*
X5116525Y-4405782D01*
X5105755Y-4416501D01*
X5096408Y-4428490D01*
X5088534Y-4441494D01*
X5082286Y-4455363D01*
X5077764Y-4469841D01*
X5075021Y-4484827D01*
X5074666Y-4490466D01*
X5073751Y-4494123D01*
X5071516Y-4497222D01*
X5068265Y-4499254D01*
X5064556Y-4500016D01*
X4601006Y-4500016D01*
X4599990Y-4500981D01*
X4599990Y-4590948D01*
X4599127Y-4595063D01*
X4596688Y-4598466D01*
X4593082Y-4600600D01*
X4588916Y-4601057D01*
X4584954Y-4599838D01*
X4576318Y-4595114D01*
X4562805Y-4589780D01*
X4548682Y-4586173D01*
X4534255Y-4584344D01*
X4519726Y-4584344D01*
X4505299Y-4586173D01*
X4491177Y-4589780D01*
X4477664Y-4595114D01*
X4464913Y-4602124D01*
X4453128Y-4610709D01*
X4446981Y-4616450D01*
X4443679Y-4618532D01*
G37*

%LPC*%
G36*
X4221632Y-4303725D02*
G01*
X4221632Y-4251350D01*
X4169308Y-4251350D01*
X4171442Y-4255820D01*
X4179214Y-4268114D01*
X4188510Y-4279341D01*
X4199128Y-4289298D01*
X4210913Y-4297832D01*
G37*
G36*
X4324350Y-4303725D02*
G01*
X4335068Y-4297832D01*
X4346854Y-4289298D01*
X4357471Y-4279341D01*
X4366768Y-4268114D01*
X4374540Y-4255820D01*
X4376674Y-4251350D01*
X4324350Y-4251350D01*
G37*
G36*
X4324350Y-4148632D02*
G01*
X4376674Y-4148632D01*
X4374540Y-4144162D01*
X4366768Y-4131868D01*
X4357471Y-4120642D01*
X4346854Y-4110685D01*
X4335068Y-4102150D01*
X4324350Y-4096258D01*
G37*
G36*
X4169308Y-4148632D02*
G01*
X4221632Y-4148632D01*
X4221632Y-4096258D01*
X4210913Y-4102150D01*
X4199128Y-4110685D01*
X4188510Y-4120642D01*
X4179214Y-4131868D01*
X4171442Y-4144162D01*
G37*

%LPD*%
G36*
X1121714Y-4959502D02*
G01*
X1117803Y-4958689D01*
X1114501Y-4956505D01*
X802995Y-4644948D01*
X800760Y-4641646D01*
X799998Y-4637786D01*
X799998Y-4502150D01*
X800608Y-4499356D01*
X797864Y-4500016D01*
X502158Y-4500016D01*
X497738Y-4499000D01*
X494233Y-4496206D01*
X492251Y-4492142D01*
X492251Y-4487621D01*
X494131Y-4483557D01*
X503580Y-4471517D01*
X511454Y-4458512D01*
X517702Y-4444593D01*
X519938Y-4441444D01*
X523189Y-4439361D01*
X526999Y-4438599D01*
X773023Y-4438599D01*
X776782Y-4439361D01*
X780034Y-4441444D01*
X782269Y-4444593D01*
X788517Y-4458512D01*
X796391Y-4471517D01*
X805840Y-4483557D01*
X807770Y-4487621D01*
X807821Y-4492244D01*
X812342Y-4492244D01*
X816406Y-4494123D01*
X828497Y-4503572D01*
X841502Y-4511446D01*
X855370Y-4517694D01*
X869848Y-4522216D01*
X884834Y-4524959D01*
X900023Y-4525873D01*
X915162Y-4524959D01*
X930148Y-4522216D01*
X944626Y-4517694D01*
X958494Y-4511446D01*
X971499Y-4503572D01*
X983487Y-4494225D01*
X994206Y-4483455D01*
X1003604Y-4471517D01*
X1011478Y-4458512D01*
X1017727Y-4444593D01*
X1019962Y-4441444D01*
X1023213Y-4439361D01*
X1026972Y-4438599D01*
X1173022Y-4438599D01*
X1176782Y-4439361D01*
X1180033Y-4441444D01*
X1182268Y-4444593D01*
X1188516Y-4458512D01*
X1196390Y-4471517D01*
X1205788Y-4483455D01*
X1216507Y-4494225D01*
X1228496Y-4503572D01*
X1241501Y-4511446D01*
X1255369Y-4517694D01*
X1269847Y-4522216D01*
X1284833Y-4524959D01*
X1300022Y-4525873D01*
X1315161Y-4524959D01*
X1330147Y-4522216D01*
X1344625Y-4517694D01*
X1358493Y-4511446D01*
X1371498Y-4503572D01*
X1383487Y-4494225D01*
X1394206Y-4483455D01*
X1403604Y-4471517D01*
X1411478Y-4458512D01*
X1417726Y-4444644D01*
X1422247Y-4430115D01*
X1424990Y-4415180D01*
X1425905Y-4399991D01*
X1424990Y-4384802D01*
X1422247Y-4369866D01*
X1417726Y-4355338D01*
X1414830Y-4348988D01*
X1413967Y-4345025D01*
X1414678Y-4341063D01*
X1416913Y-4337659D01*
X1491640Y-4262932D01*
X1494942Y-4260748D01*
X1498854Y-4259986D01*
X1760220Y-4259986D01*
X1764233Y-4260799D01*
X1767586Y-4263136D01*
X1769770Y-4266590D01*
X1770380Y-4270654D01*
X1769364Y-4274616D01*
X1766824Y-4277868D01*
X1763268Y-4279798D01*
X1755343Y-4282287D01*
X1741474Y-4288536D01*
X1728470Y-4296410D01*
X1716532Y-4305757D01*
X1705762Y-4316526D01*
X1696415Y-4328464D01*
X1688541Y-4341469D01*
X1682292Y-4355338D01*
X1677771Y-4369866D01*
X1675028Y-4384802D01*
X1674114Y-4399991D01*
X1675028Y-4415180D01*
X1677771Y-4430115D01*
X1682292Y-4444644D01*
X1685137Y-4450994D01*
X1686052Y-4454956D01*
X1685289Y-4458919D01*
X1683054Y-4462322D01*
X1505000Y-4640376D01*
X1501902Y-4642510D01*
X1498244Y-4643323D01*
X1492758Y-4643577D01*
X1483360Y-4645609D01*
X1474368Y-4649216D01*
X1466189Y-4654245D01*
X1458925Y-4660646D01*
X1452880Y-4668164D01*
X1448155Y-4676546D01*
X1444955Y-4685639D01*
X1443329Y-4695190D01*
X1443329Y-4704791D01*
X1444955Y-4714341D01*
X1448155Y-4723434D01*
X1452880Y-4731816D01*
X1458925Y-4739335D01*
X1466189Y-4745736D01*
X1474368Y-4750765D01*
X1483360Y-4754372D01*
X1492758Y-4756404D01*
X1502410Y-4756810D01*
X1511960Y-4755591D01*
X1521206Y-4752746D01*
X1529791Y-4748428D01*
X1537563Y-4742688D01*
X1544269Y-4735728D01*
X1549654Y-4727702D01*
X1553616Y-4718913D01*
X1556054Y-4709617D01*
X1556766Y-4701184D01*
X1557680Y-4697780D01*
X1559712Y-4694885D01*
X1737664Y-4516932D01*
X1741068Y-4514697D01*
X1745030Y-4513935D01*
X1748993Y-4514850D01*
X1755343Y-4517694D01*
X1769872Y-4522216D01*
X1784807Y-4524959D01*
X1799996Y-4525873D01*
X1815185Y-4524959D01*
X1830120Y-4522216D01*
X1844649Y-4517694D01*
X1858518Y-4511446D01*
X1871522Y-4503572D01*
X1883460Y-4494225D01*
X1894230Y-4483455D01*
X1903577Y-4471517D01*
X1911451Y-4458512D01*
X1917700Y-4444644D01*
X1922221Y-4430115D01*
X1924964Y-4415180D01*
X1925878Y-4399991D01*
X1924964Y-4384802D01*
X1922221Y-4369866D01*
X1917700Y-4355338D01*
X1911451Y-4341469D01*
X1903577Y-4328464D01*
X1894230Y-4316526D01*
X1883460Y-4305757D01*
X1871522Y-4296410D01*
X1858518Y-4288536D01*
X1844649Y-4282287D01*
X1836724Y-4279798D01*
X1833168Y-4277868D01*
X1830628Y-4274616D01*
X1829612Y-4270654D01*
X1830222Y-4266590D01*
X1832406Y-4263136D01*
X1835759Y-4260799D01*
X1839772Y-4259986D01*
X2560218Y-4259986D01*
X2564231Y-4260799D01*
X2567584Y-4263136D01*
X2569768Y-4266590D01*
X2570378Y-4270654D01*
X2569362Y-4274616D01*
X2566822Y-4277868D01*
X2563266Y-4279798D01*
X2555341Y-4282287D01*
X2541473Y-4288536D01*
X2528468Y-4296410D01*
X2516530Y-4305757D01*
X2505760Y-4316526D01*
X2496413Y-4328464D01*
X2488539Y-4341469D01*
X2482291Y-4355338D01*
X2477770Y-4369866D01*
X2475026Y-4384802D01*
X2474112Y-4399991D01*
X2475026Y-4415180D01*
X2477770Y-4430115D01*
X2482291Y-4444644D01*
X2485136Y-4450994D01*
X2486050Y-4454956D01*
X2485288Y-4458919D01*
X2483053Y-4462322D01*
X2343251Y-4602124D01*
X2339949Y-4604308D01*
X2336088Y-4605121D01*
X1856790Y-4605121D01*
X1848764Y-4605883D01*
X1841550Y-4608068D01*
X1834845Y-4611624D01*
X1828647Y-4616754D01*
X1639163Y-4806238D01*
X1636217Y-4808270D01*
X1632762Y-4809185D01*
X1629206Y-4808829D01*
X1619504Y-4806086D01*
X1606550Y-4804308D01*
X1593443Y-4804308D01*
X1580489Y-4806086D01*
X1567891Y-4809642D01*
X1555902Y-4814874D01*
X1544726Y-4821631D01*
X1534566Y-4829911D01*
X1525625Y-4839462D01*
X1518056Y-4850180D01*
X1512062Y-4861814D01*
X1507693Y-4874107D01*
X1505000Y-4886909D01*
X1504137Y-4900015D01*
X1505000Y-4913071D01*
X1507693Y-4925872D01*
X1512062Y-4938166D01*
X1515414Y-4944668D01*
X1516532Y-4948631D01*
X1515922Y-4952746D01*
X1513789Y-4956251D01*
X1510436Y-4958638D01*
X1506372Y-4959502D01*
G37*

%LPC*%
G36*
X2256332Y-4512411D02*
G01*
X2258517Y-4511446D01*
X2271522Y-4503572D01*
X2283460Y-4494225D01*
X2294229Y-4483455D01*
X2303576Y-4471517D01*
X2311450Y-4458512D01*
X2312416Y-4456328D01*
X2256332Y-4456328D01*
G37*
G36*
X2143658Y-4512411D02*
G01*
X2143658Y-4456328D01*
X2087575Y-4456328D01*
X2088540Y-4458512D01*
X2096414Y-4471517D01*
X2105761Y-4483455D01*
X2116531Y-4494225D01*
X2128469Y-4503572D01*
X2141474Y-4511446D01*
G37*
G36*
X2087575Y-4343654D02*
G01*
X2143658Y-4343654D01*
X2143658Y-4287570D01*
X2141474Y-4288536D01*
X2128469Y-4296410D01*
X2116531Y-4305757D01*
X2105761Y-4316526D01*
X2096414Y-4328464D01*
X2088540Y-4341469D01*
G37*
G36*
X2256332Y-4343654D02*
G01*
X2312416Y-4343654D01*
X2311450Y-4341469D01*
X2303576Y-4328464D01*
X2294229Y-4316526D01*
X2283460Y-4305757D01*
X2271522Y-4296410D01*
X2258517Y-4288536D01*
X2256332Y-4287570D01*
G37*

%LPD*%
G36*
X2030679Y-4998821D02*
G01*
X2026767Y-4998059D01*
X2023465Y-4995824D01*
X1982470Y-4954828D01*
X1980184Y-4951374D01*
X1979472Y-4947310D01*
X1980742Y-4942636D01*
X1985264Y-4928819D01*
X1987956Y-4914493D01*
X1988870Y-4900015D01*
X1987956Y-4885486D01*
X1985264Y-4871161D01*
X1980742Y-4857343D01*
X1974545Y-4844135D01*
X1966772Y-4831892D01*
X1957476Y-4820666D01*
X1946859Y-4810709D01*
X1935073Y-4802124D01*
X1922322Y-4795113D01*
X1908810Y-4789779D01*
X1894687Y-4786172D01*
X1880260Y-4784344D01*
X1865731Y-4784344D01*
X1851304Y-4786172D01*
X1837182Y-4789779D01*
X1823669Y-4795113D01*
X1810918Y-4802124D01*
X1799132Y-4810709D01*
X1788515Y-4820666D01*
X1779219Y-4831892D01*
X1771446Y-4844135D01*
X1765249Y-4857343D01*
X1760728Y-4871161D01*
X1758035Y-4885486D01*
X1757121Y-4900015D01*
X1758035Y-4914493D01*
X1760728Y-4928819D01*
X1765249Y-4942636D01*
X1766519Y-4947310D01*
X1765807Y-4951374D01*
X1763572Y-4954828D01*
X1761896Y-4956505D01*
X1758594Y-4958689D01*
X1754682Y-4959502D01*
X1693621Y-4959502D01*
X1689557Y-4958638D01*
X1686204Y-4956251D01*
X1684070Y-4952746D01*
X1683461Y-4948631D01*
X1684578Y-4944668D01*
X1687931Y-4938166D01*
X1692300Y-4925872D01*
X1694992Y-4913071D01*
X1695856Y-4900015D01*
X1694992Y-4886909D01*
X1692300Y-4874107D01*
X1691386Y-4871415D01*
X1690776Y-4867656D01*
X1691639Y-4863947D01*
X1693773Y-4860848D01*
X1869287Y-4685284D01*
X1872589Y-4683099D01*
X1876501Y-4682337D01*
X2355799Y-4682337D01*
X2363825Y-4681524D01*
X2371039Y-4679340D01*
X2377694Y-4675784D01*
X2383942Y-4670653D01*
X2537663Y-4516932D01*
X2541066Y-4514697D01*
X2545029Y-4513935D01*
X2548991Y-4514850D01*
X2555341Y-4517694D01*
X2569870Y-4522216D01*
X2584805Y-4524959D01*
X2599994Y-4525873D01*
X2615184Y-4524959D01*
X2630119Y-4522216D01*
X2644648Y-4517694D01*
X2658516Y-4511446D01*
X2671521Y-4503572D01*
X2683459Y-4494225D01*
X2694228Y-4483455D01*
X2703576Y-4471517D01*
X2711450Y-4458512D01*
X2717698Y-4444593D01*
X2719933Y-4441444D01*
X2723184Y-4439361D01*
X2726994Y-4438599D01*
X3068370Y-4438599D01*
X3076397Y-4437837D01*
X3083610Y-4435602D01*
X3090316Y-4432046D01*
X3096514Y-4426966D01*
X3426764Y-4096715D01*
X3430270Y-4094429D01*
X3434435Y-4093768D01*
X3438499Y-4094835D01*
X3442512Y-4098340D01*
X3453129Y-4108297D01*
X3464915Y-4116832D01*
X3477666Y-4123842D01*
X3481984Y-4125569D01*
X3485337Y-4127754D01*
X3487572Y-4131056D01*
X3488385Y-4135018D01*
X3488385Y-4506772D01*
X3487623Y-4510684D01*
X3485387Y-4513986D01*
X3327704Y-4671669D01*
X3324453Y-4673854D01*
X3320643Y-4674666D01*
X3316782Y-4673955D01*
X3308807Y-4670755D01*
X3294684Y-4667148D01*
X3280257Y-4665319D01*
X3265728Y-4665319D01*
X3251301Y-4667148D01*
X3237179Y-4670755D01*
X3223666Y-4676140D01*
X3210915Y-4683150D01*
X3199130Y-4691684D01*
X3188512Y-4701641D01*
X3179216Y-4712868D01*
X3171444Y-4725162D01*
X3165246Y-4738319D01*
X3160725Y-4752187D01*
X3158032Y-4766462D01*
X3157118Y-4780991D01*
X3158032Y-4795520D01*
X3160725Y-4809794D01*
X3165246Y-4823663D01*
X3171444Y-4836820D01*
X3179216Y-4849114D01*
X3188512Y-4860340D01*
X3199130Y-4870297D01*
X3210915Y-4878832D01*
X3223666Y-4885842D01*
X3237179Y-4891227D01*
X3251301Y-4894834D01*
X3265728Y-4896662D01*
X3280257Y-4896662D01*
X3294684Y-4894834D01*
X3308807Y-4891227D01*
X3322320Y-4885842D01*
X3335070Y-4878832D01*
X3346856Y-4870297D01*
X3357473Y-4860340D01*
X3366770Y-4849114D01*
X3374542Y-4836820D01*
X3380740Y-4823663D01*
X3385261Y-4809794D01*
X3387953Y-4795520D01*
X3388868Y-4780991D01*
X3387953Y-4766462D01*
X3385261Y-4752187D01*
X3380740Y-4738319D01*
X3379470Y-4733645D01*
X3380181Y-4729581D01*
X3382416Y-4726127D01*
X3476294Y-4632299D01*
X3479596Y-4630064D01*
X3483457Y-4629302D01*
X3487369Y-4630064D01*
X3490671Y-4632299D01*
X3508806Y-4650435D01*
X3511092Y-4653991D01*
X3511753Y-4658207D01*
X3510635Y-4662271D01*
X3507943Y-4665573D01*
X3504133Y-4667453D01*
X3491179Y-4670755D01*
X3477666Y-4676140D01*
X3464915Y-4683150D01*
X3453129Y-4691684D01*
X3442512Y-4701641D01*
X3433216Y-4712868D01*
X3425444Y-4725162D01*
X3419246Y-4738319D01*
X3414725Y-4752187D01*
X3412032Y-4766462D01*
X3411118Y-4780991D01*
X3412032Y-4795520D01*
X3414725Y-4809794D01*
X3419246Y-4823663D01*
X3425444Y-4836820D01*
X3433216Y-4849114D01*
X3442512Y-4860340D01*
X3453129Y-4870297D01*
X3464915Y-4878832D01*
X3477666Y-4885842D01*
X3491179Y-4891227D01*
X3505301Y-4894834D01*
X3509467Y-4895342D01*
X3513683Y-4896916D01*
X3516833Y-4900117D01*
X3518306Y-4904333D01*
X3517798Y-4908804D01*
X3515410Y-4912614D01*
X3432149Y-4995824D01*
X3428847Y-4998059D01*
X3424986Y-4998821D01*
X2216353Y-4998821D01*
X2212441Y-4998008D01*
X2209088Y-4995773D01*
X2206904Y-4992420D01*
X2206193Y-4988458D01*
X2207107Y-4984546D01*
X2209393Y-4981244D01*
X2211476Y-4979314D01*
X2220772Y-4968087D01*
X2228545Y-4955844D01*
X2230678Y-4951323D01*
X2178354Y-4951323D01*
X2178354Y-4988661D01*
X2177592Y-4992573D01*
X2175357Y-4995824D01*
X2172055Y-4998059D01*
X2168194Y-4998821D01*
X2085797Y-4998821D01*
X2081936Y-4998059D01*
X2078634Y-4995824D01*
X2076399Y-4992573D01*
X2075637Y-4988661D01*
X2075637Y-4951323D01*
X2023313Y-4951323D01*
X2025446Y-4955844D01*
X2033219Y-4968087D01*
X2042515Y-4979314D01*
X2044598Y-4981244D01*
X2046884Y-4984546D01*
X2047798Y-4988458D01*
X2047087Y-4992420D01*
X2044903Y-4995773D01*
X2041550Y-4998008D01*
X2037638Y-4998821D01*
G37*

%LPC*%
G36*
X3070352Y-4896916D02*
G01*
X3108401Y-4896916D01*
X3114751Y-4896205D01*
X3120186Y-4894275D01*
X3125114Y-4891176D01*
X3129178Y-4887112D01*
X3132277Y-4882184D01*
X3134207Y-4876749D01*
X3134918Y-4870399D01*
X3134918Y-4832350D01*
X3070352Y-4832350D01*
G37*
G36*
X2929585Y-4896916D02*
G01*
X2967634Y-4896916D01*
X2967634Y-4832350D01*
X2903067Y-4832350D01*
X2903067Y-4870399D01*
X2903778Y-4876749D01*
X2905709Y-4882184D01*
X2908808Y-4887112D01*
X2912872Y-4891176D01*
X2917799Y-4894275D01*
X2923235Y-4896205D01*
G37*
G36*
X2178354Y-4848656D02*
G01*
X2230678Y-4848656D01*
X2228545Y-4844135D01*
X2220772Y-4831892D01*
X2211476Y-4820666D01*
X2200859Y-4810709D01*
X2189073Y-4802124D01*
X2178354Y-4796231D01*
G37*
G36*
X2023313Y-4848656D02*
G01*
X2075637Y-4848656D01*
X2075637Y-4796231D01*
X2064918Y-4802124D01*
X2053132Y-4810709D01*
X2042515Y-4820666D01*
X2033219Y-4831892D01*
X2025446Y-4844135D01*
G37*
G36*
X3070352Y-4729632D02*
G01*
X3134918Y-4729632D01*
X3134918Y-4691583D01*
X3134207Y-4685233D01*
X3132277Y-4679797D01*
X3129178Y-4674870D01*
X3125114Y-4670806D01*
X3120186Y-4667707D01*
X3114751Y-4665776D01*
X3108401Y-4665065D01*
X3070352Y-4665065D01*
G37*
G36*
X2903067Y-4729632D02*
G01*
X2967634Y-4729632D01*
X2967634Y-4665065D01*
X2929585Y-4665065D01*
X2923235Y-4665776D01*
X2917799Y-4667707D01*
X2912872Y-4670806D01*
X2908808Y-4674870D01*
X2905709Y-4679797D01*
X2903778Y-4685233D01*
X2903067Y-4691583D01*
G37*

%LPD*%
G36*
X810158Y-5100015D02*
G01*
X806246Y-5099202D01*
X802995Y-5097018D01*
X800760Y-5093716D01*
X799998Y-5089855D01*
X799998Y-5005425D01*
X800658Y-5001818D01*
X802487Y-4998720D01*
X805332Y-4996484D01*
X808786Y-4995367D01*
X819505Y-4993894D01*
X832103Y-4990338D01*
X844092Y-4985105D01*
X855268Y-4978349D01*
X865428Y-4970068D01*
X874369Y-4960518D01*
X881938Y-4949799D01*
X887933Y-4938166D01*
X892302Y-4925872D01*
X894994Y-4913071D01*
X895858Y-4900015D01*
X894994Y-4886909D01*
X892302Y-4874107D01*
X890524Y-4869078D01*
X889965Y-4865217D01*
X890879Y-4861458D01*
X893114Y-4858258D01*
X896416Y-4856175D01*
X900277Y-4855514D01*
X904036Y-4856327D01*
X907287Y-4858461D01*
X1073861Y-5025034D01*
X1080058Y-5030165D01*
X1086764Y-5033721D01*
X1093978Y-5035905D01*
X1102004Y-5036718D01*
X1774393Y-5036718D01*
X1782419Y-5035905D01*
X1789633Y-5033721D01*
X1796338Y-5030165D01*
X1802536Y-5025034D01*
X1818284Y-5009286D01*
X1821535Y-5007102D01*
X1825345Y-5006340D01*
X1829206Y-5007051D01*
X1837182Y-5010200D01*
X1851304Y-5013807D01*
X1865731Y-5015636D01*
X1880260Y-5015636D01*
X1894687Y-5013807D01*
X1908810Y-5010200D01*
X1916785Y-5007051D01*
X1920646Y-5006340D01*
X1924507Y-5007102D01*
X1927707Y-5009286D01*
X1982825Y-5064404D01*
X1989023Y-5069484D01*
X1995728Y-5073040D01*
X2002942Y-5075275D01*
X2010968Y-5076037D01*
X3444697Y-5076037D01*
X3452723Y-5075275D01*
X3459937Y-5073040D01*
X3466592Y-5069484D01*
X3472840Y-5064404D01*
X3679748Y-4857496D01*
X3683254Y-4855210D01*
X3687419Y-4854498D01*
X3691483Y-4855565D01*
X3694734Y-4858207D01*
X3696512Y-4860340D01*
X3707129Y-4870297D01*
X3718915Y-4878832D01*
X3731666Y-4885842D01*
X3745179Y-4891227D01*
X3759301Y-4894834D01*
X3773728Y-4896662D01*
X3788257Y-4896662D01*
X3802684Y-4894834D01*
X3816807Y-4891227D01*
X3830320Y-4885842D01*
X3843070Y-4878832D01*
X3854856Y-4870297D01*
X3865473Y-4860340D01*
X3874770Y-4849114D01*
X3882542Y-4836820D01*
X3888740Y-4823663D01*
X3893261Y-4809794D01*
X3895953Y-4795520D01*
X3896868Y-4780991D01*
X3895953Y-4766462D01*
X3893261Y-4752187D01*
X3888740Y-4738319D01*
X3882542Y-4725162D01*
X3874770Y-4712868D01*
X3865473Y-4701641D01*
X3854856Y-4691684D01*
X3843070Y-4683150D01*
X3830320Y-4676140D01*
X3816807Y-4670755D01*
X3802684Y-4667148D01*
X3788257Y-4665319D01*
X3773728Y-4665319D01*
X3759301Y-4667148D01*
X3745179Y-4670755D01*
X3731666Y-4676140D01*
X3718915Y-4683150D01*
X3707129Y-4691684D01*
X3696512Y-4701641D01*
X3691280Y-4707991D01*
X3687978Y-4710633D01*
X3683914Y-4711649D01*
X3679799Y-4710988D01*
X3676243Y-4708702D01*
X3545281Y-4577689D01*
X3543046Y-4574387D01*
X3542284Y-4570526D01*
X3543046Y-4566615D01*
X3545281Y-4563313D01*
X3553917Y-4554626D01*
X3559048Y-4548428D01*
X3562604Y-4541774D01*
X3564788Y-4534509D01*
X3565601Y-4526483D01*
X3565601Y-4135018D01*
X3566414Y-4131056D01*
X3568649Y-4127754D01*
X3572001Y-4125569D01*
X3576320Y-4123842D01*
X3589070Y-4116832D01*
X3600856Y-4108297D01*
X3611473Y-4098340D01*
X3620770Y-4087114D01*
X3628542Y-4074820D01*
X3634740Y-4061663D01*
X3639261Y-4047794D01*
X3641953Y-4033520D01*
X3642868Y-4018991D01*
X3641953Y-4004462D01*
X3639261Y-3990187D01*
X3634740Y-3976319D01*
X3628542Y-3963162D01*
X3620770Y-3950868D01*
X3614572Y-3943400D01*
X3612743Y-3940048D01*
X3612235Y-3936288D01*
X3613200Y-3932580D01*
X3615436Y-3929532D01*
X3618636Y-3927500D01*
X3622395Y-3926789D01*
X3685590Y-3926789D01*
X3689350Y-3927500D01*
X3692550Y-3929532D01*
X3694785Y-3932580D01*
X3695750Y-3936288D01*
X3695242Y-3940048D01*
X3693414Y-3943400D01*
X3687216Y-3950868D01*
X3679444Y-3963162D01*
X3673246Y-3976319D01*
X3668725Y-3990187D01*
X3666032Y-4004462D01*
X3665118Y-4018991D01*
X3666032Y-4033520D01*
X3668725Y-4047794D01*
X3673246Y-4061663D01*
X3679444Y-4074820D01*
X3687216Y-4087114D01*
X3696512Y-4098340D01*
X3707129Y-4108297D01*
X3718915Y-4116832D01*
X3731666Y-4123842D01*
X3745179Y-4129227D01*
X3759301Y-4132834D01*
X3773728Y-4134662D01*
X3788257Y-4134662D01*
X3802684Y-4132834D01*
X3816807Y-4129227D01*
X3824782Y-4126026D01*
X3828643Y-4125315D01*
X3832453Y-4126128D01*
X3835704Y-4128312D01*
X4321352Y-4613960D01*
X4323588Y-4617262D01*
X4324350Y-4621174D01*
X4324350Y-4648657D01*
X4351832Y-4648657D01*
X4355744Y-4649419D01*
X4358995Y-4651603D01*
X4408627Y-4701235D01*
X4410710Y-4704232D01*
X4411573Y-4707788D01*
X4412030Y-4714494D01*
X4414723Y-4728819D01*
X4419244Y-4742637D01*
X4425442Y-4755845D01*
X4433214Y-4768088D01*
X4442510Y-4779314D01*
X4453128Y-4789271D01*
X4464913Y-4797856D01*
X4477664Y-4804867D01*
X4491177Y-4810201D01*
X4505299Y-4813808D01*
X4519726Y-4815636D01*
X4534255Y-4815636D01*
X4548682Y-4813808D01*
X4562805Y-4810201D01*
X4576318Y-4804867D01*
X4584954Y-4800142D01*
X4588916Y-4798923D01*
X4593082Y-4799380D01*
X4596688Y-4801514D01*
X4599127Y-4804918D01*
X4599990Y-4809032D01*
X4599990Y-5089855D01*
X4599228Y-5093716D01*
X4596993Y-5097018D01*
X4593742Y-5099202D01*
X4589830Y-5100015D01*
G37*

%LPC*%
G36*
X4324350Y-4803749D02*
G01*
X4335068Y-4797856D01*
X4346854Y-4789271D01*
X4357471Y-4779314D01*
X4366768Y-4768088D01*
X4374540Y-4755845D01*
X4376674Y-4751324D01*
X4324350Y-4751324D01*
G37*
G36*
X4221632Y-4803749D02*
G01*
X4221632Y-4751324D01*
X4169308Y-4751324D01*
X4171442Y-4755845D01*
X4179214Y-4768088D01*
X4188510Y-4779314D01*
X4199128Y-4789271D01*
X4210913Y-4797856D01*
G37*
G36*
X4169308Y-4648657D02*
G01*
X4221632Y-4648657D01*
X4221632Y-4596231D01*
X4210913Y-4602124D01*
X4199128Y-4610709D01*
X4188510Y-4620666D01*
X4179214Y-4631893D01*
X4171442Y-4644136D01*
G37*

%LPD*%
D10*
X540791Y-3159206D02*
G01*
X1722475Y-3159206D01*
X1863262Y-3299993D01*
X1899996Y-3299993D01*
D11*
X1699260Y-2900679D02*
G01*
X2899994Y-2899994D01*
X2999993Y-2799994D01*
D10*
X4699990Y-2699994D02*
G01*
X4499990Y-2899994D01*
X3842994Y-1187996D02*
G01*
X4587989Y-1187996D01*
X4799990Y-1399997D01*
X4799990Y-2199995D01*
X3799992Y-3499995D02*
G01*
X3650005Y-3350008D01*
X3650005Y-3052853D01*
X3218561Y-2621409D01*
X2917418Y-2621409D01*
X2796006Y-2499997D01*
X1599996Y-3499993D02*
G01*
X1299997Y-3499993D01*
X1199997Y-3399993D01*
D11*
X1161948Y-988060D02*
G01*
X1161948Y-1935479D01*
X1149997Y-1949996D01*
X772998Y-2301239D02*
G01*
X899998Y-1949996D01*
X1149997Y-1949996D01*
D10*
X1499996Y-4699990D02*
G01*
X1799996Y-4399991D01*
X540791Y-3159203D02*
G01*
X540791Y-2540993D01*
X399897Y-2400099D01*
X399999Y-3299995D02*
G01*
X540791Y-3159203D01*
X1706956Y-3057705D02*
G01*
X2646629Y-3057705D01*
X3088919Y-3499995D01*
X3499993Y-3499995D01*
X3499993Y-3099996D02*
G01*
X3362299Y-2962302D01*
X1796440Y-2962302D01*
X1759635Y-2999107D01*
X3086049Y-4162783D02*
G01*
X2162784Y-4162783D01*
X1799996Y-3799994D01*
X899998Y-4399993D02*
G01*
X399999Y-4399993D01*
X1299997Y-4399993D02*
G01*
X899998Y-4399993D01*
X1299997Y-4399993D02*
G01*
X1478635Y-4221355D01*
X3110331Y-4221355D01*
X3272993Y-4058693D01*
X3272993Y-4018993D01*
X5199989Y-2999996D02*
G01*
X5099989Y-2899996D01*
X5099989Y-2630172D01*
X4669815Y-2199998D01*
X4598415Y-2199998D01*
X4598415Y-2199998D02*
G01*
X4526991Y-2199998D01*
X4598415Y-2199998D02*
G01*
X4564202Y-2199998D01*
X4149420Y-1785216D01*
X4149420Y-1582066D01*
X3897502Y-1330149D01*
X2897682Y-1330149D01*
X1877034Y-2350797D01*
X2250008Y-10999980D02*
G01*
X1999995Y-10749968D01*
X1999995Y-5399989D01*
X1599996Y-4899992D02*
G01*
X1856282Y-4643706D01*
X2356281Y-4643706D01*
X2599994Y-4399993D01*
X4526991Y-4199994D02*
G01*
X4215155Y-3888158D01*
X3478352Y-3888158D01*
X3399993Y-3966517D01*
X3399993Y-4068879D01*
X3068878Y-4399993D01*
X2599994Y-4399993D01*
X3780993Y-4018993D02*
G01*
X4461992Y-4699993D01*
X4526991Y-4699993D01*
X3526993Y-4018993D02*
G01*
X3526993Y-4526993D01*
X3483483Y-4570503D01*
X3483483Y-4570503D02*
G01*
X3272993Y-4780993D01*
X1299997Y-3799994D02*
G01*
X899998Y-3799994D01*
X1872995Y-4899992D02*
G01*
X1774901Y-4998087D01*
X1101496Y-4998087D01*
X655751Y-4552342D01*
X358241Y-4552342D01*
X271906Y-4466008D01*
X271906Y-4346933D01*
X818845Y-3799994D01*
X899998Y-3799994D01*
X3483483Y-4570503D02*
G01*
X3653993Y-4741039D01*
X3653993Y-4828618D01*
X3445179Y-5037432D01*
X2010460Y-5037432D01*
X1941728Y-4968699D01*
X1941702Y-4968699D01*
X1872995Y-4899992D01*
X2199995Y-3799994D02*
G01*
X2342210Y-3657780D01*
X3635400Y-3657780D01*
X3650005Y-3672385D01*
X5199989Y-3899994D02*
G01*
X5006390Y-3899994D01*
X3988892Y-2882496D01*
X3988892Y-1587883D01*
X3842994Y-1441985D01*
X1556994Y-1187985D02*
G01*
X2025675Y-719305D01*
X3709314Y-719305D01*
X5053990Y299996D02*
G01*
X3952976Y-801016D01*
X2705963Y-801016D01*
X1556994Y-1949985D01*
X4799990Y299996D02*
G01*
X4917414Y417421D01*
X5098338Y417421D01*
X5167960Y347799D01*
X5167960Y227581D01*
X3881653Y-1058725D01*
X2702255Y-1058725D01*
X1556994Y-2203985D01*
D11*
X3842994Y-679985D02*
G01*
X3722014Y-559005D01*
X772998Y-559005D01*
X772998Y-559005D02*
G01*
X694944Y-480951D01*
X694944Y344929D01*
X850011Y499996D01*
X772998Y-559005D02*
G01*
X736345Y-595657D01*
X736345Y-1263347D01*
X772998Y-1299999D01*
X399999Y-900000D02*
G01*
X399999Y449983D01*
X850011Y899995D01*
X551027Y-1799998D02*
G01*
X772998Y-1799998D01*
X399897Y-1800100D02*
G01*
X550926Y-1800100D01*
X551027Y-1799998D01*
X551027Y-1799998D02*
G01*
X551027Y-1051029D01*
X399999Y-900000D01*
D10*
X3842994Y-2203985D02*
G01*
X2584018Y-2203985D01*
X2288006Y-2499997D01*
D11*
X4399991Y-3099996D02*
G01*
X4572990Y-3099996D01*
X4972989Y-2699997D01*
X4399991Y-3499995D02*
G01*
X4397908Y-3499995D01*
X4210405Y-3312467D01*
X4210405Y-3312467D02*
G01*
X3397910Y-2499997D01*
X3050006Y-2499997D01*
X1556994Y-679985D02*
G01*
X1249832Y-987148D01*
X1161948Y-987148D01*
X1161948Y-987148D02*
G01*
X898296Y-987148D01*
X816254Y-905106D01*
X4210405Y-3312467D02*
G01*
X3746804Y-3776068D01*
X3261918Y-3776068D01*
X3047009Y-3990977D01*
X3018993Y-3990977D01*
X3018993Y-4018993D01*
D12*
X4999990Y-12299975D02*
G01*
X4999990Y-5599988D01*
X3399993Y-12299975D02*
G01*
X3399993Y-5599988D01*
D13*
X399999Y-5599988D02*
G01*
X299923Y-5599988D01*
X100025Y-5800140D01*
X100025Y-6450634D01*
X100025Y-12599974D01*
X1199845Y-12599974D01*
X1099946Y-5600039D02*
G01*
X1199946Y-5600039D01*
X1399946Y-5800039D01*
X1399946Y-12600025D01*
X1399943Y-12404509D02*
G01*
X299948Y-12404509D01*
X99948Y-12203846D02*
G01*
X1199944Y-12203846D01*
X1399943Y-12005724D02*
G01*
X299948Y-12005724D01*
X99948Y-11803616D02*
G01*
X1199944Y-11803616D01*
X1399943Y-11602232D02*
G01*
X299948Y-11600025D01*
X99948Y-11402654D02*
G01*
X1199944Y-11402654D01*
X1399943Y-11201270D02*
G01*
X299948Y-11201270D01*
X99948Y-11003516D02*
G01*
X1199944Y-11003516D01*
X1399943Y-10802132D02*
G01*
X299948Y-10802132D01*
X99948Y-10604370D02*
G01*
X1199944Y-10604370D01*
X1399943Y-10402989D02*
G01*
X299948Y-10402989D01*
X99948Y-10201041D02*
G01*
X1199944Y-10201041D01*
X1399943Y-10001227D02*
G01*
X299948Y-10000030D01*
X99948Y-9801412D02*
G01*
X1199944Y-9801412D01*
X1399943Y-9601598D02*
G01*
X299948Y-9601598D01*
X99948Y-9400941D02*
G01*
X1199944Y-9400941D01*
X1399943Y-9197741D02*
G01*
X299948Y-9197741D01*
X99948Y-8999618D02*
G01*
X1199944Y-8999618D01*
X1399943Y-8801498D02*
G01*
X299948Y-8801498D01*
X99948Y-8600841D02*
G01*
X1199944Y-8600841D01*
X1399943Y-8402718D02*
G01*
X299948Y-8402718D01*
X99948Y-8199518D02*
G01*
X1199944Y-8199518D01*
X1399943Y-8001398D02*
G01*
X299948Y-8000034D01*
X99948Y-7802526D02*
G01*
X1199944Y-7802526D01*
X1399943Y-7599326D02*
G01*
X299948Y-7600033D01*
X99948Y-7401570D02*
G01*
X1199944Y-7401570D01*
X1399943Y-7201999D02*
G01*
X299948Y-7200038D01*
X99948Y-6998799D02*
G01*
X1199944Y-6998799D01*
X1399943Y-6803219D02*
G01*
X299948Y-6803219D01*
X99948Y-6602562D02*
G01*
X1199944Y-6602562D01*
X1399943Y-6399362D02*
G01*
X1010795Y-6399362D01*
X299948Y-6399362D01*
D14*
G01*
X3049993Y-2499995D03*
D15*
G01*
X2795993Y-2500007D03*
G01*
X2541993Y-2500007D03*
G01*
X2287993Y-2500007D03*
D16*
G01*
X849998Y899998D03*
G01*
X849998Y499998D03*
G01*
X849998Y99999D03*
D15*
G01*
X2627337Y1049997D03*
G01*
X2373337Y1049997D03*
G01*
X2119337Y1049997D03*
G01*
X1865337Y1049997D03*
G01*
X1618195Y1049997D03*
D17*
G01*
X1556994Y-2457996D03*
G01*
X1556994Y-2203996D03*
G01*
X1556994Y-1949996D03*
G01*
X1556994Y-1695996D03*
G01*
X1556994Y-1441996D03*
G01*
X1556994Y-1187996D03*
G01*
X1556994Y-933996D03*
G01*
X1556994Y-679996D03*
G01*
X3842994Y-679996D03*
G01*
X3842994Y-933996D03*
G01*
X3842994Y-1187996D03*
G01*
X3842994Y-1441996D03*
G01*
X3842994Y-1695996D03*
G01*
X3842994Y-1949996D03*
G01*
X3842994Y-2203996D03*
G01*
X3842994Y-2457996D03*
D18*
G01*
X1026998Y-1299997D03*
G01*
X772998Y-1299997D03*
G01*
X1026998Y-1799996D03*
G01*
X772998Y-1799996D03*
G01*
X772998Y-2299995D03*
G01*
X1026998Y-2299995D03*
G01*
X1026998Y-2799994D03*
G01*
X772998Y-2799994D03*
G01*
X4272991Y-2699994D03*
G01*
X4526991Y-2699994D03*
G01*
X772998Y-3299993D03*
G01*
X1026998Y-3299993D03*
G01*
X1872995Y-4899990D03*
G01*
X2126995Y-4899990D03*
G01*
X4272991Y-4699990D03*
G01*
X4526991Y-4699990D03*
G01*
X4272991Y-4199991D03*
G01*
X4526991Y-4199991D03*
G01*
X4272991Y-2199995D03*
G01*
X4526991Y-2199995D03*
G01*
X4272991Y-1699996D03*
G01*
X4526991Y-1699996D03*
G01*
X4972989Y-2699994D03*
G01*
X5226989Y-2699994D03*
D16*
G01*
X399999Y-1499996D03*
G01*
X399999Y-899998D03*
G01*
X5199989Y-4499990D03*
G01*
X5199989Y-3899992D03*
G01*
X399999Y-4399991D03*
G01*
X399999Y-3799992D03*
G01*
X899998Y-4399991D03*
G01*
X899998Y-3799992D03*
G01*
X1299997Y-4399991D03*
G01*
X1299997Y-3799992D03*
G01*
X1799996Y-4399991D03*
G01*
X1799996Y-3799992D03*
G01*
X2199995Y-4399991D03*
G01*
X2199995Y-3799992D03*
G01*
X2599994Y-4399991D03*
G01*
X2599994Y-3799992D03*
G01*
X5199989Y-2999994D03*
G01*
X5199989Y-3599992D03*
G01*
X2899994Y-3099993D03*
G01*
X3499993Y-3099993D03*
G01*
X2899994Y-3499993D03*
G01*
X3499993Y-3499993D03*
G01*
X3799992Y-3099993D03*
G01*
X4399991Y-3099993D03*
G01*
X3799992Y-3499993D03*
G01*
X4399991Y-3499993D03*
G01*
X399897Y-2400106D03*
G01*
X399897Y-1800108D03*
G01*
X399999Y-3299993D03*
G01*
X399999Y-2699994D03*
D18*
G01*
X4926990Y-599998D03*
D19*
G01*
X4672990Y-599998D03*
D20*
G01*
X4545990Y299999D03*
D21*
G01*
X4799990Y299999D03*
G01*
X5053990Y299999D03*
D15*
G01*
X2250008Y-11799989D03*
G01*
X2250008Y-10999990D03*
D22*
G01*
X1599984Y-4899990D03*
G01*
X799985Y-4899990D03*
D23*
G01*
X3399993Y-5599988D03*
G01*
X4999990Y-5599988D03*
G01*
X399999Y-5599988D03*
G01*
X1099997Y-5599988D03*
D19*
G01*
X3018993Y-4780991D03*
D18*
G01*
X3272993Y-4780991D03*
G01*
X3526993Y-4780991D03*
G01*
X3780993Y-4780991D03*
G01*
X3780993Y-4018991D03*
G01*
X3526993Y-4018991D03*
G01*
X3272993Y-4018991D03*
G01*
X3018993Y-4018991D03*
D24*
G01*
X816254Y-905106D03*
D25*
G01*
X3709314Y-719305D03*
G01*
X3650005Y-3672385D03*
G01*
X1999995Y-5399989D03*
G01*
X1877034Y-2350797D03*
G01*
X3086049Y-4162783D03*
G01*
X1759635Y-2999107D03*
G01*
X1706956Y-3057705D03*
G01*
X1899996Y-3299993D03*
D26*
G01*
X1499996Y-4699990D03*
G01*
X1599996Y-3499993D03*
G01*
X1199997Y-3399993D03*
D24*
G01*
X1699996Y-2899994D03*
G01*
X2999993Y-2799994D03*
D26*
G01*
X4799990Y-2199995D03*
G01*
X4699990Y-2699994D03*
G01*
X4499990Y-2899994D03*
M02*
