G04 Layer: BottomSolderMaskLayer*
G04 EasyEDA v6.5.46, 2025-08-02 21:40:15*
G04 8832990329004e7ebfdb3d49b5405116,ba325f3f76be48ccbdad7cc867071ff5,10*
G04 Gerber Generator version 0.2*
G04 Scale: 100 percent, Rotated: No, Reflected: No *
G04 Dimensions in millimeters *
G04 leading zeros omitted , absolute positions ,4 integer and 5 decimal *
%FSLAX45Y45*%
%MOMM*%

%AMMACRO1*4,1,8,-0.8041,-0.8636,-0.8636,-0.8041,-0.8636,0.8041,-0.8041,0.8636,0.8041,0.8636,0.8636,0.8041,0.8636,-0.8041,0.8041,-0.8636,-0.8041,-0.8636,0*%
%AMMACRO2*4,1,8,-0.9211,-0.9508,-0.9508,-0.921,-0.9508,0.9211,-0.9211,0.9508,0.921,0.9508,0.9508,0.9211,0.9508,-0.921,0.921,-0.9508,-0.9211,-0.9508,0*%
%AMMACRO3*4,1,8,-0.8707,-0.9,-0.9,-0.8707,-0.9,0.8707,-0.8707,0.9,0.8707,0.9,0.9,0.8707,0.9,-0.8707,0.8707,-0.9,-0.8707,-0.9,0*%
%AMMACRO4*4,1,8,-0.9207,-0.95,-0.95,-0.9207,-0.95,0.9207,-0.9207,0.95,0.9207,0.95,0.95,0.9207,0.95,-0.9207,0.9207,-0.95,-0.9207,-0.95,0*%
%ADD10C,6.2036*%
%ADD11MACRO1*%
%ADD12C,1.7272*%
%ADD13C,2.1016*%
%ADD14C,1.6256*%
%ADD15C,1.7016*%
%ADD16C,1.9016*%
%ADD17MACRO2*%
%ADD18MACRO3*%
%ADD19C,1.8000*%
%ADD20C,1.5000*%
%ADD21C,3.1016*%
%ADD22MACRO4*%
%ADD23C,1.9000*%

%LPD*%
D10*
X4999990Y-6499987D02*
G01*
X4999990Y-12299975D01*
X3399993Y-6499987D02*
G01*
X3399993Y-12299975D01*
D11*
G01*
X3049993Y-2499994D03*
D12*
G01*
X2795993Y-2500007D03*
G01*
X2541993Y-2500007D03*
G01*
X2287993Y-2500007D03*
D13*
G01*
X849998Y899998D03*
G01*
X849998Y499998D03*
G01*
X849998Y99999D03*
D12*
G01*
X2627337Y1049997D03*
G01*
X2373337Y1049997D03*
D14*
G01*
X2119337Y1049997D03*
D12*
G01*
X1865337Y1049997D03*
G01*
X1618195Y1049997D03*
D15*
G01*
X1556994Y-2457996D03*
G01*
X1556994Y-2203996D03*
G01*
X1556994Y-1949996D03*
G01*
X1556994Y-1695996D03*
G01*
X1556994Y-1441996D03*
G01*
X1556994Y-1187996D03*
G01*
X1556994Y-933996D03*
G01*
X1556994Y-679996D03*
G01*
X3842994Y-679996D03*
G01*
X3842994Y-933996D03*
G01*
X3842994Y-1187996D03*
G01*
X3842994Y-1441996D03*
G01*
X3842994Y-1695996D03*
G01*
X3842994Y-1949996D03*
G01*
X3842994Y-2203996D03*
G01*
X3842994Y-2457996D03*
D16*
G01*
X1026998Y-1299997D03*
G01*
X772998Y-1299997D03*
G01*
X1026998Y-1799996D03*
G01*
X772998Y-1799996D03*
G01*
X772998Y-2299995D03*
G01*
X1026998Y-2299995D03*
G01*
X1026998Y-2799994D03*
G01*
X772998Y-2799994D03*
G01*
X4272991Y-2699994D03*
G01*
X4526991Y-2699994D03*
G01*
X772998Y-3299993D03*
G01*
X1026998Y-3299993D03*
G01*
X1872995Y-4899990D03*
G01*
X2126995Y-4899990D03*
G01*
X4272991Y-4699990D03*
G01*
X4526991Y-4699990D03*
G01*
X4272991Y-4199991D03*
G01*
X4526991Y-4199991D03*
G01*
X4272991Y-2199995D03*
G01*
X4526991Y-2199995D03*
G01*
X4272991Y-1699996D03*
G01*
X4526991Y-1699996D03*
G01*
X4972989Y-2699994D03*
G01*
X5226989Y-2699994D03*
D13*
G01*
X399999Y-1499996D03*
G01*
X399999Y-899998D03*
G01*
X5199989Y-4499990D03*
G01*
X5199989Y-3899992D03*
G01*
X399999Y-4399991D03*
G01*
X399999Y-3799992D03*
G01*
X899998Y-4399991D03*
G01*
X899998Y-3799992D03*
G01*
X1299997Y-4399991D03*
G01*
X1299997Y-3799992D03*
G01*
X1799996Y-4399991D03*
G01*
X1799996Y-3799992D03*
G01*
X2199995Y-4399991D03*
G01*
X2199995Y-3799992D03*
G01*
X2599994Y-4399991D03*
G01*
X2599994Y-3799992D03*
G01*
X5199989Y-2999994D03*
G01*
X5199989Y-3599992D03*
G01*
X2899994Y-3099993D03*
G01*
X3499993Y-3099993D03*
G01*
X2899994Y-3499993D03*
G01*
X3499993Y-3499993D03*
G01*
X3799992Y-3099993D03*
G01*
X4399991Y-3099993D03*
G01*
X3799992Y-3499993D03*
G01*
X4399991Y-3499993D03*
G01*
X399897Y-2400106D03*
G01*
X399897Y-1800108D03*
G01*
X399999Y-3299993D03*
G01*
X399999Y-2699994D03*
D16*
G01*
X4926990Y-599998D03*
D17*
G01*
X4672990Y-599998D03*
D18*
G01*
X4545990Y299999D03*
D19*
G01*
X4799990Y299999D03*
G01*
X5053990Y299999D03*
D14*
G01*
X2250008Y-11799989D03*
G01*
X2250008Y-10999990D03*
D20*
G01*
X1599984Y-4899990D03*
G01*
X799985Y-4899990D03*
D21*
G01*
X3399993Y-5599988D03*
G01*
X4999990Y-5599988D03*
G01*
X399999Y-5599988D03*
G01*
X1099997Y-5599988D03*
D22*
G01*
X3018993Y-4780991D03*
D23*
G01*
X3272993Y-4780991D03*
G01*
X3526993Y-4780991D03*
G01*
X3780993Y-4780991D03*
G01*
X3780993Y-4018991D03*
G01*
X3526993Y-4018991D03*
G01*
X3272993Y-4018991D03*
G01*
X3018993Y-4018991D03*
M02*
