M48
METRIC,LZ,000.000
;FILE_FORMAT=3:3
;TYPE=PLATED
;Layer: PTH_Through
;EasyEDA v6.5.46, 2025-08-02 21:40:15
;8832990329004e7ebfdb3d49b5405116,ba325f3f76be48ccbdad7cc867071ff5,10
;Gerber Generator version 0.2
;Holesize 1 = 0.306 mm
T01C0.306
;Holesize 2 = 0.310 mm
T02C0.310
;Holesize 3 = 0.411 mm
T03C0.411
;Holesize 4 = 0.800 mm
T04C0.800
;Holesize 5 = 0.901 mm
T05C0.901
;Holesize 6 = 0.915 mm
T06C0.915
;Holesize 7 = 1.000 mm
T07C1.000
;Holesize 8 = 1.101 mm
T08C1.101
;Holesize 9 = 1.200 mm
T09C1.200
;Holesize 10 = 1.400 mm
T10C1.400
;Holesize 11 = 1.501 mm
T11C1.501
%
G05
G90
T01
X037093Y-007193
X036500Y-036724
X020000Y-054000
X018770Y-023508
X030860Y-041628
X017596Y-029991
X017070Y-030577
X019000Y-033000
T02
X015000Y-047000
X016000Y-035000
X012000Y-034000
X048000Y-022000
X047000Y-027000
X045000Y-029000
T03
X008163Y-009051
X017000Y-029000
X030000Y-028000
T04
X016000Y-049000
X008000Y-049000
T05
X015570Y-024580
X015570Y-022040
X015570Y-019500
X015570Y-016960
X015570Y-014420
X015570Y-011880
X015570Y-009340
X015570Y-006800
X038430Y-006800
X038430Y-009340
X038430Y-011880
X038430Y-014420
X038430Y-016960
X038430Y-019500
X038430Y-022040
X038430Y-024580
X022500Y-118000
X022500Y-110000
T06
X030500Y-025000
X027960Y-025000
X025420Y-025000
X022880Y-025000
X026273Y010500
X023733Y010500
X021193Y010500
X018653Y010500
X016182Y010500
T07
X030190Y-047810
X032730Y-047810
X035270Y-047810
X037810Y-047810
X037810Y-040190
X035270Y-040190
X032730Y-040190
X030190Y-040190
T08
X010270Y-013000
X007730Y-013000
X010270Y-018000
X007730Y-018000
X007730Y-023000
X010270Y-023000
X010270Y-028000
X007730Y-028000
X042730Y-027000
X045270Y-027000
X007730Y-033000
X010270Y-033000
X018730Y-049000
X021270Y-049000
X042730Y-047000
X045270Y-047000
X042730Y-042000
X045270Y-042000
X042730Y-022000
X045270Y-022000
X042730Y-017000
X045270Y-017000
X049730Y-027000
X052270Y-027000
X049270Y-006000
X046730Y-006000
X045460Y003000
X048000Y003000
X050540Y003000
T09
X004000Y-015000
X004000Y-009000
X052000Y-045000
X052000Y-039000
X004000Y-044000
X004000Y-038000
X009000Y-044000
X009000Y-038000
X013000Y-044000
X013000Y-038000
X018000Y-044000
X018000Y-038000
X022000Y-044000
X022000Y-038000
X026000Y-044000
X026000Y-038000
X052000Y-030000
X052000Y-036000
X029000Y-031000
X035000Y-031000
X029000Y-035000
X035000Y-035000
X038000Y-031000
X044000Y-031000
X038000Y-035000
X044000Y-035000
X003999Y-024001
X003999Y-018001
X004000Y-033000
X004000Y-027000
T10
X008500Y009000
X008500Y005000
X008500Y001000
T11
X034000Y-056000
X050000Y-056000
X004000Y-056000
X011000Y-056000
M30
