M48
METRIC,LZ,000.000
;FILE_FORMAT=3:3
;TYPE=PLATED
;Layer: PTH_Through
;EasyEDA v6.5.46, 2025-07-26 16:23:32
;7ed6d18b490e47c1a82f07b8cfc49d34,ba325f3f76be48ccbdad7cc867071ff5,10
;Gerber Generator version 0.2
;Holesize 1 = 0.800 mm
T01C0.800
;Holesize 2 = 0.901 mm
T02C0.901
;Holesize 3 = 0.915 mm
T03C0.915
;Holesize 4 = 1.000 mm
T04C1.000
;Holesize 5 = 1.101 mm
T05C1.101
;Holesize 6 = 1.400 mm
T06C1.400
;Holesize 7 = 1.501 mm
T07C1.501
%
G05
G90
T01
X004000Y-014500
X004000Y-022500
T02
X022500Y-125500
X022500Y-117500
X038430Y-029890
X038430Y-027350
X038430Y-024810
X038430Y-022270
X038430Y-019730
X038430Y-017190
X038430Y-014650
X038430Y-012110
X015570Y-012110
X015570Y-014650
X015570Y-017190
X015570Y-019730
X015570Y-022270
X015570Y-024810
X015570Y-027350
X015570Y-029890
T03
X031000Y-022500
X028460Y-022500
X025920Y-022500
X023380Y-022500
X022068Y-001501
X024539Y-001501
X027079Y-001501
X029619Y-001501
X032159Y-001501
T04
X052500Y-020000
X047500Y-020000
X052500Y-024500
X047500Y-024500
X047500Y-029000
X052500Y-029000
X052500Y-033500
X047500Y-033500
X047500Y-044500
X052500Y-044500
X007000Y-021500
X012000Y-021500
X007000Y-016000
X012000Y-016000
X004000Y-012500
X004000Y-007500
X007000Y-010000
X012000Y-010000
X047500Y-039500
X052500Y-039500
X010810Y-044810
X010810Y-042270
X010810Y-039730
X010810Y-037190
X003190Y-037190
X003190Y-039730
X003190Y-042270
X003190Y-044810
T05
X044500Y-015540
X044500Y-010460
X044500Y-049040
X044500Y-043960
X006460Y-033000
X011540Y-033000
X006000Y-030040
X006000Y-024960
X011000Y-030040
X011000Y-024960
X010960Y-049500
X016040Y-049500
X021960Y-049500
X027040Y-049500
X033459Y-049500
X038539Y-049500
X044500Y-040540
X044500Y-035460
T06
X037000Y-002000
X041000Y-002000
X045000Y-002000
T07
X034000Y-056000
X050000Y-056000
X004000Y-056000
X011000Y-056000
M30
