G04 Layer: BottomLayer*
G04 EasyEDA v6.5.46, 2025-07-26 16:23:32*
G04 7ed6d18b490e47c1a82f07b8cfc49d34,ba325f3f76be48ccbdad7cc867071ff5,10*
G04 Gerber Generator version 0.2*
G04 Scale: 100 percent, Rotated: No, Reflected: No *
G04 Dimensions in millimeters *
G04 leading zeros omitted , absolute positions ,4 integer and 5 decimal *
%FSLAX45Y45*%
%MOMM*%

%AMMACRO1*21,1,$1,$2,0,0,$3*%
%ADD10C,6.1020*%
%ADD11C,0.2540*%
%ADD12C,0.3810*%
%ADD13C,1.0000*%
%ADD14MACRO1,1.524X1.524X90.0000*%
%ADD15C,1.5240*%
%ADD16C,2.0000*%
%ADD17C,1.6000*%
%ADD18C,1.7000*%
%ADD19C,1.4000*%
%ADD20C,3.0000*%
%ADD21C,1.5000*%
%ADD22R,1.8000X1.8000*%
%ADD23C,1.8000*%
%ADD24C,0.0145*%

%LPD*%
G36*
X805434Y-5500014D02*
G01*
X802182Y-5499455D01*
X799236Y-5497880D01*
X797001Y-5495442D01*
X706475Y-5359654D01*
X705053Y-5356504D01*
X704799Y-5353050D01*
X705713Y-5349697D01*
X707745Y-5346852D01*
X1015644Y-5038953D01*
X1018641Y-5036870D01*
X1022248Y-5036007D01*
X1025906Y-5036464D01*
X1029157Y-5038191D01*
X1032560Y-5040934D01*
X1044702Y-5048300D01*
X1057706Y-5054041D01*
X1071321Y-5058105D01*
X1085342Y-5060340D01*
X1099566Y-5060797D01*
X1113688Y-5059476D01*
X1127556Y-5056276D01*
X1140866Y-5051399D01*
X1153464Y-5044795D01*
X1165148Y-5036667D01*
X1175664Y-5027117D01*
X1184859Y-5016296D01*
X1192631Y-5004409D01*
X1198778Y-4991608D01*
X1203248Y-4978095D01*
X1205992Y-4964176D01*
X1206906Y-4950002D01*
X1205992Y-4935829D01*
X1203248Y-4921859D01*
X1198778Y-4908397D01*
X1192631Y-4895596D01*
X1184859Y-4883658D01*
X1175664Y-4872837D01*
X1165148Y-4863287D01*
X1153464Y-4855159D01*
X1144117Y-4850282D01*
X1141272Y-4848047D01*
X1139342Y-4844897D01*
X1138682Y-4841290D01*
X1138682Y-4800600D01*
X1137869Y-4792573D01*
X1135684Y-4785360D01*
X1132128Y-4778654D01*
X1126998Y-4772456D01*
X841705Y-4487113D01*
X839469Y-4483811D01*
X838708Y-4479899D01*
X838708Y-3700526D01*
X837895Y-3692499D01*
X835710Y-3685286D01*
X832154Y-3678580D01*
X827024Y-3672382D01*
X441655Y-3286963D01*
X439420Y-3283661D01*
X438658Y-3279749D01*
X438658Y-2343861D01*
X439318Y-2340254D01*
X441248Y-2337104D01*
X444144Y-2334869D01*
X449834Y-2331923D01*
X460501Y-2324354D01*
X470052Y-2315464D01*
X478332Y-2305304D01*
X485140Y-2294128D01*
X490372Y-2282088D01*
X493877Y-2269490D01*
X495655Y-2256536D01*
X495655Y-2243429D01*
X493877Y-2230475D01*
X490372Y-2217877D01*
X485140Y-2205888D01*
X478332Y-2194712D01*
X470052Y-2184552D01*
X460501Y-2175611D01*
X449834Y-2168093D01*
X438200Y-2162048D01*
X425856Y-2157679D01*
X413054Y-2154986D01*
X399999Y-2154123D01*
X386943Y-2154986D01*
X374142Y-2157679D01*
X361797Y-2162048D01*
X350164Y-2168093D01*
X339496Y-2175611D01*
X329946Y-2184552D01*
X321665Y-2194712D01*
X314858Y-2205888D01*
X309676Y-2217877D01*
X306120Y-2230475D01*
X304342Y-2243429D01*
X304342Y-2256536D01*
X306120Y-2269490D01*
X309676Y-2282088D01*
X314858Y-2294128D01*
X321665Y-2305304D01*
X329946Y-2315464D01*
X339496Y-2324354D01*
X350164Y-2331923D01*
X355955Y-2334920D01*
X358851Y-2337155D01*
X360781Y-2340305D01*
X361442Y-2343912D01*
X361442Y-3299460D01*
X362254Y-3307486D01*
X364439Y-3314700D01*
X367995Y-3321405D01*
X373126Y-3327603D01*
X758494Y-3713022D01*
X760730Y-3716324D01*
X761492Y-3720236D01*
X761492Y-4499610D01*
X762304Y-4507636D01*
X764489Y-4514850D01*
X768045Y-4521555D01*
X773176Y-4527753D01*
X1058468Y-4813096D01*
X1060704Y-4816398D01*
X1061466Y-4820310D01*
X1061466Y-4837633D01*
X1060704Y-4841443D01*
X1058621Y-4844694D01*
X1055420Y-4846929D01*
X1044702Y-4851654D01*
X1032560Y-4859020D01*
X1021435Y-4867910D01*
X1011580Y-4878120D01*
X1003046Y-4889500D01*
X996086Y-4901895D01*
X990752Y-4915052D01*
X987145Y-4928768D01*
X985316Y-4942890D01*
X985316Y-4955844D01*
X984554Y-4959705D01*
X982370Y-4963007D01*
X666902Y-5278475D01*
X663143Y-5280863D01*
X658723Y-5281371D01*
X654507Y-5279999D01*
X651306Y-5276900D01*
X601726Y-5202529D01*
X600456Y-5199837D01*
X599998Y-5196890D01*
X599998Y-4801006D01*
X599287Y-4799279D01*
X400710Y-4600702D01*
X398983Y-4599990D01*
X382320Y-4599990D01*
X378104Y-4599076D01*
X374599Y-4596485D01*
X372567Y-4592675D01*
X372262Y-4588357D01*
X373786Y-4584293D01*
X376885Y-4581245D01*
X387096Y-4574743D01*
X398322Y-4565446D01*
X408279Y-4554880D01*
X416864Y-4543094D01*
X423875Y-4530344D01*
X429209Y-4516780D01*
X432816Y-4502708D01*
X434644Y-4488281D01*
X434644Y-4473702D01*
X432816Y-4459274D01*
X429209Y-4445203D01*
X423875Y-4431639D01*
X416864Y-4418888D01*
X408279Y-4407103D01*
X398322Y-4396536D01*
X387096Y-4387240D01*
X374853Y-4379417D01*
X361645Y-4373219D01*
X347827Y-4368749D01*
X333502Y-4366006D01*
X319024Y-4365091D01*
X304495Y-4366006D01*
X290169Y-4368749D01*
X276352Y-4373219D01*
X263144Y-4379417D01*
X250901Y-4387240D01*
X239674Y-4396536D01*
X229717Y-4407103D01*
X221132Y-4418888D01*
X214121Y-4431639D01*
X208788Y-4445203D01*
X205181Y-4459274D01*
X203352Y-4473702D01*
X203352Y-4488281D01*
X205181Y-4502708D01*
X208788Y-4516780D01*
X214121Y-4530344D01*
X221132Y-4543094D01*
X229717Y-4554880D01*
X239674Y-4565446D01*
X250901Y-4574743D01*
X261112Y-4581245D01*
X264210Y-4584293D01*
X265734Y-4588357D01*
X265430Y-4592675D01*
X263398Y-4596485D01*
X259892Y-4599076D01*
X255676Y-4599990D01*
X110185Y-4599990D01*
X106273Y-4599228D01*
X102971Y-4596993D01*
X100787Y-4593742D01*
X100025Y-4589830D01*
X99974Y-304190D01*
X100787Y-300329D01*
X102971Y-297027D01*
X297027Y-102971D01*
X300329Y-100787D01*
X304190Y-100025D01*
X2101850Y-100025D01*
X2105558Y-100685D01*
X2108758Y-102717D01*
X2111044Y-105765D01*
X2112010Y-109423D01*
X2111552Y-113182D01*
X2107438Y-126441D01*
X2105202Y-139903D01*
X2104745Y-153517D01*
X2106066Y-167081D01*
X2109266Y-180340D01*
X2114143Y-193090D01*
X2120696Y-205028D01*
X2128774Y-216001D01*
X2138273Y-225806D01*
X2148992Y-234289D01*
X2160727Y-241249D01*
X2173274Y-246532D01*
X2186432Y-250139D01*
X2199944Y-251967D01*
X2213559Y-251967D01*
X2227072Y-250139D01*
X2240229Y-246532D01*
X2252776Y-241249D01*
X2264511Y-234289D01*
X2275230Y-225806D01*
X2284730Y-216001D01*
X2292807Y-205028D01*
X2299360Y-193090D01*
X2304237Y-180340D01*
X2307437Y-167081D01*
X2308758Y-153517D01*
X2308301Y-139903D01*
X2306066Y-126441D01*
X2301951Y-113182D01*
X2301494Y-109423D01*
X2302459Y-105765D01*
X2304745Y-102717D01*
X2307945Y-100685D01*
X2311654Y-100025D01*
X2348992Y-100025D01*
X2352700Y-100685D01*
X2355900Y-102717D01*
X2358186Y-105765D01*
X2359152Y-109423D01*
X2358694Y-113182D01*
X2354580Y-126441D01*
X2352344Y-139903D01*
X2351887Y-153517D01*
X2353208Y-167081D01*
X2356408Y-180340D01*
X2361285Y-193090D01*
X2367838Y-205028D01*
X2375916Y-216001D01*
X2385415Y-225806D01*
X2396134Y-234289D01*
X2407869Y-241249D01*
X2420416Y-246532D01*
X2433574Y-250139D01*
X2447086Y-251967D01*
X2460701Y-251967D01*
X2474214Y-250139D01*
X2487371Y-246532D01*
X2499918Y-241249D01*
X2511653Y-234289D01*
X2522372Y-225806D01*
X2531872Y-216001D01*
X2539949Y-205028D01*
X2546502Y-193090D01*
X2551379Y-180340D01*
X2554579Y-167081D01*
X2555900Y-153517D01*
X2555443Y-139903D01*
X2553208Y-126441D01*
X2549093Y-113182D01*
X2548636Y-109423D01*
X2549601Y-105765D01*
X2551887Y-102717D01*
X2555087Y-100685D01*
X2558796Y-100025D01*
X2602992Y-100025D01*
X2606700Y-100685D01*
X2609900Y-102717D01*
X2612186Y-105765D01*
X2613152Y-109423D01*
X2612694Y-113182D01*
X2608580Y-126441D01*
X2606344Y-139903D01*
X2605887Y-153517D01*
X2607208Y-167081D01*
X2610408Y-180340D01*
X2615285Y-193090D01*
X2621838Y-205028D01*
X2629916Y-216001D01*
X2639415Y-225806D01*
X2650134Y-234289D01*
X2661869Y-241249D01*
X2674416Y-246532D01*
X2687574Y-250139D01*
X2701086Y-251967D01*
X2714701Y-251967D01*
X2728214Y-250139D01*
X2741371Y-246532D01*
X2753918Y-241249D01*
X2765653Y-234289D01*
X2776372Y-225806D01*
X2785872Y-216001D01*
X2793949Y-205028D01*
X2800502Y-193090D01*
X2805379Y-180340D01*
X2808579Y-167081D01*
X2809900Y-153517D01*
X2809443Y-139903D01*
X2807208Y-126441D01*
X2803093Y-113182D01*
X2802636Y-109423D01*
X2803601Y-105765D01*
X2805887Y-102717D01*
X2809087Y-100685D01*
X2812796Y-100025D01*
X2856992Y-100025D01*
X2860700Y-100685D01*
X2863850Y-102666D01*
X2866136Y-105664D01*
X2918510Y-105664D01*
X2920746Y-102666D01*
X2923946Y-100685D01*
X2927604Y-100025D01*
X2996184Y-100025D01*
X2999841Y-100685D01*
X3003042Y-102666D01*
X3005277Y-105664D01*
X3057652Y-105664D01*
X3059938Y-102666D01*
X3063087Y-100685D01*
X3066796Y-100025D01*
X3110992Y-100025D01*
X3114700Y-100685D01*
X3117900Y-102717D01*
X3120186Y-105765D01*
X3121152Y-109423D01*
X3120694Y-113182D01*
X3116580Y-126441D01*
X3114344Y-139903D01*
X3113887Y-153517D01*
X3115208Y-167081D01*
X3118408Y-180340D01*
X3123285Y-193090D01*
X3129838Y-205028D01*
X3137916Y-216001D01*
X3147415Y-225806D01*
X3158134Y-234289D01*
X3169869Y-241249D01*
X3182416Y-246532D01*
X3195574Y-250139D01*
X3209086Y-251967D01*
X3222701Y-251967D01*
X3236214Y-250139D01*
X3249371Y-246532D01*
X3261918Y-241249D01*
X3273653Y-234289D01*
X3284372Y-225806D01*
X3293872Y-216001D01*
X3301949Y-205028D01*
X3308502Y-193090D01*
X3313379Y-180340D01*
X3316579Y-167081D01*
X3317900Y-153517D01*
X3317443Y-139903D01*
X3315208Y-126441D01*
X3311093Y-113182D01*
X3310636Y-109423D01*
X3311601Y-105765D01*
X3313887Y-102717D01*
X3317087Y-100685D01*
X3320796Y-100025D01*
X3597859Y-100025D01*
X3602228Y-100990D01*
X3605784Y-103784D01*
X3607714Y-107848D01*
X3607765Y-112369D01*
X3605834Y-116433D01*
X3596386Y-128473D01*
X3588512Y-141478D01*
X3582263Y-155346D01*
X3577742Y-169875D01*
X3574999Y-184810D01*
X3574084Y-199999D01*
X3574999Y-215188D01*
X3577742Y-230124D01*
X3582263Y-244652D01*
X3588512Y-258521D01*
X3596386Y-271526D01*
X3605784Y-283464D01*
X3616502Y-294233D01*
X3628491Y-303580D01*
X3641496Y-311454D01*
X3655364Y-317703D01*
X3658615Y-318719D01*
X3661257Y-319989D01*
X3663391Y-321919D01*
X3668522Y-328117D01*
X4342079Y-1001674D01*
X4344263Y-1004824D01*
X4345076Y-1008583D01*
X4344466Y-1012393D01*
X4343704Y-1014425D01*
X4340504Y-1028293D01*
X4339183Y-1042466D01*
X4339640Y-1056640D01*
X4341876Y-1070660D01*
X4344720Y-1080211D01*
X4345127Y-1083767D01*
X4344212Y-1087272D01*
X4342130Y-1090269D01*
X4275480Y-1156970D01*
X4270298Y-1163878D01*
X4266590Y-1171295D01*
X4264304Y-1179271D01*
X4263491Y-1188008D01*
X4263542Y-2010206D01*
X4264761Y-2018741D01*
X4267403Y-2026615D01*
X4271416Y-2033879D01*
X4277004Y-2040585D01*
X4646117Y-2409698D01*
X4648250Y-2412796D01*
X4649063Y-2416454D01*
X4648555Y-2420162D01*
X4647742Y-2422601D01*
X4644999Y-2436164D01*
X4644136Y-2449982D01*
X4644999Y-2463800D01*
X4647742Y-2477414D01*
X4652162Y-2490520D01*
X4658309Y-2502916D01*
X4665980Y-2514447D01*
X4675124Y-2524861D01*
X4685538Y-2534005D01*
X4697069Y-2541676D01*
X4709464Y-2547823D01*
X4722622Y-2552293D01*
X4736185Y-2554986D01*
X4750003Y-2555900D01*
X4763820Y-2554986D01*
X4777384Y-2552293D01*
X4790541Y-2547823D01*
X4802936Y-2541676D01*
X4814468Y-2534005D01*
X4824882Y-2524861D01*
X4834026Y-2514447D01*
X4841697Y-2502916D01*
X4847844Y-2490520D01*
X4852263Y-2477414D01*
X4855006Y-2463800D01*
X4855870Y-2449982D01*
X4855006Y-2436164D01*
X4852263Y-2422601D01*
X4847844Y-2409494D01*
X4841697Y-2397048D01*
X4834026Y-2385517D01*
X4824882Y-2375103D01*
X4814468Y-2366010D01*
X4802936Y-2358288D01*
X4790541Y-2352192D01*
X4777384Y-2347722D01*
X4763820Y-2345029D01*
X4750003Y-2344115D01*
X4736185Y-2345029D01*
X4722622Y-2347722D01*
X4720132Y-2348534D01*
X4716424Y-2349093D01*
X4712766Y-2348230D01*
X4709668Y-2346096D01*
X4356404Y-1992833D01*
X4354220Y-1989531D01*
X4353458Y-1985670D01*
X4353458Y-1638503D01*
X4354220Y-1634642D01*
X4356354Y-1631391D01*
X4359605Y-1629156D01*
X4363466Y-1628343D01*
X4367377Y-1629054D01*
X4370679Y-1631238D01*
X4378096Y-1638452D01*
X4389475Y-1646936D01*
X4401870Y-1653895D01*
X4415028Y-1659229D01*
X4428794Y-1662836D01*
X4442866Y-1664665D01*
X4457090Y-1664665D01*
X4471212Y-1662836D01*
X4484928Y-1659229D01*
X4498086Y-1653895D01*
X4510481Y-1646936D01*
X4521860Y-1638452D01*
X4532071Y-1628546D01*
X4540961Y-1617421D01*
X4548327Y-1605280D01*
X4554067Y-1592275D01*
X4558080Y-1578660D01*
X4560366Y-1564640D01*
X4560824Y-1550466D01*
X4559452Y-1536293D01*
X4556302Y-1522425D01*
X4551375Y-1509115D01*
X4544822Y-1496517D01*
X4536694Y-1484884D01*
X4527143Y-1474317D01*
X4516323Y-1465122D01*
X4504385Y-1457401D01*
X4491583Y-1451203D01*
X4478121Y-1446733D01*
X4464151Y-1444040D01*
X4449978Y-1443126D01*
X4435805Y-1444040D01*
X4421886Y-1446733D01*
X4408373Y-1451203D01*
X4395571Y-1457401D01*
X4383684Y-1465122D01*
X4372864Y-1474317D01*
X4371136Y-1476248D01*
X4367834Y-1478635D01*
X4363923Y-1479600D01*
X4359910Y-1478889D01*
X4356506Y-1476705D01*
X4354220Y-1473403D01*
X4353458Y-1469440D01*
X4353458Y-1210360D01*
X4354220Y-1206449D01*
X4356404Y-1203198D01*
X4405630Y-1153972D01*
X4408474Y-1151940D01*
X4411878Y-1151026D01*
X4415383Y-1151331D01*
X4428794Y-1154836D01*
X4442866Y-1156665D01*
X4457090Y-1156665D01*
X4471212Y-1154836D01*
X4484928Y-1151229D01*
X4498086Y-1145895D01*
X4510481Y-1138936D01*
X4521860Y-1130452D01*
X4532071Y-1120546D01*
X4540961Y-1109421D01*
X4548327Y-1097280D01*
X4554067Y-1084275D01*
X4558080Y-1070660D01*
X4560366Y-1056640D01*
X4560824Y-1042466D01*
X4559452Y-1028293D01*
X4556302Y-1014425D01*
X4551375Y-1001115D01*
X4544822Y-988517D01*
X4536694Y-976884D01*
X4527143Y-966317D01*
X4516323Y-957122D01*
X4504385Y-949401D01*
X4491583Y-943203D01*
X4478121Y-938733D01*
X4464151Y-936040D01*
X4449978Y-935126D01*
X4435805Y-936040D01*
X4421886Y-938733D01*
X4416145Y-940612D01*
X4412437Y-941120D01*
X4408830Y-940308D01*
X4405782Y-938174D01*
X3779418Y-311861D01*
X3777132Y-308254D01*
X3776472Y-304038D01*
X3777640Y-299923D01*
X3780332Y-296672D01*
X3783482Y-294233D01*
X3794201Y-283464D01*
X3803599Y-271526D01*
X3811473Y-258521D01*
X3817721Y-244652D01*
X3822242Y-230124D01*
X3824986Y-215188D01*
X3825900Y-199999D01*
X3824986Y-184810D01*
X3822242Y-169875D01*
X3817721Y-155346D01*
X3811473Y-141478D01*
X3803599Y-128473D01*
X3794150Y-116433D01*
X3792220Y-112369D01*
X3792270Y-107848D01*
X3794201Y-103784D01*
X3797757Y-100990D01*
X3802126Y-100025D01*
X3997858Y-100025D01*
X4002227Y-100990D01*
X4005783Y-103784D01*
X4007713Y-107848D01*
X4007764Y-112369D01*
X4005834Y-116433D01*
X3996385Y-128473D01*
X3988511Y-141478D01*
X3982262Y-155346D01*
X3977741Y-169875D01*
X3974998Y-184810D01*
X3974084Y-199999D01*
X3974998Y-215188D01*
X3977741Y-230124D01*
X3982262Y-244652D01*
X3988511Y-258521D01*
X3996385Y-271526D01*
X4005783Y-283464D01*
X4016501Y-294233D01*
X4028490Y-303580D01*
X4041495Y-311454D01*
X4055364Y-317703D01*
X4069842Y-322224D01*
X4084828Y-324967D01*
X4100017Y-325882D01*
X4115155Y-324967D01*
X4130141Y-322224D01*
X4144772Y-317652D01*
X4148734Y-316738D01*
X4152747Y-317500D01*
X4156151Y-319735D01*
X4702048Y-865682D01*
X4704283Y-868934D01*
X4705045Y-872845D01*
X4705045Y-1898040D01*
X4704334Y-1901698D01*
X4702352Y-1904898D01*
X4699355Y-1907133D01*
X4697069Y-1908302D01*
X4685538Y-1915972D01*
X4675124Y-1925116D01*
X4665980Y-1935530D01*
X4658309Y-1947062D01*
X4652162Y-1959457D01*
X4647742Y-1972614D01*
X4644999Y-1986178D01*
X4644136Y-1999996D01*
X4644999Y-2013813D01*
X4647742Y-2027377D01*
X4652162Y-2040534D01*
X4658309Y-2052929D01*
X4665980Y-2064461D01*
X4675124Y-2074875D01*
X4685538Y-2084019D01*
X4697069Y-2091689D01*
X4709464Y-2097836D01*
X4722622Y-2102256D01*
X4736185Y-2104999D01*
X4750003Y-2105863D01*
X4763820Y-2104999D01*
X4777384Y-2102256D01*
X4790541Y-2097836D01*
X4802936Y-2091689D01*
X4814468Y-2084019D01*
X4824882Y-2074875D01*
X4834026Y-2064461D01*
X4841697Y-2052929D01*
X4847844Y-2040534D01*
X4852263Y-2027377D01*
X4855006Y-2013813D01*
X4855870Y-1999996D01*
X4855006Y-1986178D01*
X4852263Y-1972614D01*
X4847844Y-1959457D01*
X4841697Y-1947062D01*
X4834026Y-1935530D01*
X4824882Y-1925116D01*
X4814468Y-1915972D01*
X4802936Y-1908302D01*
X4800650Y-1907133D01*
X4797653Y-1904898D01*
X4795672Y-1901698D01*
X4794961Y-1898040D01*
X4794910Y-848309D01*
X4793742Y-839724D01*
X4791100Y-831850D01*
X4787036Y-824636D01*
X4781448Y-817880D01*
X4219702Y-256133D01*
X4217466Y-252729D01*
X4216755Y-248767D01*
X4217720Y-244652D01*
X4222242Y-230124D01*
X4224985Y-215188D01*
X4225899Y-199999D01*
X4224985Y-184810D01*
X4222242Y-169875D01*
X4217720Y-155346D01*
X4211472Y-141478D01*
X4203598Y-128473D01*
X4194149Y-116433D01*
X4192219Y-112369D01*
X4192270Y-107848D01*
X4194200Y-103784D01*
X4197756Y-100990D01*
X4202125Y-100025D01*
X4397857Y-100025D01*
X4402226Y-100990D01*
X4405782Y-103784D01*
X4407712Y-107848D01*
X4407763Y-112369D01*
X4405833Y-116433D01*
X4396384Y-128473D01*
X4388510Y-141478D01*
X4387545Y-143662D01*
X4443628Y-143662D01*
X4443628Y-110185D01*
X4444390Y-106273D01*
X4446625Y-102971D01*
X4449927Y-100787D01*
X4453788Y-100025D01*
X4546193Y-100025D01*
X4550054Y-100787D01*
X4553356Y-102971D01*
X4555591Y-106273D01*
X4556353Y-110185D01*
X4556353Y-143662D01*
X4612436Y-143662D01*
X4611471Y-141478D01*
X4603597Y-128473D01*
X4594148Y-116433D01*
X4592218Y-112369D01*
X4592269Y-107848D01*
X4594199Y-103784D01*
X4597755Y-100990D01*
X4602124Y-100025D01*
X5095798Y-100025D01*
X5099659Y-100787D01*
X5102961Y-102971D01*
X5297017Y-297027D01*
X5299202Y-300329D01*
X5299964Y-304190D01*
X5299964Y-1891182D01*
X5299049Y-1895500D01*
X5296357Y-1899005D01*
X5296357Y-1956003D01*
X5299049Y-1959508D01*
X5299964Y-1963826D01*
X5299964Y-2036165D01*
X5299049Y-2040483D01*
X5296357Y-2043988D01*
X5296357Y-2100986D01*
X5299049Y-2104491D01*
X5299964Y-2108809D01*
X5299964Y-2341219D01*
X5299049Y-2345486D01*
X5296357Y-2348992D01*
X5296357Y-2406040D01*
X5299049Y-2409494D01*
X5299964Y-2413812D01*
X5299964Y-2486202D01*
X5299049Y-2490470D01*
X5296357Y-2493975D01*
X5296357Y-2551023D01*
X5299049Y-2554478D01*
X5299964Y-2558796D01*
X5299964Y-2791206D01*
X5299049Y-2795524D01*
X5296306Y-2799029D01*
X5296306Y-2855976D01*
X5299049Y-2859481D01*
X5299964Y-2863799D01*
X5299964Y-2936189D01*
X5299049Y-2940507D01*
X5296306Y-2944012D01*
X5296306Y-3000959D01*
X5299049Y-3004464D01*
X5299964Y-3008782D01*
X5299964Y-3241192D01*
X5299049Y-3245510D01*
X5296357Y-3248964D01*
X5296357Y-3306013D01*
X5299049Y-3309518D01*
X5299964Y-3313785D01*
X5299964Y-3386175D01*
X5299049Y-3390493D01*
X5296357Y-3393948D01*
X5296357Y-3450996D01*
X5299049Y-3454501D01*
X5299964Y-3458768D01*
X5299964Y-3841191D01*
X5299252Y-3844950D01*
X5297220Y-3848201D01*
X5294071Y-3850436D01*
X5290362Y-3851351D01*
X5286552Y-3850843D01*
X5277358Y-3847693D01*
X5263794Y-3845001D01*
X5249976Y-3844086D01*
X5236159Y-3845001D01*
X5222595Y-3847693D01*
X5209438Y-3852164D01*
X5197043Y-3858310D01*
X5185511Y-3865981D01*
X5175097Y-3875125D01*
X5165953Y-3885539D01*
X5158282Y-3897071D01*
X5152136Y-3909466D01*
X5147716Y-3922572D01*
X5144973Y-3936187D01*
X5144109Y-3950004D01*
X5144973Y-3963822D01*
X5147716Y-3977386D01*
X5150815Y-3986580D01*
X5151323Y-3990289D01*
X5150510Y-3993946D01*
X5148376Y-3997045D01*
X5113324Y-4032097D01*
X5110022Y-4034282D01*
X5106111Y-4035094D01*
X4838344Y-4035094D01*
X4834534Y-4034332D01*
X4831283Y-4032250D01*
X4829048Y-4029100D01*
X4828184Y-4025341D01*
X4828743Y-4021531D01*
X4830673Y-4018229D01*
X4833975Y-4014470D01*
X4841697Y-4002938D01*
X4844948Y-3996334D01*
X4796332Y-3996334D01*
X4796332Y-4024934D01*
X4795570Y-4028795D01*
X4793335Y-4032097D01*
X4790033Y-4034282D01*
X4786172Y-4035094D01*
X4713782Y-4035094D01*
X4709922Y-4034282D01*
X4706620Y-4032097D01*
X4704384Y-4028795D01*
X4703622Y-4024934D01*
X4703622Y-3996334D01*
X4655007Y-3996334D01*
X4658258Y-4002938D01*
X4665980Y-4014470D01*
X4669282Y-4018229D01*
X4671212Y-4021531D01*
X4671771Y-4025341D01*
X4670907Y-4029100D01*
X4668672Y-4032250D01*
X4665421Y-4034332D01*
X4661611Y-4035094D01*
X4567275Y-4035094D01*
X4563922Y-4034485D01*
X4560925Y-4032859D01*
X4558690Y-4030319D01*
X4557369Y-4027170D01*
X4556302Y-4022445D01*
X4551375Y-4009085D01*
X4544822Y-3996486D01*
X4536694Y-3984853D01*
X4527143Y-3974337D01*
X4516323Y-3965143D01*
X4504385Y-3957370D01*
X4491583Y-3951224D01*
X4478121Y-3946753D01*
X4464151Y-3944010D01*
X4449978Y-3943096D01*
X4435805Y-3944010D01*
X4421886Y-3946753D01*
X4409389Y-3950868D01*
X4405731Y-3951376D01*
X4402074Y-3950512D01*
X4399026Y-3948429D01*
X4259072Y-3808476D01*
X4256887Y-3805174D01*
X4256125Y-3801262D01*
X4256125Y-2601976D01*
X4255312Y-2593949D01*
X4253128Y-2586736D01*
X4249572Y-2580081D01*
X4244441Y-2573832D01*
X3940810Y-2270252D01*
X3938778Y-2267305D01*
X3937914Y-2263902D01*
X3938219Y-2260346D01*
X3941876Y-2247087D01*
X3943654Y-2233726D01*
X3943654Y-2220264D01*
X3941876Y-2206904D01*
X3938270Y-2193899D01*
X3933037Y-2181504D01*
X3926179Y-2169922D01*
X3920439Y-2162657D01*
X3918508Y-2158746D01*
X3918458Y-2154377D01*
X3920185Y-2150364D01*
X3923436Y-2147468D01*
X3927601Y-2146198D01*
X3931920Y-2146808D01*
X3935577Y-2149144D01*
X4646117Y-2859684D01*
X4648200Y-2862783D01*
X4649063Y-2866390D01*
X4648555Y-2870098D01*
X4647692Y-2872587D01*
X4644999Y-2886151D01*
X4644085Y-2900019D01*
X4644999Y-2913837D01*
X4647692Y-2927400D01*
X4652162Y-2940507D01*
X4658258Y-2952953D01*
X4665980Y-2964434D01*
X4675124Y-2974848D01*
X4685538Y-2983992D01*
X4697018Y-2991713D01*
X4709464Y-2997809D01*
X4722571Y-3002280D01*
X4736134Y-3004972D01*
X4750003Y-3005886D01*
X4763820Y-3004972D01*
X4777384Y-3002280D01*
X4790490Y-2997809D01*
X4802936Y-2991713D01*
X4814417Y-2983992D01*
X4824831Y-2974848D01*
X4833975Y-2964434D01*
X4841697Y-2952953D01*
X4847793Y-2940507D01*
X4852263Y-2927400D01*
X4854956Y-2913837D01*
X4855870Y-2900019D01*
X4854956Y-2886151D01*
X4852263Y-2872587D01*
X4847793Y-2859481D01*
X4841697Y-2847035D01*
X4833975Y-2835554D01*
X4824831Y-2825140D01*
X4814417Y-2815996D01*
X4802936Y-2808274D01*
X4790490Y-2802178D01*
X4777384Y-2797708D01*
X4763820Y-2795016D01*
X4750003Y-2794101D01*
X4736134Y-2795016D01*
X4722571Y-2797708D01*
X4720132Y-2798521D01*
X4716424Y-2799080D01*
X4712766Y-2798216D01*
X4709718Y-2796082D01*
X3980535Y-2067001D01*
X3973626Y-2061819D01*
X3966210Y-2058111D01*
X3958234Y-2055825D01*
X3949547Y-2055063D01*
X3927449Y-2055063D01*
X3923029Y-2054047D01*
X3919524Y-2051202D01*
X3917543Y-2047189D01*
X3917543Y-2042668D01*
X3919474Y-2038604D01*
X3926179Y-2030069D01*
X3933037Y-2018487D01*
X3938270Y-2006092D01*
X3941876Y-1993087D01*
X3943654Y-1979726D01*
X3943654Y-1966264D01*
X3941876Y-1952904D01*
X3938270Y-1939899D01*
X3933037Y-1927504D01*
X3926179Y-1915922D01*
X3917797Y-1905304D01*
X3908145Y-1895957D01*
X3897274Y-1887982D01*
X3885437Y-1881479D01*
X3872890Y-1876653D01*
X3859784Y-1873504D01*
X3846372Y-1872183D01*
X3832910Y-1872640D01*
X3819601Y-1874875D01*
X3810101Y-1877822D01*
X3806444Y-1878228D01*
X3802887Y-1877364D01*
X3799890Y-1875282D01*
X2897632Y-973074D01*
X2891434Y-967943D01*
X2884728Y-964387D01*
X2877515Y-962202D01*
X2869488Y-961390D01*
X1305052Y-961390D01*
X1301394Y-960678D01*
X1298194Y-958697D01*
X1295958Y-955700D01*
X1291691Y-947064D01*
X1283970Y-935532D01*
X1274876Y-925118D01*
X1264462Y-915974D01*
X1252931Y-908303D01*
X1240485Y-902157D01*
X1227378Y-897737D01*
X1213815Y-894994D01*
X1199997Y-894130D01*
X1186180Y-894994D01*
X1172565Y-897737D01*
X1159459Y-902157D01*
X1147064Y-908303D01*
X1135532Y-915974D01*
X1125118Y-925118D01*
X1115974Y-935532D01*
X1108303Y-947064D01*
X1102156Y-959459D01*
X1097686Y-972616D01*
X1094994Y-986180D01*
X1094079Y-999998D01*
X1094994Y-1013815D01*
X1097686Y-1027379D01*
X1100836Y-1036574D01*
X1101344Y-1040282D01*
X1100480Y-1043940D01*
X1098397Y-1047038D01*
X736955Y-1408430D01*
X733653Y-1410614D01*
X729792Y-1411427D01*
X494182Y-1411427D01*
X490778Y-1410817D01*
X487781Y-1409141D01*
X485495Y-1406499D01*
X478332Y-1394714D01*
X470052Y-1384554D01*
X460501Y-1375613D01*
X449834Y-1368094D01*
X443128Y-1364589D01*
X439724Y-1361744D01*
X438962Y-1360119D01*
X436626Y-1360728D01*
X432765Y-1360119D01*
X425856Y-1357680D01*
X413054Y-1354988D01*
X399999Y-1354124D01*
X386943Y-1354988D01*
X374142Y-1357680D01*
X367233Y-1360119D01*
X363372Y-1360728D01*
X361035Y-1360119D01*
X360273Y-1361744D01*
X356870Y-1364589D01*
X350164Y-1368094D01*
X339496Y-1375613D01*
X329946Y-1384554D01*
X321665Y-1394714D01*
X314858Y-1405890D01*
X309676Y-1417878D01*
X306120Y-1430477D01*
X304342Y-1443431D01*
X304342Y-1456537D01*
X306120Y-1469491D01*
X309676Y-1482090D01*
X314858Y-1494129D01*
X321665Y-1505305D01*
X329946Y-1515465D01*
X339496Y-1524355D01*
X350164Y-1531924D01*
X361797Y-1537919D01*
X374142Y-1542338D01*
X386943Y-1544980D01*
X399999Y-1545894D01*
X413054Y-1544980D01*
X425856Y-1542338D01*
X438200Y-1537919D01*
X449834Y-1531924D01*
X460501Y-1524355D01*
X470052Y-1515465D01*
X478332Y-1505305D01*
X485495Y-1493520D01*
X487781Y-1490878D01*
X490778Y-1489202D01*
X494182Y-1488643D01*
X643382Y-1488643D01*
X647750Y-1489608D01*
X651306Y-1492402D01*
X653288Y-1496466D01*
X653288Y-1500987D01*
X651357Y-1505051D01*
X647039Y-1508302D01*
X635508Y-1515973D01*
X625094Y-1525117D01*
X616000Y-1535531D01*
X608279Y-1547063D01*
X602183Y-1559458D01*
X597712Y-1572615D01*
X595020Y-1586179D01*
X594106Y-1599996D01*
X595020Y-1613814D01*
X597712Y-1627378D01*
X602183Y-1640535D01*
X608279Y-1652930D01*
X616000Y-1664462D01*
X625094Y-1674875D01*
X635508Y-1684020D01*
X647039Y-1691690D01*
X659485Y-1697837D01*
X672592Y-1702257D01*
X686155Y-1705000D01*
X699973Y-1705864D01*
X713790Y-1705000D01*
X727405Y-1702257D01*
X740511Y-1697837D01*
X752906Y-1691690D01*
X764438Y-1684020D01*
X774852Y-1674875D01*
X783996Y-1664462D01*
X791667Y-1652930D01*
X797814Y-1640535D01*
X802284Y-1627378D01*
X804976Y-1613814D01*
X805891Y-1599996D01*
X804976Y-1586179D01*
X802284Y-1572615D01*
X797814Y-1559458D01*
X791667Y-1547063D01*
X783996Y-1535531D01*
X774852Y-1525117D01*
X764438Y-1515973D01*
X752906Y-1508302D01*
X751027Y-1507337D01*
X747623Y-1504645D01*
X745642Y-1500733D01*
X745490Y-1496415D01*
X747166Y-1492402D01*
X750366Y-1489456D01*
X754481Y-1488135D01*
X757529Y-1487830D01*
X764743Y-1485646D01*
X771398Y-1482090D01*
X777646Y-1476959D01*
X1153007Y-1101598D01*
X1156055Y-1099515D01*
X1159713Y-1098651D01*
X1163421Y-1099159D01*
X1172565Y-1102258D01*
X1186180Y-1105001D01*
X1199997Y-1105865D01*
X1213815Y-1105001D01*
X1227378Y-1102258D01*
X1240485Y-1097838D01*
X1252931Y-1091692D01*
X1264462Y-1084021D01*
X1274876Y-1074877D01*
X1283970Y-1064463D01*
X1291691Y-1052931D01*
X1295958Y-1044295D01*
X1298194Y-1041298D01*
X1301394Y-1039317D01*
X1305052Y-1038606D01*
X2849778Y-1038606D01*
X2853690Y-1039368D01*
X2856992Y-1041603D01*
X3745331Y-1929942D01*
X3747465Y-1933041D01*
X3748278Y-1936699D01*
X3747719Y-1940458D01*
X3745687Y-1946351D01*
X3742994Y-1959559D01*
X3742131Y-1973021D01*
X3742994Y-1986432D01*
X3745687Y-1999640D01*
X3750106Y-2012391D01*
X3756202Y-2024430D01*
X3763822Y-2035505D01*
X3766108Y-2038045D01*
X3768140Y-2041398D01*
X3768750Y-2045207D01*
X3767886Y-2049018D01*
X3765651Y-2052167D01*
X3762400Y-2054301D01*
X3758590Y-2055063D01*
X3364382Y-2055063D01*
X3355797Y-2056282D01*
X3347923Y-2058924D01*
X3340709Y-2062937D01*
X3333953Y-2068525D01*
X3219450Y-2183079D01*
X3216148Y-2185263D01*
X3212236Y-2186025D01*
X3208375Y-2185263D01*
X3205073Y-2183079D01*
X3202889Y-2179777D01*
X3201365Y-2168042D01*
X3199485Y-2162606D01*
X3196386Y-2157679D01*
X3192322Y-2153615D01*
X3187395Y-2150516D01*
X3181959Y-2148586D01*
X3175609Y-2147874D01*
X3024378Y-2147874D01*
X3018028Y-2148586D01*
X3012592Y-2150516D01*
X3007664Y-2153615D01*
X3003600Y-2157679D01*
X3000451Y-2161489D01*
X2997200Y-2163114D01*
X2993593Y-2163521D01*
X2990088Y-2162657D01*
X2987090Y-2160574D01*
X2385466Y-1559001D01*
X2378557Y-1553819D01*
X2371140Y-1550111D01*
X2363165Y-1547825D01*
X2354478Y-1547063D01*
X1641449Y-1547063D01*
X1637030Y-1546047D01*
X1633524Y-1543202D01*
X1631543Y-1539189D01*
X1631543Y-1534668D01*
X1633474Y-1530604D01*
X1640179Y-1522069D01*
X1647037Y-1510487D01*
X1652320Y-1498092D01*
X1655876Y-1485087D01*
X1657654Y-1471726D01*
X1657654Y-1458264D01*
X1655876Y-1444904D01*
X1652320Y-1431899D01*
X1647037Y-1419504D01*
X1640179Y-1407922D01*
X1631797Y-1397304D01*
X1622145Y-1387957D01*
X1611274Y-1379982D01*
X1599438Y-1373479D01*
X1586890Y-1368653D01*
X1573784Y-1365504D01*
X1560372Y-1364183D01*
X1546910Y-1364640D01*
X1533601Y-1366875D01*
X1520748Y-1370838D01*
X1508506Y-1376527D01*
X1501241Y-1381150D01*
X1497177Y-1382674D01*
X1492910Y-1382369D01*
X1489100Y-1380286D01*
X1486560Y-1376832D01*
X1485646Y-1372616D01*
X1485646Y-1350162D01*
X1486408Y-1346250D01*
X1488592Y-1342999D01*
X1520748Y-1310843D01*
X1523746Y-1308760D01*
X1527302Y-1307846D01*
X1530959Y-1308303D01*
X1533601Y-1309116D01*
X1546910Y-1311402D01*
X1560372Y-1311808D01*
X1573784Y-1310487D01*
X1586890Y-1307338D01*
X1599438Y-1302512D01*
X1611274Y-1296009D01*
X1622145Y-1288034D01*
X1631797Y-1278686D01*
X1640179Y-1268069D01*
X1647037Y-1256487D01*
X1652320Y-1244092D01*
X1655876Y-1231087D01*
X1657654Y-1217726D01*
X1657654Y-1204264D01*
X1655876Y-1190904D01*
X1652320Y-1177899D01*
X1647037Y-1165504D01*
X1640179Y-1153922D01*
X1631797Y-1143304D01*
X1622145Y-1133957D01*
X1611274Y-1125982D01*
X1599438Y-1119479D01*
X1586890Y-1114653D01*
X1573784Y-1111504D01*
X1560372Y-1110183D01*
X1546910Y-1110640D01*
X1533601Y-1112875D01*
X1520748Y-1116838D01*
X1508506Y-1122527D01*
X1497177Y-1129792D01*
X1486865Y-1138478D01*
X1477822Y-1148486D01*
X1470202Y-1159560D01*
X1464106Y-1171600D01*
X1459687Y-1184351D01*
X1456994Y-1197559D01*
X1456131Y-1211021D01*
X1456994Y-1224432D01*
X1459788Y-1238148D01*
X1459941Y-1241501D01*
X1458976Y-1244701D01*
X1457045Y-1247394D01*
X1407668Y-1296771D01*
X1402486Y-1303680D01*
X1398778Y-1311097D01*
X1396492Y-1319072D01*
X1395730Y-1327810D01*
X1395730Y-1622602D01*
X1394917Y-1626463D01*
X1392732Y-1629765D01*
X920445Y-2102053D01*
X917143Y-2104288D01*
X913231Y-2105050D01*
X801928Y-2105050D01*
X798271Y-2104339D01*
X795070Y-2102358D01*
X792835Y-2099360D01*
X791667Y-2097074D01*
X783996Y-2085543D01*
X774852Y-2075129D01*
X764438Y-2065985D01*
X752906Y-2058314D01*
X740511Y-2052167D01*
X727405Y-2047697D01*
X713790Y-2045004D01*
X699973Y-2044090D01*
X686155Y-2045004D01*
X672592Y-2047697D01*
X659485Y-2052167D01*
X647039Y-2058314D01*
X635508Y-2065985D01*
X625094Y-2075129D01*
X616000Y-2085543D01*
X608279Y-2097074D01*
X602183Y-2109470D01*
X597712Y-2122576D01*
X595020Y-2136190D01*
X594106Y-2150008D01*
X595020Y-2163826D01*
X597712Y-2177389D01*
X602183Y-2190496D01*
X608279Y-2202942D01*
X616000Y-2214473D01*
X625094Y-2224887D01*
X635508Y-2233980D01*
X647039Y-2241702D01*
X659485Y-2247798D01*
X672592Y-2252268D01*
X686155Y-2254961D01*
X699973Y-2255875D01*
X713790Y-2254961D01*
X727405Y-2252268D01*
X740511Y-2247798D01*
X752906Y-2241702D01*
X764438Y-2233980D01*
X774852Y-2224887D01*
X783996Y-2214473D01*
X791667Y-2202942D01*
X792835Y-2200656D01*
X795070Y-2197658D01*
X798271Y-2195677D01*
X801928Y-2194966D01*
X913231Y-2194966D01*
X917143Y-2195728D01*
X920445Y-2197963D01*
X1091285Y-2368804D01*
X1093622Y-2372512D01*
X1094232Y-2376830D01*
X1092962Y-2380996D01*
X1090066Y-2384247D01*
X1086053Y-2385974D01*
X1071880Y-2388717D01*
X1058367Y-2393188D01*
X1045565Y-2399385D01*
X1033678Y-2407107D01*
X1022858Y-2416352D01*
X1013307Y-2426868D01*
X1005179Y-2438501D01*
X998626Y-2451100D01*
X993698Y-2464460D01*
X990549Y-2478278D01*
X989177Y-2492451D01*
X989634Y-2506624D01*
X991869Y-2520645D01*
X997407Y-2539644D01*
X996696Y-2543606D01*
X994460Y-2546959D01*
X949909Y-2591511D01*
X946607Y-2593695D01*
X942695Y-2594508D01*
X757275Y-2594508D01*
X753414Y-2593695D01*
X750112Y-2591511D01*
X705561Y-2546959D01*
X703326Y-2543606D01*
X702564Y-2539644D01*
X708101Y-2520645D01*
X710387Y-2506624D01*
X710844Y-2492451D01*
X709472Y-2478278D01*
X706323Y-2464460D01*
X701395Y-2451100D01*
X694842Y-2438501D01*
X686714Y-2426868D01*
X677164Y-2416352D01*
X666343Y-2407107D01*
X654405Y-2399385D01*
X641604Y-2393188D01*
X628142Y-2388717D01*
X614172Y-2386025D01*
X599998Y-2385110D01*
X585825Y-2386025D01*
X571855Y-2388717D01*
X558393Y-2393188D01*
X545592Y-2399385D01*
X533654Y-2407107D01*
X522833Y-2416352D01*
X513283Y-2426868D01*
X505155Y-2438501D01*
X498601Y-2451100D01*
X493674Y-2464460D01*
X490524Y-2478278D01*
X489153Y-2492451D01*
X489610Y-2506624D01*
X491896Y-2520645D01*
X495960Y-2534310D01*
X501700Y-2547264D01*
X509066Y-2559456D01*
X517906Y-2570530D01*
X528116Y-2580436D01*
X539496Y-2588920D01*
X551891Y-2595880D01*
X565048Y-2601214D01*
X578815Y-2604820D01*
X592886Y-2606649D01*
X607110Y-2606649D01*
X621182Y-2604820D01*
X634949Y-2601214D01*
X639876Y-2599232D01*
X643737Y-2598470D01*
X647598Y-2599283D01*
X650849Y-2601468D01*
X709422Y-2660040D01*
X715670Y-2665171D01*
X722325Y-2668727D01*
X729538Y-2670911D01*
X737565Y-2671724D01*
X914146Y-2671724D01*
X918057Y-2672486D01*
X921308Y-2674670D01*
X923544Y-2677972D01*
X924306Y-2681884D01*
X924306Y-4108399D01*
X925118Y-4116425D01*
X927303Y-4123639D01*
X930859Y-4130344D01*
X935990Y-4136542D01*
X971702Y-4172254D01*
X973886Y-4175506D01*
X974648Y-4179366D01*
X973937Y-4183176D01*
X970787Y-4191203D01*
X967181Y-4205274D01*
X965352Y-4219702D01*
X965352Y-4234281D01*
X967181Y-4248708D01*
X970787Y-4262780D01*
X976121Y-4276344D01*
X983132Y-4289094D01*
X991717Y-4300880D01*
X1001674Y-4311446D01*
X1012901Y-4320743D01*
X1025144Y-4328566D01*
X1038352Y-4334764D01*
X1052169Y-4339234D01*
X1066495Y-4341977D01*
X1081024Y-4342892D01*
X1095502Y-4341977D01*
X1109827Y-4339234D01*
X1123645Y-4334764D01*
X1136853Y-4328566D01*
X1149096Y-4320743D01*
X1160322Y-4311446D01*
X1170279Y-4300880D01*
X1178864Y-4289094D01*
X1185875Y-4276344D01*
X1191209Y-4262780D01*
X1194816Y-4248708D01*
X1196644Y-4234281D01*
X1196644Y-4219702D01*
X1194816Y-4205274D01*
X1191209Y-4191203D01*
X1185875Y-4177639D01*
X1178864Y-4164888D01*
X1170279Y-4153103D01*
X1160322Y-4142536D01*
X1149096Y-4133240D01*
X1136853Y-4125417D01*
X1123645Y-4119219D01*
X1109827Y-4114749D01*
X1095502Y-4112006D01*
X1081024Y-4111091D01*
X1066495Y-4112006D01*
X1052169Y-4114749D01*
X1038352Y-4119219D01*
X1033678Y-4120540D01*
X1029614Y-4119829D01*
X1026160Y-4117543D01*
X1004519Y-4095902D01*
X1002284Y-4092600D01*
X1001521Y-4088688D01*
X1001521Y-4078020D01*
X1002436Y-4073804D01*
X1005027Y-4070350D01*
X1008786Y-4068267D01*
X1013104Y-4067962D01*
X1017117Y-4069435D01*
X1025144Y-4074566D01*
X1038352Y-4080764D01*
X1052169Y-4085234D01*
X1066495Y-4087977D01*
X1081024Y-4088892D01*
X1095502Y-4087977D01*
X1109827Y-4085234D01*
X1123645Y-4080764D01*
X1128318Y-4079443D01*
X1132382Y-4080154D01*
X1135837Y-4082440D01*
X1562404Y-4509008D01*
X1564640Y-4512310D01*
X1565402Y-4516221D01*
X1565402Y-4839462D01*
X1564640Y-4843272D01*
X1562557Y-4846523D01*
X1559356Y-4848758D01*
X1552702Y-4851654D01*
X1540560Y-4859020D01*
X1529435Y-4867910D01*
X1519580Y-4878120D01*
X1511046Y-4889500D01*
X1504086Y-4901895D01*
X1498752Y-4915052D01*
X1495145Y-4928768D01*
X1493316Y-4942890D01*
X1493316Y-4957114D01*
X1495145Y-4971186D01*
X1498752Y-4984953D01*
X1504086Y-4998110D01*
X1511046Y-5010505D01*
X1519580Y-5021884D01*
X1529435Y-5032095D01*
X1540560Y-5040934D01*
X1552702Y-5048300D01*
X1565706Y-5054041D01*
X1579321Y-5058105D01*
X1593342Y-5060340D01*
X1607566Y-5060797D01*
X1621688Y-5059476D01*
X1635556Y-5056276D01*
X1648866Y-5051399D01*
X1661464Y-5044795D01*
X1673148Y-5036667D01*
X1683664Y-5027117D01*
X1692859Y-5016296D01*
X1700631Y-5004409D01*
X1706778Y-4991608D01*
X1711248Y-4978095D01*
X1713992Y-4964176D01*
X1714906Y-4950002D01*
X1713992Y-4935829D01*
X1711248Y-4921859D01*
X1706778Y-4908397D01*
X1700631Y-4895596D01*
X1692859Y-4883658D01*
X1683664Y-4872837D01*
X1673148Y-4863287D01*
X1661464Y-4855159D01*
X1648104Y-4848199D01*
X1645208Y-4845964D01*
X1643278Y-4842814D01*
X1642618Y-4839208D01*
X1642618Y-4496511D01*
X1641805Y-4488484D01*
X1639620Y-4481271D01*
X1636064Y-4474565D01*
X1630933Y-4468368D01*
X1190294Y-4027728D01*
X1188110Y-4024477D01*
X1187348Y-4020616D01*
X1188059Y-4016806D01*
X1191209Y-4008780D01*
X1194816Y-3994708D01*
X1196644Y-3980281D01*
X1196644Y-3965701D01*
X1194816Y-3951274D01*
X1191209Y-3937203D01*
X1185875Y-3923639D01*
X1178864Y-3910888D01*
X1170279Y-3899103D01*
X1160322Y-3888536D01*
X1149096Y-3879240D01*
X1136853Y-3871417D01*
X1123645Y-3865219D01*
X1109827Y-3860749D01*
X1095502Y-3858006D01*
X1081024Y-3857091D01*
X1066495Y-3858006D01*
X1052169Y-3860749D01*
X1038352Y-3865219D01*
X1025144Y-3871417D01*
X1017117Y-3876548D01*
X1013104Y-3878021D01*
X1008786Y-3877716D01*
X1005027Y-3875633D01*
X1002436Y-3872179D01*
X1001521Y-3867962D01*
X1001521Y-3824020D01*
X1002436Y-3819804D01*
X1005027Y-3816350D01*
X1008786Y-3814267D01*
X1013104Y-3813962D01*
X1017117Y-3815435D01*
X1025144Y-3820566D01*
X1038352Y-3826764D01*
X1052169Y-3831234D01*
X1066495Y-3833977D01*
X1081024Y-3834892D01*
X1095502Y-3833977D01*
X1109827Y-3831234D01*
X1123645Y-3826764D01*
X1136853Y-3820566D01*
X1149096Y-3812743D01*
X1160322Y-3803446D01*
X1170279Y-3792880D01*
X1178864Y-3781094D01*
X1185875Y-3768344D01*
X1187551Y-3764026D01*
X1189736Y-3760673D01*
X1193088Y-3758387D01*
X1197000Y-3757625D01*
X1452778Y-3757625D01*
X1456690Y-3758387D01*
X1459992Y-3760571D01*
X2598521Y-4899101D01*
X2600706Y-4902403D01*
X2601518Y-4906264D01*
X2600756Y-4910124D01*
X2598775Y-4915052D01*
X2595168Y-4928768D01*
X2593340Y-4942890D01*
X2593340Y-4957114D01*
X2595168Y-4971186D01*
X2598775Y-4984953D01*
X2604109Y-4998110D01*
X2611069Y-5010505D01*
X2619552Y-5021884D01*
X2629458Y-5032095D01*
X2640533Y-5040934D01*
X2652725Y-5048300D01*
X2665679Y-5054041D01*
X2679344Y-5058105D01*
X2693365Y-5060340D01*
X2707538Y-5060797D01*
X2721711Y-5059476D01*
X2735529Y-5056276D01*
X2748889Y-5051399D01*
X2761488Y-5044795D01*
X2773121Y-5036667D01*
X2783636Y-5027117D01*
X2792882Y-5016296D01*
X2800604Y-5004409D01*
X2806801Y-4991608D01*
X2811272Y-4978095D01*
X2813964Y-4964176D01*
X2814878Y-4950002D01*
X2813964Y-4935829D01*
X2811272Y-4921859D01*
X2806801Y-4908397D01*
X2800604Y-4895596D01*
X2792882Y-4883658D01*
X2783636Y-4872837D01*
X2773121Y-4863287D01*
X2761488Y-4855159D01*
X2748889Y-4848606D01*
X2735529Y-4843678D01*
X2721711Y-4840528D01*
X2707538Y-4839157D01*
X2693365Y-4839614D01*
X2679344Y-4841900D01*
X2660396Y-4847386D01*
X2656382Y-4846675D01*
X2653030Y-4844440D01*
X1500632Y-3692042D01*
X1494434Y-3686911D01*
X1487728Y-3683355D01*
X1480515Y-3681171D01*
X1472488Y-3680409D01*
X1197000Y-3680409D01*
X1193088Y-3679596D01*
X1189736Y-3677310D01*
X1187551Y-3673957D01*
X1185875Y-3669639D01*
X1178864Y-3656888D01*
X1170279Y-3645103D01*
X1160322Y-3634536D01*
X1149096Y-3625240D01*
X1136853Y-3617417D01*
X1123645Y-3611219D01*
X1109827Y-3606749D01*
X1095502Y-3604006D01*
X1081024Y-3603091D01*
X1066495Y-3604006D01*
X1052169Y-3606749D01*
X1038352Y-3611219D01*
X1025144Y-3617417D01*
X1017117Y-3622548D01*
X1013104Y-3624021D01*
X1008786Y-3623716D01*
X1005027Y-3621633D01*
X1002436Y-3618179D01*
X1001521Y-3613962D01*
X1001521Y-3086658D01*
X1002284Y-3082798D01*
X1004468Y-3079496D01*
X1007719Y-3077311D01*
X1011580Y-3076498D01*
X1015441Y-3077210D01*
X1018743Y-3079343D01*
X1028141Y-3088436D01*
X1039520Y-3096920D01*
X1051864Y-3103880D01*
X1065072Y-3109214D01*
X1078788Y-3112820D01*
X1092911Y-3114649D01*
X1107084Y-3114649D01*
X1121206Y-3112820D01*
X1134922Y-3109214D01*
X1148130Y-3103880D01*
X1160475Y-3096920D01*
X1170990Y-3089097D01*
X1175105Y-3087268D01*
X1179525Y-3087370D01*
X1183538Y-3089351D01*
X1186281Y-3092856D01*
X1187246Y-3097225D01*
X1187246Y-3181350D01*
X1186586Y-3184906D01*
X1184757Y-3188004D01*
X1181912Y-3190290D01*
X1178458Y-3191408D01*
X1174800Y-3191256D01*
X1171702Y-3190544D01*
X1157528Y-3189173D01*
X1143355Y-3189630D01*
X1129334Y-3191865D01*
X1115720Y-3195929D01*
X1102715Y-3201670D01*
X1090574Y-3209036D01*
X1079449Y-3217926D01*
X1069543Y-3228136D01*
X1061059Y-3239516D01*
X1054100Y-3251860D01*
X1048766Y-3265068D01*
X1045159Y-3278784D01*
X1043330Y-3292906D01*
X1043330Y-3307079D01*
X1045159Y-3321202D01*
X1048766Y-3334918D01*
X1054100Y-3348126D01*
X1061059Y-3360470D01*
X1069543Y-3371850D01*
X1079449Y-3382060D01*
X1090574Y-3390950D01*
X1102715Y-3398316D01*
X1115720Y-3404057D01*
X1129334Y-3408121D01*
X1143355Y-3410356D01*
X1157528Y-3410813D01*
X1171702Y-3409442D01*
X1185570Y-3406292D01*
X1198880Y-3401364D01*
X1211478Y-3394811D01*
X1223111Y-3386683D01*
X1233678Y-3377133D01*
X1242872Y-3366312D01*
X1250594Y-3354425D01*
X1256792Y-3341624D01*
X1261262Y-3328111D01*
X1263954Y-3314192D01*
X1264869Y-3300018D01*
X1263954Y-3285794D01*
X1261262Y-3271875D01*
X1259382Y-3266135D01*
X1258874Y-3262477D01*
X1259687Y-3258870D01*
X1261719Y-3255822D01*
X1265224Y-3252266D01*
X1270406Y-3245408D01*
X1274064Y-3237992D01*
X1276350Y-3230016D01*
X1277162Y-3221329D01*
X1277112Y-2444445D01*
X1275943Y-2435860D01*
X1273302Y-2427986D01*
X1269238Y-2420772D01*
X1263650Y-2414016D01*
X1006856Y-2157171D01*
X1004620Y-2153920D01*
X1003858Y-2150008D01*
X1004620Y-2146096D01*
X1006856Y-2142845D01*
X1438808Y-1710842D01*
X1442212Y-1708607D01*
X1446225Y-1707896D01*
X1450187Y-1708759D01*
X1453489Y-1711147D01*
X1455572Y-1714652D01*
X1456131Y-1719021D01*
X1456994Y-1732432D01*
X1459687Y-1745640D01*
X1464106Y-1758391D01*
X1470202Y-1770430D01*
X1477822Y-1781505D01*
X1486865Y-1791512D01*
X1497177Y-1800199D01*
X1508506Y-1807464D01*
X1520748Y-1813153D01*
X1533601Y-1817116D01*
X1546910Y-1819402D01*
X1560372Y-1819808D01*
X1573784Y-1818487D01*
X1586890Y-1815338D01*
X1589278Y-1814423D01*
X1593088Y-1813763D01*
X1596898Y-1814575D01*
X1600149Y-1816709D01*
X4206341Y-4422952D01*
X4212590Y-4428083D01*
X4219244Y-4431639D01*
X4226458Y-4433824D01*
X4234484Y-4434636D01*
X4339437Y-4434636D01*
X4343247Y-4435348D01*
X4346549Y-4437481D01*
X4348734Y-4440682D01*
X4351680Y-4447286D01*
X4359046Y-4459427D01*
X4367885Y-4470552D01*
X4378096Y-4480407D01*
X4389475Y-4488942D01*
X4401870Y-4495901D01*
X4415028Y-4501235D01*
X4428794Y-4504842D01*
X4442866Y-4506671D01*
X4457090Y-4506671D01*
X4471212Y-4504842D01*
X4484928Y-4501235D01*
X4498086Y-4495901D01*
X4510481Y-4488942D01*
X4521860Y-4480407D01*
X4532071Y-4470552D01*
X4540961Y-4459427D01*
X4548327Y-4447286D01*
X4554067Y-4434281D01*
X4558080Y-4420666D01*
X4560366Y-4406646D01*
X4560824Y-4392422D01*
X4559452Y-4378299D01*
X4556302Y-4364431D01*
X4551375Y-4351121D01*
X4544822Y-4338523D01*
X4536694Y-4326839D01*
X4527143Y-4316323D01*
X4516323Y-4307128D01*
X4504385Y-4299356D01*
X4491583Y-4293209D01*
X4478121Y-4288739D01*
X4464151Y-4285996D01*
X4449978Y-4285081D01*
X4435805Y-4285996D01*
X4421886Y-4288739D01*
X4408373Y-4293209D01*
X4395571Y-4299356D01*
X4383684Y-4307128D01*
X4372864Y-4316323D01*
X4363313Y-4326839D01*
X4355185Y-4338523D01*
X4348226Y-4351934D01*
X4345940Y-4354830D01*
X4342790Y-4356709D01*
X4339183Y-4357420D01*
X4254195Y-4357420D01*
X4250334Y-4356608D01*
X4247032Y-4354423D01*
X1654860Y-1762252D01*
X1652828Y-1759356D01*
X1651914Y-1755902D01*
X1652219Y-1752346D01*
X1655876Y-1739087D01*
X1657654Y-1725726D01*
X1657654Y-1712264D01*
X1655876Y-1698904D01*
X1652320Y-1685899D01*
X1647037Y-1673504D01*
X1640179Y-1661922D01*
X1633474Y-1653387D01*
X1631543Y-1649323D01*
X1631543Y-1644802D01*
X1633524Y-1640789D01*
X1637030Y-1637944D01*
X1641449Y-1636979D01*
X2332126Y-1636979D01*
X2335987Y-1637741D01*
X2339289Y-1639925D01*
X2831998Y-2132634D01*
X2834386Y-2136444D01*
X2834894Y-2140864D01*
X2833471Y-2145131D01*
X2830372Y-2148332D01*
X2825648Y-2149957D01*
X2812491Y-2153564D01*
X2799943Y-2158898D01*
X2788208Y-2165807D01*
X2777540Y-2174290D01*
X2768041Y-2184095D01*
X2759964Y-2195068D01*
X2753410Y-2207006D01*
X2748483Y-2219756D01*
X2745333Y-2233015D01*
X2743962Y-2246579D01*
X2744419Y-2260193D01*
X2746705Y-2273655D01*
X2750718Y-2286711D01*
X2756458Y-2299055D01*
X2763824Y-2310536D01*
X2772613Y-2320950D01*
X2782722Y-2330094D01*
X2793949Y-2337816D01*
X2806141Y-2343962D01*
X2819044Y-2348433D01*
X2832404Y-2351176D01*
X2845968Y-2352090D01*
X2859582Y-2351176D01*
X2872943Y-2348433D01*
X2879496Y-2346198D01*
X2883204Y-2345639D01*
X2886913Y-2346452D01*
X2890012Y-2348585D01*
X3049371Y-2507945D01*
X3055569Y-2513076D01*
X3062274Y-2516632D01*
X3069488Y-2518816D01*
X3077514Y-2519629D01*
X3743451Y-2519629D01*
X3747109Y-2520289D01*
X3750310Y-2522220D01*
X3752545Y-2525166D01*
X3756202Y-2532430D01*
X3763822Y-2543505D01*
X3772865Y-2553512D01*
X3783126Y-2562199D01*
X3794506Y-2569464D01*
X3806748Y-2575153D01*
X3819601Y-2579116D01*
X3832910Y-2581351D01*
X3846372Y-2581808D01*
X3859784Y-2580487D01*
X3872890Y-2577338D01*
X3885437Y-2572512D01*
X3897274Y-2566009D01*
X3908145Y-2558034D01*
X3917797Y-2548686D01*
X3926179Y-2538069D01*
X3933037Y-2526487D01*
X3938270Y-2514092D01*
X3941876Y-2501087D01*
X3943654Y-2487726D01*
X3943654Y-2474264D01*
X3941876Y-2460904D01*
X3938270Y-2447899D01*
X3933037Y-2435504D01*
X3926179Y-2423922D01*
X3917797Y-2413304D01*
X3908145Y-2403957D01*
X3897274Y-2395982D01*
X3885437Y-2389479D01*
X3872890Y-2384653D01*
X3859784Y-2381504D01*
X3846372Y-2380183D01*
X3832910Y-2380640D01*
X3819601Y-2382875D01*
X3806748Y-2386838D01*
X3794506Y-2392527D01*
X3783126Y-2399792D01*
X3772865Y-2408478D01*
X3763822Y-2418486D01*
X3756202Y-2429560D01*
X3752545Y-2436825D01*
X3750310Y-2439771D01*
X3747109Y-2441702D01*
X3743451Y-2442413D01*
X3097225Y-2442413D01*
X3093313Y-2441600D01*
X3090011Y-2439416D01*
X3020060Y-2369464D01*
X3017875Y-2366162D01*
X3017062Y-2362250D01*
X3017875Y-2358390D01*
X3020060Y-2355088D01*
X3023362Y-2352852D01*
X3027222Y-2352090D01*
X3175609Y-2352090D01*
X3181959Y-2351379D01*
X3187395Y-2349500D01*
X3192322Y-2346401D01*
X3196386Y-2342286D01*
X3199485Y-2337409D01*
X3201365Y-2331923D01*
X3202127Y-2325624D01*
X3202127Y-2305100D01*
X3202889Y-2301240D01*
X3205022Y-2297938D01*
X3208324Y-2295753D01*
X3212185Y-2294940D01*
X3217875Y-2294890D01*
X3226358Y-2293721D01*
X3234232Y-2291080D01*
X3241497Y-2287016D01*
X3248202Y-2281428D01*
X3381756Y-2147925D01*
X3385007Y-2145741D01*
X3388918Y-2144979D01*
X3758590Y-2144979D01*
X3762400Y-2145690D01*
X3765651Y-2147824D01*
X3767886Y-2150973D01*
X3768750Y-2154783D01*
X3768140Y-2158593D01*
X3766108Y-2161946D01*
X3763822Y-2164486D01*
X3756202Y-2175560D01*
X3750106Y-2187600D01*
X3745687Y-2200351D01*
X3742994Y-2213559D01*
X3742131Y-2227021D01*
X3742994Y-2240432D01*
X3745687Y-2253640D01*
X3750106Y-2266391D01*
X3756202Y-2278430D01*
X3763822Y-2289505D01*
X3772865Y-2299512D01*
X3783126Y-2308199D01*
X3794506Y-2315464D01*
X3806748Y-2321153D01*
X3819601Y-2325116D01*
X3832910Y-2327402D01*
X3846372Y-2327808D01*
X3859784Y-2326487D01*
X3872890Y-2323338D01*
X3875278Y-2322423D01*
X3879087Y-2321763D01*
X3882898Y-2322576D01*
X3886098Y-2324709D01*
X4175912Y-2614523D01*
X4178096Y-2617825D01*
X4178909Y-2621686D01*
X4178909Y-3820972D01*
X4179671Y-3828999D01*
X4181856Y-3836212D01*
X4185412Y-3842918D01*
X4190542Y-3849115D01*
X4344517Y-4003090D01*
X4346651Y-4006291D01*
X4347514Y-4009999D01*
X4346854Y-4013809D01*
X4343704Y-4022445D01*
X4341368Y-4032554D01*
X4339539Y-4036415D01*
X4336288Y-4039209D01*
X4332173Y-4040428D01*
X4327906Y-4039768D01*
X4324299Y-4037482D01*
X3884574Y-3597757D01*
X3882390Y-3594455D01*
X3881628Y-3590544D01*
X3881628Y-3088640D01*
X3882237Y-3085084D01*
X3884066Y-3081985D01*
X3886860Y-3079750D01*
X3897274Y-3074009D01*
X3908145Y-3066034D01*
X3917797Y-3056686D01*
X3926179Y-3046069D01*
X3933037Y-3034487D01*
X3938270Y-3022092D01*
X3941876Y-3009087D01*
X3943654Y-2995726D01*
X3943654Y-2982264D01*
X3941876Y-2968904D01*
X3938270Y-2955899D01*
X3933037Y-2943504D01*
X3926179Y-2931922D01*
X3917797Y-2921304D01*
X3908145Y-2911957D01*
X3897274Y-2903982D01*
X3885437Y-2897479D01*
X3872890Y-2892653D01*
X3859784Y-2889504D01*
X3846372Y-2888183D01*
X3832910Y-2888640D01*
X3819601Y-2890875D01*
X3806748Y-2894838D01*
X3794506Y-2900527D01*
X3783126Y-2907792D01*
X3772865Y-2916478D01*
X3763822Y-2926486D01*
X3756202Y-2937560D01*
X3750106Y-2949600D01*
X3745687Y-2962351D01*
X3742994Y-2975559D01*
X3742131Y-2989021D01*
X3742994Y-3002432D01*
X3745687Y-3015640D01*
X3750106Y-3028391D01*
X3756202Y-3040430D01*
X3763822Y-3051505D01*
X3772865Y-3061512D01*
X3783126Y-3070199D01*
X3794506Y-3077464D01*
X3798519Y-3079343D01*
X3801618Y-3081578D01*
X3803650Y-3084779D01*
X3804412Y-3088538D01*
X3804412Y-3610254D01*
X3805174Y-3618280D01*
X3807358Y-3625494D01*
X3810914Y-3632200D01*
X3816045Y-3638397D01*
X4404614Y-4226966D01*
X4410811Y-4232097D01*
X4417517Y-4235653D01*
X4424730Y-4237837D01*
X4432757Y-4238650D01*
X4979822Y-4238650D01*
X4983683Y-4239412D01*
X4986985Y-4241596D01*
X5148376Y-4402988D01*
X5150510Y-4406087D01*
X5151323Y-4409694D01*
X5150815Y-4413402D01*
X5147716Y-4422597D01*
X5144973Y-4436160D01*
X5144109Y-4449978D01*
X5144973Y-4463796D01*
X5147716Y-4477410D01*
X5152136Y-4490516D01*
X5158282Y-4502912D01*
X5165953Y-4514443D01*
X5175097Y-4524857D01*
X5185511Y-4534001D01*
X5197043Y-4541672D01*
X5209438Y-4547819D01*
X5222595Y-4552289D01*
X5230063Y-4553762D01*
X5234025Y-4555490D01*
X5236921Y-4558741D01*
X5238191Y-4562906D01*
X5237581Y-4567224D01*
X5235244Y-4570882D01*
X5172964Y-4633214D01*
X5169662Y-4635398D01*
X5165750Y-4636211D01*
X4310481Y-4636211D01*
X4302455Y-4636973D01*
X4295241Y-4639157D01*
X4288586Y-4642713D01*
X4282338Y-4647844D01*
X3934358Y-4995824D01*
X3931056Y-4998008D01*
X3927195Y-4998821D01*
X3902811Y-4998821D01*
X3902811Y-5023205D01*
X3901998Y-5027066D01*
X3899814Y-5030368D01*
X3756456Y-5173726D01*
X3753154Y-5175910D01*
X3749294Y-5176723D01*
X3240836Y-5176723D01*
X3232810Y-5177485D01*
X3225596Y-5179669D01*
X3218891Y-5183225D01*
X3212693Y-5188356D01*
X3204006Y-5196992D01*
X3200704Y-5199227D01*
X3196844Y-5199989D01*
X2801010Y-5199989D01*
X2799283Y-5200700D01*
X2502966Y-5497017D01*
X2499664Y-5499201D01*
X2495804Y-5500014D01*
X1249781Y-5500014D01*
X1246784Y-5499557D01*
X1244041Y-5498185D01*
X1241806Y-5496153D01*
X1232103Y-5483860D01*
X1219454Y-5470906D01*
X1205585Y-5459323D01*
X1190548Y-5449214D01*
X1181354Y-5444286D01*
X1181354Y-5489854D01*
X1180592Y-5493715D01*
X1178356Y-5497017D01*
X1175054Y-5499201D01*
X1171194Y-5500014D01*
X1028801Y-5500014D01*
X1024940Y-5499201D01*
X1021638Y-5497017D01*
X1019403Y-5493715D01*
X1018641Y-5489854D01*
X1018641Y-5444134D01*
X1017320Y-5444744D01*
X1001826Y-5454040D01*
X987298Y-5464911D01*
X974039Y-5477205D01*
X962050Y-5490819D01*
X958596Y-5495696D01*
X956360Y-5497982D01*
X953516Y-5499506D01*
X950315Y-5500014D01*
G37*

%LPC*%
G36*
X3349498Y-5060797D02*
G01*
X3363620Y-5059426D01*
X3377488Y-5056276D01*
X3390849Y-5051348D01*
X3403447Y-5044795D01*
X3415080Y-5036667D01*
X3425596Y-5027117D01*
X3434791Y-5016296D01*
X3442563Y-5004358D01*
X3448710Y-4991557D01*
X3453180Y-4978095D01*
X3455924Y-4964125D01*
X3456838Y-4949952D01*
X3455924Y-4935778D01*
X3453180Y-4921808D01*
X3448710Y-4908346D01*
X3442563Y-4895545D01*
X3434791Y-4883607D01*
X3425596Y-4872786D01*
X3415080Y-4863236D01*
X3403447Y-4855108D01*
X3390849Y-4848555D01*
X3377488Y-4843627D01*
X3363620Y-4840478D01*
X3349498Y-4839106D01*
X3335274Y-4839563D01*
X3321253Y-4841849D01*
X3307638Y-4845913D01*
X3294634Y-4851654D01*
X3282492Y-4859020D01*
X3271367Y-4867859D01*
X3261512Y-4878070D01*
X3253028Y-4889449D01*
X3246018Y-4901844D01*
X3240684Y-4915001D01*
X3237077Y-4928768D01*
X3235299Y-4942840D01*
X3235299Y-4957064D01*
X3237077Y-4971135D01*
X3240684Y-4984902D01*
X3246018Y-4998059D01*
X3253028Y-5010454D01*
X3261512Y-5021834D01*
X3271367Y-5032044D01*
X3282492Y-5040884D01*
X3294634Y-5048250D01*
X3307638Y-5054041D01*
X3321253Y-5058054D01*
X3335274Y-5060340D01*
G37*
G36*
X2147163Y-5049367D02*
G01*
X2147163Y-4998821D01*
X2096516Y-4998821D01*
X2103069Y-5010505D01*
X2111552Y-5021884D01*
X2121458Y-5032095D01*
X2132533Y-5040934D01*
X2144725Y-5048300D01*
G37*
G36*
X3805072Y-5049367D02*
G01*
X3805072Y-4998821D01*
X3754475Y-4998821D01*
X3761028Y-5010454D01*
X3769512Y-5021834D01*
X3779367Y-5032044D01*
X3790492Y-5040884D01*
X3802634Y-5048250D01*
G37*
G36*
X2244852Y-5049316D02*
G01*
X2253488Y-5044795D01*
X2265121Y-5036667D01*
X2275636Y-5027117D01*
X2284882Y-5016296D01*
X2292604Y-5004409D01*
X2295296Y-4998821D01*
X2244852Y-4998821D01*
G37*
G36*
X2244852Y-4901133D02*
G01*
X2295296Y-4901133D01*
X2292604Y-4895596D01*
X2284882Y-4883658D01*
X2275636Y-4872837D01*
X2265121Y-4863287D01*
X2253488Y-4855159D01*
X2244852Y-4850638D01*
G37*
G36*
X2096516Y-4901133D02*
G01*
X2147163Y-4901133D01*
X2147163Y-4850587D01*
X2144725Y-4851654D01*
X2132533Y-4859020D01*
X2121458Y-4867910D01*
X2111552Y-4878120D01*
X2103069Y-4889500D01*
G37*
G36*
X3902811Y-4901082D02*
G01*
X3953256Y-4901082D01*
X3950563Y-4895545D01*
X3942791Y-4883607D01*
X3933596Y-4872786D01*
X3923080Y-4863236D01*
X3911447Y-4855108D01*
X3902811Y-4850638D01*
G37*
G36*
X3754475Y-4901082D02*
G01*
X3805072Y-4901082D01*
X3805072Y-4850536D01*
X3802634Y-4851654D01*
X3790492Y-4859020D01*
X3779367Y-4867859D01*
X3769512Y-4878070D01*
X3761028Y-4889449D01*
G37*
G36*
X1132332Y-4596892D02*
G01*
X1170432Y-4596892D01*
X1176731Y-4596180D01*
X1182217Y-4594301D01*
X1187094Y-4591202D01*
X1191209Y-4587087D01*
X1194308Y-4582210D01*
X1196187Y-4576724D01*
X1196898Y-4570425D01*
X1196898Y-4532325D01*
X1132332Y-4532325D01*
G37*
G36*
X991565Y-4596892D02*
G01*
X1029665Y-4596892D01*
X1029665Y-4532325D01*
X965098Y-4532325D01*
X965098Y-4570425D01*
X965809Y-4576724D01*
X967689Y-4582210D01*
X970787Y-4587087D01*
X974902Y-4591202D01*
X979779Y-4594301D01*
X985266Y-4596180D01*
G37*
G36*
X4796332Y-4544923D02*
G01*
X4802936Y-4541672D01*
X4814417Y-4534001D01*
X4824831Y-4524857D01*
X4833975Y-4514443D01*
X4841697Y-4502912D01*
X4844948Y-4496358D01*
X4796332Y-4496358D01*
G37*
G36*
X4703622Y-4544923D02*
G01*
X4703622Y-4496358D01*
X4655007Y-4496358D01*
X4658258Y-4502912D01*
X4665980Y-4514443D01*
X4675124Y-4524857D01*
X4685538Y-4534001D01*
X4697018Y-4541672D01*
G37*
G36*
X1132332Y-4429658D02*
G01*
X1196898Y-4429658D01*
X1196898Y-4391558D01*
X1196187Y-4385259D01*
X1194308Y-4379772D01*
X1191209Y-4374896D01*
X1187094Y-4370781D01*
X1182217Y-4367682D01*
X1176731Y-4365802D01*
X1170432Y-4365091D01*
X1132332Y-4365091D01*
G37*
G36*
X965098Y-4429658D02*
G01*
X1029665Y-4429658D01*
X1029665Y-4365091D01*
X991565Y-4365091D01*
X985266Y-4365802D01*
X979779Y-4367682D01*
X974902Y-4370781D01*
X970787Y-4374896D01*
X967689Y-4379772D01*
X965809Y-4385259D01*
X965098Y-4391558D01*
G37*
G36*
X4655007Y-4403648D02*
G01*
X4703622Y-4403648D01*
X4703622Y-4355033D01*
X4697018Y-4358284D01*
X4685538Y-4366006D01*
X4675124Y-4375099D01*
X4665980Y-4385513D01*
X4658258Y-4397044D01*
G37*
G36*
X4796332Y-4403648D02*
G01*
X4844948Y-4403648D01*
X4841697Y-4397044D01*
X4833975Y-4385513D01*
X4824831Y-4375099D01*
X4814417Y-4366006D01*
X4802936Y-4358284D01*
X4796332Y-4355033D01*
G37*
G36*
X319024Y-4342892D02*
G01*
X333502Y-4341977D01*
X347827Y-4339234D01*
X361645Y-4334764D01*
X374853Y-4328566D01*
X387096Y-4320743D01*
X398322Y-4311446D01*
X408279Y-4300880D01*
X416864Y-4289094D01*
X423875Y-4276344D01*
X429209Y-4262780D01*
X432816Y-4248708D01*
X434644Y-4234281D01*
X434644Y-4219702D01*
X432816Y-4205274D01*
X429209Y-4191203D01*
X423875Y-4177639D01*
X416864Y-4164888D01*
X408279Y-4153103D01*
X398322Y-4142536D01*
X387096Y-4133240D01*
X374853Y-4125417D01*
X361645Y-4119219D01*
X347827Y-4114749D01*
X333502Y-4112006D01*
X319024Y-4111091D01*
X304495Y-4112006D01*
X290169Y-4114749D01*
X276352Y-4119219D01*
X263144Y-4125417D01*
X250901Y-4133240D01*
X239674Y-4142536D01*
X229717Y-4153103D01*
X221132Y-4164888D01*
X214121Y-4177639D01*
X208788Y-4191203D01*
X205181Y-4205274D01*
X203352Y-4219702D01*
X203352Y-4234281D01*
X205181Y-4248708D01*
X208788Y-4262780D01*
X214121Y-4276344D01*
X221132Y-4289094D01*
X229717Y-4300880D01*
X239674Y-4311446D01*
X250901Y-4320743D01*
X263144Y-4328566D01*
X276352Y-4334764D01*
X290169Y-4339234D01*
X304495Y-4341977D01*
G37*
G36*
X319024Y-4088892D02*
G01*
X333502Y-4087977D01*
X347827Y-4085234D01*
X361645Y-4080764D01*
X374853Y-4074566D01*
X387096Y-4066743D01*
X398322Y-4057446D01*
X408279Y-4046880D01*
X416864Y-4035094D01*
X423875Y-4022344D01*
X429209Y-4008780D01*
X432816Y-3994708D01*
X434644Y-3980281D01*
X434644Y-3965701D01*
X432816Y-3951274D01*
X429209Y-3937203D01*
X423875Y-3923639D01*
X416864Y-3910888D01*
X408279Y-3899103D01*
X398322Y-3888536D01*
X387096Y-3879240D01*
X374853Y-3871417D01*
X361645Y-3865219D01*
X347827Y-3860749D01*
X333502Y-3858006D01*
X319024Y-3857091D01*
X304495Y-3858006D01*
X290169Y-3860749D01*
X276352Y-3865219D01*
X263144Y-3871417D01*
X250901Y-3879240D01*
X239674Y-3888536D01*
X229717Y-3899103D01*
X221132Y-3910888D01*
X214121Y-3923639D01*
X208788Y-3937203D01*
X205181Y-3951274D01*
X203352Y-3965701D01*
X203352Y-3980281D01*
X205181Y-3994708D01*
X208788Y-4008780D01*
X214121Y-4022344D01*
X221132Y-4035094D01*
X229717Y-4046880D01*
X239674Y-4057446D01*
X250901Y-4066743D01*
X263144Y-4074566D01*
X276352Y-4080764D01*
X290169Y-4085234D01*
X304495Y-4087977D01*
G37*
G36*
X4655007Y-3903624D02*
G01*
X4703622Y-3903624D01*
X4703622Y-3855059D01*
X4697018Y-3858310D01*
X4685538Y-3865981D01*
X4675124Y-3875125D01*
X4665980Y-3885539D01*
X4658258Y-3897071D01*
G37*
G36*
X4796332Y-3903624D02*
G01*
X4844948Y-3903624D01*
X4841697Y-3897071D01*
X4833975Y-3885539D01*
X4824831Y-3875125D01*
X4814417Y-3865981D01*
X4802936Y-3858310D01*
X4796332Y-3855059D01*
G37*
G36*
X319024Y-3834892D02*
G01*
X333502Y-3833977D01*
X347827Y-3831234D01*
X361645Y-3826764D01*
X374853Y-3820566D01*
X387096Y-3812743D01*
X398322Y-3803446D01*
X408279Y-3792880D01*
X416864Y-3781094D01*
X423875Y-3768344D01*
X429209Y-3754780D01*
X432816Y-3740708D01*
X434644Y-3726281D01*
X434644Y-3711701D01*
X432816Y-3697274D01*
X429209Y-3683203D01*
X423875Y-3669639D01*
X416864Y-3656888D01*
X408279Y-3645103D01*
X398322Y-3634536D01*
X387096Y-3625240D01*
X374853Y-3617417D01*
X361645Y-3611219D01*
X347827Y-3606749D01*
X333502Y-3604006D01*
X319024Y-3603091D01*
X304495Y-3604006D01*
X290169Y-3606749D01*
X276352Y-3611219D01*
X263144Y-3617417D01*
X250901Y-3625240D01*
X239674Y-3634536D01*
X229717Y-3645103D01*
X221132Y-3656888D01*
X214121Y-3669639D01*
X208788Y-3683203D01*
X205181Y-3697274D01*
X203352Y-3711701D01*
X203352Y-3726281D01*
X205181Y-3740708D01*
X208788Y-3754780D01*
X214121Y-3768344D01*
X221132Y-3781094D01*
X229717Y-3792880D01*
X239674Y-3803446D01*
X250901Y-3812743D01*
X263144Y-3820566D01*
X276352Y-3826764D01*
X290169Y-3831234D01*
X304495Y-3833977D01*
G37*
G36*
X4498848Y-3645458D02*
G01*
X4510481Y-3638905D01*
X4521860Y-3630422D01*
X4532071Y-3620566D01*
X4540961Y-3609441D01*
X4548327Y-3597300D01*
X4549394Y-3594862D01*
X4498848Y-3594862D01*
G37*
G36*
X4401159Y-3645458D02*
G01*
X4401159Y-3594862D01*
X4350613Y-3594862D01*
X4351680Y-3597300D01*
X4359046Y-3609441D01*
X4367885Y-3620566D01*
X4378096Y-3630422D01*
X4389475Y-3638905D01*
G37*
G36*
X4350664Y-3497122D02*
G01*
X4401159Y-3497122D01*
X4401159Y-3446678D01*
X4395571Y-3449370D01*
X4383684Y-3457143D01*
X4372864Y-3466337D01*
X4363313Y-3476853D01*
X4355185Y-3488486D01*
G37*
G36*
X4498848Y-3497122D02*
G01*
X4549343Y-3497122D01*
X4544822Y-3488486D01*
X4536694Y-3476853D01*
X4527143Y-3466337D01*
X4516323Y-3457143D01*
X4504385Y-3449370D01*
X4498848Y-3446678D01*
G37*
G36*
X4750003Y-3455873D02*
G01*
X4763820Y-3454958D01*
X4777384Y-3452266D01*
X4790541Y-3447796D01*
X4802936Y-3441700D01*
X4814468Y-3433978D01*
X4824882Y-3424885D01*
X4834026Y-3414471D01*
X4841697Y-3402939D01*
X4847844Y-3390493D01*
X4852263Y-3377387D01*
X4855006Y-3363823D01*
X4855870Y-3350006D01*
X4855006Y-3336188D01*
X4852263Y-3322574D01*
X4847844Y-3309467D01*
X4841697Y-3297072D01*
X4834026Y-3285540D01*
X4824882Y-3275126D01*
X4814468Y-3265982D01*
X4802936Y-3258312D01*
X4790541Y-3252165D01*
X4777384Y-3247694D01*
X4763820Y-3245002D01*
X4750003Y-3244088D01*
X4736185Y-3245002D01*
X4722622Y-3247694D01*
X4709464Y-3252165D01*
X4697069Y-3258312D01*
X4685538Y-3265982D01*
X4675124Y-3275126D01*
X4665980Y-3285540D01*
X4658309Y-3297072D01*
X4652162Y-3309467D01*
X4647742Y-3322574D01*
X4644999Y-3336188D01*
X4644136Y-3350006D01*
X4644999Y-3363823D01*
X4647742Y-3377387D01*
X4652162Y-3390493D01*
X4658309Y-3402939D01*
X4665980Y-3414471D01*
X4675124Y-3424885D01*
X4685538Y-3433978D01*
X4697069Y-3441700D01*
X4709464Y-3447796D01*
X4722622Y-3452266D01*
X4736185Y-3454958D01*
G37*
G36*
X5203647Y-3444951D02*
G01*
X5203647Y-3396335D01*
X5155031Y-3396335D01*
X5158282Y-3402939D01*
X5166004Y-3414471D01*
X5175148Y-3424885D01*
X5185562Y-3433978D01*
X5197043Y-3441700D01*
G37*
G36*
X649528Y-3410813D02*
G01*
X663702Y-3409442D01*
X677570Y-3406292D01*
X690880Y-3401364D01*
X703478Y-3394811D01*
X715111Y-3386683D01*
X725678Y-3377133D01*
X734872Y-3366312D01*
X742594Y-3354425D01*
X748792Y-3341624D01*
X753262Y-3328111D01*
X755954Y-3314192D01*
X756869Y-3300018D01*
X755954Y-3285794D01*
X753262Y-3271875D01*
X748792Y-3258362D01*
X742594Y-3245561D01*
X734872Y-3233674D01*
X725678Y-3222853D01*
X715111Y-3213303D01*
X703478Y-3205175D01*
X690067Y-3198215D01*
X687171Y-3195980D01*
X685292Y-3192830D01*
X684631Y-3189224D01*
X684631Y-3078937D01*
X685190Y-3075584D01*
X686816Y-3072587D01*
X690930Y-3067456D01*
X698296Y-3055264D01*
X704088Y-3042310D01*
X708101Y-3028645D01*
X710387Y-3014624D01*
X710844Y-3000451D01*
X709472Y-2986278D01*
X706323Y-2972460D01*
X701395Y-2959100D01*
X694842Y-2946501D01*
X686714Y-2934868D01*
X677164Y-2924352D01*
X666343Y-2915107D01*
X654405Y-2907385D01*
X641604Y-2901188D01*
X628142Y-2896717D01*
X614172Y-2894025D01*
X599998Y-2893110D01*
X585825Y-2894025D01*
X571855Y-2896717D01*
X558393Y-2901188D01*
X545592Y-2907385D01*
X533654Y-2915107D01*
X522833Y-2924352D01*
X513283Y-2934868D01*
X505155Y-2946501D01*
X498601Y-2959100D01*
X493674Y-2972460D01*
X490524Y-2986278D01*
X489153Y-3000451D01*
X489610Y-3014624D01*
X491896Y-3028645D01*
X495960Y-3042310D01*
X501700Y-3055264D01*
X509066Y-3067456D01*
X517906Y-3078530D01*
X528116Y-3088436D01*
X539496Y-3096920D01*
X551891Y-3103880D01*
X565048Y-3109214D01*
X578815Y-3112820D01*
X592886Y-3114649D01*
X597255Y-3114649D01*
X601116Y-3115411D01*
X604418Y-3117646D01*
X606602Y-3120948D01*
X607415Y-3124809D01*
X607415Y-3189478D01*
X606653Y-3193288D01*
X604520Y-3196539D01*
X601319Y-3198723D01*
X594715Y-3201670D01*
X582574Y-3209036D01*
X571449Y-3217926D01*
X561543Y-3228136D01*
X553059Y-3239516D01*
X546100Y-3251860D01*
X540766Y-3265068D01*
X537159Y-3278784D01*
X535330Y-3292906D01*
X535330Y-3307079D01*
X537159Y-3321202D01*
X540766Y-3334918D01*
X546100Y-3348126D01*
X553059Y-3360470D01*
X561543Y-3371850D01*
X571449Y-3382060D01*
X582574Y-3390950D01*
X594715Y-3398316D01*
X607720Y-3404057D01*
X621334Y-3408121D01*
X635355Y-3410356D01*
G37*
G36*
X5155031Y-3303625D02*
G01*
X5203647Y-3303625D01*
X5203647Y-3255060D01*
X5197043Y-3258312D01*
X5185562Y-3265982D01*
X5175148Y-3275126D01*
X5166004Y-3285540D01*
X5158282Y-3297072D01*
G37*
G36*
X1600860Y-3079750D02*
G01*
X1611274Y-3074009D01*
X1622145Y-3066034D01*
X1631797Y-3056686D01*
X1640179Y-3046069D01*
X1647037Y-3034487D01*
X1647748Y-3032861D01*
X1600860Y-3032861D01*
G37*
G36*
X1513128Y-3079597D02*
G01*
X1513128Y-3032861D01*
X1466392Y-3032861D01*
X1470202Y-3040430D01*
X1477822Y-3051505D01*
X1486865Y-3061512D01*
X1497177Y-3070199D01*
X1508506Y-3077464D01*
G37*
G36*
X5203647Y-2994964D02*
G01*
X5203647Y-2946349D01*
X5155031Y-2946349D01*
X5158282Y-2952953D01*
X5165953Y-2964434D01*
X5175097Y-2974848D01*
X5185511Y-2983992D01*
X5197043Y-2991713D01*
G37*
G36*
X1466392Y-2945130D02*
G01*
X1513128Y-2945130D01*
X1513128Y-2898394D01*
X1508506Y-2900527D01*
X1497177Y-2907792D01*
X1486865Y-2916478D01*
X1477822Y-2926486D01*
X1470202Y-2937560D01*
G37*
G36*
X1600860Y-2945130D02*
G01*
X1647748Y-2945130D01*
X1647037Y-2943504D01*
X1640179Y-2931922D01*
X1631797Y-2921304D01*
X1622145Y-2911957D01*
X1611274Y-2903982D01*
X1600860Y-2898241D01*
G37*
G36*
X5155031Y-2853639D02*
G01*
X5203647Y-2853639D01*
X5203647Y-2805023D01*
X5197043Y-2808274D01*
X5185511Y-2815996D01*
X5175097Y-2825140D01*
X5165953Y-2835554D01*
X5158282Y-2847035D01*
G37*
G36*
X1560372Y-2835808D02*
G01*
X1573784Y-2834487D01*
X1586890Y-2831338D01*
X1599438Y-2826512D01*
X1611274Y-2820009D01*
X1622145Y-2812034D01*
X1631797Y-2802686D01*
X1640179Y-2792069D01*
X1647037Y-2780487D01*
X1652320Y-2768092D01*
X1655876Y-2755087D01*
X1657654Y-2741726D01*
X1657654Y-2728264D01*
X1655876Y-2714904D01*
X1652320Y-2701899D01*
X1647037Y-2689504D01*
X1640179Y-2677922D01*
X1631797Y-2667304D01*
X1622145Y-2657957D01*
X1611274Y-2649982D01*
X1599438Y-2643479D01*
X1586890Y-2638653D01*
X1573784Y-2635504D01*
X1560372Y-2634183D01*
X1546910Y-2634640D01*
X1533601Y-2636875D01*
X1520748Y-2640838D01*
X1508506Y-2646527D01*
X1497177Y-2653792D01*
X1486865Y-2662478D01*
X1477822Y-2672486D01*
X1470202Y-2683560D01*
X1464106Y-2695600D01*
X1459687Y-2708351D01*
X1456994Y-2721559D01*
X1456131Y-2735021D01*
X1456994Y-2748432D01*
X1459687Y-2761640D01*
X1464106Y-2774391D01*
X1470202Y-2786430D01*
X1477822Y-2797505D01*
X1486865Y-2807512D01*
X1497177Y-2816199D01*
X1508506Y-2823464D01*
X1520748Y-2829153D01*
X1533601Y-2833116D01*
X1546910Y-2835351D01*
G37*
G36*
X3846372Y-2835808D02*
G01*
X3859784Y-2834487D01*
X3872890Y-2831338D01*
X3885437Y-2826512D01*
X3897274Y-2820009D01*
X3908145Y-2812034D01*
X3917797Y-2802686D01*
X3926179Y-2792069D01*
X3933037Y-2780487D01*
X3938270Y-2768092D01*
X3941876Y-2755087D01*
X3943654Y-2741726D01*
X3943654Y-2728264D01*
X3941876Y-2714904D01*
X3938270Y-2701899D01*
X3933037Y-2689504D01*
X3926179Y-2677922D01*
X3917797Y-2667304D01*
X3908145Y-2657957D01*
X3897274Y-2649982D01*
X3885437Y-2643479D01*
X3872890Y-2638653D01*
X3859784Y-2635504D01*
X3846372Y-2634183D01*
X3832910Y-2634640D01*
X3819601Y-2636875D01*
X3806748Y-2640838D01*
X3794506Y-2646527D01*
X3783126Y-2653792D01*
X3772865Y-2662478D01*
X3763822Y-2672486D01*
X3756202Y-2683560D01*
X3752545Y-2690825D01*
X3750310Y-2693771D01*
X3747109Y-2695702D01*
X3743451Y-2696413D01*
X2843225Y-2696413D01*
X2839313Y-2695600D01*
X2836011Y-2693416D01*
X2436672Y-2294026D01*
X2434590Y-2291029D01*
X2433675Y-2287473D01*
X2434132Y-2283866D01*
X2437282Y-2273655D01*
X2439568Y-2260193D01*
X2440025Y-2246579D01*
X2438654Y-2233015D01*
X2435504Y-2219756D01*
X2430576Y-2207006D01*
X2424023Y-2195068D01*
X2415946Y-2184095D01*
X2406446Y-2174290D01*
X2395778Y-2165807D01*
X2384044Y-2158898D01*
X2371496Y-2153564D01*
X2358339Y-2149957D01*
X2344826Y-2148128D01*
X2331161Y-2148128D01*
X2317648Y-2149957D01*
X2304491Y-2153564D01*
X2291943Y-2158898D01*
X2280208Y-2165807D01*
X2269540Y-2174290D01*
X2260041Y-2184095D01*
X2251964Y-2195068D01*
X2245410Y-2207006D01*
X2240483Y-2219756D01*
X2237333Y-2233015D01*
X2235962Y-2246579D01*
X2236419Y-2260193D01*
X2238705Y-2273655D01*
X2242718Y-2286711D01*
X2248458Y-2299055D01*
X2255824Y-2310536D01*
X2264613Y-2320950D01*
X2274722Y-2330094D01*
X2285949Y-2337816D01*
X2298141Y-2343962D01*
X2311044Y-2348433D01*
X2324404Y-2351176D01*
X2337968Y-2352090D01*
X2351582Y-2351176D01*
X2364943Y-2348433D01*
X2371496Y-2346198D01*
X2375204Y-2345639D01*
X2378913Y-2346452D01*
X2382012Y-2348585D01*
X2795371Y-2761945D01*
X2801569Y-2767076D01*
X2808274Y-2770632D01*
X2815488Y-2772816D01*
X2823514Y-2773629D01*
X3743451Y-2773629D01*
X3747109Y-2774289D01*
X3750310Y-2776220D01*
X3752545Y-2779166D01*
X3756202Y-2786430D01*
X3763822Y-2797505D01*
X3772865Y-2807512D01*
X3783126Y-2816199D01*
X3794506Y-2823464D01*
X3806748Y-2829153D01*
X3819601Y-2833116D01*
X3832910Y-2835351D01*
G37*
G36*
X1560372Y-2581808D02*
G01*
X1573784Y-2580487D01*
X1586890Y-2577338D01*
X1599438Y-2572512D01*
X1611274Y-2566009D01*
X1622145Y-2558034D01*
X1631797Y-2548686D01*
X1640179Y-2538069D01*
X1647037Y-2526487D01*
X1652320Y-2514092D01*
X1655876Y-2501087D01*
X1657654Y-2487726D01*
X1657654Y-2474264D01*
X1655876Y-2460904D01*
X1652320Y-2447899D01*
X1647037Y-2435504D01*
X1640179Y-2423922D01*
X1631797Y-2413304D01*
X1622145Y-2403957D01*
X1611274Y-2395982D01*
X1599438Y-2389479D01*
X1586890Y-2384653D01*
X1573784Y-2381504D01*
X1560372Y-2380183D01*
X1546910Y-2380640D01*
X1533601Y-2382875D01*
X1520748Y-2386838D01*
X1508506Y-2392527D01*
X1497177Y-2399792D01*
X1486865Y-2408478D01*
X1477822Y-2418486D01*
X1470202Y-2429560D01*
X1464106Y-2441600D01*
X1459687Y-2454351D01*
X1456994Y-2467559D01*
X1456131Y-2481021D01*
X1456994Y-2494432D01*
X1459687Y-2507640D01*
X1464106Y-2520391D01*
X1470202Y-2532430D01*
X1477822Y-2543505D01*
X1486865Y-2553512D01*
X1497177Y-2562199D01*
X1508506Y-2569464D01*
X1520748Y-2575153D01*
X1533601Y-2579116D01*
X1546910Y-2581351D01*
G37*
G36*
X5203647Y-2544927D02*
G01*
X5203647Y-2496362D01*
X5155031Y-2496362D01*
X5158282Y-2502916D01*
X5166004Y-2514447D01*
X5175148Y-2524861D01*
X5185562Y-2534005D01*
X5197043Y-2541676D01*
G37*
G36*
X5155031Y-2403652D02*
G01*
X5203647Y-2403652D01*
X5203647Y-2355037D01*
X5197043Y-2358288D01*
X5185562Y-2366010D01*
X5175148Y-2375103D01*
X5166004Y-2385517D01*
X5158282Y-2397048D01*
G37*
G36*
X2547518Y-2341676D02*
G01*
X2547518Y-2294432D01*
X2500325Y-2294432D01*
X2502458Y-2299055D01*
X2509824Y-2310536D01*
X2518613Y-2320950D01*
X2528722Y-2330094D01*
X2539949Y-2337816D01*
G37*
G36*
X2636418Y-2341676D02*
G01*
X2644038Y-2337816D01*
X2655265Y-2330094D01*
X2665374Y-2320950D01*
X2674162Y-2310536D01*
X2681528Y-2299055D01*
X2683662Y-2294432D01*
X2636418Y-2294432D01*
G37*
G36*
X1560372Y-2327808D02*
G01*
X1573784Y-2326487D01*
X1586890Y-2323338D01*
X1599438Y-2318512D01*
X1611274Y-2312009D01*
X1622145Y-2304034D01*
X1631797Y-2294686D01*
X1640179Y-2284069D01*
X1647037Y-2272487D01*
X1652320Y-2260092D01*
X1655876Y-2247087D01*
X1657654Y-2233726D01*
X1657654Y-2220264D01*
X1655876Y-2206904D01*
X1652320Y-2193899D01*
X1647037Y-2181504D01*
X1640179Y-2169922D01*
X1631797Y-2159304D01*
X1622145Y-2149957D01*
X1611274Y-2141982D01*
X1599438Y-2135479D01*
X1586890Y-2130653D01*
X1573784Y-2127504D01*
X1560372Y-2126183D01*
X1546910Y-2126640D01*
X1533601Y-2128875D01*
X1520748Y-2132838D01*
X1508506Y-2138527D01*
X1497177Y-2145792D01*
X1486865Y-2154478D01*
X1477822Y-2164486D01*
X1470202Y-2175560D01*
X1464106Y-2187600D01*
X1459687Y-2200351D01*
X1456994Y-2213559D01*
X1456131Y-2227021D01*
X1456994Y-2240432D01*
X1459687Y-2253640D01*
X1464106Y-2266391D01*
X1470202Y-2278430D01*
X1477822Y-2289505D01*
X1486865Y-2299512D01*
X1497177Y-2308199D01*
X1508506Y-2315464D01*
X1520748Y-2321153D01*
X1533601Y-2325116D01*
X1546910Y-2327402D01*
G37*
G36*
X1199997Y-2255875D02*
G01*
X1213815Y-2254961D01*
X1227378Y-2252268D01*
X1240485Y-2247798D01*
X1252931Y-2241702D01*
X1264462Y-2233980D01*
X1274876Y-2224887D01*
X1283970Y-2214473D01*
X1291691Y-2202942D01*
X1297787Y-2190496D01*
X1302258Y-2177389D01*
X1304950Y-2163826D01*
X1305864Y-2150008D01*
X1304950Y-2136190D01*
X1302258Y-2122576D01*
X1297787Y-2109470D01*
X1291691Y-2097074D01*
X1283970Y-2085543D01*
X1274876Y-2075129D01*
X1264462Y-2065985D01*
X1252931Y-2058314D01*
X1240485Y-2052167D01*
X1227378Y-2047697D01*
X1213815Y-2045004D01*
X1199997Y-2044090D01*
X1186180Y-2045004D01*
X1172565Y-2047697D01*
X1159459Y-2052167D01*
X1147064Y-2058314D01*
X1135532Y-2065985D01*
X1125118Y-2075129D01*
X1115974Y-2085543D01*
X1108303Y-2097074D01*
X1102156Y-2109470D01*
X1097686Y-2122576D01*
X1094994Y-2136190D01*
X1094079Y-2150008D01*
X1094994Y-2163826D01*
X1097686Y-2177389D01*
X1102156Y-2190496D01*
X1108303Y-2202942D01*
X1115974Y-2214473D01*
X1125118Y-2224887D01*
X1135532Y-2233980D01*
X1147064Y-2241702D01*
X1159459Y-2247798D01*
X1172565Y-2252268D01*
X1186180Y-2254961D01*
G37*
G36*
X2500223Y-2205532D02*
G01*
X2547518Y-2205532D01*
X2547518Y-2158187D01*
X2545943Y-2158898D01*
X2534208Y-2165807D01*
X2523540Y-2174290D01*
X2514041Y-2184095D01*
X2505964Y-2195068D01*
G37*
G36*
X2636418Y-2205532D02*
G01*
X2683764Y-2205532D01*
X2678023Y-2195068D01*
X2669946Y-2184095D01*
X2660446Y-2174290D01*
X2649778Y-2165807D01*
X2638044Y-2158898D01*
X2636418Y-2158187D01*
G37*
G36*
X5203647Y-2094941D02*
G01*
X5203647Y-2046325D01*
X5155031Y-2046325D01*
X5158282Y-2052929D01*
X5166004Y-2064461D01*
X5175148Y-2074875D01*
X5185562Y-2084019D01*
X5197043Y-2091689D01*
G37*
G36*
X1600860Y-2063750D02*
G01*
X1611274Y-2058009D01*
X1622145Y-2050034D01*
X1631797Y-2040686D01*
X1640179Y-2030069D01*
X1647037Y-2018487D01*
X1647748Y-2016861D01*
X1600860Y-2016861D01*
G37*
G36*
X1513128Y-2063597D02*
G01*
X1513128Y-2016861D01*
X1466392Y-2016861D01*
X1470202Y-2024430D01*
X1477822Y-2035505D01*
X1486865Y-2045512D01*
X1497177Y-2054199D01*
X1508506Y-2061464D01*
G37*
G36*
X5155031Y-1953666D02*
G01*
X5203647Y-1953666D01*
X5203647Y-1905050D01*
X5197043Y-1908302D01*
X5185562Y-1915972D01*
X5175148Y-1925116D01*
X5166004Y-1935530D01*
X5158282Y-1947062D01*
G37*
G36*
X1466392Y-1929130D02*
G01*
X1513128Y-1929130D01*
X1513128Y-1882393D01*
X1508506Y-1884527D01*
X1497177Y-1891792D01*
X1486865Y-1900478D01*
X1477822Y-1910486D01*
X1470202Y-1921560D01*
G37*
G36*
X1600860Y-1929130D02*
G01*
X1647748Y-1929130D01*
X1647037Y-1927504D01*
X1640179Y-1915922D01*
X1631797Y-1905304D01*
X1622145Y-1895957D01*
X1611274Y-1887982D01*
X1600860Y-1882241D01*
G37*
G36*
X3846372Y-1819808D02*
G01*
X3859784Y-1818487D01*
X3872890Y-1815338D01*
X3885437Y-1810512D01*
X3897274Y-1804009D01*
X3908145Y-1796034D01*
X3917797Y-1786686D01*
X3926179Y-1776069D01*
X3933037Y-1764487D01*
X3938270Y-1752092D01*
X3941876Y-1739087D01*
X3943654Y-1725726D01*
X3943654Y-1712264D01*
X3941876Y-1698904D01*
X3938270Y-1685899D01*
X3933037Y-1673504D01*
X3926179Y-1661922D01*
X3917797Y-1651304D01*
X3908145Y-1641957D01*
X3897274Y-1633982D01*
X3885437Y-1627479D01*
X3872890Y-1622653D01*
X3859784Y-1619504D01*
X3846372Y-1618183D01*
X3832910Y-1618640D01*
X3819601Y-1620875D01*
X3806748Y-1624838D01*
X3794506Y-1630527D01*
X3783126Y-1637792D01*
X3772865Y-1646478D01*
X3763822Y-1656486D01*
X3756202Y-1667560D01*
X3750106Y-1679600D01*
X3745687Y-1692351D01*
X3742994Y-1705559D01*
X3742131Y-1719021D01*
X3742994Y-1732432D01*
X3745687Y-1745640D01*
X3750106Y-1758391D01*
X3756202Y-1770430D01*
X3763822Y-1781505D01*
X3772865Y-1791512D01*
X3783126Y-1800199D01*
X3794506Y-1807464D01*
X3806748Y-1813153D01*
X3819601Y-1817116D01*
X3832910Y-1819402D01*
G37*
G36*
X1153617Y-1694942D02*
G01*
X1153617Y-1646326D01*
X1105052Y-1646326D01*
X1108303Y-1652930D01*
X1115974Y-1664462D01*
X1125118Y-1674875D01*
X1135532Y-1684020D01*
X1147064Y-1691690D01*
G37*
G36*
X1246327Y-1694942D02*
G01*
X1252931Y-1691690D01*
X1264462Y-1684020D01*
X1274876Y-1674875D01*
X1283970Y-1664462D01*
X1291691Y-1652930D01*
X1294942Y-1646326D01*
X1246327Y-1646326D01*
G37*
G36*
X3886860Y-1555750D02*
G01*
X3897274Y-1550009D01*
X3908145Y-1542034D01*
X3917797Y-1532686D01*
X3926179Y-1522069D01*
X3933037Y-1510487D01*
X3933748Y-1508861D01*
X3886860Y-1508861D01*
G37*
G36*
X3799128Y-1555597D02*
G01*
X3799128Y-1508861D01*
X3752392Y-1508861D01*
X3756202Y-1516430D01*
X3763822Y-1527505D01*
X3772865Y-1537512D01*
X3783126Y-1546199D01*
X3794506Y-1553464D01*
G37*
G36*
X1246327Y-1553667D02*
G01*
X1294942Y-1553667D01*
X1291691Y-1547063D01*
X1283970Y-1535531D01*
X1274876Y-1525117D01*
X1264462Y-1515973D01*
X1252931Y-1508302D01*
X1246327Y-1505051D01*
G37*
G36*
X1105052Y-1553667D02*
G01*
X1153617Y-1553667D01*
X1153617Y-1505051D01*
X1147064Y-1508302D01*
X1135532Y-1515973D01*
X1125118Y-1525117D01*
X1115974Y-1535531D01*
X1108303Y-1547063D01*
G37*
G36*
X3752392Y-1421130D02*
G01*
X3799128Y-1421130D01*
X3799128Y-1374394D01*
X3794506Y-1376527D01*
X3783126Y-1383792D01*
X3772865Y-1392478D01*
X3763822Y-1402486D01*
X3756202Y-1413560D01*
G37*
G36*
X3886860Y-1421130D02*
G01*
X3933748Y-1421130D01*
X3933037Y-1419504D01*
X3926179Y-1407922D01*
X3917797Y-1397304D01*
X3908145Y-1387957D01*
X3897274Y-1379982D01*
X3886860Y-1374241D01*
G37*
G36*
X353669Y-1344980D02*
G01*
X353669Y-1296365D01*
X305054Y-1296365D01*
X308305Y-1302969D01*
X315976Y-1314450D01*
X325120Y-1324864D01*
X335534Y-1334008D01*
X347065Y-1341729D01*
G37*
G36*
X446328Y-1344980D02*
G01*
X452932Y-1341729D01*
X464464Y-1334008D01*
X474878Y-1324864D01*
X484022Y-1314450D01*
X491693Y-1302969D01*
X494944Y-1296365D01*
X446328Y-1296365D01*
G37*
G36*
X3846372Y-1311808D02*
G01*
X3859784Y-1310487D01*
X3872890Y-1307338D01*
X3885437Y-1302512D01*
X3897274Y-1296009D01*
X3908145Y-1288034D01*
X3917797Y-1278686D01*
X3926179Y-1268069D01*
X3933037Y-1256487D01*
X3938270Y-1244092D01*
X3941876Y-1231087D01*
X3943654Y-1217726D01*
X3943654Y-1204264D01*
X3941876Y-1190904D01*
X3938270Y-1177899D01*
X3933037Y-1165504D01*
X3926179Y-1153922D01*
X3917797Y-1143304D01*
X3908145Y-1133957D01*
X3897274Y-1125982D01*
X3885437Y-1119479D01*
X3872890Y-1114653D01*
X3859784Y-1111504D01*
X3846372Y-1110183D01*
X3832910Y-1110640D01*
X3819601Y-1112875D01*
X3806748Y-1116838D01*
X3794506Y-1122527D01*
X3783126Y-1129792D01*
X3772865Y-1138478D01*
X3763822Y-1148486D01*
X3756202Y-1159560D01*
X3750106Y-1171600D01*
X3745687Y-1184351D01*
X3742994Y-1197559D01*
X3742131Y-1211021D01*
X3742994Y-1224432D01*
X3745687Y-1237640D01*
X3750106Y-1250391D01*
X3756202Y-1262430D01*
X3763822Y-1273505D01*
X3772865Y-1283512D01*
X3783126Y-1292199D01*
X3794506Y-1299464D01*
X3806748Y-1305153D01*
X3819601Y-1309116D01*
X3832910Y-1311402D01*
G37*
G36*
X305054Y-1203655D02*
G01*
X353669Y-1203655D01*
X353669Y-1155039D01*
X347065Y-1158290D01*
X335534Y-1166012D01*
X325120Y-1175156D01*
X315976Y-1185570D01*
X308305Y-1197051D01*
G37*
G36*
X446328Y-1203655D02*
G01*
X494944Y-1203655D01*
X491693Y-1197051D01*
X484022Y-1185570D01*
X474878Y-1175156D01*
X464464Y-1166012D01*
X452932Y-1158290D01*
X446328Y-1155039D01*
G37*
G36*
X746353Y-1094943D02*
G01*
X752906Y-1091692D01*
X764438Y-1084021D01*
X774852Y-1074877D01*
X783996Y-1064463D01*
X791667Y-1052931D01*
X794918Y-1046327D01*
X746353Y-1046327D01*
G37*
G36*
X653643Y-1094943D02*
G01*
X653643Y-1046327D01*
X605028Y-1046327D01*
X608279Y-1052931D01*
X616000Y-1064463D01*
X625094Y-1074877D01*
X635508Y-1084021D01*
X647039Y-1091692D01*
G37*
G36*
X746353Y-953668D02*
G01*
X794918Y-953668D01*
X791667Y-947064D01*
X783996Y-935532D01*
X774852Y-925118D01*
X764438Y-915974D01*
X752906Y-908303D01*
X746353Y-905052D01*
G37*
G36*
X605028Y-953668D02*
G01*
X653643Y-953668D01*
X653643Y-905052D01*
X647039Y-908303D01*
X635508Y-915974D01*
X625094Y-925118D01*
X616000Y-935532D01*
X608279Y-947064D01*
G37*
G36*
X399999Y-855878D02*
G01*
X413816Y-855014D01*
X427380Y-852271D01*
X440537Y-847852D01*
X452932Y-841705D01*
X464464Y-834034D01*
X474878Y-824890D01*
X484022Y-814476D01*
X491693Y-802944D01*
X497840Y-790549D01*
X502259Y-777392D01*
X505002Y-763828D01*
X505866Y-750011D01*
X505002Y-736193D01*
X502259Y-722630D01*
X497840Y-709472D01*
X491693Y-697077D01*
X484022Y-685546D01*
X474878Y-675132D01*
X464464Y-665988D01*
X452932Y-658317D01*
X440537Y-652170D01*
X427380Y-647750D01*
X413816Y-645007D01*
X399999Y-644144D01*
X386181Y-645007D01*
X372618Y-647750D01*
X359460Y-652170D01*
X347065Y-658317D01*
X335534Y-665988D01*
X325120Y-675132D01*
X315976Y-685546D01*
X308305Y-697077D01*
X302158Y-709472D01*
X297738Y-722630D01*
X294995Y-736193D01*
X294132Y-750011D01*
X294995Y-763828D01*
X297738Y-777392D01*
X302158Y-790549D01*
X308305Y-802944D01*
X315976Y-814476D01*
X325120Y-824890D01*
X335534Y-834034D01*
X347065Y-841705D01*
X359460Y-847852D01*
X372618Y-852271D01*
X386181Y-855014D01*
G37*
G36*
X404520Y-575818D02*
G01*
X422605Y-574446D01*
X440385Y-571195D01*
X457809Y-566115D01*
X474573Y-559308D01*
X490524Y-550773D01*
X505561Y-540664D01*
X519480Y-529082D01*
X532130Y-516128D01*
X543356Y-501904D01*
X553059Y-486613D01*
X561187Y-470458D01*
X567537Y-453491D01*
X572160Y-435965D01*
X574954Y-418084D01*
X575868Y-399999D01*
X574954Y-381914D01*
X572160Y-364032D01*
X567537Y-346506D01*
X561187Y-329539D01*
X553059Y-313385D01*
X543356Y-298094D01*
X532130Y-283870D01*
X519480Y-270916D01*
X505561Y-259334D01*
X490524Y-249224D01*
X474573Y-240690D01*
X457809Y-233883D01*
X440385Y-228803D01*
X422605Y-225552D01*
X404520Y-224180D01*
X386435Y-224637D01*
X368452Y-226974D01*
X350824Y-231089D01*
X333756Y-237083D01*
X317347Y-244754D01*
X301802Y-254050D01*
X287324Y-264922D01*
X274015Y-277215D01*
X262077Y-290830D01*
X251561Y-305612D01*
X242671Y-321360D01*
X235407Y-337972D01*
X229920Y-355193D01*
X226212Y-372922D01*
X224332Y-390956D01*
X224332Y-409041D01*
X226212Y-427075D01*
X229920Y-444804D01*
X235407Y-462026D01*
X242671Y-478637D01*
X251561Y-494385D01*
X262077Y-509168D01*
X274015Y-522782D01*
X287324Y-535076D01*
X301802Y-545947D01*
X317347Y-555244D01*
X333756Y-562914D01*
X350824Y-568909D01*
X368452Y-573024D01*
X386435Y-575360D01*
G37*
G36*
X5004511Y-575818D02*
G01*
X5022596Y-574446D01*
X5040376Y-571195D01*
X5057800Y-566115D01*
X5074564Y-559308D01*
X5090515Y-550773D01*
X5105552Y-540664D01*
X5119471Y-529082D01*
X5132120Y-516128D01*
X5143347Y-501904D01*
X5153050Y-486613D01*
X5161178Y-470458D01*
X5167528Y-453491D01*
X5172151Y-435965D01*
X5174945Y-418084D01*
X5175859Y-399999D01*
X5174945Y-381914D01*
X5172151Y-364032D01*
X5167528Y-346506D01*
X5161178Y-329539D01*
X5153050Y-313385D01*
X5143347Y-298094D01*
X5132120Y-283870D01*
X5119471Y-270916D01*
X5105552Y-259334D01*
X5090515Y-249224D01*
X5074564Y-240690D01*
X5057800Y-233883D01*
X5040376Y-228803D01*
X5022596Y-225552D01*
X5004511Y-224180D01*
X4986426Y-224637D01*
X4968443Y-226974D01*
X4950815Y-231089D01*
X4933746Y-237083D01*
X4917338Y-244754D01*
X4901793Y-254050D01*
X4887315Y-264922D01*
X4874006Y-277215D01*
X4862068Y-290830D01*
X4851552Y-305612D01*
X4842662Y-321360D01*
X4835398Y-337972D01*
X4829911Y-355193D01*
X4826203Y-372922D01*
X4824323Y-390956D01*
X4824323Y-409041D01*
X4826203Y-427075D01*
X4829911Y-444804D01*
X4835398Y-462026D01*
X4842662Y-478637D01*
X4851552Y-494385D01*
X4862068Y-509168D01*
X4874006Y-522782D01*
X4887315Y-535076D01*
X4901793Y-545947D01*
X4917338Y-555244D01*
X4933746Y-562914D01*
X4950815Y-568909D01*
X4968443Y-573024D01*
X4986426Y-575360D01*
G37*
G36*
X4556353Y-312420D02*
G01*
X4558487Y-311454D01*
X4571492Y-303580D01*
X4583480Y-294233D01*
X4594199Y-283464D01*
X4603597Y-271526D01*
X4611471Y-258521D01*
X4612436Y-256336D01*
X4556353Y-256336D01*
G37*
G36*
X4443628Y-312420D02*
G01*
X4443628Y-256336D01*
X4387545Y-256336D01*
X4388510Y-258521D01*
X4396384Y-271526D01*
X4405782Y-283464D01*
X4416501Y-294233D01*
X4428490Y-303580D01*
X4441494Y-311454D01*
G37*
G36*
X3006344Y-241909D02*
G01*
X3007918Y-241249D01*
X3019653Y-234289D01*
X3030372Y-225806D01*
X3039872Y-216001D01*
X3047949Y-205028D01*
X3053689Y-194564D01*
X3006344Y-194564D01*
G37*
G36*
X2917444Y-241909D02*
G01*
X2917444Y-194564D01*
X2870098Y-194564D01*
X2875838Y-205028D01*
X2883916Y-216001D01*
X2893415Y-225806D01*
X2904134Y-234289D01*
X2915869Y-241249D01*
G37*

%LPD*%
D10*
X4999990Y-6099987D02*
G01*
X4999990Y-12299975D01*
X3399993Y-6099987D02*
G01*
X3399993Y-12299975D01*
X4999990Y-5599988D02*
G01*
X4999990Y-6099987D01*
X3399993Y-5599988D02*
G01*
X3399993Y-6099987D01*
D11*
X399999Y-5599986D02*
G01*
X1049985Y-4950002D01*
X1096010Y-4950002D01*
X1080998Y-3718991D02*
G01*
X1472996Y-3718991D01*
X2704007Y-4950002D01*
X1080998Y-3972991D02*
G01*
X1604010Y-4496003D01*
X1604010Y-4950002D01*
X599998Y-3004007D02*
G01*
X645998Y-3050006D01*
X645998Y-3299993D01*
X1556994Y-1718995D02*
G01*
X4234002Y-4396003D01*
X4450003Y-4396003D01*
X3842994Y-2226995D02*
G01*
X4217492Y-2601493D01*
X4217492Y-3821480D01*
X4450003Y-4053992D01*
X2250008Y-11749989D02*
G01*
X2250008Y-6205626D01*
X3240328Y-5215305D01*
X3769486Y-5215305D01*
X4309999Y-4674793D01*
X5185968Y-4674793D01*
X5369356Y-4491405D01*
X5369356Y-4069359D01*
X5250002Y-3950004D01*
X5250002Y-3950004D02*
G01*
X5126329Y-4073677D01*
X4469688Y-4073677D01*
X4450003Y-4053992D01*
X3842994Y-1972995D02*
G01*
X2869996Y-999997D01*
X1199997Y-999997D01*
X399999Y-1450009D02*
G01*
X749985Y-1450009D01*
X1199997Y-999997D01*
X962913Y-2633090D02*
G01*
X737082Y-2633090D01*
X599998Y-2496007D01*
X1080998Y-4226991D02*
G01*
X962913Y-4108907D01*
X962913Y-2633090D01*
X962913Y-2633090D02*
G01*
X1099997Y-2496007D01*
X3842994Y-2988995D02*
G01*
X3842994Y-3610762D01*
X4432249Y-4200017D01*
X5000015Y-4200017D01*
X5250002Y-4450003D01*
X4999990Y-5599988D02*
G01*
X4450003Y-5050002D01*
X4450003Y-4904003D01*
D12*
X4750003Y-1999995D02*
G01*
X4750003Y-850011D01*
X4099991Y-199999D01*
X4450003Y-1045997D02*
G01*
X3699992Y-295986D01*
X3699992Y-199999D01*
X4750003Y-2450007D02*
G01*
X4308475Y-2008479D01*
X4308475Y-1187526D01*
X4450003Y-1045997D01*
D11*
X3842994Y-2734995D02*
G01*
X2823006Y-2734995D01*
X2337993Y-2249982D01*
X3842994Y-2480995D02*
G01*
X3077006Y-2480995D01*
X2845993Y-2249982D01*
D12*
X1153998Y-3299993D02*
G01*
X1232204Y-3221786D01*
X1232204Y-2446146D01*
X936066Y-2150008D01*
X936066Y-2150008D02*
G01*
X699998Y-2150008D01*
X3099993Y-2249982D02*
G01*
X2983890Y-2249982D01*
X1556994Y-1210995D02*
G01*
X1440662Y-1327327D01*
X1440662Y-1591995D01*
X936066Y-2150008D02*
G01*
X1440662Y-1645412D01*
X1440662Y-1591995D01*
X1440662Y-1591995D02*
G01*
X2354935Y-1591995D01*
X2983890Y-2220950D01*
X2983890Y-2249982D01*
X4750003Y-2899994D02*
G01*
X3950004Y-2099995D01*
X3366084Y-2099995D01*
X3216097Y-2249982D01*
X3099993Y-2249982D02*
G01*
X3216097Y-2249982D01*
D11*
X1096010Y-4949952D02*
G01*
X1100073Y-4945887D01*
X1100073Y-4800092D01*
X800100Y-4500118D01*
X800100Y-3700018D01*
X400050Y-3299968D01*
X400050Y-2249931D01*
D13*
X399999Y-5599988D02*
G01*
X299923Y-5599988D01*
X100025Y-5800140D01*
X100025Y-6450634D01*
X100025Y-12599974D01*
X1199845Y-12599974D01*
X1099946Y-5600039D02*
G01*
X1199946Y-5600039D01*
X1399946Y-5800039D01*
X1399946Y-12600025D01*
X1399943Y-12404509D02*
G01*
X299948Y-12404509D01*
X99948Y-12203846D02*
G01*
X1199944Y-12203846D01*
X1399943Y-12005724D02*
G01*
X299948Y-12005724D01*
X99948Y-11803616D02*
G01*
X1199944Y-11803616D01*
X1399943Y-11602232D02*
G01*
X299948Y-11600025D01*
X99948Y-11402654D02*
G01*
X1199944Y-11402654D01*
X1399943Y-11201270D02*
G01*
X299948Y-11201270D01*
X99948Y-11003516D02*
G01*
X1199944Y-11003516D01*
X1399943Y-10802132D02*
G01*
X299948Y-10802132D01*
X99948Y-10604370D02*
G01*
X1199944Y-10604370D01*
X1399943Y-10402989D02*
G01*
X299948Y-10402989D01*
X99948Y-10201041D02*
G01*
X1199944Y-10201041D01*
X1399943Y-10001227D02*
G01*
X299948Y-10000030D01*
X99948Y-9801412D02*
G01*
X1199944Y-9801412D01*
X1399943Y-9601598D02*
G01*
X299948Y-9601598D01*
X99948Y-9400941D02*
G01*
X1199944Y-9400941D01*
X1399943Y-9197741D02*
G01*
X299948Y-9197741D01*
X99948Y-8999618D02*
G01*
X1199944Y-8999618D01*
X1399943Y-8801498D02*
G01*
X299948Y-8801498D01*
X99948Y-8600841D02*
G01*
X1199944Y-8600841D01*
X1399943Y-8402718D02*
G01*
X299948Y-8402718D01*
X99948Y-8199518D02*
G01*
X1199944Y-8199518D01*
X1399943Y-8001398D02*
G01*
X299948Y-8000034D01*
X99948Y-7802526D02*
G01*
X1199944Y-7802526D01*
X1399943Y-7599326D02*
G01*
X299948Y-7600033D01*
X99948Y-7401570D02*
G01*
X1199944Y-7401570D01*
X1399943Y-7201999D02*
G01*
X299948Y-7200038D01*
X99948Y-6998799D02*
G01*
X1199944Y-6998799D01*
X1399943Y-6803219D02*
G01*
X299948Y-6803219D01*
X99948Y-6602562D02*
G01*
X1199944Y-6602562D01*
X1399943Y-6399362D02*
G01*
X1010795Y-6399362D01*
X299948Y-6399362D01*
D14*
G01*
X3099993Y-2249995D03*
D15*
G01*
X2845993Y-2249995D03*
G01*
X2591993Y-2249995D03*
G01*
X2337993Y-2249995D03*
D16*
G01*
X3699992Y-199999D03*
G01*
X4099991Y-199999D03*
G01*
X4499990Y-199999D03*
D15*
G01*
X2206752Y-150113D03*
G01*
X2453893Y-150113D03*
G01*
X2707893Y-150113D03*
G01*
X2961893Y-150113D03*
G01*
X3215893Y-150113D03*
D17*
G01*
X5250002Y-1999995D03*
G01*
X4750003Y-1999995D03*
G01*
X5250002Y-2450007D03*
G01*
X4750003Y-2450007D03*
G01*
X4750003Y-2899994D03*
G01*
X5250002Y-2899994D03*
G01*
X5250002Y-3350005D03*
G01*
X4750003Y-3350005D03*
G01*
X4750003Y-4450003D03*
G01*
X5250002Y-4450003D03*
G01*
X699998Y-2150008D03*
G01*
X1199997Y-2150008D03*
G01*
X699998Y-1599996D03*
G01*
X1199997Y-1599996D03*
G01*
X399999Y-1250010D03*
G01*
X399999Y-750011D03*
G01*
X699998Y-999997D03*
G01*
X1199997Y-999997D03*
G01*
X4750003Y-3950004D03*
G01*
X5250002Y-3950004D03*
D18*
G01*
X4450003Y-1553997D03*
G01*
X4450003Y-1045997D03*
G01*
X4450003Y-4904003D03*
G01*
X4450003Y-4396003D03*
G01*
X645998Y-3299993D03*
G01*
X1153998Y-3299993D03*
G01*
X599998Y-3004007D03*
G01*
X599998Y-2496007D03*
G01*
X1099997Y-3004007D03*
G01*
X1099997Y-2496007D03*
G01*
X1096010Y-4950002D03*
G01*
X1604010Y-4950002D03*
G01*
X2196007Y-4950002D03*
G01*
X2704007Y-4950002D03*
G01*
X3345941Y-4949952D03*
G01*
X3853941Y-4949952D03*
G01*
X4450003Y-4053992D03*
G01*
X4450003Y-3545992D03*
D15*
G01*
X2250008Y-12549987D03*
G01*
X2250008Y-11749989D03*
D19*
G01*
X399999Y-1450009D03*
G01*
X399999Y-2250008D03*
D20*
G01*
X3399993Y-5599988D03*
G01*
X4999990Y-5599988D03*
G01*
X399999Y-5599988D03*
G01*
X1099997Y-5599988D03*
D21*
G01*
X3842994Y-2988995D03*
G01*
X3842994Y-2734995D03*
G01*
X3842994Y-2480995D03*
G01*
X3842994Y-2226995D03*
G01*
X3842994Y-1972995D03*
G01*
X3842994Y-1718995D03*
G01*
X3842994Y-1464995D03*
G01*
X3842994Y-1210995D03*
G01*
X1556994Y-1210995D03*
G01*
X1556994Y-1464995D03*
G01*
X1556994Y-1718995D03*
G01*
X1556994Y-1972995D03*
G01*
X1556994Y-2226995D03*
G01*
X1556994Y-2480995D03*
G01*
X1556994Y-2734995D03*
G01*
X1556994Y-2988995D03*
D22*
G01*
X1080998Y-4480991D03*
D23*
G01*
X1080998Y-4226991D03*
G01*
X1080998Y-3972991D03*
G01*
X1080998Y-3718991D03*
G01*
X318998Y-3718991D03*
G01*
X318998Y-3972991D03*
G01*
X318998Y-4226991D03*
G01*
X318998Y-4480991D03*
M02*
