G04 Layer: BottomSolderMaskLayer*
G04 EasyEDA v6.5.46, 2025-07-26 16:23:32*
G04 7ed6d18b490e47c1a82f07b8cfc49d34,ba325f3f76be48ccbdad7cc867071ff5,10*
G04 Gerber Generator version 0.2*
G04 Scale: 100 percent, Rotated: No, Reflected: No *
G04 Dimensions in millimeters *
G04 leading zeros omitted , absolute positions ,4 integer and 5 decimal *
%FSLAX45Y45*%
%MOMM*%

%AMMACRO1*4,1,8,-0.8041,-0.8636,-0.8636,-0.8041,-0.8636,0.8041,-0.8041,0.8636,0.8041,0.8636,0.8636,0.8041,0.8636,-0.8041,0.8041,-0.8636,-0.8041,-0.8636,0*%
%AMMACRO2*4,1,8,-0.9207,-0.95,-0.95,-0.9207,-0.95,0.9207,-0.9207,0.95,0.9207,0.95,0.95,0.9207,0.95,-0.9207,0.9207,-0.95,-0.9207,-0.95,0*%
%ADD10C,6.2036*%
%ADD11MACRO1*%
%ADD12C,1.7272*%
%ADD13C,2.1016*%
%ADD14C,1.6256*%
%ADD15C,1.7016*%
%ADD16C,1.8016*%
%ADD17C,1.5000*%
%ADD18C,3.1016*%
%ADD19C,1.6016*%
%ADD20MACRO2*%
%ADD21C,1.9000*%

%LPD*%
D10*
X3399993Y-6099987D02*
G01*
X3399993Y-12299975D01*
X4999990Y-6099987D02*
G01*
X4999990Y-12299975D01*
D11*
G01*
X3099993Y-2249995D03*
D12*
G01*
X2845993Y-2249995D03*
G01*
X2591993Y-2249995D03*
G01*
X2337993Y-2249995D03*
D13*
G01*
X3699992Y-199999D03*
G01*
X4099991Y-199999D03*
G01*
X4499990Y-199999D03*
D12*
G01*
X2206752Y-150113D03*
G01*
X2453893Y-150113D03*
D14*
G01*
X2707893Y-150113D03*
D12*
G01*
X2961893Y-150113D03*
G01*
X3215893Y-150113D03*
D15*
G01*
X5250002Y-1999995D03*
G01*
X4750003Y-1999995D03*
G01*
X5250002Y-2450007D03*
G01*
X4750003Y-2450007D03*
G01*
X4750003Y-2899994D03*
G01*
X5250002Y-2899994D03*
G01*
X5250002Y-3350005D03*
G01*
X4750003Y-3350005D03*
G01*
X4750003Y-4450003D03*
G01*
X5250002Y-4450003D03*
G01*
X699998Y-2150008D03*
G01*
X1199997Y-2150008D03*
G01*
X699998Y-1599996D03*
G01*
X1199997Y-1599996D03*
G01*
X399999Y-1250010D03*
G01*
X399999Y-750011D03*
G01*
X699998Y-999997D03*
G01*
X1199997Y-999997D03*
G01*
X4750003Y-3950004D03*
G01*
X5250002Y-3950004D03*
D16*
G01*
X4450003Y-1553997D03*
G01*
X4450003Y-1045997D03*
G01*
X4450003Y-4904003D03*
G01*
X4450003Y-4396003D03*
G01*
X645998Y-3299993D03*
G01*
X1153998Y-3299993D03*
G01*
X599998Y-3004007D03*
G01*
X599998Y-2496007D03*
G01*
X1099997Y-3004007D03*
G01*
X1099997Y-2496007D03*
G01*
X1096010Y-4950002D03*
G01*
X1604010Y-4950002D03*
G01*
X2196007Y-4950002D03*
G01*
X2704007Y-4950002D03*
G01*
X3345941Y-4949952D03*
G01*
X3853941Y-4949952D03*
G01*
X4450003Y-4053992D03*
G01*
X4450003Y-3545992D03*
D14*
G01*
X2250008Y-12549987D03*
G01*
X2250008Y-11749989D03*
D17*
G01*
X399999Y-1450009D03*
G01*
X399999Y-2250008D03*
D18*
G01*
X3399993Y-5599988D03*
G01*
X4999990Y-5599988D03*
G01*
X399999Y-5599988D03*
G01*
X1099997Y-5599988D03*
D19*
G01*
X3842994Y-2988995D03*
G01*
X3842994Y-2734995D03*
G01*
X3842994Y-2480995D03*
G01*
X3842994Y-2226995D03*
G01*
X3842994Y-1972995D03*
G01*
X3842994Y-1718995D03*
G01*
X3842994Y-1464995D03*
G01*
X3842994Y-1210995D03*
G01*
X1556994Y-1210995D03*
G01*
X1556994Y-1464995D03*
G01*
X1556994Y-1718995D03*
G01*
X1556994Y-1972995D03*
G01*
X1556994Y-2226995D03*
G01*
X1556994Y-2480995D03*
G01*
X1556994Y-2734995D03*
G01*
X1556994Y-2988995D03*
D20*
G01*
X1080998Y-4480991D03*
D21*
G01*
X1080998Y-4226991D03*
G01*
X1080998Y-3972991D03*
G01*
X1080998Y-3718991D03*
G01*
X318998Y-3718991D03*
G01*
X318998Y-3972991D03*
G01*
X318998Y-4226991D03*
G01*
X318998Y-4480991D03*
M02*
