M48
METRIC,LZ,000.000
;FILE_FORMAT=3:3
;TYPE=PLATED
;Layer: PTH_Through
;EasyEDA v6.5.51, 2025-09-10 13:12:57
;bcd41116ccc442bd9d962e01ee37aded,ba325f3f76be48ccbdad7cc867071ff5,10
;Gerber Generator version 0.2
;Holesize 1 = 0.310 mm
T01C0.310
;Holesize 2 = 0.600 mm
T02C0.600
;Holesize 3 = 0.701 mm
T03C0.701
;Holesize 4 = 0.751 mm
T04C0.751
;Holesize 5 = 0.800 mm
T05C0.800
;Holesize 6 = 0.889 mm
T06C0.889
;Holesize 7 = 0.901 mm
T07C0.901
;Holesize 8 = 0.915 mm
T08C0.915
;Holesize 9 = 1.000 mm
T09C1.000
;Holesize 10 = 1.101 mm
T10C1.101
;Holesize 11 = 1.200 mm
T11C1.200
;Holesize 12 = 1.501 mm
T12C1.501
%
G05
G90
T01
X-000256Y087160
X000512Y085248
X-006144Y120064
X000768Y121088
X-000512Y094976
X-001024Y093440
X005120Y081408
X-009472Y067584
X-004608Y098048
X-003584Y068096
X-014080Y087552
X-007424Y099840
X-004864Y102400
X-010496Y092416
X-009472Y090624
X002048Y089856
X004096Y090368
X-007424Y082688
X-009728Y082688
X-006656Y082688
X-009472Y083456
X-006656Y083456
X-010496Y082688
X-002540Y086160
X-009728Y087552
X-002540Y086960
X-001740Y086960
X-000340Y085960
X-001240Y087660
X-000540Y088260
X-021740Y093060
X-020640Y093060
X-019640Y093060
X-020640Y092260
X-020640Y093060
X-021740Y093060
X-020640Y092260
X-019640Y093060
X-000540Y088260
X-001240Y087660
X-001740Y086960
X-002540Y086960
X-002540Y086160
X-000340Y085960
T02
X-004665Y127160
X-003415Y127160
T03
X-013040Y114160
X-011040Y114160
X-007540Y114160
X-005540Y114160
X-000040Y114160
X-002040Y114160
T04
X011524Y082160
X002888Y082160
X011524Y087160
X002888Y087160
X011524Y084660
X002888Y084660
X-020540Y096596
X-020540Y105232
X-000104Y069660
X008532Y069660
X-004739Y071696
X-004739Y080332
X-002240Y080324
X-002240Y071688
X003024Y104160
X-005612Y104160
X-007240Y071696
X-007240Y080332
X010460Y099224
X010460Y090588
X008524Y072160
X-000112Y072160
X-008040Y110724
X-008040Y102088
X-010540Y102097
X-010540Y110733
X003868Y094323
X-004768Y094323
X-005604Y109160
X003032Y109160
X-005604Y106660
X003032Y106660
X003868Y091823
X-004768Y091823
T05
X-010540Y069560
X-018540Y069560
T06
X000650Y128660
X003190Y128660
X005730Y128660
X008270Y128660
T07
X-021540Y120660
X-019540Y120660
X-017540Y120660
X006170Y011828
X006170Y003828
X-016470Y111749
X-016470Y109209
X-016470Y106669
X-016470Y104129
X-016470Y101589
X-016470Y099049
X-016470Y096509
X-016470Y093969
X006390Y093969
X006390Y096509
X006390Y099049
X006390Y101589
X006390Y104129
X006390Y106669
X006390Y109209
X006390Y111749
T08
X000960Y075890
X000960Y078430
X-020540Y087930
X-020540Y085390
X010460Y104430
X010460Y101890
X-002770Y069160
X-005310Y069160
X-018870Y082160
X-021410Y082160
X-009267Y128660
X-011807Y128660
X-014347Y128660
X-016887Y128660
X-019358Y128660
T09
X-012490Y085160
X-008990Y085160
X-010130Y079570
X-012670Y079570
X-015210Y079570
X-017750Y079570
X-017750Y071950
X-015210Y071950
X-012670Y071950
X-010130Y071950
T10
X010460Y112430
X010460Y109890
X-020540Y117700
X-020540Y115160
X-020540Y112620
X010460Y119930
X010460Y117390
T11
X007660Y079660
X007660Y074660
X004360Y074660
X004360Y079660
X-002704Y097323
X002296Y097323
X-004040Y083160
X000960Y083160
X010960Y079660
X010960Y074660
X-021040Y079160
X-021040Y074160
X-002704Y100623
X002296Y100623
T12
X-011540Y-002840
X001460Y-002840
X-015360Y065280
X-011008Y065280
M30
