M48
METRIC,LZ,000.000
;FILE_FORMAT=3:3
;TYPE=PLATED
;Layer: PTH_Through_Via
;EasyEDA v6.5.51, 2025-09-10 13:12:57
;bcd41116ccc442bd9d962e01ee37aded,ba325f3f76be48ccbdad7cc867071ff5,10
;Gerber Generator version 0.2
;Holesize 1 = 0.310 mm
T01C0.310
%
G05
G90
T01
X-000256Y087160
X000512Y085248
X-006144Y120064
X000768Y121088
X-000512Y094976
X-001024Y093440
X005120Y081408
X-009472Y067584
X-004608Y098048
X-003584Y068096
X-014080Y087552
X-007424Y099840
X-004864Y102400
X-010496Y092416
X-009472Y090624
X002048Y089856
X004096Y090368
X-007424Y082688
X-009728Y082688
X-006656Y082688
X-009472Y083456
X-006656Y083456
X-010496Y082688
X-002540Y086160
X-009728Y087552
X-002540Y086960
X-001740Y086960
X-000340Y085960
X-001240Y087660
X-000540Y088260
X-021740Y093060
X-020640Y093060
X-019640Y093060
X-020640Y092260
M30
