G04 Layer: BottomLayer*
G04 EasyEDA v6.5.51, 2025-09-10 13:12:57*
G04 bcd41116ccc442bd9d962e01ee37aded,ba325f3f76be48ccbdad7cc867071ff5,10*
G04 Gerber Generator version 0.2*
G04 Scale: 100 percent, Rotated: No, Reflected: No *
G04 Dimensions in millimeters *
G04 leading zeros omitted , absolute positions ,4 integer and 5 decimal *
%FSLAX45Y45*%
%MOMM*%

%AMMACRO1*21,1,$1,$2,0,0,$3*%
%ADD10C,0.5080*%
%ADD11C,0.2540*%
%ADD12C,1.0000*%
%ADD13MACRO1,1X1X0.0000*%
%ADD14MACRO1,1.651X1.651X0.0000*%
%ADD15C,1.6510*%
%ADD16C,0.0174*%
%ADD17C,1.4000*%
%ADD18MACRO1,1.4X1.4X0.0000*%
%ADD19C,1.8000*%
%ADD20C,1.5240*%
%ADD21C,1.6000*%
%ADD22R,1.8000X1.8000*%
%ADD23C,1.1000*%
%ADD24R,1.7000X1.7000*%
%ADD25C,1.7000*%
%ADD26C,3.0000*%
%ADD27C,0.6200*%

%LPD*%
G36*
X202692Y10938103D02*
G01*
X198678Y10938814D01*
X195326Y10940948D01*
X193040Y10944301D01*
X192227Y10948263D01*
X192227Y12498171D01*
X192989Y12502083D01*
X195173Y12505385D01*
X345948Y12656108D01*
X351078Y12662357D01*
X354634Y12669012D01*
X356819Y12676225D01*
X357632Y12684252D01*
X357632Y12758064D01*
X358292Y12761722D01*
X360273Y12764922D01*
X363270Y12767157D01*
X373227Y12772085D01*
X385013Y12779959D01*
X395681Y12789306D01*
X405028Y12799974D01*
X412902Y12811760D01*
X419201Y12824460D01*
X423773Y12837922D01*
X426516Y12851841D01*
X427431Y12865963D01*
X426516Y12880136D01*
X423773Y12894056D01*
X419862Y12905536D01*
X419354Y12909346D01*
X420268Y12913055D01*
X422503Y12916154D01*
X425754Y12918236D01*
X429514Y12918948D01*
X462534Y12918795D01*
X466039Y12918135D01*
X469087Y12916357D01*
X471322Y12913614D01*
X526897Y12913614D01*
X529183Y12916154D01*
X532231Y12917830D01*
X535584Y12918389D01*
X610514Y12917982D01*
X613714Y12917474D01*
X616610Y12915950D01*
X618845Y12913614D01*
X675843Y12913614D01*
X678078Y12915747D01*
X680872Y12917170D01*
X683971Y12917627D01*
X716076Y12917424D01*
X719836Y12916712D01*
X723036Y12914630D01*
X725271Y12911531D01*
X726186Y12907822D01*
X725678Y12904012D01*
X722274Y12894056D01*
X719480Y12880136D01*
X718566Y12865963D01*
X719480Y12851841D01*
X722274Y12837922D01*
X725830Y12827406D01*
X726338Y12823698D01*
X725525Y12820091D01*
X723392Y12816992D01*
X276250Y12369850D01*
X271170Y12363602D01*
X267563Y12356947D01*
X265379Y12349734D01*
X264617Y12341707D01*
X264617Y11010188D01*
X264007Y11006785D01*
X262331Y11003737D01*
X259740Y11001502D01*
X247904Y10994288D01*
X237744Y10986058D01*
X228854Y10976508D01*
X221284Y10965789D01*
X215290Y10954156D01*
X211937Y10944860D01*
X209854Y10941405D01*
X206603Y10939018D01*
G37*

%LPC*%
G36*
X620623Y12768834D02*
G01*
X627227Y12772085D01*
X639013Y12779959D01*
X649681Y12789306D01*
X659028Y12799974D01*
X666902Y12811760D01*
X670153Y12818364D01*
X620623Y12818364D01*
G37*
G36*
X525373Y12768834D02*
G01*
X525373Y12818364D01*
X475843Y12818364D01*
X479094Y12811760D01*
X486968Y12799974D01*
X496316Y12789306D01*
X506984Y12779959D01*
X518769Y12772085D01*
G37*

%LPD*%
G36*
X-997254Y9271508D02*
G01*
X-1001268Y9272930D01*
X-1004366Y9275876D01*
X-1008176Y9280245D01*
X-1010259Y9283496D01*
X-1010970Y9287306D01*
X-1010970Y9522663D01*
X-1011783Y9530689D01*
X-1013968Y9537954D01*
X-1017524Y9544608D01*
X-1022654Y9550857D01*
X-1161592Y9689795D01*
X-1163828Y9693097D01*
X-1164590Y9696958D01*
X-1164590Y11039348D01*
X-1163726Y11043412D01*
X-1161338Y11046764D01*
X-1157833Y11048949D01*
X-1153718Y11049508D01*
X-1149756Y11048390D01*
X-1146556Y11045748D01*
X-1144371Y11041176D01*
X-1139139Y11029137D01*
X-1132382Y11017961D01*
X-1124102Y11007801D01*
X-1114552Y10998911D01*
X-1103833Y10991342D01*
X-1092200Y10985347D01*
X-1079906Y10980928D01*
X-1067104Y10978286D01*
X-1053998Y10977372D01*
X-1040942Y10978286D01*
X-1028141Y10980928D01*
X-1015847Y10985347D01*
X-1004214Y10991342D01*
X-993495Y10998911D01*
X-983945Y11007801D01*
X-975664Y11017961D01*
X-968705Y11029442D01*
X-966419Y11032083D01*
X-963421Y11033760D01*
X-959967Y11034318D01*
X-898296Y11034115D01*
X-894892Y11033506D01*
X-891895Y11031778D01*
X-889609Y11029188D01*
X-882294Y11017097D01*
X-874064Y11006937D01*
X-864514Y10997996D01*
X-853795Y10990478D01*
X-848207Y10987532D01*
X-845312Y10985296D01*
X-843381Y10982147D01*
X-842721Y10978540D01*
X-842721Y10404551D01*
X-841908Y10396524D01*
X-839724Y10389311D01*
X-836168Y10382605D01*
X-831037Y10376408D01*
X-773988Y10319308D01*
X-771652Y10315702D01*
X-771042Y10311434D01*
X-772210Y10307269D01*
X-775004Y10304018D01*
X-778916Y10302189D01*
X-783234Y10302189D01*
X-790905Y10303764D01*
X-803960Y10304678D01*
X-817067Y10303764D01*
X-829868Y10301122D01*
X-842162Y10296702D01*
X-853795Y10290708D01*
X-864514Y10283139D01*
X-874064Y10274249D01*
X-882345Y10264089D01*
X-889101Y10252913D01*
X-894334Y10240873D01*
X-897890Y10228275D01*
X-899668Y10215321D01*
X-899668Y10202214D01*
X-897890Y10189260D01*
X-894334Y10176662D01*
X-889101Y10164673D01*
X-882345Y10153497D01*
X-874064Y10143337D01*
X-864514Y10134396D01*
X-853795Y10126878D01*
X-842162Y10120833D01*
X-829868Y10116464D01*
X-817067Y10113772D01*
X-803960Y10112908D01*
X-790905Y10113772D01*
X-778103Y10116464D01*
X-765810Y10120833D01*
X-754176Y10126878D01*
X-743458Y10134396D01*
X-733907Y10143337D01*
X-725627Y10153497D01*
X-718870Y10164673D01*
X-713638Y10176662D01*
X-710082Y10189260D01*
X-708304Y10202214D01*
X-708304Y10215321D01*
X-710184Y10228630D01*
X-710438Y10233050D01*
X-708812Y10237165D01*
X-705561Y10240162D01*
X-701344Y10241483D01*
X-696976Y10240924D01*
X-693216Y10238587D01*
X-681634Y10226954D01*
X-679399Y10223652D01*
X-678637Y10219740D01*
X-678637Y10024008D01*
X-679551Y10019842D01*
X-682091Y10016388D01*
X-685800Y10014305D01*
X-690067Y10013950D01*
X-694131Y10015372D01*
X-697230Y10018318D01*
X-698144Y10019690D01*
X-704799Y10026650D01*
X-712571Y10032390D01*
X-721207Y10036759D01*
X-730402Y10039553D01*
X-739952Y10040823D01*
X-749604Y10040366D01*
X-759053Y10038334D01*
X-767994Y10034778D01*
X-776224Y10029698D01*
X-783437Y10023348D01*
X-789533Y10015829D01*
X-794207Y10007396D01*
X-797407Y9998303D01*
X-799033Y9988804D01*
X-799033Y9979152D01*
X-797407Y9969652D01*
X-796493Y9967061D01*
X-795934Y9963302D01*
X-796747Y9959594D01*
X-798880Y9956444D01*
X-974140Y9781235D01*
X-979271Y9774986D01*
X-982827Y9768332D01*
X-985012Y9761118D01*
X-985774Y9753092D01*
X-985774Y9281566D01*
X-986688Y9277400D01*
X-989228Y9273946D01*
X-992987Y9271863D01*
G37*

%LPC*%
G36*
X-1012698Y10123373D02*
G01*
X-1004214Y10127742D01*
X-993495Y10135311D01*
X-983945Y10144201D01*
X-975664Y10154361D01*
X-968908Y10165537D01*
X-967689Y10168331D01*
X-1012698Y10168331D01*
G37*
G36*
X-1095349Y10123373D02*
G01*
X-1095349Y10168331D01*
X-1140358Y10168331D01*
X-1139139Y10165537D01*
X-1132382Y10154361D01*
X-1124102Y10144201D01*
X-1114552Y10135311D01*
X-1103833Y10127742D01*
G37*
G36*
X-1012698Y10251033D02*
G01*
X-967689Y10251033D01*
X-968908Y10253776D01*
X-975664Y10264952D01*
X-983945Y10275112D01*
X-993495Y10284053D01*
X-1004214Y10291572D01*
X-1012698Y10295991D01*
G37*
G36*
X-1140358Y10251033D02*
G01*
X-1095349Y10251033D01*
X-1095349Y10295991D01*
X-1103833Y10291572D01*
X-1114552Y10284053D01*
X-1124102Y10275112D01*
X-1132382Y10264952D01*
X-1139139Y10253776D01*
G37*

%LPD*%
G36*
X-824585Y9024162D02*
G01*
X-828446Y9024975D01*
X-831748Y9027160D01*
X-842721Y9038132D01*
X-848969Y9043263D01*
X-855624Y9046819D01*
X-862837Y9049004D01*
X-870864Y9049766D01*
X-875792Y9049766D01*
X-879652Y9050578D01*
X-882954Y9052763D01*
X-887476Y9057284D01*
X-889508Y9060180D01*
X-890422Y9063583D01*
X-891133Y9072016D01*
X-893571Y9081312D01*
X-897534Y9090101D01*
X-902919Y9098127D01*
X-909624Y9105087D01*
X-917397Y9110827D01*
X-925982Y9115145D01*
X-935228Y9117990D01*
X-944778Y9119209D01*
X-954430Y9118803D01*
X-968349Y9115806D01*
X-972210Y9116568D01*
X-975461Y9118803D01*
X-977646Y9122105D01*
X-978408Y9125966D01*
X-977646Y9129826D01*
X-975461Y9133128D01*
X-920242Y9188348D01*
X-915111Y9194546D01*
X-911555Y9201251D01*
X-909370Y9208465D01*
X-908558Y9216491D01*
X-908558Y9733381D01*
X-907796Y9737293D01*
X-905611Y9740544D01*
X-715416Y9930739D01*
X-710590Y9936632D01*
X-708812Y9938359D01*
X-704799Y9941306D01*
X-698144Y9948265D01*
X-697230Y9949637D01*
X-694131Y9952583D01*
X-690067Y9954006D01*
X-685800Y9953650D01*
X-682091Y9951567D01*
X-679551Y9948113D01*
X-678637Y9943947D01*
X-678637Y9779711D01*
X-677824Y9771684D01*
X-675640Y9764471D01*
X-672084Y9757765D01*
X-666953Y9751568D01*
X-438353Y9522917D01*
X-436168Y9519666D01*
X-435406Y9515754D01*
X-435406Y9473641D01*
X-393242Y9473641D01*
X-389382Y9472828D01*
X-386080Y9470644D01*
X43027Y9041536D01*
X45262Y9038234D01*
X46024Y9034322D01*
X45262Y9030462D01*
X43027Y9027160D01*
X39725Y9024975D01*
X35864Y9024162D01*
G37*

%LPC*%
G36*
X-435406Y9095994D02*
G01*
X-432612Y9097213D01*
X-421436Y9104020D01*
X-411276Y9112250D01*
X-402386Y9121800D01*
X-394817Y9132519D01*
X-390448Y9141002D01*
X-435406Y9141002D01*
G37*
G36*
X-518109Y9095994D02*
G01*
X-518109Y9141002D01*
X-563067Y9141002D01*
X-558647Y9132519D01*
X-551129Y9121800D01*
X-542188Y9112250D01*
X-532028Y9104020D01*
X-520852Y9097213D01*
G37*
G36*
X-435406Y9223705D02*
G01*
X-390448Y9223705D01*
X-394817Y9232138D01*
X-402386Y9242856D01*
X-411276Y9252407D01*
X-421436Y9260687D01*
X-432612Y9267494D01*
X-435406Y9268663D01*
G37*
G36*
X-563067Y9223705D02*
G01*
X-518109Y9223705D01*
X-518109Y9268663D01*
X-520852Y9267494D01*
X-532028Y9260687D01*
X-542188Y9252407D01*
X-551129Y9242856D01*
X-558647Y9232138D01*
G37*
G36*
X-435406Y9345930D02*
G01*
X-432612Y9347149D01*
X-421436Y9353956D01*
X-411276Y9362186D01*
X-402386Y9371736D01*
X-394817Y9382455D01*
X-390448Y9390938D01*
X-435406Y9390938D01*
G37*
G36*
X-518109Y9345930D02*
G01*
X-518109Y9390938D01*
X-563067Y9390938D01*
X-558647Y9382455D01*
X-551129Y9371736D01*
X-542188Y9362186D01*
X-532028Y9353956D01*
X-520852Y9347149D01*
G37*
G36*
X-563067Y9473641D02*
G01*
X-518109Y9473641D01*
X-518109Y9518599D01*
X-520852Y9517430D01*
X-532028Y9510623D01*
X-542188Y9502343D01*
X-551129Y9492792D01*
X-558647Y9482074D01*
G37*

%LPD*%
G36*
X926592Y7034479D02*
G01*
X922121Y7034530D01*
X918108Y7036511D01*
X908507Y7044334D01*
X897331Y7051141D01*
X885342Y7056323D01*
X872744Y7059879D01*
X859739Y7061657D01*
X846683Y7061657D01*
X833678Y7059879D01*
X823976Y7057136D01*
X820419Y7056780D01*
X816965Y7057694D01*
X814069Y7059726D01*
X630377Y7243419D01*
X628192Y7246721D01*
X627430Y7250582D01*
X627430Y8012277D01*
X626618Y8020303D01*
X624433Y8027517D01*
X620877Y8034223D01*
X615746Y8040420D01*
X560120Y8096046D01*
X558139Y8098942D01*
X557174Y8102295D01*
X557479Y8105749D01*
X558901Y8108950D01*
X561644Y8113064D01*
X563524Y8117230D01*
X565810Y8120380D01*
X569112Y8122462D01*
X572922Y8123174D01*
X576732Y8122361D01*
X579983Y8120227D01*
X664159Y8036052D01*
X666496Y8032394D01*
X667105Y8028076D01*
X665886Y8023961D01*
X661162Y8015325D01*
X655777Y8001812D01*
X652170Y7987690D01*
X650341Y7973263D01*
X650341Y7958734D01*
X652170Y7944307D01*
X655777Y7930184D01*
X661162Y7916672D01*
X668172Y7903921D01*
X676706Y7892135D01*
X686663Y7881518D01*
X697890Y7872222D01*
X710184Y7864449D01*
X723341Y7858252D01*
X737209Y7853730D01*
X751484Y7851038D01*
X766013Y7850124D01*
X780542Y7851038D01*
X794816Y7853730D01*
X808685Y7858252D01*
X821842Y7864449D01*
X834136Y7872222D01*
X845362Y7881518D01*
X855319Y7892135D01*
X863853Y7903921D01*
X870864Y7916672D01*
X876249Y7930184D01*
X879856Y7944307D01*
X881684Y7958734D01*
X881684Y7973263D01*
X879856Y7987690D01*
X876249Y8001812D01*
X870864Y8015325D01*
X863853Y8028076D01*
X855319Y8039862D01*
X845362Y8050479D01*
X834136Y8059775D01*
X821842Y8067548D01*
X808685Y8073745D01*
X794816Y8078266D01*
X780542Y8080959D01*
X766013Y8081873D01*
X751484Y8080959D01*
X737412Y8078266D01*
X734110Y8078216D01*
X730961Y8079181D01*
X728319Y8081060D01*
X382574Y8426805D01*
X380441Y8429955D01*
X379577Y8433663D01*
X380187Y8437422D01*
X381152Y8440115D01*
X383794Y8452916D01*
X384708Y8465972D01*
X383794Y8479028D01*
X381152Y8491829D01*
X376732Y8504174D01*
X370738Y8515807D01*
X363169Y8526475D01*
X354279Y8536076D01*
X344119Y8544306D01*
X332943Y8551113D01*
X320903Y8556345D01*
X308305Y8559850D01*
X295351Y8561628D01*
X282244Y8561628D01*
X269290Y8559850D01*
X256692Y8556345D01*
X244703Y8551113D01*
X233527Y8544306D01*
X223367Y8536076D01*
X214426Y8526475D01*
X206908Y8515807D01*
X203911Y8510066D01*
X201676Y8507171D01*
X198526Y8505240D01*
X194919Y8504580D01*
X130200Y8504580D01*
X126339Y8505342D01*
X123037Y8507577D01*
X110896Y8519668D01*
X108864Y8522563D01*
X107950Y8526018D01*
X107238Y8534400D01*
X104851Y8543696D01*
X100838Y8552484D01*
X95453Y8560511D01*
X88798Y8567470D01*
X81026Y8573211D01*
X72390Y8577529D01*
X63195Y8580374D01*
X53644Y8581593D01*
X43992Y8581186D01*
X34544Y8579154D01*
X23114Y8574481D01*
X20421Y8574125D01*
X-12141Y8574125D01*
X-12141Y8541207D01*
X-10363Y8540597D01*
X-7264Y8537905D01*
X-5537Y8534196D01*
X-5435Y8519972D01*
X-3810Y8510422D01*
X-2590Y8506917D01*
X-2032Y8503056D01*
X-2946Y8499246D01*
X-5181Y8496096D01*
X-8483Y8494014D01*
X-12293Y8493353D01*
X-16103Y8494166D01*
X-19354Y8496350D01*
X-23622Y8500567D01*
X-29819Y8505698D01*
X-36525Y8509254D01*
X-43738Y8511438D01*
X-51765Y8512251D01*
X-150164Y8512251D01*
X-154076Y8513013D01*
X-157378Y8515248D01*
X-159562Y8518499D01*
X-160324Y8522411D01*
X-159562Y8526322D01*
X-157378Y8529574D01*
X-104648Y8582304D01*
X-101295Y8584539D01*
X-98298Y8585098D01*
X-97688Y8588197D01*
X-95504Y8591499D01*
X-72085Y8614867D01*
X-68783Y8617051D01*
X-64922Y8617813D01*
X-55829Y8617813D01*
X-55829Y8626906D01*
X-55067Y8630818D01*
X-52882Y8634120D01*
X-30784Y8656167D01*
X-27533Y8658352D01*
X-22453Y8659164D01*
X-18491Y8658453D01*
X-15189Y8656218D01*
X-12903Y8652916D01*
X-12141Y8649004D01*
X-12141Y8617813D01*
X18338Y8617813D01*
X15646Y8623706D01*
X10261Y8631732D01*
X3606Y8638692D01*
X-8331Y8647582D01*
X-10210Y8651646D01*
X-10210Y8656066D01*
X-8331Y8660079D01*
X-4876Y8662924D01*
X4216Y8667546D01*
X11988Y8673287D01*
X18694Y8680246D01*
X24079Y8688222D01*
X28041Y8697010D01*
X30480Y8706358D01*
X31292Y8715959D01*
X30480Y8725560D01*
X28041Y8734907D01*
X24079Y8743696D01*
X18694Y8751671D01*
X11988Y8758631D01*
X4216Y8764371D01*
X-4368Y8768740D01*
X-8686Y8770061D01*
X-12293Y8772042D01*
X-14833Y8775293D01*
X-15849Y8779256D01*
X-15240Y8783320D01*
X-13055Y8786774D01*
X-9753Y8790279D01*
X-4318Y8798255D01*
X-1676Y8804148D01*
X-32156Y8804148D01*
X-32156Y8780729D01*
X-32715Y8777325D01*
X-34391Y8774328D01*
X-36982Y8772042D01*
X-42214Y8770315D01*
X-51155Y8766759D01*
X-59588Y8761526D01*
X-66852Y8755075D01*
X-72593Y8747912D01*
X-76149Y8745118D01*
X-80518Y8744153D01*
X-102158Y8744153D01*
X-102158Y8716010D01*
X-99161Y8712758D01*
X-97840Y8708593D01*
X-97434Y8703868D01*
X-97993Y8699500D01*
X-100380Y8695791D01*
X-119075Y8677097D01*
X-122326Y8674912D01*
X-126237Y8674150D01*
X-152146Y8674150D01*
X-152146Y8648242D01*
X-152908Y8644331D01*
X-155092Y8641029D01*
X-199034Y8597087D01*
X-202336Y8594902D01*
X-206248Y8594140D01*
X-232156Y8594140D01*
X-232156Y8568232D01*
X-232917Y8564321D01*
X-235102Y8561070D01*
X-238556Y8557564D01*
X-241858Y8555380D01*
X-245770Y8554618D01*
X-265684Y8554618D01*
X-269544Y8555380D01*
X-272846Y8557564D01*
X-275082Y8560866D01*
X-275844Y8564778D01*
X-275844Y8594140D01*
X-306374Y8594140D01*
X-305816Y8592566D01*
X-301091Y8584133D01*
X-295046Y8576614D01*
X-290220Y8572398D01*
X-287782Y8569147D01*
X-286766Y8565184D01*
X-287426Y8561171D01*
X-289610Y8557717D01*
X-292963Y8555431D01*
X-296926Y8554618D01*
X-793902Y8554618D01*
X-797560Y8555278D01*
X-800760Y8557260D01*
X-802995Y8560257D01*
X-807262Y8568944D01*
X-814984Y8580424D01*
X-824128Y8590838D01*
X-834542Y8599982D01*
X-846023Y8607704D01*
X-858469Y8613800D01*
X-871575Y8618270D01*
X-885139Y8620963D01*
X-898956Y8621877D01*
X-912825Y8620963D01*
X-926388Y8618270D01*
X-939495Y8613800D01*
X-951941Y8607704D01*
X-963421Y8599982D01*
X-973836Y8590838D01*
X-982980Y8580424D01*
X-990701Y8568944D01*
X-996797Y8556498D01*
X-1001268Y8543391D01*
X-1003960Y8529828D01*
X-1004874Y8515959D01*
X-1003960Y8501938D01*
X-1004569Y8497722D01*
X-1006906Y8494115D01*
X-1088136Y8412886D01*
X-1091438Y8410651D01*
X-1095349Y8409889D01*
X-1184097Y8409889D01*
X-1188313Y8410803D01*
X-1191717Y8413343D01*
X-1193800Y8417102D01*
X-1194155Y8421370D01*
X-1192733Y8425434D01*
X-1189736Y8428482D01*
X-1184554Y8431987D01*
X-1174140Y8441131D01*
X-1164996Y8451545D01*
X-1157274Y8463026D01*
X-1154023Y8469630D01*
X-1202639Y8469630D01*
X-1202639Y8420049D01*
X-1203401Y8416137D01*
X-1205636Y8412886D01*
X-1208938Y8410651D01*
X-1212799Y8409889D01*
X-1285189Y8409889D01*
X-1289050Y8410651D01*
X-1292352Y8412886D01*
X-1294587Y8416137D01*
X-1295349Y8420049D01*
X-1295349Y8469630D01*
X-1345082Y8469630D01*
X-1348994Y8470392D01*
X-1352296Y8472627D01*
X-1699768Y8819896D01*
X-1705965Y8824976D01*
X-1712671Y8828532D01*
X-1719884Y8830716D01*
X-1727911Y8831529D01*
X-1952955Y8831529D01*
X-1956460Y8832189D01*
X-1959610Y8834018D01*
X-1961845Y8836812D01*
X-1967941Y8847937D01*
X-1976018Y8858910D01*
X-1985518Y8868714D01*
X-1996186Y8877147D01*
X-2012442Y8886850D01*
X-2014626Y8890101D01*
X-2015388Y8893962D01*
X-2015388Y8969654D01*
X-2014626Y8973566D01*
X-2012391Y8976868D01*
X-1693976Y9295282D01*
X-1690878Y9297416D01*
X-1687271Y9298228D01*
X-1683562Y9297720D01*
X-1674368Y9294622D01*
X-1660804Y9291929D01*
X-1646986Y9291015D01*
X-1633169Y9291929D01*
X-1619605Y9294622D01*
X-1606448Y9299041D01*
X-1594053Y9305188D01*
X-1582521Y9312859D01*
X-1572107Y9322003D01*
X-1562963Y9332417D01*
X-1555292Y9343948D01*
X-1549146Y9356344D01*
X-1544726Y9369501D01*
X-1541983Y9383064D01*
X-1541119Y9396882D01*
X-1541983Y9410700D01*
X-1544726Y9424314D01*
X-1549146Y9437420D01*
X-1555292Y9449816D01*
X-1562963Y9461347D01*
X-1572107Y9471761D01*
X-1582521Y9480905D01*
X-1594053Y9488576D01*
X-1606448Y9494723D01*
X-1619605Y9499142D01*
X-1633169Y9501886D01*
X-1646986Y9502749D01*
X-1660804Y9501886D01*
X-1674368Y9499142D01*
X-1687525Y9494723D01*
X-1699920Y9488576D01*
X-1711452Y9480905D01*
X-1721866Y9471761D01*
X-1731010Y9461347D01*
X-1738680Y9449816D01*
X-1744827Y9437420D01*
X-1749247Y9424314D01*
X-1751990Y9410700D01*
X-1752854Y9396882D01*
X-1751990Y9383064D01*
X-1749247Y9369501D01*
X-1746148Y9360306D01*
X-1745640Y9356598D01*
X-1746453Y9352991D01*
X-1748586Y9349892D01*
X-2080920Y9017508D01*
X-2086051Y9011310D01*
X-2089607Y9004604D01*
X-2091791Y8997391D01*
X-2092604Y8989364D01*
X-2092604Y8893962D01*
X-2093366Y8890101D01*
X-2095550Y8886850D01*
X-2111756Y8877147D01*
X-2122474Y8868714D01*
X-2131923Y8858910D01*
X-2140051Y8847937D01*
X-2146604Y8835948D01*
X-2151481Y8823248D01*
X-2154631Y8809939D01*
X-2156002Y8796375D01*
X-2155545Y8782761D01*
X-2153310Y8769299D01*
X-2149246Y8756294D01*
X-2143506Y8743899D01*
X-2136190Y8732418D01*
X-2127351Y8722004D01*
X-2117242Y8712860D01*
X-2106015Y8705138D01*
X-2093823Y8698992D01*
X-2080971Y8694521D01*
X-2067610Y8691829D01*
X-2053996Y8690914D01*
X-2040382Y8691829D01*
X-2027021Y8694521D01*
X-2014118Y8698992D01*
X-2001977Y8705138D01*
X-1990699Y8712860D01*
X-1980590Y8722004D01*
X-1971802Y8732418D01*
X-1964436Y8743899D01*
X-1962353Y8748420D01*
X-1960118Y8751519D01*
X-1956917Y8753602D01*
X-1953158Y8754313D01*
X-1747570Y8754313D01*
X-1743710Y8753551D01*
X-1740407Y8751316D01*
X-1333144Y8344306D01*
X-1326946Y8339226D01*
X-1320241Y8335670D01*
X-1313027Y8333486D01*
X-1305001Y8332673D01*
X-1075639Y8332673D01*
X-1067612Y8333486D01*
X-1060399Y8335670D01*
X-1053693Y8339226D01*
X-1047496Y8344357D01*
X-967181Y8424621D01*
X-964336Y8426653D01*
X-960983Y8427567D01*
X-957529Y8427313D01*
X-954328Y8425891D01*
X-951941Y8424265D01*
X-939495Y8418169D01*
X-926388Y8413699D01*
X-912825Y8411006D01*
X-898956Y8410092D01*
X-894232Y8410397D01*
X-890117Y8409838D01*
X-886612Y8407704D01*
X-884224Y8404301D01*
X-883412Y8400288D01*
X-883412Y8067497D01*
X-884326Y8063280D01*
X-886917Y8059826D01*
X-890727Y8057743D01*
X-895045Y8057489D01*
X-899109Y8059013D01*
X-902766Y8063077D01*
X-906881Y8067192D01*
X-911758Y8070291D01*
X-917244Y8072170D01*
X-923544Y8072881D01*
X-961644Y8072881D01*
X-961644Y8008315D01*
X-893571Y8008315D01*
X-889660Y8007553D01*
X-886358Y8005368D01*
X-884174Y8002066D01*
X-883412Y7998155D01*
X-883412Y7915808D01*
X-884174Y7911896D01*
X-886358Y7908594D01*
X-889660Y7906410D01*
X-893571Y7905648D01*
X-961644Y7905648D01*
X-961644Y7841081D01*
X-923544Y7841081D01*
X-917244Y7841792D01*
X-911758Y7843723D01*
X-906881Y7846771D01*
X-902766Y7850886D01*
X-899109Y7854950D01*
X-895045Y7856524D01*
X-890727Y7856220D01*
X-886917Y7854137D01*
X-884326Y7850682D01*
X-883412Y7846466D01*
X-883412Y7367371D01*
X-884174Y7363510D01*
X-886358Y7360208D01*
X-947318Y7299248D01*
X-950976Y7296912D01*
X-955243Y7296302D01*
X-959408Y7297521D01*
X-963625Y7299858D01*
X-977188Y7305192D01*
X-991260Y7308799D01*
X-1005687Y7310628D01*
X-1020267Y7310628D01*
X-1034694Y7308799D01*
X-1048816Y7305192D01*
X-1056792Y7302042D01*
X-1060653Y7301331D01*
X-1064463Y7302093D01*
X-1067714Y7304278D01*
X-1206347Y7442962D01*
X-1212596Y7448042D01*
X-1219250Y7451598D01*
X-1226464Y7453833D01*
X-1234490Y7454595D01*
X-1987956Y7454595D01*
X-1991918Y7455408D01*
X-1995220Y7457643D01*
X-1997405Y7460996D01*
X-1999132Y7465364D01*
X-2006142Y7478115D01*
X-2014677Y7489850D01*
X-2024634Y7500467D01*
X-2035860Y7509764D01*
X-2048154Y7517536D01*
X-2061311Y7523734D01*
X-2075180Y7528255D01*
X-2089454Y7530998D01*
X-2103983Y7531912D01*
X-2118512Y7530998D01*
X-2132787Y7528255D01*
X-2146655Y7523734D01*
X-2159812Y7517536D01*
X-2172106Y7509764D01*
X-2183333Y7500467D01*
X-2186432Y7497165D01*
X-2189683Y7494828D01*
X-2193594Y7493965D01*
X-2197557Y7494676D01*
X-2200910Y7496860D01*
X-2203196Y7500213D01*
X-2203958Y7504125D01*
X-2203958Y7827873D01*
X-2203196Y7831785D01*
X-2200910Y7835138D01*
X-2197557Y7837322D01*
X-2193594Y7838033D01*
X-2189683Y7837170D01*
X-2186432Y7834833D01*
X-2183333Y7831531D01*
X-2172106Y7822234D01*
X-2159812Y7814462D01*
X-2146655Y7808264D01*
X-2132787Y7803743D01*
X-2118512Y7801000D01*
X-2103983Y7800086D01*
X-2089454Y7801000D01*
X-2075180Y7803743D01*
X-2061311Y7808264D01*
X-2056638Y7809534D01*
X-2052574Y7808823D01*
X-2049170Y7806537D01*
X-1972411Y7729829D01*
X-1966214Y7724749D01*
X-1959559Y7721142D01*
X-1952294Y7718958D01*
X-1944268Y7718196D01*
X-1434084Y7718196D01*
X-1426057Y7718958D01*
X-1418844Y7721142D01*
X-1412189Y7724749D01*
X-1405940Y7729829D01*
X-1295704Y7840065D01*
X-1293215Y7841894D01*
X-1290320Y7842910D01*
X-1287221Y7842961D01*
X-1274267Y7841335D01*
X-1259687Y7841335D01*
X-1245260Y7843164D01*
X-1231188Y7846771D01*
X-1217625Y7852105D01*
X-1204874Y7859115D01*
X-1193139Y7867700D01*
X-1182522Y7877657D01*
X-1173226Y7888884D01*
X-1165453Y7901178D01*
X-1159256Y7914335D01*
X-1154734Y7928152D01*
X-1151991Y7942478D01*
X-1151077Y7957007D01*
X-1151991Y7971536D01*
X-1154734Y7985810D01*
X-1159256Y7999628D01*
X-1165453Y8012836D01*
X-1173226Y8025079D01*
X-1182522Y8036306D01*
X-1193139Y8046262D01*
X-1204874Y8054848D01*
X-1217625Y8061858D01*
X-1231188Y8067192D01*
X-1245260Y8070799D01*
X-1259687Y8072628D01*
X-1274267Y8072628D01*
X-1288694Y8070799D01*
X-1302816Y8067192D01*
X-1316329Y8061858D01*
X-1329080Y8054848D01*
X-1340866Y8046262D01*
X-1351483Y8036306D01*
X-1360728Y8025079D01*
X-1368552Y8012836D01*
X-1374749Y7999628D01*
X-1379220Y7985810D01*
X-1381963Y7971536D01*
X-1382877Y7957007D01*
X-1381963Y7942478D01*
X-1379220Y7928152D01*
X-1374749Y7914335D01*
X-1368552Y7901178D01*
X-1363319Y7892897D01*
X-1361998Y7889748D01*
X-1361795Y7886344D01*
X-1362710Y7883042D01*
X-1364691Y7880299D01*
X-1446580Y7798358D01*
X-1449882Y7796174D01*
X-1453794Y7795412D01*
X-1924557Y7795412D01*
X-1928469Y7796174D01*
X-1931771Y7798358D01*
X-1994662Y7861300D01*
X-1996846Y7864500D01*
X-1997659Y7868361D01*
X-1996948Y7872222D01*
X-1993747Y7880197D01*
X-1990140Y7894269D01*
X-1988312Y7908747D01*
X-1988312Y7923275D01*
X-1990140Y7937703D01*
X-1993747Y7951825D01*
X-1999132Y7965338D01*
X-2006142Y7978089D01*
X-2014677Y7989874D01*
X-2024634Y8000492D01*
X-2035860Y8009737D01*
X-2048154Y8017560D01*
X-2061311Y8023758D01*
X-2075180Y8028228D01*
X-2089454Y8030972D01*
X-2103983Y8031886D01*
X-2118512Y8030972D01*
X-2132787Y8028228D01*
X-2146655Y8023758D01*
X-2159812Y8017560D01*
X-2172106Y8009737D01*
X-2183333Y8000492D01*
X-2186432Y7997190D01*
X-2189683Y7994853D01*
X-2193594Y7993989D01*
X-2197557Y7994700D01*
X-2200910Y7996885D01*
X-2203196Y8000187D01*
X-2203958Y8004149D01*
X-2203958Y8117027D01*
X-2203196Y8120989D01*
X-2200910Y8124342D01*
X-2197455Y8126475D01*
X-2193493Y8127187D01*
X-2189530Y8126222D01*
X-2177694Y8120735D01*
X-2164638Y8116671D01*
X-2151176Y8114436D01*
X-2137562Y8113979D01*
X-2123998Y8115300D01*
X-2110740Y8118500D01*
X-2097989Y8123377D01*
X-2086051Y8129930D01*
X-2075078Y8138007D01*
X-2065274Y8147507D01*
X-2056841Y8158225D01*
X-2049881Y8169960D01*
X-2044547Y8182508D01*
X-2040940Y8195665D01*
X-2039112Y8209178D01*
X-2039112Y8222792D01*
X-2040940Y8236305D01*
X-2044547Y8249462D01*
X-2049881Y8262010D01*
X-2056841Y8273745D01*
X-2065274Y8284464D01*
X-2075078Y8293963D01*
X-2086051Y8302040D01*
X-2097989Y8308594D01*
X-2110740Y8313470D01*
X-2123998Y8316671D01*
X-2137562Y8317992D01*
X-2151176Y8317534D01*
X-2164638Y8315299D01*
X-2177694Y8311235D01*
X-2189530Y8305749D01*
X-2193493Y8304784D01*
X-2197455Y8305495D01*
X-2200910Y8307628D01*
X-2203196Y8310981D01*
X-2203958Y8314944D01*
X-2203958Y9241942D01*
X-2203399Y9245346D01*
X-2201672Y9248394D01*
X-2199081Y9250629D01*
X-2195830Y9251899D01*
X-2195830Y9284309D01*
X-2199081Y9285579D01*
X-2201672Y9287865D01*
X-2203399Y9290862D01*
X-2203958Y9294317D01*
X-2203958Y9317685D01*
X-2203399Y9321088D01*
X-2201672Y9324086D01*
X-2199081Y9326372D01*
X-2195830Y9327642D01*
X-2195830Y9360052D01*
X-2199081Y9361322D01*
X-2201672Y9363608D01*
X-2203399Y9366605D01*
X-2203958Y9370009D01*
X-2203958Y11967921D01*
X-2203196Y11971832D01*
X-2200960Y11975134D01*
X-2197608Y11977319D01*
X-2195322Y11977776D01*
X-2195322Y12024715D01*
X-2198725Y12025884D01*
X-2201519Y12028170D01*
X-2203348Y12031268D01*
X-2203958Y12034774D01*
X-2203958Y12097156D01*
X-2203348Y12100712D01*
X-2201519Y12103811D01*
X-2198725Y12106046D01*
X-2195322Y12107214D01*
X-2195322Y12154204D01*
X-2197608Y12154611D01*
X-2200960Y12156795D01*
X-2203196Y12160148D01*
X-2203958Y12164060D01*
X-2203958Y12303150D01*
X-2203094Y12307316D01*
X-2200554Y12310770D01*
X-2196846Y12312853D01*
X-2192629Y12313259D01*
X-2188616Y12311888D01*
X-2186635Y12310719D01*
X-2170226Y12303048D01*
X-2153158Y12297054D01*
X-2135530Y12292939D01*
X-2117547Y12290602D01*
X-2099462Y12290145D01*
X-2081377Y12291517D01*
X-2063597Y12294768D01*
X-2046173Y12299848D01*
X-2029409Y12306655D01*
X-2013457Y12315190D01*
X-1998421Y12325299D01*
X-1984502Y12336881D01*
X-1971852Y12349835D01*
X-1960625Y12364059D01*
X-1950923Y12379350D01*
X-1942795Y12395504D01*
X-1936445Y12412472D01*
X-1931822Y12429998D01*
X-1929028Y12447879D01*
X-1928114Y12465964D01*
X-1929028Y12484049D01*
X-1931822Y12501930D01*
X-1936445Y12519456D01*
X-1942795Y12536424D01*
X-1950923Y12552578D01*
X-1960625Y12567869D01*
X-1971852Y12582093D01*
X-1984502Y12595047D01*
X-1998421Y12606629D01*
X-2013457Y12616738D01*
X-2029409Y12625273D01*
X-2046173Y12632080D01*
X-2063597Y12637160D01*
X-2081377Y12640411D01*
X-2099462Y12641783D01*
X-2117547Y12641326D01*
X-2135530Y12638989D01*
X-2153158Y12634874D01*
X-2170226Y12628880D01*
X-2186635Y12621209D01*
X-2188616Y12620040D01*
X-2192629Y12618669D01*
X-2196846Y12619075D01*
X-2200554Y12621158D01*
X-2203094Y12624612D01*
X-2203958Y12628778D01*
X-2203958Y12810998D01*
X-2203500Y12814046D01*
X-2202180Y12816789D01*
X-2200046Y12819024D01*
X-2057958Y12929819D01*
X-2055012Y12931394D01*
X-2051659Y12931952D01*
X-2033066Y12931851D01*
X-2028850Y12930936D01*
X-2025396Y12928346D01*
X-2023364Y12924536D01*
X-2023059Y12920268D01*
X-2024532Y12916255D01*
X-2025294Y12915036D01*
X-2031034Y12902641D01*
X-2035098Y12889636D01*
X-2037334Y12876174D01*
X-2037791Y12862560D01*
X-2036470Y12848996D01*
X-2033270Y12835737D01*
X-2028393Y12822986D01*
X-2021839Y12811048D01*
X-2013762Y12800076D01*
X-2004263Y12790271D01*
X-1993544Y12781788D01*
X-1981809Y12774879D01*
X-1969262Y12769545D01*
X-1956104Y12765938D01*
X-1942592Y12764109D01*
X-1928977Y12764109D01*
X-1915464Y12765938D01*
X-1902307Y12769545D01*
X-1889760Y12774879D01*
X-1878025Y12781788D01*
X-1867306Y12790271D01*
X-1857806Y12800076D01*
X-1849729Y12811048D01*
X-1843176Y12822986D01*
X-1838299Y12835737D01*
X-1835099Y12848996D01*
X-1833778Y12862560D01*
X-1834235Y12876174D01*
X-1836470Y12889636D01*
X-1840534Y12902641D01*
X-1846376Y12915188D01*
X-1847850Y12919252D01*
X-1847545Y12923570D01*
X-1845462Y12927380D01*
X-1842007Y12929920D01*
X-1837740Y12930835D01*
X-1786737Y12930581D01*
X-1782775Y12929717D01*
X-1779473Y12927431D01*
X-1777288Y12924028D01*
X-1776628Y12920014D01*
X-1777593Y12916103D01*
X-1783892Y12902641D01*
X-1787956Y12889636D01*
X-1790192Y12876174D01*
X-1790649Y12862560D01*
X-1789328Y12848996D01*
X-1786128Y12835737D01*
X-1781251Y12822986D01*
X-1774698Y12811048D01*
X-1766620Y12800076D01*
X-1757121Y12790271D01*
X-1746402Y12781788D01*
X-1734667Y12774879D01*
X-1722120Y12769545D01*
X-1708962Y12765938D01*
X-1695450Y12764109D01*
X-1681835Y12764109D01*
X-1668322Y12765938D01*
X-1655165Y12769545D01*
X-1642618Y12774879D01*
X-1630883Y12781788D01*
X-1620164Y12790271D01*
X-1610664Y12800076D01*
X-1602587Y12811048D01*
X-1596034Y12822986D01*
X-1591157Y12835737D01*
X-1587957Y12848996D01*
X-1586636Y12862560D01*
X-1587093Y12876174D01*
X-1589328Y12889636D01*
X-1592478Y12899796D01*
X-1592935Y12903403D01*
X-1592072Y12906959D01*
X-1589989Y12910007D01*
X-1573530Y12926415D01*
X-1570177Y12928650D01*
X-1566265Y12929412D01*
X-1533448Y12929260D01*
X-1529486Y12928396D01*
X-1526184Y12926110D01*
X-1524000Y12922707D01*
X-1523339Y12918744D01*
X-1524254Y12914782D01*
X-1529892Y12902641D01*
X-1533956Y12889636D01*
X-1536192Y12876174D01*
X-1536649Y12862560D01*
X-1535328Y12848996D01*
X-1532128Y12835737D01*
X-1527251Y12822986D01*
X-1520698Y12811048D01*
X-1512620Y12800076D01*
X-1503121Y12790271D01*
X-1492402Y12781788D01*
X-1480667Y12774879D01*
X-1468120Y12769545D01*
X-1454962Y12765938D01*
X-1441450Y12764109D01*
X-1427835Y12764109D01*
X-1414322Y12765938D01*
X-1401165Y12769545D01*
X-1388618Y12774879D01*
X-1376883Y12781788D01*
X-1366164Y12790271D01*
X-1356664Y12800076D01*
X-1348587Y12811048D01*
X-1342034Y12822986D01*
X-1337157Y12835737D01*
X-1333957Y12848996D01*
X-1332636Y12862560D01*
X-1333093Y12876174D01*
X-1335328Y12889636D01*
X-1339392Y12902641D01*
X-1344523Y12913766D01*
X-1345488Y12917728D01*
X-1344777Y12921691D01*
X-1342593Y12925145D01*
X-1339240Y12927431D01*
X-1335278Y12928193D01*
X-1280058Y12927888D01*
X-1276096Y12927076D01*
X-1272794Y12924790D01*
X-1270609Y12921386D01*
X-1269949Y12917424D01*
X-1270914Y12913461D01*
X-1272286Y12910413D01*
X-1225092Y12910413D01*
X-1225092Y12917424D01*
X-1224330Y12921284D01*
X-1222095Y12924637D01*
X-1218793Y12926822D01*
X-1214882Y12927584D01*
X-1146302Y12927228D01*
X-1142441Y12926415D01*
X-1139139Y12924231D01*
X-1136954Y12920929D01*
X-1136192Y12917068D01*
X-1136192Y12910413D01*
X-1088999Y12910413D01*
X-1089914Y12912445D01*
X-1090828Y12916357D01*
X-1090168Y12920370D01*
X-1087983Y12923774D01*
X-1084630Y12926060D01*
X-1080617Y12926872D01*
X-1026668Y12926568D01*
X-1022705Y12925755D01*
X-1019403Y12923469D01*
X-1017219Y12920065D01*
X-1016558Y12916052D01*
X-1017524Y12912140D01*
X-1021892Y12902641D01*
X-1025956Y12889636D01*
X-1028192Y12876174D01*
X-1028649Y12862560D01*
X-1027328Y12848996D01*
X-1024128Y12835737D01*
X-1019251Y12822986D01*
X-1012698Y12811048D01*
X-1004620Y12800076D01*
X-995121Y12790271D01*
X-984402Y12781788D01*
X-972667Y12774879D01*
X-960119Y12769545D01*
X-946962Y12765938D01*
X-933450Y12764109D01*
X-919835Y12764109D01*
X-906322Y12765938D01*
X-893165Y12769545D01*
X-880618Y12774879D01*
X-868883Y12781788D01*
X-858164Y12790271D01*
X-848664Y12800076D01*
X-840587Y12811048D01*
X-834034Y12822986D01*
X-829157Y12835737D01*
X-825957Y12848996D01*
X-824636Y12862560D01*
X-825093Y12876174D01*
X-827328Y12889636D01*
X-831392Y12902641D01*
X-835304Y12911074D01*
X-836218Y12915036D01*
X-835558Y12919049D01*
X-833374Y12922453D01*
X-830021Y12924739D01*
X-826008Y12925552D01*
X-53543Y12921488D01*
X-49682Y12920675D01*
X-46380Y12918490D01*
X-44196Y12915188D01*
X-43434Y12911328D01*
X-43434Y12783972D01*
X-42722Y12777673D01*
X-40843Y12772237D01*
X-37744Y12767310D01*
X-33629Y12763246D01*
X-28752Y12760147D01*
X-23266Y12758216D01*
X-16967Y12757505D01*
X147015Y12757505D01*
X153314Y12758216D01*
X158750Y12760147D01*
X163677Y12763246D01*
X167741Y12767310D01*
X170840Y12772237D01*
X172770Y12777673D01*
X173482Y12783972D01*
X173482Y12910058D01*
X174244Y12913969D01*
X176479Y12917271D01*
X179781Y12919456D01*
X183692Y12920218D01*
X206095Y12920116D01*
X209956Y12919354D01*
X213258Y12917119D01*
X215392Y12914985D01*
X217525Y12911886D01*
X218338Y12908229D01*
X217830Y12904520D01*
X214274Y12894056D01*
X211480Y12880136D01*
X210566Y12865963D01*
X211480Y12851841D01*
X214274Y12837922D01*
X218846Y12824460D01*
X225094Y12811760D01*
X232968Y12799974D01*
X242316Y12789306D01*
X252984Y12779959D01*
X264769Y12772085D01*
X274726Y12767157D01*
X277723Y12764922D01*
X279704Y12761722D01*
X280416Y12758064D01*
X280416Y12703962D01*
X279603Y12700101D01*
X277418Y12696799D01*
X126644Y12546025D01*
X121564Y12539776D01*
X118008Y12533122D01*
X115773Y12525908D01*
X115011Y12517882D01*
X115011Y12169495D01*
X114147Y12165431D01*
X111810Y12162078D01*
X108305Y12159894D01*
X104241Y12159335D01*
X100279Y12160402D01*
X97993Y12161520D01*
X88798Y12164364D01*
X79248Y12165584D01*
X69596Y12165177D01*
X60147Y12163145D01*
X51206Y12159538D01*
X42976Y12154509D01*
X37795Y12149937D01*
X34696Y12148058D01*
X31089Y12147397D01*
X-793089Y12147397D01*
X-801116Y12146584D01*
X-808329Y12144400D01*
X-814984Y12140844D01*
X-821232Y12135713D01*
X-1486154Y11470843D01*
X-1491234Y11464594D01*
X-1494790Y11457940D01*
X-1497025Y11450726D01*
X-1497787Y11442700D01*
X-1497787Y10112908D01*
X-1498549Y10108996D01*
X-1500784Y10105694D01*
X-1599996Y10006482D01*
X-1603044Y10004399D01*
X-1606702Y10003536D01*
X-1610410Y10004044D01*
X-1619605Y10007142D01*
X-1633169Y10009886D01*
X-1646986Y10010749D01*
X-1660804Y10009886D01*
X-1674368Y10007142D01*
X-1687525Y10002723D01*
X-1699920Y9996576D01*
X-1711452Y9988905D01*
X-1721866Y9979761D01*
X-1731010Y9969347D01*
X-1738680Y9957816D01*
X-1744827Y9945420D01*
X-1749247Y9932314D01*
X-1751990Y9918700D01*
X-1752854Y9904882D01*
X-1751990Y9891064D01*
X-1749247Y9877501D01*
X-1744827Y9864344D01*
X-1738680Y9851948D01*
X-1731010Y9840417D01*
X-1721866Y9830003D01*
X-1711452Y9820859D01*
X-1699920Y9813188D01*
X-1687525Y9807041D01*
X-1674368Y9802622D01*
X-1660804Y9799929D01*
X-1646986Y9799015D01*
X-1633169Y9799929D01*
X-1619605Y9802622D01*
X-1606448Y9807041D01*
X-1594053Y9813188D01*
X-1582521Y9820859D01*
X-1572107Y9830003D01*
X-1562963Y9840417D01*
X-1555292Y9851948D01*
X-1549146Y9864344D01*
X-1544726Y9877501D01*
X-1541983Y9891064D01*
X-1541119Y9904882D01*
X-1541983Y9918700D01*
X-1544726Y9932314D01*
X-1547825Y9941458D01*
X-1548333Y9945166D01*
X-1547469Y9948824D01*
X-1545386Y9951872D01*
X-1432255Y10065054D01*
X-1427124Y10071252D01*
X-1423568Y10077907D01*
X-1421384Y10085171D01*
X-1420571Y10093198D01*
X-1420571Y11422989D01*
X-1419809Y11426850D01*
X-1417624Y11430152D01*
X-1398371Y11449405D01*
X-1395222Y11451539D01*
X-1391513Y11452352D01*
X-1387754Y11451742D01*
X-1384503Y11449812D01*
X-1337818Y11449812D01*
X-1337818Y11495887D01*
X-1339951Y11499189D01*
X-1340662Y11502999D01*
X-1339850Y11506860D01*
X-1337665Y11510060D01*
X-780592Y12067184D01*
X-777290Y12069419D01*
X-773379Y12070181D01*
X-654608Y12070181D01*
X-650595Y12069368D01*
X-647242Y12067032D01*
X-645058Y12063577D01*
X-644448Y12059564D01*
X-645414Y12055652D01*
X-647852Y12052401D01*
X-655421Y12045746D01*
X-661517Y12038228D01*
X-666191Y12029795D01*
X-669391Y12020702D01*
X-671017Y12011202D01*
X-671017Y12001550D01*
X-669391Y11992051D01*
X-666191Y11982958D01*
X-661517Y11974525D01*
X-655421Y11967006D01*
X-648208Y11960656D01*
X-639978Y11955576D01*
X-631037Y11952020D01*
X-621588Y11949988D01*
X-616153Y11949734D01*
X-612495Y11948871D01*
X-609396Y11946788D01*
X-476758Y11814149D01*
X-474573Y11810847D01*
X-473811Y11806986D01*
X-473811Y11473942D01*
X-474624Y11469928D01*
X-476910Y11466626D01*
X-480314Y11464442D01*
X-484327Y11463782D01*
X-488289Y11464747D01*
X-491540Y11467134D01*
X-497840Y11474196D01*
X-506933Y11481765D01*
X-516991Y11487912D01*
X-527862Y11492534D01*
X-539292Y11495532D01*
X-551027Y11496802D01*
X-562813Y11496395D01*
X-574446Y11494211D01*
X-585622Y11490401D01*
X-596138Y11485016D01*
X-605739Y11478158D01*
X-614222Y11469928D01*
X-621436Y11460581D01*
X-627227Y11450320D01*
X-631444Y11439296D01*
X-633984Y11427764D01*
X-634847Y11415979D01*
X-633984Y11404193D01*
X-631444Y11392662D01*
X-627227Y11381638D01*
X-621436Y11371376D01*
X-614222Y11362029D01*
X-605739Y11353800D01*
X-596138Y11346942D01*
X-585622Y11341557D01*
X-574446Y11337747D01*
X-562813Y11335562D01*
X-551027Y11335156D01*
X-539292Y11336426D01*
X-527862Y11339423D01*
X-516991Y11344046D01*
X-506933Y11350193D01*
X-497840Y11357762D01*
X-491540Y11364823D01*
X-488289Y11367211D01*
X-484327Y11368176D01*
X-480314Y11367516D01*
X-476910Y11365331D01*
X-474624Y11362029D01*
X-473811Y11358016D01*
X-473811Y11284204D01*
X-474573Y11280292D01*
X-476758Y11276990D01*
X-587349Y11166449D01*
X-592429Y11160201D01*
X-596036Y11153546D01*
X-598220Y11146282D01*
X-598982Y11138255D01*
X-598982Y11010188D01*
X-599592Y11006785D01*
X-601268Y11003737D01*
X-603859Y11001502D01*
X-615696Y10994288D01*
X-625856Y10986058D01*
X-634746Y10976508D01*
X-642315Y10965789D01*
X-648309Y10954156D01*
X-652729Y10941862D01*
X-655370Y10929061D01*
X-656285Y10915954D01*
X-655370Y10902899D01*
X-652729Y10890097D01*
X-648309Y10877804D01*
X-642315Y10866170D01*
X-634746Y10855452D01*
X-625856Y10845901D01*
X-615696Y10837621D01*
X-604520Y10830864D01*
X-592480Y10825632D01*
X-579882Y10822076D01*
X-566928Y10820298D01*
X-553821Y10820298D01*
X-540867Y10822076D01*
X-528269Y10825632D01*
X-516280Y10830864D01*
X-505104Y10837621D01*
X-494944Y10845901D01*
X-486003Y10855452D01*
X-478485Y10866170D01*
X-472440Y10877804D01*
X-468071Y10890097D01*
X-465378Y10902899D01*
X-464515Y10915954D01*
X-465378Y10929061D01*
X-468071Y10941862D01*
X-472440Y10954156D01*
X-478485Y10965789D01*
X-486003Y10976508D01*
X-494944Y10986058D01*
X-505104Y10994288D01*
X-516890Y11001502D01*
X-519480Y11003737D01*
X-521208Y11006785D01*
X-521766Y11010188D01*
X-521766Y11118596D01*
X-521004Y11122456D01*
X-518820Y11125758D01*
X-408228Y11236350D01*
X-403148Y11242548D01*
X-399542Y11249202D01*
X-397357Y11256467D01*
X-396595Y11264493D01*
X-396595Y11826697D01*
X-397357Y11834723D01*
X-399542Y11841937D01*
X-403148Y11848592D01*
X-408228Y11854840D01*
X-554685Y12001246D01*
X-556717Y12004141D01*
X-557580Y12007596D01*
X-558342Y12015978D01*
X-560730Y12025325D01*
X-564743Y12034113D01*
X-570128Y12042089D01*
X-576783Y12049048D01*
X-580542Y12051842D01*
X-583336Y12054992D01*
X-584606Y12059005D01*
X-584149Y12063171D01*
X-582015Y12066828D01*
X-578612Y12069318D01*
X-574497Y12070181D01*
X31038Y12070181D01*
X34645Y12069521D01*
X37744Y12067641D01*
X42976Y12063018D01*
X51206Y12057989D01*
X60147Y12054382D01*
X69596Y12052350D01*
X79248Y12051944D01*
X88798Y12053163D01*
X97993Y12056008D01*
X100279Y12057126D01*
X104241Y12058192D01*
X108305Y12057583D01*
X111810Y12055449D01*
X114147Y12052096D01*
X115011Y12048032D01*
X115011Y10816082D01*
X115773Y10808055D01*
X118008Y10800842D01*
X121564Y10794136D01*
X126644Y10787938D01*
X209448Y10705134D01*
X211582Y10701985D01*
X212445Y10698276D01*
X211836Y10694568D01*
X210870Y10691825D01*
X208229Y10679023D01*
X207314Y10665968D01*
X208229Y10652912D01*
X210870Y10640110D01*
X215290Y10627766D01*
X221284Y10616184D01*
X228854Y10605465D01*
X237744Y10595914D01*
X247904Y10587634D01*
X259079Y10580827D01*
X271119Y10575645D01*
X283718Y10572089D01*
X296672Y10570311D01*
X309778Y10570311D01*
X322732Y10572089D01*
X335330Y10575645D01*
X347319Y10580827D01*
X358495Y10587634D01*
X368655Y10595914D01*
X377596Y10605465D01*
X385114Y10616184D01*
X388213Y10622127D01*
X390448Y10625023D01*
X393598Y10626902D01*
X397205Y10627614D01*
X534009Y10628020D01*
X537718Y10627309D01*
X540918Y10625328D01*
X543153Y10622330D01*
X547319Y10613948D01*
X554990Y10602417D01*
X564134Y10592003D01*
X574548Y10582859D01*
X586079Y10575188D01*
X598474Y10569041D01*
X611632Y10564622D01*
X625195Y10561929D01*
X639013Y10561015D01*
X652830Y10561929D01*
X666394Y10564622D01*
X679551Y10569041D01*
X691946Y10575188D01*
X703478Y10582859D01*
X713892Y10592003D01*
X723036Y10602417D01*
X730707Y10613948D01*
X736854Y10626344D01*
X741273Y10639501D01*
X744016Y10653064D01*
X744880Y10666882D01*
X744016Y10680700D01*
X741273Y10694314D01*
X736854Y10707420D01*
X730707Y10719816D01*
X723036Y10731347D01*
X713892Y10741761D01*
X703478Y10750905D01*
X691946Y10758576D01*
X679551Y10764723D01*
X666394Y10769142D01*
X652830Y10771886D01*
X639013Y10772749D01*
X625195Y10771886D01*
X611632Y10769142D01*
X598474Y10764723D01*
X586079Y10758576D01*
X574548Y10750905D01*
X564134Y10741761D01*
X554990Y10731347D01*
X547319Y10719816D01*
X542899Y10710875D01*
X540664Y10707878D01*
X537514Y10705896D01*
X533806Y10705236D01*
X397052Y10704830D01*
X393395Y10705490D01*
X390245Y10707370D01*
X388010Y10710316D01*
X385114Y10715802D01*
X377596Y10726470D01*
X368655Y10736072D01*
X358495Y10744301D01*
X347319Y10751108D01*
X335330Y10756341D01*
X322732Y10759846D01*
X309778Y10761624D01*
X296672Y10761624D01*
X283718Y10759846D01*
X273964Y10757154D01*
X270408Y10756798D01*
X267004Y10757712D01*
X264058Y10759744D01*
X195173Y10828578D01*
X192989Y10831880D01*
X192227Y10835792D01*
X192227Y10883696D01*
X193040Y10887659D01*
X195326Y10891012D01*
X198678Y10893145D01*
X202692Y10893856D01*
X206603Y10892942D01*
X209854Y10890554D01*
X211937Y10887100D01*
X215290Y10877804D01*
X221284Y10866170D01*
X228854Y10855452D01*
X237744Y10845901D01*
X247904Y10837621D01*
X259079Y10830864D01*
X271119Y10825632D01*
X283718Y10822076D01*
X296672Y10820298D01*
X309778Y10820298D01*
X322732Y10822076D01*
X335330Y10825632D01*
X347319Y10830864D01*
X358495Y10837621D01*
X368655Y10845901D01*
X377596Y10855452D01*
X385114Y10866170D01*
X390652Y10876788D01*
X392887Y10879683D01*
X396036Y10881614D01*
X399643Y10882274D01*
X533908Y10882274D01*
X537616Y10881563D01*
X540816Y10879582D01*
X543052Y10876584D01*
X547319Y10867948D01*
X554990Y10856417D01*
X564134Y10846003D01*
X574548Y10836859D01*
X586079Y10829188D01*
X598474Y10823041D01*
X611632Y10818622D01*
X625195Y10815929D01*
X639013Y10815015D01*
X652830Y10815929D01*
X666394Y10818622D01*
X679551Y10823041D01*
X691946Y10829188D01*
X703478Y10836859D01*
X713892Y10846003D01*
X723036Y10856417D01*
X730707Y10867948D01*
X736854Y10880344D01*
X741273Y10893501D01*
X744016Y10907064D01*
X744880Y10920882D01*
X744016Y10934700D01*
X741273Y10948314D01*
X736854Y10961420D01*
X730707Y10973816D01*
X727151Y10979150D01*
X725576Y10983214D01*
X725830Y10987582D01*
X727862Y10991392D01*
X731316Y10994034D01*
X735584Y10994948D01*
X824636Y10994948D01*
X828497Y10994186D01*
X831799Y10992002D01*
X861771Y10962030D01*
X867968Y10956899D01*
X874674Y10953343D01*
X881887Y10951159D01*
X889914Y10950346D01*
X919937Y10950346D01*
X923848Y10949584D01*
X927150Y10947400D01*
X929335Y10944098D01*
X930097Y10940186D01*
X930097Y10899546D01*
X930808Y10893247D01*
X932738Y10887760D01*
X935786Y10882884D01*
X939901Y10878769D01*
X944778Y10875670D01*
X950264Y10873790D01*
X956564Y10873079D01*
X1135430Y10873079D01*
X1141780Y10873790D01*
X1147216Y10875670D01*
X1152144Y10878769D01*
X1156208Y10882884D01*
X1159306Y10887760D01*
X1161186Y10893247D01*
X1161897Y10899546D01*
X1161897Y11078413D01*
X1161186Y11084712D01*
X1159306Y11090198D01*
X1156208Y11095075D01*
X1152144Y11099190D01*
X1147216Y11102289D01*
X1141780Y11104168D01*
X1135430Y11104880D01*
X956564Y11104880D01*
X950264Y11104168D01*
X944778Y11102289D01*
X939901Y11099190D01*
X935786Y11095075D01*
X932738Y11090198D01*
X930808Y11084712D01*
X930097Y11078413D01*
X930097Y11037722D01*
X929335Y11033861D01*
X927150Y11030559D01*
X923848Y11028375D01*
X919937Y11027562D01*
X909624Y11027562D01*
X905713Y11028375D01*
X902411Y11030559D01*
X872490Y11060531D01*
X866241Y11065662D01*
X859586Y11069218D01*
X852322Y11071402D01*
X844296Y11072164D01*
X708964Y11072164D01*
X704799Y11073079D01*
X701344Y11075670D01*
X699262Y11079378D01*
X698906Y11083696D01*
X700379Y11087709D01*
X703478Y11090859D01*
X713892Y11100003D01*
X723036Y11110417D01*
X730707Y11121948D01*
X736854Y11134344D01*
X741273Y11147501D01*
X744016Y11161064D01*
X744880Y11174882D01*
X744016Y11188700D01*
X741273Y11202314D01*
X736854Y11215420D01*
X730707Y11227816D01*
X723036Y11239347D01*
X713892Y11249761D01*
X703478Y11258905D01*
X691946Y11266576D01*
X679551Y11272723D01*
X666394Y11277142D01*
X652830Y11279886D01*
X639013Y11280749D01*
X625195Y11279886D01*
X611632Y11277142D01*
X598474Y11272723D01*
X586079Y11266576D01*
X574548Y11258905D01*
X564134Y11249761D01*
X554990Y11239347D01*
X547319Y11227816D01*
X541172Y11215420D01*
X536752Y11202314D01*
X534009Y11188700D01*
X533146Y11174882D01*
X534009Y11161064D01*
X536752Y11147501D01*
X541172Y11134344D01*
X547319Y11121948D01*
X554990Y11110417D01*
X564134Y11100003D01*
X574700Y11090808D01*
X577646Y11087709D01*
X579120Y11083696D01*
X578764Y11079378D01*
X576681Y11075670D01*
X573227Y11073079D01*
X569061Y11072164D01*
X421335Y11072164D01*
X413308Y11071402D01*
X406044Y11069218D01*
X399389Y11065662D01*
X393141Y11060531D01*
X359156Y11026546D01*
X355854Y11024311D01*
X351993Y11023549D01*
X348081Y11024311D01*
X344779Y11026546D01*
X342595Y11029848D01*
X341833Y11033709D01*
X341833Y12321997D01*
X342595Y12325908D01*
X344779Y12329210D01*
X778002Y12762382D01*
X781050Y12764465D01*
X784707Y12765328D01*
X788416Y12764820D01*
X798931Y12761214D01*
X812850Y12758470D01*
X827024Y12757556D01*
X841146Y12758470D01*
X855065Y12761214D01*
X868527Y12765786D01*
X881227Y12772085D01*
X893013Y12779959D01*
X903681Y12789306D01*
X913028Y12799974D01*
X920902Y12811760D01*
X927201Y12824460D01*
X931773Y12837922D01*
X934516Y12851841D01*
X935431Y12865963D01*
X934516Y12880136D01*
X931773Y12894056D01*
X928776Y12902844D01*
X928217Y12906654D01*
X929182Y12910413D01*
X931418Y12913512D01*
X934669Y12915595D01*
X938428Y12916255D01*
X991819Y12916001D01*
X995680Y12915239D01*
X998982Y12913004D01*
X1193038Y12718948D01*
X1195222Y12715646D01*
X1196035Y12711785D01*
X1196035Y12628626D01*
X1195171Y12624562D01*
X1192733Y12621209D01*
X1189177Y12619075D01*
X1185062Y12618516D01*
X1181100Y12619685D01*
X1170584Y12625273D01*
X1153820Y12632080D01*
X1136396Y12637160D01*
X1118616Y12640411D01*
X1100531Y12641783D01*
X1082446Y12641326D01*
X1064463Y12638989D01*
X1046835Y12634874D01*
X1029766Y12628880D01*
X1013358Y12621209D01*
X997813Y12611912D01*
X983335Y12601041D01*
X970026Y12588748D01*
X958087Y12575133D01*
X947572Y12560350D01*
X938682Y12544602D01*
X931418Y12527991D01*
X925931Y12510770D01*
X922223Y12493040D01*
X920343Y12475006D01*
X920343Y12456922D01*
X922223Y12438888D01*
X925931Y12421158D01*
X931418Y12403937D01*
X938682Y12387326D01*
X947572Y12371578D01*
X958087Y12356795D01*
X970026Y12343180D01*
X983335Y12330887D01*
X997813Y12320016D01*
X1013358Y12310719D01*
X1029766Y12303048D01*
X1046835Y12297054D01*
X1064463Y12292939D01*
X1082446Y12290602D01*
X1100531Y12290145D01*
X1118616Y12291517D01*
X1136396Y12294768D01*
X1153820Y12299848D01*
X1170584Y12306655D01*
X1181100Y12312243D01*
X1185062Y12313412D01*
X1189177Y12312853D01*
X1192733Y12310719D01*
X1195171Y12307366D01*
X1196035Y12303302D01*
X1196035Y8816492D01*
X1195324Y8812834D01*
X1193393Y8809685D01*
X1190396Y8807450D01*
X1186840Y8806383D01*
X1183132Y8806738D01*
X1171905Y8809888D01*
X1158951Y8811666D01*
X1145844Y8811666D01*
X1132890Y8809888D01*
X1120292Y8806332D01*
X1108303Y8801100D01*
X1097127Y8794343D01*
X1086967Y8786063D01*
X1078026Y8776512D01*
X1070508Y8765794D01*
X1064463Y8754160D01*
X1060094Y8741867D01*
X1057402Y8729065D01*
X1056538Y8715959D01*
X1057402Y8702903D01*
X1060094Y8690102D01*
X1064463Y8677808D01*
X1070508Y8666175D01*
X1078026Y8655456D01*
X1086967Y8645906D01*
X1097127Y8637625D01*
X1108303Y8630869D01*
X1120292Y8625636D01*
X1132890Y8622080D01*
X1145844Y8620302D01*
X1158951Y8620302D01*
X1171905Y8622080D01*
X1183132Y8625230D01*
X1186840Y8625586D01*
X1190396Y8624519D01*
X1193393Y8622284D01*
X1195324Y8619134D01*
X1196035Y8615476D01*
X1196035Y8566505D01*
X1195324Y8562848D01*
X1193393Y8559698D01*
X1190396Y8557412D01*
X1186840Y8556396D01*
X1183132Y8556752D01*
X1171905Y8559850D01*
X1158951Y8561628D01*
X1145844Y8561628D01*
X1132890Y8559850D01*
X1120292Y8556345D01*
X1108303Y8551113D01*
X1097127Y8544306D01*
X1086967Y8536076D01*
X1078026Y8526475D01*
X1070508Y8515807D01*
X1064463Y8504174D01*
X1060094Y8491829D01*
X1057402Y8479028D01*
X1056538Y8465972D01*
X1057402Y8452916D01*
X1060094Y8440115D01*
X1064463Y8427770D01*
X1070508Y8416188D01*
X1078026Y8405469D01*
X1086967Y8395919D01*
X1097127Y8387638D01*
X1108303Y8380831D01*
X1120292Y8375650D01*
X1132890Y8372094D01*
X1145844Y8370316D01*
X1158951Y8370316D01*
X1171905Y8372094D01*
X1183132Y8375243D01*
X1186840Y8375548D01*
X1190396Y8374532D01*
X1193393Y8372297D01*
X1195324Y8369096D01*
X1196035Y8365439D01*
X1196035Y8316518D01*
X1195324Y8312861D01*
X1193393Y8309660D01*
X1190396Y8307425D01*
X1186840Y8306409D01*
X1183132Y8306714D01*
X1171905Y8309864D01*
X1158951Y8311642D01*
X1145844Y8311642D01*
X1132890Y8309864D01*
X1120292Y8306308D01*
X1108303Y8301126D01*
X1097127Y8294319D01*
X1094130Y8291880D01*
X1090879Y8290102D01*
X1087170Y8289594D01*
X1083564Y8290458D01*
X1080516Y8292592D01*
X409905Y8963202D01*
X407517Y8966962D01*
X407009Y8971432D01*
X408432Y8975699D01*
X411581Y8978900D01*
X415798Y8980424D01*
X421589Y8981186D01*
X430834Y8984030D01*
X439420Y8988348D01*
X447192Y8994089D01*
X453847Y9001048D01*
X457098Y9005112D01*
X462889Y9009837D01*
X665988Y9212935D01*
X671068Y9219184D01*
X674624Y9225838D01*
X676859Y9233052D01*
X677621Y9241078D01*
X677621Y9291828D01*
X678332Y9295485D01*
X680313Y9298686D01*
X683310Y9300921D01*
X691946Y9305188D01*
X703478Y9312859D01*
X713892Y9322003D01*
X723036Y9332417D01*
X730707Y9343948D01*
X736854Y9356344D01*
X741273Y9369501D01*
X744016Y9383064D01*
X744880Y9396882D01*
X744016Y9410700D01*
X741273Y9424314D01*
X736854Y9437420D01*
X730707Y9449816D01*
X723036Y9461347D01*
X713892Y9471761D01*
X703478Y9480905D01*
X691946Y9488576D01*
X679551Y9494723D01*
X666394Y9499142D01*
X652830Y9501886D01*
X639013Y9502749D01*
X625195Y9501886D01*
X611632Y9499142D01*
X598474Y9494723D01*
X586079Y9488576D01*
X574548Y9480905D01*
X564134Y9471761D01*
X554990Y9461347D01*
X547319Y9449816D01*
X541172Y9437420D01*
X536752Y9424314D01*
X534009Y9410700D01*
X533146Y9396882D01*
X534009Y9383064D01*
X536752Y9369501D01*
X541172Y9356344D01*
X547319Y9343948D01*
X554990Y9332417D01*
X564134Y9322003D01*
X574548Y9312859D01*
X586079Y9305188D01*
X594766Y9300921D01*
X597763Y9298686D01*
X599744Y9295485D01*
X600405Y9291777D01*
X600405Y9260789D01*
X599643Y9256877D01*
X597458Y9253626D01*
X497687Y9153855D01*
X494080Y9151518D01*
X489813Y9150908D01*
X485698Y9152128D01*
X482447Y9154922D01*
X480618Y9158833D01*
X480568Y9163100D01*
X481838Y9169298D01*
X482752Y9182354D01*
X481838Y9195409D01*
X479196Y9208211D01*
X474827Y9220555D01*
X468782Y9232138D01*
X461213Y9242856D01*
X452323Y9252407D01*
X442163Y9260687D01*
X430987Y9267494D01*
X418947Y9272676D01*
X406349Y9276232D01*
X393395Y9278010D01*
X380339Y9278010D01*
X367334Y9276232D01*
X354736Y9272676D01*
X342747Y9267494D01*
X331571Y9260687D01*
X321411Y9252407D01*
X312470Y9242856D01*
X307543Y9235846D01*
X304292Y9232900D01*
X300126Y9231579D01*
X295757Y9232188D01*
X292049Y9234525D01*
X155651Y9370923D01*
X149453Y9376054D01*
X142748Y9379610D01*
X135534Y9381794D01*
X127508Y9382607D01*
X-56591Y9382607D01*
X-60553Y9383420D01*
X-72593Y9392412D01*
X-81178Y9396730D01*
X-90424Y9399574D01*
X-99974Y9400794D01*
X-109626Y9400387D01*
X-119024Y9398355D01*
X-128016Y9394748D01*
X-136194Y9389719D01*
X-143459Y9383318D01*
X-149504Y9375800D01*
X-154635Y9366656D01*
X-157022Y9363811D01*
X-160274Y9361982D01*
X-163982Y9361474D01*
X-167589Y9362338D01*
X-170688Y9364421D01*
X-598424Y9792208D01*
X-600659Y9795510D01*
X-601421Y9799421D01*
X-601421Y10239451D01*
X-602234Y10247477D01*
X-604418Y10254691D01*
X-607974Y10261396D01*
X-613105Y10267594D01*
X-762508Y10417048D01*
X-764743Y10420350D01*
X-765505Y10424261D01*
X-765505Y10978388D01*
X-764844Y10982045D01*
X-762914Y10985144D01*
X-760018Y10987430D01*
X-754176Y10990478D01*
X-743458Y10997996D01*
X-733907Y11006937D01*
X-725627Y11017097D01*
X-718870Y11028273D01*
X-713638Y11040262D01*
X-710082Y11052860D01*
X-708304Y11065814D01*
X-708304Y11078921D01*
X-710082Y11091875D01*
X-713638Y11104473D01*
X-718870Y11116513D01*
X-725627Y11127689D01*
X-733907Y11137849D01*
X-743458Y11146739D01*
X-754176Y11154308D01*
X-765810Y11160302D01*
X-778103Y11164722D01*
X-790905Y11167364D01*
X-803960Y11168278D01*
X-817067Y11167364D01*
X-829868Y11164722D01*
X-842162Y11160302D01*
X-853795Y11154308D01*
X-864514Y11146739D01*
X-874064Y11137849D01*
X-882345Y11127689D01*
X-889304Y11116208D01*
X-891590Y11113566D01*
X-894587Y11111890D01*
X-898042Y11111331D01*
X-959713Y11111534D01*
X-963117Y11112144D01*
X-966114Y11113871D01*
X-968400Y11116462D01*
X-975715Y11128552D01*
X-983945Y11138712D01*
X-993495Y11147653D01*
X-1004214Y11155172D01*
X-1015847Y11161217D01*
X-1028141Y11165586D01*
X-1040942Y11168278D01*
X-1053998Y11169142D01*
X-1067104Y11168278D01*
X-1079906Y11165586D01*
X-1092200Y11161217D01*
X-1103833Y11155172D01*
X-1114552Y11147653D01*
X-1124102Y11138712D01*
X-1132382Y11128552D01*
X-1139139Y11117376D01*
X-1146556Y11100765D01*
X-1149756Y11098174D01*
X-1153718Y11097056D01*
X-1157833Y11097615D01*
X-1161338Y11099749D01*
X-1163726Y11103152D01*
X-1164590Y11107166D01*
X-1164590Y11296599D01*
X-1163828Y11300460D01*
X-1161592Y11303762D01*
X-1130909Y11334445D01*
X-1128268Y11336375D01*
X-1125169Y11337340D01*
X-1121867Y11337239D01*
X-1112824Y11335562D01*
X-1101039Y11335156D01*
X-1089304Y11336426D01*
X-1077874Y11339423D01*
X-1067003Y11344046D01*
X-1056944Y11350193D01*
X-1047851Y11357762D01*
X-1039977Y11366550D01*
X-1033475Y11376406D01*
X-1028446Y11387074D01*
X-1025042Y11398402D01*
X-1023315Y11410086D01*
X-1023315Y11421872D01*
X-1025042Y11433556D01*
X-1028446Y11444884D01*
X-1033475Y11455552D01*
X-1039977Y11465407D01*
X-1047851Y11474196D01*
X-1056944Y11481765D01*
X-1067003Y11487912D01*
X-1077874Y11492534D01*
X-1089304Y11495532D01*
X-1101039Y11496802D01*
X-1112824Y11496395D01*
X-1124458Y11494211D01*
X-1135634Y11490401D01*
X-1146098Y11485016D01*
X-1155700Y11478158D01*
X-1164234Y11469928D01*
X-1171448Y11460581D01*
X-1177239Y11450320D01*
X-1181455Y11439296D01*
X-1183995Y11427764D01*
X-1184859Y11415979D01*
X-1183995Y11404193D01*
X-1182725Y11398504D01*
X-1182573Y11395100D01*
X-1183487Y11391849D01*
X-1185468Y11389106D01*
X-1230122Y11344452D01*
X-1235252Y11338204D01*
X-1238808Y11331549D01*
X-1240993Y11324285D01*
X-1241806Y11316258D01*
X-1241806Y9677298D01*
X-1240993Y9669272D01*
X-1238808Y9662007D01*
X-1235252Y9655352D01*
X-1230122Y9649104D01*
X-1091184Y9510166D01*
X-1088948Y9506864D01*
X-1088186Y9503003D01*
X-1088186Y9287560D01*
X-1088796Y9284157D01*
X-1090472Y9281160D01*
X-1096721Y9273438D01*
X-1101394Y9265005D01*
X-1104595Y9255912D01*
X-1106220Y9246412D01*
X-1106220Y9236760D01*
X-1104595Y9227261D01*
X-1101394Y9218168D01*
X-1096721Y9209735D01*
X-1090625Y9202216D01*
X-1083411Y9195866D01*
X-1075182Y9190786D01*
X-1066241Y9187230D01*
X-1052880Y9184284D01*
X-1049731Y9181998D01*
X-1047648Y9178696D01*
X-1046937Y9174886D01*
X-1047750Y9171076D01*
X-1049934Y9167825D01*
X-1402994Y8814765D01*
X-1406093Y8812682D01*
X-1409750Y8811818D01*
X-1415186Y8811564D01*
X-1424635Y8809532D01*
X-1433576Y8805976D01*
X-1441805Y8800896D01*
X-1449019Y8794546D01*
X-1455115Y8787028D01*
X-1459788Y8778595D01*
X-1462989Y8769502D01*
X-1464614Y8760002D01*
X-1464614Y8750350D01*
X-1462989Y8740851D01*
X-1459788Y8731758D01*
X-1455115Y8723325D01*
X-1449019Y8715806D01*
X-1441805Y8709456D01*
X-1433576Y8704376D01*
X-1424635Y8700820D01*
X-1415186Y8698788D01*
X-1405534Y8698331D01*
X-1395984Y8699601D01*
X-1386789Y8702395D01*
X-1378153Y8706764D01*
X-1370380Y8712504D01*
X-1363726Y8719464D01*
X-1358341Y8727440D01*
X-1354328Y8736228D01*
X-1351940Y8745575D01*
X-1351178Y8754008D01*
X-1350314Y8757412D01*
X-1348282Y8760307D01*
X-1017727Y9090812D01*
X-1014526Y9092996D01*
X-1010716Y9093809D01*
X-1006906Y9093098D01*
X-1003604Y9091066D01*
X-1001318Y9087866D01*
X-1000404Y9084106D01*
X-1000963Y9080246D01*
X-1002233Y9076740D01*
X-1003858Y9067190D01*
X-1003858Y9057589D01*
X-1002233Y9048038D01*
X-999032Y9038945D01*
X-994308Y9030563D01*
X-988263Y9023045D01*
X-980998Y9016644D01*
X-972819Y9011615D01*
X-963828Y9008008D01*
X-954430Y9005976D01*
X-948944Y9005722D01*
X-945286Y9004909D01*
X-942187Y9002776D01*
X-923645Y8984234D01*
X-917397Y8979103D01*
X-910742Y8975547D01*
X-903528Y8973362D01*
X-895502Y8972550D01*
X-890574Y8972550D01*
X-886714Y8971788D01*
X-883412Y8969603D01*
X-872439Y8958630D01*
X-866190Y8953500D01*
X-859536Y8949944D01*
X-852322Y8947759D01*
X-844296Y8946946D01*
X159054Y8946946D01*
X162661Y8946337D01*
X165811Y8944457D01*
X170992Y8939885D01*
X179222Y8934805D01*
X188163Y8931198D01*
X197612Y8929166D01*
X207213Y8928760D01*
X216814Y8929979D01*
X226009Y8932824D01*
X234645Y8937142D01*
X242366Y8942882D01*
X249072Y8949842D01*
X254457Y8957868D01*
X258419Y8966657D01*
X260858Y8975953D01*
X261112Y8979154D01*
X262178Y8982811D01*
X264515Y8985859D01*
X267766Y8987790D01*
X271526Y8988450D01*
X275285Y8987586D01*
X278434Y8985453D01*
X1054455Y8209432D01*
X1056538Y8206435D01*
X1060094Y8190128D01*
X1064463Y8177784D01*
X1070508Y8166150D01*
X1078026Y8155482D01*
X1086967Y8145932D01*
X1097127Y8137652D01*
X1108303Y8130844D01*
X1120292Y8125612D01*
X1132890Y8122107D01*
X1145844Y8120329D01*
X1158951Y8120329D01*
X1171905Y8122107D01*
X1183132Y8125256D01*
X1186840Y8125561D01*
X1190396Y8124545D01*
X1193393Y8122310D01*
X1195324Y8119109D01*
X1196035Y8115452D01*
X1196035Y8054136D01*
X1195222Y8050174D01*
X1192936Y8046872D01*
X1189583Y8044688D01*
X1185621Y8043976D01*
X1181709Y8044840D01*
X1178458Y8047177D01*
X1175359Y8050479D01*
X1164132Y8059775D01*
X1151839Y8067548D01*
X1138682Y8073745D01*
X1124813Y8078266D01*
X1110538Y8080959D01*
X1096010Y8081873D01*
X1081481Y8080959D01*
X1067206Y8078266D01*
X1053338Y8073745D01*
X1040180Y8067548D01*
X1027887Y8059775D01*
X1019556Y8052866D01*
X1016304Y8051038D01*
X1012596Y8050530D01*
X1008989Y8051393D01*
X1005890Y8053476D01*
X382574Y8676843D01*
X380441Y8679942D01*
X379577Y8683650D01*
X380187Y8687409D01*
X381152Y8690102D01*
X383794Y8702903D01*
X384708Y8715959D01*
X383794Y8729065D01*
X381152Y8741867D01*
X376732Y8754160D01*
X370738Y8765794D01*
X363169Y8776512D01*
X354279Y8786063D01*
X344119Y8794343D01*
X332943Y8801100D01*
X320903Y8806332D01*
X308305Y8809888D01*
X295351Y8811666D01*
X282244Y8811666D01*
X269290Y8809888D01*
X256692Y8806332D01*
X244703Y8801100D01*
X233527Y8794343D01*
X223367Y8786063D01*
X214426Y8776512D01*
X206908Y8765794D01*
X200863Y8754160D01*
X196494Y8741867D01*
X193802Y8729065D01*
X192938Y8715959D01*
X193802Y8702903D01*
X196494Y8690102D01*
X200863Y8677808D01*
X206908Y8666175D01*
X214426Y8655456D01*
X223367Y8645906D01*
X233527Y8637625D01*
X244703Y8630869D01*
X256692Y8625636D01*
X269290Y8622080D01*
X282244Y8620302D01*
X295351Y8620302D01*
X308305Y8622080D01*
X318058Y8624824D01*
X321564Y8625179D01*
X325018Y8624265D01*
X327964Y8622233D01*
X977392Y7972806D01*
X979576Y7969503D01*
X980338Y7965643D01*
X980338Y7958734D01*
X982167Y7944307D01*
X985774Y7930184D01*
X991158Y7916672D01*
X998169Y7903921D01*
X1006703Y7892135D01*
X1016660Y7881518D01*
X1027887Y7872222D01*
X1040180Y7864449D01*
X1053338Y7858252D01*
X1067206Y7853730D01*
X1081481Y7851038D01*
X1096010Y7850124D01*
X1110538Y7851038D01*
X1124813Y7853730D01*
X1138682Y7858252D01*
X1151839Y7864449D01*
X1164132Y7872222D01*
X1175359Y7881518D01*
X1178458Y7884820D01*
X1181709Y7887157D01*
X1185621Y7888020D01*
X1189583Y7887309D01*
X1192936Y7885125D01*
X1195222Y7881823D01*
X1196035Y7877860D01*
X1196035Y7554112D01*
X1195222Y7550200D01*
X1192936Y7546848D01*
X1189583Y7544663D01*
X1185621Y7543952D01*
X1181709Y7544866D01*
X1178458Y7547152D01*
X1175359Y7550454D01*
X1164132Y7559751D01*
X1151839Y7567574D01*
X1147368Y7569657D01*
X1147368Y7517333D01*
X1185875Y7517333D01*
X1189736Y7516571D01*
X1193038Y7514386D01*
X1195222Y7511084D01*
X1196035Y7507173D01*
X1196035Y7424826D01*
X1195222Y7420914D01*
X1193038Y7417612D01*
X1189736Y7415428D01*
X1185875Y7414666D01*
X1147368Y7414666D01*
X1147368Y7362342D01*
X1151839Y7364425D01*
X1164132Y7372248D01*
X1175359Y7381544D01*
X1178458Y7384846D01*
X1181709Y7387132D01*
X1185621Y7388047D01*
X1189583Y7387336D01*
X1192936Y7385151D01*
X1195222Y7381798D01*
X1196035Y7377887D01*
X1196035Y7278674D01*
X1195171Y7274610D01*
X1192733Y7271207D01*
X1189177Y7269073D01*
X1185062Y7268565D01*
X1181100Y7269683D01*
X1170584Y7275271D01*
X1153820Y7282129D01*
X1136396Y7287158D01*
X1118616Y7290409D01*
X1100531Y7291831D01*
X1082446Y7291374D01*
X1064463Y7289038D01*
X1046835Y7284872D01*
X1029766Y7278928D01*
X1013358Y7271258D01*
X997813Y7261910D01*
X983335Y7251039D01*
X970026Y7238746D01*
X958087Y7225131D01*
X947572Y7210399D01*
X938682Y7194651D01*
X932586Y7180732D01*
X930402Y7177531D01*
X927100Y7175398D01*
X923290Y7174636D01*
X893775Y7174636D01*
X893775Y7129678D01*
X896518Y7130846D01*
X905103Y7136079D01*
X909319Y7137501D01*
X913790Y7136942D01*
X917549Y7134555D01*
X919937Y7130796D01*
X920343Y7125055D01*
X920343Y7106920D01*
X922223Y7088936D01*
X925931Y7071207D01*
X931418Y7053935D01*
X933805Y7048500D01*
X934669Y7044080D01*
X933551Y7039762D01*
X930656Y7036308D01*
G37*

%LPC*%
G36*
X811072Y7129678D02*
G01*
X811072Y7174636D01*
X766114Y7174636D01*
X770483Y7166152D01*
X778052Y7155484D01*
X786942Y7145934D01*
X797102Y7137653D01*
X808278Y7130846D01*
G37*
G36*
X766114Y7257338D02*
G01*
X811072Y7257338D01*
X811072Y7302296D01*
X808278Y7301128D01*
X797102Y7294321D01*
X786942Y7286040D01*
X778052Y7276490D01*
X770483Y7265822D01*
G37*
G36*
X893775Y7257338D02*
G01*
X938733Y7257338D01*
X934313Y7265822D01*
X926795Y7276490D01*
X917854Y7286040D01*
X907694Y7294321D01*
X896518Y7301128D01*
X893775Y7302296D01*
G37*
G36*
X817372Y7362342D02*
G01*
X821842Y7364425D01*
X834136Y7372248D01*
X845362Y7381544D01*
X855319Y7392111D01*
X863853Y7403896D01*
X869746Y7414666D01*
X817372Y7414666D01*
G37*
G36*
X1044651Y7362342D02*
G01*
X1044651Y7414666D01*
X992276Y7414666D01*
X998169Y7403896D01*
X1006703Y7392111D01*
X1016660Y7381544D01*
X1027887Y7372248D01*
X1040180Y7364425D01*
G37*
G36*
X714654Y7362342D02*
G01*
X714654Y7414666D01*
X662279Y7414666D01*
X668172Y7403896D01*
X676706Y7392111D01*
X686663Y7381544D01*
X697890Y7372248D01*
X710184Y7364425D01*
G37*
G36*
X817372Y7517333D02*
G01*
X869746Y7517333D01*
X863853Y7528102D01*
X855319Y7539888D01*
X845362Y7550454D01*
X834136Y7559751D01*
X821842Y7567574D01*
X817372Y7569657D01*
G37*
G36*
X992276Y7517333D02*
G01*
X1044651Y7517333D01*
X1044651Y7569657D01*
X1040180Y7567574D01*
X1027887Y7559751D01*
X1016660Y7550454D01*
X1006703Y7539888D01*
X998169Y7528102D01*
G37*
G36*
X662279Y7517333D02*
G01*
X714654Y7517333D01*
X714654Y7569657D01*
X710184Y7567574D01*
X697890Y7559751D01*
X686663Y7550454D01*
X676706Y7539888D01*
X668172Y7528102D01*
G37*
G36*
X-1102410Y7841081D02*
G01*
X-1064310Y7841081D01*
X-1064310Y7905648D01*
X-1128877Y7905648D01*
X-1128877Y7867548D01*
X-1128166Y7861249D01*
X-1126286Y7855762D01*
X-1123188Y7850886D01*
X-1119073Y7846771D01*
X-1114196Y7843723D01*
X-1108760Y7841792D01*
G37*
G36*
X-1528267Y7841335D02*
G01*
X-1513687Y7841335D01*
X-1499260Y7843164D01*
X-1485188Y7846771D01*
X-1471625Y7852105D01*
X-1458874Y7859115D01*
X-1447139Y7867700D01*
X-1436522Y7877657D01*
X-1427226Y7888884D01*
X-1419453Y7901178D01*
X-1413256Y7914335D01*
X-1408734Y7928152D01*
X-1405991Y7942478D01*
X-1405077Y7957007D01*
X-1405991Y7971536D01*
X-1408734Y7985810D01*
X-1413256Y7999628D01*
X-1419453Y8012836D01*
X-1427226Y8025079D01*
X-1436522Y8036306D01*
X-1447139Y8046262D01*
X-1458874Y8054848D01*
X-1471625Y8061858D01*
X-1485188Y8067192D01*
X-1499260Y8070799D01*
X-1513687Y8072628D01*
X-1528267Y8072628D01*
X-1542694Y8070799D01*
X-1556816Y8067192D01*
X-1570329Y8061858D01*
X-1583080Y8054848D01*
X-1594866Y8046262D01*
X-1605483Y8036306D01*
X-1614728Y8025079D01*
X-1622552Y8012836D01*
X-1628749Y7999628D01*
X-1633220Y7985810D01*
X-1635963Y7971536D01*
X-1636877Y7957007D01*
X-1635963Y7942478D01*
X-1633220Y7928152D01*
X-1628749Y7914335D01*
X-1622552Y7901178D01*
X-1614728Y7888884D01*
X-1605483Y7877657D01*
X-1594866Y7867700D01*
X-1583080Y7859115D01*
X-1570329Y7852105D01*
X-1556816Y7846771D01*
X-1542694Y7843164D01*
G37*
G36*
X-1782267Y7841335D02*
G01*
X-1767687Y7841335D01*
X-1753260Y7843164D01*
X-1739188Y7846771D01*
X-1725625Y7852105D01*
X-1712874Y7859115D01*
X-1701139Y7867700D01*
X-1690522Y7877657D01*
X-1681225Y7888884D01*
X-1673453Y7901178D01*
X-1667256Y7914335D01*
X-1662734Y7928152D01*
X-1659991Y7942478D01*
X-1659077Y7957007D01*
X-1659991Y7971536D01*
X-1662734Y7985810D01*
X-1667256Y7999628D01*
X-1673453Y8012836D01*
X-1681225Y8025079D01*
X-1690522Y8036306D01*
X-1701139Y8046262D01*
X-1712874Y8054848D01*
X-1725625Y8061858D01*
X-1739188Y8067192D01*
X-1753260Y8070799D01*
X-1767687Y8072628D01*
X-1782267Y8072628D01*
X-1796694Y8070799D01*
X-1810816Y8067192D01*
X-1824329Y8061858D01*
X-1837080Y8054848D01*
X-1848866Y8046262D01*
X-1859483Y8036306D01*
X-1868728Y8025079D01*
X-1876552Y8012836D01*
X-1882749Y7999628D01*
X-1887220Y7985810D01*
X-1889963Y7971536D01*
X-1890877Y7957007D01*
X-1889963Y7942478D01*
X-1887220Y7928152D01*
X-1882749Y7914335D01*
X-1876552Y7901178D01*
X-1868728Y7888884D01*
X-1859483Y7877657D01*
X-1848866Y7867700D01*
X-1837080Y7859115D01*
X-1824329Y7852105D01*
X-1810816Y7846771D01*
X-1796694Y7843164D01*
G37*
G36*
X-1128877Y8008315D02*
G01*
X-1064310Y8008315D01*
X-1064310Y8072881D01*
X-1102410Y8072881D01*
X-1108760Y8072170D01*
X-1114196Y8070291D01*
X-1119073Y8067192D01*
X-1123188Y8063077D01*
X-1126286Y8058200D01*
X-1128166Y8052714D01*
X-1128877Y8046415D01*
G37*
G36*
X-1842516Y8124190D02*
G01*
X-1832051Y8129930D01*
X-1821078Y8138007D01*
X-1811274Y8147507D01*
X-1802841Y8158225D01*
X-1795881Y8169960D01*
X-1795170Y8171535D01*
X-1842516Y8171535D01*
G37*
G36*
X-1931416Y8124342D02*
G01*
X-1931416Y8171535D01*
X-1978660Y8171535D01*
X-1974799Y8163966D01*
X-1967077Y8152739D01*
X-1957933Y8142579D01*
X-1947519Y8133791D01*
X-1936038Y8126475D01*
G37*
G36*
X-1978660Y8260435D02*
G01*
X-1931416Y8260435D01*
X-1931416Y8307628D01*
X-1936038Y8305495D01*
X-1947519Y8298180D01*
X-1957933Y8289391D01*
X-1967077Y8279231D01*
X-1974799Y8268004D01*
G37*
G36*
X-1842516Y8260435D02*
G01*
X-1795170Y8260435D01*
X-1795881Y8262010D01*
X-1802841Y8273745D01*
X-1811274Y8284464D01*
X-1821078Y8293963D01*
X-1832051Y8302040D01*
X-1842516Y8307781D01*
G37*
G36*
X-2098446Y8447328D02*
G01*
X-2098446Y8494522D01*
X-2145639Y8494522D01*
X-2143506Y8489899D01*
X-2136190Y8478418D01*
X-2127351Y8468004D01*
X-2117242Y8458860D01*
X-2106015Y8451138D01*
G37*
G36*
X-2009546Y8447328D02*
G01*
X-2001977Y8451138D01*
X-1990699Y8458860D01*
X-1980590Y8468004D01*
X-1971802Y8478418D01*
X-1964436Y8489899D01*
X-1962302Y8494522D01*
X-2009546Y8494522D01*
G37*
G36*
X-55829Y8543696D02*
G01*
X-55829Y8574125D01*
X-86360Y8574125D01*
X-85801Y8572550D01*
X-81127Y8564118D01*
X-75031Y8556650D01*
X-67818Y8550249D01*
X-59588Y8545220D01*
G37*
G36*
X-1343964Y8562340D02*
G01*
X-1295349Y8562340D01*
X-1295349Y8610955D01*
X-1301953Y8607704D01*
X-1313434Y8599982D01*
X-1323848Y8590838D01*
X-1332992Y8580424D01*
X-1340713Y8568944D01*
G37*
G36*
X-1202639Y8562340D02*
G01*
X-1154023Y8562340D01*
X-1157274Y8568944D01*
X-1164996Y8580424D01*
X-1174140Y8590838D01*
X-1184554Y8599982D01*
X-1196035Y8607704D01*
X-1202639Y8610955D01*
G37*
G36*
X-2145792Y8583422D02*
G01*
X-2098446Y8583422D01*
X-2098446Y8630767D01*
X-2100021Y8630107D01*
X-2111756Y8623147D01*
X-2122474Y8614714D01*
X-2131923Y8604910D01*
X-2140051Y8593937D01*
G37*
G36*
X-2009546Y8583422D02*
G01*
X-1962200Y8583422D01*
X-1967941Y8593937D01*
X-1976018Y8604910D01*
X-1985518Y8614714D01*
X-1996186Y8623147D01*
X-2007920Y8630107D01*
X-2009546Y8630767D01*
G37*
G36*
X-306374Y8637828D02*
G01*
X-275844Y8637828D01*
X-275844Y8674150D01*
X-306374Y8674150D01*
X-305816Y8672576D01*
X-301091Y8664143D01*
X-299669Y8662365D01*
X-297992Y8659368D01*
X-297434Y8655964D01*
X-297992Y8652611D01*
X-299669Y8649614D01*
X-301091Y8647836D01*
X-305816Y8639403D01*
G37*
G36*
X-232156Y8637828D02*
G01*
X-196138Y8637828D01*
X-195834Y8638133D01*
X-195834Y8674150D01*
X-232156Y8674150D01*
G37*
G36*
X-152146Y8717838D02*
G01*
X-145846Y8717838D01*
X-145846Y8744153D01*
X-152146Y8744153D01*
G37*
G36*
X-306374Y8717838D02*
G01*
X-275844Y8717838D01*
X-275844Y8748268D01*
X-279603Y8746744D01*
X-287782Y8741714D01*
X-295046Y8735314D01*
X-301091Y8727846D01*
X-305816Y8719413D01*
G37*
G36*
X-232156Y8717838D02*
G01*
X-195834Y8717838D01*
X-195834Y8746134D01*
X-197307Y8747709D01*
X-199542Y8746794D01*
X-208788Y8741003D01*
X-212547Y8739632D01*
X-216560Y8739784D01*
X-220217Y8741460D01*
X-224180Y8744407D01*
X-232156Y8748420D01*
G37*
G36*
X-102158Y8787841D02*
G01*
X-75844Y8787841D01*
X-75844Y8804148D01*
X-102158Y8804148D01*
G37*
G36*
X-176377Y8787841D02*
G01*
X-145846Y8787841D01*
X-145846Y8818270D01*
X-149606Y8816746D01*
X-157784Y8811717D01*
X-165049Y8805316D01*
X-171094Y8797848D01*
X-175818Y8789416D01*
G37*
G36*
X-106375Y8847836D02*
G01*
X-75844Y8847836D01*
X-75844Y8878265D01*
X-79603Y8876792D01*
X-87782Y8871712D01*
X-95046Y8865311D01*
X-101092Y8857843D01*
X-105816Y8849410D01*
G37*
G36*
X-32156Y8847836D02*
G01*
X-1676Y8847836D01*
X-4318Y8853728D01*
X-9753Y8861704D01*
X-16408Y8868664D01*
X-24180Y8874404D01*
X-32156Y8878417D01*
G37*
G36*
X1087374Y8972448D02*
G01*
X1095806Y8976868D01*
X1106525Y8984386D01*
X1116076Y8993327D01*
X1124356Y9003487D01*
X1131163Y9014663D01*
X1132332Y9017457D01*
X1087374Y9017457D01*
G37*
G36*
X1004671Y8972448D02*
G01*
X1004671Y9017457D01*
X959662Y9017457D01*
X960882Y9014663D01*
X967689Y9003487D01*
X975918Y8993327D01*
X985519Y8984386D01*
X996187Y8976868D01*
G37*
G36*
X959662Y9100108D02*
G01*
X1004671Y9100108D01*
X1004671Y9145117D01*
X996187Y9140698D01*
X985519Y9133179D01*
X975918Y9124238D01*
X967689Y9114078D01*
X960882Y9102902D01*
G37*
G36*
X1087374Y9100108D02*
G01*
X1132332Y9100108D01*
X1131163Y9102902D01*
X1124356Y9114078D01*
X1116076Y9124238D01*
X1106525Y9133179D01*
X1095806Y9140698D01*
X1087374Y9145117D01*
G37*
G36*
X-2042109Y9173514D02*
G01*
X-2034184Y9177578D01*
X-2026412Y9183268D01*
X-2019757Y9190278D01*
X-2014321Y9198254D01*
X-2011680Y9204147D01*
X-2042109Y9204147D01*
G37*
G36*
X-2085848Y9173718D02*
G01*
X-2085848Y9204147D01*
X-2116378Y9204147D01*
X-2115820Y9202572D01*
X-2111095Y9194139D01*
X-2105050Y9186621D01*
X-2097786Y9180271D01*
X-2089607Y9175191D01*
G37*
G36*
X-2042109Y9247835D02*
G01*
X-2011375Y9247835D01*
X-2012035Y9250832D01*
X-2011121Y9255048D01*
X-2008581Y9258452D01*
X-2004872Y9260535D01*
X-2000605Y9260941D01*
X-1996541Y9259468D01*
X-1989582Y9255201D01*
X-1985822Y9253677D01*
X-1985822Y9284157D01*
X-2042109Y9284157D01*
G37*
G36*
X-2116378Y9247835D02*
G01*
X-2085848Y9247835D01*
X-2085848Y9284157D01*
X-2152142Y9284157D01*
X-2152142Y9253524D01*
X-2144166Y9257538D01*
X-2136394Y9263278D01*
X-2129739Y9270238D01*
X-2127504Y9273540D01*
X-2124862Y9276232D01*
X-2121408Y9277756D01*
X-2117648Y9277908D01*
X-2114042Y9276689D01*
X-2111197Y9274251D01*
X-2109673Y9272371D01*
X-2107996Y9269374D01*
X-2107438Y9265970D01*
X-2107996Y9262618D01*
X-2109673Y9259620D01*
X-2111095Y9257842D01*
X-2115820Y9249410D01*
G37*
G36*
X-1942134Y9253524D02*
G01*
X-1934159Y9257538D01*
X-1926386Y9263278D01*
X-1919732Y9270238D01*
X-1914347Y9278264D01*
X-1911654Y9284157D01*
X-1942134Y9284157D01*
G37*
G36*
X-1942134Y9327845D02*
G01*
X-1911654Y9327845D01*
X-1914347Y9333738D01*
X-1919732Y9341713D01*
X-1926386Y9348673D01*
X-1934159Y9354413D01*
X-1942134Y9358426D01*
G37*
G36*
X-2042109Y9327845D02*
G01*
X-1985822Y9327845D01*
X-1985822Y9358274D01*
X-1989582Y9356750D01*
X-1997811Y9351721D01*
X-2005025Y9345320D01*
X-2006092Y9344050D01*
X-2009444Y9341358D01*
X-2013559Y9340240D01*
X-2017775Y9341002D01*
X-2021332Y9343390D01*
X-2026412Y9348673D01*
X-2034184Y9354413D01*
X-2042109Y9358426D01*
G37*
G36*
X-2152142Y9327845D02*
G01*
X-2085848Y9327845D01*
X-2085848Y9358274D01*
X-2089607Y9356750D01*
X-2097786Y9351721D01*
X-2105050Y9345320D01*
X-2111197Y9337700D01*
X-2114042Y9335262D01*
X-2117648Y9334042D01*
X-2121408Y9334195D01*
X-2124862Y9335719D01*
X-2127504Y9338411D01*
X-2129739Y9341713D01*
X-2136394Y9348673D01*
X-2144166Y9354413D01*
X-2152142Y9358426D01*
G37*
G36*
X380339Y9336633D02*
G01*
X393395Y9336633D01*
X406349Y9338411D01*
X418947Y9341916D01*
X430987Y9347149D01*
X442163Y9353956D01*
X452323Y9362186D01*
X461213Y9371736D01*
X468782Y9382455D01*
X474827Y9394088D01*
X479196Y9406382D01*
X481838Y9419234D01*
X482752Y9432290D01*
X481838Y9445345D01*
X479196Y9458147D01*
X474827Y9470491D01*
X468782Y9482074D01*
X461213Y9492792D01*
X452323Y9502343D01*
X442163Y9510623D01*
X430987Y9517430D01*
X418947Y9522612D01*
X406349Y9526168D01*
X393395Y9527946D01*
X380339Y9527946D01*
X367334Y9526168D01*
X354736Y9522612D01*
X342747Y9517430D01*
X331571Y9510623D01*
X321411Y9502343D01*
X312470Y9492792D01*
X304952Y9482074D01*
X301955Y9476384D01*
X299720Y9473438D01*
X296570Y9471558D01*
X292963Y9470898D01*
X264718Y9470898D01*
X260858Y9471660D01*
X257556Y9473844D01*
X206857Y9524542D01*
X200609Y9529622D01*
X193954Y9533229D01*
X186740Y9535414D01*
X178714Y9536176D01*
X-5334Y9536176D01*
X-9347Y9536988D01*
X-21386Y9546031D01*
X-29971Y9550349D01*
X-39217Y9553194D01*
X-48768Y9554413D01*
X-58419Y9554006D01*
X-67818Y9551974D01*
X-76809Y9548368D01*
X-84988Y9543338D01*
X-92252Y9536938D01*
X-98298Y9529419D01*
X-103022Y9521037D01*
X-106222Y9511944D01*
X-107848Y9502394D01*
X-107848Y9492792D01*
X-106222Y9483242D01*
X-103022Y9474149D01*
X-98298Y9465767D01*
X-92252Y9458248D01*
X-84988Y9451848D01*
X-76809Y9446818D01*
X-67818Y9443212D01*
X-58419Y9441180D01*
X-48768Y9440773D01*
X-39217Y9441992D01*
X-29971Y9444837D01*
X-21386Y9449155D01*
X-9347Y9458147D01*
X-5384Y9458960D01*
X159004Y9458960D01*
X162915Y9458198D01*
X166217Y9456013D01*
X216865Y9405315D01*
X223113Y9400235D01*
X229768Y9396628D01*
X236982Y9394444D01*
X245008Y9393682D01*
X292963Y9393682D01*
X296570Y9393021D01*
X299720Y9391091D01*
X301955Y9388195D01*
X304952Y9382455D01*
X312470Y9371736D01*
X321411Y9362186D01*
X331571Y9353956D01*
X342747Y9347149D01*
X354736Y9341916D01*
X367334Y9338411D01*
G37*
G36*
X-1646986Y9545015D02*
G01*
X-1633169Y9545929D01*
X-1619605Y9548622D01*
X-1606448Y9553041D01*
X-1594053Y9559188D01*
X-1582521Y9566859D01*
X-1572107Y9576003D01*
X-1562963Y9586417D01*
X-1555292Y9597948D01*
X-1549146Y9610344D01*
X-1544726Y9623501D01*
X-1541983Y9637064D01*
X-1541119Y9650882D01*
X-1541983Y9664700D01*
X-1544726Y9678314D01*
X-1549146Y9691420D01*
X-1555292Y9703816D01*
X-1562963Y9715347D01*
X-1572107Y9725761D01*
X-1582521Y9734905D01*
X-1594053Y9742576D01*
X-1606448Y9748723D01*
X-1619605Y9753142D01*
X-1633169Y9755886D01*
X-1646986Y9756749D01*
X-1660804Y9755886D01*
X-1674368Y9753142D01*
X-1687525Y9748723D01*
X-1699920Y9742576D01*
X-1711452Y9734905D01*
X-1721866Y9725761D01*
X-1731010Y9715347D01*
X-1738680Y9703816D01*
X-1744827Y9691420D01*
X-1749247Y9678314D01*
X-1751990Y9664700D01*
X-1752854Y9650882D01*
X-1751990Y9637064D01*
X-1749247Y9623501D01*
X-1744827Y9610344D01*
X-1738680Y9597948D01*
X-1731010Y9586417D01*
X-1721866Y9576003D01*
X-1711452Y9566859D01*
X-1699920Y9559188D01*
X-1687525Y9553041D01*
X-1674368Y9548622D01*
X-1660804Y9545929D01*
G37*
G36*
X685342Y9555937D02*
G01*
X691946Y9559188D01*
X703478Y9566859D01*
X713892Y9576003D01*
X723036Y9586417D01*
X730707Y9597948D01*
X733958Y9604552D01*
X685342Y9604552D01*
G37*
G36*
X592683Y9555937D02*
G01*
X592683Y9604552D01*
X544068Y9604552D01*
X547319Y9597948D01*
X554990Y9586417D01*
X564134Y9576003D01*
X574548Y9566859D01*
X586079Y9559188D01*
G37*
G36*
X-2053996Y9563709D02*
G01*
X-2040940Y9564573D01*
X-2028139Y9567265D01*
X-2015794Y9571634D01*
X-2004161Y9577679D01*
X-1993493Y9585198D01*
X-1983892Y9594138D01*
X-1975662Y9604298D01*
X-1968855Y9615474D01*
X-1963623Y9627463D01*
X-1960118Y9640062D01*
X-1958339Y9653016D01*
X-1958339Y9666122D01*
X-1960118Y9679076D01*
X-1963623Y9691674D01*
X-1968855Y9703714D01*
X-1975662Y9714890D01*
X-1983892Y9725050D01*
X-1993493Y9733940D01*
X-2004161Y9741509D01*
X-2015794Y9747504D01*
X-2028139Y9751923D01*
X-2040940Y9754565D01*
X-2053996Y9755479D01*
X-2067052Y9754565D01*
X-2079853Y9751923D01*
X-2092198Y9747504D01*
X-2103780Y9741509D01*
X-2114499Y9733940D01*
X-2124049Y9725050D01*
X-2132330Y9714890D01*
X-2139137Y9703714D01*
X-2144318Y9691674D01*
X-2147874Y9679076D01*
X-2149652Y9666122D01*
X-2149652Y9653016D01*
X-2147874Y9640062D01*
X-2144318Y9627463D01*
X-2139137Y9615474D01*
X-2132330Y9604298D01*
X-2124049Y9594138D01*
X-2114499Y9585198D01*
X-2103780Y9577679D01*
X-2092198Y9571634D01*
X-2079853Y9567265D01*
X-2067052Y9564573D01*
G37*
G36*
X222351Y9616694D02*
G01*
X236931Y9616694D01*
X251358Y9618472D01*
X265430Y9622129D01*
X278993Y9627463D01*
X291744Y9634474D01*
X303530Y9643059D01*
X314096Y9653016D01*
X323392Y9664192D01*
X331216Y9676485D01*
X337413Y9689693D01*
X341884Y9703511D01*
X344627Y9717786D01*
X345541Y9732314D01*
X344627Y9746843D01*
X341884Y9761169D01*
X337413Y9774986D01*
X331216Y9788144D01*
X323392Y9800437D01*
X314096Y9811664D01*
X303530Y9821621D01*
X291744Y9830155D01*
X278993Y9837166D01*
X265430Y9842550D01*
X251358Y9846157D01*
X236931Y9847986D01*
X222351Y9847986D01*
X207924Y9846157D01*
X193852Y9842550D01*
X180289Y9837166D01*
X167538Y9830155D01*
X155752Y9821621D01*
X145186Y9811664D01*
X135890Y9800437D01*
X128066Y9788144D01*
X121869Y9774986D01*
X117398Y9761169D01*
X114655Y9746843D01*
X113741Y9732314D01*
X114655Y9717786D01*
X117398Y9703511D01*
X121869Y9689693D01*
X128066Y9676485D01*
X135890Y9664192D01*
X145186Y9653016D01*
X155752Y9643059D01*
X167538Y9634474D01*
X180289Y9627463D01*
X193852Y9622129D01*
X207924Y9618472D01*
G37*
G36*
X-321716Y9628581D02*
G01*
X-321716Y9680956D01*
X-374040Y9680956D01*
X-371906Y9676485D01*
X-364134Y9664192D01*
X-354838Y9653016D01*
X-344220Y9643059D01*
X-332435Y9634474D01*
G37*
G36*
X-218998Y9628581D02*
G01*
X-208279Y9634474D01*
X-196494Y9643059D01*
X-185877Y9653016D01*
X-176580Y9664192D01*
X-168808Y9676485D01*
X-166674Y9680956D01*
X-218998Y9680956D01*
G37*
G36*
X544068Y9697212D02*
G01*
X592683Y9697212D01*
X592683Y9745827D01*
X586079Y9742576D01*
X574548Y9734905D01*
X564134Y9725761D01*
X554990Y9715347D01*
X547319Y9703816D01*
G37*
G36*
X685342Y9697212D02*
G01*
X733958Y9697212D01*
X730707Y9703816D01*
X723036Y9715347D01*
X713892Y9725761D01*
X703478Y9734905D01*
X691946Y9742576D01*
X685342Y9745827D01*
G37*
G36*
X-458368Y9747961D02*
G01*
X-448818Y9749180D01*
X-439572Y9752025D01*
X-430987Y9756343D01*
X-423214Y9762083D01*
X-416509Y9769043D01*
X-411124Y9777069D01*
X-407162Y9785858D01*
X-404723Y9795154D01*
X-403910Y9804755D01*
X-404723Y9814407D01*
X-407162Y9823704D01*
X-411124Y9832492D01*
X-416509Y9840518D01*
X-419354Y9843465D01*
X-421436Y9846716D01*
X-422198Y9850475D01*
X-422198Y9963759D01*
X-421385Y9967671D01*
X-419201Y9970973D01*
X-385419Y10004704D01*
X-381609Y10007142D01*
X-377139Y10007650D01*
X-372872Y10006177D01*
X-369671Y10002977D01*
X-364134Y9994188D01*
X-354838Y9983012D01*
X-344220Y9973056D01*
X-332435Y9964470D01*
X-319684Y9957460D01*
X-306171Y9952126D01*
X-292049Y9948519D01*
X-277622Y9946690D01*
X-263093Y9946690D01*
X-248666Y9948519D01*
X-234543Y9952126D01*
X-221030Y9957460D01*
X-208279Y9964470D01*
X-196494Y9973056D01*
X-185877Y9983012D01*
X-176580Y9994188D01*
X-168808Y10006482D01*
X-163474Y10017861D01*
X-161188Y10020960D01*
X-157988Y10022992D01*
X-154279Y10023703D01*
X3860Y10023703D01*
X7772Y10022941D01*
X11074Y10020757D01*
X151536Y9880244D01*
X157784Y9875113D01*
X164439Y9871557D01*
X171704Y9869373D01*
X179730Y9868560D01*
X357886Y9868560D01*
X365912Y9869373D01*
X373176Y9871557D01*
X379831Y9875113D01*
X386080Y9880244D01*
X499414Y9993579D01*
X502716Y9995814D01*
X506628Y9996576D01*
X556463Y9996576D01*
X560222Y9995865D01*
X563473Y9993731D01*
X565708Y9990582D01*
X566623Y9986873D01*
X566064Y9983063D01*
X564083Y9979710D01*
X554990Y9969347D01*
X547319Y9957816D01*
X541172Y9945420D01*
X536752Y9932314D01*
X534009Y9918700D01*
X533146Y9904882D01*
X534009Y9891064D01*
X536752Y9877501D01*
X541172Y9864344D01*
X547319Y9851948D01*
X554990Y9840417D01*
X564134Y9830003D01*
X574548Y9820859D01*
X586079Y9813188D01*
X598474Y9807041D01*
X611632Y9802622D01*
X625195Y9799929D01*
X639013Y9799015D01*
X652830Y9799929D01*
X666394Y9802622D01*
X679551Y9807041D01*
X691946Y9813188D01*
X703478Y9820859D01*
X713892Y9830003D01*
X723036Y9840417D01*
X730707Y9851948D01*
X736854Y9864344D01*
X741273Y9877501D01*
X744016Y9891064D01*
X744880Y9904882D01*
X744016Y9918700D01*
X741273Y9932314D01*
X736854Y9945420D01*
X730707Y9957816D01*
X723036Y9969347D01*
X713943Y9979710D01*
X711962Y9983063D01*
X711403Y9986873D01*
X712317Y9990582D01*
X714552Y9993731D01*
X717804Y9995865D01*
X721563Y9996576D01*
X913028Y9996576D01*
X916889Y9995814D01*
X920191Y9993579D01*
X952246Y9961524D01*
X954278Y9958628D01*
X955192Y9955174D01*
X954836Y9951618D01*
X952144Y9941915D01*
X950366Y9928910D01*
X950366Y9915855D01*
X952144Y9902850D01*
X955649Y9890252D01*
X960882Y9878263D01*
X967689Y9867087D01*
X975918Y9856927D01*
X985519Y9847986D01*
X996187Y9840468D01*
X1007821Y9834422D01*
X1020165Y9830054D01*
X1032967Y9827412D01*
X1046022Y9826498D01*
X1059078Y9827412D01*
X1071880Y9830054D01*
X1084224Y9834422D01*
X1095806Y9840468D01*
X1106525Y9847986D01*
X1116076Y9856927D01*
X1124356Y9867087D01*
X1131163Y9878263D01*
X1136345Y9890252D01*
X1139901Y9902850D01*
X1141679Y9915855D01*
X1141679Y9928910D01*
X1139901Y9941915D01*
X1136345Y9954514D01*
X1131163Y9966502D01*
X1124356Y9977678D01*
X1116076Y9987838D01*
X1106525Y9996779D01*
X1095806Y10004298D01*
X1084224Y10010343D01*
X1071880Y10014712D01*
X1059078Y10017353D01*
X1046022Y10018268D01*
X1032967Y10017353D01*
X1020165Y10014712D01*
X1017422Y10013746D01*
X1013714Y10013188D01*
X1010005Y10014000D01*
X1006856Y10016134D01*
X960882Y10062108D01*
X954633Y10067239D01*
X947978Y10070795D01*
X940714Y10072979D01*
X932687Y10073792D01*
X727354Y10073792D01*
X723544Y10074503D01*
X720293Y10076586D01*
X718108Y10079736D01*
X717194Y10083495D01*
X717753Y10087305D01*
X719683Y10090658D01*
X723036Y10094417D01*
X730707Y10105948D01*
X736854Y10118344D01*
X741273Y10131501D01*
X744016Y10145064D01*
X744880Y10158882D01*
X744016Y10172700D01*
X741273Y10186314D01*
X736854Y10199420D01*
X730707Y10211816D01*
X723036Y10223347D01*
X713892Y10233761D01*
X703478Y10242905D01*
X691946Y10250576D01*
X679551Y10256723D01*
X666394Y10261142D01*
X652830Y10263886D01*
X639013Y10264749D01*
X625195Y10263886D01*
X611632Y10261142D01*
X598474Y10256723D01*
X586079Y10250576D01*
X574548Y10242905D01*
X564134Y10233761D01*
X554990Y10223347D01*
X547319Y10211816D01*
X541172Y10199420D01*
X536752Y10186314D01*
X534009Y10172700D01*
X533146Y10158882D01*
X534009Y10145064D01*
X536752Y10131501D01*
X541172Y10118344D01*
X547319Y10105948D01*
X554990Y10094417D01*
X558342Y10090658D01*
X560273Y10087305D01*
X560832Y10083495D01*
X559917Y10079736D01*
X557733Y10076586D01*
X554482Y10074503D01*
X550672Y10073792D01*
X486918Y10073792D01*
X478891Y10072979D01*
X471678Y10070795D01*
X464972Y10067239D01*
X458774Y10062108D01*
X345389Y9948773D01*
X342087Y9946538D01*
X338226Y9945776D01*
X297281Y9945776D01*
X293166Y9946690D01*
X289712Y9949129D01*
X287629Y9952786D01*
X287172Y9957003D01*
X288493Y9961016D01*
X291287Y9964166D01*
X303530Y9973056D01*
X314096Y9983012D01*
X323392Y9994188D01*
X331216Y10006482D01*
X333298Y10011003D01*
X280974Y10011003D01*
X280974Y9955936D01*
X280212Y9952075D01*
X278028Y9948773D01*
X274726Y9946538D01*
X270814Y9945776D01*
X199390Y9945776D01*
X195529Y9946538D01*
X192227Y9948773D01*
X181254Y9959746D01*
X179070Y9962997D01*
X178308Y9966909D01*
X178308Y10011003D01*
X134213Y10011003D01*
X130352Y10011765D01*
X127050Y10013950D01*
X51714Y10089286D01*
X45516Y10094366D01*
X38811Y10097922D01*
X31597Y10100157D01*
X23571Y10100919D01*
X-154228Y10100919D01*
X-157988Y10101630D01*
X-161188Y10103662D01*
X-163423Y10106761D01*
X-168808Y10118140D01*
X-176580Y10130434D01*
X-185877Y10141661D01*
X-196494Y10151618D01*
X-208279Y10160152D01*
X-221030Y10167162D01*
X-234543Y10172547D01*
X-248666Y10176154D01*
X-263093Y10177983D01*
X-277622Y10177983D01*
X-292049Y10176154D01*
X-306171Y10172547D01*
X-319684Y10167162D01*
X-332435Y10160152D01*
X-344220Y10151618D01*
X-354838Y10141661D01*
X-364134Y10130434D01*
X-371906Y10118140D01*
X-377494Y10106355D01*
X-379476Y10103510D01*
X-382320Y10101478D01*
X-385673Y10100564D01*
X-389991Y10100157D01*
X-397205Y10097922D01*
X-403860Y10094366D01*
X-410108Y10089286D01*
X-487730Y10011613D01*
X-492861Y10005415D01*
X-496417Y9998760D01*
X-498601Y9991496D01*
X-499414Y9983470D01*
X-499414Y9850729D01*
X-499973Y9847376D01*
X-501650Y9844379D01*
X-507898Y9836607D01*
X-512622Y9828225D01*
X-515823Y9819132D01*
X-517448Y9809581D01*
X-517448Y9799980D01*
X-515823Y9790430D01*
X-512622Y9781336D01*
X-507898Y9772954D01*
X-501853Y9765436D01*
X-494588Y9759035D01*
X-486409Y9754006D01*
X-477418Y9750399D01*
X-468020Y9748367D01*
G37*
G36*
X-374040Y9783673D02*
G01*
X-321716Y9783673D01*
X-321716Y9836099D01*
X-332435Y9830155D01*
X-344220Y9821621D01*
X-354838Y9811664D01*
X-364134Y9800437D01*
X-371906Y9788144D01*
G37*
G36*
X-218998Y9783673D02*
G01*
X-166674Y9783673D01*
X-168808Y9788144D01*
X-176580Y9800437D01*
X-185877Y9811664D01*
X-196494Y9821621D01*
X-208279Y9830155D01*
X-218998Y9836099D01*
G37*
G36*
X-1600657Y10063937D02*
G01*
X-1594053Y10067188D01*
X-1582521Y10074859D01*
X-1572107Y10084003D01*
X-1562963Y10094417D01*
X-1555292Y10105948D01*
X-1552041Y10112552D01*
X-1600657Y10112552D01*
G37*
G36*
X-1693316Y10063937D02*
G01*
X-1693316Y10112552D01*
X-1741932Y10112552D01*
X-1738680Y10105948D01*
X-1731010Y10094417D01*
X-1721866Y10084003D01*
X-1711452Y10074859D01*
X-1699920Y10067188D01*
G37*
G36*
X1090472Y10097312D02*
G01*
X1098042Y10101122D01*
X1109268Y10108844D01*
X1119378Y10117988D01*
X1128217Y10128402D01*
X1135532Y10139934D01*
X1137666Y10144506D01*
X1090472Y10144506D01*
G37*
G36*
X1001572Y10097312D02*
G01*
X1001572Y10144506D01*
X954328Y10144506D01*
X956462Y10139934D01*
X963828Y10128402D01*
X972616Y10117988D01*
X982726Y10108844D01*
X994003Y10101122D01*
G37*
G36*
X125983Y10113670D02*
G01*
X178308Y10113670D01*
X178308Y10166096D01*
X167538Y10160152D01*
X155752Y10151618D01*
X145186Y10141661D01*
X135890Y10130434D01*
X128066Y10118140D01*
G37*
G36*
X280974Y10113670D02*
G01*
X333298Y10113670D01*
X331216Y10118140D01*
X323392Y10130434D01*
X314096Y10141661D01*
X303530Y10151618D01*
X291744Y10160152D01*
X280974Y10166096D01*
G37*
G36*
X-483971Y10183164D02*
G01*
X-474421Y10184384D01*
X-465175Y10187228D01*
X-456590Y10191546D01*
X-448818Y10197287D01*
X-442112Y10204246D01*
X-436727Y10212273D01*
X-432765Y10221061D01*
X-430326Y10230358D01*
X-429615Y10238790D01*
X-428701Y10242194D01*
X-426669Y10245090D01*
X-297383Y10374376D01*
X-294081Y10376611D01*
X-290169Y10377373D01*
X208483Y10377373D01*
X212140Y10376712D01*
X215239Y10374782D01*
X217525Y10371886D01*
X220471Y10366146D01*
X228041Y10355478D01*
X236982Y10345928D01*
X247142Y10337647D01*
X258317Y10330840D01*
X270306Y10325608D01*
X282905Y10322102D01*
X295859Y10320324D01*
X308965Y10320324D01*
X321919Y10322102D01*
X334518Y10325608D01*
X346506Y10330840D01*
X357682Y10337647D01*
X367842Y10345928D01*
X376783Y10355478D01*
X384352Y10366146D01*
X385724Y10368788D01*
X387959Y10371683D01*
X391109Y10373614D01*
X394716Y10374274D01*
X533908Y10374274D01*
X537616Y10373563D01*
X540816Y10371582D01*
X543052Y10368584D01*
X547319Y10359948D01*
X554990Y10348417D01*
X564134Y10338003D01*
X574548Y10328859D01*
X586079Y10321188D01*
X598474Y10315041D01*
X611632Y10310622D01*
X625195Y10307929D01*
X639013Y10307015D01*
X652830Y10307929D01*
X666394Y10310622D01*
X679551Y10315041D01*
X691946Y10321188D01*
X703478Y10328859D01*
X713892Y10338003D01*
X723036Y10348417D01*
X730707Y10359948D01*
X736854Y10372344D01*
X741273Y10385501D01*
X744016Y10399064D01*
X744880Y10412882D01*
X744016Y10426700D01*
X741273Y10440314D01*
X736854Y10453420D01*
X730707Y10465816D01*
X723036Y10477347D01*
X713892Y10487761D01*
X703478Y10496905D01*
X691946Y10504576D01*
X679551Y10510723D01*
X666394Y10515142D01*
X652830Y10517886D01*
X639013Y10518749D01*
X625195Y10517886D01*
X611632Y10515142D01*
X598474Y10510723D01*
X586079Y10504576D01*
X574548Y10496905D01*
X564134Y10487761D01*
X554990Y10477347D01*
X547319Y10465816D01*
X543052Y10457180D01*
X540766Y10454182D01*
X537616Y10452201D01*
X533908Y10451490D01*
X397916Y10451490D01*
X394309Y10452150D01*
X391160Y10454081D01*
X388924Y10456976D01*
X384352Y10465816D01*
X376783Y10476484D01*
X367842Y10486034D01*
X357682Y10494314D01*
X346506Y10501122D01*
X334518Y10506303D01*
X321919Y10509859D01*
X308965Y10511637D01*
X295859Y10511637D01*
X282905Y10509859D01*
X270306Y10506303D01*
X258317Y10501122D01*
X247142Y10494314D01*
X236982Y10486034D01*
X228041Y10476484D01*
X220471Y10465816D01*
X217525Y10460075D01*
X215239Y10457180D01*
X212140Y10455249D01*
X208483Y10454589D01*
X-309880Y10454589D01*
X-317906Y10453776D01*
X-325120Y10451592D01*
X-331825Y10448036D01*
X-338023Y10442905D01*
X-481380Y10299598D01*
X-484479Y10297464D01*
X-488137Y10296652D01*
X-493623Y10296398D01*
X-503021Y10294366D01*
X-512013Y10290759D01*
X-520192Y10285730D01*
X-527456Y10279329D01*
X-533501Y10271810D01*
X-538226Y10263428D01*
X-541426Y10254335D01*
X-543052Y10244785D01*
X-543052Y10235184D01*
X-541426Y10225633D01*
X-538226Y10216540D01*
X-533501Y10208158D01*
X-527456Y10200640D01*
X-520192Y10194239D01*
X-512013Y10189210D01*
X-503021Y10185603D01*
X-493623Y10183571D01*
G37*
G36*
X-1600657Y10205212D02*
G01*
X-1552041Y10205212D01*
X-1555292Y10211816D01*
X-1562963Y10223347D01*
X-1572107Y10233761D01*
X-1582521Y10242905D01*
X-1594053Y10250576D01*
X-1600657Y10253827D01*
G37*
G36*
X-1741932Y10205212D02*
G01*
X-1693316Y10205212D01*
X-1693316Y10253827D01*
X-1699920Y10250576D01*
X-1711452Y10242905D01*
X-1721866Y10233761D01*
X-1731010Y10223347D01*
X-1738680Y10211816D01*
G37*
G36*
X1090472Y10233406D02*
G01*
X1137818Y10233406D01*
X1132078Y10243921D01*
X1123950Y10254894D01*
X1114501Y10264698D01*
X1103782Y10273131D01*
X1092047Y10280091D01*
X1090472Y10280751D01*
G37*
G36*
X954227Y10233406D02*
G01*
X1001572Y10233406D01*
X1001572Y10280751D01*
X999947Y10280091D01*
X988212Y10273131D01*
X977544Y10264698D01*
X968044Y10254894D01*
X959967Y10243921D01*
G37*
G36*
X-1646986Y10307015D02*
G01*
X-1633169Y10307929D01*
X-1619605Y10310622D01*
X-1606448Y10315041D01*
X-1594053Y10321188D01*
X-1582521Y10328859D01*
X-1572107Y10338003D01*
X-1562963Y10348417D01*
X-1555292Y10359948D01*
X-1549146Y10372344D01*
X-1544726Y10385501D01*
X-1541983Y10399064D01*
X-1541119Y10412882D01*
X-1541983Y10426700D01*
X-1544726Y10440314D01*
X-1549146Y10453420D01*
X-1555292Y10465816D01*
X-1562963Y10477347D01*
X-1572107Y10487761D01*
X-1582521Y10496905D01*
X-1594053Y10504576D01*
X-1606448Y10510723D01*
X-1619605Y10515142D01*
X-1633169Y10517886D01*
X-1646986Y10518749D01*
X-1660804Y10517886D01*
X-1674368Y10515142D01*
X-1687525Y10510723D01*
X-1699920Y10504576D01*
X-1711452Y10496905D01*
X-1721866Y10487761D01*
X-1731010Y10477347D01*
X-1738680Y10465816D01*
X-1744827Y10453420D01*
X-1749247Y10440314D01*
X-1751990Y10426700D01*
X-1752854Y10412882D01*
X-1751990Y10399064D01*
X-1749247Y10385501D01*
X-1744827Y10372344D01*
X-1738680Y10359948D01*
X-1731010Y10348417D01*
X-1721866Y10338003D01*
X-1711452Y10328859D01*
X-1699920Y10321188D01*
X-1687525Y10315041D01*
X-1674368Y10310622D01*
X-1660804Y10307929D01*
G37*
G36*
X-519836Y10329672D02*
G01*
X-517093Y10330840D01*
X-505917Y10337647D01*
X-495757Y10345928D01*
X-486816Y10355478D01*
X-479247Y10366146D01*
X-474878Y10374630D01*
X-519836Y10374630D01*
G37*
G36*
X-602538Y10329672D02*
G01*
X-602538Y10374630D01*
X-647496Y10374630D01*
X-643128Y10366146D01*
X-635558Y10355478D01*
X-626618Y10345928D01*
X-616458Y10337647D01*
X-605282Y10330840D01*
G37*
G36*
X1046022Y10340898D02*
G01*
X1059637Y10341813D01*
X1072997Y10344505D01*
X1085850Y10348976D01*
X1098042Y10355122D01*
X1109268Y10362844D01*
X1119378Y10371988D01*
X1128217Y10382402D01*
X1135532Y10393934D01*
X1141272Y10406278D01*
X1145336Y10419334D01*
X1147572Y10432745D01*
X1148029Y10446410D01*
X1146657Y10459974D01*
X1143508Y10473232D01*
X1138631Y10485932D01*
X1132078Y10497921D01*
X1123950Y10508894D01*
X1114501Y10518698D01*
X1103782Y10527131D01*
X1092047Y10534091D01*
X1079500Y10539425D01*
X1066342Y10543032D01*
X1052830Y10544860D01*
X1039215Y10544860D01*
X1025652Y10543032D01*
X1012545Y10539425D01*
X999947Y10534091D01*
X988212Y10527131D01*
X977544Y10518698D01*
X968044Y10508894D01*
X959967Y10497921D01*
X953414Y10485932D01*
X948486Y10473232D01*
X945337Y10459974D01*
X943965Y10446410D01*
X944422Y10432745D01*
X946708Y10419334D01*
X950721Y10406278D01*
X956462Y10393934D01*
X963828Y10382402D01*
X972616Y10371988D01*
X982726Y10362844D01*
X994003Y10355122D01*
X1006144Y10348976D01*
X1019048Y10344505D01*
X1032408Y10341813D01*
G37*
G36*
X-2053996Y10427309D02*
G01*
X-2040940Y10428173D01*
X-2028139Y10430865D01*
X-2015794Y10435234D01*
X-2004161Y10441279D01*
X-1993493Y10448798D01*
X-1983892Y10457738D01*
X-1975662Y10467898D01*
X-1968855Y10479074D01*
X-1963623Y10491063D01*
X-1960118Y10503662D01*
X-1958339Y10516616D01*
X-1958339Y10529722D01*
X-1960118Y10542676D01*
X-1963623Y10555274D01*
X-1968855Y10567314D01*
X-1975662Y10578490D01*
X-1983892Y10588650D01*
X-1993493Y10597540D01*
X-2004161Y10605109D01*
X-2015794Y10611104D01*
X-2028139Y10615523D01*
X-2040940Y10618165D01*
X-2053996Y10619079D01*
X-2067052Y10618165D01*
X-2079853Y10615523D01*
X-2092198Y10611104D01*
X-2103780Y10605109D01*
X-2114499Y10597540D01*
X-2124049Y10588650D01*
X-2132330Y10578490D01*
X-2139137Y10567314D01*
X-2144318Y10555274D01*
X-2147874Y10542676D01*
X-2149652Y10529722D01*
X-2149652Y10516616D01*
X-2147874Y10503662D01*
X-2144318Y10491063D01*
X-2139137Y10479074D01*
X-2132330Y10467898D01*
X-2124049Y10457738D01*
X-2114499Y10448798D01*
X-2103780Y10441279D01*
X-2092198Y10435234D01*
X-2079853Y10430865D01*
X-2067052Y10428173D01*
G37*
G36*
X-519836Y10457332D02*
G01*
X-474878Y10457332D01*
X-479247Y10465816D01*
X-486816Y10476484D01*
X-495757Y10486034D01*
X-505917Y10494314D01*
X-517093Y10501122D01*
X-519836Y10502290D01*
G37*
G36*
X-647496Y10457332D02*
G01*
X-602538Y10457332D01*
X-602538Y10502290D01*
X-605282Y10501122D01*
X-616458Y10494314D01*
X-626618Y10486034D01*
X-635558Y10476484D01*
X-643128Y10465816D01*
G37*
G36*
X-1646986Y10561015D02*
G01*
X-1633169Y10561929D01*
X-1619605Y10564622D01*
X-1606448Y10569041D01*
X-1594053Y10575188D01*
X-1582521Y10582859D01*
X-1572107Y10592003D01*
X-1562963Y10602417D01*
X-1555292Y10613948D01*
X-1549146Y10626344D01*
X-1544726Y10639501D01*
X-1541983Y10653064D01*
X-1541119Y10666882D01*
X-1541983Y10680700D01*
X-1544726Y10694314D01*
X-1549146Y10707420D01*
X-1555292Y10719816D01*
X-1562963Y10731347D01*
X-1572107Y10741761D01*
X-1582521Y10750905D01*
X-1594053Y10758576D01*
X-1606448Y10764723D01*
X-1619605Y10769142D01*
X-1633169Y10771886D01*
X-1646986Y10772749D01*
X-1660804Y10771886D01*
X-1674368Y10769142D01*
X-1687525Y10764723D01*
X-1699920Y10758576D01*
X-1711452Y10750905D01*
X-1721866Y10741761D01*
X-1731010Y10731347D01*
X-1738680Y10719816D01*
X-1744827Y10707420D01*
X-1749247Y10694314D01*
X-1751990Y10680700D01*
X-1752854Y10666882D01*
X-1751990Y10653064D01*
X-1749247Y10639501D01*
X-1744827Y10626344D01*
X-1738680Y10613948D01*
X-1731010Y10602417D01*
X-1721866Y10592003D01*
X-1711452Y10582859D01*
X-1699920Y10575188D01*
X-1687525Y10569041D01*
X-1674368Y10564622D01*
X-1660804Y10561929D01*
G37*
G36*
X-566928Y10570311D02*
G01*
X-553821Y10570311D01*
X-540867Y10572089D01*
X-528269Y10575645D01*
X-516280Y10580827D01*
X-505104Y10587634D01*
X-494944Y10595914D01*
X-486003Y10605465D01*
X-478485Y10616184D01*
X-472440Y10627766D01*
X-468071Y10640110D01*
X-465378Y10652912D01*
X-464515Y10665968D01*
X-465378Y10679023D01*
X-468071Y10691825D01*
X-472440Y10704169D01*
X-478485Y10715802D01*
X-486003Y10726470D01*
X-494944Y10736072D01*
X-505104Y10744301D01*
X-516280Y10751108D01*
X-528269Y10756341D01*
X-540867Y10759846D01*
X-553821Y10761624D01*
X-566928Y10761624D01*
X-579882Y10759846D01*
X-592480Y10756341D01*
X-604520Y10751108D01*
X-615696Y10744301D01*
X-625856Y10736072D01*
X-634746Y10726470D01*
X-642315Y10715802D01*
X-648309Y10704169D01*
X-652729Y10691825D01*
X-655370Y10679023D01*
X-656285Y10665968D01*
X-655370Y10652912D01*
X-652729Y10640110D01*
X-648309Y10627766D01*
X-642315Y10616184D01*
X-634746Y10605465D01*
X-625856Y10595914D01*
X-615696Y10587634D01*
X-604520Y10580827D01*
X-592480Y10575645D01*
X-579882Y10572089D01*
G37*
G36*
X-1646986Y10815015D02*
G01*
X-1633169Y10815929D01*
X-1619605Y10818622D01*
X-1606448Y10823041D01*
X-1594053Y10829188D01*
X-1582521Y10836859D01*
X-1572107Y10846003D01*
X-1562963Y10856417D01*
X-1555292Y10867948D01*
X-1549146Y10880344D01*
X-1544726Y10893501D01*
X-1541983Y10907064D01*
X-1541119Y10920882D01*
X-1541983Y10934700D01*
X-1544726Y10948314D01*
X-1549146Y10961420D01*
X-1555292Y10973816D01*
X-1562963Y10985347D01*
X-1572107Y10995761D01*
X-1582521Y11004905D01*
X-1594053Y11012576D01*
X-1606448Y11018723D01*
X-1619605Y11023142D01*
X-1633169Y11025886D01*
X-1646986Y11026749D01*
X-1660804Y11025886D01*
X-1674368Y11023142D01*
X-1687525Y11018723D01*
X-1699920Y11012576D01*
X-1711452Y11004905D01*
X-1721866Y10995761D01*
X-1731010Y10985347D01*
X-1738680Y10973816D01*
X-1744827Y10961420D01*
X-1749247Y10948314D01*
X-1751990Y10934700D01*
X-1752854Y10920882D01*
X-1751990Y10907064D01*
X-1749247Y10893501D01*
X-1744827Y10880344D01*
X-1738680Y10867948D01*
X-1731010Y10856417D01*
X-1721866Y10846003D01*
X-1711452Y10836859D01*
X-1699920Y10829188D01*
X-1687525Y10823041D01*
X-1674368Y10818622D01*
X-1660804Y10815929D01*
G37*
G36*
X-1600657Y11079937D02*
G01*
X-1594053Y11083188D01*
X-1582521Y11090859D01*
X-1572107Y11100003D01*
X-1562963Y11110417D01*
X-1555292Y11121948D01*
X-1552041Y11128552D01*
X-1600657Y11128552D01*
G37*
G36*
X-1693316Y11079937D02*
G01*
X-1693316Y11128552D01*
X-1741932Y11128552D01*
X-1738680Y11121948D01*
X-1731010Y11110417D01*
X-1721866Y11100003D01*
X-1711452Y11090859D01*
X-1699920Y11083188D01*
G37*
G36*
X1097381Y11139322D02*
G01*
X1101852Y11141405D01*
X1114145Y11149228D01*
X1125321Y11158524D01*
X1135278Y11169091D01*
X1143863Y11180876D01*
X1149756Y11191646D01*
X1097381Y11191646D01*
G37*
G36*
X994664Y11139322D02*
G01*
X994664Y11191646D01*
X942238Y11191646D01*
X948182Y11180876D01*
X956716Y11169091D01*
X966673Y11158524D01*
X977900Y11149228D01*
X990193Y11141405D01*
G37*
G36*
X-2005126Y11162690D02*
G01*
X-1999589Y11165382D01*
X-1987651Y11173104D01*
X-1976831Y11182299D01*
X-1967280Y11192865D01*
X-1959152Y11204498D01*
X-1954631Y11213134D01*
X-2005126Y11213134D01*
G37*
G36*
X-2102815Y11162690D02*
G01*
X-2102815Y11213134D01*
X-2153310Y11213134D01*
X-2148789Y11204498D01*
X-2140661Y11192865D01*
X-2131110Y11182299D01*
X-2120290Y11173104D01*
X-2108403Y11165382D01*
G37*
G36*
X-1741932Y11221212D02*
G01*
X-1693316Y11221212D01*
X-1693316Y11269827D01*
X-1699920Y11266576D01*
X-1711452Y11258905D01*
X-1721866Y11249761D01*
X-1731010Y11239347D01*
X-1738680Y11227816D01*
G37*
G36*
X-1600657Y11221212D02*
G01*
X-1552041Y11221212D01*
X-1555292Y11227816D01*
X-1562963Y11239347D01*
X-1572107Y11249761D01*
X-1582521Y11258905D01*
X-1594053Y11266576D01*
X-1600657Y11269827D01*
G37*
G36*
X1097381Y11294313D02*
G01*
X1149756Y11294313D01*
X1143863Y11305082D01*
X1135278Y11316868D01*
X1125321Y11327434D01*
X1114145Y11336731D01*
X1101852Y11344554D01*
X1097381Y11346637D01*
G37*
G36*
X942238Y11294313D02*
G01*
X994664Y11294313D01*
X994664Y11346637D01*
X990193Y11344554D01*
X977900Y11336731D01*
X966673Y11327434D01*
X956716Y11316868D01*
X948182Y11305082D01*
G37*
G36*
X-2005126Y11310823D02*
G01*
X-1954580Y11310823D01*
X-1955647Y11313261D01*
X-1963013Y11325402D01*
X-1971903Y11336528D01*
X-1982114Y11346434D01*
X-1993493Y11354917D01*
X-2005126Y11361470D01*
G37*
G36*
X-2153361Y11310823D02*
G01*
X-2102815Y11310823D01*
X-2102815Y11361470D01*
X-2114499Y11354917D01*
X-2125878Y11346434D01*
X-2136089Y11336528D01*
X-2144928Y11325402D01*
X-2152294Y11313261D01*
G37*
G36*
X-206959Y11335156D02*
G01*
X-195122Y11335562D01*
X-183540Y11337747D01*
X-172364Y11341557D01*
X-161848Y11346942D01*
X-152247Y11353800D01*
X-143764Y11362029D01*
X-136550Y11371376D01*
X-130759Y11381638D01*
X-126542Y11392662D01*
X-123952Y11404193D01*
X-123088Y11415979D01*
X-123952Y11427764D01*
X-126542Y11439296D01*
X-130759Y11450320D01*
X-136550Y11460581D01*
X-143764Y11469928D01*
X-152247Y11478158D01*
X-161848Y11485016D01*
X-172364Y11490401D01*
X-183540Y11494211D01*
X-195122Y11496395D01*
X-206959Y11496802D01*
X-218694Y11495532D01*
X-230124Y11492534D01*
X-240944Y11487912D01*
X-251053Y11481765D01*
X-260146Y11474196D01*
X-268020Y11465407D01*
X-274523Y11455552D01*
X-279552Y11444884D01*
X-282956Y11433556D01*
X-284632Y11421872D01*
X-284632Y11410086D01*
X-282956Y11398402D01*
X-279552Y11387074D01*
X-274523Y11376406D01*
X-268020Y11366550D01*
X-260146Y11357762D01*
X-251053Y11350193D01*
X-240944Y11344046D01*
X-230124Y11339423D01*
X-218694Y11336426D01*
G37*
G36*
X-1337818Y11342674D02*
G01*
X-1337818Y11382146D01*
X-1377391Y11382146D01*
X-1371447Y11371376D01*
X-1364234Y11362029D01*
X-1355699Y11353800D01*
X-1346098Y11346942D01*
G37*
G36*
X-787857Y11342674D02*
G01*
X-787857Y11382146D01*
X-827379Y11382146D01*
X-821436Y11371376D01*
X-814222Y11362029D01*
X-805738Y11353800D01*
X-796137Y11346942D01*
G37*
G36*
X29870Y11342674D02*
G01*
X38150Y11346942D01*
X47752Y11353800D01*
X56235Y11362029D01*
X63449Y11371376D01*
X69443Y11382146D01*
X29870Y11382146D01*
G37*
G36*
X-720140Y11342725D02*
G01*
X-716991Y11344046D01*
X-706932Y11350193D01*
X-697839Y11357762D01*
X-689965Y11366550D01*
X-683463Y11376406D01*
X-680770Y11382146D01*
X-720140Y11382146D01*
G37*
G36*
X-1270152Y11342725D02*
G01*
X-1267002Y11344046D01*
X-1256944Y11350193D01*
X-1247851Y11357762D01*
X-1239977Y11366550D01*
X-1233474Y11376406D01*
X-1230782Y11382146D01*
X-1270152Y11382146D01*
G37*
G36*
X-37846Y11342725D02*
G01*
X-37846Y11382146D01*
X-77216Y11382146D01*
X-74523Y11376406D01*
X-68021Y11366550D01*
X-60147Y11357762D01*
X-51054Y11350193D01*
X-40944Y11344046D01*
G37*
G36*
X-2053996Y11405108D02*
G01*
X-2039823Y11406022D01*
X-2025853Y11408714D01*
X-2012391Y11413185D01*
X-1999589Y11419382D01*
X-1987651Y11427104D01*
X-1976831Y11436299D01*
X-1967280Y11446865D01*
X-1959152Y11458498D01*
X-1952599Y11471097D01*
X-1947672Y11484406D01*
X-1944522Y11498275D01*
X-1943150Y11512448D01*
X-1943607Y11526621D01*
X-1945893Y11540642D01*
X-1949907Y11554256D01*
X-1955647Y11567261D01*
X-1963013Y11579402D01*
X-1971903Y11590528D01*
X-1982114Y11600434D01*
X-1993493Y11608917D01*
X-2005888Y11615877D01*
X-2019046Y11621211D01*
X-2032762Y11624818D01*
X-2046884Y11626646D01*
X-2061108Y11626646D01*
X-2075180Y11624818D01*
X-2088946Y11621211D01*
X-2102104Y11615877D01*
X-2114499Y11608917D01*
X-2125878Y11600434D01*
X-2136089Y11590528D01*
X-2144928Y11579402D01*
X-2152294Y11567261D01*
X-2158034Y11554256D01*
X-2162098Y11540642D01*
X-2164334Y11526621D01*
X-2164791Y11512448D01*
X-2163470Y11498275D01*
X-2160270Y11484406D01*
X-2155393Y11471097D01*
X-2148789Y11458498D01*
X-2140661Y11446865D01*
X-2131110Y11436299D01*
X-2120290Y11427104D01*
X-2108403Y11419382D01*
X-2095601Y11413185D01*
X-2082088Y11408714D01*
X-2068169Y11406022D01*
G37*
G36*
X-1270152Y11449812D02*
G01*
X-1230782Y11449812D01*
X-1233474Y11455552D01*
X-1239977Y11465407D01*
X-1247851Y11474196D01*
X-1256944Y11481765D01*
X-1267002Y11487912D01*
X-1270152Y11489232D01*
G37*
G36*
X-77216Y11449812D02*
G01*
X-37846Y11449812D01*
X-37846Y11489232D01*
X-40944Y11487912D01*
X-51054Y11481765D01*
X-60147Y11474196D01*
X-68021Y11465407D01*
X-74523Y11455552D01*
G37*
G36*
X-720140Y11449812D02*
G01*
X-680770Y11449812D01*
X-683463Y11455552D01*
X-689965Y11465407D01*
X-697839Y11474196D01*
X-706932Y11481765D01*
X-716991Y11487912D01*
X-720140Y11489232D01*
G37*
G36*
X-827379Y11449812D02*
G01*
X-787857Y11449812D01*
X-787857Y11489283D01*
X-796137Y11485016D01*
X-805738Y11478158D01*
X-814222Y11469928D01*
X-821436Y11460581D01*
G37*
G36*
X29870Y11449812D02*
G01*
X69443Y11449812D01*
X63449Y11460581D01*
X56235Y11469928D01*
X47752Y11478158D01*
X38150Y11485016D01*
X29870Y11489283D01*
G37*
G36*
X956564Y11623090D02*
G01*
X1135430Y11623090D01*
X1141780Y11623802D01*
X1147216Y11625681D01*
X1152144Y11628780D01*
X1156208Y11632844D01*
X1159306Y11637772D01*
X1161186Y11643207D01*
X1161897Y11649557D01*
X1161897Y11828424D01*
X1161186Y11834723D01*
X1159306Y11840210D01*
X1156208Y11845086D01*
X1152144Y11849201D01*
X1147216Y11852249D01*
X1141780Y11854180D01*
X1135430Y11854891D01*
X956564Y11854891D01*
X950264Y11854180D01*
X944778Y11852249D01*
X939901Y11849201D01*
X935786Y11845086D01*
X932738Y11840210D01*
X930808Y11834723D01*
X930097Y11828424D01*
X930097Y11649557D01*
X930808Y11643207D01*
X932738Y11637772D01*
X935786Y11632844D01*
X939901Y11628780D01*
X944778Y11625681D01*
X950264Y11623802D01*
G37*
G36*
X-2138426Y11659057D02*
G01*
X-1969566Y11659057D01*
X-1963216Y11659768D01*
X-1957781Y11661698D01*
X-1952853Y11664797D01*
X-1948789Y11668861D01*
X-1945690Y11673789D01*
X-1943811Y11679224D01*
X-1943100Y11685574D01*
X-1943100Y11854383D01*
X-1943811Y11860733D01*
X-1945690Y11866168D01*
X-1948789Y11871096D01*
X-1952853Y11875160D01*
X-1957781Y11878259D01*
X-1963216Y11880189D01*
X-1969566Y11880900D01*
X-2138426Y11880900D01*
X-2144725Y11880189D01*
X-2150211Y11878259D01*
X-2155088Y11875160D01*
X-2159203Y11871096D01*
X-2162251Y11866168D01*
X-2164181Y11860733D01*
X-2164892Y11854383D01*
X-2164892Y11685574D01*
X-2164181Y11679224D01*
X-2162251Y11673789D01*
X-2159203Y11668861D01*
X-2155088Y11664797D01*
X-2150211Y11661698D01*
X-2144725Y11659768D01*
G37*
G36*
X1097381Y11889333D02*
G01*
X1101852Y11891416D01*
X1114145Y11899239D01*
X1125321Y11908485D01*
X1135278Y11919102D01*
X1143863Y11930888D01*
X1149756Y11941606D01*
X1097381Y11941606D01*
G37*
G36*
X994664Y11889333D02*
G01*
X994664Y11941606D01*
X942238Y11941606D01*
X948182Y11930888D01*
X956716Y11919102D01*
X966673Y11908485D01*
X977900Y11899239D01*
X990193Y11891416D01*
G37*
G36*
X-1823415Y11970054D02*
G01*
X-1684578Y11970054D01*
X-1678228Y11970766D01*
X-1672793Y11972696D01*
X-1667865Y11975795D01*
X-1663801Y11979859D01*
X-1660702Y11984786D01*
X-1658772Y11990222D01*
X-1658061Y11996572D01*
X-1658061Y12135408D01*
X-1658772Y12141708D01*
X-1660702Y12147194D01*
X-1663801Y12152071D01*
X-1667865Y12156186D01*
X-1672793Y12159284D01*
X-1678228Y12161164D01*
X-1684578Y12161875D01*
X-1823415Y12161875D01*
X-1829714Y12161164D01*
X-1835200Y12159284D01*
X-1840077Y12156186D01*
X-1844192Y12152071D01*
X-1847291Y12147194D01*
X-1849170Y12141708D01*
X-1849882Y12135408D01*
X-1849882Y12114733D01*
X-1850898Y12110364D01*
X-1853641Y12106808D01*
X-1857654Y12104827D01*
X-1862124Y12104776D01*
X-1866188Y12106605D01*
X-1869084Y12110059D01*
X-1872081Y12115800D01*
X-1879600Y12126468D01*
X-1888540Y12136069D01*
X-1898700Y12144298D01*
X-1909876Y12151106D01*
X-1921865Y12156338D01*
X-1934464Y12159843D01*
X-1947418Y12161621D01*
X-1960524Y12161621D01*
X-1973478Y12159843D01*
X-1986076Y12156338D01*
X-1998116Y12151106D01*
X-2009292Y12144298D01*
X-2019452Y12136069D01*
X-2028342Y12126468D01*
X-2035911Y12115800D01*
X-2041906Y12104166D01*
X-2044395Y12097207D01*
X-2045360Y12095683D01*
X-2048967Y12079020D01*
X-2049881Y12065965D01*
X-2048967Y12052909D01*
X-2046325Y12040108D01*
X-2045360Y12036298D01*
X-2044395Y12034774D01*
X-2041906Y12027763D01*
X-2035911Y12016181D01*
X-2028342Y12005462D01*
X-2019452Y11995912D01*
X-2009292Y11987631D01*
X-1998116Y11980824D01*
X-1986076Y11975642D01*
X-1973478Y11972086D01*
X-1960524Y11970308D01*
X-1947418Y11970308D01*
X-1934464Y11972086D01*
X-1921865Y11975642D01*
X-1909876Y11980824D01*
X-1898700Y11987631D01*
X-1888540Y11995912D01*
X-1879600Y12005462D01*
X-1872081Y12016181D01*
X-1869084Y12021921D01*
X-1866188Y12025325D01*
X-1862124Y12027204D01*
X-1857654Y12027103D01*
X-1853641Y12025122D01*
X-1850898Y12021616D01*
X-1849882Y12017248D01*
X-1849882Y11996572D01*
X-1849170Y11990222D01*
X-1847291Y11984786D01*
X-1844192Y11979859D01*
X-1840077Y11975795D01*
X-1835200Y11972696D01*
X-1829714Y11970766D01*
G37*
G36*
X-2112619Y11979656D02*
G01*
X-2109876Y11980824D01*
X-2098700Y11987631D01*
X-2088540Y11995912D01*
X-2079599Y12005462D01*
X-2072081Y12016181D01*
X-2067661Y12024614D01*
X-2112619Y12024614D01*
G37*
G36*
X942238Y12044324D02*
G01*
X994664Y12044324D01*
X994664Y12096648D01*
X990193Y12094514D01*
X977900Y12086742D01*
X966673Y12077446D01*
X956716Y12066828D01*
X948182Y12055094D01*
G37*
G36*
X1097381Y12044324D02*
G01*
X1149756Y12044324D01*
X1143863Y12055094D01*
X1135278Y12066828D01*
X1125321Y12077446D01*
X1114145Y12086742D01*
X1101852Y12094514D01*
X1097381Y12096648D01*
G37*
G36*
X-2112619Y12107316D02*
G01*
X-2067661Y12107316D01*
X-2072081Y12115800D01*
X-2079599Y12126468D01*
X-2088540Y12136069D01*
X-2098700Y12144298D01*
X-2109876Y12151106D01*
X-2112619Y12152325D01*
G37*
G36*
X-515924Y12640056D02*
G01*
X-417068Y12640056D01*
X-410718Y12640767D01*
X-405282Y12642697D01*
X-400405Y12645745D01*
X-395376Y12650825D01*
X-391769Y12653162D01*
X-387502Y12653822D01*
X-383336Y12652603D01*
X-372821Y12646914D01*
X-372821Y12684607D01*
X-380441Y12684607D01*
X-384302Y12685420D01*
X-387604Y12687604D01*
X-389788Y12690906D01*
X-390601Y12694767D01*
X-390601Y12737185D01*
X-389788Y12741046D01*
X-387604Y12744348D01*
X-384302Y12746532D01*
X-380441Y12747345D01*
X-372821Y12747345D01*
X-372821Y12785039D01*
X-383336Y12779349D01*
X-387502Y12778130D01*
X-391769Y12778790D01*
X-395427Y12781127D01*
X-400405Y12786207D01*
X-405282Y12789255D01*
X-410718Y12791186D01*
X-417068Y12791897D01*
X-515924Y12791897D01*
X-522224Y12791186D01*
X-527710Y12789255D01*
X-532587Y12786156D01*
X-536702Y12782092D01*
X-539800Y12777165D01*
X-541680Y12771729D01*
X-542391Y12765379D01*
X-542391Y12666522D01*
X-541680Y12660223D01*
X-539800Y12654737D01*
X-536702Y12649860D01*
X-532587Y12645745D01*
X-527710Y12642697D01*
X-522224Y12640767D01*
G37*
G36*
X-310134Y12647117D02*
G01*
X-305257Y12649301D01*
X-295503Y12655651D01*
X-286816Y12663373D01*
X-279450Y12672314D01*
X-273507Y12682321D01*
X-272542Y12684607D01*
X-310134Y12684607D01*
G37*
G36*
X-310134Y12747345D02*
G01*
X-272542Y12747345D01*
X-273507Y12749631D01*
X-279450Y12759639D01*
X-286816Y12768580D01*
X-295503Y12776301D01*
X-305257Y12782651D01*
X-310134Y12784836D01*
G37*
G36*
X-1225092Y12774168D02*
G01*
X-1225092Y12821513D01*
X-1272438Y12821513D01*
X-1266698Y12811048D01*
X-1258620Y12800076D01*
X-1249121Y12790271D01*
X-1238402Y12781788D01*
X-1226667Y12774879D01*
G37*
G36*
X-1136192Y12774168D02*
G01*
X-1134618Y12774879D01*
X-1122883Y12781788D01*
X-1112164Y12790271D01*
X-1102664Y12800076D01*
X-1094587Y12811048D01*
X-1088847Y12821513D01*
X-1136192Y12821513D01*
G37*

%LPD*%
G36*
X87782Y6915962D02*
G01*
X83972Y6916724D01*
X80721Y6918807D01*
X78486Y6921957D01*
X77622Y6925716D01*
X78181Y6929526D01*
X81940Y6940143D01*
X84582Y6952945D01*
X85496Y6966000D01*
X84582Y6979056D01*
X81940Y6991858D01*
X77571Y7004202D01*
X71526Y7015784D01*
X64008Y7026503D01*
X55067Y7036053D01*
X44907Y7044334D01*
X33731Y7051141D01*
X21742Y7056323D01*
X9144Y7059879D01*
X-3860Y7061657D01*
X-16916Y7061657D01*
X-29921Y7059879D01*
X-42519Y7056323D01*
X-54508Y7051141D01*
X-65684Y7044334D01*
X-72796Y7038543D01*
X-76149Y7036714D01*
X-79908Y7036257D01*
X-83566Y7037222D01*
X-86664Y7039457D01*
X-88696Y7042658D01*
X-89357Y7046417D01*
X-89357Y7078980D01*
X-88595Y7082891D01*
X-86410Y7086193D01*
X-50342Y7122210D01*
X-47396Y7124293D01*
X-43942Y7125157D01*
X-40436Y7124852D01*
X-30683Y7122109D01*
X-17729Y7120331D01*
X-4622Y7120331D01*
X8331Y7122109D01*
X20929Y7125614D01*
X32918Y7130846D01*
X44094Y7137653D01*
X54254Y7145934D01*
X63195Y7155484D01*
X70713Y7166152D01*
X76758Y7177786D01*
X81127Y7190130D01*
X83820Y7202931D01*
X84683Y7215987D01*
X83820Y7229043D01*
X81127Y7241844D01*
X76758Y7254189D01*
X70713Y7265822D01*
X63195Y7276490D01*
X54254Y7286040D01*
X44094Y7294321D01*
X32918Y7301128D01*
X20929Y7306309D01*
X8331Y7309866D01*
X-4622Y7311644D01*
X-17729Y7311644D01*
X-30683Y7309866D01*
X-43281Y7306309D01*
X-55321Y7301128D01*
X-66497Y7294321D01*
X-76657Y7286040D01*
X-85547Y7276490D01*
X-93116Y7265822D01*
X-99110Y7254189D01*
X-103530Y7241844D01*
X-106172Y7229043D01*
X-107086Y7215987D01*
X-106172Y7202931D01*
X-103530Y7190130D01*
X-102565Y7187438D01*
X-101955Y7183678D01*
X-102819Y7179970D01*
X-104952Y7176820D01*
X-111201Y7170572D01*
X-115011Y7168184D01*
X-119430Y7167625D01*
X-123698Y7169048D01*
X-126898Y7172147D01*
X-128473Y7176363D01*
X-130098Y7188301D01*
X-133654Y7200900D01*
X-138836Y7212888D01*
X-145643Y7224064D01*
X-153924Y7234224D01*
X-163474Y7243165D01*
X-174142Y7250734D01*
X-185775Y7256729D01*
X-198120Y7261098D01*
X-210921Y7263790D01*
X-223977Y7264653D01*
X-237032Y7263790D01*
X-249834Y7261098D01*
X-262178Y7256729D01*
X-273812Y7250734D01*
X-284480Y7243165D01*
X-294081Y7234224D01*
X-302310Y7224064D01*
X-309118Y7212888D01*
X-314350Y7200900D01*
X-317855Y7188301D01*
X-319074Y7183221D01*
X-321005Y7180580D01*
X-363728Y7137857D01*
X-367436Y7135469D01*
X-371856Y7134910D01*
X-376021Y7136282D01*
X-379272Y7139279D01*
X-380949Y7143343D01*
X-380695Y7147763D01*
X-380034Y7150100D01*
X-378256Y7163053D01*
X-378256Y7176160D01*
X-380034Y7189114D01*
X-383590Y7201712D01*
X-388772Y7213701D01*
X-395579Y7224928D01*
X-403860Y7235037D01*
X-413410Y7243978D01*
X-424078Y7251547D01*
X-435711Y7257542D01*
X-448056Y7261961D01*
X-460857Y7264603D01*
X-473913Y7265517D01*
X-486968Y7264603D01*
X-499770Y7261961D01*
X-502513Y7260996D01*
X-506222Y7260386D01*
X-509930Y7261250D01*
X-513080Y7263384D01*
X-546557Y7296810D01*
X-552754Y7301941D01*
X-559460Y7305497D01*
X-566674Y7307681D01*
X-574700Y7308494D01*
X-805434Y7308494D01*
X-809142Y7309205D01*
X-812342Y7311237D01*
X-814628Y7314285D01*
X-815543Y7317994D01*
X-815086Y7321753D01*
X-809142Y7332421D01*
X-806958Y7339685D01*
X-806196Y7347661D01*
X-806196Y7955686D01*
X-805434Y7959496D01*
X-803300Y7962747D01*
X-800049Y7964982D01*
X-796239Y7965846D01*
X-792378Y7965135D01*
X-789076Y7963103D01*
X-784504Y7958785D01*
X-773785Y7951266D01*
X-762203Y7945221D01*
X-749858Y7940852D01*
X-737057Y7938211D01*
X-724001Y7937296D01*
X-710946Y7938211D01*
X-698093Y7940852D01*
X-685800Y7945221D01*
X-674166Y7951266D01*
X-663498Y7958785D01*
X-653897Y7967725D01*
X-645668Y7977886D01*
X-638860Y7989062D01*
X-633628Y8001101D01*
X-630123Y8013700D01*
X-628345Y8026653D01*
X-628345Y8039709D01*
X-630123Y8052714D01*
X-633628Y8065312D01*
X-638860Y8077301D01*
X-645668Y8088477D01*
X-653897Y8098637D01*
X-663498Y8107578D01*
X-674166Y8115096D01*
X-685800Y8121142D01*
X-698093Y8125510D01*
X-710946Y8128203D01*
X-724001Y8129066D01*
X-737057Y8128203D01*
X-749858Y8125510D01*
X-762203Y8121142D01*
X-773785Y8115096D01*
X-784504Y8107578D01*
X-789076Y8103260D01*
X-792378Y8101228D01*
X-796239Y8100568D01*
X-800049Y8101380D01*
X-803300Y8103616D01*
X-805434Y8106867D01*
X-806196Y8110728D01*
X-806196Y8424875D01*
X-805383Y8428786D01*
X-803198Y8432038D01*
X-799896Y8434273D01*
X-796036Y8435035D01*
X-467106Y8435035D01*
X-462788Y8434070D01*
X-459282Y8431326D01*
X-457250Y8427415D01*
X-457098Y8422995D01*
X-458876Y8418880D01*
X-462229Y8415985D01*
X-466090Y8413851D01*
X-477875Y8405266D01*
X-488492Y8395309D01*
X-497738Y8384082D01*
X-505561Y8371840D01*
X-507644Y8367318D01*
X-455371Y8367318D01*
X-455371Y8424875D01*
X-454558Y8428786D01*
X-452374Y8432038D01*
X-449072Y8434273D01*
X-445211Y8435035D01*
X-362813Y8435035D01*
X-358902Y8434273D01*
X-355650Y8432038D01*
X-353415Y8428786D01*
X-352653Y8424875D01*
X-352653Y8367318D01*
X-300329Y8367318D01*
X-302463Y8371840D01*
X-310235Y8384082D01*
X-319532Y8395309D01*
X-330149Y8405266D01*
X-341884Y8413851D01*
X-345795Y8415985D01*
X-349097Y8418880D01*
X-350875Y8422995D01*
X-350723Y8427415D01*
X-348742Y8431326D01*
X-345236Y8434070D01*
X-340918Y8435035D01*
X-71475Y8435035D01*
X-67564Y8434273D01*
X-64262Y8432038D01*
X-10109Y8377885D01*
X-7873Y8374481D01*
X-7162Y8370417D01*
X-8128Y8366404D01*
X-11734Y8358631D01*
X-16256Y8344814D01*
X-18999Y8330488D01*
X-19913Y8315959D01*
X-18999Y8301481D01*
X-16256Y8287156D01*
X-11734Y8273338D01*
X-5537Y8260130D01*
X2235Y8247888D01*
X11531Y8236661D01*
X22148Y8226704D01*
X33883Y8218119D01*
X46634Y8211108D01*
X51003Y8209432D01*
X54356Y8207248D01*
X56591Y8203895D01*
X57404Y8199983D01*
X57404Y7943850D01*
X56743Y7940192D01*
X54762Y7937042D01*
X51816Y7934756D01*
X43992Y7930845D01*
X32766Y7923123D01*
X22606Y7913979D01*
X13817Y7903565D01*
X6502Y7892034D01*
X762Y7879689D01*
X-3302Y7866634D01*
X-5537Y7853222D01*
X-5994Y7839557D01*
X-4673Y7825994D01*
X-1473Y7812735D01*
X3403Y7800035D01*
X9956Y7788046D01*
X18034Y7777073D01*
X27533Y7767269D01*
X38252Y7758836D01*
X49987Y7751876D01*
X62534Y7746542D01*
X75692Y7742936D01*
X89204Y7741107D01*
X102819Y7741107D01*
X116332Y7742936D01*
X129489Y7746542D01*
X142036Y7751876D01*
X153771Y7758836D01*
X164490Y7767269D01*
X173990Y7777073D01*
X182067Y7788046D01*
X188620Y7800035D01*
X193497Y7812735D01*
X196697Y7825994D01*
X198018Y7839557D01*
X197561Y7853222D01*
X195326Y7866634D01*
X191262Y7879689D01*
X185521Y7892034D01*
X178206Y7903565D01*
X169418Y7913979D01*
X159258Y7923123D01*
X148031Y7930845D01*
X140208Y7934756D01*
X137261Y7937042D01*
X135280Y7940192D01*
X134620Y7943850D01*
X134620Y8199983D01*
X135432Y8203895D01*
X137668Y8207248D01*
X141020Y8209432D01*
X145338Y8211108D01*
X158089Y8218119D01*
X169875Y8226704D01*
X176428Y8232851D01*
X179882Y8234984D01*
X183845Y8235594D01*
X187756Y8234629D01*
X190957Y8232241D01*
X192989Y8228736D01*
X193548Y8224774D01*
X192938Y8215985D01*
X193802Y8202930D01*
X196494Y8190128D01*
X200863Y8177784D01*
X206908Y8166150D01*
X214426Y8155482D01*
X223367Y8145932D01*
X233527Y8137652D01*
X244703Y8130844D01*
X256692Y8125612D01*
X269290Y8122107D01*
X282244Y8120329D01*
X295351Y8120329D01*
X308305Y8122107D01*
X318058Y8124850D01*
X321564Y8125155D01*
X325018Y8124291D01*
X327964Y8122208D01*
X372719Y8077453D01*
X375158Y8073644D01*
X375666Y8069173D01*
X374192Y8064906D01*
X370992Y8061706D01*
X367893Y8059724D01*
X356666Y8050428D01*
X346710Y8039862D01*
X338175Y8028076D01*
X331165Y8015325D01*
X325780Y8001762D01*
X322173Y7987690D01*
X320344Y7973263D01*
X320344Y7958683D01*
X322173Y7944256D01*
X325780Y7930184D01*
X331165Y7916621D01*
X338175Y7903870D01*
X346710Y7892084D01*
X356666Y7881518D01*
X367893Y7872222D01*
X380187Y7864398D01*
X393344Y7858201D01*
X407212Y7853730D01*
X421487Y7850987D01*
X436016Y7850073D01*
X450545Y7850987D01*
X464820Y7853730D01*
X478688Y7858201D01*
X491845Y7864398D01*
X504139Y7872222D01*
X515366Y7881518D01*
X525322Y7892084D01*
X531825Y7901076D01*
X534974Y7903921D01*
X538988Y7905191D01*
X543204Y7904784D01*
X546862Y7902651D01*
X549300Y7899247D01*
X550214Y7895081D01*
X550214Y7536840D01*
X549300Y7532725D01*
X546862Y7529271D01*
X543204Y7527188D01*
X538988Y7526731D01*
X534974Y7528052D01*
X531825Y7530896D01*
X525322Y7539837D01*
X515366Y7550454D01*
X504139Y7559751D01*
X491845Y7567523D01*
X487375Y7569657D01*
X487375Y7517333D01*
X540054Y7517333D01*
X543915Y7516571D01*
X547217Y7514336D01*
X549452Y7511034D01*
X550214Y7507173D01*
X550214Y7424775D01*
X549452Y7420914D01*
X547217Y7417612D01*
X543915Y7415377D01*
X540054Y7414615D01*
X487375Y7414615D01*
X487375Y7362291D01*
X491845Y7364425D01*
X504139Y7372197D01*
X515366Y7381494D01*
X525322Y7392111D01*
X531825Y7401052D01*
X534974Y7403896D01*
X538988Y7405217D01*
X543204Y7404760D01*
X546862Y7402677D01*
X549300Y7399223D01*
X550214Y7395108D01*
X550214Y7230872D01*
X550976Y7222845D01*
X553161Y7215631D01*
X556768Y7208977D01*
X561848Y7202728D01*
X759460Y7005167D01*
X761593Y7002018D01*
X762406Y6998309D01*
X761847Y6994550D01*
X760882Y6991858D01*
X758240Y6979056D01*
X757326Y6966000D01*
X758240Y6952945D01*
X760882Y6940143D01*
X764641Y6929526D01*
X765200Y6925716D01*
X764336Y6921957D01*
X762101Y6918807D01*
X758850Y6916724D01*
X755040Y6915962D01*
G37*

%LPC*%
G36*
X384657Y7362291D02*
G01*
X384657Y7414615D01*
X332232Y7414615D01*
X338175Y7403896D01*
X346710Y7392111D01*
X356666Y7381494D01*
X367893Y7372197D01*
X380187Y7364425D01*
G37*
G36*
X51562Y7497216D02*
G01*
X51562Y7544511D01*
X4216Y7544511D01*
X9956Y7534046D01*
X18034Y7523073D01*
X27533Y7513269D01*
X38252Y7504836D01*
X49987Y7497876D01*
G37*
G36*
X140462Y7497216D02*
G01*
X142036Y7497876D01*
X153771Y7504836D01*
X164490Y7513269D01*
X173990Y7523073D01*
X182067Y7534046D01*
X187807Y7544511D01*
X140462Y7544511D01*
G37*
G36*
X332232Y7517333D02*
G01*
X384657Y7517333D01*
X384657Y7569657D01*
X380187Y7567523D01*
X367893Y7559751D01*
X356666Y7550454D01*
X346710Y7539837D01*
X338175Y7528052D01*
G37*
G36*
X4368Y7633411D02*
G01*
X51562Y7633411D01*
X51562Y7680655D01*
X43992Y7676845D01*
X32766Y7669123D01*
X22606Y7659979D01*
X13817Y7649565D01*
X6502Y7638034D01*
G37*
G36*
X140462Y7633411D02*
G01*
X187655Y7633411D01*
X185521Y7638034D01*
X178206Y7649565D01*
X169418Y7659979D01*
X159258Y7669123D01*
X148031Y7676845D01*
X140462Y7680655D01*
G37*
G36*
X-223977Y7936484D02*
G01*
X-210921Y7937398D01*
X-198120Y7940040D01*
X-185775Y7944459D01*
X-174142Y7950453D01*
X-163474Y7958023D01*
X-153924Y7966964D01*
X-145643Y7977073D01*
X-138836Y7988249D01*
X-133654Y8000288D01*
X-130098Y8012887D01*
X-128320Y8025841D01*
X-128320Y8038947D01*
X-130098Y8051901D01*
X-133654Y8064500D01*
X-138836Y8076488D01*
X-145643Y8087664D01*
X-153924Y8097824D01*
X-163474Y8106765D01*
X-174142Y8114334D01*
X-185775Y8120329D01*
X-198120Y8124698D01*
X-210921Y8127390D01*
X-223977Y8128253D01*
X-237032Y8127390D01*
X-249834Y8124698D01*
X-262178Y8120329D01*
X-273812Y8114334D01*
X-284480Y8106765D01*
X-294081Y8097824D01*
X-302310Y8087664D01*
X-309270Y8076234D01*
X-311556Y8073593D01*
X-314604Y8071916D01*
X-318008Y8071358D01*
X-379628Y8071510D01*
X-383032Y8072120D01*
X-386029Y8073847D01*
X-388315Y8076438D01*
X-395579Y8088528D01*
X-403860Y8098637D01*
X-413410Y8107578D01*
X-424078Y8115147D01*
X-435711Y8121142D01*
X-448056Y8125561D01*
X-460857Y8128203D01*
X-473913Y8129117D01*
X-486968Y8128203D01*
X-499770Y8125561D01*
X-512114Y8121142D01*
X-523748Y8115147D01*
X-534416Y8107578D01*
X-544017Y8098637D01*
X-552246Y8088528D01*
X-559054Y8077301D01*
X-564286Y8065312D01*
X-567791Y8052714D01*
X-569569Y8039760D01*
X-569569Y8026653D01*
X-567791Y8013700D01*
X-564286Y8001101D01*
X-559054Y7989112D01*
X-552246Y7977936D01*
X-544017Y7967776D01*
X-534416Y7958836D01*
X-523748Y7951266D01*
X-512114Y7945272D01*
X-499770Y7940903D01*
X-486968Y7938211D01*
X-473913Y7937347D01*
X-460857Y7938211D01*
X-448056Y7940903D01*
X-435711Y7945272D01*
X-424078Y7951266D01*
X-413410Y7958836D01*
X-403860Y7967776D01*
X-395579Y7977936D01*
X-388569Y7989417D01*
X-386334Y7992059D01*
X-383286Y7993735D01*
X-379882Y7994294D01*
X-318312Y7994142D01*
X-314909Y7993532D01*
X-311912Y7991805D01*
X-309626Y7989214D01*
X-302310Y7977073D01*
X-294081Y7966964D01*
X-284480Y7958023D01*
X-273812Y7950453D01*
X-262178Y7944459D01*
X-249834Y7940040D01*
X-237032Y7937398D01*
G37*
G36*
X-455371Y8212226D02*
G01*
X-455371Y8264652D01*
X-507644Y8264652D01*
X-505561Y8260130D01*
X-497738Y8247888D01*
X-488492Y8236661D01*
X-477875Y8226704D01*
X-466090Y8218119D01*
G37*
G36*
X-352653Y8212226D02*
G01*
X-341884Y8218119D01*
X-330149Y8226704D01*
X-319532Y8236661D01*
X-310235Y8247888D01*
X-302463Y8260130D01*
X-300329Y8264652D01*
X-352653Y8264652D01*
G37*

%LPD*%
G36*
X-419303Y6915962D02*
G01*
X-422909Y6916623D01*
X-426008Y6918502D01*
X-428294Y6921347D01*
X-429412Y6924802D01*
X-430936Y6936333D01*
X-434797Y6950303D01*
X-435152Y6953859D01*
X-434238Y6957263D01*
X-432206Y6960158D01*
X-298399Y7093966D01*
X-295503Y7095998D01*
X-292049Y7096912D01*
X-288544Y7096607D01*
X-285343Y7095083D01*
X-273812Y7086853D01*
X-262178Y7080859D01*
X-249834Y7076440D01*
X-237032Y7073798D01*
X-223977Y7072884D01*
X-210921Y7073798D01*
X-198120Y7076440D01*
X-185775Y7080859D01*
X-181406Y7083094D01*
X-177444Y7084212D01*
X-173329Y7083653D01*
X-169824Y7081520D01*
X-167436Y7078116D01*
X-166573Y7074052D01*
X-166573Y6966559D01*
X-167538Y6962292D01*
X-170180Y6958787D01*
X-167386Y6954164D01*
X-166573Y6950252D01*
X-166573Y6926122D01*
X-167386Y6922262D01*
X-169570Y6918959D01*
X-172872Y6916775D01*
X-176733Y6915962D01*
G37*

%LPC*%
G36*
X-368655Y6960412D02*
G01*
X-321411Y6960412D01*
X-321411Y7007656D01*
X-326034Y7005523D01*
X-337566Y6998157D01*
X-347980Y6989368D01*
X-357124Y6979259D01*
X-364845Y6968032D01*
G37*
G36*
X-232511Y6960412D02*
G01*
X-184607Y6960412D01*
X-185521Y6961378D01*
X-192836Y6973773D01*
X-201269Y6984441D01*
X-211074Y6993940D01*
X-222046Y7002018D01*
X-232511Y7007758D01*
G37*

%LPD*%
G36*
X-1252829Y-680008D02*
G01*
X-1256538Y-679297D01*
X-1259687Y-677316D01*
X-1740357Y-238099D01*
X-1742795Y-234696D01*
X-1743659Y-230581D01*
X-1742795Y-226466D01*
X-1740306Y-223062D01*
X-1736699Y-220979D01*
X-1020114Y15595D01*
X-1016355Y16103D01*
X-1012647Y15138D01*
X-1009548Y12903D01*
X-1007516Y9702D01*
X-1006805Y5943D01*
X-1006805Y-376936D01*
X-1007211Y-379882D01*
X-1008481Y-382574D01*
X-1203756Y-675487D01*
X-1206042Y-677875D01*
X-1208938Y-679450D01*
X-1212240Y-680008D01*
G37*

%LPD*%
G36*
X201472Y-684022D02*
G01*
X198170Y-683463D01*
X195275Y-681888D01*
X192989Y-679450D01*
X-2286Y-386537D01*
X-3556Y-383844D01*
X-3962Y-380898D01*
X-3962Y1930D01*
X-3251Y5689D01*
X-1219Y8940D01*
X1879Y11176D01*
X5588Y12090D01*
X9347Y11582D01*
X725932Y-224942D01*
X729538Y-227075D01*
X732028Y-230479D01*
X732891Y-234594D01*
X732028Y-238709D01*
X729589Y-242112D01*
X248920Y-681329D01*
X245719Y-683310D01*
X242062Y-684022D01*
G37*

%LPD*%
D10*
X-1100797Y6528003D02*
G01*
X-947127Y6681673D01*
X-819111Y6681673D01*
X-716749Y6784035D01*
X-486371Y6784035D01*
X-354291Y6916115D01*
X-277075Y6916115D01*
D11*
X409587Y9036786D02*
G01*
X435206Y9036786D01*
X639005Y9240586D01*
X639005Y9396879D01*
X-947199Y9062382D02*
G01*
X-895995Y9011180D01*
X-870397Y9011180D01*
X-844796Y8985580D01*
X204812Y8985580D01*
X-1103998Y11415979D02*
G01*
X-1203197Y11316779D01*
X-1203197Y9676782D01*
X-1049599Y9523183D01*
X-1049599Y9241584D01*
X-486399Y10239982D02*
G01*
X-310400Y10415981D01*
X302399Y10415981D01*
X-1407998Y8755184D02*
G01*
X-947199Y9215983D01*
X-947199Y9753582D01*
X-742398Y9958382D01*
X-742398Y9983983D01*
X-473936Y7169612D02*
G01*
X-574205Y7269881D01*
X-922103Y7269881D01*
X-460799Y9804783D02*
G01*
X-460799Y9983983D01*
X-382465Y10062316D01*
X-270370Y10062316D01*
X-1535996Y6527987D02*
G01*
X-1305595Y6758388D01*
X-947199Y6758388D01*
X-1535996Y6527987D02*
G01*
X-1854001Y6845993D01*
X-1854001Y6955980D01*
X853198Y6965988D02*
G01*
X588797Y7230389D01*
X588797Y8012785D01*
X511997Y8089585D01*
X511997Y8140786D01*
X-102400Y9343984D02*
G01*
X127998Y9343984D01*
X289646Y9182336D01*
X386847Y9182336D01*
X-51201Y9497583D02*
G01*
X179199Y9497583D01*
X244510Y9432272D01*
X386847Y9432272D01*
X1045997Y9922383D02*
G01*
X933198Y10035181D01*
X486397Y10035181D01*
X358396Y9907181D01*
X179199Y9907181D01*
X24063Y10062316D01*
X-270370Y10062316D01*
X-1646999Y9904882D02*
G01*
X-1459196Y10092684D01*
X-1459196Y11443180D01*
X-793600Y12108776D01*
X76799Y12108776D01*
X-614398Y12006376D02*
G01*
X-435198Y11827177D01*
X-435198Y11263980D01*
X-560400Y11138778D01*
X-560400Y10915980D01*
X-804125Y11072317D02*
G01*
X-1054061Y11073333D01*
X95999Y7842986D02*
G01*
X95999Y8315985D01*
X288797Y8715984D02*
G01*
X1038796Y7965986D01*
X1095984Y7965986D01*
X288797Y8215985D02*
G01*
X435998Y8068784D01*
X435998Y7965986D01*
X288797Y8465985D02*
G01*
X765997Y7988785D01*
X765997Y7965986D01*
X51198Y8524786D02*
G01*
X109999Y8465985D01*
X288797Y8465985D01*
X303199Y10665980D02*
G01*
X153598Y10815581D01*
X153598Y12518377D01*
X318985Y12683764D01*
X318985Y12865989D01*
X303199Y10915980D02*
G01*
X303199Y12342202D01*
X826985Y12865989D01*
X303199Y10915980D02*
G01*
X420799Y11033579D01*
X844798Y11033579D01*
X889398Y10988979D01*
X1045997Y10988979D01*
X302399Y10415981D02*
G01*
X305498Y10412882D01*
X639000Y10412882D01*
X303199Y10915980D02*
G01*
X308102Y10920882D01*
X639000Y10920882D01*
X303314Y10665917D02*
G01*
X639102Y10666933D01*
X-223989Y8032445D02*
G01*
X-473925Y8033207D01*
X-530999Y6915988D02*
G01*
X-680600Y7065589D01*
X-1382397Y7065589D01*
X-1511795Y7194986D01*
X-1521010Y7194986D01*
X-530999Y6915988D02*
G01*
X-278201Y7168786D01*
X-224000Y7168786D01*
X-2103996Y7915991D02*
G01*
X-1944791Y7756786D01*
X-1433598Y7756786D01*
X-1267010Y7923375D01*
X-1267010Y7956986D01*
X-1013010Y7194986D02*
G01*
X-1234015Y7415992D01*
X-2103996Y7415992D01*
X-899005Y8515997D02*
G01*
X-844798Y8461791D01*
X-844798Y7347186D01*
X-996998Y7194986D01*
X-1013010Y7194986D01*
X-2054059Y8792921D02*
G01*
X-1727415Y8792921D01*
X-1305521Y8371281D01*
X-1075143Y8371281D01*
X-972781Y8473643D01*
X-51269Y8473643D01*
X96050Y8326323D01*
X96050Y8315909D01*
X-25600Y8715971D02*
G01*
X-225574Y8515997D01*
X-899005Y8515997D01*
X-1646999Y9396882D02*
G01*
X-2054009Y8989872D01*
X-2054009Y8792984D01*
X-1688630Y12865938D02*
G01*
X-1575391Y12979176D01*
X205798Y12979176D01*
X318985Y12865989D01*
D12*
X-1100797Y6527987D02*
G01*
X-1095796Y236626D01*
X-1095844Y5034605D02*
G01*
X-1795790Y5036614D01*
X-1095796Y238500D02*
G01*
X-1795790Y236626D01*
X-1095844Y634370D02*
G01*
X-1795790Y636628D01*
X-1095796Y1035382D02*
G01*
X-1795790Y1036622D01*
X-1095844Y1434470D02*
G01*
X-1795790Y1436621D01*
X-1095844Y1833615D02*
G01*
X-1795790Y1836623D01*
X-1095844Y2235377D02*
G01*
X-1795790Y2236622D01*
X-1095844Y2635006D02*
G01*
X-1795790Y2636624D01*
X-1095844Y3038863D02*
G01*
X-1795790Y3036618D01*
X-1095844Y3435106D02*
G01*
X-1795790Y3436617D01*
X-1095844Y3833883D02*
G01*
X-1795790Y3836619D01*
X-1095844Y4235206D02*
G01*
X-1795790Y4236618D01*
X-1095844Y4637278D02*
G01*
X-1795790Y4636620D01*
X-1995840Y432988D02*
G01*
X-1295791Y436628D01*
X-1995840Y833948D02*
G01*
X-1295791Y836622D01*
X-1995840Y1632231D02*
G01*
X-1295791Y1636623D01*
X-1995840Y2035563D02*
G01*
X-1295791Y2036622D01*
X-1995840Y2435191D02*
G01*
X-1295791Y2436624D01*
X-1995840Y2835663D02*
G01*
X-1295791Y2836623D01*
X-1995741Y3636159D02*
G01*
X-1295796Y3636619D01*
X-1995840Y4037083D02*
G01*
X-1295791Y4036618D01*
X-1995840Y4434078D02*
G01*
X-1295791Y4436620D01*
X-1995840Y4835032D02*
G01*
X-1295791Y4836619D01*
X-1996734Y3239922D02*
G01*
X-1295796Y3236617D01*
X-1996734Y1235859D02*
G01*
X-1295796Y1236621D01*
D11*
X1152436Y8216087D02*
G01*
X1102398Y8216087D01*
X256070Y9062415D01*
X76746Y9062415D01*
X-640041Y9779203D01*
X-640041Y10239959D01*
X-804125Y10404043D01*
X-804125Y11072317D01*
X617004Y1182827D02*
G01*
X767880Y1333703D01*
X767880Y5683199D01*
X-358355Y6809689D01*
D12*
X-1535996Y6527987D02*
G01*
X-1995639Y6136589D01*
X-1995840Y432988D01*
D11*
X-11137Y7216089D02*
G01*
X-127977Y7099249D01*
X-127977Y6758381D01*
X870496Y5759907D01*
X870496Y588721D01*
X664502Y382727D01*
X617004Y382727D01*
D13*
G01*
X-466506Y12715966D03*
D12*
G01*
X-341515Y12715976D03*
D14*
G01*
X64998Y12865976D03*
D15*
G01*
X318985Y12865989D03*
G01*
X572985Y12865989D03*
G01*
X826985Y12865989D03*
D17*
G01*
X-2153983Y12065990D03*
G01*
X-1953983Y12065990D03*
D18*
G01*
X-1753996Y12065977D03*
D17*
G01*
X1152385Y8215985D03*
G01*
X288785Y8215985D03*
G01*
X1152385Y8715984D03*
G01*
X288785Y8715984D03*
D19*
G01*
X766000Y7965973D03*
G01*
X766000Y7465974D03*
G01*
X436003Y7465974D03*
G01*
X436003Y7965973D03*
D20*
G01*
X95999Y7588986D03*
G01*
X95999Y7842986D03*
D17*
G01*
X1152385Y8465972D03*
G01*
X288785Y8465972D03*
G01*
X-2053983Y9659569D03*
G01*
X-2053983Y10523169D03*
G01*
X-10401Y6965975D03*
G01*
X853198Y6965975D03*
G01*
X-473925Y7169607D03*
G01*
X-473925Y8033207D03*
G01*
X-223989Y8032394D03*
G01*
X-223989Y7168794D03*
G01*
X302399Y10415981D03*
G01*
X-561200Y10415981D03*
G01*
X-723988Y7169581D03*
G01*
X-723988Y8033181D03*
G01*
X1046010Y9922383D03*
G01*
X1046010Y9058783D03*
G01*
X852411Y7215987D03*
G01*
X-11188Y7215987D03*
G01*
X-803998Y11072368D03*
G01*
X-803998Y10208768D03*
G01*
X-1054036Y10209657D03*
G01*
X-1054036Y11073257D03*
G01*
X386854Y9432264D03*
G01*
X-476745Y9432264D03*
G01*
X-560387Y10915980D03*
G01*
X303187Y10915980D03*
G01*
X-560387Y10665968D03*
G01*
X303187Y10665968D03*
G01*
X386854Y9182328D03*
G01*
X-476745Y9182328D03*
D21*
G01*
X-1249006Y8515985D03*
G01*
X-898994Y8515985D03*
D20*
G01*
X-2054009Y8792972D03*
G01*
X-2054009Y8538972D03*
G01*
X1045984Y10442981D03*
G01*
X1045984Y10188981D03*
D19*
G01*
X-270344Y9732340D03*
G01*
X229654Y9732340D03*
G01*
X-403999Y8315985D03*
G01*
X95999Y8315985D03*
G01*
X1095997Y7965973D03*
G01*
X1095997Y7465974D03*
G01*
X-2103996Y7915986D03*
G01*
X-2103996Y7415987D03*
G01*
X-270370Y10062311D03*
G01*
X229628Y10062311D03*
D17*
G01*
X-1054011Y6955967D03*
G01*
X-1854009Y6955967D03*
D22*
G01*
X-1012990Y7956981D03*
D19*
G01*
X-1267015Y7956981D03*
G01*
X-1521015Y7956981D03*
G01*
X-1775015Y7956981D03*
G01*
X-1775015Y7194981D03*
G01*
X-1521015Y7194981D03*
G01*
X-1267015Y7194981D03*
G01*
X-1013015Y7194981D03*
D23*
G01*
X-1303997Y11415979D03*
G01*
X-1103998Y11415979D03*
G01*
X-754011Y11415979D03*
G01*
X-554012Y11415979D03*
G01*
X-4000Y11415979D03*
G01*
X-204000Y11415979D03*
D20*
G01*
X-276999Y6915988D03*
G01*
X-530999Y6915988D03*
G01*
X-1887004Y8215985D03*
G01*
X-2141004Y8215985D03*
D19*
G01*
X1046010Y11242979D03*
D22*
G01*
X1045984Y10988979D03*
D20*
G01*
X617004Y1182801D03*
G01*
X617004Y382803D03*
D24*
G01*
X-2054009Y11769979D03*
D25*
G01*
X-2054009Y11515979D03*
G01*
X-2054009Y11261979D03*
D21*
G01*
X-1646999Y11174882D03*
G01*
X-1646999Y10920882D03*
G01*
X-1646999Y10666882D03*
G01*
X-1646999Y10412882D03*
G01*
X-1646999Y10158882D03*
G01*
X-1646999Y9904882D03*
G01*
X-1646999Y9650882D03*
G01*
X-1646999Y9396882D03*
G01*
X639000Y9396882D03*
G01*
X639000Y9650882D03*
G01*
X639000Y9904882D03*
G01*
X639000Y10158882D03*
G01*
X639000Y10412882D03*
G01*
X639000Y10666882D03*
G01*
X639000Y10920882D03*
G01*
X639000Y11174882D03*
D20*
G01*
X-926630Y12865938D03*
G01*
X-1180630Y12865938D03*
G01*
X-1434630Y12865938D03*
G01*
X-1688630Y12865938D03*
G01*
X-1935772Y12865938D03*
D19*
G01*
X1046010Y11992965D03*
D22*
G01*
X1045984Y11738965D03*
D26*
G01*
X-1153985Y-283997D03*
G01*
X146011Y-283997D03*
G01*
X-1536001Y6527977D03*
G01*
X-1100797Y6527977D03*
D27*
G01*
X-2063991Y9305975D03*
G01*
X-2173998Y9305975D03*
G01*
X-2063991Y9225991D03*
G01*
X-1963991Y9305975D03*
G01*
X-53987Y8825992D03*
G01*
X-123990Y8765971D03*
G01*
X-174002Y8695994D03*
G01*
X-254012Y8695994D03*
G01*
X-254012Y8615984D03*
G01*
X-33997Y8595995D03*
G01*
X-25590Y8715959D03*
G01*
X51193Y8524773D03*
G01*
X-614387Y12006376D03*
G01*
X76796Y12108764D03*
G01*
X-51193Y9497593D03*
G01*
X-102400Y9343974D03*
G01*
X512000Y8140776D03*
G01*
X-947204Y6758381D03*
G01*
X-460794Y9804781D03*
G01*
X-358406Y6809587D03*
G01*
X-1407985Y8755176D03*
G01*
X-742403Y9983978D03*
G01*
X-486397Y10239984D03*
G01*
X-1049591Y9241586D03*
G01*
X-947204Y9062389D03*
G01*
X204812Y8985580D03*
G01*
X409587Y9036786D03*
G01*
X-742403Y8268792D03*
G01*
X-972807Y8268792D03*
G01*
X-665594Y8268792D03*
G01*
X-947204Y8345576D03*
G01*
X-665594Y8345576D03*
G01*
X-1049591Y8268792D03*
G01*
X-254012Y8615984D03*
G01*
X-972807Y8755176D03*
G01*
X-254012Y8695994D03*
G01*
X-174002Y8695994D03*
G01*
X-33997Y8595995D03*
G01*
X-123990Y8765971D03*
G01*
X-53987Y8825992D03*
G01*
X-2173998Y9305975D03*
G01*
X-2063991Y9305975D03*
G01*
X-1963991Y9305975D03*
G01*
X-2063991Y9225991D03*
M02*
