G04 Layer: BottomSilkscreenLayer*
G04 EasyEDA v6.5.51, 2025-09-10 13:12:57*
G04 bcd41116ccc442bd9d962e01ee37aded,ba325f3f76be48ccbdad7cc867071ff5,10*
G04 Gerber Generator version 0.2*
G04 Scale: 100 percent, Rotated: No, Reflected: No *
G04 Dimensions in millimeters *
G04 leading zeros omitted , absolute positions ,4 integer and 5 decimal *
%FSLAX45Y45*%
%MOMM*%

%ADD10C,0.2032*%
%ADD11C,0.1524*%
%ADD12C,0.2540*%
%ADD13C,0.0124*%

%LPD*%
G36*
X305765Y12255957D02*
G01*
X299516Y12254179D01*
X290982Y12249505D01*
X281330Y12239853D01*
X279908Y12236653D01*
X279400Y12234824D01*
X279298Y12233046D01*
X277520Y12233046D01*
X274675Y12238685D01*
X269646Y12244882D01*
X264210Y12249048D01*
X260553Y12251537D01*
X255930Y12254179D01*
X247345Y12255449D01*
X238760Y12253722D01*
X232359Y12250216D01*
X226720Y12243358D01*
X223570Y12236145D01*
X222453Y12228220D01*
X223570Y12218720D01*
X226212Y12209780D01*
X229768Y12202566D01*
X237134Y12192711D01*
X242265Y12186462D01*
X246481Y12181789D01*
X251358Y12176963D01*
X259740Y12169698D01*
X263042Y12167311D01*
X270662Y12162739D01*
X274574Y12160859D01*
X279400Y12158929D01*
X284784Y12160707D01*
X298704Y12171324D01*
X304800Y12176810D01*
X311658Y12183364D01*
X320294Y12194286D01*
X326085Y12204090D01*
X329336Y12210135D01*
X332486Y12216942D01*
X334111Y12224715D01*
X333654Y12236805D01*
X330555Y12244273D01*
X324713Y12250826D01*
X321208Y12253061D01*
X318566Y12254433D01*
X314807Y12255957D01*
G37*
G36*
X348030Y12150852D02*
G01*
X325069Y12150394D01*
X306374Y12148159D01*
X295452Y12146127D01*
X283260Y12143130D01*
X271322Y12139269D01*
X257962Y12133783D01*
X251612Y12130786D01*
X244805Y12127128D01*
X232968Y12119965D01*
X227584Y12116409D01*
X221843Y12112244D01*
X217170Y12108535D01*
X211734Y12103862D01*
X206654Y12099137D01*
X200152Y12092533D01*
X190246Y12081764D01*
X184099Y12073280D01*
X179679Y12066727D01*
X173583Y12057126D01*
X165760Y12040870D01*
X161747Y12030710D01*
X158750Y12021515D01*
X155905Y12010339D01*
X154127Y11999823D01*
X153568Y11992457D01*
X153568Y11989612D01*
X151282Y11991086D01*
X135940Y11990882D01*
X123647Y11988495D01*
X113893Y11985091D01*
X102717Y11978690D01*
X96926Y11973966D01*
X93675Y11971020D01*
X91490Y11968632D01*
X89052Y11965279D01*
X84429Y11957202D01*
X82651Y11953189D01*
X80873Y11948261D01*
X78841Y11941149D01*
X78740Y11930837D01*
X80568Y11916460D01*
X84531Y11902389D01*
X89712Y11888470D01*
X95300Y11878970D01*
X99060Y11873128D01*
X102514Y11868454D01*
X108966Y11860733D01*
X121615Y11846356D01*
X126949Y11841683D01*
X135483Y11835028D01*
X140106Y11831777D01*
X150063Y11825782D01*
X162356Y11819432D01*
X174294Y11814505D01*
X186029Y11810136D01*
X209296Y11803684D01*
X208127Y11801805D01*
X197408Y11788241D01*
X187248Y11774678D01*
X179476Y11762282D01*
X173278Y11751056D01*
X170129Y11744350D01*
X167284Y11737644D01*
X164693Y11730837D01*
X163017Y11725706D01*
X159105Y11710416D01*
X158546Y11697208D01*
X160731Y11687454D01*
X164185Y11681155D01*
X169316Y11676380D01*
X175310Y11673840D01*
X187553Y11674449D01*
X197256Y11677497D01*
X209651Y11684152D01*
X213766Y11688318D01*
X214528Y11685727D01*
X214985Y11644426D01*
X213207Y11629898D01*
X211734Y11621465D01*
X208279Y11609628D01*
X203758Y11599418D01*
X197561Y11589308D01*
X192430Y11583619D01*
X192430Y11581079D01*
X190703Y11580317D01*
X181914Y11573510D01*
X168097Y11565890D01*
X164033Y11563959D01*
X153619Y11562638D01*
X148488Y11563756D01*
X144424Y11566042D01*
X141732Y11571071D01*
X140563Y11574018D01*
X138582Y11580114D01*
X131267Y11611711D01*
X129997Y11616232D01*
X127000Y11625072D01*
X123444Y11632488D01*
X120345Y11637873D01*
X113944Y11647627D01*
X111201Y11651437D01*
X100685Y11660327D01*
X96977Y11663070D01*
X91998Y11666372D01*
X84124Y11671096D01*
X67513Y11678361D01*
X56743Y11682272D01*
X41097Y11688368D01*
X36372Y11690553D01*
X32004Y11692991D01*
X26822Y11696395D01*
X14478Y11707723D01*
X10871Y11710720D01*
X7975Y11710720D01*
X2489Y11705082D01*
X-254Y11698782D01*
X-1727Y11691112D01*
X-4013Y11673128D01*
X-3454Y11650726D01*
X-1828Y11640261D01*
X-457Y11633047D01*
X1016Y11626951D01*
X6654Y11608714D01*
X13462Y11595150D01*
X16764Y11589512D01*
X20320Y11584279D01*
X29057Y11572798D01*
X40335Y11561927D01*
X50241Y11554510D01*
X63347Y11547246D01*
X74980Y11542471D01*
X85344Y11539728D01*
X97282Y11538356D01*
X88392Y11527739D01*
X81483Y11517020D01*
X74930Y11502085D01*
X71374Y11490045D01*
X69748Y11476431D01*
X69748Y11459768D01*
X71323Y11447576D01*
X74422Y11434368D01*
X79603Y11420094D01*
X84226Y11411610D01*
X87426Y11406225D01*
X90119Y11402161D01*
X93472Y11397640D01*
X100482Y11389512D01*
X103885Y11386210D01*
X107950Y11382756D01*
X113842Y11378387D01*
X120853Y11375999D01*
X125526Y11377777D01*
X129590Y11381384D01*
X130708Y11384127D01*
X135788Y11401044D01*
X140360Y11411000D01*
X145745Y11419179D01*
X162712Y11438636D01*
X170535Y11451996D01*
X174447Y11462461D01*
X176631Y11472062D01*
X177546Y11483695D01*
X176784Y11491976D01*
X175361Y11501069D01*
X173431Y11509095D01*
X170180Y11519001D01*
X190347Y11511889D01*
X198780Y11509248D01*
X213360Y11505590D01*
X226161Y11503304D01*
X243281Y11500916D01*
X283159Y11500916D01*
X304444Y11503253D01*
X322681Y11506047D01*
X330098Y11507520D01*
X340258Y11509959D01*
X356920Y11514328D01*
X376631Y11521236D01*
X389890Y11526520D01*
X406704Y11533987D01*
X414121Y11537543D01*
X423164Y11542318D01*
X440131Y11552275D01*
X453694Y11561267D01*
X459790Y11565636D01*
X469696Y11573205D01*
X476707Y11578996D01*
X490931Y11591696D01*
X498398Y11599011D01*
X515162Y11617147D01*
X520750Y11623751D01*
X525983Y11630355D01*
X536194Y11644426D01*
X546252Y11659971D01*
X554024Y11673738D01*
X559104Y11683441D01*
X565912Y11698071D01*
X570585Y11708688D01*
X579170Y11732818D01*
X582676Y11745264D01*
X587146Y11763857D01*
X590092Y11777726D01*
X593598Y11800332D01*
X604164Y11813692D01*
X610412Y11819483D01*
X610514Y11821871D01*
X613156Y11823395D01*
X624738Y11832996D01*
X628650Y11835892D01*
X632968Y11838736D01*
X636727Y11840921D01*
X644702Y11844680D01*
X658317Y11849506D01*
X685901Y11856059D01*
X690829Y11859158D01*
X693267Y11861190D01*
X695299Y11865965D01*
X696010Y11872417D01*
X694283Y11881815D01*
X690930Y11891467D01*
X688594Y11897360D01*
X683768Y11906656D01*
X680872Y11911584D01*
X676656Y11917984D01*
X669645Y11927941D01*
X649122Y11951004D01*
X641400Y11957761D01*
X634593Y11963298D01*
X623519Y11971731D01*
X612800Y11978386D01*
X607415Y11981484D01*
X598220Y11986209D01*
X593191Y11989054D01*
X575106Y11996420D01*
X567385Y11999772D01*
X564997Y12001195D01*
X561898Y12004395D01*
X559562Y12007189D01*
X556615Y12015165D01*
X544322Y12035383D01*
X535990Y12048083D01*
X531876Y12053417D01*
X523951Y12062815D01*
X508050Y12081002D01*
X494030Y12093448D01*
X482142Y12103100D01*
X468071Y12112701D01*
X458673Y12118695D01*
X449224Y12123877D01*
X429463Y12133122D01*
X417677Y12137390D01*
X408787Y12140285D01*
X392734Y12144654D01*
X386080Y12146076D01*
X377240Y12147651D01*
X362864Y12149785D01*
G37*
D10*
X27823Y12249160D02*
G01*
X32367Y12258250D01*
X41457Y12267341D01*
X50551Y12271888D01*
X68732Y12271888D01*
X77823Y12267341D01*
X86913Y12258250D01*
X91457Y12249160D01*
X96004Y12235525D01*
X96004Y12212797D01*
X91457Y12199160D01*
X86913Y12190069D01*
X77823Y12180978D01*
X68732Y12176432D01*
X50551Y12176432D01*
X41457Y12180978D01*
X32367Y12190069D01*
X27823Y12199160D01*
X27823Y12212797D01*
X50551Y12212797D02*
G01*
X27823Y12212797D01*
X-2176Y12240069D02*
G01*
X-2176Y12176432D01*
X-2176Y12212797D02*
G01*
X-6723Y12226432D01*
X-15814Y12235525D01*
X-24904Y12240069D01*
X-38541Y12240069D01*
X-68541Y12212797D02*
G01*
X-123085Y12212797D01*
X-123085Y12221888D01*
X-118541Y12230978D01*
X-113995Y12235525D01*
X-104904Y12240069D01*
X-91267Y12240069D01*
X-82176Y12235525D01*
X-73085Y12226432D01*
X-68541Y12212797D01*
X-68541Y12203706D01*
X-73085Y12190069D01*
X-82176Y12180978D01*
X-91267Y12176432D01*
X-104904Y12176432D01*
X-113995Y12180978D01*
X-123085Y12190069D01*
X-153085Y12212797D02*
G01*
X-207632Y12212797D01*
X-207632Y12221888D01*
X-203085Y12230978D01*
X-198541Y12235525D01*
X-189448Y12240069D01*
X-175813Y12240069D01*
X-166723Y12235525D01*
X-157632Y12226432D01*
X-153085Y12212797D01*
X-153085Y12203706D01*
X-157632Y12190069D01*
X-166723Y12180978D01*
X-175813Y12176432D01*
X-189448Y12176432D01*
X-198541Y12180978D01*
X-207632Y12190069D01*
X-237632Y12240069D02*
G01*
X-237632Y12176432D01*
X-237632Y12221888D02*
G01*
X-251266Y12235525D01*
X-260357Y12240069D01*
X-273994Y12240069D01*
X-283085Y12235525D01*
X-287632Y12221888D01*
X-287632Y12176432D01*
X-317632Y12271888D02*
G01*
X-317632Y12176432D01*
X-317632Y12271888D02*
G01*
X-376722Y12271888D01*
X-317632Y12226432D02*
G01*
X-353994Y12226432D01*
X-317632Y12176432D02*
G01*
X-376722Y12176432D01*
X-411266Y12240069D02*
G01*
X-438541Y12176432D01*
X-465813Y12240069D02*
G01*
X-438541Y12176432D01*
X-429447Y12158251D01*
X-420357Y12149160D01*
X-411266Y12144616D01*
X-406722Y12144616D01*
X-495813Y12212797D02*
G01*
X-550357Y12212797D01*
X-550357Y12221888D01*
X-545812Y12230978D01*
X-541266Y12235525D01*
X-532175Y12240069D01*
X-518540Y12240069D01*
X-509447Y12235525D01*
X-500357Y12226432D01*
X-495813Y12212797D01*
X-495813Y12203706D01*
X-500357Y12190069D01*
X-509447Y12180978D01*
X-518540Y12176432D01*
X-532175Y12176432D01*
X-541266Y12180978D01*
X-550357Y12190069D01*
X-713993Y12258250D02*
G01*
X-704903Y12267341D01*
X-691266Y12271888D01*
X-673084Y12271888D01*
X-659447Y12267341D01*
X-650356Y12258250D01*
X-650356Y12249160D01*
X-654903Y12240069D01*
X-659447Y12235525D01*
X-668540Y12230978D01*
X-695812Y12221888D01*
X-704903Y12217341D01*
X-709447Y12212797D01*
X-713993Y12203706D01*
X-713993Y12190069D01*
X-704903Y12180978D01*
X-691266Y12176432D01*
X-673084Y12176432D01*
X-659447Y12180978D01*
X-650356Y12190069D01*
X-743993Y12212797D02*
G01*
X-798540Y12212797D01*
X-798540Y12221888D01*
X-793993Y12230978D01*
X-789447Y12235525D01*
X-780356Y12240069D01*
X-766721Y12240069D01*
X-757631Y12235525D01*
X-748540Y12226432D01*
X-743993Y12212797D01*
X-743993Y12203706D01*
X-748540Y12190069D01*
X-757631Y12180978D01*
X-766721Y12176432D01*
X-780356Y12176432D01*
X-789447Y12180978D01*
X-798540Y12190069D01*
X-828540Y12240069D02*
G01*
X-828540Y12176432D01*
X-828540Y12221888D02*
G01*
X-842175Y12235525D01*
X-851265Y12240069D01*
X-864903Y12240069D01*
X-873993Y12235525D01*
X-878540Y12221888D01*
X-878540Y12176432D01*
X-958540Y12226432D02*
G01*
X-953993Y12235525D01*
X-940356Y12240069D01*
X-926721Y12240069D01*
X-913084Y12235525D01*
X-908540Y12226432D01*
X-913084Y12217341D01*
X-922174Y12212797D01*
X-944902Y12208250D01*
X-953993Y12203706D01*
X-958540Y12194616D01*
X-958540Y12190069D01*
X-953993Y12180978D01*
X-940356Y12176432D01*
X-926721Y12176432D01*
X-913084Y12180978D01*
X-908540Y12190069D01*
X-1011265Y12240069D02*
G01*
X-1002174Y12235525D01*
X-993084Y12226432D01*
X-988540Y12212797D01*
X-988540Y12203706D01*
X-993084Y12190069D01*
X-1002174Y12180978D01*
X-1011265Y12176432D01*
X-1024902Y12176432D01*
X-1033993Y12180978D01*
X-1043084Y12190069D01*
X-1047630Y12203706D01*
X-1047630Y12212797D01*
X-1043084Y12226432D01*
X-1033993Y12235525D01*
X-1024902Y12240069D01*
X-1011265Y12240069D01*
X-1077630Y12240069D02*
G01*
X-1077630Y12176432D01*
X-1077630Y12212797D02*
G01*
X-1082174Y12226432D01*
X-1091265Y12235525D01*
X-1100355Y12240069D01*
X-1113993Y12240069D01*
X-1143993Y12271888D02*
G01*
X-1143993Y12176432D01*
X-1143993Y12271888D02*
G01*
X-1175811Y12271888D01*
X-1189446Y12267341D01*
X-1198539Y12258250D01*
X-1203083Y12249160D01*
X-1207630Y12235525D01*
X-1207630Y12212797D01*
X-1203083Y12199160D01*
X-1198539Y12190069D01*
X-1189446Y12180978D01*
X-1175811Y12176432D01*
X-1143993Y12176432D01*
X-1237630Y12212797D02*
G01*
X-1292174Y12212797D01*
X-1292174Y12221888D01*
X-1287630Y12230978D01*
X-1283083Y12235525D01*
X-1273992Y12240069D01*
X-1260355Y12240069D01*
X-1251264Y12235525D01*
X-1242174Y12226432D01*
X-1237630Y12212797D01*
X-1237630Y12203706D01*
X-1242174Y12190069D01*
X-1251264Y12180978D01*
X-1260355Y12176432D01*
X-1273992Y12176432D01*
X-1283083Y12180978D01*
X-1292174Y12190069D01*
X-1322174Y12240069D02*
G01*
X-1349446Y12176432D01*
X-1376720Y12240069D02*
G01*
X-1349446Y12176432D01*
X-1406720Y12271888D02*
G01*
X-1411264Y12267341D01*
X-1415811Y12271888D01*
X-1411264Y12276432D01*
X-1406720Y12271888D01*
X-1411264Y12240069D02*
G01*
X-1411264Y12176432D01*
X-1500355Y12226432D02*
G01*
X-1491264Y12235525D01*
X-1482173Y12240069D01*
X-1468539Y12240069D01*
X-1459445Y12235525D01*
X-1450355Y12226432D01*
X-1445811Y12212797D01*
X-1445811Y12203706D01*
X-1450355Y12190069D01*
X-1459445Y12180978D01*
X-1468539Y12176432D01*
X-1482173Y12176432D01*
X-1491264Y12180978D01*
X-1500355Y12190069D01*
X-1530355Y12212797D02*
G01*
X-1584901Y12212797D01*
X-1584901Y12221888D01*
X-1580354Y12230978D01*
X-1575810Y12235525D01*
X-1566720Y12240069D01*
X-1553082Y12240069D01*
X-1543992Y12235525D01*
X-1534901Y12226432D01*
X-1530355Y12212797D01*
X-1530355Y12203706D01*
X-1534901Y12190069D01*
X-1543992Y12180978D01*
X-1553082Y12176432D01*
X-1566720Y12176432D01*
X-1575810Y12180978D01*
X-1584901Y12190069D01*
X-3995Y12072797D02*
G01*
X-3995Y11881888D01*
X-3995Y12072797D02*
G01*
X-131267Y11881888D01*
X-131267Y12072797D02*
G01*
X-131267Y11881888D01*
X-300357Y12009160D02*
G01*
X-300357Y11881888D01*
X-300357Y11981888D02*
G01*
X-282176Y12000069D01*
X-263994Y12009160D01*
X-236722Y12009160D01*
X-218541Y12000069D01*
X-200357Y11981888D01*
X-191267Y11954616D01*
X-191267Y11936432D01*
X-200357Y11909160D01*
X-218541Y11890979D01*
X-236722Y11881888D01*
X-263994Y11881888D01*
X-282176Y11890979D01*
X-300357Y11909160D01*
X-360357Y12009160D02*
G01*
X-360357Y11881888D01*
X-360357Y11972798D02*
G01*
X-387631Y12000069D01*
X-405813Y12009160D01*
X-433085Y12009160D01*
X-451266Y12000069D01*
X-460357Y11972798D01*
X-460357Y11881888D01*
X-629447Y12009160D02*
G01*
X-629447Y11863707D01*
X-620356Y11836433D01*
X-611266Y11827342D01*
X-593084Y11818251D01*
X-565812Y11818251D01*
X-547631Y11827342D01*
X-629447Y11981888D02*
G01*
X-611266Y12000069D01*
X-593084Y12009160D01*
X-565812Y12009160D01*
X-547631Y12000069D01*
X-529447Y11981888D01*
X-520357Y11954616D01*
X-520357Y11936432D01*
X-529447Y11909160D01*
X-547631Y11890979D01*
X-565812Y11881888D01*
X-593084Y11881888D01*
X-611266Y11890979D01*
X-629447Y11909160D01*
X-689447Y12009160D02*
G01*
X-689447Y11881888D01*
X-689447Y11972798D02*
G01*
X-716721Y12000069D01*
X-734903Y12009160D01*
X-762175Y12009160D01*
X-780356Y12000069D01*
X-789447Y11972798D01*
X-789447Y11881888D01*
X-789447Y11972798D02*
G01*
X-816721Y12000069D01*
X-834903Y12009160D01*
X-862175Y12009160D01*
X-880356Y12000069D01*
X-889447Y11972798D01*
X-889447Y11881888D01*
X-1058539Y12009160D02*
G01*
X-1058539Y11881888D01*
X-1058539Y11981888D02*
G01*
X-1040356Y12000069D01*
X-1022174Y12009160D01*
X-994902Y12009160D01*
X-976721Y12000069D01*
X-958540Y11981888D01*
X-949446Y11954616D01*
X-949446Y11936432D01*
X-958540Y11909160D01*
X-976721Y11890979D01*
X-994902Y11881888D01*
X-1022174Y11881888D01*
X-1040356Y11890979D01*
X-1058539Y11909160D01*
X-1118539Y12009160D02*
G01*
X-1118539Y11881888D01*
X-1118539Y11972798D02*
G01*
X-1145811Y12000069D01*
X-1163993Y12009160D01*
X-1191265Y12009160D01*
X-1209446Y12000069D01*
X-1218539Y11972798D01*
X-1218539Y11881888D01*
X-203995Y11772798D02*
G01*
X-203995Y11581889D01*
X-203995Y11772798D02*
G01*
X-267632Y11772798D01*
X-294904Y11763707D01*
X-313085Y11745526D01*
X-322176Y11727342D01*
X-331266Y11700070D01*
X-331266Y11654617D01*
X-322176Y11627342D01*
X-313085Y11609161D01*
X-294904Y11590980D01*
X-267632Y11581889D01*
X-203995Y11581889D01*
X-436722Y11709161D02*
G01*
X-418541Y11700070D01*
X-400357Y11681889D01*
X-391266Y11654617D01*
X-391266Y11636433D01*
X-400357Y11609161D01*
X-418541Y11590980D01*
X-436722Y11581889D01*
X-463994Y11581889D01*
X-482175Y11590980D01*
X-500357Y11609161D01*
X-509447Y11636433D01*
X-509447Y11654617D01*
X-500357Y11681889D01*
X-482175Y11700070D01*
X-463994Y11709161D01*
X-436722Y11709161D01*
X-569447Y11772798D02*
G01*
X-569447Y11581889D01*
X-629447Y11709161D02*
G01*
X-629447Y11518252D01*
X-629447Y11681889D02*
G01*
X-647631Y11700070D01*
X-665812Y11709161D01*
X-693084Y11709161D01*
X-711266Y11700070D01*
X-729447Y11681889D01*
X-738540Y11654617D01*
X-738540Y11636433D01*
X-729447Y11609161D01*
X-711266Y11590980D01*
X-693084Y11581889D01*
X-665812Y11581889D01*
X-647631Y11590980D01*
X-629447Y11609161D01*
X-798540Y11772798D02*
G01*
X-798540Y11581889D01*
X-798540Y11672798D02*
G01*
X-825812Y11700070D01*
X-843993Y11709161D01*
X-871265Y11709161D01*
X-889447Y11700070D01*
X-898540Y11672798D01*
X-898540Y11581889D01*
X-958540Y11772798D02*
G01*
X-967630Y11763707D01*
X-976721Y11772798D01*
X-967630Y11781889D01*
X-958540Y11772798D01*
X-967630Y11709161D02*
G01*
X-967630Y11581889D01*
X-1036721Y11709161D02*
G01*
X-1036721Y11581889D01*
X-1036721Y11672798D02*
G01*
X-1063993Y11700070D01*
X-1082174Y11709161D01*
X-1109446Y11709161D01*
X-1127630Y11700070D01*
X-1136721Y11672798D01*
X-1136721Y11581889D01*
X-1296720Y11681889D02*
G01*
X-1287630Y11700070D01*
X-1260355Y11709161D01*
X-1233083Y11709161D01*
X-1205811Y11700070D01*
X-1196720Y11681889D01*
X-1205811Y11663707D01*
X-1223992Y11654617D01*
X-1269446Y11645526D01*
X-1287630Y11636433D01*
X-1296720Y11618252D01*
X-1296720Y11609161D01*
X-1287630Y11590980D01*
X-1260355Y11581889D01*
X-1233083Y11581889D01*
X-1205811Y11590980D01*
X-1196720Y11609161D01*
X-304126Y12893840D02*
G01*
X-353148Y12893840D01*
X-478434Y12918224D02*
G01*
X-478434Y12869202D01*
X-454050Y12893840D02*
G01*
X-503072Y12893840D01*
X82181Y12517607D02*
G01*
X15361Y12543061D01*
X82181Y12568516D02*
G01*
X15361Y12543061D01*
X66271Y12637244D02*
G01*
X72633Y12634061D01*
X78999Y12627698D01*
X82181Y12621333D01*
X82181Y12608608D01*
X78999Y12602243D01*
X72633Y12595880D01*
X66271Y12592697D01*
X56725Y12589517D01*
X40817Y12589517D01*
X31272Y12592697D01*
X24907Y12595880D01*
X18544Y12602243D01*
X15361Y12608608D01*
X15361Y12621333D01*
X18544Y12627698D01*
X24907Y12634061D01*
X31272Y12637244D01*
X66271Y12705971D02*
G01*
X72633Y12702788D01*
X78999Y12696426D01*
X82181Y12690060D01*
X82181Y12677335D01*
X78999Y12670970D01*
X72633Y12664607D01*
X66271Y12661425D01*
X56725Y12658244D01*
X40817Y12658244D01*
X31272Y12661425D01*
X24907Y12664607D01*
X18544Y12670970D01*
X15361Y12677335D01*
X15361Y12690060D01*
X18544Y12696426D01*
X24907Y12702788D01*
X31272Y12705971D01*
X616270Y12565334D02*
G01*
X622632Y12562154D01*
X628997Y12555788D01*
X632180Y12549426D01*
X632180Y12536698D01*
X628997Y12530335D01*
X622632Y12523970D01*
X616270Y12520790D01*
X606724Y12517607D01*
X590816Y12517607D01*
X581271Y12520790D01*
X574906Y12523970D01*
X568543Y12530335D01*
X565360Y12536698D01*
X565360Y12549426D01*
X568543Y12555788D01*
X574906Y12562154D01*
X581271Y12565334D01*
X590816Y12565334D01*
X590816Y12549426D02*
G01*
X590816Y12565334D01*
X632180Y12586335D02*
G01*
X565360Y12586335D01*
X632180Y12586335D02*
G01*
X565360Y12630878D01*
X632180Y12630878D02*
G01*
X565360Y12630878D01*
X632180Y12651879D02*
G01*
X565360Y12651879D01*
X632180Y12651879D02*
G01*
X632180Y12674152D01*
X628997Y12683698D01*
X622632Y12690060D01*
X616270Y12693243D01*
X606724Y12696426D01*
X590816Y12696426D01*
X581271Y12693243D01*
X574906Y12690060D01*
X568543Y12683698D01*
X565360Y12674152D01*
X565360Y12651879D01*
X872632Y12562154D02*
G01*
X878997Y12555788D01*
X882180Y12546243D01*
X882180Y12533515D01*
X878997Y12523970D01*
X872632Y12517607D01*
X866269Y12517607D01*
X859906Y12520790D01*
X856724Y12523970D01*
X853541Y12530335D01*
X847178Y12549426D01*
X843996Y12555788D01*
X840816Y12558971D01*
X834450Y12562154D01*
X824905Y12562154D01*
X818542Y12555788D01*
X815360Y12546243D01*
X815360Y12533515D01*
X818542Y12523970D01*
X824905Y12517607D01*
X866269Y12630878D02*
G01*
X872632Y12627698D01*
X878997Y12621333D01*
X882180Y12614970D01*
X882180Y12602243D01*
X878997Y12595880D01*
X872632Y12589517D01*
X866269Y12586335D01*
X856724Y12583152D01*
X840816Y12583152D01*
X831270Y12586335D01*
X824905Y12589517D01*
X818542Y12595880D01*
X815360Y12602243D01*
X815360Y12614970D01*
X818542Y12621333D01*
X824905Y12627698D01*
X831270Y12630878D01*
X882180Y12651879D02*
G01*
X815360Y12651879D01*
X815360Y12651879D02*
G01*
X815360Y12690060D01*
X372633Y12562154D02*
G01*
X378998Y12555788D01*
X382181Y12546243D01*
X382181Y12533515D01*
X378998Y12523970D01*
X372633Y12517607D01*
X366270Y12517607D01*
X359907Y12520790D01*
X356725Y12523970D01*
X353542Y12530335D01*
X347179Y12549426D01*
X343997Y12555788D01*
X340817Y12558971D01*
X334451Y12562154D01*
X324906Y12562154D01*
X318543Y12555788D01*
X315361Y12546243D01*
X315361Y12533515D01*
X318543Y12523970D01*
X324906Y12517607D01*
X382181Y12583152D02*
G01*
X315361Y12583152D01*
X382181Y12583152D02*
G01*
X382181Y12605425D01*
X378998Y12614970D01*
X372633Y12621333D01*
X366270Y12624516D01*
X356725Y12627698D01*
X340817Y12627698D01*
X331271Y12624516D01*
X324906Y12621333D01*
X318543Y12614970D01*
X315361Y12605425D01*
X315361Y12583152D01*
X382181Y12674152D02*
G01*
X315361Y12648697D01*
X382181Y12674152D02*
G01*
X315361Y12699606D01*
X337634Y12658244D02*
G01*
X337634Y12690060D01*
X-2195004Y12262942D02*
G01*
X-2192210Y12268276D01*
X-2186622Y12273864D01*
X-2181288Y12276404D01*
X-2170366Y12276404D01*
X-2165032Y12273864D01*
X-2159444Y12268276D01*
X-2156650Y12262942D01*
X-2154110Y12254814D01*
X-2154110Y12241098D01*
X-2156650Y12232970D01*
X-2159444Y12227382D01*
X-2165032Y12222048D01*
X-2170366Y12219254D01*
X-2181288Y12219254D01*
X-2186622Y12222048D01*
X-2192210Y12227382D01*
X-2195004Y12232970D01*
X-2195004Y12241098D01*
X-2181288Y12241098D02*
G01*
X-2195004Y12241098D01*
X-1953996Y12276523D02*
G01*
X-1953996Y12219249D01*
X-1953996Y12276523D02*
G01*
X-1978543Y12276523D01*
X-1986724Y12273795D01*
X-1989449Y12271067D01*
X-1992177Y12265614D01*
X-1992177Y12257432D01*
X-1989449Y12251977D01*
X-1986724Y12249249D01*
X-1978543Y12246523D01*
X-1953996Y12246523D01*
X-1754009Y12276536D02*
G01*
X-1754009Y12219261D01*
X-1754009Y12276536D02*
G01*
X-1778556Y12276536D01*
X-1786737Y12273808D01*
X-1789463Y12271080D01*
X-1792190Y12265626D01*
X-1792190Y12260171D01*
X-1789463Y12254717D01*
X-1786737Y12251989D01*
X-1778556Y12249261D01*
X-1754009Y12249261D02*
G01*
X-1778556Y12249261D01*
X-1786737Y12246536D01*
X-1789463Y12243808D01*
X-1792190Y12238355D01*
X-1792190Y12230171D01*
X-1789463Y12224717D01*
X-1786737Y12221989D01*
X-1778556Y12219261D01*
X-1754009Y12219261D01*
X-1253997Y12116887D02*
G01*
X-1290360Y12021431D01*
X-1326725Y12116887D02*
G01*
X-1290360Y12021431D01*
X-1402179Y12116887D02*
G01*
X-1356725Y12053249D01*
X-1424906Y12053249D01*
X-1402179Y12116887D02*
G01*
X-1402179Y12021431D01*
X-1459450Y12044159D02*
G01*
X-1454906Y12039615D01*
X-1459450Y12035068D01*
X-1463997Y12039615D01*
X-1459450Y12044159D01*
X-1521269Y12116887D02*
G01*
X-1507634Y12112340D01*
X-1498544Y12098705D01*
X-1493997Y12075977D01*
X-1493997Y12062340D01*
X-1498544Y12039615D01*
X-1507634Y12025977D01*
X-1521269Y12021431D01*
X-1530360Y12021431D01*
X-1543997Y12025977D01*
X-1553088Y12039615D01*
X-1557634Y12062340D01*
X-1557634Y12075977D01*
X-1553088Y12098705D01*
X-1543997Y12112340D01*
X-1530360Y12116887D01*
X-1521269Y12116887D01*
D11*
X-553999Y12936613D02*
G01*
X-553999Y12869793D01*
X-553999Y12936613D02*
G01*
X-582635Y12936613D01*
X-592180Y12933431D01*
X-595363Y12930248D01*
X-598545Y12923885D01*
X-598545Y12917520D01*
X-595363Y12911157D01*
X-592180Y12907975D01*
X-582635Y12904795D01*
X-553999Y12904795D02*
G01*
X-582635Y12904795D01*
X-592180Y12901612D01*
X-595363Y12898429D01*
X-598545Y12892067D01*
X-598545Y12882521D01*
X-595363Y12876159D01*
X-592180Y12872976D01*
X-582635Y12869793D01*
X-553999Y12869793D01*
X-644999Y12936613D02*
G01*
X-619544Y12869793D01*
X-644999Y12936613D02*
G01*
X-670453Y12869793D01*
X-629089Y12892067D02*
G01*
X-660907Y12892067D01*
X-713727Y12936613D02*
G01*
X-713727Y12869793D01*
X-691454Y12936613D02*
G01*
X-735998Y12936613D01*
X-211726Y12460704D02*
G01*
X-208546Y12467066D01*
X-202181Y12473432D01*
X-195818Y12476614D01*
X-183090Y12476614D01*
X-176728Y12473432D01*
X-170362Y12467066D01*
X-167182Y12460704D01*
X-164000Y12451158D01*
X-164000Y12435250D01*
X-167182Y12425705D01*
X-170362Y12419340D01*
X-176728Y12412977D01*
X-183090Y12409794D01*
X-195818Y12409794D01*
X-202181Y12412977D01*
X-208546Y12419340D01*
X-211726Y12425705D01*
X-251818Y12476614D02*
G01*
X-245455Y12473432D01*
X-239090Y12467066D01*
X-235910Y12460704D01*
X-232727Y12451158D01*
X-232727Y12435250D01*
X-235910Y12425705D01*
X-239090Y12419340D01*
X-245455Y12412977D01*
X-251818Y12409794D01*
X-264546Y12409794D01*
X-270908Y12412977D01*
X-277271Y12419340D01*
X-280454Y12425705D01*
X-283636Y12435250D01*
X-283636Y12451158D01*
X-280454Y12460704D01*
X-277271Y12467066D01*
X-270908Y12473432D01*
X-264546Y12476614D01*
X-251818Y12476614D01*
X-304637Y12476614D02*
G01*
X-304637Y12409794D01*
X-304637Y12476614D02*
G01*
X-349181Y12409794D01*
X-349181Y12476614D02*
G01*
X-349181Y12409794D01*
X-370182Y12476614D02*
G01*
X-370182Y12409794D01*
X-370182Y12476614D02*
G01*
X-414726Y12409794D01*
X-414726Y12476614D02*
G01*
X-414726Y12409794D01*
X-438909Y12460704D02*
G01*
X-438909Y12463886D01*
X-442089Y12470249D01*
X-445272Y12473432D01*
X-451634Y12476614D01*
X-464362Y12476614D01*
X-470728Y12473432D01*
X-473908Y12470249D01*
X-477090Y12463886D01*
X-477090Y12457521D01*
X-473908Y12451158D01*
X-467545Y12441613D01*
X-435726Y12409794D01*
X-480273Y12409794D01*
X413633Y12462159D02*
G01*
X439087Y12395339D01*
X413633Y12462159D02*
G01*
X388178Y12395339D01*
X429541Y12417612D02*
G01*
X397723Y12417612D01*
X367177Y12462159D02*
G01*
X367177Y12395339D01*
X322633Y12462159D02*
G01*
X322633Y12395339D01*
X367177Y12430340D02*
G01*
X322633Y12430340D01*
X279359Y12462159D02*
G01*
X279359Y12395339D01*
X301632Y12462159D02*
G01*
X257088Y12462159D01*
X232905Y12446248D02*
G01*
X232905Y12449431D01*
X229725Y12455794D01*
X226542Y12458976D01*
X220177Y12462159D01*
X207451Y12462159D01*
X201086Y12458976D01*
X197906Y12455794D01*
X194724Y12449431D01*
X194724Y12443066D01*
X197906Y12436703D01*
X204269Y12427158D01*
X236087Y12395339D01*
X191541Y12395339D01*
X151452Y12462159D02*
G01*
X160997Y12458976D01*
X167360Y12449431D01*
X170543Y12433520D01*
X170543Y12423975D01*
X167360Y12408067D01*
X160997Y12398522D01*
X151452Y12395339D01*
X145087Y12395339D01*
X135542Y12398522D01*
X129179Y12408067D01*
X125996Y12423975D01*
X125996Y12433520D01*
X129179Y12449431D01*
X135542Y12458976D01*
X145087Y12462159D01*
X151452Y12462159D01*
X594540Y12452611D02*
G01*
X600905Y12458976D01*
X610450Y12462159D01*
X623178Y12462159D01*
X632724Y12458976D01*
X639086Y12452611D01*
X639086Y12446248D01*
X635904Y12439886D01*
X632724Y12436703D01*
X626358Y12433520D01*
X607268Y12427158D01*
X600905Y12423975D01*
X597722Y12420795D01*
X594540Y12414430D01*
X594540Y12404885D01*
X600905Y12398522D01*
X610450Y12395339D01*
X623178Y12395339D01*
X632724Y12398522D01*
X639086Y12404885D01*
X570359Y12446248D02*
G01*
X570359Y12449431D01*
X567176Y12455794D01*
X563996Y12458976D01*
X557631Y12462159D01*
X544906Y12462159D01*
X538540Y12458976D01*
X535360Y12455794D01*
X532178Y12449431D01*
X532178Y12443066D01*
X535360Y12436703D01*
X541723Y12427158D01*
X573542Y12395339D01*
X528995Y12395339D01*
X-1704456Y11936173D02*
G01*
X-1704456Y11869353D01*
X-1704456Y11936173D02*
G01*
X-1726730Y11936173D01*
X-1736275Y11932991D01*
X-1742638Y11926625D01*
X-1745820Y11920263D01*
X-1749003Y11910717D01*
X-1749003Y11894809D01*
X-1745820Y11885264D01*
X-1742638Y11878899D01*
X-1736275Y11872536D01*
X-1726730Y11869353D01*
X-1704456Y11869353D01*
X-1770001Y11936173D02*
G01*
X-1770001Y11869353D01*
X-1770001Y11936173D02*
G01*
X-1798637Y11936173D01*
X-1808182Y11932991D01*
X-1811365Y11929808D01*
X-1814548Y11923445D01*
X-1814548Y11917080D01*
X-1811365Y11910717D01*
X-1808182Y11907535D01*
X-1798637Y11904355D01*
X-1770001Y11904355D02*
G01*
X-1798637Y11904355D01*
X-1808182Y11901172D01*
X-1811365Y11897989D01*
X-1814548Y11891627D01*
X-1814548Y11882081D01*
X-1811365Y11875719D01*
X-1808182Y11872536D01*
X-1798637Y11869353D01*
X-1770001Y11869353D01*
X-1883275Y11920263D02*
G01*
X-1880092Y11926625D01*
X-1873730Y11932991D01*
X-1867364Y11936173D01*
X-1854639Y11936173D01*
X-1848274Y11932991D01*
X-1841911Y11926625D01*
X-1838728Y11920263D01*
X-1835546Y11910717D01*
X-1835546Y11894809D01*
X-1838728Y11885264D01*
X-1841911Y11878899D01*
X-1848274Y11872536D01*
X-1854639Y11869353D01*
X-1867364Y11869353D01*
X-1873730Y11872536D01*
X-1880092Y11878899D01*
X-1883275Y11885264D01*
X-1883275Y11894809D01*
X-1867364Y11894809D02*
G01*
X-1883275Y11894809D01*
X-1904273Y11897989D02*
G01*
X-1961548Y11897989D01*
X-1982546Y11936173D02*
G01*
X-1982546Y11869353D01*
X-1982546Y11936173D02*
G01*
X-2011184Y11936173D01*
X-2020730Y11932991D01*
X-2023910Y11929808D01*
X-2027092Y11923445D01*
X-2027092Y11913900D01*
X-2023910Y11907535D01*
X-2020730Y11904355D01*
X-2011184Y11901172D01*
X-1982546Y11901172D01*
X-2048093Y11936173D02*
G01*
X-2064001Y11869353D01*
X-2079909Y11936173D02*
G01*
X-2064001Y11869353D01*
X-2079909Y11936173D02*
G01*
X-2095820Y11869353D01*
X-2111728Y11936173D02*
G01*
X-2095820Y11869353D01*
X-2132728Y11936173D02*
G01*
X-2132728Y11869353D01*
X-2132728Y11936173D02*
G01*
X-2161364Y11936173D01*
X-2170910Y11932991D01*
X-2174092Y11929808D01*
X-2177275Y11923445D01*
X-2177275Y11917080D01*
X-2174092Y11910717D01*
X-2170910Y11907535D01*
X-2161364Y11904355D01*
X-2132728Y11904355D01*
X-2155002Y11904355D02*
G01*
X-2177275Y11869353D01*
X-1681723Y12360729D02*
G01*
X-1678543Y12367092D01*
X-1672178Y12373457D01*
X-1665815Y12376640D01*
X-1653087Y12376640D01*
X-1646725Y12373457D01*
X-1640359Y12367092D01*
X-1637179Y12360729D01*
X-1633997Y12351184D01*
X-1633997Y12335276D01*
X-1637179Y12325731D01*
X-1640359Y12319365D01*
X-1646725Y12313003D01*
X-1653087Y12309820D01*
X-1665815Y12309820D01*
X-1672178Y12313003D01*
X-1678543Y12319365D01*
X-1681723Y12325731D01*
X-1721815Y12376640D02*
G01*
X-1715452Y12373457D01*
X-1709087Y12367092D01*
X-1705907Y12360729D01*
X-1702724Y12351184D01*
X-1702724Y12335276D01*
X-1705907Y12325731D01*
X-1709087Y12319365D01*
X-1715452Y12313003D01*
X-1721815Y12309820D01*
X-1734543Y12309820D01*
X-1740905Y12313003D01*
X-1747268Y12319365D01*
X-1750451Y12325731D01*
X-1753633Y12335276D01*
X-1753633Y12351184D01*
X-1750451Y12360729D01*
X-1747268Y12367092D01*
X-1740905Y12373457D01*
X-1734543Y12376640D01*
X-1721815Y12376640D01*
X-1774634Y12376640D02*
G01*
X-1774634Y12309820D01*
X-1774634Y12376640D02*
G01*
X-1819178Y12309820D01*
X-1819178Y12376640D02*
G01*
X-1819178Y12309820D01*
X-1840179Y12376640D02*
G01*
X-1840179Y12309820D01*
X-1840179Y12376640D02*
G01*
X-1884723Y12309820D01*
X-1884723Y12376640D02*
G01*
X-1884723Y12309820D01*
X-1905723Y12363912D02*
G01*
X-1912086Y12367092D01*
X-1921631Y12376640D01*
X-1921631Y12309820D01*
D10*
X-924636Y12715976D02*
G01*
X-857816Y12690523D01*
X-924636Y12665067D02*
G01*
X-857816Y12690523D01*
X-908725Y12596340D02*
G01*
X-915088Y12599522D01*
X-921453Y12605885D01*
X-924636Y12612250D01*
X-924636Y12624976D01*
X-921453Y12631341D01*
X-915088Y12637703D01*
X-908725Y12640886D01*
X-899180Y12644066D01*
X-883272Y12644066D01*
X-873726Y12640886D01*
X-867361Y12637703D01*
X-860999Y12631341D01*
X-857816Y12624976D01*
X-857816Y12612250D01*
X-860999Y12605885D01*
X-867361Y12599522D01*
X-873726Y12596340D01*
X-908725Y12527612D02*
G01*
X-915088Y12530795D01*
X-921453Y12537158D01*
X-924636Y12543523D01*
X-924636Y12556248D01*
X-921453Y12562613D01*
X-915088Y12568976D01*
X-908725Y12572159D01*
X-899180Y12575339D01*
X-883272Y12575339D01*
X-873726Y12572159D01*
X-867361Y12568976D01*
X-860999Y12562613D01*
X-857816Y12556248D01*
X-857816Y12543523D01*
X-860999Y12537158D01*
X-867361Y12530795D01*
X-873726Y12527612D01*
X-1208725Y12668250D02*
G01*
X-1215087Y12671430D01*
X-1221452Y12677795D01*
X-1224635Y12684158D01*
X-1224635Y12696885D01*
X-1221452Y12703248D01*
X-1215087Y12709613D01*
X-1208725Y12712793D01*
X-1199179Y12715976D01*
X-1183271Y12715976D01*
X-1173726Y12712793D01*
X-1167361Y12709613D01*
X-1160998Y12703248D01*
X-1157815Y12696885D01*
X-1157815Y12684158D01*
X-1160998Y12677795D01*
X-1167361Y12671430D01*
X-1173726Y12668250D01*
X-1183271Y12668250D01*
X-1183271Y12684158D02*
G01*
X-1183271Y12668250D01*
X-1224635Y12647249D02*
G01*
X-1157815Y12647249D01*
X-1224635Y12647249D02*
G01*
X-1157815Y12602705D01*
X-1224635Y12602705D02*
G01*
X-1157815Y12602705D01*
X-1224635Y12581704D02*
G01*
X-1157815Y12581704D01*
X-1224635Y12581704D02*
G01*
X-1224635Y12559431D01*
X-1221452Y12549886D01*
X-1215087Y12543523D01*
X-1208725Y12540340D01*
X-1199179Y12537158D01*
X-1183271Y12537158D01*
X-1173726Y12540340D01*
X-1167361Y12543523D01*
X-1160998Y12549886D01*
X-1157815Y12559431D01*
X-1157815Y12581704D01*
X-1470319Y12643604D02*
G01*
X-1476684Y12649969D01*
X-1479867Y12659514D01*
X-1479867Y12672242D01*
X-1476684Y12681788D01*
X-1470319Y12688150D01*
X-1463956Y12688150D01*
X-1457594Y12684968D01*
X-1454411Y12681788D01*
X-1451228Y12675422D01*
X-1444866Y12656332D01*
X-1441683Y12649969D01*
X-1438503Y12646787D01*
X-1432138Y12643604D01*
X-1422593Y12643604D01*
X-1416230Y12649969D01*
X-1413047Y12659514D01*
X-1413047Y12672242D01*
X-1416230Y12681788D01*
X-1422593Y12688150D01*
X-1463956Y12574879D02*
G01*
X-1470319Y12578059D01*
X-1476684Y12584424D01*
X-1479867Y12590787D01*
X-1479867Y12603515D01*
X-1476684Y12609878D01*
X-1470319Y12616240D01*
X-1463956Y12619423D01*
X-1454411Y12622606D01*
X-1438503Y12622606D01*
X-1428958Y12619423D01*
X-1422593Y12616240D01*
X-1416230Y12609878D01*
X-1413047Y12603515D01*
X-1413047Y12590787D01*
X-1416230Y12584424D01*
X-1422593Y12578059D01*
X-1428958Y12574879D01*
X-1479867Y12553878D02*
G01*
X-1413047Y12553878D01*
X-1413047Y12553878D02*
G01*
X-1413047Y12515697D01*
X-1724319Y12643604D02*
G01*
X-1730684Y12649969D01*
X-1733867Y12659514D01*
X-1733867Y12672242D01*
X-1730684Y12681788D01*
X-1724319Y12688150D01*
X-1717956Y12688150D01*
X-1711594Y12684968D01*
X-1708411Y12681788D01*
X-1705228Y12675422D01*
X-1698866Y12656332D01*
X-1695683Y12649969D01*
X-1692503Y12646787D01*
X-1686138Y12643604D01*
X-1676593Y12643604D01*
X-1670230Y12649969D01*
X-1667047Y12659514D01*
X-1667047Y12672242D01*
X-1670230Y12681788D01*
X-1676593Y12688150D01*
X-1733867Y12622606D02*
G01*
X-1667047Y12622606D01*
X-1733867Y12622606D02*
G01*
X-1733867Y12600332D01*
X-1730684Y12590787D01*
X-1724319Y12584424D01*
X-1717956Y12581242D01*
X-1708411Y12578059D01*
X-1692503Y12578059D01*
X-1682958Y12581242D01*
X-1676593Y12584424D01*
X-1670230Y12590787D01*
X-1667047Y12600332D01*
X-1667047Y12622606D01*
X-1733867Y12531605D02*
G01*
X-1667047Y12557061D01*
X-1733867Y12531605D02*
G01*
X-1667047Y12506152D01*
X-1689320Y12547513D02*
G01*
X-1689320Y12515697D01*
X-1924634Y12690523D02*
G01*
X-1857814Y12715976D01*
X-1924634Y12690523D02*
G01*
X-1857814Y12665067D01*
X-1880087Y12706431D02*
G01*
X-1880087Y12674612D01*
X-1924634Y12644066D02*
G01*
X-1857814Y12644066D01*
X-1924634Y12644066D02*
G01*
X-1924634Y12621795D01*
X-1921451Y12612250D01*
X-1915086Y12605885D01*
X-1908723Y12602705D01*
X-1899178Y12599522D01*
X-1883270Y12599522D01*
X-1873724Y12602705D01*
X-1867359Y12605885D01*
X-1860997Y12612250D01*
X-1857814Y12621795D01*
X-1857814Y12644066D01*
X-1924634Y12578521D02*
G01*
X-1857814Y12578521D01*
X-1924634Y12578521D02*
G01*
X-1924634Y12556248D01*
X-1921451Y12546703D01*
X-1915086Y12540340D01*
X-1908723Y12537158D01*
X-1899178Y12533977D01*
X-1883270Y12533977D01*
X-1873724Y12537158D01*
X-1867359Y12540340D01*
X-1860997Y12546703D01*
X-1857814Y12556248D01*
X-1857814Y12578521D01*
X-1924634Y12512977D02*
G01*
X-1857814Y12512977D01*
X-1924634Y12512977D02*
G01*
X-1924634Y12484341D01*
X-1921451Y12474795D01*
X-1918268Y12471613D01*
X-1911906Y12468430D01*
X-1905541Y12468430D01*
X-1899178Y12471613D01*
X-1895995Y12474795D01*
X-1892815Y12484341D01*
X-1892815Y12512977D01*
X-1892815Y12490704D02*
G01*
X-1857814Y12468430D01*
D11*
X-1051775Y12420727D02*
G01*
X-1048473Y12427077D01*
X-1042123Y12433427D01*
X-1035773Y12436729D01*
X-1023073Y12436729D01*
X-1016723Y12433427D01*
X-1010373Y12427077D01*
X-1007071Y12420727D01*
X-1004023Y12411075D01*
X-1004023Y12395327D01*
X-1007071Y12385675D01*
X-1010373Y12379325D01*
X-1016723Y12372975D01*
X-1023073Y12369673D01*
X-1035773Y12369673D01*
X-1042123Y12372975D01*
X-1048473Y12379325D01*
X-1051775Y12385675D01*
X-1051775Y12395327D01*
X-1035773Y12395327D02*
G01*
X-1051775Y12395327D01*
X-1072603Y12436729D02*
G01*
X-1098257Y12404725D01*
X-1098257Y12369673D01*
X-1123657Y12436729D02*
G01*
X-1098257Y12404725D01*
X-1144739Y12398375D02*
G01*
X-1201889Y12398375D01*
X-1229321Y12436729D02*
G01*
X-1264373Y12436729D01*
X-1245069Y12411075D01*
X-1254721Y12411075D01*
X-1261071Y12408027D01*
X-1264373Y12404725D01*
X-1267421Y12395327D01*
X-1267421Y12388977D01*
X-1264373Y12379325D01*
X-1258023Y12372975D01*
X-1248371Y12369673D01*
X-1238719Y12369673D01*
X-1229321Y12372975D01*
X-1226019Y12376277D01*
X-1222971Y12382627D01*
X-1307553Y12436729D02*
G01*
X-1297901Y12433427D01*
X-1291551Y12423775D01*
X-1288503Y12408027D01*
X-1288503Y12398375D01*
X-1291551Y12382627D01*
X-1297901Y12372975D01*
X-1307553Y12369673D01*
X-1313903Y12369673D01*
X-1323555Y12372975D01*
X-1329905Y12382627D01*
X-1332953Y12398375D01*
X-1332953Y12408027D01*
X-1329905Y12423775D01*
X-1323555Y12433427D01*
X-1313903Y12436729D01*
X-1307553Y12436729D01*
X-1357083Y12420727D02*
G01*
X-1357083Y12423775D01*
X-1360385Y12430125D01*
X-1363433Y12433427D01*
X-1369783Y12436729D01*
X-1382737Y12436729D01*
X-1389087Y12433427D01*
X-1392135Y12430125D01*
X-1395437Y12423775D01*
X-1395437Y12417425D01*
X-1392135Y12411075D01*
X-1385785Y12401677D01*
X-1354035Y12369673D01*
X-1398485Y12369673D01*
X-898512Y12427191D02*
G01*
X-892162Y12433541D01*
X-882510Y12436589D01*
X-869810Y12436589D01*
X-860412Y12433541D01*
X-854062Y12427191D01*
X-854062Y12420587D01*
X-857110Y12414237D01*
X-860412Y12411189D01*
X-866762Y12407887D01*
X-885812Y12401537D01*
X-892162Y12398489D01*
X-895464Y12395187D01*
X-898512Y12388837D01*
X-898512Y12379439D01*
X-892162Y12373089D01*
X-882510Y12369787D01*
X-869810Y12369787D01*
X-860412Y12373089D01*
X-854062Y12379439D01*
X-919594Y12423889D02*
G01*
X-925944Y12427191D01*
X-935342Y12436589D01*
X-935342Y12369787D01*
D12*
X-174660Y12597142D02*
G01*
X-211112Y12597142D01*
X-211112Y12552078D01*
X-259511Y12552078D01*
X-259511Y12508974D01*
X-373390Y12828973D02*
G01*
X-373390Y12793776D01*
X-211112Y12793776D01*
X-211112Y12667576D01*
X-174660Y12667576D01*
X-634657Y12598781D02*
G01*
X-600311Y12598781D01*
X-600311Y12547175D01*
X-547911Y12547175D01*
X-547911Y12508974D01*
X-435660Y12828973D02*
G01*
X-435660Y12797076D01*
X-599511Y12797076D01*
X-599511Y12666776D01*
X-634657Y12666776D01*
X-174660Y12828973D02*
G01*
X-634657Y12828973D01*
X-174660Y12508974D02*
G01*
X-634657Y12508974D01*
X-174660Y12828973D02*
G01*
X-174660Y12508974D01*
X-634657Y12828973D02*
G01*
X-634657Y12508974D01*
D10*
X128498Y12738976D02*
G01*
X953998Y12738976D01*
X953998Y12992976D01*
X-62001Y12992976D01*
X-62001Y12738976D01*
X128498Y12738976D01*
D12*
X-1654860Y12168517D02*
G01*
X-2254046Y12168517D01*
X-2254046Y11965978D01*
X-1654860Y11965978D01*
X-1654860Y12168517D01*
X-1855434Y12168517D02*
G01*
X-1855434Y11965978D01*
X-2069655Y12738976D02*
G01*
X-2069655Y12992976D01*
X-1841055Y12992976D01*
X-1536255Y12992976D01*
X-796858Y12992976D01*
X-799655Y12992976D01*
X-799655Y12738976D01*
X-2069655Y12738976D01*
M02*
